<?xml version="1.0" encoding="UTF-8" standalone="no"?>
<!-- Created with Inkscape (http://www.inkscape.org/) -->

<svg
   width="136.00024mm"
   height="136.00026mm"
   viewBox="0 0 136.00024 136.00026"
   version="1.1"
   id="svg1"
   xmlns="http://www.w3.org/2000/svg"
   xmlns:svg="http://www.w3.org/2000/svg">
  <defs
     id="defs1" />
  <g
     id="layer1"
     transform="translate(-38.761191,-79.897519)">
    <path
       id="path15"
       style="fill:#37a6d1;fill-opacity:1"
       d="m 106.05847,79.910519 c -3.65029,0.0535 -7.463875,0.27062 -9.590115,0.60565 -3.77851,0.59542 -8.95391,1.91104 -12.58476,3.19929 -3.64076,1.29177 -9.7057,4.20994 -12.92892,6.220813 -8.2943,5.17448 -16.22406,12.929458 -21.34857,20.878308 -5.6144,8.7087 -9.06623,18.17151 -10.42934,28.59154 -0.55354,4.2291 -0.55399,12.78337 -0.002,17.02325 3.4156,26.21721 21.39097,47.94868 46.51447,56.23429 4.49164,1.48135 9.81683,2.57047 15.417145,3.1533 h 0.001 c 2.29529,0.23887 12.66589,-0.0902 15.30915,-0.48576 14.88974,-2.22797 27.7927,-8.73202 38.46018,-19.38745 10.66276,-10.6507 17.09569,-23.51438 19.40502,-38.80331 0.6393,-4.23245 0.63975,-14.13484 5.2e-4,-18.49862 -2.26335,-15.45089 -9.05969,-28.80299 -20.13676,-39.563988 -11.21108,-10.89115 -25.23222,-17.422443 -40.73705,-18.974553 -1.01161,-0.10134 -2.34,-0.16337 -3.8225,-0.19017 -1.11188,-0.0201 -2.31067,-0.0204 -3.52744,-0.003 z m 0.0212,2.05207 c 1.17981,-0.0173 2.34236,-0.017 3.42047,0.003 1.43748,0.026 2.72588,0.0863 3.70675,0.18448 15.03386,1.50529 28.62885,7.839023 39.4994,18.401461 8e-5,9e-5 -9e-5,4.3e-4 0,5.2e-4 0.7745,0.75256 1.52133,1.52211 2.25257,2.30063 -0.73115,-0.77851 -1.47809,-1.5481 -2.25257,-2.30063 -10.87052,-10.562408 -24.4656,-16.896171 -39.4994,-18.401461 -0.98087,-0.0982 -2.26927,-0.15849 -3.70675,-0.18449 -1.07811,-0.0198 -2.24066,-0.0205 -3.42047,-0.003 z m 0,0 v 5.2e-4 c -1.77998,0.0261 -3.59785,0.0926 -5.22965,0.19327 1.63258,-0.10075 3.44856,-0.16769 5.22965,-0.19379 z m 3.47886,0.11576 c 1.43745,0.026 2.72536,0.0863 3.70624,0.18448 15.03387,1.5053 28.62987,7.838503 39.50043,18.400951 1.31242,1.27522 2.53545,2.5571 3.69073,3.85764 -0.28896,-0.32854 -0.57439,-0.65921 -0.87075,-0.9834 0.51889,0.56753 1.02823,1.14049 1.52445,1.72134 -0.11974,-0.14019 -0.24687,-0.27606 -0.36793,-0.41548 0.4295,0.48987 0.84332,0.98476 1.25315,1.48157 -0.0746,-0.091 -0.14451,-0.18472 -0.21962,-0.27544 0.50335,0.60782 0.99281,1.22348 1.47174,1.84537 -0.0546,-0.0709 -0.11303,-0.13959 -0.16795,-0.21033 0.23746,0.30476 0.479,0.6074 0.71004,0.91571 -0.0165,-0.0221 -0.0315,-0.0451 -0.0481,-0.0672 0.64011,0.85251 1.26203,1.71551 1.85673,2.59364 0.58857,0.86909 1.1485,1.75409 1.69241,2.6479 -0.0912,-0.14984 -0.1913,-0.29474 -0.28371,-0.4439 0.92577,1.5089 1.80053,3.07413 2.63602,4.71496 0.86582,1.7004 1.64225,3.3779 2.33836,5.05757 -0.40727,-1.00685 -0.84196,-1.99897 -1.2976,-2.98069 2.708,5.83372 4.56866,12.11162 5.54798,18.79833 0.61981,4.23208 0.61936,13.83528 -5.1e-4,17.93999 -2.23919,14.82749 -8.4765,27.30309 -18.81539,37.63233 -10.34346,10.33383 -22.8543,16.64174 -37.29178,18.80247 -2.56298,0.38357 -12.61902,0.70243 -14.84458,0.47077 h -5.1e-4 c -5.430225,-0.56524 -10.593755,-1.62159 -14.948955,-3.05821 -15.15157,-4.99791 -27.61553,-15.04456 -35.67534,-28.04066 -0.76013,-1.22568 -1.47366,-2.48145 -2.15388,-3.75791 -0.18285,-0.34313 -0.35894,-0.68948 -0.53588,-1.03612 -0.50256,-0.98452 -0.98102,-1.98287 -1.43506,-2.99465 -0.53391,-1.18979 -1.0203,-2.40358 -1.48518,-3.62872 -0.39173,-1.03238 -0.75265,-2.07783 -1.09399,-3.13365 -0.56276,-1.74075 -1.05464,-3.51078 -1.47588,-5.30976 -0.28657,-1.23174 -0.5429,-2.47509 -0.76274,-3.73155 0.21697,1.25125 0.47334,2.49214 0.76068,3.7238 -0.28771,-1.22936 -0.54128,-2.46993 -0.76068,-3.7238 -0.16892,-0.96539 -0.3562,-1.92492 -0.48369,-2.9037 -0.1231,-0.94511 -0.21005,-2.1505 -0.27647,-3.43597 0.0664,1.2857 0.15386,2.49124 0.27699,3.43649 0.11925,0.91545 0.29665,1.81182 0.45216,2.71559 -0.14728,-0.86388 -0.28021,-1.73159 -0.39377,-2.60346 -0.53527,-4.11192 -0.53482,-12.40811 0.002,-16.50958 1.9558,-14.95381 8.27217,-27.80522 18.90117,-38.45709 9.93564,-9.957018 22.70799,-16.457761 36.65048,-18.655191 2.74887,-0.43324 8.406255,-0.6626 12.718595,-0.58446 z m 53.4479,31.252871 c -0.1126,-0.18353 -0.23208,-0.36022 -0.34623,-0.54208 0.1147,0.18108 0.2334,0.35997 0.34623,0.54208 z m -0.34623,-0.54208 c -0.35174,-0.55531 -0.69314,-1.11638 -1.06247,-1.66192 -0.0912,-0.13472 -0.19246,-0.26379 -0.28473,-0.39791 0.46192,0.67485 0.90962,1.36267 1.3472,2.05983 z m -1.3472,-2.05983 c -0.49288,-0.72006 -1.00033,-1.4298 -1.52394,-2.12855 0.52428,0.70029 1.03025,1.41099 1.52394,2.12855 z m -2.23398,-3.04426 c -0.3551,-0.45573 -0.71395,-0.91081 -1.08417,-1.3596 0.36808,0.44937 0.72936,0.90259 1.08417,1.3596 z m -2.33732,-2.84117 c -0.0944,-0.10764 -0.19041,-0.2151 -0.28577,-0.32246 0.0948,0.10778 0.19178,0.21422 0.28577,0.32246 z M 96.802205,82.547569 c -0.006,9.4e-4 -0.0152,0.002 -0.0212,0.003 -3.66373,0.57743 -8.6818,1.85382 -12.20236,3.10317 -3.53016,1.25277 -9.41087,4.082553 -12.53618,6.032713 -4.02117,2.50915 -7.95354,5.64402 -11.50214,9.115208 3.54866,-3.471288 7.48085,-6.606498 11.50214,-9.115728 3.12532,-1.95015 9.00601,-4.779933 12.53618,-6.032703 3.52057,-1.24936 8.5386,-2.52574 12.20236,-3.10317 0.005,-8.4e-4 0.0158,-0.001 0.0212,-0.002 z m 7.498765,3.47834 c -0.17157,0.006 -0.39322,0.0305 -0.68316,0.0651 -0.67215,0.0802 -2.1449,0.22225 -3.27267,0.31575 l -2.050515,0.17001 v 0.78652 c 0,0.774523 0.0191,0.784683 1.25677,0.69608 l 1.256765,-0.0899 0.0661,1.058343 c 0.0364,0.58208 0.13285,1.56435 0.21445,2.18281 0.14111,1.06918 0.19233,1.12448 1.03353,1.12448 h 0.8847 l -0.11989,-1.65365 c -0.0659,-0.9095 -0.15695,-1.91908 -0.20205,-2.24379 -0.0686,-0.494393 0.0735,-0.616103 0.87281,-0.748273 1.49984,-0.248 1.55928,-0.29197 1.41594,-1.0418 -0.0956,-0.4999 -0.15813,-0.64078 -0.67283,-0.62167 z m 7.15047,0.12247 -0.60306,0.70125 c -0.43143,0.50156 -0.65651,1.20085 -0.79117,2.458253 -0.17431,1.62773 -0.14177,1.80325 0.4408,2.38125 0.45104,0.4475 1.11541,0.69297 2.34869,0.86713 2.59849,0.36697 3.2655,0.34762 3.92483,-0.1142 0.81676,-0.57208 0.7048,-1.78932 -0.17622,-1.9141 -0.33942,-0.0481 -0.81567,0.0867 -1.05833,0.29921 -0.3277,0.28702 -0.78182,0.34081 -1.76527,0.20929 -1.85799,-0.24842 -2.06593,-0.42559 -1.85105,-1.57562 0.0989,-0.52903 0.29674,-1.10421 0.44028,-1.27795 0.40645,-0.491953 2.91621,-0.135163 3.36207,0.478 0.21051,0.28951 0.68288,0.4992 1.12448,0.4992 0.66838,0 0.76171,-0.0962 0.76171,-0.78755 0,-1.145143 -0.9211,-1.623033 -3.75429,-1.948203 z m -14.582055,0.70435 c -0.0746,-0.0746 -2.48037,0.40325 -5.63118,1.11828 -0.50473,0.11454 -0.54754,0.234363 -0.3545,0.990643 0.12076,0.47311 0.41708,1.78265 0.65836,2.91042 0.24955,1.16639 0.57352,2.04777 0.75138,2.04277 0.17198,-0.004 1.56279,-0.28147 3.09076,-0.61547 2.62017,-0.57276 2.7741,-0.64281 2.7063,-1.23248 -0.0395,-0.34386 -0.12044,-0.67338 -0.17984,-0.73278 -0.0594,-0.0594 -0.94349,0.0819 -1.96473,0.3142 -2.28405,0.51952 -2.67839,0.52599 -2.67839,0.0434 0,-0.42766 0.24867,-0.52081 2.58589,-0.9648 1.50958,-0.28676 1.64488,-0.36603 1.48879,-0.87489 -0.0944,-0.30778 -0.19851,-0.59155 -0.23151,-0.63045 -0.033,-0.0389 -0.9323,0.11269 -1.99833,0.33693 -1.53174,0.32225 -1.98117,0.33876 -2.14198,0.0786 -0.2841,-0.45967 -0.24616,-0.47798 2.06654,-0.99167 1.90444,-0.42301 2.06142,-0.5076 1.99522,-1.080043 -0.0395,-0.34169 -0.11268,-0.66252 -0.16278,-0.71262 z m 23.727235,0.97979 c -1.11987,0.0752 -1.53658,0.855293 -2.00143,2.660823 -0.61712,2.39704 -0.28789,2.81528 2.98276,3.78478 2.69557,0.79904 2.89625,0.81581 3.62717,0.30386 0.61219,-0.42879 1.39992,-2.71762 1.39992,-4.06745 0,-1.00663 -0.54347,-1.38263 -3.07113,-2.12494 -1.34018,-0.393583 -2.26537,-0.602193 -2.93729,-0.557073 z m -31.914845,0.964803 c -0.93977,0.0782 -5.46742,1.8425 -5.46788,2.13062 -2.7e-4,0.17198 0.3598,1.30307 0.80046,2.51354 0.44066,1.21048 0.85368,2.34973 0.91778,2.53163 0.15586,0.44237 0.13105,0.44774 3.30832,-0.70487 2.31156,-0.83856 2.76316,-1.09168 2.68976,-1.5074 -0.1532,-0.86736 -0.4035,-0.89221 -2.24224,-0.22479 -2.06058,0.74795 -2.56418,0.80201 -2.56418,0.27595 0,-0.2248 0.66311,-0.59786 1.65364,-0.93018 2.26744,-0.76073 2.39876,-0.86016 1.95079,-1.47277 -0.35363,-0.48362 -0.41727,-0.47795 -2.22829,0.19068 -1.0254,0.37858 -1.93335,0.61937 -2.01745,0.53537 -0.45061,-0.45062 0.0539,-0.83869 1.94665,-1.49758 1.93188,-0.6725 2.08251,-0.77613 1.88206,-1.30225 -0.1198,-0.31445 -0.4032,-0.55675 -0.62942,-0.53795 z m 32.948885,0.76481 c 0.28513,0.023 0.6376,0.10262 1.07384,0.22944 1.93347,0.56207 2.2279,0.93671 1.74253,2.21589 -0.44365,1.16924 -0.8794,1.27076 -2.73679,0.6382 -1.30828,-0.44554 -1.32222,-0.46204 -1.25832,-1.49396 0.0753,-1.21608 0.32333,-1.65843 1.17874,-1.58957 z m 7.25951,0.67283 c -0.16061,0.17332 -2.54972,4.97961 -2.54972,5.1294 0,0.071 0.32743,0.30201 0.72761,0.51366 l 0.7276,0.38499 0.97875,-1.89756 0.97927,-1.89807 0.0129,2.3089 c 0.0122,2.15406 0.0568,2.33785 0.66404,2.73575 0.69216,0.45352 0.59743,0.50529 4.34392,-2.37195 0.20046,-0.15395 -0.0752,0.59307 -0.61236,1.65985 -0.53723,1.06679 -0.93919,1.96916 -0.89349,2.00556 0.0457,0.0364 0.32133,0.19919 0.61237,0.36174 0.29104,0.16256 0.62576,0.29986 0.74414,0.30386 0.22007,0.008 2.56315,-4.74449 2.56315,-5.19917 0,-0.27647 -1.68024,-1.14705 -2.19211,-1.13585 -0.17696,0.004 -1.03581,0.54686 -1.90893,1.20665 l -1.5875,1.19941 -0.077,-2.14147 -0.077,-2.14096 -1.17409,-0.57051 c -0.64569,-0.3137 -1.22237,-0.51803 -1.28157,-0.45423 z m -50.828935,2.95072 c -0.22592,-0.05 -0.46361,0.0609 -0.77463,0.28836 -0.44148,0.32282 -0.3901,0.50848 0.80305,2.91041 0.70094,1.41108 1.36908,2.56522 1.48467,2.56522 0.11558,0 1.28189,-0.53829 2.59209,-1.19631 2.26017,-1.13514 2.36625,-1.2266 2.07532,-1.78594 -0.16866,-0.32425 -0.3379,-0.62692 -0.3762,-0.67282 -0.0383,-0.0459 -0.79269,0.28151 -1.67639,0.7276 -0.8837,0.44609 -1.66794,0.8108 -1.74304,0.8108 -0.0751,0 -0.55622,-0.83344 -1.06919,-1.85208 -0.59531,-1.18212 -0.93914,-1.71193 -1.31568,-1.79524 z m -2.60914,1.69292 c -0.29271,-0.11272 -0.80422,0.1949 -2.52181,1.29915 -1.32937,0.85466 -2.41691,1.64725 -2.41691,1.76113 0,0.11389 0.6846,1.2801 1.52135,2.592088 0.83674,1.31199 1.58085,2.38373 1.65365,2.38073 0.0728,-0.003 0.42188,-0.2279 0.77618,-0.50023 0.622,-0.47809 0.62884,-0.51825 0.19844,-1.17512 -0.24516,-0.37416 -0.44545,-0.78678 -0.44545,-0.91674 0,-0.12996 0.71628,-0.678228 1.59163,-1.218528 0.98893,-0.6104 1.52419,-1.10062 1.41387,-1.29449 -0.55208,-0.97027 -0.667,-0.96408 -2.2655,0.12144 -1.42189,0.96558 -1.63196,1.03712 -1.99161,0.67748 -0.35965,-0.35965 -0.218,-0.5232 1.34514,-1.5503 0.96103,-0.63146 1.74987,-1.21474 1.75287,-1.29604 0.003,-0.0813 -0.15696,-0.37022 -0.35554,-0.64182 -0.0855,-0.11697 -0.15874,-0.20118 -0.25631,-0.23875 z m 63.620395,0.38086 -1.77095,2.41277 -1.77095,2.412768 0.63045,0.48473 c 0.34673,0.26662 0.68995,0.48741 0.76275,0.49041 0.0728,0.003 0.54322,-0.59748 1.04541,-1.334288 0.50219,-0.73681 1.02582,-1.40918 1.16375,-1.49448 0.23392,-0.14457 0.12469,1.36862 -0.25321,3.507788 -0.11645,0.65918 -0.026,0.86691 0.49868,1.14774 0.57268,0.30648 0.8444,0.2405 2.55953,-0.62322 1.05546,-0.53153 1.96625,-0.91988 2.02365,-0.86248 0.0574,0.0574 -0.4174,0.80171 -1.05472,1.65365 l -1.15858,1.54874 0.5643,0.4718 c 0.31037,0.25934 0.63631,0.47508 0.72451,0.48008 0.17906,0.01 3.75485,-4.78202 3.62562,-4.85862 -0.0451,-0.0267 -0.54431,-0.38958 -1.1095,-0.806148 l -1.02732,-0.75706 -1.98128,0.979778 -1.98127,0.98031 0.16795,-0.66818 c 0.0923,-0.36766 0.24026,-1.360688 0.32866,-2.206578 l 0.16071,-1.5379 -1.07383,-0.71106 z m -31.45596,0.81648 c -0.82019,-0.004 -1.66798,0.008 -2.54971,0.0331 -5.184625,0.1492 -8.370535,0.64827 -13.090675,2.05052 -16.0814,4.777408 -29.12657,17.415458 -34.46869,33.393308 -5.41195,16.18663 -2.57067,33.84085 7.64914,47.52733 1.91387,2.56308 6.48053,7.28666 9.06095,9.37256 7.56377,6.11426 17.16774,10.1545 26.808695,11.27786 1.04407,0.12165 3.42124,0.2369 5.28236,0.2558 22.58135,0.22907 42.7472,-14.24379 49.906,-35.81694 2.29941,-6.92937 3.13722,-14.37899 2.38952,-21.24314 -2.2424,-20.58582 -15.96349,-37.7572 -35.34462,-44.231928 -5.49513,-1.83579 -9.9016,-2.59362 -15.64297,-2.61845 z m -2.913,2.1053 c 4.07573,-0.0873 8.96904,0.24132 11.98842,0.87488 17.62759,3.698848 31.76043,16.211948 37.4158,33.126668 2.95567,8.84016 3.42913,17.58161 1.43609,26.53171 -4.38024,19.67037 -19.90727,34.63751 -39.86268,38.42453 -3.7238,0.70669 -11.75067,0.89089 -15.50345,0.35605 -5.699965,-0.81234 -10.489345,-2.33504 -15.868795,-5.04517 -4.79146,-2.4139 -7.97529,-4.67163 -11.89591,-8.43515 -4.63167,-4.44608 -7.8656,-8.84644 -10.52856,-14.32574 -6.55594,-13.48955 -6.60403,-29.46761 -0.12919,-43.09039 7.33058,-15.42324 22.36171,-26.2193 39.244625,-28.187428 1.07723,-0.12558 2.34507,-0.20086 3.70365,-0.22996 z m -36.005035,1.2976 c -0.47811,0 -4.80601,3.450558 -5.01933,4.001818 -0.0479,0.12368 0.78558,1.22967 1.85208,2.45825 l 1.93942,2.23397 0.6227,-0.6103 c 0.58687,-0.57493 0.59863,-0.64714 0.20257,-1.2516 -0.40918,-0.62449 -0.38923,-0.66723 0.7488,-1.61851 1.07316,-0.89706 1.99781,-1.09269 1.99781,-0.42271 0,0.41367 0.69507,0.25419 1.16737,-0.26768 0.38966,-0.43057 0.40557,-0.58588 0.10748,-1.06816 -0.19184,-0.31039 -0.6167,-0.6321 -0.94412,-0.7152 -0.36456,-0.0926 -0.59532,-0.35336 -0.59532,-0.67231 0,-0.6794 -1.39616,-2.067568 -2.07946,-2.067568 z m -0.12247,2.020548 c 0.085,0.0103 0.1607,0.0491 0.23668,0.11213 0.60499,0.5021 0.45222,0.86802 -0.79737,1.91255 -0.64617,0.54014 -1.21295,0.98185 -1.25935,0.98185 -0.12929,0 -0.78918,-1.10277 -0.69298,-1.15807 0.0465,-0.0267 0.59938,-0.49925 1.22834,-1.04955 0.68997,-0.60368 1.02968,-0.82981 1.28468,-0.79891 z m 81.051375,2.60811 c -0.56342,0.0401 -1.51783,0.35234 -3.52123,0.9834 l -2.59157,0.81649 0.71158,0.7431 c 0.58566,0.61129 0.80467,0.69357 1.23352,0.46406 0.44298,-0.23707 0.71451,-0.0887 1.80609,0.9865 1.03191,1.01644 1.25399,1.38925 1.12758,1.89291 -0.11068,0.44094 0.023,0.81869 0.44959,1.27279 0.33367,0.35517 0.63741,0.61471 0.67541,0.57671 0.038,-0.038 0.51619,-1.46653 1.06246,-3.17449 l 0.99322,-3.10575 -0.77256,-0.80615 c -0.43822,-0.4574 -0.61067,-0.68964 -1.17409,-0.64957 z m -0.0894,1.81177 c 0.0764,0.0764 -0.001,0.56355 -0.1726,1.08262 -0.1713,0.51907 -0.39147,0.93714 -0.48937,0.92914 -0.0978,-0.008 -0.43768,-0.3443 -0.75499,-0.74724 l -0.57671,-0.73277 0.92759,-0.33538 c 0.5101,-0.18442 0.98968,-0.27277 1.06608,-0.19637 z m -42.39172,0.0419 c -0.42898,0 -3.65925,4.50115 -5.75831,8.0238 -3.375165,5.66421 -5.909745,11.13325 -9.485205,20.46748 -0.20157,0.52624 -1.13755,1.20258 -3.62045,2.61587 -12.63358,7.19116 -19.29702,12.87103 -18.71824,15.95613 0.30839,1.64389 1.89716,2.45756 5.53507,2.83393 2.23053,0.23077 7.75943,-0.0205 10.20557,-0.46353 l 0.90073,-0.16279 -0.15762,0.89711 c -1.52924,8.70263 -2.57188,16.43157 -2.95847,21.93096 -0.087,1.23692 -0.21634,2.84426 -0.28784,3.57187 l -0.13023,1.32292 0.65216,-0.79375 c 0.35862,-0.43656 2.07187,-2.69876 3.80752,-5.02708 7.81226,-10.47999 15.652305,-17.93373 22.408965,-21.30516 3.96817,-1.98003 6.93314,-2.57498 8.5819,-1.72238 2.68775,1.38989 6.83699,8.6413 10.98125,19.19108 2.67696,6.81456 2.52548,6.54271 2.36109,4.23333 -0.67364,-9.4632 -2.65371,-21.48989 -5.00486,-30.40073 -0.36093,-1.36795 -0.60274,-2.54022 -0.53744,-2.60552 0.0653,-0.0653 1.73543,-0.81542 3.71141,-1.66657 1.97598,-0.85116 5.14191,-2.3447 7.03522,-3.31917 1.89333,-0.97449 3.47935,-1.725 3.52485,-1.6676 0.0455,0.0574 0.35934,1.17594 0.69712,2.48563 0.33777,1.30969 0.69367,2.53773 0.79117,2.72904 0.0975,0.19131 0.56323,-1.12374 1.03456,-2.92282 l 0.85679,-3.27112 3.29024,-0.88419 c 1.80957,-0.48623 3.29024,-0.91296 3.29024,-0.94826 0,-0.0353 -1.47854,-0.45159 -3.28559,-0.92501 l -3.28559,-0.86093 -0.85782,-3.27318 c -0.47167,-1.80038 -0.903,-3.22802 -0.9586,-3.17242 -0.0556,0.0556 -0.48434,1.51286 -0.95292,3.23805 l -0.85214,3.13676 -2.90732,0.817 c -1.59906,0.44942 -3.08375,0.87778 -3.29954,0.95188 -0.21578,0.0741 0.61766,0.4062 1.85209,0.73794 1.23442,0.33175 2.34917,0.66664 2.47737,0.74414 0.1282,0.0775 -0.46711,0.42794 -1.32292,0.77877 -2.52881,1.03668 -11.77397,4.37469 -11.83907,4.27467 -0.033,-0.0506 -0.62271,-1.8197 -1.31103,-3.93154 -2.56569,-7.87167 -6.2319,-16.07051 -10.05469,-22.48649 -2.18981,-3.67524 -6.01853,-9.12812 -6.40942,-9.12812 z m -46.348075,0.92397 c -0.25909,-0.001 -0.77811,0.3717 -1.15393,0.82889 l -0.68368,0.83096 1.21284,3.12384 1.21233,3.12384 0.75499,-0.74414 c 0.6188,-0.6097 0.70474,-0.83732 0.47749,-1.26194 -0.40055,-0.74843 1.76169,-3.23968 2.66237,-3.06751 0.41203,0.0788 0.81337,-0.10285 1.24592,-0.56327 0.35089,-0.3735 0.58779,-0.72117 0.52659,-0.77257 -0.19272,-0.16198 -5.76105,-1.4961 -6.25492,-1.4981 z m 46.274695,0.34417 c 0.10994,-0.0163 0.19345,0.0568 0.30747,0.15141 0.20383,0.16917 1.32341,1.7049 2.4877,3.41271 5.19681,7.62282 9.23304,15.96926 12.76202,26.39012 1.57034,4.63715 1.59802,4.89325 0.53588,4.89325 -0.12157,0 -0.72238,-1.51805 -1.33532,-3.37344 -2.67404,-8.0944 -6.42697,-16.51617 -10.10998,-22.68802 -1.95576,-3.27739 -4.3465,-6.75164 -4.63537,-6.73654 -0.42226,0.0221 -4.01529,5.71302 -6.34122,10.04383 -3.888005,7.23934 -8.186815,18.70124 -10.518735,28.04583 -0.23603,0.94588 -0.54549,2.16627 -0.68781,2.71198 -0.21301,0.81674 -0.37681,0.99219 -0.92759,0.99219 -0.51329,0 -0.63738,-0.10781 -0.53175,-0.46302 0.0757,-0.25466 0.44844,-1.71318 0.82837,-3.24115 3.27181,-13.15811 8.96873,-26.7866 14.939655,-35.74097 2.33066,-3.49522 2.89687,-4.34933 3.22668,-4.39818 z M 61.089145,108.792 c 0.0961,-0.0413 0.31581,-0.006 0.71985,0.0811 1.3242,0.28431 1.39529,0.38827 0.74104,1.08468 -0.70905,0.75476 -0.92567,0.78828 -1.10329,0.17054 -0.0732,-0.25467 -0.22426,-0.68448 -0.33538,-0.9555 -0.0907,-0.22132 -0.11832,-0.33959 -0.0222,-0.38086 z m 93.521415,0.21188 c -0.31804,0 -4.72167,3.22673 -4.72167,3.45973 0,0.1024 0.22016,0.45819 0.48937,0.79065 l 0.48938,0.6041 1.60714,-1.23662 c 0.88389,-0.68014 1.66307,-1.23661 1.73167,-1.23661 0.0686,0 -0.22587,1.13312 -0.65474,2.51819 l -0.7798,2.51871 0.74104,1.048 c 0.40773,0.57634 0.82649,1.05016 0.9307,1.05316 0.27808,0.008 4.70565,-3.24599 4.70565,-3.4587 0,-0.0995 -0.22016,-0.45301 -0.48937,-0.78548 l -0.4899,-0.60462 -1.60713,1.23662 c -0.8839,0.68014 -1.65909,1.23662 -1.72289,1.23662 -0.0638,0 0.22682,-1.15205 0.64543,-2.56005 l 0.76068,-2.56005 -0.70125,-1.01183 c -0.38567,-0.55653 -0.80606,-1.01182 -0.93431,-1.01182 z m -97.636415,2.12545 c -0.14276,-0.007 -2.99542,3.95304 -3.73724,5.1878 -0.10138,0.16874 0.0975,0.48435 0.45062,0.71572 0.6109,0.40027 0.65467,0.38031 1.34152,-0.61082 l 0.71004,-1.02474 1.63246,1.16375 c 1.7817,1.27009 2.16877,1.33556 2.74712,0.46302 0.36807,-0.55532 0.30765,-0.62995 -1.48364,-1.82108 -1.09375,-0.7273 -1.79748,-1.3641 -1.69808,-1.53737 0.0933,-0.16272 0.40149,-0.63042 0.68471,-1.03922 0.50119,-0.72333 0.50125,-0.75339 0.0222,-1.11621 -0.27054,-0.20492 -0.57165,-0.37566 -0.66973,-0.38085 z m 63.073665,0.85369 c -0.60593,0.0525 -1.07459,0.7976 -0.57257,1.4025 0.18545,0.22345 0.58557,0.37103 0.88935,0.32763 0.67851,-0.097 0.86924,-1.05162 0.30386,-1.52084 -0.20164,-0.16734 -0.41866,-0.22678 -0.62064,-0.20929 z m -29.229735,1.84227 c -1.26338,0.16785 -2.13743,1.70369 -0.9896,2.85151 0.64283,0.64283 1.7699,0.68538 2.42621,0.0915 0.69512,-0.62909 0.63744,-2.07077 -0.10387,-2.59002 -0.44714,-0.31319 -0.91161,-0.4089 -1.33274,-0.35295 z m 38.036435,0.47025 c -1.05615,0 -1.61548,1.32181 -0.87333,2.06396 0.17463,0.17463 0.56773,0.3173 0.87333,0.3173 0.7092,0 1.19063,-0.48143 1.19063,-1.19063 0,-0.70921 -0.48143,-1.19063 -1.19063,-1.19063 z m 34.83198,0.14987 c 0.41059,0.6935 0.80876,1.39373 1.1927,2.10168 -0.38386,-0.70803 -0.7822,-1.4081 -1.1927,-2.10168 z m -80.869475,2.23139 c -0.30559,0 -0.6987,0.14319 -0.87333,0.31781 -0.17462,0.17463 -0.31729,0.56721 -0.31729,0.87281 0,0.30559 0.14267,0.69871 0.31729,0.87333 0.17463,0.17463 0.56774,0.3173 0.87333,0.3173 0.30559,0 0.6982,-0.14267 0.87282,-0.3173 0.17463,-0.17462 0.31781,-0.56774 0.31781,-0.87333 0,-0.3056 -0.14318,-0.69818 -0.31781,-0.87281 -0.17462,-0.17462 -0.56723,-0.31781 -0.87282,-0.31781 z m 77.290885,0.34054 c -0.49727,0.0651 -1.52985,0.56273 -3.52485,1.67019 l -1.63969,0.91053 1.09347,2.04484 c 0.60142,1.1249 1.37076,2.49184 1.70946,3.03754 0.78798,1.26955 1.70678,1.31134 3.7052,0.16795 2.22565,-1.27339 2.26479,-1.57561 0.61546,-4.79144 -0.76692,-1.49535 -1.49781,-2.83048 -1.62419,-2.96726 -0.0627,-0.0679 -0.1691,-0.094 -0.33486,-0.0724 z m 5.1723,0.27802 c 0.39869,0.75895 0.78092,1.52662 1.14928,2.30167 -0.36827,-0.77501 -0.75072,-1.54274 -1.14928,-2.30167 z m -58.18973,0.89917 c 0.12811,0.3057 0.44243,2.62603 0.98081,7.21455 0.45242,3.85582 0.88682,7.33185 0.96532,7.72459 0.12126,0.60675 0.36854,0.77708 1.64589,1.13327 2.77922,0.77499 2.77595,0.76637 0.62942,1.73219 l -1.93218,0.8692 0.1602,1.48001 c 0.088,0.81386 0.21529,1.74738 0.28318,2.07481 0.21054,1.01554 -0.0989,0.67235 -1.37355,-1.52135 -0.67642,-1.16416 -1.26288,-2.11667 -1.30328,-2.11667 -0.0404,0 -0.62301,0.95251 -1.2945,2.11667 -1.26813,2.19856 -1.56513,2.53072 -1.36064,1.52135 0.0663,-0.32743 0.18678,-1.26362 0.26768,-2.08049 l 0.14677,-1.48518 -2.03709,-0.91519 -2.03708,-0.91571 1.90789,-0.49506 c 1.04953,-0.27222 2.03639,-0.57386 2.19315,-0.67076 0.22335,-0.13804 2.07723,-13.71233 2.09083,-15.30966 0.003,-0.33635 0.0245,-0.45847 0.0672,-0.35657 z m -54.305215,0.11834 c -0.20273,0.0145 -0.38622,0.0585 -0.50229,0.12868 -0.54748,0.33077 -2.65057,4.28611 -2.66237,5.00744 -0.0106,0.64696 0.61428,1.27771 1.65881,1.67483 0.63822,0.24265 0.82683,0.19481 1.36684,-0.34519 0.34463,-0.34463 0.93203,-1.22854 1.30483,-1.96422 0.72707,-1.43487 1.13088,-1.83474 1.48622,-1.47123 0.35403,0.36218 -1.02677,3.00653 -1.56993,3.00653 -0.25655,0 -0.6136,0.32248 -0.79324,0.71675 -0.28075,0.61618 -0.26087,0.76481 0.14056,1.05834 0.65731,0.48063 0.98803,0.42863 1.61076,-0.25373 0.8022,-0.87901 2.45928,-4.15246 2.45928,-4.85811 0,-0.72133 -0.8396,-1.57801 -1.77715,-1.81332 -0.8738,-0.21932 -1.50956,0.36701 -2.47944,2.28668 -0.80484,1.59304 -1.2034,2.00766 -1.57355,1.63659 -0.27701,-0.2777 1.11855,-2.89575 1.50431,-2.82205 0.14981,0.0286 0.46713,-0.35666 0.70538,-0.85628 0.43235,-0.90663 0.43206,-0.90868 -0.26303,-1.08313 -0.19152,-0.0481 -0.41326,-0.0631 -0.61599,-0.0486 z m 72.570765,0.74518 c -0.81176,0 -1.31029,1.02424 -0.88522,1.81849 0.55441,1.03591 2.13475,0.57116 2.13475,-0.62787 0,-0.72765 -0.48608,-1.19062 -1.24953,-1.19062 z m 34.43355,0.048 c 0.37149,0.52232 1.74098,3.18266 1.74098,3.38223 0,0.14477 -0.47171,0.5044 -1.04799,0.7984 -0.57628,0.294 -1.11031,0.53382 -1.18701,0.53382 -0.14155,0 -1.12272,-1.48741 -1.70429,-2.58434 -0.17515,-0.33043 -0.24546,-0.71944 -0.15606,-0.86403 0.17666,-0.28584 2.25617,-1.40415 2.35437,-1.26608 z M 90.198995,122.233 c -1.61581,0 -2.26745,1.89193 -0.99632,2.89181 0.8766,0.68954 1.53723,0.69469 2.2133,0.0186 1.12413,-1.12413 0.37707,-2.91041 -1.21698,-2.91041 z m 40.824375,0.38188 c -0.13713,0.0136 -0.27767,0.0556 -0.41806,0.13075 -0.72997,0.39066 -0.89252,1.06491 -0.42788,1.77405 0.49587,0.75679 1.21299,0.80103 1.83503,0.11369 0.7539,-0.83306 -0.0292,-2.11403 -0.98909,-2.01849 z m -51.513125,0.85577 c -0.10861,0.11993 -0.40411,1.08018 -0.65629,2.13372 -0.4571,1.90955 -0.46172,1.91582 -1.55495,2.20089 -2.29714,0.59901 -3.07948,0.86758 -2.93884,1.00821 0.08,0.08 1.00021,0.38888 2.04484,0.68575 l 1.89911,0.53898 0.58343,1.9849 c 0.32075,1.09138 0.60091,2.04335 0.62321,2.11615 0.0534,0.17463 0.40328,-0.84284 0.92294,-2.68615 l 0.42168,-1.49499 1.78129,-0.43719 c 2.658,-0.65138 2.73098,-0.80666 0.62012,-1.32395 -1.02309,-0.25073 -2.03265,-0.59367 -2.24328,-0.76223 -0.21064,-0.16858 -0.59055,-1.17848 -0.84439,-2.2443 -0.25384,-1.06581 -0.55026,-1.83971 -0.65887,-1.71979 z m -34.76946,1.70583 c -0.84116,2.30645 -1.55368,4.66488 -2.13837,7.07813 0.58467,-2.41326 1.29722,-4.77167 2.13837,-7.07813 z m 89.669975,1.55443 c -1.05615,0 -1.61548,1.32232 -0.87333,2.06448 0.17463,0.17462 0.56773,0.31677 0.87333,0.31677 0.7092,0 1.19063,-0.48141 1.19063,-1.19062 0,-0.7092 -0.48143,-1.19063 -1.19063,-1.19063 z m -7.30395,2.00091 c -1.49135,0.085 -2.35886,2.38261 -0.84904,3.26079 0.76789,0.44664 1.38347,0.34149 2.07946,-0.3545 0.99088,-0.99088 0.72823,-2.30766 -0.55811,-2.79673 -0.2334,-0.0887 -0.45926,-0.1217 -0.67231,-0.10956 z m -84.504395,3.5233 c -0.58466,2.41325 -1.0421,4.8811 -1.37252,7.4073 0.3304,-2.52621 0.78787,-4.99404 1.37252,-7.4073 z m 30.5108,2.70216 c -0.31287,0.0181 -0.61447,0.20675 -0.86455,0.56379 -0.53005,0.75675 -0.51968,0.8916 0.11731,1.52859 0.63699,0.63699 0.77184,0.64736 1.52859,0.11731 0.69902,-0.48962 0.74999,-1.08664 0.14986,-1.74977 -0.29453,-0.32545 -0.61835,-0.47807 -0.93121,-0.45992 z m 18.03818,1.52342 c 0,0.11529 -0.45709,1.74875 -1.01545,3.63027 l -1.01492,3.42098 -2.19883,1.51257 c -3.14131,2.16123 -4.62604,3.47824 -5.13664,4.55425 -1.11407,2.3477 1.17068,2.97767 7.69875,2.1239 10.623575,-1.38939 31.983745,-7.57124 47.572285,-13.76764 3.78297,-1.50372 2.90472,-0.86674 -2.38125,1.726 -13.32679,6.5367 -33.08959,12.61111 -48.218235,14.82131 -4.20826,0.61477 -10.3679,0.89027 -12.37134,0.55346 -1.59754,-0.26857 -2.74973,-0.70054 -3.37292,-1.26452 -1.97913,-1.79109 2.55859,-6.62263 11.44271,-12.18376 4.04947,-2.53481 8.99584,-5.35371 8.99584,-5.12682 z m -39.83633,5.48081 -1.50895,0.85111 c -0.83005,0.46845 -1.62497,0.85163 -1.7663,0.85163 -0.14132,0 -0.86259,-0.3572 -1.60301,-0.79375 -0.74041,-0.43656 -1.39736,-0.79375 -1.45986,-0.79375 -0.0625,0 0.29176,0.68512 0.78755,1.52187 l 0.90176,1.52083 -0.79375,1.41594 c -0.4364,0.7787 -0.74063,1.46854 -0.67593,1.53324 0.0647,0.0647 0.73431,-0.24533 1.48828,-0.68988 l 1.37098,-0.80822 1.50585,0.88987 c 0.82801,0.48974 1.54036,0.86309 1.58336,0.82889 0.043,-0.0342 -0.28442,-0.67774 -0.7276,-1.42937 -0.44318,-0.75164 -0.80564,-1.48236 -0.80564,-1.62368 0,-0.14132 0.38318,-0.93625 0.85163,-1.7663 z m 111.438155,0.009 0.84387,1.47485 c 0.46408,0.81112 0.84388,1.62574 0.84388,1.81022 0,0.18447 -0.35718,0.91572 -0.79375,1.62523 -0.43656,0.7095 -0.79375,1.34425 -0.79375,1.41025 0,0.066 0.72067,-0.30234 1.60145,-0.81856 1.05048,-0.61571 1.71042,-0.856 1.91823,-0.69866 0.17424,0.13193 0.89505,0.57042 1.60197,0.97461 l 1.28519,0.73484 -0.92397,-1.68155 -0.92398,-1.68155 0.8723,-1.45521 c 0.47964,-0.80036 0.8376,-1.49024 0.7953,-1.53324 -0.0423,-0.043 -0.6922,0.28443 -1.44384,0.72761 -0.75164,0.44319 -1.48183,0.80563 -1.62315,0.80563 -0.14132,0 -0.93288,-0.38101 -1.75855,-0.84697 z m -93.268725,1.56218 c -0.8469,0 -1.31118,0.73436 -0.83044,1.31362 0.19711,0.23749 0.60677,0.39635 0.91054,0.35295 0.41976,-0.06 0.55242,-0.26957 0.55242,-0.87282 0,-0.66063 -0.106,-0.79375 -0.63252,-0.79375 z m 55.290675,1.34049 c 0.32313,0.0304 0.54355,0.90963 1.39217,4.34805 1.76413,7.1479 3.50497,17.09005 4.00699,22.88646 l 0.16019,1.85208 -1.55184,-3.70416 c -3.79897,-9.06776 -7.49027,-15.08566 -10.33735,-16.85375 -1.19497,-0.7421 -3.63658,-0.53601 -6.64301,0.5612 -5.76557,2.10418 -12.956325,7.83185 -19.789995,15.76338 -1.37915,1.60073 -3.80377,4.62275 -5.38831,6.71535 -2.22767,2.94198 -2.88096,3.65548 -2.88096,3.14606 0,-2.64715 1.58071,-14.95669 2.72749,-21.23849 0.55925,-3.06349 0.60409,-3.17752 1.27795,-3.25562 l 0.69867,-0.0811 -0.34778,1.66863 c -0.9359,4.49412 -2.94684,18.6441 -2.68666,18.90427 0.0403,0.0403 0.59789,-0.60663 1.2392,-1.43763 3.99267,-5.17377 9.69521,-11.26646 13.627585,-14.56036 7.33562,-6.14456 14.83774,-9.17777 18.52083,-7.48791 2.14932,0.98614 4.47621,4.00178 7.47707,9.68933 1.53715,2.91337 1.66202,3.07688 1.51463,1.98438 -0.37436,-2.77491 -1.81477,-9.97054 -2.80499,-14.01207 -1.01039,-4.12384 -1.04219,-4.37294 -0.59635,-4.69894 0.15755,-0.1152 0.27676,-0.19926 0.38447,-0.18913 z m -36.329555,0.23151 c 0.0654,0.0654 -0.21622,1.4946 -0.62632,3.17603 l -0.74569,3.05718 -1.86397,-0.0165 c -3.32915,-0.03 -3.77222,-0.60218 -1.90996,-2.46445 1.23795,-1.23796 4.95201,-3.94616 5.14594,-3.75222 z m 43.583895,1.73529 c -1.05615,0 -1.61548,1.32181 -0.87333,2.06396 0.17463,0.17463 0.56773,0.31729 0.87333,0.31729 0.30559,0 0.6982,-0.14266 0.87282,-0.31729 0.17463,-0.17462 0.31781,-0.56774 0.31781,-0.87333 0,-0.70921 -0.48143,-1.19063 -1.19063,-1.19063 z m 1.15962,6.13348 c -0.83298,-0.0269 -1.53893,0.84888 -1.03301,1.7942 0.34564,0.64583 1.38353,0.71093 1.97094,0.12351 0.5531,-0.55309 0.52409,-0.99171 -0.10284,-1.55908 -0.26574,-0.24049 -0.55743,-0.34965 -0.83509,-0.35863 z m 3.28817,3.70313 c -0.59301,0.068 -0.76089,0.23588 -0.82889,0.82889 -0.0469,0.40898 0.0566,0.915 0.23048,1.12448 0.41485,0.49986 1.16857,0.48453 1.68775,-0.0346 0.90456,-0.90456 0.24225,-2.07143 -1.08934,-1.91875 z m -85.712075,3.23391 c -0.25652,0.007 -0.64587,0.0904 -1.27124,0.25373 -1.68596,0.44027 -2.52801,1.04791 -2.52801,1.82366 0,0.86846 0.80866,3.35012 1.22835,3.7698 0.4829,0.4829 1.1401,0.49292 2.87217,0.0439 1.3106,-0.33971 1.67096,-0.76676 1.22732,-1.45521 -0.17944,-0.27844 -0.4453,-0.29286 -1.25625,-0.0677 -1.84777,0.51305 -2.16655,0.41025 -2.49339,-0.80357 -0.35345,-1.31265 -0.22106,-1.48226 1.49603,-1.92029 1.27771,-0.32596 1.63683,-0.75729 1.19786,-1.43816 -0.0927,-0.14375 -0.21632,-0.21317 -0.47284,-0.20619 z m 63.781115,0.19689 c -0.50049,-0.0732 -1.05595,0.17669 -1.27641,0.80615 -0.17794,0.50803 -0.15193,0.82994 0.0925,1.12448 0.71775,0.86483 2.13011,0.33551 2.13011,-0.7984 0,-0.6618 -0.44526,-1.05862 -0.94568,-1.13223 z m 27.81897,0.26768 c -0.71239,-0.13672 -1.2687,0.67375 -0.91518,1.33429 0.16911,0.316 0.49086,0.47743 0.84956,0.42633 0.78435,-0.11167 0.84048,-1.61086 0.0661,-1.76062 z m 20.3538,0.27337 c -0.63145,0.0208 -1.19784,0.97478 -1.61385,2.73937 -0.50666,2.14915 -0.38032,2.57369 0.85834,2.88458 0.94209,0.23645 1.34188,-0.1932 1.9141,-2.05724 0.7415,-2.41552 1.49497,-2.29886 0.82114,0.12712 -0.14755,0.53123 -0.44447,1.03351 -0.65991,1.11621 -0.47615,0.1827 -0.5213,1.1348 -0.0615,1.29967 0.6755,0.24221 1.23076,-0.3792 1.6614,-1.85932 0.86628,-2.97731 0.85129,-3.18664 -0.26613,-3.65353 -0.90094,-0.3764 -1.0305,-0.37528 -1.45831,0.0119 -0.25825,0.23371 -0.66855,1.13372 -0.91158,1.99988 -0.51825,1.84706 -1.10286,2.16144 -0.83664,0.4501 0.0962,-0.61847 0.33226,-1.24402 0.52452,-1.3901 0.60004,-0.45593 0.78324,-1.43518 0.30282,-1.61954 -0.0924,-0.0354 -0.18381,-0.0519 -0.27388,-0.0491 z m -91.862085,1.66967 -0.37879,1.32291 c -0.35783,1.25007 -0.44015,1.33605 -1.49448,1.55908 -0.61367,0.12982 -1.1157,0.32393 -1.1157,0.4315 0,0.10757 0.52111,0.32692 1.15807,0.48731 1.0874,0.27381 1.17864,0.36874 1.49397,1.55288 l 0.33589,1.2609 0.37207,-1.25264 c 0.3465,-1.16572 0.45891,-1.27918 1.61489,-1.62522 1.19041,-0.35635 1.2151,-0.38257 0.58136,-0.63304 -0.3638,-0.14379 -0.89959,-0.30695 -1.19062,-0.36225 -0.36786,-0.0699 -0.65832,-0.50264 -0.95292,-1.42058 z m 7.19749,0.13229 c -1.05614,0 -1.61548,1.3218 -0.87333,2.06396 0.17463,0.17462 0.56774,0.31729 0.87333,0.31729 0.7092,0 1.19063,-0.48142 1.19063,-1.19063 0,-0.7092 -0.48143,-1.19062 -1.19063,-1.19062 z m 65.884865,2.51354 c -0.93809,0 -1.25676,0.82661 -0.52503,1.36167 0.64439,0.4712 1.50711,-0.0128 1.39733,-0.78393 -0.0635,-0.44624 -0.26167,-0.57774 -0.8723,-0.57774 z m -91.358245,1.19063 c -0.34402,0 -3.59472,1.33463 -3.85403,1.58233 -0.12265,0.11714 -0.0912,0.45897 0.0698,0.75964 l 0.29248,0.54674 1.20923,-0.51832 c 0.66499,-0.28505 1.31299,-0.51831 1.44023,-0.51831 0.12723,0 -0.23122,0.798 -0.79686,1.77302 -0.99431,1.71393 -1.01582,1.80254 -0.65009,2.67787 0.20806,0.49796 0.37828,0.94859 0.37828,1.00149 0,0.0529 0.62508,-0.15367 1.38906,-0.45889 0.76399,-0.30521 1.71649,-0.67199 2.11667,-0.81545 0.7565,-0.2712 0.88638,-0.60692 0.48162,-1.24644 -0.20141,-0.31823 -0.46748,-0.28848 -1.72909,0.19431 -0.81998,0.31376 -1.44473,0.48316 -1.38803,0.3762 0.0567,-0.10695 0.54351,-0.93182 1.08159,-1.83296 0.95553,-1.60024 0.96909,-1.66037 0.58497,-2.57969 -0.2163,-0.5177 -0.49794,-0.94154 -0.6258,-0.94154 z m 108.061105,0.0966 c -0.11966,2.8e-4 -0.22099,0.0377 -0.27492,0.12661 -0.45544,0.75041 -1.74861,4.58804 -1.61748,4.80022 0.32516,0.52612 0.9608,0.25529 1.233,-0.52555 0.15219,-0.43656 0.32001,-0.79375 0.37311,-0.79375 0.0531,0 0.77004,0.25219 1.59318,0.56017 1.23662,0.46268 1.53624,0.49715 1.72548,0.19844 0.44058,-0.69545 0.22593,-0.9663 -1.23714,-1.56011 -1.53426,-0.62272 -1.58334,-0.72745 -1.02526,-2.18178 0.1115,-0.29055 -0.41097,-0.6251 -0.76997,-0.62425 z m -53.48356,1.22628 c -1.03947,0 -1.60884,1.84681 -0.72761,2.36006 0.59222,0.34495 0.78082,0.34653 1.40612,0.0119 0.9299,-0.49767 0.39383,-2.37195 -0.67851,-2.37195 z m -27.530095,1.1622 c -0.18326,-0.012 -0.37467,0.0437 -0.54932,0.18862 -0.38232,0.31729 -0.48609,1.08436 -0.18707,1.38338 0.32866,0.32866 1.3537,0.17852 1.50688,-0.22066 0.25709,-0.66996 -0.2207,-1.31521 -0.77049,-1.35134 z m 33.332835,2.5983 c -0.18866,0.0214 -0.3675,0.0892 -0.51469,0.21135 -0.62789,0.5211 -0.5018,1.82505 0.20205,2.09083 1.06072,0.40053 1.94564,-0.36231 1.67432,-1.44332 -0.14259,-0.5681 -0.7957,-0.92297 -1.36168,-0.85886 z m 45.78997,0.37672 c -0.29109,-0.1117 -0.68172,0.41189 -1.4552,1.95027 -0.58151,1.15657 -1.0573,2.19866 -1.0573,2.31562 0,0.11695 0.86321,0.64833 1.91823,1.1808 1.05502,0.53246 1.94647,0.97492 1.98127,0.98392 0.11059,0.0275 2.18591,-4.19575 2.18591,-4.4483 0,-0.13318 -0.17893,-0.3105 -0.39739,-0.3943 -0.28433,-0.10911 -0.62353,0.29622 -1.19424,1.42679 -0.43848,0.86863 -0.9149,1.57923 -1.05833,1.57923 -0.41147,0 -0.3118,-0.44553 0.42374,-1.89704 0.54795,-1.08132 0.61387,-1.39511 0.33073,-1.57458 -0.55714,-0.35316 -0.59987,-0.31479 -1.35392,1.22266 -0.39254,0.80037 -0.83424,1.45521 -0.98134,1.45521 -0.41575,0 -0.32227,-0.43801 0.39429,-1.85208 0.77046,-1.52043 0.80044,-1.74217 0.26355,-1.9482 z m -84.401045,0.88987 c -1.05613,0 -1.61549,1.3218 -0.87333,2.06395 0.17462,0.17463 0.56775,0.3173 0.87333,0.3173 0.70921,0 1.19063,-0.48143 1.19063,-1.19063 0,-0.70921 -0.48142,-1.19062 -1.19063,-1.19062 z m 23.28334,0 c -1.05614,0 -1.61549,1.3218 -0.87333,2.06395 0.17462,0.17463 0.56774,0.3173 0.87333,0.3173 0.70921,0 1.19062,-0.48143 1.19062,-1.19063 0,-0.70921 -0.48141,-1.19062 -1.19062,-1.19062 z m -42.44857,0.20825 c -0.28419,0.058 -0.76444,0.29171 -1.67949,0.74983 -2.30171,1.15235 -2.12735,1.00106 -1.91564,1.66811 0.0958,0.30201 0.28801,0.54881 0.42736,0.54881 0.35304,0 3.94446,-1.82559 3.94446,-2.00505 0,-0.0805 -0.12304,-0.37593 -0.27337,-0.65681 -0.13097,-0.24473 -0.21912,-0.36286 -0.50332,-0.30489 z m 68.917235,0.85628 c -0.22644,0.0359 -0.44331,0.13583 -0.61909,0.31161 -0.17463,0.17462 -0.31729,0.56722 -0.31729,0.87281 0,0.3056 0.14266,0.69871 0.31729,0.87334 0.68786,0.68784 2.06396,0.0401 2.06396,-0.97152 0,-0.72533 -0.76557,-1.19385 -1.44487,-1.08624 z m -4.77284,0.78755 c -0.3056,0 -0.6987,0.14318 -0.87333,0.31781 -0.17462,0.17462 -0.31729,0.56722 -0.31729,0.87281 0,0.3056 0.14267,0.69871 0.31729,0.87334 0.17463,0.17462 0.56773,0.31729 0.87333,0.31729 0.30559,0 0.6982,-0.14267 0.87282,-0.31729 0.17463,-0.17463 0.31781,-0.56774 0.31781,-0.87334 0,-0.30559 -0.14318,-0.69819 -0.31781,-0.87281 -0.17462,-0.17463 -0.56723,-0.31781 -0.87282,-0.31781 z m -63.007005,0.016 c -0.0604,-0.0635 -0.299,0.0737 -0.53123,0.30592 -0.38758,0.38728 -0.38716,0.47443 0.006,1.0356 0.23598,0.3369 0.42891,0.69352 0.42891,0.79271 0,0.0992 -0.65763,0.552 -1.46141,1.00563 -1.29385,0.73021 -1.42931,0.88433 -1.18132,1.34772 0.37266,0.69632 0.63606,0.66449 2.14095,-0.26148 l 1.27589,-0.78548 0.46406,0.78548 c 0.49024,0.82992 1.06901,1.02208 1.29604,0.43046 0.10483,-0.27318 -1.87512,-4.05545 -2.43758,-4.65656 z m 23.2327,1.35754 c -0.78562,0.0911 -1.07068,0.80735 -0.56431,1.41748 0.39301,0.47359 0.55378,0.47794 1.1622,0.0331 0.73929,-0.54059 0.32024,-1.5571 -0.59789,-1.45056 z m 30.757285,0.94878 -0.39894,1.28622 c -0.37228,1.19975 -0.47403,1.30222 -1.51102,1.52239 -0.61144,0.12981 -1.11156,0.32113 -1.11156,0.4253 0,0.10417 0.50012,0.29549 1.11156,0.4253 1.03207,0.21913 1.1397,0.3263 1.5012,1.49138 0.21417,0.69023 0.43102,1.21332 0.48162,1.16272 0.0506,-0.0506 0.24336,-0.61511 0.4284,-1.25471 0.30945,-1.06966 0.42569,-1.18228 1.44953,-1.39939 0.61221,-0.12981 1.11311,-0.32113 1.11311,-0.4253 0,-0.10417 -0.49645,-0.29549 -1.10278,-0.4253 -1.0188,-0.21813 -1.13477,-0.33375 -1.53169,-1.52239 z m 45.46389,0.0589 c -0.11226,0 -0.35101,0.23575 -0.53071,0.52348 -0.29459,0.47173 -0.19364,0.61247 1.02629,1.43402 l 1.35289,0.91106 -2.09186,0.18242 c -2.0318,0.17722 -2.10999,0.21018 -2.71508,1.13326 -0.34265,0.52273 -0.51362,0.98686 -0.37983,1.03146 0.13378,0.0446 1.01405,0.60863 1.95596,1.25367 0.94191,0.64505 1.72861,1.18004 1.74821,1.18804 0.0197,0.008 0.22525,-0.27339 0.45682,-0.62683 0.41492,-0.63324 0.40096,-0.65573 -0.9617,-1.51774 -1.37142,-0.86753 -1.37632,-0.87518 -0.58911,-0.94568 3.32525,-0.29776 3.4201,-0.32719 4.01888,-1.24333 l 0.57929,-0.88625 -1.83296,-1.21853 c -1.00808,-0.67033 -1.92483,-1.21905 -2.03709,-1.21905 z m -96.593575,2.71611 c -0.0981,-0.0341 -0.99333,0.53958 -1.98955,1.27434 -1.6372,1.20754 -1.77472,1.37891 -1.42885,1.78181 0.21046,0.24516 0.88035,1.13005 1.4888,1.9668 0.60844,0.83674 1.22547,1.52136 1.37097,1.52136 0.66404,0 0.48745,-0.8892 -0.42271,-2.12907 -0.65555,-0.89308 -0.89882,-1.43386 -0.72399,-1.60869 0.17483,-0.17482 0.58666,0.18702 1.22525,1.0759 0.52919,0.7366 1.07463,1.33894 1.21181,1.33894 0.63302,0 0.50492,-0.64491 -0.36225,-1.82625 -1.04935,-1.42949 -1.11411,-1.61333 -0.56947,-1.61333 0.20641,0 0.62316,0.38695 0.92604,0.85989 0.98293,1.53483 1.26198,1.801 1.70791,1.62988 0.23676,-0.0909 0.43046,-0.24385 0.43046,-0.34055 0,-0.23394 -2.63623,-3.85183 -2.86442,-3.93103 z m 42.347795,0.46302 c -0.79843,-0.005 -1.29435,1.02577 -0.8723,1.81436 v 5.2e-4 c 0.39068,0.7299 1.45701,0.73126 1.96732,0.003 0.63156,-0.90168 0.0846,-1.80946 -1.09502,-1.81746 z m 13.18317,3.4954 c -0.85809,-0.0772 -1.6083,0.79233 -1.07848,1.78232 0.436,0.8147 1.78115,0.73235 2.17557,-0.13333 0.26165,-0.57425 0.22533,-0.75395 -0.24649,-1.22576 -0.2666,-0.26661 -0.56457,-0.39751 -0.8506,-0.42323 z m 36.19159,0.63045 c -0.60846,-0.008 -0.94034,0.26027 -1.29914,0.93069 -0.18782,0.35095 -9.5e-4,1.10589 0.71985,2.9068 l 0.97358,2.43293 0.49145,-0.60668 c 0.27693,-0.34197 0.42491,-0.81524 0.33951,-1.08418 -0.20158,-0.6351 1.56161,-2.61261 2.19677,-2.46393 0.26705,0.0625 0.64764,-0.1604 0.91777,-0.53743 l 0.46147,-0.64389 -1.5198,-0.30644 c -0.83589,-0.16834 -1.99209,-0.4078 -2.56936,-0.53227 -0.27548,-0.0594 -0.50928,-0.0929 -0.7121,-0.0956 z m -88.361525,0.10335 c -0.36656,0 -3.14244,2.65773 -3.14244,3.0086 0,0.15714 0.80033,1.09199 1.7787,2.07791 0.97836,0.98592 2.00587,1.79266 2.28358,1.79266 0.27771,0 1.02653,-0.52166 1.66398,-1.1591 0.94311,-0.9431 1.11964,-1.26562 0.94723,-1.73168 -0.26106,-0.70573 -3.16734,-3.98839 -3.53105,-3.98839 z m 88.786825,1.36271 h 5.2e-4 c 0.12694,0.0127 0.29702,0.058 0.51263,0.13126 0.64903,0.2206 0.65348,0.24049 0.19947,0.83974 l -0.46509,0.61392 -0.32556,-0.71417 c -0.29873,-0.65563 -0.30272,-0.90884 0.078,-0.87075 z m -88.539295,0.24185 0.98185,1.19837 0.98185,1.19838 -0.60668,0.64492 c -0.77398,0.82387 -1.05837,0.81148 -1.86655,-0.0822 -1.34077,-1.48247 -1.34083,-1.48298 -0.37827,-2.25102 z m 82.852815,3.60236 c -0.19927,-0.0856 -0.33158,0.0453 -0.59427,0.30799 -0.52539,0.52539 -0.52321,0.52922 1.00562,2.25981 l 1.53169,1.73375 1.54874,-1.34152 c 1.90724,-1.65227 1.97735,-1.76404 1.44694,-2.29444 -0.39249,-0.3925 -0.50705,-0.34815 -1.43144,0.55449 -0.55267,0.53967 -1.10369,0.98134 -1.22473,0.98134 -0.12104,0 -0.69943,-0.54429 -1.28519,-1.20975 -0.53156,-0.60388 -0.79808,-0.90607 -0.99736,-0.99167 z m -76.035145,1.83813 c -0.35093,-0.0349 -2.79931,2.78457 -2.79931,3.22358 0,0.13751 0.19189,0.40961 0.42685,0.60461 0.36602,0.30378 0.49773,0.26757 0.91777,-0.25115 l 0.49041,-0.60513 1.23765,0.94516 c 1.01121,0.77212 1.30908,0.88577 1.62729,0.62167 0.33065,-0.27441 0.19464,-0.4921 -0.89865,-1.44125 -0.86374,-0.74986 -1.20038,-1.20608 -1.02216,-1.38493 0.17838,-0.17901 0.71824,0.0783 1.64228,0.78289 1.28595,0.9806 1.39436,1.01694 1.64434,0.54984 0.2285,-0.42694 0.0341,-0.68372 -1.33067,-1.75596 -0.87916,-0.69071 -1.75018,-1.27083 -1.9358,-1.28933 z m 74.251795,0.0987 c -0.81029,0 -4.10261,2.56651 -3.84886,3.00034 0.0988,0.16892 0.71239,0.99157 1.36322,1.82831 0.65084,0.83675 1.26638,1.52135 1.36788,1.52135 0.39877,0 1.09255,-1.00692 0.81287,-1.17977 -0.5262,-0.32521 -0.26384,-0.80239 0.91932,-1.67277 0.88274,-0.64937 1.18029,-1.0453 1.18029,-1.57044 0,-0.89582 -0.96044,-1.92702 -1.79472,-1.92702 z m -0.17467,1.46761 c 0.24804,-0.005 0.38189,0.16229 0.38189,0.50126 0,0.19242 -0.41179,0.66341 -0.91467,1.04697 -0.87861,0.67015 -0.92453,0.67777 -1.18494,0.1912 -0.22604,-0.42236 -0.11819,-0.62296 0.65112,-1.20974 0.45617,-0.34795 0.81856,-0.52481 1.0666,-0.52969 z m -70.010185,1.44591 -1.18391,1.8309 c -0.65136,1.00688 -1.18442,1.9029 -1.18442,1.9916 0,0.0886 0.92274,0.75345 2.05052,1.47692 1.8675,1.19798 2.08006,1.27497 2.38125,0.86609 0.28882,-0.3921 0.14695,-0.56821 -1.12086,-1.39061 -0.79841,-0.51791 -1.45321,-1.09036 -1.45521,-1.27227 -0.005,-0.48346 0.20896,-0.41912 1.61747,0.48472 1.1571,0.74251 1.81849,0.83499 1.81849,0.25477 0,-0.12177 -0.59531,-0.60332 -1.32291,-1.07022 -1.27343,-0.81716 -1.66169,-1.32292 -1.01545,-1.32292 0.16917,0 0.89136,0.37504 1.60507,0.83303 1.15457,0.74088 1.34174,0.78888 1.69551,0.43511 0.35376,-0.35377 0.16124,-0.54786 -1.74408,-1.75751 z m 63.087095,2.06964 c -0.2946,-0.0127 -0.89122,0.25711 -2.04122,0.89762 -1.1169,0.62207 -2.03082,1.20946 -2.03088,1.30586 -7e-5,0.0964 0.48641,1.01911 1.08107,2.05052 0.59466,1.03143 1.16017,1.87207 1.25677,1.86707 0.0966,-0.005 0.39294,-0.17361 0.65888,-0.37517 0.44305,-0.33577 0.44935,-0.41814 0.076,-0.98805 -0.39769,-0.60695 -0.37537,-0.63989 0.90589,-1.36012 1.25071,-0.70305 1.62214,-1.27914 1.05213,-1.63143 -0.14348,-0.0887 -0.77904,0.14201 -1.41232,0.51315 -1.27376,0.74646 -1.76678,0.84265 -1.76578,0.34416 4.2e-4,-0.1819 0.55914,-0.62839 1.24127,-0.99218 1.31061,-0.699 1.52818,-0.98038 1.18132,-1.52756 -0.0404,-0.0637 -0.10489,-0.0996 -0.20309,-0.10387 z m -58.115305,1.11156 c -0.24293,-0.011 -2.20563,3.89444 -2.03605,4.05143 0.0658,0.0609 1.07238,0.59748 2.23655,1.19218 1.16417,0.5947 2.35049,1.05519 2.63653,1.02319 1.00396,-0.11229 2.333,-2.74996 1.81643,-3.60495 -0.23158,-0.38329 -4.17728,-2.64035 -4.65346,-2.66185 z m 0.61081,1.57613 1.3162,0.66714 c 1.3322,0.67507 1.53869,1.07082 1.04231,1.99833 -0.35038,0.65469 -0.91051,0.63115 -2.28254,-0.0956 l -1.10174,-0.58343 0.51314,-0.99322 z m 52.228855,0.31988 c -1.0287,-0.10067 -4.21348,1.30914 -4.60334,2.0376 -0.30268,0.56557 0.0689,1.81554 0.93173,3.13469 0.5391,0.82421 1.25265,0.7438 3.55223,-0.40101 2.29398,-1.14202 2.47671,-1.56482 1.51619,-3.50159 -0.48337,-0.97467 -0.73642,-1.20509 -1.39681,-1.26969 z m -46.850365,1.08159 c -0.19887,0.19886 -1.50827,4.15838 -1.40457,4.24728 0.0626,0.0537 1.0662,0.46462 2.23035,0.91312 1.16417,0.44849 2.20597,0.823 2.31511,0.832 0.17634,0.0147 0.24828,-0.39628 0.17208,-0.97566 -0.0144,-0.10914 -0.68978,-0.43656 -1.5012,-0.7276 -0.81141,-0.29105 -1.52386,-0.678 -1.58336,-0.8599 -0.14902,-0.45572 0.23472,-0.41611 1.82624,0.18862 0.75178,0.28566 1.46718,0.45738 1.59008,0.38138 0.50269,-0.31068 0.16528,-0.815 -0.76842,-1.14825 -2.17568,-0.77655 -2.27099,-0.82805 -2.01125,-1.08779 0.1672,-0.1672 0.8034,-0.0699 1.81177,0.27698 1.21778,0.41898 1.59998,0.4622 1.76579,0.20102 0.11635,-0.18332 0.21349,-0.40639 0.21549,-0.49609 0.005,-0.18263 -4.52402,-1.87921 -4.65811,-1.74511 z m 46.250915,0.0589 0.50436,0.62322 c 0.6631,0.81888 0.63688,1.25941 -0.10439,1.74511 -0.33503,0.21951 -0.979,0.47287 -1.43092,0.56327 -0.65698,0.1314 -0.87946,0.056 -1.11052,-0.37569 -0.51122,-0.95521 -0.32064,-1.36009 0.92604,-1.96577 z m -8.54212,1.98127 c -0.71176,0 -0.85746,0.53582 -0.50332,1.85105 0.16525,0.61202 0.23979,1.17304 0.16639,1.24644 -0.0734,0.0734 -0.81347,-0.42088 -1.64486,-1.09813 -0.85778,-0.69874 -1.67559,-1.16864 -1.89032,-1.08624 -0.20812,0.0799 -0.5173,0.14735 -0.6873,0.14935 -0.83507,0.011 -1.01739,0.42593 -0.70848,1.61179 0.16654,0.63932 0.41833,1.60869 0.55966,2.15439 0.25511,0.98503 0.58037,1.18549 1.24281,0.76533 0.27723,-0.17583 0.28388,-0.46316 0.0326,-1.46141 -0.17189,-0.68334 -0.24528,-1.30967 -0.16278,-1.39217 0.0825,-0.0825 0.80833,0.38656 1.61334,1.04232 1.41978,1.15655 1.49573,1.18409 2.53679,0.91984 0.80283,-0.20378 1.04061,-0.38082 0.94361,-0.70177 -0.0713,-0.23598 -0.25722,-1.02423 -0.41341,-1.75183 -0.4441,-2.06873 -0.53123,-2.24896 -1.08469,-2.24896 z m -32.177875,0.0217 c -0.12393,0.007 -0.20052,0.029 -0.21445,0.0703 -0.42891,1.27144 -0.92498,3.7446 -0.81081,4.04213 0.20698,0.53938 1.1327,0.44133 1.28365,-0.13591 0.11829,-0.45235 0.24716,-0.47341 1.35392,-0.22014 0.99152,0.22689 1.22318,0.3883 1.22318,0.85266 0,0.31503 0.0792,0.65231 0.17622,0.74931 0.41913,0.41912 1.14522,0.14236 1.30586,-0.49765 0.093,-0.37058 0.0991,-0.74327 0.014,-0.82837 -0.0851,-0.0851 0.0199,-0.40366 0.23306,-0.70797 0.47443,-0.67734 0.505,-1.86682 0.0568,-2.2164 -0.54817,-0.42765 -3.75388,-1.15426 -4.62143,-1.10794 z m 1.68207,1.4118 c 0.76239,0.13327 1.81488,0.62126 1.81488,0.94516 0,0.49316 -0.52002,0.55638 -1.78594,0.21652 -0.98032,-0.26318 -1.33183,-0.89396 -0.64492,-1.15755 0.14003,-0.0537 0.36185,-0.0487 0.61598,-0.004 z m 6.92774,0.15813 c -0.58356,-0.003 -0.96335,0.35625 -2.16059,2.04638 l -1.45262,2.05052 0.68213,0.23513 c 0.51764,0.17819 0.75748,0.1319 0.99373,-0.1912 0.44134,-0.60357 2.95258,-0.30829 3.326925,0.39119 0.35544,0.66417 1.69735,0.6899 1.45366,0.0279 -0.98834,-2.68486 -1.635295,-4.2003 -1.861895,-4.36149 -0.15028,-0.10694 -0.59194,-0.19643 -0.98134,-0.19843 z m 16.164385,0.0713 c -0.40246,-0.0249 -0.91376,0.002 -1.56579,0.0594 -1.09139,0.0957 -2.26578,0.35443 -2.60966,0.57464 -0.56499,0.36179 -0.6148,0.54882 -0.51418,1.93993 0.0612,0.84673 0.28075,1.74366 0.48782,1.99316 0.32047,0.38618 0.68828,0.42941 2.47065,0.29197 1.23319,-0.0951 2.36249,-0.33709 2.74712,-0.58911 0.60054,-0.39352 0.64369,-0.55627 0.53744,-2.0252 -0.11747,-1.62404 -0.34603,-2.16997 -1.5534,-2.24482 z m -10.29704,0.45372 c -2.46944,0 -2.64584,0.0353 -2.64584,0.52917 0,0.42836 0.17639,0.52916 0.92604,0.52916 h 0.92605 v 1.85209 c 0,1.79916 0.0189,1.85208 0.66145,1.85208 0.61586,0 0.66146,-0.0896 0.66146,-1.30121 0,-1.84219 0.16892,-2.13837 1.21905,-2.13837 0.7812,0 0.89762,-0.0859 0.89762,-0.66146 v -0.66146 z m 3.82457,0 c -0.63757,0 -0.64957,0.0404 -0.64957,2.20503 0,1.21267 0.0844,2.28894 0.18758,2.3921 0.10315,0.10324 0.43058,0.15309 0.72761,0.11059 0.45668,-0.0654 0.5527,-0.30216 0.6227,-1.53272 0.13058,-2.29733 -0.11487,-3.175 -0.88832,-3.175 z m 5.23069,0.78755 v 5.1e-4 c 0.83484,-0.022 1.1452,0.28482 1.21698,1.03663 0.0516,0.54024 -0.0539,0.98676 -0.26459,1.12035 -0.1927,0.12217 -0.91591,0.22382 -1.60713,0.22582 l -1.25677,0.004 v -1.04645 c 0,-0.97858 0.0577,-1.05696 0.89141,-1.21336 0.40549,-0.0761 0.74182,-0.11978 1.0201,-0.12712 z m -14.817695,0.0806 c 0.0845,-0.0164 0.13964,0.1021 0.23409,0.34313 0.10956,0.27961 0.20788,0.65732 0.21808,0.83923 0.0102,0.1819 -0.27905,0.33073 -0.64286,0.33073 -0.77807,0 -0.81768,-0.18883 -0.21807,-1.0449 0.21034,-0.3003 0.32424,-0.45175 0.40876,-0.46819 z" />
  </g>
</svg>
