<?xml version="1.0" encoding="UTF-8" standalone="no"?>
<!-- Created with Inkscape (http://www.inkscape.org/) -->

<svg
   width="43.458889mm"
   height="70.02964mm"
   viewBox="0 0 43.458885 70.029641"
   version="1.1"
   id="svg1"
   xmlns="http://www.w3.org/2000/svg"
   xmlns:svg="http://www.w3.org/2000/svg">
  <defs
     id="defs1" />
  <g
     id="layer1"
     transform="translate(-94.651485,-113.19397)">
    <path
       id="rect400-6-3"
       style="fill:#37a6d1;fill-opacity:1;stroke-width:0.264583"
       d="m 116.67042,113.19397 c -1.1509,0 -8.78727,13.34092 -11.05566,19.31458 -1.77999,4.68752 -2.98569,8.02729 -3.48661,9.6573 -2.174824,7.0768 -3.963074,14.76581 -5.015204,21.5656 -0.3038,1.96342 -0.72147,4.64138 -0.92862,5.95106 -0.20715,1.30969 -0.56647,4.04813 -0.7984,6.08542 -0.23193,2.03729 -0.50817,4.35981 -0.61392,5.16144 -0.10576,0.80164 -0.15061,1.67588 -0.0992,1.94252 0.0904,0.4694 0.10781,0.46919 0.53744,-0.002 0.24404,-0.26791 1.266,-1.61788 2.27118,-3.00033 v -5.2e-4 c 1.00517,-1.38244 1.89986,-2.57307 1.98851,-2.64583 0.0886,-0.0728 0.42702,-0.47831 0.751894,-0.90124 3.39211,-4.41612 12.78399,-13.9216 15.32103,-15.50655 0.40641,-0.2539 0.98217,-0.69616 1.27951,-0.98237 0.61795,-0.59481 1.03104,-0.83601 4.08088,-2.38228 1.62619,-0.82445 2.38823,-1.07494 2.89388,-0.95188 0.80598,0.19614 2.57411,1.38909 3.34347,2.25619 0.81274,0.916 2.88196,3.90785 3.53208,5.10667 0.31566,0.58209 0.92865,1.65365 1.36219,2.38125 0.43354,0.72761 1.68488,3.08843 2.78071,5.24619 1.09584,2.15776 2.10676,4.12229 2.24638,4.36563 0.13961,0.24326 0.373,0.77703 0.51831,1.18597 1.02978,2.89806 0.48021,-3.8364 -0.96738,-11.85612 -0.81997,-4.54279 -2.76013,-12.96955 -3.68556,-16.0073 -3.22295,-10.57863 -5.29818,-15.64629 -11.04998,-26.9875 -2.7654,-5.45282 -4.8159,-8.99583 -5.20691,-8.99583 z m -0.7674,4.61884 c 0.19159,-0.11841 4.8941,9.05523 6.44819,12.57908 0.41715,0.94588 1.08461,2.43417 1.48311,3.30729 1.20321,2.63626 1.56603,3.54802 2.94711,7.40833 1.9259,5.38323 2.16195,6.12768 3.61063,11.37709 1.4237,5.15883 2.19333,8.39051 2.03553,8.54831 -0.0548,0.0548 -0.29472,-0.2776 -0.5333,-0.73897 -0.4301,-0.83171 -1.26915,-1.98896 -3.0365,-4.18786 -0.50442,-0.62756 -1.5078,-1.56518 -2.22932,-2.08359 -1.16624,-0.83787 -1.49404,-0.94258 -2.95176,-0.94258 -1.38134,0 -1.96856,0.16449 -3.72381,1.04438 -4.02486,2.01766 -8.07877,5.16364 -14.92673,11.58327 -1.0996,1.03082 -6.125294,6.4099 -6.783054,7.26002 -0.0469,0.0606 -0.0853,-0.26264 -0.0853,-0.71882 0,-1.45469 1.28577,-9.86502 1.990064,-13.01729 0.37389,-1.67349 0.85865,-3.99528 1.07745,-5.15937 0.68023,-3.61801 1.72527,-7.31594 4.07417,-14.4198 1.82857,-5.53001 2.46934,-7.13258 4.34909,-10.87117 2.53105,-5.03369 5.73054,-10.64456 6.2544,-10.96832 z m 0.80357,12.8633 c -0.20281,-0.0107 -1.3339,0.55311 -2.51354,1.25315 -1.17964,0.70004 -3.06737,1.79268 -4.19509,2.42828 -1.12778,0.6356 -2.04887,1.28324 -2.04639,1.43919 0.002,0.15588 0.24249,2.06964 0.5333,4.25245 0.29081,2.18281 0.60324,4.59277 0.69401,5.35574 0.0908,0.76298 0.29724,1.48139 0.45889,1.59629 0.41743,0.29671 12.5872,4.2007 13.29635,4.26537 0.16633,0.0152 0.36732,-0.14271 0.447,-0.35036 h 5.2e-4 c 0.1988,-0.51806 -0.12635,-0.71604 -2.8665,-1.74873 -1.30969,-0.49362 -2.42111,-0.99112 -2.46961,-1.10536 -0.0485,-0.11423 -0.23098,-0.20774 -0.40566,-0.20774 -0.40285,0 -2.98642,-1.63835 -3.91398,-2.48202 -0.38697,-0.35197 -0.8639,-0.74131 -1.05988,-0.86507 -0.47347,-0.29902 -1.61399,-1.89252 -2.0159,-2.81688 -0.43091,-0.99109 -0.4078,-3.43601 0.0424,-4.51342 0.46031,-1.10167 1.88705,-2.73763 2.78432,-3.19257 0.97219,-0.49293 3.05563,-0.75339 4.3186,-0.54002 2.50426,0.42309 4.31772,3.6813 3.65818,6.57221 -0.42119,1.8462 -0.68937,2.22426 -1.79317,2.52905 -1.48858,0.41102 -2.75745,-0.044 -3.97237,-1.42421 -0.67372,-0.76532 -1.14154,-1.09393 -1.36219,-0.95756 -0.25296,0.15633 -0.0355,0.80548 0.87901,2.6262 0.66807,1.3302 1.35086,2.41845 1.51774,2.41845 0.16688,0 1.65403,-0.25152 3.30471,-0.55914 l 3.00137,-0.55965 0.0548,-3.67368 c 0.0303,-2.02071 0.0602,-4.23524 0.0662,-4.92115 l 0.0114,-1.24746 -3.04271,-1.77612 c -1.67349,-0.97691 -3.20887,-1.78457 -3.41168,-1.79524 z" />
  </g>
</svg>
