<?xml version="1.0" encoding="UTF-8" standalone="no"?>
<!-- Created with Inkscape (http://www.inkscape.org/) -->

<svg
   width="43.215031mm"
   height="69.773285mm"
   viewBox="0 0 43.215027 69.773286"
   version="1.1"
   id="svg1"
   xmlns="http://www.w3.org/2000/svg"
   xmlns:svg="http://www.w3.org/2000/svg">
  <defs
     id="defs1" />
  <g
     id="layer1"
     transform="translate(-91.829878,-112.62157)">
    <path
       id="rect400"
       style="fill:#37a6d1;fill-opacity:1;stroke-width:0.264583"
       d="m 113.53464,112.62648 c -0.99521,-0.32295 -9.78777,15.36273 -11.08149,19.76934 -0.10681,0.3638 -0.28595,0.78052 -0.39843,0.92604 -0.11248,0.14552 -0.44868,1.0385 -0.74672,1.98438 -0.29805,0.94589 -0.86166,2.55322 -1.25264,3.57187 -0.739982,1.92793 -2.531362,8.09846 -3.149162,10.84792 -0.19619,0.87312 -0.49166,1.9372 -0.65681,2.36471 -0.35364,0.91547 -1.50165,6.67714 -2.0066,10.07071 -0.19487,1.30962 -0.59514,3.81325 -0.88935,5.56348 -0.89283,5.3113 -1.81151,14.68232 -1.43815,14.66991 0.12207,-0.004 0.99612,-1.09216 1.942,-2.41794 2.01455,-2.82378 4.65182,-6.21105 6.146392,-7.89358 4.08409,-4.59773 10.71455,-10.81372 13.82913,-12.96458 0.52681,-0.3638 1.11979,-0.80893 1.31724,-0.98909 0.5633,-0.51396 3.07772,-1.82158 4.18734,-2.17764 0.55343,-0.17762 1.31066,-0.24683 1.68258,-0.15348 1.3764,0.34545 3.68335,2.89856 6.6797,7.39179 0.72903,1.09324 6.61769,12.46548 6.99389,13.50667 0.0559,0.15473 0.19379,0.19528 0.30644,0.0904 0.11266,-0.10486 0.006,-1.71221 -0.23771,-3.57188 -0.24335,-1.85967 -0.56474,-4.33375 -0.71417,-5.49785 -0.92155,-7.17955 -4.28821,-20.21767 -7.213,-27.93473 -1.45337,-3.83473 -4.50989,-11.40953 -4.90254,-12.14965 -0.1158,-0.21828 -0.75065,-1.4089 -1.41077,-2.64583 -0.66013,-1.23692 -2.00624,-3.79684 -2.99155,-5.68854 -2.16409,-4.15503 -3.59343,-6.54195 -3.99562,-6.67247 z m -0.49196,4.59352 c 0.14997,0.0575 0.38878,0.33677 0.53123,0.62012 0.14245,0.28336 0.9959,1.97768 1.89653,3.76514 2.16734,4.30166 3.84499,7.92836 5.23534,11.31973 0.62641,1.52797 1.38845,3.35035 1.69395,4.04988 0.98008,2.24418 3.1853,8.31628 3.74034,10.29963 0.29591,1.05735 0.59223,2.10096 0.65836,2.31924 0.95569,3.15449 1.30885,4.43273 1.71928,6.21771 0.26761,1.1641 0.60249,2.62267 0.74414,3.24114 0.14166,0.61846 0.16932,1.12448 0.061,1.12448 -0.1083,0 -0.57235,-0.56555 -1.03094,-1.25677 -1.47596,-2.22471 -2.14634,-3.07923 -3.59461,-4.5806 -1.64984,-1.71033 -2.93943,-2.22704 -4.85707,-1.94665 -1.95082,0.28524 -5.83234,2.4102 -9.38599,5.1387 -0.76086,0.5842 -1.50244,1.15375 -1.64796,1.26556 -1.67541,1.28726 -7.67108,6.92558 -9.524492,8.95708 -1.3092,1.43494 -2.70731,2.96633 -3.1073,3.40289 -0.39998,0.43657 -0.72797,0.88305 -0.72864,0.99219 -6.8e-4,0.10914 -0.11487,0.19843 -0.25373,0.19843 -0.13886,0 -0.19986,-0.44647 -0.13539,-0.99218 0.0645,-0.5457 0.18215,-1.52798 0.26096,-2.18282 0.14985,-1.24532 1.79454,-10.64074 2.22312,-12.7 0.56734,-2.72548 1.14637,-5.2326 1.46658,-6.35 0.49302,-1.72035 0.83505,-3.01457 1.468132,-5.55625 0.65721,-2.63845 2.00938,-6.70848 3.49849,-10.5301 2.02642,-5.20043 8.42409,-17.06391 9.0687,-16.81655 z m 0.54415,4.16719 c -0.23861,-0.13834 -0.50338,1.48088 -0.81132,4.92786 -0.22726,2.54404 -0.5315,5.57807 -0.67644,6.74223 -0.14493,1.16417 -0.31493,2.53339 -0.37776,3.04271 -0.0628,0.50933 -0.1962,1.73002 -0.2961,2.71249 l -0.18139,1.78594 -2.61534,0.80719 c -1.6063,0.49569 -2.54877,0.91395 -2.44326,1.08468 0.0945,0.15288 1.1693,0.737 2.38848,1.2976 1.21918,0.5606 2.21481,1.11409 2.21227,1.2299 -0.003,0.1158 -0.18065,1.28188 -0.39584,2.59157 -0.4424,2.69254 -0.47891,3.31074 -0.19482,3.29851 0.10914,-0.005 0.89554,-1.13579 1.7477,-2.51354 0.85217,-1.37776 1.64892,-2.50476 1.77043,-2.50476 0.12151,0 0.96696,1.02679 1.87896,2.28203 0.91199,1.25524 1.7025,2.14994 1.75648,1.98799 0.054,-0.16196 -0.0306,-1.12221 -0.18759,-2.13423 -0.52128,-3.35971 -0.59349,-3.20465 1.96474,-4.20956 1.2364,-0.48572 2.24793,-0.98202 2.24793,-1.10278 0,-0.12074 -1.12999,-0.59568 -2.51096,-1.05575 -1.38097,-0.46008 -2.57143,-0.93463 -2.64532,-1.0542 -0.0739,-0.11956 -0.30833,-1.68746 -0.5209,-3.48454 -0.21256,-1.79708 -0.44882,-3.62468 -0.52503,-4.06125 -0.0762,-0.43656 -0.19306,-1.38907 -0.25993,-2.11667 -0.15761,-1.71484 -0.89656,-7.67736 -1.09451,-8.83202 -0.0744,-0.43407 -0.15094,-0.67529 -0.23048,-0.7214 z" />
  </g>
</svg>
