<?xml version="1.0" encoding="UTF-8" standalone="no"?>
<!-- Created with Inkscape (http://www.inkscape.org/) -->

<svg
   width="43.314999mm"
   height="70.072189mm"
   viewBox="0 0 43.314995 70.07219"
   version="1.1"
   id="svg1"
   xmlns="http://www.w3.org/2000/svg"
   xmlns:svg="http://www.w3.org/2000/svg">
  <defs
     id="defs1" />
  <g
     id="layer1"
     transform="translate(-97.395746,-114.16882)">
    <path
       id="rect400-6"
       style="fill:#37a6d1;fill-opacity:1;stroke-width:0.264583"
       d="m 119.18225,114.16882 c -0.42863,0 -5.67396,8.7128 -8.04395,13.36146 -1.63981,3.21646 -1.84262,3.67879 -3.54345,8.06979 -1.7062,4.4049 -1.88768,4.94849 -3.35432,10.05417 -0.73152,2.54661 -1.44169,4.9874 -1.5782,5.42396 -0.73932,2.36438 -2.59143,11.5977 -3.184301,15.875 -0.16136,1.16417 -0.40141,2.71197 -0.5333,3.43958 -0.1319,0.7276 -0.30754,1.91824 -0.39068,2.64584 -0.0831,0.72754 -0.2628,2.21589 -0.39894,3.30729 -1.0933,8.76474 -1.08047,8.92693 0.52814,6.68073 0.495,-0.69122 1.321811,-1.86426 1.837091,-2.60656 2.11154,-3.04187 5.44345,-6.83893 10.19731,-11.62152 7.06685,-7.10941 12.77217,-11.23807 15.53032,-11.23807 1.38679,0 3.64388,2.20707 6.00584,5.87199 2.61864,4.0634 2.92957,4.61526 5.6658,10.06502 2.35937,4.69924 2.70258,5.25414 2.77761,4.49017 0.0471,-0.47943 -0.0328,-1.78912 -0.17777,-2.91042 -1.21967,-9.43276 -1.18398,-9.23645 -3.23081,-17.64905 -1.51264,-6.21711 -2.93294,-11.32528 -3.71502,-13.36146 -0.30741,-0.80037 -0.80454,-2.11006 -1.10484,-2.91042 -1.58614,-4.22734 -4.23055,-10.22988 -6.5288,-14.81925 -3.39656,-6.78253 -6.38743,-12.16825 -6.75773,-12.16825 z m -0.65835,4.89376 c 0.31463,-0.19445 5.85508,10.38601 7.15305,13.66015 0.26683,0.67307 0.74247,1.80416 1.0573,2.51354 0.31482,0.70938 0.66424,1.52796 0.77669,1.81901 1.88412,4.8765 2.14163,5.61239 4.25297,12.17084 0.93971,2.91887 3.4277,12.3224 3.4277,12.95528 0,0.14963 -0.41082,-0.32293 -0.9126,-1.05007 -1.83393,-2.65761 -3.48823,-4.5699 -4.99711,-5.77691 -1.47936,-1.18334 -1.6115,-1.23381 -3.1564,-1.19889 -1.35399,0.0306 -1.9715,0.22474 -3.85558,1.21026 -1.23398,0.64547 -2.61202,1.44232 -3.06183,1.77044 -4.22158,3.07946 -5.34193,3.95139 -7.29981,5.68182 -2.65894,2.35006 -8.08304,7.76419 -9.84178,9.82369 -1.1176,1.30872 -1.2431,1.38862 -1.24798,0.79375 -0.003,-0.36381 0.10819,-1.49489 0.24701,-2.51354 0.13882,-1.01864 0.31684,-2.44739 0.39584,-3.175 0.079,-0.7276 0.25627,-1.85869 0.39378,-2.51354 0.1375,-0.65484 0.37587,-1.96453 0.52968,-2.91042 0.3298,-2.02817 0.47856,-2.71525 1.83813,-8.4739 2.08945,-8.8502 3.9164,-14.76481 6.08593,-19.70422 2.42116,-5.51218 7.33867,-14.54068 8.21501,-15.08229 z m 0.13125,14.55467 c -2.1121,10e-4 -2.57559,0.0935 -4.10104,0.81855 -3.47975,1.65402 -5.55625,4.92421 -5.55625,8.75037 0,3.74788 2.51271,7.59377 5.88285,9.00411 1.90404,0.79676 5.17796,0.82908 7.10447,0.0698 2.69128,-1.0608 4.66204,-3.21141 5.54592,-6.05131 0.71392,-2.29385 0.70917,-3.27935 -0.0295,-6.24303 -0.53794,-2.15842 -2.50659,-4.36754 -5.01003,-5.62136 -1.26601,-0.63406 -1.76481,-0.72823 -3.83646,-0.72709 z m -0.52658,1.69705 c 0.61456,0.008 1.29089,0.0908 2.06292,0.2403 1.43945,0.27872 3.60459,1.4739 3.61735,1.99678 0.003,0.1275 -0.38063,0.13813 -0.85421,0.0238 -1.26831,-0.30638 -3.28959,-0.18696 -5.13508,0.30334 -2.0212,0.53696 -4.0645,2.21818 -4.84777,3.9889 -0.29401,0.66465 -0.53433,1.34887 -0.53433,1.52084 0,0.17197 -0.15825,0.52908 -0.3514,0.79323 -0.32772,0.44818 -0.37025,0.42955 -0.63666,-0.28008 -0.15701,-0.41823 -0.35664,-0.9795 -0.44338,-1.24696 -0.0867,-0.26746 0.038,-1.16043 0.27698,-1.98437 0.35326,-1.21757 0.74147,-1.79912 2.07171,-3.10472 1.64333,-1.6129 2.9302,-2.27362 4.77387,-2.25103 z m 2.74557,3.79202 c 0.48456,-0.0457 0.96724,-0.0464 1.43919,0.002 0.53937,0.0555 1.06442,0.17576 1.56166,0.36793 0.6214,0.24016 1.22439,0.51915 1.33997,0.62012 0.46693,0.40791 -0.96765,3.31671 -2.34921,4.76302 -2.22462,2.32883 -5.55604,3.056 -8.27805,1.8066 l -1.15755,-0.53123 0.16175,-1.18029 c 0.41395,-3.02014 3.8903,-5.52845 7.28224,-5.84822 z m 5.38623,4.29896 -0.18965,1.45521 c -0.32125,2.46244 -1.76353,4.39289 -4.13825,5.54023 -1.41995,0.68604 -4.70807,0.74552 -5.92315,0.10697 -1.06597,-0.56019 -2.52859,-1.96964 -2.34766,-2.26239 0.0801,-0.12953 0.32884,-0.0831 0.55294,0.10283 0.25403,0.21082 1.41608,0.36952 3.0856,0.42168 l 2.67787,0.0837 1.89136,-1.06454 c 1.43971,-0.81036 2.18956,-1.46123 3.14089,-2.72438 z" />
  </g>
</svg>
