<?xml version="1.0" encoding="UTF-8" standalone="no"?>
<!-- Created with Inkscape (http://www.inkscape.org/) -->

<svg
   width="136.00044mm"
   height="136.00031mm"
   viewBox="0 0 136.00044 136.00031"
   version="1.1"
   id="svg1"
   xmlns="http://www.w3.org/2000/svg"
   xmlns:svg="http://www.w3.org/2000/svg">
  <defs
     id="defs1" />
  <g
     id="layer1"
     transform="translate(-33.251638,-79.295422)">
    <path
       id="path315"
       style="fill:#37a6d1;fill-opacity:1"
       d="m 100.54912,79.307965 v 5.16e-4 c -3.650293,0.0535 -7.463873,0.270618 -9.590113,0.605648 -3.77852,0.595419 -8.95391,1.911039 -12.58476,3.199288 -3.64076,1.291769 -9.7057,4.209941 -12.92893,6.220809 -8.2943,5.174485 -16.22405,12.929464 -21.34857,20.878314 -5.61439,8.7087 -9.06624,18.1715 -10.42934,28.59153 -0.55355,4.22911 -0.5545,12.78338 -0.002,17.02325 3.4156,26.21722 21.39096,47.94868 46.51447,56.23429 4.49163,1.48135 9.81681,2.57047 15.41715,3.1533 h 0.001 c 2.29529,0.23887 12.665893,-0.0902 15.309143,-0.48576 14.88975,-2.22797 27.79271,-8.73202 38.46019,-19.38744 10.66276,-10.6507 17.09569,-23.51439 19.40502,-38.80332 0.63929,-4.23245 0.63974,-14.13484 5.1e-4,-18.49861 -2.26338,-15.4509 -9.05971,-28.80299 -20.13678,-39.563993 -11.21108,-10.891149 -25.23223,-17.422434 -40.73705,-18.974553 -1.01161,-0.10134 -2.34001,-0.163369 -3.82251,-0.190169 -1.11188,-0.0201 -2.31066,-0.0205 -3.52743,-0.0031 z m 0.0212,2.052587 v 5.17e-4 c -1.780783,0.02611 -3.599373,0.09256 -5.231733,0.19327 1.63306,-0.10081 3.44996,-0.16768 5.231733,-0.193787 z m 3.42046,0.0031 c 1.43748,0.026 2.72536,0.08579 3.70623,0.183968 0.83839,0.08394 1.67038,0.188435 2.49959,0.302307 -0.82906,-0.113846 -1.66136,-0.217861 -2.49959,-0.30179 -0.98087,-0.0982 -2.26875,-0.158485 -3.70623,-0.184485 z m -1.8402,0.219625 c 3.27185,0.0506 6.57479,0.251584 8.75864,0.585494 13.55009,2.071806 25.87004,8.105988 35.61436,17.44338 10.7283,10.280279 17.36354,23.044859 19.72542,37.947549 0.66939,4.22372 0.66939,14.7188 0,18.94251 -2.36188,14.9027 -8.99712,27.66728 -19.72542,37.94756 -9.7247,9.31859 -22.24783,15.45617 -35.53271,17.41392 -4.09266,0.60312 -11.362533,0.85046 -15.162903,0.51625 -20.35623,-1.79013 -38.17862,-12.5324 -49.59801,-29.89482 -3.82277,-5.81229 -7.59943,-14.89107 -8.96999,-21.56354 -1.85228,-9.01772 -1.85228,-18.76352 0,-27.78125 1.37056,-6.67247 5.14722,-15.75125 8.96999,-21.56354 10.97845,-16.691991 27.58593,-27.100429 47.34905,-29.675703 2.05896,-0.2683 5.29975,-0.36841 8.571573,-0.31781 z m -10.878923,0.364835 c -3.66374,0.57743 -8.68181,1.853822 -12.20236,3.10317 3.52057,-1.249359 8.5386,-2.52574 12.20236,-3.10317 z m 27.410733,1.624707 c 2.66892,0.727879 5.27627,1.62034 7.81296,2.673222 1.69113,0.701922 3.35088,1.475282 4.97696,2.318722 3.25215,1.686879 6.36942,3.654284 9.33121,5.89318 1.4809,1.119448 2.92248,2.306568 4.32325,3.560506 -1.40059,-1.253754 -2.84255,-2.441205 -4.32325,-3.560506 -2.96179,-2.238893 -6.07906,-4.206299 -9.33121,-5.89318 -1.62608,-0.843441 -3.28583,-1.616798 -4.97696,-2.318722 -2.5367,-1.052885 -5.14404,-1.94534 -7.81296,-2.673222 z m -42.621693,2.675289 c -3.28973,1.4158 -7.18361,3.373264 -9.52758,4.835881 -2.01058,1.254577 -3.9989,2.665386 -5.92832,4.196643 1.92931,-1.531157 3.91784,-2.942647 5.92832,-4.19716 2.34399,-1.462618 6.23785,-3.419566 9.52758,-4.835364 z m 23.49676,0.196888 c -2.82946,0.006 -2.80345,-0.0173 -2.80345,2.54093 v 2.217952 h 0.79375 c 0.59746,0 0.79375,-0.121521 0.79375,-0.491959 0,-0.4027 0.26765,-0.519976 1.4733,-0.644406 1.809163,-0.186718 2.230873,-0.511458 2.230873,-1.719274 0,-1.456898 -0.58876,-1.907243 -2.488223,-1.903243 z m 4.864823,0.04289 c -0.43132,-0.009 -0.69137,0.120854 -1.02371,0.453202 -0.63441,0.63441 -0.73357,1.672535 -0.20154,2.114083 0.1968,0.16332 1.08977,0.373138 1.98437,0.466638 1.19039,0.12442 1.62678,0.276151 1.62678,0.565341 0,0.319148 -0.24174,0.362072 -1.25677,0.223242 -0.69122,-0.0945 -1.29664,-0.289529 -1.34514,-0.433049 -0.0485,-0.14353 -0.37592,-0.260966 -0.7276,-0.260966 -0.44912,0 -0.63924,0.148198 -0.63924,0.497128 0,0.607798 0.44743,1.000199 1.32292,1.161169 0.3638,0.0668 1.34188,0.13833 2.17351,0.15813 1.64804,0.0393 2.05982,-0.292177 2.05982,-1.657263 0,-0.82753 -0.49756,-1.098861 -2.4474,-1.335319 -1.80453,-0.21884 -2.02811,-0.675928 -0.33073,-0.675928 0.65484,0 1.19063,0.119063 1.19063,0.264583 0,0.14552 0.35719,0.264584 0.79375,0.264584 0.51153,0 0.79375,-0.134165 0.79375,-0.377755 0,-0.63804 -0.78837,-1.209329 -1.67277,-1.212329 -0.46255,-0.002 -1.27367,-0.0748 -1.80299,-0.162264 -0.19074,-0.0316 -0.35387,-0.05023 -0.49764,-0.05323 z m -10.869623,0.636137 c -0.93155,0.0115 -2.12028,0.102255 -2.64222,0.202055 l -0.94929,0.181384 0.22996,1.650029 c 0.12644,0.907368 0.28773,1.917404 0.35863,2.244824 0.19075,0.881458 1.44177,0.844266 1.44177,-0.04289 0,-0.537388 0.16553,-0.666274 1.04852,-0.815454 1.14863,-0.19406 1.59732,-0.0415 1.59732,0.543119 0,0.23029 0.26192,0.381373 0.66145,0.381373 0.52008,0 0.66146,-0.134293 0.66146,-0.628903 0,-0.345988 -0.17322,-0.773029 -0.38499,-0.948779 -0.29306,-0.24318 -0.31574,-0.429881 -0.0956,-0.782381 0.19837,-0.31768 0.20696,-0.705712 0.0279,-1.23455 -0.25308,-0.747148 -0.31287,-0.770025 -1.95492,-0.749825 z m 5.86631,0.640271 c 1.135483,0 1.329103,0.0713 1.254703,0.463021 -0.0662,0.348888 -0.39741,0.482836 -1.342553,0.543636 -1.11532,0.0717 -1.25419,0.0204 -1.25419,-0.463021 0,-0.47707 0.16418,-0.543636 1.34204,-0.543636 z m 14.817183,0.207739 c -1.07954,-0.0507 -1.53141,0.402277 -1.85725,1.575615 -0.593,2.135314 -0.23709,2.699311 2.1022,3.331579 2.92235,0.789868 3.57359,0.429833 3.87831,-2.143021 0.14165,-1.195968 0.0945,-1.369231 -0.47284,-1.740979 -0.34658,-0.22709 -1.40086,-0.592564 -2.34301,-0.812354 -0.51792,-0.12083 -0.94756,-0.19395 -1.30741,-0.21084 z m -26.053713,0.0677 c -0.2792,-0.0328 -0.70371,0.0489 -1.5198,0.216008 -3.15274,0.645368 -3.697,1.18081 -3.18792,3.135726 0.18158,0.697298 0.58434,1.481042 0.89504,1.742012 0.40788,0.34262 0.7918,0.426604 1.38131,0.301274 1.66463,-0.3539 3.42476,-1.052836 3.67471,-1.458826 0.36054,-0.585608 -0.01,-2.742883 -0.5948,-3.465421 -0.23543,-0.29074 -0.36934,-0.437933 -0.64854,-0.470773 z m 5.76813,0.137976 c 0.18157,0.042 0.28313,0.13573 0.34209,0.289388 0.0864,0.22505 -0.009,0.514255 -0.21239,0.642855 -0.62696,0.39699 -2.2801,0.285942 -2.45308,-0.164848 -0.17163,-0.447258 0.0128,-0.538704 1.50275,-0.746724 0.37778,-0.0528 0.63905,-0.06257 0.82063,-0.02067 z m 20.612693,1.224215 v 5.17e-4 c 0.23605,-0.005 0.52906,0.03054 0.88729,0.09974 1.35483,0.262 1.60687,0.622381 1.29759,1.854667 -0.17896,0.71305 -0.596,0.774186 -2.00246,0.294556 -0.68963,-0.23517 -0.94367,-0.484603 -0.99477,-0.977201 -0.0918,-0.886268 0.1042,-1.258384 0.81235,-1.272274 z m -27.457243,0.03927 c 0.21405,-0.004 0.36842,0.0499 0.50075,0.15968 0.49776,0.4131 0.67166,1.54568 0.28628,1.86552 -0.17623,0.146258 -0.86128,0.340381 -1.52238,0.430981 -1.18537,0.16247 -1.20504,0.152923 -1.38958,-0.687297 -0.21746,-0.990088 -0.0872,-1.152843 1.26607,-1.585433 0.37122,-0.118678 0.64481,-0.179691 0.85886,-0.183451 z M 119.93554,89.651 c -0.14726,0.18791 -1.48569,3.966768 -1.48569,4.194576 0,0.12652 0.20836,0.284283 0.46302,0.350883 v 5.17e-4 c 0.78604,0.20541 0.86003,0.192777 0.86403,-0.148311 0.0115,-0.936198 0.42272,-1.068701 1.84795,-0.595313 1.1579,0.38458 1.42248,0.400527 1.61437,0.09767 0.36512,-0.57637 0.31539,-0.623585 -1.2175,-1.144633 -0.80037,-0.27205 -1.45521,-0.586916 -1.45521,-0.700216 0,-0.498798 0.63658,-0.49993 1.96422,-0.0031 1.25788,0.470638 1.44696,0.48562 1.58492,0.12609 0.0861,-0.22453 0.10034,-0.499545 0.0315,-0.610815 -0.14768,-0.23895 -4.09999,-1.709805 -4.21163,-1.567347 z m -38.201283,0.558623 c -0.20296,-0.0616 -0.48978,-0.05249 -0.94775,5.16e-4 -1.28852,0.14923 -3.59891,1.182223 -3.79667,1.697571 -0.21369,0.55685 0.13254,1.98573 0.71107,2.934188 0.63132,1.035018 1.21708,1.088081 3.20911,0.288871 1.90662,-0.764928 2.46665,-1.309304 2.24741,-2.182812 -0.21556,-0.858918 -0.54944,-0.865383 -1.32705,-0.02636 -0.54498,0.588048 -2.49052,1.615272 -2.66392,1.406632 -0.26853,-0.323098 -0.6687,-1.309201 -0.6687,-1.647961 0,-0.49808 1.78383,-1.291379 2.48926,-1.106909 0.27865,0.0729 0.72696,0.015 0.99632,-0.129191 0.40167,-0.21497 0.43705,-0.361159 0.19585,-0.811837 -0.12262,-0.22911 -0.24198,-0.361153 -0.44493,-0.422713 z m 46.579583,2.850988 c -0.41354,0.009 -2.2437,3.752842 -1.96887,4.027662 0.14631,0.146308 1.07873,0.722502 2.07223,1.280542 0.99347,0.558048 1.83215,1.020294 1.86345,1.026294 0.0313,0.006 0.18017,-0.220017 0.33124,-0.502295 0.24267,-0.45344 0.0885,-0.612444 -1.32395,-1.365292 -1.0795,-0.575358 -1.51162,-0.939375 -1.33066,-1.120345 0.18097,-0.18097 0.70994,-0.0275 1.62832,0.472323 1.10277,0.600208 1.40307,0.671581 1.5875,0.376721 0.25247,-0.40362 -0.44461,-1.059205 -1.6769,-1.577165 -0.40018,-0.16821 -0.7276,-0.47013 -0.7276,-0.67076 0,-0.507848 0.14613,-0.471517 1.72082,0.429431 1.22513,0.70094 1.42764,0.747054 1.72341,0.390674 0.18433,-0.22213 0.28861,-0.450029 0.23151,-0.506429 -0.24295,-0.24012 -3.94231,-2.265361 -4.1305,-2.261361 z m -55.677223,0.699183 c -0.31092,0.05844 -0.84213,0.365164 -1.95905,1.035079 -1.15592,0.693288 -2.14133,1.290217 -2.18953,1.326017 -0.0482,0.0358 0.0471,0.315811 0.21135,0.622701 0.27539,0.514568 0.34321,0.526699 0.87385,0.155029 0.89618,-0.627708 1.16572,-0.499807 1.93839,0.919841 0.74907,1.376316 1.14103,1.592769 1.68878,0.932759 0.26328,-0.31723 0.16405,-0.649381 -0.5302,-1.777669 -0.77814,-1.264638 -0.81339,-1.411864 -0.40049,-1.660364 1.20111,-0.722908 1.23965,-0.780441 0.86455,-1.293461 -0.0838,-0.11462 -0.15562,-0.197929 -0.2465,-0.239779 -0.0682,-0.03139 -0.14751,-0.03963 -0.25115,-0.02015 z m 27.767823,1.230932 c -10.880613,0.18081 -21.984753,4.075812 -31.034803,10.993124 -2.25678,1.72494 -6.52716,5.9089 -8.40879,8.23877 -4.81674,5.96421 -8.72529,13.96163 -10.38076,21.24057 -1.58386,6.96392 -1.58386,16.17161 0,23.13554 1.65547,7.27893 5.56402,15.27635 10.38076,21.24056 1.88163,2.32988 6.15201,6.51383 8.40879,8.23877 7.88364,6.02579 17.56135,9.86877 27.21332,10.80606 3.1171,0.3027 9.103113,0.11383 12.458673,-0.39325 17.13411,-2.58928 31.61879,-13.32031 39.1511,-29.00495 2.36745,-4.92976 3.53168,-8.55993 4.57182,-14.25288 0.64615,-3.53651 0.64615,-12.86765 0,-16.40417 -1.04014,-5.69295 -2.20437,-9.32311 -4.57182,-14.25287 -8.17085,-17.01429 -24.05096,-27.847389 -43.14517,-29.433345 -1.5386,-0.1278 -3.08876,-0.177759 -4.64312,-0.151929 z m -39.800163,0.289905 c -1.92931,1.531188 -3.79961,3.183063 -5.57382,4.918559 1.7743,-1.735586 3.6444,-3.387302 5.57382,-4.918559 z m 73.128873,0.890385 c -0.29365,0.0626 -0.67407,0.516211 -1.50275,1.692403 -1.32874,1.885976 -1.33265,1.898518 -0.77256,2.290811 0.52017,0.36434 0.60081,0.34205 1.0604,-0.288866 0.27367,-0.37569 0.72851,-0.959929 1.01079,-1.298629 l 0.51315,-0.615983 0.009,2.028817 c 0.008,1.900121 0.0548,2.062401 0.73639,2.570901 0.40018,0.29857 0.81434,0.54639 0.92087,0.55139 0.10653,0.005 0.78703,-0.79541 1.51206,-1.77767 l 1.31826,-1.785938 -0.56327,-0.474389 c -0.55548,-0.46797 -0.57706,-0.455389 -1.51205,0.888317 l -0.94827,1.36271 -0.0785,-2.058274 c -0.0794,-2.092656 -0.17736,-2.30132 -1.42524,-3.02979 -0.0919,-0.0537 -0.17982,-0.07642 -0.2775,-0.05581 z M 67.804867,96.95133 c -0.39157,-0.10832 -1.46342,0.543745 -3.52898,2.131653 l -0.59531,0.457853 1.36322,1.910474 1.36271,1.90996 1.34927,-0.97358 c 0.74206,-0.53558 1.61347,-1.15765 1.93632,-1.38234 0.32285,-0.2247 0.59031,-0.56129 0.59531,-0.74776 0.0179,-0.73074 -0.82853,-0.600526 -2.08308,0.32039 -0.84053,0.61697 -1.37161,0.85651 -1.48673,0.67024 -0.18247,-0.29523 0.22753,-0.6994 1.52756,-1.505329 0.40018,-0.24808 0.7276,-0.596827 0.7276,-0.775147 0,-0.709318 -0.60039,-0.612765 -1.83709,0.295073 -0.83428,0.612428 -1.36124,0.848833 -1.4764,0.662492 -0.185,-0.29933 0.18144,-0.652578 1.65985,-1.599386 0.92553,-0.592728 0.97882,-0.703864 0.61288,-1.282092 -0.0291,-0.046 -0.0712,-0.077 -0.12713,-0.0925 z m 33.518373,0.159163 c 7.39542,0.003 14.80715,1.693438 21.75681,5.070487 5.76548,2.80161 9.54162,5.57852 14.32213,10.53218 3.57914,3.70882 5.90578,6.9633 8.26719,11.56363 2.03077,3.95616 3.18305,7.00165 4.15375,10.98021 2.29543,9.40797 1.78296,19.28703 -1.48259,28.575 -1.15878,3.29579 -4.15559,9.03429 -6.28334,12.03131 -1.97408,2.78057 -6.58355,7.69301 -9.28522,9.89603 -7.55726,6.16244 -17.18302,10.06271 -27.15442,11.00295 -8.698023,0.82017 -17.610043,-0.82632 -25.758633,-4.75888 -14.43641,-6.96712 -24.39589,-19.86164 -27.604,-35.73839 -0.53337,-2.63966 -0.60978,-3.79263 -0.60978,-9.23406 0,-5.44144 0.0764,-6.5944 0.60978,-9.23406 3.19778,-15.82568 13.01425,-28.58896 27.40815,-35.63555 6.88534,-3.370776 14.26478,-5.054217 21.660173,-5.050857 z m 43.80405,0.908472 c 0.70019,0.626816 1.3904,1.270133 2.06964,1.930115 9e-5,8.6e-5 -9e-5,4.31e-4 0,5.17e-4 -0.67941,-0.66015 -1.36926,-1.303665 -2.06964,-1.930632 z m -82.347433,2.591575 c -0.28757,-0.0494 -0.71027,0.27489 -1.86397,1.28777 -0.95302,0.83671 -1.73271,1.58742 -1.73271,1.66812 0,0.0807 0.66652,0.90571 1.48105,1.83348 l 1.48104,1.68672 1.52342,-1.31982 c 2.11524,-1.83246 2.26797,-2.03846 1.86811,-2.52026 -0.27979,-0.33712 -0.52169,-0.2249 -1.71101,0.79117 -1.75896,1.50272 -2.13417,1.21859 -0.53485,-0.40514 0.97558,-0.99047 1.14133,-1.28669 0.85421,-1.52498 -0.27572,-0.22882 -0.62268,-0.0618 -1.53479,0.73898 -0.64817,0.56905 -1.26752,1.03993 -1.37666,1.04593 -0.4904,0.0279 -0.10367,-0.59433 1.00407,-1.61541 1.0676,-0.98408 1.15809,-1.15289 0.80667,-1.5043 -0.0879,-0.0879 -0.16873,-0.14579 -0.26458,-0.16226 z m 76.876443,0.11834 c -0.64115,0 -2.68562,2.15078 -2.68562,2.82515 0,0.66135 0.52315,1.31288 2.07532,2.58382 1.3921,1.13986 1.84069,1.16855 2.78795,0.17983 l 0.72915,-0.76067 -1.22008,-1.00046 c -0.91543,-0.75011 -1.29605,-0.92448 -1.5229,-0.69763 -0.22685,0.22685 -0.14612,0.46861 0.32246,0.96738 0.43086,0.45863 0.50745,0.66489 0.24753,0.66404 -0.56672,-0.002 -2.13317,-1.57335 -1.92857,-1.93476 0.39699,-0.70125 0.99573,-1.2392 1.37976,-1.2392 0.48219,0 1.89188,1.28804 1.89188,1.72857 0,0.1685 0.21563,0.50168 0.47956,0.74053 0.54096,0.48957 1.10794,0.16145 1.10794,-0.64131 0,-0.56963 -3.05321,-3.41529 -3.66438,-3.41529 z m -37.83593,2.64945 c -0.0945,0.002 -0.90593,0.9924 -1.80351,2.2009 -5.635733,7.5879 -10.680013,17.8524 -14.648723,29.81006 l -2.06344,6.21771 -1.54357,0.89348 c -7.20066,4.16645 -11.53206,7.12236 -13.98778,9.54619 -2.96726,2.92876 -3.17632,4.77541 -0.67179,5.93401 1.08904,0.50379 1.6327,0.55517 5.44308,0.51366 2.3283,-0.0254 4.86865,-0.15778 5.64513,-0.29456 l 1.4118,-0.24908 -0.15348,0.82424 c -0.96388,5.17714 -2.10186,14.55928 -2.68304,22.12268 -0.10807,1.40581 -0.0793,2.14977 0.076,1.98438 0.13665,-0.14552 1.17897,-1.57428 2.31665,-3.175 11.58272,-16.29697 24.303633,-26.85521 32.356163,-26.85521 1.20151,0 1.44774,0.11275 2.69545,1.23455 3.19314,2.87093 7.38158,10.82077 11.51557,21.85758 0.69638,1.85918 1.30174,3.34453 1.34514,3.30109 0.0434,-0.0434 -0.0976,-2.1002 -0.31316,-4.57078 -0.71822,-8.2319 -2.21961,-17.38846 -4.22506,-25.76638 -0.50183,-2.09642 -0.88126,-3.83807 -0.84336,-3.87057 0.0379,-0.0325 0.72359,-0.3857 1.52394,-0.78496 0.80035,-0.39927 2.24972,-1.18771 3.22099,-1.75184 0.97128,-0.56412 1.83443,-1.02577 1.91823,-1.02577 0.0838,0 0.15244,0.22527 0.15244,0.50074 0,0.27547 0.20836,0.58426 0.46302,0.68575 1.15543,0.46046 10.20636,3.57601 10.38852,3.57601 0.11235,0 0.26986,-0.17033 0.34985,-0.37879 0.10215,-0.26619 -0.3816,-0.62522 -1.62523,-1.20613 -4.15335,-1.94007 -7.04024,-4.22583 -7.8822,-6.24096 -1.27336,-3.04759 0.64806,-6.28489 3.73,-6.28489 2.96659,0 4.91811,3.17685 3.71709,6.05131 -0.75302,1.80222 -2.69164,1.6884 -4.29121,-0.25218 -0.66492,-0.80667 -0.85109,-0.90668 -1.1095,-0.59531 -0.24568,0.29602 -0.10255,0.7691 0.68627,2.26549 0.82784,1.57042 1.08716,1.8668 1.52652,1.74512 0.29104,-0.0806 1.4419,-0.33687 2.55746,-0.56896 l 2.0283,-0.42168 0.15865,-2.54662 c 0.0872,-1.40056 0.21567,-3.15937 0.28577,-3.90828 l 0.12713,-1.36168 -2.61845,-1.4826 c -1.44017,-0.81542 -2.70784,-1.48259 -2.8174,-1.48259 -0.10956,0 -1.62111,0.91217 -3.35897,2.02675 l -3.16001,2.02623 0.15193,1.3472 c 0.0834,0.74081 0.22708,2.19289 0.31988,3.2272 l 0.16898,1.8805 -3.00705,1.24334 c -1.65386,0.68361 -3.27085,1.35062 -3.59307,1.4826 -0.32223,0.13197 -0.63398,0.15532 -0.69298,0.0517 -0.0589,-0.10365 -0.49207,-1.49831 -0.96273,-3.09903 -2.44725,-8.32319 -6.61095,-18.24988 -10.54303,-25.13542 -2.45239,-4.29448 -7.20586,-11.25117 -7.68118,-11.24117 z m -0.0103,1.3193 c 0.29345,0 2.94674,3.70864 5.06481,7.07915 4.75419,7.56542 10.08547,19.86273 12.84159,29.62145 0.53684,1.90094 0.53682,1.90853 0.0129,2.07481 -0.28917,0.0918 -0.55884,0.12615 -0.59944,0.0765 -0.0405,-0.0497 -0.75652,-2.23357 -1.59112,-4.85294 -2.97808,-9.34661 -6.76946,-17.99321 -10.90786,-24.87703 -2.29773,-3.82201 -4.49398,-7.00526 -4.8333,-7.00526 -0.33315,0 -4.227263,6.07662 -6.070953,9.47332 -4.88072,8.99204 -8.91862,19.86022 -11.88609,31.99082 -1.42813,5.83796 -1.53851,6.15751 -2.12287,6.15931 -0.72379,0.002 -0.77683,0.41862 0.77721,-6.08387 3.27828,-13.7168 8.342,-26.63833 14.32626,-36.55849 1.91539,-3.17515 4.672293,-7.09775 4.988843,-7.09775 z m 42.89196,0.49506 c -0.27747,-0.10872 -0.62612,0.21505 -1.82159,1.39991 -1.57629,1.56228 -1.64062,1.67509 -1.2237,2.13579 0.4216,0.46585 0.51029,0.41656 2.10426,-1.16324 1.57631,-1.56228 1.64063,-1.67458 1.2237,-2.13527 -0.1054,-0.11647 -0.19018,-0.20095 -0.28267,-0.23719 z m -94.669163,0.42943 c -1.54514,1.86747 -2.95759,3.78261 -4.19974,5.70973 1.24215,-1.92713 2.65461,-3.84225 4.19974,-5.70973 z m 6.44199,0.99735 c -0.2912,-0.0927 -0.49653,0.0443 -0.76171,0.36381 -0.31658,0.38145 -0.15651,0.61999 1.3348,1.99161 0.93187,0.85708 1.77777,1.52506 1.87999,1.48466 0.10222,-0.0404 0.81523,-0.76483 1.5844,-1.61024 1.31719,-1.44777 1.37211,-1.56311 0.94619,-1.98437 -0.42521,-0.42058 -0.51597,-0.37909 -1.52755,0.70073 l -1.07591,1.14877 -1.10277,-1.08263 c -0.60901,-0.59768 -0.98624,-0.91968 -1.27744,-1.01234 z m 89.888573,0.16899 -1.79886,1.49913 c -1.72228,1.43524 -1.78017,1.52012 -1.34927,1.99626 0.49004,0.54149 0.59056,0.5023 2.02106,-0.79117 0.39867,-0.36048 0.77903,-0.60125 0.84543,-0.53485 0.0664,0.0663 -0.0917,0.95082 -0.3514,1.96525 l -0.47232,1.84434 0.68471,0.80925 0.68523,0.80874 1.77509,-1.42524 c 1.58272,-1.27092 1.74076,-1.48011 1.45779,-1.93322 -0.42111,-0.6743 -0.48965,-0.65855 -1.77767,0.41755 -0.60962,0.50931 -1.14154,0.92604 -1.18184,0.92604 -0.0403,0 0.13283,-0.88723 0.38499,-1.97197 l 0.45889,-1.97249 -0.69092,-0.81907 z m -91.491583,1.56217 c -0.27046,0.0401 -0.66461,0.45653 -1.47949,1.49345 -0.74412,0.94688 -1.35289,1.83218 -1.35289,1.96732 0,0.13514 0.74416,0.8438 1.65364,1.5751 0.90951,0.73128 1.71443,1.33772 1.78853,1.34772 0.0741,0.01 0.2972,-0.24273 0.49609,-0.5612 0.32297,-0.51716 0.29846,-0.63074 -0.23151,-1.05989 l -0.59325,-0.48059 0.98651,-1.20406 c 0.93017,-1.13514 0.9591,-1.22463 0.50384,-1.55753 -0.43158,-0.31558 -0.57918,-0.22944 -1.38803,0.80874 -0.49791,0.63909 -0.98857,1.16168 -1.09037,1.16168 -0.53937,0 -0.4215,-0.44844 0.40049,-1.52497 1.02768,-1.34591 1.06122,-1.46282 0.54674,-1.8898 -0.0736,-0.0611 -0.15014,-0.0893 -0.2403,-0.076 z m 58.766443,2.98225 c -0.27686,0.009 -0.56427,0.17112 -0.75396,0.52555 -0.21841,0.40814 -0.20948,0.64543 0.0341,0.93896 0.49043,0.59093 1.41426,0.34958 1.5198,-0.39688 0.0945,-0.66808 -0.33851,-1.08185 -0.79995,-1.06763 z m 37.28868,1.30224 c -0.11226,0 -1.02896,0.54851 -2.03657,1.21854 l -1.83192,1.21801 1.37252,2.0655 c 1.1334,1.70617 1.44109,2.01391 1.76889,1.76734 0.21828,-0.16418 0.43794,-0.32402 0.48834,-0.35502 0.0504,-0.031 -0.25683,-0.57072 -0.68265,-1.19941 -1.11657,-1.64849 -1.16363,-1.75152 -0.8847,-1.92391 0.13885,-0.0858 0.63616,0.41218 1.10536,1.10639 0.4692,0.69422 0.89016,1.30871 0.93586,1.36581 0.0457,0.0571 0.26214,-0.0445 0.48059,-0.22583 0.34712,-0.28808 0.30333,-0.4679 -0.34571,-1.42678 -1.12787,-1.6663 -1.16695,-1.75855 -0.74363,-1.75855 0.2117,0 0.76598,0.5934 1.23145,1.31878 0.72859,1.13545 0.91641,1.28156 1.35186,1.04852 0.4794,-0.25657 0.45527,-0.34954 -0.46096,-1.78181 -0.53169,-0.83114 -1.09668,-1.71989 -1.25573,-1.97455 -0.15905,-0.25468 -0.38074,-0.46303 -0.493,-0.46303 z m -99.482303,0.52917 c -0.46481,0 -1.14108,0.76516 -2.39882,2.71405 l -0.98288,1.5229 1.78955,1.17719 c 0.98438,0.64761 1.91034,1.18307 2.05724,1.18907 0.14689,0.006 0.41368,-0.22281 0.59273,-0.50952 0.27652,-0.44278 0.24622,-0.56402 -0.19947,-0.80254 -0.51342,-0.27478 -0.50987,-0.30329 0.17001,-1.33067 0.74628,-1.12769 0.81973,-1.16953 1.4056,-0.79891 0.2731,0.17275 0.4959,0.0838 0.76998,-0.30748 0.34517,-0.4928 0.33444,-0.58797 -0.10387,-0.90847 -0.2693,-0.19692 -0.63669,-0.35812 -0.81597,-0.35812 -0.17927,0 -0.68275,-0.35719 -1.11931,-0.79375 -0.43656,-0.43656 -0.96068,-0.79375 -1.16479,-0.79375 z m 33.36024,0.076 c -0.19994,-0.0282 -0.41452,-0.0183 -0.63975,0.0382 -1.33413,0.33484 -1.73511,1.92824 -0.73639,2.92695 0.4175,0.41749 1.60909,0.52823 2.10685,0.19586 1.35363,-0.90385 0.66885,-2.96327 -0.73071,-3.16105 z m 37.669023,0.48008 c -0.32188,-0.0196 -0.66034,0.14748 -0.98237,0.50332 -0.3965,0.43812 -0.42742,0.64498 -0.1788,1.19063 0.22304,0.48953 0.5052,0.66042 1.09089,0.66042 1.08147,0 1.54191,-0.83922 0.95343,-1.73736 -0.2562,-0.39101 -0.56127,-0.59744 -0.88315,-0.61701 z m -70.951233,1.03146 c 0.5596,0 0.53182,0.77859 -0.0599,1.69188 -0.6741,1.04032 -0.81727,1.11376 -1.21233,0.62322 -0.29223,-0.36286 0.78069,-2.3151 1.27227,-2.3151 z m 25.08685,1.39888 c -0.18134,-0.035 -0.38932,-0.0264 -0.61805,0.031 -0.78458,0.19693 -1.16057,1.28495 -0.65475,1.89446 0.20457,0.24649 0.65952,0.37531 1.15394,0.32711 0.69745,-0.0681 0.82797,-0.19811 0.89607,-0.89556 0.0736,-0.75438 -0.23319,-1.25215 -0.77721,-1.35702 z m 77.671223,1.55753 c -0.0723,-0.0974 -4.08088,2.0701 -4.08088,2.20658 0,0.0484 0.48634,0.99033 1.08107,2.0929 1.0152,1.88212 1.57142,2.37141 1.9668,1.73167 0.0927,-0.15001 -0.19605,-0.91793 -0.6413,-1.70687 -0.51042,-0.90438 -0.70712,-1.49803 -0.53227,-1.6061 0.33091,-0.20451 0.25543,-0.28793 1.15497,1.27072 0.39892,0.69123 0.82567,1.25677 0.94878,1.25677 0.53604,0 0.4928,-0.59943 -0.13229,-1.83296 -0.77307,-1.52562 -0.7896,-1.60662 -0.32918,-1.60662 0.18796,0 0.66503,0.6589 1.05988,1.46399 0.63532,1.2954 0.77687,1.43216 1.233,1.18804 0.49294,-0.26381 0.46802,-0.3654 -0.57464,-2.32389 -0.59963,-1.12632 -1.11874,-2.08683 -1.15394,-2.13423 z m -35.30172,0.74775 c -0.24594,0 -0.66314,0.23857 -0.92707,0.5302 -0.39649,0.43812 -0.42742,0.64498 -0.1788,1.19063 0.22486,0.49352 0.50421,0.66042 1.10587,0.66042 1.10709,0 1.63978,-1.06353 0.92708,-1.85105 -0.26392,-0.29163 -0.68115,-0.5302 -0.92708,-0.5302 z m -69.807623,1.85209 c -2.53299,0 -2.61166,0.0182 -2.91042,0.67386 -0.44298,0.97224 -0.43729,0.98821 1.04852,3.02462 0.74546,1.02173 1.44084,1.85777 1.54512,1.85777 0.36168,0 0.77486,-1.24568 0.50333,-1.51722 -0.38669,-0.38668 0.81574,-2.71612 1.40198,-2.71612 0.40155,0 1.01493,-0.70887 1.01493,-1.17305 0,-0.0823 -1.17162,-0.14986 -2.60346,-0.14986 z m -1.91927,1.32291 h 0.80616 c 0.44335,0 0.80615,0.0962 0.80615,0.21394 0,0.11771 -0.14883,0.40939 -0.33073,0.64803 -0.29946,0.39287 -0.37572,0.3727 -0.80615,-0.21394 z m 36.52181,0.004 c -1.58954,-0.01 -2.31972,1.65368 -1.21233,2.76108 1.02103,1.02101 2.32719,0.7672 2.82773,-0.54932 0.42729,-1.12385 -0.36154,-2.20476 -1.6154,-2.21176 z m 40.893623,0.52504 c -1.05615,0 -1.61548,1.32181 -0.87333,2.06395 0.43944,0.43941 1.15279,0.397 1.64796,-0.0982 0.79915,-0.79914 0.33957,-1.96577 -0.77463,-1.96577 z m -51.547753,0.39687 -0.50282,1.71979 c -0.83956,2.87214 -0.7295,2.75047 -2.9533,3.27474 -1.10928,0.26152 -1.96295,0.56255 -1.89705,0.66921 0.0659,0.10666 1.00814,0.41498 2.09342,0.68523 l 1.973,0.49144 0.5917,2.20245 c 0.32549,1.21122 0.61765,2.20193 0.64905,2.20193 0.0314,0 0.32356,-0.99071 0.64906,-2.20193 l 0.5917,-2.20245 1.973,-0.49144 c 1.08527,-0.27025 2.02548,-0.57576 2.08928,-0.67903 0.0638,-0.10328 -0.80568,-0.41424 -1.93218,-0.69091 -2.27453,-0.55863 -2.0682,-0.29887 -3.00499,-3.7884 z m 28.738293,0.35657 3.0701,1.24488 c 3.40114,1.37903 3.77503,1.60478 3.09283,1.86656 -0.28006,0.10748 -1.52561,-0.25626 -3.15277,-0.92036 -1.47953,-0.60385 -2.8399,-1.09702 -3.02256,-1.09502 -0.18267,0.002 -1.47615,0.47884 -2.874763,1.06091 -2.65288,1.1041 -3.14321,1.22166 -3.39617,0.81236 -0.19491,-0.31537 -0.27732,-0.27191 3.26801,-1.72961 z m 55.04005,0.30489 c -0.36042,0 -3.54393,1.31674 -3.87831,1.60404 -0.12267,0.10536 -0.0881,0.44389 0.077,0.75241 0.24274,0.45354 0.39839,0.50835 0.81235,0.2868 0.44268,-0.23692 0.56625,-0.14348 0.91467,0.6904 0.50116,1.19947 0.50264,1.42861 0.0103,1.79679 -0.24643,0.18428 -0.33338,0.51537 -0.23358,0.88883 0.20141,0.75402 0.495,0.75141 1.25936,-0.0129 0.33484,-0.33487 0.75091,-0.56133 0.925,-0.50333 0.57453,0.19151 1.59676,-0.208 1.87844,-0.73432 0.21698,-0.40543 0.0897,-0.97791 -0.58756,-2.64273 -0.4755,-1.16884 -1.00534,-2.12545 -1.17771,-2.12545 z M 45.217147,124.2152 c -0.44393,-0.11609 -0.65879,0.21368 -1.47537,2.26446 -0.71992,1.80792 -0.87481,2.45158 -0.62838,2.60811 0.502,0.31884 0.98857,0.25481 0.98857,-0.13023 0,-0.19047 0.15195,-0.55402 0.33745,-0.8077 0.31856,-0.43567 0.42139,-0.42854 1.85725,0.12092 1.64878,0.63096 1.62795,0.633 1.87999,-0.18861 0.15084,-0.49171 -0.0253,-0.6346 -1.43609,-1.16221 -1.26587,-0.4734 -1.5697,-0.69185 -1.42782,-1.02681 0.44886,-1.05967 0.42111,-1.54281 -0.0956,-1.67793 z m 111.147733,0.59479 c 0.25172,-0.005 0.97876,1.65654 0.97876,2.23656 0,0.82295 -0.8344,0.37225 -1.32034,-0.71313 -0.48267,-1.07807 -0.38601,-1.50953 0.34158,-1.52343 z m -54.52018,0.55553 2.68045,1.08727 c 1.47403,0.59777 2.82288,1.21574 2.99775,1.37356 0.3587,0.32369 2.46125,5.2633 2.45825,5.77587 -9.7e-4,0.18267 -0.51027,1.56351 -1.13223,3.06907 l -1.1312,2.73781 -2.76262,1.16479 c -1.51944,0.64087 -2.9444,1.15688 -3.16673,1.14618 -0.44445,-0.0214 -5.320863,-2.03473 -5.613613,-2.31769 -0.10042,-0.0971 -0.71004,-1.43644 -1.35444,-2.97656 l -1.1715,-2.80034 1.19217,-2.9161 1.19218,-2.91662 2.90576,-1.21337 z m 26.24232,0.8015 c -0.50062,-0.0734 -1.0564,0.17647 -1.27692,0.80615 -0.17794,0.50804 -0.1509,0.82993 0.0935,1.12448 0.71774,0.86483 2.12959,0.33551 2.12959,-0.7984 0,-0.66202 -0.44558,-1.05881 -0.9462,-1.13223 z m -33.931263,0.99684 c 0.0383,-5.4e-4 0.074,0.0142 0.10852,0.0429 0.36878,0.30606 0.26803,0.64203 -1.33532,4.4514 -0.37002,0.87914 -0.67282,1.76306 -0.67282,1.96423 0,0.20117 0.52796,1.62544 1.17305,3.16518 0.97879,2.3362 1.11196,2.84988 0.80615,3.10368 -0.29372,0.24377 -0.43873,0.12951 -0.73019,-0.57722 -0.19998,-0.48497 -0.81043,-1.96493 -1.3565,-3.28869 l -0.99271,-2.40709 1.38028,-3.35018 c 0.95814,-2.32594 1.35123,-3.10041 1.61954,-3.1042 z m 15.425933,0.0491 c 0.24983,-0.0694 0.6143,0.64286 1.61489,3.03547 l 1.39837,3.34398 -1.34152,3.27991 c -0.73797,1.80385 -1.4377,3.27938 -1.55495,3.27938 -0.59206,0 -0.43823,-0.79517 0.6842,-3.53673 l 1.22835,-3.00085 -1.22422,-2.9714 c -0.98234,-2.38339 -1.16162,-3.04732 -0.9064,-3.35483 0.0325,-0.0392 0.0656,-0.0645 0.10128,-0.0744 z m -7.80004,0.15865 c -0.14545,-0.0784 -0.26573,0.35576 -0.26923,1.35237 -0.005,1.61253 -0.32531,2.15463 -0.73794,1.24902 -0.46621,-1.0233 -0.845713,-0.82547 -0.54002,0.28163 0.14443,0.52296 0.21963,0.99383 0.16743,1.04593 -0.0521,0.0521 -0.640523,-0.3715 -1.307413,-0.94154 -0.66688,-0.57003 -1.28303,-0.96593 -1.36943,-0.87953 -0.0864,0.0864 0.28177,0.69225 0.81804,1.34668 l 0.97513,1.19011 -1.1839,-0.18035 -1.18339,-0.18035 0.66146,0.53795 c 0.3638,0.29596 0.75766,0.54096 0.87539,0.54416 0.1177,0.003 0.1405,0.12474 0.0507,0.27026 -0.0899,0.14552 -0.86386,0.26459 -1.71979,0.26459 -2.24915,0 -2.21162,0.4618 0.0558,0.68523 1.55777,0.1535 1.82886,0.24374 1.43815,0.47955 -1.35326,0.81675 -1.4019,0.98234 -0.23719,0.80874 0.61847,-0.0921 1.12448,-0.0881 1.12448,0.009 0,0.0974 -0.43124,0.70322 -0.95809,1.34617 -1.1016,1.34437 -0.89507,1.52611 0.43874,0.38603 1.164633,-0.99543 1.397543,-0.99766 1.180803,-0.0109 -0.212223,0.96624 0.17529,1.0409 0.66405,0.12764 0.48568,-0.90752 0.78203,-0.38335 0.78703,1.39372 0.002,0.76398 0.10761,1.38906 0.23409,1.38906 0.24864,0 0.55344,-1.4979 0.56534,-2.77812 l 0.007,-0.79375 0.55087,0.85989 c 0.30288,0.47294 0.60876,0.8599 0.68006,0.8599 0.0713,0 0.0449,-0.50265 -0.0589,-1.11725 l -0.18862,-1.11776 1.23817,1.01493 c 0.68111,0.55811 1.30486,0.9487 1.38596,0.86764 0.0811,-0.0811 -0.31112,-0.70702 -0.87127,-1.39061 -0.87916,-1.07292 -0.93736,-1.2196 -0.42633,-1.0728 0.32559,0.0935 0.82983,0.23782 1.12087,0.32039 0.84133,0.23869 0.61341,-0.35621 -0.33073,-0.86299 l -0.8599,-0.46147 1.91823,-0.23152 c 2.31589,-0.2798 2.52578,-0.71106 0.34623,-0.71106 -1.73431,0 -2.20131,-0.29211 -1.19786,-0.74931 0.8271,-0.37687 0.87327,-0.93718 0.0579,-0.7028 -1.59376,0.45811 -1.59229,0.45813 -1.37304,0.0915 0.11809,-0.19749 0.56978,-0.8057 1.00355,-1.35134 1.0476,-1.31782 0.78478,-1.47423 -0.55293,-0.32918 -0.59398,0.50843 -1.14267,0.92449 -1.21957,0.92449 -0.0764,0 -0.0793,-0.44649 -0.005,-0.99219 0.11585,-0.85597 0.0864,-0.93158 -0.21497,-0.5519 -0.19215,0.24206 -0.47998,0.65668 -0.63975,0.92139 -0.23581,0.39071 -0.32606,0.12016 -0.47956,-1.43764 -0.10389,-1.05432 -0.27468,-1.64555 -0.42013,-1.72392 z m 18.97662,0.8909 c -0.48098,-0.009 -0.97442,0.13056 -1.29553,0.42116 -0.63841,0.57775 -0.61564,1.81109 0.0455,2.4722 0.29105,0.29104 0.82682,0.52917 1.19062,0.52917 1.42539,0 2.24569,-1.89062 1.2821,-2.95538 -0.27281,-0.30146 -0.74169,-0.45836 -1.22267,-0.46715 z m 37.86694,1.31878 c -0.43241,0.017 -0.88147,0.15438 -1.13016,0.40308 -0.5087,0.50865 -0.50922,0.51657 -0.0222,2.12183 0.47684,1.57179 0.49896,2.03734 0.0904,1.90118 -0.4449,-0.1483 -1.06307,-2.07417 -0.77928,-2.42776 0.25812,-0.32163 -0.0841,-1.48208 -0.43718,-1.48208 -0.43727,0 -0.85525,0.64922 -0.85525,1.3286 0,0.92792 0.7651,3.18456 1.28158,3.77961 0.46189,0.53216 1.48051,0.42346 2.14715,-0.22944 0.33861,-0.33163 0.32879,-0.59503 -0.0801,-2.12959 -0.44585,-1.67308 -0.42418,-2.33801 0.0589,-1.80557 0.36314,0.40023 0.83227,2.00632 0.66507,2.27686 -0.0844,0.13708 -0.0804,0.54302 0.01,0.90176 0.1392,0.55462 0.24234,0.61044 0.68678,0.37258 0.32854,-0.17582 0.52245,-0.55353 0.52245,-1.01699 0,-0.8118 -0.71882,-3.15461 -1.1281,-3.67626 -0.18182,-0.23176 -0.5975,-0.33482 -1.02991,-0.31781 z m -115.269503,0.51627 c -0.83201,0 -1.26234,0.61034 -1.78129,2.52749 -0.53345,1.97076 -0.40278,2.44887 0.77567,2.84169 0.98073,0.32691 1.52916,-0.2071 2.11253,-2.05775 0.41596,-1.31955 0.96467,-1.96396 0.96067,-1.12862 -0.003,0.71142 -0.56666,2.31511 -0.81339,2.31511 -0.41175,0 -0.7542,1.15915 -0.40876,1.38492 0.90237,0.58977 1.52459,-0.19457 2.20193,-2.77709 0.51901,-1.97879 0.3726,-2.37273 -1.00666,-2.71043 -0.92522,-0.22654 -1.41945,0.31237 -1.94458,2.11874 -0.23264,0.80026 -0.55186,1.45469 -0.70952,1.45469 -0.3973,0 -0.0338,-1.90379 0.43253,-2.26498 0.19948,-0.15451 0.44286,-0.601 0.54106,-0.99219 0.14998,-0.59759 0.0926,-0.71158 -0.36019,-0.71158 z m 90.840973,0 c 0.0728,0 1.19811,0.60612 2.50062,1.34669 l 2.36781,1.34669 -0.15916,3.08508 c -0.0878,1.6969 -0.24986,3.33061 -0.36018,3.63027 -0.15504,0.42114 -0.59483,0.61717 -1.93735,0.86454 -0.95526,0.17602 -1.89445,0.38047 -2.0867,0.45424 -0.2188,0.084 -0.5701,-0.32024 -0.93947,-1.08055 l -0.59015,-1.2144 0.88987,0.67851 c 1.1196,0.85396 2.83559,0.93162 3.60391,0.1633 1.38974,-1.38974 1.31851,-4.47403 -0.14056,-6.08904 -1.17887,-1.30486 -2.15521,-1.69136 -3.90622,-1.54615 -4.03482,0.33459 -5.47375,4.86929 -2.69958,8.50645 0.91135,1.19483 2.57392,2.43136 5.17282,3.84731 1.09139,0.59463 1.86531,1.07526 1.71979,1.06816 -0.31107,-0.0153 -8.41461,-2.89888 -8.57829,-3.05253 -0.0613,-0.0575 -0.26678,-1.91799 -0.45682,-4.13463 -0.27287,-3.18315 -0.27709,-4.09145 -0.0207,-4.32067 0.42007,-0.37547 5.44646,-3.55327 5.62033,-3.55327 z m -67.554533,4.33617 c -0.1443,0.008 -0.29481,0.0442 -0.44856,0.1142 -0.80425,0.36644 -0.92868,1.7171 -0.1974,2.14303 0.65315,0.38042 1.0239,0.34862 1.50223,-0.12971 0.84579,-0.84578 0.15386,-2.18215 -0.85627,-2.12752 z m -30.92163,4.62762 c -0.26833,2.05072 -0.40269,5.14994 -0.40308,8.25066 3.7e-4,-3.1005 0.13481,-6.19992 0.40308,-8.25066 z m 60.19167,2.07171 c 0.45923,0.0383 1.41121,0.35942 2.99104,1.00201 l 3.012733,1.22525 2.8944,-1.21233 c 2.41445,-1.01157 2.9531,-1.15415 3.24786,-0.85938 0.29477,0.29476 -0.0321,0.51152 -1.9699,1.30844 -1.2777,0.52545 -2.74178,1.13307 -3.25355,1.34979 -0.90705,0.38412 -1.01001,0.36114 -4.085023,-0.9126 -1.73496,-0.71865 -3.21317,-1.36573 -3.28507,-1.43764 -0.0719,-0.0719 -0.006,-0.25578 0.14727,-0.40876 0.0486,-0.0486 0.14717,-0.0675 0.30024,-0.0548 z m -33.1065,1.71463 c -0.58879,0.0842 -0.87092,0.74144 -0.6103,1.42058 0.18845,0.49114 1.06465,0.49252 1.47174,0.002 0.46875,-0.56481 -0.11531,-1.52885 -0.86144,-1.42213 z m 60.536873,0.27181 c 0.065,0.078 -1.09035,0.70891 -3.23649,1.73013 -11.45518,5.45082 -28.065073,10.48729 -40.814573,12.37547 -3.45442,0.5116 -9.01052,0.71522 -10.55181,0.38706 -1.2708,-0.27057 -2.36375,-0.88465 -2.58072,-1.45004 -0.46223,-1.20455 2.59622,-4.41713 7.13031,-7.48998 3.3013,-2.23736 9.16205,-5.71302 9.33742,-5.53765 0.11038,0.11038 -1.38257,5.51155 -1.55339,5.61981 -3.57655,2.26686 -6.01514,4.45873 -6.01514,5.40639 0,2.09235 5.55455,1.74841 16.80104,-1.03973 8.769353,-2.17403 22.638653,-6.57054 29.998173,-9.5095 0.96746,-0.38634 1.44617,-0.53878 1.48518,-0.49196 z m -2.73368,2.48306 c 0.33128,0.0511 0.55914,0.90522 1.25677,3.84731 1.63041,6.87591 3.37417,17.0787 3.86023,22.58415 l 0.16329,1.85208 -1.68723,-3.96875 c -3.78633,-8.90598 -7.52216,-15.17156 -10.13633,-16.99948 -1.48968,-1.04162 -2.73971,-1.11415 -5.78466,-0.33538 -7.53822,1.92795 -17.708993,10.64129 -27.338393,23.42028 -1.53514,2.03728 -2.8918,3.81758 -3.0148,3.95583 -0.12643,0.14208 -0.22162,-0.20301 -0.21962,-0.79375 0.006,-1.53497 0.93959,-10.0046 1.57303,-14.2751 0.99037,-6.67682 1.05358,-6.94498 1.67535,-7.10758 0.30851,-0.0807 0.60572,-0.10226 0.66042,-0.0475 0.0547,0.0547 -0.20578,1.98494 -0.57877,4.28915 -0.77354,4.77863 -1.81228,12.9884 -1.68982,13.35577 0.0451,0.13526 1.44956,-1.45422 3.12125,-3.53208 6.94313,-8.63006 14.77762,-15.6532 20.898993,-18.73478 4.21485,-2.12181 8.44432,-2.91187 10.47016,-1.95647 2.27851,1.07457 5.1022,4.79221 8.01915,10.55905 0.88326,1.74624 1.6083,2.98296 1.6123,2.74815 0.0132,-0.86765 -1.62926,-9.44355 -2.64893,-13.83068 -0.98107,-4.22101 -1.02167,-4.55043 -0.59945,-4.8612 0.15475,-0.1139 0.27663,-0.18601 0.38706,-0.16898 z m 36.61792,1.31154 0.82837,1.4671 0.82786,1.46657 -0.76998,1.23662 c -0.42331,0.6801 -0.76946,1.30645 -0.76946,1.39165 0,0.0852 0.62324,-0.20465 1.38492,-0.64441 l 1.38493,-0.79995 1.43867,0.82321 1.43868,0.8232 -0.82321,-1.43867 -0.82321,-1.43867 0.83148,-1.44074 0.83199,-1.44022 -1.44384,0.81442 -1.44332,0.81494 -1.44694,-0.81753 z m -117.417643,0.12196 c -0.10536,-0.003 0.16252,0.59563 0.59531,1.32963 0.43278,0.73401 0.78703,1.38338 0.78703,1.44333 0,0.06 -0.35425,0.70983 -0.78703,1.44384 -0.43279,0.734 -0.73543,1.33428 -0.67283,1.33428 0.0626,0 0.69983,-0.34537 1.41645,-0.76791 l 1.30328,-0.76843 1.35444,0.7736 c 0.74499,0.42548 1.35444,0.69939 1.35444,0.60875 0,-0.0906 -0.31862,-0.73155 -0.70796,-1.42421 l -0.70797,-1.25935 0.70797,-1.20768 c 0.38934,-0.66439 0.70796,-1.28482 0.70796,-1.37873 0,-0.0939 -0.62508,0.18173 -1.38906,0.61289 l -1.38906,0.78393 -1.19063,-0.75965 c -0.65484,-0.41773 -1.27697,-0.76159 -1.38234,-0.76429 z m 41.29308,2.77657 c 0.056,0.0568 -0.11573,1.17978 -0.38188,2.49649 l -0.4837,2.39469 -1.8619,-0.004 c -2.42595,-0.005 -2.8326,-0.24511 -2.10013,-1.23972 0.55078,-0.74789 4.63865,-3.8368 4.82761,-3.64784 z m 45.691793,2.55592 c -0.27293,-0.0443 -0.55734,0.0143 -0.80719,0.22169 -0.47374,0.39321 -0.51454,1.35766 -0.076,1.79628 0.43862,0.43861 1.40306,0.39781 1.79627,-0.076 0.62206,-0.74954 -0.0943,-1.80902 -0.91312,-1.94201 z m 3.42976,3.65818 c -0.30559,0 -0.6987,0.14318 -0.87333,0.31781 -0.17462,0.17462 -0.31729,0.56722 -0.31729,0.87281 0,0.30559 0.14267,0.69871 0.31729,0.87333 0.17463,0.17463 0.56774,0.3173 0.87333,0.3173 0.30559,0 0.6982,-0.14267 0.87282,-0.3173 0.17463,-0.17462 0.31781,-0.56774 0.31781,-0.87333 0,-0.30559 -0.14318,-0.69819 -0.31781,-0.87281 -0.17462,-0.17463 -0.56723,-0.31781 -0.87282,-0.31781 z m -22.37227,3.49952 c -0.28603,0.0257 -0.584,0.15663 -0.8506,0.42323 -0.47182,0.47182 -0.50763,0.65151 -0.24598,1.22577 0.39443,0.86567 1.73905,0.94802 2.17506,0.13332 0.52982,-0.98998 -0.2204,-1.85947 -1.07848,-1.78232 z m 27.87271,0.25477 c -0.56941,0.11217 -0.99043,0.84342 -0.78858,1.36942 0.20505,0.53436 1.06696,0.56474 1.4919,0.0527 0.41088,-0.49508 -0.10584,-1.53983 -0.70332,-1.42213 z m -71.327943,1.93425 -0.42375,1.3162 c -0.37327,1.15922 -0.53937,1.34843 -1.39423,1.5875 -1.4188,0.39677 -1.43796,0.56517 -0.10129,0.90175 1.13558,0.28594 1.21432,0.36686 1.51309,1.55339 l 0.31523,1.25109 0.33744,-0.79117 c 0.18559,-0.43531 0.34234,-0.998 0.34934,-1.25057 0.008,-0.32076 0.37589,-0.55134 1.21956,-0.76377 1.31727,-0.3317 1.27748,-0.59249 -0.14521,-0.95498 -0.81573,-0.20785 -0.96415,-0.38498 -1.29553,-1.54203 z m 7.00319,0.18345 c -0.8669,0.10103 -1.38744,1.27273 -0.85215,1.91771 0.35893,0.43248 1.26789,0.54118 1.75183,0.20981 0.96876,-0.66335 0.29096,-2.26629 -0.89968,-2.12752 z m 66.124133,2.46755 c -0.34732,5.9e-4 -0.72771,0.15833 -0.92088,0.47335 -0.23493,0.38314 -0.19109,0.55454 0.22014,0.8599 0.28247,0.20976 0.59515,0.38137 0.69505,0.38137 0.36141,0 0.81711,-0.77901 0.72761,-1.24385 -0.0606,-0.31459 -0.3746,-0.47136 -0.72192,-0.47077 z m -99.915353,0.51831 c 0.84112,3.02531 1.88882,5.96568 3.12901,8.80412 1.01543,2.32405 2.1913,4.56001 3.45715,6.73809 -1.26593,-2.17818 -2.44167,-4.41393 -3.45715,-6.73809 -1.24018,-2.83844 -2.28789,-5.77881 -3.12901,-8.80412 z m 9.50588,1.89395 c -0.24874,0.0434 -0.6173,0.18418 -1.18494,0.43563 -2.15471,0.95446 -2.27547,1.1948 -1.55908,3.1104 0.32866,0.87885 0.84567,1.77156 1.14877,1.98386 0.58171,0.40745 0.89977,0.35688 2.76159,-0.44028 1.01173,-0.4332 1.10488,-0.54495 0.85059,-1.0201 -0.34156,-0.63819 -0.30562,-0.63519 -1.4981,-0.13694 -1.33955,0.5597 -1.60934,0.50546 -2.08825,-0.42064 -0.56277,-1.08831 -0.38662,-1.41774 1.0511,-1.96681 1.20448,-0.46 1.40061,-0.73924 0.98289,-1.39785 -0.087,-0.13717 -0.21584,-0.19069 -0.46457,-0.14727 z m 53.791033,0.40772 c -1.331593,-0.15268 -1.994413,1.01419 -1.089863,1.91875 0.904563,0.90456 2.071443,0.24173 1.918753,-1.08986 -0.068,-0.593 -0.23589,-0.7609 -0.82889,-0.82889 z m 54.36257,0.48214 c -0.63162,0 -1.17444,0.6492 -1.71979,2.05621 -0.65853,1.69903 -0.57683,2.31988 0.35605,2.70629 1.00594,0.41667 1.33792,0.16406 2.09496,-1.59577 0.51328,-1.19314 1.08004,-1.73698 1.08004,-1.03663 0,0.44364 -0.77511,1.82001 -1.34669,2.39159 -0.28859,0.28861 -0.4541,0.63958 -0.36742,0.7798 0.29237,0.47306 1.16984,0.25907 1.59422,-0.38861 0.23181,-0.35379 0.65649,-1.2613 0.94361,-2.01693 0.49189,-1.29451 0.49614,-1.40243 0.0729,-1.87017 -0.24709,-0.27303 -0.77944,-0.49661 -1.18288,-0.49661 -0.62927,0 -0.83154,0.20679 -1.42213,1.45521 -0.37864,0.80036 -0.8039,1.45521 -0.94516,1.45521 -0.14126,0 -0.25683,-0.054 -0.25683,-0.11989 0,-0.35644 0.70167,-1.66385 1.11259,-2.07326 0.61507,-0.61283 0.60804,-1.24644 -0.0134,-1.24644 z m -82.193953,0.66146 c -0.87448,0 -1.20207,0.67198 -0.65112,1.33584 0.17536,0.21129 0.46848,0.38395 0.65112,0.38395 0.49008,0 0.98304,-0.69837 0.87799,-1.24385 -0.0637,-0.33068 -0.33129,-0.47594 -0.87799,-0.47594 z m 33.505973,2.24896 c -0.43465,0 -1.09451,0.79762 -1.09451,1.32292 0,0.27025 0.18681,0.67876 0.41548,0.90743 0.79547,0.79547 1.96577,0.25517 1.96577,-0.90743 0,-0.72802 -0.57869,-1.32292 -1.28674,-1.32292 z m -38.728903,1.36012 c -0.14365,-0.008 -0.27687,3e-4 -0.39843,0.0232 -0.72932,0.13774 -1.03616,0.79957 -0.63665,1.67639 0.18845,0.4136 0.51383,0.6444 0.90795,0.6444 0.81733,0 1.24902,-0.47358 1.24902,-1.37046 0,-0.56401 -0.15436,-0.77461 -0.66094,-0.90175 -0.16324,-0.041 -0.31731,-0.0642 -0.46095,-0.0718 z m 23.21253,0.004 c -1.01173,0.0426 -1.57238,1.12462 -0.78703,1.90996 0.58815,0.58815 1.34366,0.53952 1.80299,-0.11627 0.51655,-0.73747 0.26021,-1.53934 -0.55759,-1.74459 -0.16034,-0.0402 -0.31383,-0.0552 -0.45837,-0.0491 z m -41.44501,0.22324 c -0.3556,0 -3.33783,1.53797 -3.50418,1.80713 -0.0787,0.12734 0.005,0.43447 0.18603,0.68213 0.30502,0.41714 0.42227,0.39801 1.59577,-0.25787 l 1.26711,-0.70796 -0.44442,1.02422 c -0.94524,2.18069 -1.02414,2.66715 -0.54984,3.39101 0.2436,0.37178 0.5185,0.67593 0.6103,0.67593 0.0918,0 0.92295,-0.42299 1.84744,-0.94 1.48746,-0.83183 1.64907,-0.9993 1.40508,-1.4552 -0.35022,-0.65439 -0.37362,-0.65161 -1.79679,0.18241 -0.71755,0.42052 -1.13022,0.55178 -1.03922,0.33073 0.083,-0.20158 0.415,-0.98995 0.73743,-1.75183 0.50907,-1.20293 0.54268,-1.4902 0.2558,-2.18281 -0.1817,-0.43867 -0.43849,-0.79789 -0.57051,-0.79789 z m 103.215403,0.17312 c -0.43001,0.11267 -1.0833,1.11798 -2.00814,3.08405 -0.41083,0.87335 -0.42236,1.04015 -0.0868,1.2516 0.37666,0.23738 0.87168,-0.16025 1.13068,-0.90795 0.0646,-0.18651 0.63446,-0.0355 1.56528,0.41548 l 1.46348,0.709 0.25683,-0.57671 c 0.22915,-0.51356 0.11487,-0.65804 -1.04748,-1.32188 -0.9991,-0.57061 -1.26213,-0.84967 -1.12138,-1.19063 0.40833,-0.98911 0.41231,-1.30548 0.0181,-1.45676 -0.0525,-0.0201 -0.10911,-0.0223 -0.17054,-0.006 z m -35.0454,0.62063 c -0.30559,0 -0.69871,0.14319 -0.87333,0.31782 -0.17463,0.17462 -0.3173,0.56722 -0.3173,0.87281 0,0.30559 0.14267,0.69871 0.3173,0.87333 0.17462,0.17463 0.56774,0.31729 0.87333,0.31729 0.3056,0 0.6987,-0.14266 0.87333,-0.31729 0.17462,-0.17462 0.31729,-0.56774 0.31729,-0.87333 0,-0.30559 -0.14267,-0.69819 -0.31729,-0.87281 -0.17463,-0.17463 -0.56773,-0.31782 -0.87333,-0.31782 z m -5.02709,0.79375 c -0.30559,0 -0.6987,0.14319 -0.87333,0.31782 -0.17462,0.17462 -0.31729,0.56722 -0.31729,0.87281 0,0.30559 0.14267,0.69871 0.31729,0.87333 0.17463,0.17463 0.56774,0.31729 0.87333,0.31729 0.30559,0 0.6982,-0.14266 0.87282,-0.31729 0.17463,-0.17462 0.31781,-0.56774 0.31781,-0.87333 0,-0.30559 -0.14318,-0.69819 -0.31781,-0.87281 -0.17462,-0.17463 -0.56723,-0.31782 -0.87282,-0.31782 z m -39.687503,1.45521 c -0.87448,0 -1.20207,0.67198 -0.65112,1.33584 0.17536,0.21129 0.46848,0.38395 0.65112,0.38395 0.49008,0 0.98304,-0.69837 0.87799,-1.24385 -0.0637,-0.33068 -0.33129,-0.47594 -0.87799,-0.47594 z m 30.772293,0.80357 -0.43719,1.3007 c -0.35302,1.05053 -0.58986,1.34607 -1.23093,1.53737 -1.57227,0.46919 -1.58949,0.51511 -0.3328,0.89194 1.17052,0.35098 1.27471,0.45536 1.55185,1.55597 0.34768,1.38078 0.64854,1.33692 0.89658,-0.13125 0.15713,-0.93005 0.28908,-1.08184 1.14774,-1.32034 0.5335,-0.14817 1.13846,-0.26997 1.34462,-0.27078 0.65561,-0.003 0.024,-0.38854 -1.09503,-0.66921 -0.99845,-0.25044 -1.10887,-0.37027 -1.46244,-1.58285 z m 46.4106,0.894 c -0.28965,0.057 -0.64222,0.50074 -1.42782,1.68207 l -1.25057,1.88051 1.64124,1.12499 h 5.2e-4 c 0.90255,0.61859 1.71314,1.13149 1.80092,1.13999 0.0878,0.008 0.72427,-0.83338 1.41439,-1.87121 0.97511,-1.46639 1.17533,-1.93718 0.89865,-2.11253 -0.57006,-0.36128 -0.65383,-0.30278 -1.54616,1.08779 -0.46654,0.72704 -0.96157,1.252 -1.10019,1.16634 -0.23258,-0.14374 -0.0285,-0.56629 1.00769,-2.08412 0.45423,-0.66526 0.44837,-0.84125 -0.0351,-1.02681 -0.26447,-0.10148 -0.61665,0.23304 -1.08365,1.02992 -0.38046,0.64919 -0.86596,1.18028 -1.07901,1.18028 -0.42653,0 -0.3886,-0.0894 0.74983,-1.77095 0.68935,-1.01823 0.71323,-1.13131 0.29145,-1.36735 -0.0963,-0.0539 -0.1856,-0.0779 -0.28215,-0.0589 z m -97.552193,0.95912 c -0.29724,-0.0394 -0.7401,0.18802 -1.71875,0.81855 -1.62656,1.04798 -1.82665,1.34422 -1.27744,1.89343 0.24351,0.24352 0.46849,0.21548 0.99218,-0.12403 2.97942,-1.93152 2.94904,-1.89845 2.26705,-2.46444 -0.0811,-0.0673 -0.16395,-0.11039 -0.26304,-0.12351 z m 1.01855,1.20819 c -0.0458,-0.0571 -0.26364,0.0458 -0.48369,0.22841 -0.35403,0.29383 -0.34051,0.41561 0.11678,1.05782 l 0.51677,0.72554 -1.18132,0.84852 c -0.64977,0.46664 -1.18133,0.89076 -1.18133,0.94258 0,0.0518 0.0724,0.28245 0.16072,0.51263 0.22951,0.59812 0.6215,0.51273 1.82366,-0.39739 l 1.05833,-0.80098 0.61443,0.71365 c 0.53791,0.62446 0.66312,0.66548 0.99994,0.32866 0.33682,-0.33682 0.21346,-0.61409 -0.98805,-2.22002 -0.75518,-1.00936 -1.41044,-1.8823 -1.45624,-1.93942 z m 41.59642,0.23616 c -1.15744,0 -1.74498,1.5406 -0.83354,2.1854 0.45695,0.32327 1.52995,0.10119 1.83038,-0.37879 0.43069,-0.68807 -0.18654,-1.80661 -0.99684,-1.80661 z m 52.034043,1.86036 c -0.25675,-0.1002 -0.3597,0.0321 -0.54932,0.30282 -0.35842,0.51172 -0.31325,0.6123 0.64492,1.43247 l 1.03094,0.88263 -1.85208,0.0243 c -1.70529,0.0226 -1.89897,0.084 -2.44429,0.77567 l -0.59222,0.75137 1.63608,1.33997 c 1.24056,1.01596 1.71978,1.27121 1.98127,1.0542 0.54988,-0.45636 0.41227,-0.82582 -0.64699,-1.73323 l -0.99218,-0.84956 1.90014,-0.0103 c 1.78854,-0.009 1.93248,-0.0544 2.44533,-0.77462 l 0.54467,-0.76533 -1.63504,-1.33945 c -0.80406,-0.65851 -1.21448,-0.9907 -1.47123,-1.09089 z m -39.0803,1.62522 c -0.27293,-0.0443 -0.55735,0.0143 -0.80719,0.22169 -0.39801,0.33032 -0.54168,1.61272 -0.21704,1.93735 0.32463,0.32463 1.60704,0.18097 1.93735,-0.21704 0.62206,-0.74953 -0.0943,-1.80901 -0.91312,-1.942 z m -51.230473,0.64906 c -0.20924,-0.24114 -3.15123,2.14073 -3.15123,2.55126 0,0.12913 0.6251,0.93687 1.38906,1.79524 1.48733,1.67109 1.71382,1.80471 1.96216,1.15755 0.10131,-0.26402 -0.1911,-0.77427 -0.80202,-1.39991 -0.92661,-0.94893 -1.22583,-1.62419 -0.71934,-1.62419 0.13345,0 0.66328,0.50602 1.17719,1.12448 0.72007,0.86657 1.00623,1.05278 1.24799,0.81132 0.24182,-0.24153 0.0953,-0.56859 -0.63975,-1.4273 -0.52443,-0.6127 -0.87649,-1.23842 -0.78239,-1.39062 0.0974,-0.15754 0.64543,0.26268 1.27279,0.97565 0.96406,1.09557 1.14485,1.20082 1.44281,0.84181 0.28925,-0.34852 0.14925,-0.6195 -0.92811,-1.7973 -0.69774,-0.7628 -1.35885,-1.49087 -1.46916,-1.61799 z m 84.918853,3.71915 -0.6351,0.63717 -0.63459,0.63717 0.67593,2.20297 c 0.65619,2.13901 0.69037,2.18988 1.18184,1.74511 0.27839,-0.25194 0.50643,-0.71662 0.50643,-1.0325 0,-0.73679 1.10021,-1.773 1.9854,-1.87017 0.75818,-0.0832 1.51585,-0.59918 1.32757,-0.90382 -0.0664,-0.10746 -1.08555,-0.46995 -2.26446,-0.80563 z m -81.704063,0.14263 c -0.0874,0.0403 -0.75161,0.71401 -1.47639,1.49655 l -1.31775,1.42265 1.7141,1.55391 c 0.97565,0.88437 1.95955,1.55339 2.2841,1.55339 0.59456,0 2.48409,-1.85992 2.48409,-2.44533 0,-0.36234 -3.43518,-3.6979 -3.68815,-3.58117 z m 82.204803,1.40456 c 0.0815,-0.006 0.19048,0.0113 0.32918,0.0475 0.29104,0.0761 0.52917,0.22879 0.52917,0.33952 0,0.11073 -0.16459,0.33834 -0.36587,0.50539 -0.28327,0.23509 -0.40286,0.2072 -0.52917,-0.12195 -0.2032,-0.52954 -0.20777,-0.75297 0.0367,-0.7705 z m -81.972773,0.004 0.93431,0.90589 c 1.06257,1.02988 1.13287,1.33388 0.45062,1.9513 -0.64654,0.58511 -0.70527,0.57089 -1.76165,-0.42219 l -0.91467,-0.8599 0.64543,-0.78755 z m 76.334873,3.07372 c -0.0952,-0.0215 -0.18284,-0.0138 -0.26768,0.0212 -0.11311,0.0466 -0.22178,0.14185 -0.33693,0.2806 -0.21701,0.26148 0.0376,0.74003 1.05162,1.97817 l 1.33738,1.63298 1.49603,-1.21337 c 1.70931,-1.38682 1.78053,-1.49338 1.27796,-1.91047 -0.28916,-0.23998 -0.58848,-0.13007 -1.39784,0.51366 l -1.02992,0.81907 -0.93327,-1.08262 c -0.55723,-0.64642 -0.91172,-0.97458 -1.19735,-1.03921 z m -69.608153,1.19734 c -0.18206,-0.10702 -0.7522,0.51519 -1.44074,1.572 -1.09819,1.68556 -1.12107,1.76243 -0.63097,2.1208 0.45145,0.3301 0.55682,0.30783 0.93948,-0.19947 l 0.43098,-0.57155 1.02733,0.69815 c 0.56499,0.38392 1.1403,0.65998 1.27847,0.61392 0.60908,-0.20302 0.37054,-0.73505 -0.62476,-1.39371 -0.59145,-0.39141 -1.07539,-0.79466 -1.07539,-0.89659 0,-0.52598 0.4459,-0.43869 1.51464,0.29662 1.01868,0.70089 1.23537,0.76192 1.55701,0.44029 0.32163,-0.32164 0.16153,-0.52166 -1.15084,-1.43868 -0.83823,-0.58571 -1.65948,-1.14436 -1.82521,-1.24178 z m 68.267673,0.20515 c -0.49169,-0.008 -1.13065,0.31195 -2.07946,0.9586 -0.94201,0.64201 -1.71628,1.26315 -1.71928,1.38028 -0.003,0.11712 0.47541,0.92227 1.06402,1.78904 0.9367,1.37935 1.13473,1.54146 1.5875,1.29914 0.57852,-0.30961 0.64382,-0.55506 0.25167,-0.94723 -0.17794,-0.17794 0.13061,-0.54557 0.93431,-1.11207 1.42432,-1.00397 1.64113,-1.44487 1.15548,-2.35231 -0.35818,-0.66928 -0.70255,-1.00693 -1.19424,-1.01545 z m -0.56017,1.33377 c 0.54458,-0.0974 0.57333,0.70353 -0.0946,1.21698 -0.73657,0.56628 -1.18891,0.62776 -1.45521,0.19689 -0.18005,-0.29133 0.2788,-0.76056 1.28519,-1.31361 0.0983,-0.054 0.1868,-0.0864 0.26459,-0.10026 z m -63.907733,1.18908 c -0.27053,0 -2.09555,3.55477 -1.87121,3.64474 0.12371,0.0496 0.9987,0.54356 1.94459,1.09812 1.52168,0.89214 1.75748,0.96111 2.04949,0.59686 0.28117,-0.35072 0.14406,-0.52145 -0.92605,-1.15135 -0.69082,-0.40664 -1.36629,-0.77819 -1.5012,-0.82579 -0.1348,-0.0476 -0.16528,-0.21563 -0.0677,-0.37362 0.11785,-0.19068 0.61862,-0.0524 1.48931,0.41186 0.98733,0.52648 1.38672,0.62454 1.61541,0.39585 0.2287,-0.2287 -0.0134,-0.48533 -0.97927,-1.0387 -0.7057,-0.40432 -1.32463,-0.76587 -1.37563,-0.80305 -0.0509,-0.0372 -0.0175,-0.18924 0.0744,-0.33797 0.10201,-0.16505 0.68639,0.0359 1.50016,0.51573 1.30278,0.76815 1.82522,0.81304 1.82522,0.15658 0,-0.27157 -3.32936,-2.28926 -3.77755,-2.28926 z m 57.647643,1.69395 c -0.28084,-0.10777 -3.32575,1.18323 -3.81475,1.61747 -0.0457,0.0406 0.34397,0.92224 0.8661,1.95906 0.85392,1.69569 1.00195,1.85729 1.47226,1.60558 0.60262,-0.32251 0.61712,-0.3841 0.25269,-1.06505 -0.23496,-0.43901 -0.0984,-0.59157 1.05007,-1.17357 0.92854,-0.47052 1.27497,-0.78653 1.16789,-1.06557 -0.20074,-0.52312 -0.43962,-0.50173 -1.72496,0.154 -0.72137,0.36801 -1.16732,0.46255 -1.34462,0.28525 -0.1773,-0.1773 0.18414,-0.49292 1.08985,-0.95188 1.36662,-0.69252 1.66404,-1.1049 0.98547,-1.36529 z m -53.095983,0.71675 -0.62529,1.41439 c -1.03269,2.33509 -1.05356,2.49353 -0.36483,2.7745 0.33719,0.13757 1.32113,0.54602 2.18694,0.90744 1.89452,0.79085 2.34784,0.63803 3.09181,-1.04386 0.69555,-1.57243 0.45503,-1.91925 -2.14303,-3.08767 z m 48.234783,1.55546 c -0.93609,-0.006 -3.84443,1.20081 -4.19871,1.7415 -0.31376,0.47883 -0.30851,0.72235 0.0372,1.70222 0.22189,0.6289 0.54392,1.3128 0.71572,1.51981 0.3735,0.45004 1.18537,0.32258 3.32021,-0.52245 1.36237,-0.53927 1.52845,-0.68901 1.60145,-1.44229 0.10245,-1.05698 -0.85142,-2.99509 -1.47588,-2.99879 z m -47.428633,0.0424 1.08986,0.4284 c 1.2504,0.49118 1.48833,0.88924 1.07435,1.79782 -0.16153,0.35452 -0.38539,0.63609 -0.49764,0.62581 -0.3976,-0.0364 -2.45308,-1.02018 -2.45308,-1.17409 0,-0.0859 0.17689,-0.49887 0.39325,-0.91726 z m 4.79816,0.81081 -0.66198,1.96939 c -0.47833,1.42267 -0.57425,2.0022 -0.3452,2.08669 0.17441,0.0643 0.97216,0.34699 1.77251,0.62839 1.80271,0.6338 2.28162,0.66206 2.47995,0.14521 0.14186,-0.36968 -0.70692,-0.91778 -1.42162,-0.91778 -0.12658,0 -0.5549,-0.12347 -0.95188,-0.2744 -1.25645,-0.4777 -0.36365,-0.85126 0.93741,-0.39222 1.40546,0.49587 1.50902,0.49691 1.69395,0.015 0.10869,-0.28323 -0.23871,-0.509 -1.29449,-0.84181 -0.79375,-0.25021 -1.44332,-0.55233 -1.44332,-0.67128 0,-0.32119 0.59229,-0.26386 1.84691,0.1788 0.61588,0.21729 1.22596,0.32944 1.35599,0.24908 0.63407,-0.39187 0.0492,-0.85799 -1.86552,-1.48569 z m 41.731303,0.59014 c 0.59282,-0.0736 0.77694,0.18349 0.96945,0.96377 0.15249,0.61808 0.0572,0.72764 -0.98185,1.12448 -1.47222,0.56224 -1.48675,0.5609 -1.83555,-0.20464 -0.42251,-0.92731 -0.16399,-1.32703 1.10381,-1.70687 0.30385,-0.091 0.54653,-0.1522 0.74414,-0.17674 z m -36.624123,1.1188 c -0.11865,9.9e-4 -0.1943,0.0167 -0.21446,0.0506 -0.0549,0.0924 -0.246,0.87934 -0.42478,1.74873 -0.17877,0.86938 -0.37773,1.71758 -0.44183,1.88464 -0.0641,0.16705 0.18546,0.36146 0.55449,0.43201 0.49488,0.0946 0.71247,-0.003 0.8294,-0.37155 0.13212,-0.41628 0.32033,-0.47002 1.13017,-0.32401 1.2868,0.23199 1.41788,0.32748 1.2361,0.9002 -0.1041,0.32799 7e-5,0.52503 0.32039,0.60823 0.26071,0.0677 0.54911,0.13712 0.64131,0.154 0.29144,0.0534 0.48779,-1.1395 0.22996,-1.39733 -0.15255,-0.15256 -0.11107,-0.35634 0.10903,-0.53382 0.61012,-0.49199 0.72934,-1.62241 0.21704,-2.06034 -0.43855,-0.37488 -3.35629,-1.09838 -4.18682,-1.09141 z m 28.983763,0.21859 c -0.35725,0 -0.63255,0.11906 -0.61185,0.26458 0.0207,0.14552 0.12384,0.79171 0.22944,1.43609 l 0.19224,1.17202 -1.42058,-1.20148 c -0.78114,-0.66075 -1.53914,-1.16863 -1.68466,-1.12861 -0.14552,0.04 -0.57501,0.1407 -0.95446,0.22376 l -0.68988,0.1509 0.39584,1.98902 c 0.35861,1.80226 0.45432,1.98851 1.02061,1.98851 0.69434,0 0.75528,-0.31002 0.37931,-1.9296 -0.26142,-1.12609 -0.27044,-1.12895 1.59163,0.49403 0.75908,0.66161 1.12068,0.80244 1.80661,0.70176 0.47175,-0.0692 0.90988,-0.26184 0.97358,-0.42788 0.0637,-0.16603 -0.04,-1.07391 -0.23099,-2.01744 -0.31388,-1.55081 -0.40967,-1.71566 -0.99684,-1.71566 z m -27.516673,1.14928 c 1.06963,0.1527 1.90445,0.55503 1.73168,0.83458 -0.1656,0.26795 -1.18713,0.30773 -2.06551,0.0801 -0.74155,-0.19218 -0.4377,-1.02482 0.33383,-0.91468 z m 6.47299,0.0413 c -0.76407,0 -1.00404,0.20023 -2.07532,1.73271 -0.6661,0.95286 -1.21078,1.84583 -1.21078,1.98438 0,0.37559 1.31914,0.30441 1.46606,-0.0791 0.0847,-0.22111 0.56116,-0.30063 1.43712,-0.23978 1.00823,0.07 1.34704,0.20726 1.4702,0.59531 0.10208,0.32161 0.40347,0.50436 0.83199,0.50436 0.52848,0 0.63582,-0.0988 0.50177,-0.46302 -1.42909,-3.88223 -1.52069,-4.03489 -2.42104,-4.03489 z m 13.544913,0 c -1.95346,0 -3.25663,0.38783 -3.46025,1.0294 -0.21336,0.67224 0.27515,2.96815 0.6904,3.24476 0.41532,0.27666 3.84066,0.0159 4.52582,-0.34468 0.34733,-0.18277 0.46302,-0.57618 0.46302,-1.57458 0,-2.08628 -0.253,-2.3549 -2.21899,-2.3549 z m -4.79247,0.26459 c -0.65046,0 -0.66146,0.0353 -0.66146,2.11666 0,2.08138 0.011,2.11667 0.66146,2.11667 0.65046,0 0.66146,-0.0353 0.66146,-2.11667 0,-2.08138 -0.011,-2.11666 -0.66146,-2.11666 z m -5.093233,0.003 c -0.93662,-0.002 -1.12448,0.0832 -1.12448,0.51004 0,0.3847 0.21432,0.53306 0.8599,0.59531 0.85015,0.082 0.86056,0.1 0.93896,1.60404 0.0739,1.41653 0.12401,1.52136 0.7276,1.52136 0.60936,0 0.64854,-0.0873 0.64854,-1.45521 v -1.45521 h 0.926043 c 0.72655,0 0.92605,-0.10571 0.92605,-0.49196 0,-0.39632 -0.27084,-0.52508 -1.38907,-0.65939 -0.763983,-0.0918 -1.895083,-0.16768 -2.513543,-0.16898 z m 9.951853,0.83974 c 0.69219,0.0306 0.87645,0.37103 0.78445,1.17615 -0.082,0.71711 -0.16492,0.76426 -1.47588,0.83975 l -1.38906,0.0801 v -0.92398 c 0,-0.89411 0.0385,-0.92912 1.21026,-1.10484 0.35222,-0.0528 0.6395,-0.0774 0.87023,-0.0672 z m -13.728883,0.23978 c 0.159,0.007 0.30076,0.18199 0.4098,0.52554 0.2076,0.65416 0.16916,0.69044 -0.601,0.56741 -0.49811,-0.0796 -0.55037,-0.17786 -0.32143,-0.60564 0.1775,-0.33167 0.35363,-0.49391 0.51263,-0.48731 z" />
  </g>
</svg>
