<?xml version="1.0" encoding="UTF-8" standalone="no"?>
<!-- Created with Inkscape (http://www.inkscape.org/) -->

<svg
   width="136.00044mm"
   height="136.00029mm"
   viewBox="0 0 136.00044 136.00029"
   version="1.1"
   id="svg1"
   xmlns="http://www.w3.org/2000/svg"
   xmlns:svg="http://www.w3.org/2000/svg">
  <defs
     id="defs1" />
  <g
     id="layer1"
     transform="translate(-31.617447,-74.076691)">
    <path
       id="path348"
       style="fill:#37a6d1;fill-opacity:1"
       d="m 98.91493,74.08922 v 5.1e-4 c -3.65029,0.0535 -7.46388,0.27062 -9.59012,0.60565 -3.77851,0.59542 -8.9539,1.91104 -12.58476,3.19929 -3.64075,1.29177 -9.7057,4.20994 -12.92892,6.22081 -8.29431,5.17448 -16.22406,12.92946 -21.34857,20.87831 -5.6144,8.7087 -9.06624,18.17151 -10.42934,28.59154 -0.55355,4.2291 -0.55451,12.78337 -0.002,17.02325 3.41561,26.21721 21.39096,47.94868 46.51448,56.23429 4.49162,1.48135 9.81681,2.57047 15.41714,3.1533 h 0.001 c 2.29528,0.23887 12.66588,-0.0902 15.30914,-0.48576 14.88975,-2.22797 27.79271,-8.73202 38.46018,-19.38745 10.66276,-10.6507 17.09569,-23.51438 19.40502,-38.80332 0.6393,-4.23244 0.63975,-14.13483 5.2e-4,-18.49861 -2.26335,-15.45089 -9.05969,-28.80299 -20.13676,-39.56399 -11.21108,-10.89115 -25.23222,-17.42244 -40.73705,-18.97455 -1.0116,-0.10134 -2.34,-0.16337 -3.8225,-0.19017 -1.11188,-0.0201 -2.31067,-0.0205 -3.52743,-0.003 z m 0.76326,2.3058 c 8.178,0.007 16.31154,1.49085 23.72258,4.40283 22.15512,8.70527 37.64359,28.11877 41.35251,51.83146 0.69785,4.46165 0.69785,14.43384 0,18.89549 -1.75538,11.22298 -6.05922,21.42768 -12.79043,30.32838 -2.55718,3.38136 -7.67982,8.67051 -10.93008,11.2851 -8.87787,7.14154 -19.0161,11.71288 -30.56661,13.78262 -4.4092,0.79008 -14.91078,0.98864 -19.33267,0.36535 -17.11497,-2.41242 -32.304,-11.01546 -42.9364,-24.31892 -5.38179,-6.73384 -9.98961,-15.96281 -12.11812,-24.27243 -2.87213,-11.21264 -2.87213,-22.02303 0,-33.23569 2.15023,-8.39441 6.70929,-17.49942 12.21786,-24.40058 9.15232,-11.46609 22.60085,-19.90613 36.75899,-23.06888 4.79263,-1.07061 9.71556,-1.59866 14.62237,-1.59473 z m -3.53777,5.04155 v 2.3642 2.36471 h 2.50372 c 2.31806,0 2.50321,-0.0414 2.50321,-0.55655 0,-0.49923 -0.18552,-0.55604 -1.80816,-0.55604 -1.42174,0 -1.80764,-0.0895 -1.80764,-0.41755 0,-0.32505 0.37306,-0.41703 1.6893,-0.41703 1.46084,0 1.67582,-0.0659 1.59112,-0.48679 -0.0824,-0.40924 -0.35161,-0.47186 -1.6893,-0.39326 -1.30675,0.0767 -1.59112,0.0145 -1.59112,-0.34778 0,-0.35376 0.33031,-0.44131 1.66863,-0.44131 1.48355,0 1.66915,-0.0615 1.66915,-0.55604 0,-0.51274 -0.18523,-0.55656 -2.3642,-0.55656 z m -2.86081,0.28474 c -1.55916,0.009 -3.24472,0.41647 -3.73052,0.90227 -0.5029,0.5029 -0.20653,3.10181 0.42581,3.73414 0.34766,0.34765 0.81454,0.39825 2.35283,0.25528 2.33101,-0.21664 2.97811,-0.52762 2.97811,-1.43092 0,-0.53772 -0.14353,-0.68575 -0.66559,-0.68575 -0.36611,0 -0.73769,0.18807 -0.82579,0.41755 -0.11331,0.2953 -0.57376,0.41703 -1.57613,0.41703 h -1.41645 l 0.0863,-1.04335 0.0863,-1.04283 2.01641,0.0558 c 2.07314,0.0573 2.25998,-0.0555 1.7291,-1.04748 -0.21584,-0.4033 -0.58158,-0.53675 -1.46038,-0.53175 z m 13.04313,0.0915 c -0.88021,0.12666 -1.20576,0.76016 -1.41076,2.29546 -0.22551,1.68882 0.14885,2.22298 1.73839,2.48202 0.5688,0.0927 1.22159,0.20823 1.45108,0.25683 1.92101,0.40651 2.62528,-0.0599 2.90473,-1.92339 0.34119,-2.27521 -0.0709,-2.62796 -3.60185,-3.08302 -0.43274,-0.0558 -0.78818,-0.0701 -1.08159,-0.0279 z M 87.48617,82.5864 c -0.13501,0.0155 -0.29258,0.0883 -0.48266,0.20877 -0.30623,0.19406 -0.3157,0.53795 -0.0506,1.87379 0.17852,0.89965 0.38723,1.85461 0.46353,2.12235 0.0853,0.29951 0.41053,0.4868 0.84543,0.4868 0.59179,0 0.68253,-0.1018 0.55759,-0.62581 -0.0821,-0.34423 -0.29979,-1.40851 -0.48369,-2.36471 -0.24517,-1.27474 -0.44453,-1.74757 -0.84956,-1.70119 z m 25.04136,0.46044 c -0.22994,0.26696 -1.08779,3.45382 -1.08779,4.0411 0,0.77933 1.29617,0.60455 1.49862,-0.20206 0.16732,-0.66665 0.17691,-0.66842 1.62987,-0.28164 0.80373,0.21396 1.4777,0.39023 1.4981,0.39223 0.0204,0.002 0.10144,-0.24181 0.17984,-0.54157 0.11978,-0.45804 -0.0972,-0.61465 -1.35858,-0.98134 -1.73916,-0.50559 -2.07374,-1.14414 -0.45785,-0.87384 0.57372,0.096 1.30778,0.24751 1.63091,0.33641 0.40227,0.11067 0.64556,0.0105 0.77153,-0.31781 0.1012,-0.26371 0.12986,-0.53418 0.0636,-0.60048 -0.27784,-0.27784 -4.21203,-1.15233 -4.36821,-0.971 z m -27.43347,0.15244 c -0.40549,0.0394 -1.13661,0.24353 -2.53783,0.64596 -1.6619,0.4773 -1.60766,0.21624 -0.69918,3.37964 0.35985,1.25306 0.51484,1.46351 1.02526,1.39061 0.48427,-0.0691 0.58925,-0.25233 0.53795,-0.93896 -0.0601,-0.80478 0.0144,-0.87271 1.32137,-1.20768 1.0905,-0.27949 1.38493,-0.47518 1.38493,-0.92035 0,-0.48144 -0.12404,-0.53923 -0.83458,-0.3912 -0.45895,0.0956 -1.22689,0.25532 -1.70635,0.35502 -1.46402,0.30448 -0.81208,-0.53709 0.75499,-0.97462 1.63832,-0.45742 1.56487,-0.40298 1.33739,-0.9958 -0.0985,-0.25674 -0.17845,-0.38201 -0.58395,-0.34262 z m 21.47776,0.0455 1.37666,0.0729 c 1.54287,0.0818 1.84432,0.356 1.56218,1.42007 -0.20135,0.75941 -0.98816,0.97596 -2.46755,0.67903 -0.55033,-0.11048 -0.62955,-0.27337 -0.55655,-1.15032 z M 80.006,84.9129 c -0.15359,-0.0949 -1.20683,0.17271 -2.34042,0.59427 l -2.06138,0.76637 0.57206,1.54512 c 0.31455,0.85002 0.67952,1.83554 0.81081,2.19005 0.18852,0.50903 0.3699,0.60457 0.86403,0.45268 0.83411,-0.25639 0.81832,-0.22446 0.50797,-1.04076 -0.25606,-0.67353 -0.19773,-0.74425 0.97514,-1.19218 1.3962,-0.53318 1.58029,-0.71415 1.34669,-1.32291 -0.14179,-0.3695 -0.32055,-0.3554 -1.4149,0.11369 -1.49238,0.63971 -1.76269,0.66256 -1.76269,0.14779 0,-0.21505 0.62236,-0.61309 1.39062,-0.88935 1.31786,-0.4739 1.73185,-0.98175 1.11207,-1.36477 z m 41.47499,0.69608 c -0.35428,0 -0.70692,0.53848 -1.23507,1.88464 -0.87158,2.22149 -0.89738,2.48961 -0.25269,2.63601 0.71354,0.16203 0.73691,0.13245 1.57148,-1.99471 0.78964,-2.01278 0.77247,-2.52594 -0.0837,-2.52594 z m 2.05724,0.89245 c -0.0396,0.0448 -0.52467,0.98462 -1.07745,2.08876 -0.96327,1.92405 -0.98279,2.01955 -0.46819,2.29495 0.74233,0.39728 0.68363,0.44382 1.41335,-1.11414 0.73561,-1.57057 0.94284,-1.44977 1.23403,0.71933 0.21336,1.58932 0.3422,1.85312 1.125,2.29702 0.97763,0.55438 1.22501,0.37247 2.24534,-1.65365 0.78932,-1.56736 0.92204,-2.03556 0.62942,-2.22105 -0.71109,-0.45077 -1.06006,-0.23512 -1.72083,1.06505 l -0.66559,1.30948 -0.35192,-1.97145 c -0.32938,-1.84312 -0.41554,-2.00124 -1.32188,-2.43345 -0.53316,-0.25424 -1.00168,-0.42565 -1.04128,-0.38085 z m -49.33601,0.86506 c -0.79628,-0.19985 -4.07155,1.39281 -4.51135,2.19367 -0.34914,0.63577 0.43202,2.56834 1.32085,3.2675 0.53639,0.42192 0.8322,0.47679 1.42834,0.26458 1.58321,-0.56358 3.53058,-1.80281 3.62768,-2.30839 0.17498,-0.91163 -1.08595,-3.2217 -1.86552,-3.41736 z m -0.632,1.30225 c 0.26311,0 1.15135,1.38036 1.15135,1.78904 0,0.081 -0.49535,0.39991 -1.10122,0.709 -0.60587,0.3091 -1.27467,0.56224 -1.4857,0.56224 -0.344,0 -1.02888,-1.08587 -1.02888,-1.63091 0,-0.25335 2.02748,-1.42937 2.46445,-1.42937 z m 56.32783,1.11363 c -0.67182,-0.001 -0.61003,0.82065 0.10077,1.33841 l 0.72915,0.53124 -0.89658,1.45727 c -0.84921,1.38014 -0.87029,1.47746 -0.39533,1.83762 0.27583,0.20917 0.52669,0.38412 0.55759,0.38912 0.0309,0.005 0.45818,-0.58587 0.9493,-1.31258 0.4911,-0.72671 0.92368,-1.36178 0.96118,-1.41128 0.0375,-0.0495 0.44908,0.10702 0.91467,0.34778 0.78206,0.40441 0.86673,0.40106 1.11518,-0.0429 0.2246,-0.40134 -0.0594,-0.69899 -1.72445,-1.80713 -1.09649,-0.72975 -2.13661,-1.32717 -2.31148,-1.32756 z m -29.73669,0.20102 c -3.17299,-0.0148 -6.75533,0.22284 -9.09867,0.63975 -16.76968,2.98353 -30.77928,13.43372 -38.16201,28.46648 -7.15142,14.5618 -7.15142,31.41318 0,45.97497 8.35839,17.01941 25.19866,28.07635 44.35233,29.12122 0.84146,0.0459 1.59265,0.10529 1.66915,0.13229 0.50464,0.17784 8.27587,-0.60154 10.74198,-1.07745 12.78856,-2.46795 24.8352,-10.21754 32.43626,-20.86591 3.5448,-4.96593 6.89288,-12.33054 8.31888,-18.29862 1.34281,-5.61997 1.71548,-12.96165 0.94981,-18.71307 -1.45348,-10.91797 -6.36025,-21.19548 -13.88494,-29.08247 -9.25701,-9.70268 -21.03907,-15.25837 -34.34726,-16.19591 -0.90562,-0.0638 -1.91786,-0.0963 -2.97553,-0.10128 z m -34.39583,2.07326 c -0.28197,-0.079 -0.76315,0.21952 -2.09858,1.1684 -1.10277,0.78357 -2.00777,1.58472 -2.01177,1.78077 -0.0115,0.57862 0.80781,0.72079 1.34618,0.23358 0.27408,-0.24805 0.57446,-0.45062 0.66766,-0.45062 0.0932,0 0.57425,0.56314 1.06866,1.2516 0.93054,1.29574 1.29896,1.4802 1.85157,0.92759 0.24643,-0.24644 0.0809,-0.65485 -0.69246,-1.70842 l -1.01648,-1.38493 0.72916,-0.58601 c 0.60271,-0.48445 0.67131,-0.66436 0.39584,-1.03714 -0.074,-0.10015 -0.14579,-0.16848 -0.23978,-0.19482 z m 34.0341,0.0232 c 9.46569,-0.003 18.84886,2.69135 26.93892,8.00623 15.44224,10.14496 24.04154,27.32005 22.77639,45.49128 -0.80405,11.54836 -5.57465,22.36354 -13.57798,30.78262 -8.49831,8.93975 -19.31307,14.27513 -31.41152,15.49621 -18.229,1.83982 -36.24479,-6.76352 -46.51551,-22.2126 -3.58678,-5.39517 -6.01165,-11.21882 -7.41712,-17.81493 -0.68144,-3.19815 -0.74414,-4.02196 -0.74414,-9.75186 0,-5.72992 0.0627,-6.55373 0.74414,-9.75186 3.3495,-15.71982 13.31249,-28.4928 27.54044,-35.30792 6.89208,-3.30129 14.30416,-4.93499 21.66638,-4.93717 z m 35.0268,1.16582 c -0.15696,0.097 -0.84347,0.90204 -1.52601,1.78904 l -1.24126,1.61282 1.86035,1.4304 c 1.02297,0.78669 1.93798,1.43306 2.03398,1.43506 0.096,0.003 0.31765,-0.16813 0.49248,-0.37879 0.25332,-0.30522 0.0343,-0.59934 -1.07849,-1.44797 -0.76807,-0.58574 -1.3963,-1.16416 -1.3963,-1.28571 0,-0.46215 0.64503,-0.18578 1.8278,0.78341 1.08032,0.88524 1.2479,0.94618 1.41387,0.51366 0.13858,-0.36112 -0.13618,-0.76741 -1.03973,-1.53789 -1.65228,-1.40891 -1.20029,-1.70414 0.59324,-0.38757 1.15013,0.84427 1.47847,0.97312 1.67742,0.65888 0.13609,-0.21496 0.24595,-0.45319 0.24495,-0.52969 -0.007,-0.3386 -3.60639,-2.81381 -3.8623,-2.65565 z m -73.86888,2.43448 c -0.3602,-0.1063 -0.93428,0.31471 -2.17557,1.48466 l -1.61438,1.52135 1.46761,1.6676 c 0.80716,0.91699 1.51967,1.66708 1.58337,1.66708 0.0637,0 0.92055,-0.70677 1.90428,-1.57044 1.62336,-1.42525 1.74877,-1.61019 1.3534,-2.00556 -0.39537,-0.39537 -0.54603,-0.32734 -1.62936,0.73587 -1.27385,1.25021 -1.59008,1.40463 -1.59008,0.77721 0,-0.2168 0.51118,-0.81901 1.13585,-1.3379 0.9451,-0.78505 1.0695,-0.99815 0.74104,-1.27072 -0.31574,-0.26205 -0.62557,-0.13023 -1.54926,0.66042 -0.6351,0.54362 -1.293,0.90333 -1.46193,0.79892 -0.18776,-0.11604 0.20841,-0.6437 1.01906,-1.35703 0.81715,-0.71904 1.24738,-1.29372 1.12138,-1.49758 -0.0893,-0.14448 -0.18534,-0.23845 -0.30541,-0.27388 z m 78.85359,1.29449 c -0.30647,-0.0876 -0.65951,0.25129 -1.80144,1.44849 l -1.61437,1.6924 1.49086,1.50896 c 0.81971,0.83002 1.57309,1.50895 1.67432,1.50895 0.10124,0 0.346,-0.19532 0.54415,-0.43408 0.30599,-0.36869 0.20858,-0.58569 -0.64596,-1.44023 l -1.00614,-1.00614 1.09141,-1.30328 c 1.04528,-1.24844 1.07038,-1.32331 0.58601,-1.76165 -0.11925,-0.10792 -0.21669,-0.18422 -0.31884,-0.21342 z m -39.59242,1.43506 c -0.8601,-0.0183 -6.51303,8.81405 -9.59218,14.98719 -3.49235,7.0016 -6.95693,15.87812 -8.64236,22.14284 -0.27339,1.01617 -0.51093,1.23135 -2.73782,2.48047 -1.34109,0.75226 -3.77599,2.21138 -5.41052,3.24218 -10.81234,6.8187 -13.11527,11.10986 -6.56601,12.23543 1.60673,0.27616 2.88601,0.27921 6.16448,0.0145 2.27522,-0.18369 4.18982,-0.28071 4.25452,-0.21601 0.0647,0.0647 -0.13295,1.60363 -0.43925,3.41994 -0.98568,5.84493 -2.24544,17.1928 -2.24844,20.25665 v 5.2e-4 c -0.001,1.30005 -0.14215,1.43216 2.78433,-2.62672 11.37415,-15.7754 23.22394,-25.75169 31.28956,-26.34309 1.83782,-0.13475 2.01217,-0.0955 3.10265,0.7028 2.91752,2.13588 7.61187,11.02819 12.28607,23.27351 l 0.84956,2.22571 0.0171,-1.32912 c 0.0648,-4.95038 -2.16714,-19.41887 -4.49068,-29.11037 -0.73624,-3.07088 -0.82579,-3.75877 -0.50282,-3.86643 0.21607,-0.072 1.18357,-0.55043 2.14974,-1.06298 0.96617,-0.51256 1.80929,-0.93173 1.87379,-0.93173 0.0645,0 0.39864,0.50062 0.74259,1.11259 l 0.6258,1.1126 h 2.99879 c 2.817,0 3.01876,-0.0376 3.33054,-0.62012 l 0.33177,-0.62012 0.2806,0.6289 c 0.26999,0.60503 0.39598,0.62566 3.32538,0.55036 l 3.04426,-0.078 1.46192,-2.52956 1.46141,-2.52957 -1.42317,-2.54041 c -1.16049,-2.07182 -1.54428,-2.54213 -2.07894,-2.54713 -0.51496,-0.005 -0.61183,-0.11119 -0.4532,-0.49351 0.3274,-0.78908 0.27654,-0.93149 -1.23404,-3.47679 l -1.44435,-2.43396 -2.9745,0.005 -2.97398,0.005 -1.47588,2.56212 c -1.24945,2.16902 -1.43165,2.65894 -1.18804,3.1936 0.25296,0.55515 0.21148,0.63148 -0.34106,0.63148 -0.49674,0 -0.94245,0.53026 -2.12545,2.52853 -1.47187,2.4862 -1.48936,2.54157 -1.04283,3.29748 l 0.45423,0.76894 -1.87637,0.73587 c -1.03191,0.40486 -1.99942,0.73639 -2.15025,0.73639 -0.15084,0 -0.70239,-1.40836 -1.22577,-3.12952 -3.96596,-13.04206 -9.5318,-24.71105 -16.14992,-33.86047 -0.99445,-1.3748 -1.91275,-2.50175 -2.04122,-2.50475 z m -0.0977,1.04076 0.52607,0.65939 c 0.28947,0.36264 1.7515,2.48779 3.24838,4.72271 4.68786,6.99916 9.62779,17.52457 12.78062,27.23038 1.61202,4.96257 1.99912,6.39754 1.72547,6.39754 -0.13223,0 -0.43858,0.0761 -0.68058,0.16898 -0.27365,0.10501 -0.43976,0.0198 -0.43976,-0.22531 0,-0.7423 -2.83778,-9.25936 -4.50154,-13.5108 -3.48764,-8.91208 -11.69087,-23.66315 -12.78371,-22.98774 -0.71163,0.43981 -4.81948,7.16295 -7.00784,11.46906 -4.95519,9.75046 -8.98385,21.11166 -11.45977,32.31844 -0.42251,1.9124 -0.90646,3.56903 -1.07539,3.68143 -0.43217,0.2875 -1.00252,0.26158 -1.00252,-0.0455 0,-0.57569 1.77719,-7.92288 2.81637,-11.64322 3.90817,-13.99161 9.7925,-27.06836 16.13131,-35.84897 z m -43.75908,0.3545 c -0.28879,-0.0221 -0.70019,0.37068 -1.75545,1.53531 l -1.61696,1.78438 1.61696,1.52446 c 0.88941,0.83827 1.68852,1.52827 1.77612,1.53427 0.0876,0.006 0.86691,-0.79101 1.73168,-1.76992 1.37709,-1.55883 1.5189,-1.82414 1.14153,-2.13733 -0.36725,-0.30479 -0.59748,-0.16242 -1.56011,0.96376 -0.80043,0.93644 -1.21584,1.23466 -1.42627,1.02423 -0.21043,-0.21043 0.0138,-0.61518 0.76998,-1.38958 0.74796,-0.76597 1.01107,-1.23756 0.88056,-1.57768 -0.15888,-0.41402 -0.35945,-0.31478 -1.36891,0.67593 -0.65062,0.63853 -1.27236,1.16065 -1.38131,1.16065 -0.48128,0 -0.11733,-0.75428 0.83354,-1.72806 0.90073,-0.92243 0.98004,-1.10685 0.62581,-1.45314 -0.0883,-0.0863 -0.17091,-0.13992 -0.26717,-0.14728 z m 87.31353,0.52503 -1.02733,0.81959 c -0.5651,0.45081 -1.38693,1.19819 -1.82624,1.66088 l -0.79892,0.84129 1.46503,1.54875 c 1.58266,1.67341 1.71228,1.74274 2.18849,1.16892 0.24051,-0.2898 0.2121,-0.4663 -0.11833,-0.74053 -0.23852,-0.19795 -0.68118,-0.70759 -0.98392,-1.13274 l -0.55036,-0.77308 1.15652,-1.07849 c 1.03702,-0.96733 1.12226,-1.14313 0.82579,-1.69705 z m -96.24787,1.31568 c -0.85616,1.08778 -1.66216,2.18541 -2.41742,3.29283 0.75527,-1.10742 1.56126,-2.20506 2.41742,-3.29283 z m 99.51951,2.8789 c -0.19545,0 -1.50756,0.99322 -3.33572,2.52543 -0.12888,0.10805 -0.0912,0.46315 0.0832,0.78909 h -5.2e-4 c 0.36219,0.67675 0.39064,0.66465 2.57969,-1.06556 1.34848,-1.06585 1.5115,-1.29494 1.23455,-1.7384 -0.17545,-0.28095 -0.42799,-0.51056 -0.5612,-0.51056 z m -91.66418,1.59732 c -0.27659,-0.0164 -0.52872,0.23084 -1.03301,0.9126 -0.44454,0.60099 -0.92006,1.09568 -1.0573,1.09968 -0.13723,0.004 -0.77924,-0.42737 -1.42627,-0.95757 -1.14276,-0.9364 -1.18989,-0.94919 -1.64951,-0.44131 -0.45291,0.50046 -0.39795,0.58285 1.28674,1.92804 0.96801,0.77293 1.82735,1.4099 1.90945,1.4149 0.13522,0.009 2.04779,-2.3998 2.56935,-3.23546 0.1319,-0.21135 0.0143,-0.45218 -0.30437,-0.6227 -0.10804,-0.0578 -0.20288,-0.0927 -0.29508,-0.0982 z m 56.79912,0.19172 c -0.71207,0.04 -1.27969,1.09691 -0.72347,1.65313 0.10844,0.10889 0.45254,0.16097 0.76481,0.11627 0.73888,-0.10577 0.95109,-1.45834 0.26975,-1.71979 -0.10478,-0.0402 -0.20936,-0.0553 -0.31109,-0.0496 z m 36.30941,0.47232 c -0.20427,-0.0232 -0.43088,0.0954 -0.86971,0.33383 -1.62156,0.88108 -2.21537,1.47059 -2.21537,2.19935 0,0.66522 1.20616,2.70013 2.17454,3.66851 0.24095,0.24096 0.56625,0.43821 0.72296,0.43821 0.42017,0 1.90066,-0.91819 1.90066,-1.17874 0,-0.58612 -1.51306,-2.45019 -1.87586,-2.31097 -0.21715,0.0833 -0.46152,0.15142 -0.54312,0.15142 -0.0816,0 0.0637,0.3241 0.32298,0.71985 0.62125,0.94815 0.26355,1.27776 -0.42168,0.38861 -0.90038,-1.16836 -0.95364,-1.69898 -0.22686,-2.2624 0.36218,-0.28077 0.82852,-0.48048 1.03611,-0.44338 0.37048,0.0662 1.09973,1.27253 1.67742,2.77399 0.32751,0.85124 1.00923,0.79854 1.2945,-0.10025 0.19087,-0.60143 -1.05449,-2.74695 -2.24173,-3.8623 -0.34886,-0.32774 -0.53056,-0.49257 -0.73484,-0.51573 z m -65.48386,1.35444 c -1.53435,0 -2.32599,1.96574 -1.23196,3.05976 0.30598,0.30599 0.79306,0.55655 1.0821,0.55655 0.66669,0 1.60093,-0.79854 1.81953,-1.55546 0.22991,-0.7961 -0.79456,-2.06085 -1.66967,-2.06085 z m -33.62327,0.27853 c -0.35231,0 -2.79023,3.5763 -2.58072,3.78582 0.0552,0.0552 0.84284,0.59296 1.75028,1.19528 0.90743,0.60229 1.79828,1.10482 1.97921,1.11672 0.3913,0.0257 0.82782,-1.16704 0.47284,-1.29191 -0.95892,-0.3373 -0.9916,-0.56872 -0.24081,-1.70325 0.69858,-1.05562 0.78087,-1.99006 0.1757,-1.99006 -0.13969,0 -0.61618,0.55662 -1.05885,1.23713 -0.49837,0.76615 -0.92836,1.16124 -1.12913,1.03715 -0.22753,-0.14062 -0.0777,-0.59677 0.50229,-1.52859 0.81499,-1.30939 0.85346,-1.85829 0.12919,-1.85829 z m 71.47368,0.27802 c -1.19044,0 -1.75499,1.62624 -0.76481,2.20297 0.68669,0.39996 1.07687,0.36645 1.57974,-0.13643 0.84017,-0.84018 0.35647,-2.06654 -0.81493,-2.06654 z m -46.42146,2.5492 c -0.90035,0.13139 -1.35694,1.16074 -0.65991,1.85777 0.4688,0.46879 1.61483,0.29378 1.98903,-0.30386 0.39602,-0.63247 -0.0737,-1.42604 -0.91829,-1.55132 -0.14466,-0.0215 -0.28221,-0.0214 -0.41083,-0.003 z m 77.91618,1.06712 c -0.44614,0 -3.81683,1.94589 -3.81683,2.20348 0,0.22415 1.09228,2.32909 1.84744,3.55948 0.22799,0.37143 0.54439,0.55312 0.7953,0.45682 0.5746,-0.22049 0.52145,-0.60128 -0.28164,-2.00608 -0.7475,-1.30756 -0.84603,-1.71049 -0.41858,-1.71049 0.15042,0 0.59061,0.62617 0.97824,1.39113 0.38763,0.76494 0.8318,1.39061 0.98702,1.39061 0.61264,0 0.55256,-0.85756 -0.14263,-2.0438 -0.40169,-0.68546 -0.61373,-1.31812 -0.47129,-1.40612 0.32211,-0.19908 0.64141,0.19206 1.42524,1.74718 0.54991,1.09103 0.65798,1.17395 1.03766,0.79427 0.37968,-0.37969 0.31536,-0.63002 -0.61495,-2.40037 -0.57118,-1.08697 -1.1674,-1.97611 -1.32498,-1.97611 z m -51.60151,0.86196 c 0.0417,-0.0119 0.11924,0.11269 0.26562,0.36484 0.22758,0.39124 0.22508,0.66556 -0.008,1.03921 -0.5293,0.84754 -0.38738,1.14885 0.44804,0.95136 0.42072,-0.0995 1.0461,-0.51996 1.38958,-0.93431 l 0.62425,-0.75344 10e-4,0.74879 c 7.6e-4,0.41169 -0.12564,0.82684 -0.28112,0.92294 -0.47655,0.29452 -0.007,0.69299 0.81752,0.69299 0.42931,0 1.09971,-0.25124 1.48983,-0.55811 l 0.70952,-0.55811 -0.20205,0.76688 c -0.11125,0.42161 -0.59666,1.01694 -1.07849,1.32292 -0.48182,0.30598 -0.88077,0.73176 -0.88677,0.94671 -0.008,0.29609 0.12423,0.26878 0.54571,-0.11265 0.81178,-0.73467 0.69873,0.0222 -0.12661,0.84749 -0.66762,0.66758 -0.66962,0.68265 -0.0915,0.68265 0.32523,0 0.82041,-0.20724 1.10019,-0.46044 0.81139,-0.73429 0.58777,-0.19463 -0.25631,0.61857 l -0.76481,0.7369 0.75499,-0.12867 0.75499,-0.12919 -0.51005,0.7245 c -0.28046,0.39847 -0.59359,0.99508 -0.69608,1.3255 -0.10249,0.33041 -0.36968,0.75239 -0.59324,0.93793 -0.60096,0.49869 -0.49339,0.89151 0.14986,0.54725 0.9107,-0.48739 0.67555,0.20335 -0.42168,1.23817 l -0.97824,0.92242 -1.02784,-0.524 c -1.15547,-0.5891 -2.23187,-0.65573 -3.75378,-0.23306 -0.56946,0.15816 -1.14225,0.47832 -1.27279,0.71159 -0.19907,0.35572 -0.37975,0.2913 -1.12034,-0.40049 -0.81334,-0.75978 -1.24915,-1.69575 -0.6041,-1.29708 0.15328,0.0947 0.41128,-0.17714 0.57361,-0.6041 0.24187,-0.63618 0.18155,-1.01965 -0.3359,-2.12442 -0.77562,-1.65599 -0.749,-2.20002 0.16227,-3.283 0.39158,-0.46537 0.71692,-1.05607 0.72192,-1.31207 0.007,-0.3395 0.11033,-0.28464 0.38034,0.20257 0.27109,0.48919 0.41143,0.56402 0.52503,0.27854 0.12995,-0.32654 0.19798,-0.32856 0.41961,-0.0124 0.29883,0.42627 0.45468,0.23892 0.7183,-0.86403 0.11391,-0.47658 0.60029,-1.02838 1.29036,-1.46399 0.74404,-0.46969 1.1097,-0.9032 1.1157,-1.32137 0.004,-0.29522 0.01,-0.44385 0.0517,-0.45579 z m 16.72611,0.27492 c -0.8597,-0.0944 -1.60098,1.25419 -0.91777,2.07739 0.47125,0.56783 1.20392,0.49833 1.80971,-0.17105 0.55818,-0.61677 0.38736,-1.19918 -0.51986,-1.77146 -0.12383,-0.0781 -0.24926,-0.12139 -0.37208,-0.13488 z m -70.85097,0.27389 c -0.20272,-0.0145 -0.39644,0.004 -0.55604,0.0656 -0.36998,0.14197 -2.40347,3.58681 -2.40347,4.07158 0,0.13399 0.78273,0.68411 1.73892,1.22267 0.95618,0.53856 1.88612,0.98778 2.06705,0.99838 0.55457,0.0326 0.76904,-1.14061 0.26045,-1.42523 -0.40506,-0.22669 -0.39419,-0.35586 0.11472,-1.35341 0.47632,-0.9338 0.66399,-1.07749 1.22422,-0.93689 0.51758,0.12991 0.70474,0.0322 0.85731,-0.44855 0.23079,-0.72716 -0.2721,-1.16395 -1.16479,-1.01183 -0.40443,0.0689 -0.64775,-0.0627 -0.73535,-0.39791 -0.10399,-0.39761 -0.79484,-0.74096 -1.40302,-0.78444 z m 0.0894,1.44539 c 0.11737,-0.0106 0.22701,0.0301 0.3235,0.1266 0.19977,0.19978 0.10859,0.64228 -0.29559,1.43454 -0.32149,0.63016 -0.61344,1.14353 -0.64854,1.14153 -0.0351,-0.002 -0.24014,-0.11566 -0.45579,-0.25218 -0.32617,-0.20649 -0.33302,-0.39176 -0.0398,-1.09967 0.34257,-0.82705 0.7641,-1.31915 1.11621,-1.35082 z m 35.49861,1.33945 c -0.43718,-0.0311 -0.88515,0.14462 -1.27331,0.53278 -0.72902,0.72907 -0.70658,1.7855 0.0527,2.49287 0.80508,0.75004 1.49298,0.71567 2.32441,-0.11575 0.83302,-0.83303 0.8534,-1.25078 0.10645,-2.20038 -0.34641,-0.4404 -0.77308,-0.67843 -1.21026,-0.70952 z m 41.15976,0.58498 c -0.70637,-0.066 -1.54254,0.4702 -1.54254,1.19992 0,0.20763 0.19676,0.574 0.43718,0.81442 0.24041,0.24041 0.60731,0.43719 0.81494,0.43719 0.97295,0 1.60148,-1.48619 0.91777,-2.1699 -0.17092,-0.17092 -0.39189,-0.25963 -0.62735,-0.28163 z m 31.96963,0.50436 c -0.0795,0 -1.07196,0.38893 -2.20504,0.86455 -1.95811,0.82193 -2.04536,0.89729 -1.76526,1.51205 l 0.29455,0.64647 1.36478,-0.53795 c 0.75066,-0.29589 1.41778,-0.53795 1.48208,-0.53795 0.0643,0 -0.32728,0.74581 -0.87023,1.65726 -0.91605,1.53779 -0.96376,1.72832 -0.66198,2.64273 0.17886,0.54197 0.41907,0.98496 0.53382,0.98496 0.33566,0 3.75878,-1.41799 4.01577,-1.66347 0.12891,-0.12315 0.0929,-0.48801 -0.0801,-0.81132 -0.2878,-0.53775 -0.37863,-0.55559 -1.06867,-0.20464 -0.41486,0.21101 -1.04939,0.47471 -1.40974,0.58601 -0.63605,0.19646 -0.62681,0.15081 0.31471,-1.56424 0.91702,-1.67041 0.94901,-1.81581 0.58498,-2.67064 -0.21174,-0.49722 -0.45008,-0.90382 -0.52968,-0.90382 z m -83.85277,0.42168 c -0.11542,-0.0713 -0.44583,0.7746 -0.73432,1.87999 l -0.52451,2.00969 -2.0867,0.60927 c -1.14744,0.33488 -2.14868,0.62792 -2.22518,0.65112 -0.0765,0.0232 0.85649,0.32252 2.07325,0.66508 l 2.21227,0.6227 0.55191,2.12752 c 0.30366,1.17023 0.61773,2.06272 0.69763,1.98282 0.0799,-0.0799 0.40051,-1.03988 0.71262,-2.1332 l 0.5674,-1.98799 2.00867,-0.54312 c 1.10472,-0.29878 1.95068,-0.637 1.87998,-0.75138 -0.0707,-0.11437 -0.99507,-0.42001 -2.05413,-0.67954 l -1.92547,-0.47233 -0.4718,-1.92546 c -0.25954,-1.05906 -0.5662,-1.98387 -0.68162,-2.05517 z m -24.03419,2.45049 c -0.0217,-0.0268 -1.2231,0.0982 -2.67012,0.27802 -2.61788,0.32528 -2.63222,0.33107 -2.88354,1.2113 -0.23622,0.82736 -0.14707,1.00289 1.38131,2.71198 0.89877,1.00505 1.71384,1.8277 1.81074,1.82779 0.30965,2.7e-4 0.50066,-1.19455 0.25993,-1.6247 -0.34679,-0.61969 0.46203,-2.7411 1.1095,-2.91042 0.42149,-0.11022 1.18355,-1.2578 0.99218,-1.49397 z m 79.01068,0.74415 c -1.29864,0 -1.74736,1.32233 -0.69814,2.05723 0.64732,0.45341 1.52486,0.19809 1.80195,-0.524 0.23678,-0.61703 -0.42281,-1.53323 -1.10381,-1.53323 z m -81.81722,0.89917 c 0.0797,0.0156 0.12919,0.0602 0.12919,0.13022 0,0.14012 -0.16049,0.47476 -0.35709,0.74362 -0.33767,0.46182 -0.3866,0.45719 -0.87798,-0.0858 -0.44142,-0.48776 -0.45358,-0.57464 -0.0822,-0.57464 0.24068,0 0.63547,-0.0761 0.87747,-0.16898 0.121,-0.0464 0.23083,-0.06 0.31058,-0.0444 z m 74.5603,1.07125 c -0.43718,-0.0311 -0.88516,0.14462 -1.2733,0.53278 -0.8967,0.8967 -0.71454,2.08551 0.41754,2.72748 0.8297,0.47049 1.20602,0.40319 1.95957,-0.35036 0.83302,-0.83303 0.8534,-1.25081 0.10645,-2.20038 -0.34642,-0.4404 -0.77308,-0.67843 -1.21026,-0.70952 z m 10.54148,0.81132 h 2.80344 2.80345 l 0.45217,0.90382 c 0.24867,0.49722 0.82761,1.54394 1.28674,2.32595 l 0.83509,1.42162 -1.91306,3.27371 -1.91306,3.27318 -0.5457,-0.89762 -0.54622,-0.89762 1.36684,-2.36575 1.36632,-2.36626 -0.85886,-1.5012 -0.85886,-1.5012 -1.57923,5.2e-4 h -1.57872 l -0.76532,1.36219 c -0.42073,0.74911 -0.76482,1.56246 -0.76482,1.80764 0,0.56223 -1.8926,0.63331 -2.10529,0.0791 -0.0774,-0.20179 0.45662,-1.39111 1.187,-2.64273 z m 27.71407,0.66249 c -0.44001,-0.0518 -1.00258,0.0733 -1.75545,0.34313 -1.24268,0.4454 -1.48613,0.64712 -1.56063,1.29398 -0.11366,0.98623 0.66084,3.65703 1.2237,4.2199 0.46975,0.46975 0.68915,0.51749 1.3038,0.28163 0.49189,-0.18876 0.30009,-1.51618 -0.21911,-1.51618 -0.37446,0 -0.96842,-1.38687 -0.96842,-2.26136 0,-0.5364 1.086,-0.97511 1.76734,-0.71366 0.4382,0.16816 1.06418,2.35472 0.73277,2.55954 -0.27215,0.1682 -0.0204,1.25005 0.29094,1.25005 1.19245,0 1.40211,-1.1171 0.67127,-3.57808 -0.36083,-1.21504 -0.75286,-1.7926 -1.48621,-1.87895 z m -116.2389,0.4501 c -0.43012,0 -0.67427,0.45465 -1.23248,2.29495 -0.38284,1.26218 -0.64488,2.38847 -0.58188,2.50321 0.063,0.11473 0.34772,0.20877 0.63252,0.20877 0.35182,0 0.57792,-0.27389 0.70538,-0.85421 0.13526,-0.6158 0.30629,-0.80845 0.61392,-0.6904 0.81373,0.31226 2.88026,0.78117 2.98173,0.67645 0.0561,-0.0579 0.14564,-0.34722 0.19844,-0.64286 0.0782,-0.43768 -0.1883,-0.62162 -1.43403,-0.9896 -1.5266,-0.45096 -1.52977,-0.45395 -1.43867,-1.47898 0.0765,-0.86063 0.004,-1.02733 -0.44493,-1.02733 z m 90.49163,1.14308 c 0.20585,-0.007 0.46524,0.006 0.80719,0.0264 1.32514,0.0778 1.43199,0.14339 2.04328,1.25419 0.51476,0.93534 0.58355,1.28628 0.34159,1.73839 -0.26229,0.4901 -0.57566,0.56689 -2.32389,0.56689 -2.81127,0 -3.22202,-0.50517 -2.07378,-2.54816 0.45092,-0.80232 0.58808,-1.01521 1.20561,-1.03767 z m -32.22645,0.0465 c 0.34925,-0.0306 0.69375,-0.0316 0.99115,0.008 0.61517,0.0825 1.32066,0.36093 1.56735,0.61857 0.41675,0.43526 0.39914,0.45155 -0.24702,0.22996 -0.38247,-0.13116 -1.25872,-0.23823 -1.94716,-0.23823 -0.68846,0 -1.5337,0.10233 -1.87793,0.22738 -0.38066,0.13826 -0.6258,0.11941 -0.6258,-0.0481 0,-0.34464 1.09165,-0.70602 2.13941,-0.79789 z m 0.85007,1.73013 c 1.45393,0.13233 2.57059,0.71636 2.09755,1.31051 -0.15742,0.19772 -0.43664,1.61099 -0.62012,3.1409 -0.36009,3.00261 -0.95259,5.93972 -1.44487,7.16287 -0.78796,1.95784 -1.69298,-0.0562 -2.34404,-5.2157 -0.23167,-1.83593 -0.53212,-3.83711 -0.66766,-4.44728 -0.30653,-1.37981 -0.0613,-1.70158 1.45934,-1.91668 0.51332,-0.0726 1.03516,-0.0787 1.5198,-0.0346 z m -35.2764,1.53066 c -1.3526,0 -1.72072,1.81442 -0.47025,2.3182 0.19299,0.0777 0.39043,0.1512 0.43873,0.1633 0.36065,0.0902 1.16375,-0.65334 1.16375,-1.07746 0,-0.99847 -0.32661,-1.40404 -1.13223,-1.40404 z m 73.30096,0.55655 c 0.38898,0 0.73972,0.50556 2.3151,3.33778 l 0.85111,1.53014 -1.31982,2.22519 -1.31981,2.22518 -2.79415,0.0791 -2.79362,0.0791 -1.52911,-2.72179 c -2.45623,-4.37162 -2.3437,-3.97495 -1.12293,-3.96255 1.02799,0.0104 1.08606,0.068 2.44946,2.43396 l 1.3963,2.42362 h 1.63039 1.62988 l 0.8263,-1.46244 0.82579,-1.46193 -0.88005,-1.37201 c -0.48418,-0.7545 -1.01437,-1.41631 -1.1777,-1.47071 -0.41767,-0.13923 0.52029,-1.88257 1.01286,-1.88257 z m -8.37572,0.008 c 2.11639,-0.004 3.80244,0.0863 3.74654,0.20102 -0.90236,1.85208 -0.61398,1.71366 -3.75688,1.79886 l -2.89646,0.0786 -0.74311,1.35237 -0.7431,1.35237 0.71882,1.29036 c 0.71602,1.28544 0.72502,1.29069 2.45256,1.43041 1.32226,0.10694 1.78672,0.0461 1.95595,-0.25632 0.16822,-0.30059 0.33579,-0.17717 0.69143,0.51056 0.258,0.49901 0.40113,1.08399 0.31833,1.29967 -0.11552,0.30104 -0.79322,0.39222 -2.91662,0.39222 h -2.76572 l -1.27641,-2.21227 c -0.70185,-1.21681 -1.27589,-2.29557 -1.27589,-2.39727 0,-0.10171 0.59466,-1.23082 1.32137,-2.50889 l 1.32136,-2.32389 z m 29.9744,0.82683 c -0.4164,8.3e-4 -4.24622,0.79009 -4.35323,0.8971 -0.0664,0.0664 0.0847,1.14314 0.33539,2.39313 0.3869,1.92912 0.53916,2.27273 1.0082,2.27273 0.50243,0 0.5361,-0.12654 0.36794,-1.39423 -0.10172,-0.76682 -0.25687,-1.58001 -0.34417,-1.80764 -0.0961,-0.25041 0.002,-0.41393 0.24908,-0.41393 0.27498,0 0.48875,0.47475 0.65578,1.45728 0.18519,1.08942 0.37995,1.48241 0.77049,1.55701 0.47295,0.0903 0.5035,-0.0249 0.32505,-1.21491 -0.10843,-0.72301 -0.26315,-1.48609 -0.34365,-1.69602 -0.0844,-0.21984 0.032,-0.38189 0.2744,-0.38189 0.29177,0 0.47738,0.40965 0.60462,1.3348 0.10095,0.73402 0.27897,1.48934 0.39584,1.67845 0.25712,0.41603 1.22399,0.10731 1.05523,-0.33693 -0.0652,-0.1715 -0.27986,-1.21935 -0.47749,-2.32854 -0.19763,-1.10919 -0.43328,-2.01659 -0.52348,-2.01641 z M 39.84718,131.2286 c -0.38376,0 -0.79294,0.15384 -0.90898,0.34159 -0.4154,0.67211 -0.89204,3.9471 -0.64234,4.41368 0.35664,0.66637 1.68911,0.85596 2.28099,0.32453 0.44819,-0.40244 0.4868,-0.3897 0.4868,0.16226 0,0.81646 0.97235,0.79354 1.51567,-0.0357 0.22886,-0.34927 0.49982,-1.53474 0.60203,-2.63446 0.18469,-1.98721 0.18121,-2.00123 -0.56689,-2.28565 -0.414,-0.1574 -0.86061,-0.28629 -0.99271,-0.28629 -0.54804,0 -1.09434,0.92762 -1.39268,2.36472 -0.37795,1.82056 -1.00142,2.12934 -0.71778,0.35553 0.10325,-0.64563 0.28978,-1.23975 0.41496,-1.32085 0.12518,-0.0811 0.31581,-0.42936 0.42323,-0.77359 0.16685,-0.53458 0.0937,-0.62581 -0.5023,-0.62581 z m 92.59384,1.39062 c 0.24755,0 0.37313,0.12554 0.27853,0.27853 -0.0946,0.15299 -0.22015,0.27802 -0.27853,0.27802 -0.0584,0 -0.18342,-0.12503 -0.27802,-0.27802 -0.0946,-0.15299 0.0305,-0.27853 0.27802,-0.27853 z m -4.35271,0.003 c 0.62229,0.002 0.88648,0.28429 1.7017,1.81901 0.75777,1.42654 0.90087,1.91945 0.66663,2.29288 -0.20305,0.32369 -0.74553,0.50213 -1.6986,0.55863 -1.39426,0.0826 -1.40335,0.0774 -2.08463,-1.14154 l -0.6842,-1.22421 0.6811,-1.15342 c 0.52711,-0.89256 0.84796,-1.15335 1.418,-1.15135 z m 8.65477,0 c 0.53095,0.002 0.86317,0.27864 1.34565,1.12345 l 0.64079,1.12189 -0.64492,1.17099 c -0.61152,1.11117 -0.71596,1.17505 -2.05001,1.25315 -1.24084,0.0726 -1.44092,0.007 -1.70015,-0.56224 -0.246,-0.53991 -0.13101,-0.92614 0.70538,-2.37711 0.81176,-1.40826 1.13026,-1.73213 1.70326,-1.73013 z m -94.79628,0.27595 c 0.29106,0 0.12247,2.00145 -0.21446,2.54662 -0.22047,0.35673 -0.66914,0.28096 -0.66714,-0.11266 0.003,-0.78285 0.60155,-2.43396 0.8816,-2.43396 z m -7.88479,1.24644 c -0.24417,2.02373 -0.37353,4.90717 -0.37672,7.84758 0.003,-2.94044 0.13253,-5.82395 0.37672,-7.84758 z m 26.85366,3.79305 c -0.6136,0.12255 -0.94304,0.96278 -0.32505,1.58078 0.44188,0.44188 0.65187,0.42146 1.18908,-0.11575 0.50813,-0.50815 0.45205,-0.9147 -0.18036,-1.31362 -0.24313,-0.15337 -0.47915,-0.19226 -0.68367,-0.15141 z m 61.29186,0.0723 c 0.15422,0.15422 -6.62059,3.26953 -10.47326,4.81624 -11.29769,4.53559 -26.15758,8.52669 -36.03708,9.67848 -5.69802,0.6643 -9.50429,0.42588 -10.835,-0.67851 -1.52322,-1.26417 1.07695,-4.31738 7.17786,-8.42895 2.46584,-1.66178 8.88,-5.49966 8.99945,-5.38468 0.0325,0.0313 -0.31159,1.2918 -0.76481,2.80138 -0.45323,1.50957 -0.82424,2.78342 -0.82424,2.83032 0,0.0469 -0.91051,0.69978 -2.02313,1.45055 -2.26938,1.53136 -4.09639,3.39642 -4.09639,4.18166 0,1.02125 0.76854,1.28724 3.59099,1.24334 6.74325,-0.10493 27.54098,-5.74965 42.36693,-11.49904 1.55739,-0.60395 2.87078,-1.05869 2.91868,-1.01079 z m -3.27267,2.70474 c 0.39504,0.0689 0.66046,1.2536 1.81281,6.23063 1.38666,5.98895 3.52533,19.20962 3.47783,21.49894 -0.005,0.26188 -0.63299,-1.02595 -1.39475,-2.86184 -4.47023,-10.77364 -9.04674,-17.85835 -11.87886,-18.39061 -3.61854,-0.68004 -10.13793,2.21684 -16.34112,7.26106 -2.8432,2.31198 -8.24499,7.75885 -11.17452,11.26856 -1.08544,1.30043 -3.24911,4.05109 -4.80849,6.11281 l -2.83548,3.74861 0.18241,-1.80144 c 0.72788,-7.18738 1.36891,-12.44523 1.988,-16.3096 0.6821,-4.25773 0.75457,-4.501 1.38182,-4.62091 0.36415,-0.0693 0.6625,-0.0665 0.6625,0.006 0,0.0727 -0.30531,1.96418 -0.67852,4.20336 -0.58599,3.5159 -1.00936,6.67281 -1.69963,12.67468 l -0.15813,1.37098 1.59163,-2.06654 c 5.01377,-6.50948 11.60861,-13.31502 16.32459,-16.84652 6.24187,-4.67415 12.61357,-7.14751 16.03778,-6.22546 2.43746,0.65634 5.54606,4.45157 8.77569,10.71356 l 1.5782,3.05976 -0.17984,-1.52962 c -0.30677,-2.6069 -1.51553,-8.85269 -2.52646,-13.05502 -0.75453,-3.13649 -0.88862,-4.06278 -0.6134,-4.23747 0.19815,-0.12577 0.34426,-0.22709 0.47594,-0.20412 z m -39.57846,4.23592 c 0.0798,0.0798 -0.0886,1.18721 -0.37465,2.46083 l -0.52039,2.31562 -1.66139,0.0429 c -3.02418,0.0785 -3.31111,-0.32338 -1.45263,-2.03398 1.46447,-1.34796 3.81413,-2.9803 4.00906,-2.78536 z m 76.47078,2.13372 c -0.0874,0 0.18497,0.62617 0.60565,1.39113 l 0.76533,1.39061 -0.76533,1.39061 c -0.42068,0.76496 -0.7022,1.39113 -0.6258,1.39113 0.0764,0 0.74336,-0.33738 1.48208,-0.74982 l 1.34307,-0.74983 1.29966,0.7612 c 0.71478,0.41889 1.29967,0.68517 1.29967,0.59117 0,-0.0939 -0.32491,-0.72504 -0.72192,-1.40249 l -0.72192,-1.23197 0.72192,-1.23145 c 0.39701,-0.67746 0.72192,-1.31085 0.72192,-1.40715 0,-0.0963 -0.60898,0.1668 -1.35289,0.58498 l -1.35238,0.76068 -1.2702,-0.74466 c -0.6985,-0.40934 -1.34136,-0.74414 -1.42886,-0.74414 z m -112.39417,0.0517 c -0.0553,-0.0553 -0.69081,0.24534 -1.41232,0.66818 l -1.31206,0.76895 -1.35237,-0.76068 c -0.74392,-0.41818 -1.35237,-0.66978 -1.35237,-0.55966 0,0.11013 0.318,0.743 0.70693,1.40663 l 0.70693,1.20665 -0.70693,1.20664 c -0.38893,0.66366 -0.70693,1.29702 -0.70693,1.40715 0,0.11013 0.60845,-0.142 1.35237,-0.56017 l 1.35237,-0.76068 1.31206,0.76895 c 0.72151,0.42284 1.35702,0.72348 1.41232,0.66818 0.0553,-0.0553 -0.26769,-0.69229 -0.71778,-1.41542 l -0.81804,-1.31465 0.81804,-1.31465 c 0.45009,-0.72313 0.77308,-1.36012 0.71778,-1.41542 z m 81.70199,0.27544 c -0.11444,-0.0143 -0.22943,-0.008 -0.3421,0.0186 -0.15021,0.0361 -0.29655,0.10927 -0.43201,0.22169 -0.48974,0.40644 -0.52728,1.42298 -0.0698,1.88051 0.92061,0.92061 2.50426,-0.37603 1.78491,-1.46141 -0.25893,-0.3907 -0.59769,-0.61647 -0.94103,-0.65939 z m 3.69952,3.60391 c -0.324,-0.0175 -0.68981,0.11502 -1.03095,0.42375 -0.62382,0.56454 -0.64441,1.033 -0.0713,1.6061 0.84018,0.84018 2.06654,0.35647 2.06654,-0.81493 0,-0.74011 -0.42429,-1.18571 -0.96428,-1.21492 z m -22.58519,3.55017 c -0.29506,-0.0121 -0.60375,0.0932 -0.87385,0.36329 -0.4919,0.4919 -0.40582,1.54367 0.15297,1.86914 0.71488,0.41638 1.03798,0.36466 1.60041,-0.25684 0.76828,-0.84892 0.006,-1.93936 -0.87953,-1.97559 z m 27.98486,0.39275 c -0.14085,-0.0326 -0.28124,-0.031 -0.40515,0.0165 -0.68885,0.26433 -0.84076,1.04933 -0.28215,1.45779 0.57178,0.4181 1.53686,0.0653 1.53686,-0.56172 0,-0.4082 -0.42703,-0.81486 -0.84956,-0.9126 z m -64.40279,1.942 c -1.00849,0.0406 -1.68233,1.30303 -0.89555,2.08979 0.46114,0.46117 1.47487,0.418 1.88825,-0.0801 0.46249,-0.55727 0.13492,-1.73248 -0.54312,-1.94768 -0.15443,-0.049 -0.30551,-0.0678 -0.44958,-0.062 z m -7.2254,0.36018 c -0.1295,-0.0825 -0.21007,0.27387 -0.42581,0.95136 -0.34575,1.08577 -0.51909,1.26376 -1.43661,1.47898 -0.57371,0.13457 -1.04283,0.34508 -1.04283,0.46767 0,0.1226 0.46912,0.33258 1.04283,0.46716 0.91752,0.21521 1.09086,0.39373 1.43661,1.4795 0.43148,1.35498 0.32195,1.42436 1.14515,-0.72968 0.14775,-0.38663 0.56961,-0.65499 1.22111,-0.77721 1.27454,-0.2391 1.27454,-0.64042 0,-0.87953 -0.6515,-0.12222 -1.07336,-0.3911 -1.22111,-0.77773 -0.4116,-1.07702 -0.58984,-1.59805 -0.71934,-1.68052 z m 73.27822,2.1177 c -0.84179,-0.0976 -1.27967,0.61995 -0.76016,1.24592 0.53352,0.64288 1.48983,0.34417 1.48983,-0.46561 0,-0.54345 -0.15962,-0.71421 -0.72967,-0.78031 z m -99.91018,0.28784 c 1.68223,6.05043 4.19071,11.76126 7.41298,16.99638 -3.22223,-5.23515 -5.73079,-10.94591 -7.41298,-16.99638 z m 9.35446,2.20296 c -0.32318,0.035 -0.83262,0.24385 -1.69188,0.64389 -1.29835,0.60446 -1.46038,0.77483 -1.46038,1.53634 0,0.4711 0.31517,1.47824 0.70022,2.23811 0.8083,1.59509 1.40287,1.74035 3.40289,0.83251 1.22885,-0.55779 1.33849,-0.72017 0.92707,-1.36995 -0.20887,-0.32993 -0.4203,-0.3191 -1.39216,0.0698 -0.63025,0.25217 -1.27477,0.45837 -1.43247,0.45837 -0.27701,0 -1.21962,-1.91352 -1.03404,-2.0991 0.0504,-0.0504 0.68359,-0.3451 1.40714,-0.65526 1.41032,-0.60453 1.40081,-0.59405 1.1467,-1.25625 -0.1131,-0.29472 -0.2499,-0.43343 -0.57309,-0.39843 z m 53.62929,0.23668 c -1.01674,0 -1.55362,1.43018 -0.81442,2.16938 0.68371,0.68371 2.16937,0.0552 2.16937,-0.91777 0,-0.52977 -0.78145,-1.25161 -1.35495,-1.25161 z m 54.64266,0.60875 c -0.58655,0.0152 -1.20143,0.84504 -1.70481,2.32596 -0.61555,1.8109 -0.37503,2.48925 0.88212,2.48925 0.67091,0 0.90599,-0.20208 1.41903,-1.21905 0.33822,-0.67045 0.66549,-1.35861 0.72709,-1.52962 0.0616,-0.17095 0.20665,-0.22286 0.32246,-0.11524 0.3439,0.31956 -0.0892,1.53422 -0.83251,2.33629 -0.77861,0.84014 -0.85003,1.11353 -0.34519,1.31724 0.19124,0.0772 0.43862,0.15016 0.54983,0.16226 0.31374,0.0341 1.03317,-1.18559 1.63711,-2.77502 0.51711,-1.36097 0.52151,-1.47454 0.0765,-1.96629 -0.90142,-0.99606 -1.70765,-0.67554 -2.53318,1.00769 -0.41269,0.84145 -0.86296,1.53014 -1.00045,1.53014 -0.1375,0 -0.17403,-0.19829 -0.0811,-0.44029 0.0928,-0.242 0.16898,-0.5485 0.16898,-0.68109 0,-0.1326 0.31308,-0.57847 0.69556,-0.99115 0.80445,-0.86802 0.86341,-1.17855 0.26769,-1.40715 -0.0822,-0.0316 -0.16529,-0.0461 -0.24908,-0.0439 z m -82.19809,0.50385 c -0.82076,0 -1.24823,0.95576 -0.68109,1.5229 0.50763,0.50763 0.91377,0.45188 1.31258,-0.18035 0.38042,-0.6031 0.0327,-1.34255 -0.63149,-1.34255 z m 33.74781,2.53473 c -0.87369,-0.10205 -1.62245,1.23601 -0.93017,2.07015 0.18347,0.22106 0.55313,0.40205 0.82165,0.40205 1.12233,0 1.47937,-1.71253 0.4868,-2.33475 -0.12608,-0.079 -0.25346,-0.12288 -0.37828,-0.13745 z m -38.74543,1.12602 c -0.17338,-0.0417 -0.37075,0.0221 -0.69092,0.16795 -0.54486,0.24826 -0.72812,0.53716 -0.72812,1.14877 0,0.44951 0.15654,0.88327 0.34778,0.96377 1.41192,0.5943 2.54221,-0.67352 1.61799,-1.81488 -0.22412,-0.27678 -0.37336,-0.42391 -0.54673,-0.46561 z m 22.82599,0.0646 c -0.71235,0.0938 -1.19208,0.87633 -0.85524,1.76837 0.23403,0.61977 0.89248,0.79035 1.76165,0.45682 0.66164,-0.2539 0.56575,-1.69147 -0.13798,-2.06809 -0.26759,-0.14321 -0.53098,-0.18837 -0.76843,-0.1571 z m -41.4755,0.23513 c -3.22479,1.60001 -3.63998,1.90278 -3.35019,2.44429 0.3615,0.67547 0.32675,0.67587 1.70119,-0.0253 l 1.12603,-0.57464 -0.19895,0.6444 c -0.1094,0.35422 -0.41885,1.07765 -0.6873,1.60766 -0.44906,0.88667 -0.45323,1.03643 -0.0522,1.8774 0.23971,0.50269 0.49467,0.91416 0.56637,0.91416 0.0717,0 0.9256,-0.44502 1.89756,-0.98857 1.56381,-0.87454 1.73395,-1.05031 1.47743,-1.52962 -0.35664,-0.66637 -0.30247,-0.66824 -1.51825,0.0491 -0.55074,0.32495 -1.04753,0.54399 -1.10433,0.48679 -0.0568,-0.0572 0.18494,-0.78571 0.53744,-1.61902 0.60554,-1.4315 0.61683,-1.56608 0.2005,-2.43913 -0.24235,-0.50822 -0.51021,-0.88969 -0.59531,-0.84749 z m 103.48309,0.35088 c -0.43259,0 -2.57538,3.72605 -2.35128,4.08864 0.27996,0.45299 0.96075,0.20276 1.26504,-0.46509 l 0.31367,-0.68833 1.35651,0.75758 c 1.16572,0.65108 1.39456,0.69906 1.62367,0.34055 0.43129,-0.67487 0.3393,-0.81028 -0.98391,-1.45314 -0.92036,-0.44714 -1.20928,-0.72691 -1.07487,-1.03973 0.33154,-0.77164 0.25727,-1.54048 -0.14883,-1.54048 z m -35.04283,0.43667 c -0.16837,-0.005 -0.34331,0.0427 -0.51366,0.14934 -0.60302,0.37757 -0.80375,1.77299 -0.30076,2.09186 0.20349,0.129 0.55806,0.23461 0.78755,0.23461 0.76642,0 1.15815,-0.45834 1.06505,-1.2454 -0.0871,-0.73662 -0.53303,-1.21656 -1.03818,-1.23041 z m -5.01468,0.83974 c -0.34249,0.0142 -0.70258,0.20169 -0.9772,0.59376 -0.53942,0.76998 -0.5389,0.90496 0.004,1.44797 0.84017,0.84018 2.06654,0.35699 2.06654,-0.81442 0,-0.7935 -0.52265,-1.25103 -1.09348,-1.22731 z m -39.63944,1.40922 c -0.62747,-0.12084 -1.30199,0.66325 -1.07642,1.25108 0.0947,0.24687 0.44031,0.3719 0.8847,0.3204 0.56885,-0.066 0.72967,-0.23684 0.72967,-0.77618 0,-0.46257 -0.17815,-0.726 -0.53795,-0.7953 z m 30.63741,0.93069 -0.38396,1.28984 c -0.35959,1.20848 -0.46732,1.3123 -1.69808,1.64021 l -1.31362,0.35037 1.32137,0.39274 c 1.23282,0.3664 1.34219,0.47555 1.63246,1.62832 0.17111,0.67956 0.35679,1.23559 0.41289,1.23559 0.0561,0 0.23913,-0.54483 0.40669,-1.21027 0.27961,-1.1104 0.41152,-1.24425 1.60352,-1.63039 l 1.29915,-0.42064 -1.29501,-0.34313 c -1.22144,-0.32346 -1.31453,-0.41619 -1.64021,-1.63763 z m 46.47675,0.93896 c -0.26975,0.0537 -0.64624,0.52068 -1.41542,1.67742 l -1.27744,1.92133 1.72341,1.13584 c 0.94789,0.62492 1.75197,1.13795 1.78697,1.13895 0.22368,0.009 2.52582,-3.75302 2.41071,-3.93929 -0.32637,-0.52807 -0.94101,-0.15566 -1.68414,1.02061 -0.76191,1.206 -1.20768,1.56316 -1.20768,0.9679 0,-0.15627 0.32496,-0.77474 0.72192,-1.3746 0.64302,-0.97166 0.71302,-1.67945 0.16588,-1.67845 -0.10571,2.8e-4 -0.54795,0.56369 -0.98288,1.25212 -0.43494,0.68844 -0.91124,1.17714 -1.05834,1.08624 -0.15869,-0.0981 -0.0917,-0.43775 0.16485,-0.83509 0.2378,-0.36831 0.62283,-0.96462 0.85576,-1.3255 0.35802,-0.55466 0.36427,-0.70514 0.0408,-0.97358 -0.0768,-0.0637 -0.15452,-0.0918 -0.24443,-0.0739 z m -97.63849,0.83406 c -0.321,0.005 -0.85659,0.28027 -1.81487,0.91002 -1.53053,1.00582 -1.67687,1.18162 -1.3808,1.65571 0.1822,0.29175 0.39796,0.49914 0.47956,0.46044 0.0816,-0.0387 0.86129,-0.5084 1.73271,-1.04387 1.62303,-0.99732 1.87073,-1.37679 1.24075,-1.89962 -0.067,-0.0557 -0.15034,-0.0842 -0.25735,-0.0827 z m 0.59377,1.43298 c -0.12318,0.007 -0.23461,0.0651 -0.34055,0.17105 -0.098,0.098 0.0337,0.53659 0.29249,0.97462 0.44934,0.76072 0.44579,0.8134 -0.077,1.18029 -1.70724,1.19813 -1.93271,1.48212 -1.54719,1.94665 0.48656,0.58627 0.46049,0.59294 1.76371,-0.43925 l 1.1219,-0.88883 0.60978,0.76481 c 0.52981,0.66445 0.6551,0.70994 0.95653,0.34675 0.38377,-0.46242 0.37178,-0.48894 -1.18339,-2.60708 -0.75142,-1.02342 -1.22675,-1.46894 -1.59628,-1.44901 z m 41.90958,0.0729 c -0.14407,-0.006 -0.29514,0.013 -0.44958,0.062 -0.67804,0.2152 -1.00612,1.39042 -0.54364,1.94768 0.41339,0.49807 1.42764,0.54123 1.88878,0.0801 0.78676,-0.78677 0.11293,-2.04918 -0.89556,-2.08979 z m 51.95445,2.01021 c -0.0942,0.029 -0.17816,0.0955 -0.27285,0.19017 -0.37873,0.37873 -0.29937,0.52908 0.75965,1.43557 l 1.18339,1.01286 h -1.94872 c -1.71527,0 -2.02633,0.0827 -2.59726,0.6904 l -0.64905,0.69039 0.80356,0.63097 c 0.44184,0.34696 1.11885,0.9086 1.5043,1.24799 0.84781,0.74648 1.2767,0.79134 1.51929,0.15916 0.12862,-0.33516 -0.12938,-0.74754 -0.87436,-1.39836 l -1.05679,-0.92346 1.90273,0.077 c 1.7121,0.069 1.95591,0.0106 2.43396,-0.57981 0.2922,-0.36085 0.53123,-0.75176 0.53123,-0.8692 0,-0.11743 -0.69515,-0.74973 -1.54461,-1.40508 -1.03678,-0.79989 -1.41182,-1.04571 -1.69447,-0.9586 z m -38.90305,1.52601 c -1.19043,0 -1.75499,1.62624 -0.76481,2.20296 0.68669,0.39996 1.07635,0.36595 1.57923,-0.13694 0.84018,-0.84018 0.35699,-2.06602 -0.81442,-2.06602 z m -51.52657,0.33951 -1.5875,1.42989 -1.58801,1.42937 1.43453,1.59938 c 1.34961,1.50519 2.00859,1.89468 2.32906,1.37615 0.0759,-0.12283 -0.35021,-0.79449 -0.94723,-1.49294 -0.59702,-0.69846 -0.99812,-1.3578 -0.8909,-1.46502 0.10723,-0.10722 0.65802,0.34587 1.2237,1.00665 0.79197,0.92514 1.10496,1.12593 1.36064,0.87385 0.25649,-0.25286 0.0946,-0.61679 -0.71055,-1.59938 -1.29783,-1.58383 -0.72762,-1.69151 0.66249,-0.12506 0.87247,0.98315 1.0673,1.08799 1.36167,0.73329 0.28516,-0.3436 0.0897,-0.69829 -1.15186,-2.0898 z m 3.437,3.84473 -1.32498,1.45469 c -0.729,0.79995 -1.32062,1.5792 -1.31362,1.73219 0.007,0.15299 0.75071,0.93571 1.65365,1.73891 0.90294,0.80321 1.87872,1.46038 2.16834,1.46038 0.56355,0 2.53835,-1.99945 2.53835,-2.56987 0,-0.18838 -0.8374,-1.12411 -1.86087,-2.07946 z m 81.96296,0.37775 c -0.13958,0.007 -0.2445,0.0336 -0.31575,0.0786 -0.91229,0.57547 -0.95921,1.06348 -0.31212,3.24321 0.61331,2.06593 0.65377,2.12384 1.15962,1.66605 0.2883,-0.26088 0.45338,-0.65963 0.36638,-0.88625 -0.21586,-0.56252 1.43711,-2.23767 2.05001,-2.07739 0.26089,0.0682 0.69098,-0.11493 0.9555,-0.40721 0.46654,-0.51555 0.41672,-0.55039 -1.65985,-1.16686 -1.09186,-0.32411 -1.82506,-0.47228 -2.24379,-0.4501 z m 0.14004,1.16582 c 0.0389,-0.0121 0.0982,-0.006 0.1819,0.0145 0.11164,0.0276 0.26623,0.0816 0.47232,0.15348 0.78871,0.27495 0.80473,0.31199 0.35192,0.81235 -0.5985,0.66133 -0.55974,0.6735 -0.89503,-0.28835 -0.15891,-0.45584 -0.22777,-0.65552 -0.11111,-0.69195 z m -81.71542,0.29146 0.8325,0.79736 c 0.96592,0.92541 1.0244,1.26836 0.32401,1.90221 -0.66279,0.59981 -0.62873,0.6093 -1.66604,-0.46095 l -0.89297,-0.92139 0.70125,-0.65888 z m -10.12807,0.16174 c 0.97697,1.18133 1.99562,2.32881 3.05304,3.4401 2.11503,2.22277 4.38737,4.30113 6.80321,6.21823 6.03959,4.79275 12.97529,8.5771 20.58789,11.08821 1.08879,0.35915 2.22823,0.6947 3.40961,1.00459 3.54413,0.92967 7.46669,1.62969 11.53935,2.05362 h 5.1e-4 c 1.66917,0.17375 7.74307,0.0381 11.75691,-0.20257 1.33794,-0.0802 2.44692,-0.17231 3.08766,-0.2682 4.51149,-0.67519 8.83516,-1.75508 12.96304,-3.2365 -4.12807,1.48153 -8.45132,2.56179 -12.96304,3.23702 -0.64074,0.0959 -1.74972,0.18747 -3.08766,0.26768 -4.01384,0.24064 -10.08774,0.37683 -11.75691,0.20309 h -5.1e-4 c -4.07267,-0.42393 -7.99522,-1.12447 -11.53935,-2.05414 -1.18138,-0.30989 -2.32081,-0.64492 -3.40961,-1.00407 -7.61263,-2.51111 -14.5483,-6.29598 -20.58789,-11.08873 -2.41574,-1.91702 -4.68825,-3.99556 -6.80321,-6.21823 -1.0576,-1.11146 -2.07591,-2.25857 -3.05304,-3.4401 z m 86.50066,2.87166 c -0.0956,-0.0227 -0.18176,-0.0186 -0.25993,0.0114 -0.6725,0.25807 -0.57576,0.55141 0.72709,2.20245 0.65021,0.82399 1.24487,1.5035 1.32137,1.5105 0.0765,0.007 0.79838,-0.58084 1.60403,-1.30586 1.11508,-1.00345 1.40113,-1.41541 1.19838,-1.72548 -0.22186,-0.33931 -0.45148,-0.25846 -1.37563,0.48421 l -1.10949,0.89142 -0.9555,-1.11569 c -0.49216,-0.57499 -0.86349,-0.88474 -1.15032,-0.95292 z m -70.1337,1.04387 c -0.0202,0.0312 -0.55813,0.83386 -1.19528,1.78387 -1.13612,1.69402 -1.1469,1.73333 -0.57257,2.0407 0.48748,0.26089 0.65292,0.21729 0.98754,-0.26045 0.40042,-0.57168 0.40616,-0.57074 1.53789,0.24908 0.62488,0.45266 1.24588,0.75501 1.37976,0.67231 0.51735,-0.31974 0.19791,-0.90806 -0.87953,-1.62109 -0.61742,-0.40859 -1.04385,-0.87026 -0.94775,-1.02578 0.11141,-0.18027 0.41747,-0.12577 0.84439,0.14987 0.36831,0.2378 0.96131,0.62057 1.31775,0.85059 0.65644,0.42362 1.02113,0.32039 1.02113,-0.28939 0,-0.27428 -3.37255,-2.73581 -3.49333,-2.54971 z m 68.79994,0.37 c -0.43261,-0.0285 -1.00145,0.23011 -1.86449,0.76584 -2.20199,1.36693 -2.23976,1.49774 -0.9679,3.32952 0.59777,0.86091 1.16542,1.56638 1.26142,1.56838 0.37168,0.007 0.80026,-0.78168 0.64492,-1.18649 -0.11118,-0.28972 0.24286,-0.70498 1.10795,-1.30018 1.40496,-0.96664 1.45113,-1.08464 0.86454,-2.21899 -0.31731,-0.6136 -0.61384,-0.92954 -1.04644,-0.95808 z m 12.36307,0.24598 c -9e-5,9e-5 8e-5,4.3e-4 0,5.2e-4 -3.23216,3.22914 -6.67636,6.06517 -10.32444,8.50439 3.6483,-2.43931 7.09211,-5.2756 10.32444,-8.50491 z m -12.9465,1.08314 c 0.1845,-0.0349 0.28969,0.0347 0.39067,0.19482 0.16352,0.25923 0.0852,0.51002 -0.23668,0.75602 -1.01081,0.77257 -1.38941,0.88061 -1.7141,0.48938 -0.25212,-0.30379 -0.10918,-0.51097 0.69453,-1.00769 0.41764,-0.25812 0.68108,-0.39766 0.86558,-0.43253 z m -64.06224,1.02422 -1.04748,1.82108 c -0.57597,1.00142 -1.00602,1.85299 -0.95602,1.89239 0.05,0.0394 0.90467,0.52677 1.89911,1.08314 0.99445,0.55636 1.93319,0.97196 2.08618,0.92346 0.6582,-0.20864 0.18176,-0.92736 -1.04231,-1.572 -1.27482,-0.67137 -1.67105,-1.11259 -0.99891,-1.11259 0.1778,0 0.85345,0.311 1.50172,0.69091 1.03926,0.60905 1.1993,0.63711 1.35237,0.23823 0.0955,-0.24882 0.13957,-0.47728 0.0977,-0.50798 -0.0419,-0.0307 -0.6081,-0.34885 -1.25832,-0.70693 -0.65021,-0.35809 -1.18236,-0.75316 -1.18236,-0.87798 0,-0.36331 0.33843,-0.26522 1.62678,0.47128 0.66529,0.38034 1.32247,0.62161 1.46037,0.53641 0.59013,-0.36472 0.13047,-0.88116 -1.64589,-1.84847 z m 57.76495,1.79059 c -0.20297,-0.12544 -3.37626,1.24503 -3.84938,1.66243 -0.0457,0.0403 0.31939,0.88964 0.81132,1.88723 0.83481,1.69291 0.93699,1.7941 1.53221,1.5229 0.50341,-0.22937 0.58165,-0.39554 0.37103,-0.7891 -0.39008,-0.72887 -0.37878,-0.74602 0.97462,-1.43402 0.95749,-0.48672 1.18359,-0.72498 0.98806,-1.04128 -0.21812,-0.35281 -0.4292,-0.3246 -1.50896,0.19999 -0.80381,0.39054 -1.3191,0.50619 -1.43298,0.32194 -0.21804,-0.3528 -0.24689,-0.32768 1.19889,-1.05678 1.17055,-0.5903 1.43203,-0.95389 0.91519,-1.27331 z m -53.17247,0.68162 -0.83767,1.84794 c -0.46085,1.01638 -0.73564,1.94931 -0.6103,2.07326 0.12534,0.12395 1.08953,0.59238 2.1425,1.04077 1.05298,0.44838 2.14037,0.75588 2.41639,0.68368 0.61957,-0.16202 1.73005,-2.44289 1.51671,-3.11506 -0.15594,-0.49132 -0.37184,-0.61936 -3.15123,-1.86759 z m 0.92915,1.72185 c 0.25305,-0.0201 0.63185,0.15562 1.32963,0.5116 1.10045,0.5614 1.19835,0.94475 0.47749,1.87637 -0.34269,0.44289 -0.40844,0.4341 -1.6614,-0.22737 -1.18462,-0.62538 -1.15039,-0.5543 -0.72037,-1.4981 0.19447,-0.4268 0.32159,-0.64241 0.57465,-0.6625 z m 46.94648,0.0258 c -1.14759,-0.0797 -3.99114,1.2309 -4.11344,1.89601 -0.0443,0.24093 0.17037,1.02364 0.47697,1.73891 0.50397,1.1757 0.64501,1.2994 1.47123,1.2914 0.50266,-0.005 1.60285,-0.34901 2.4443,-0.76481 1.75589,-0.8677 1.96301,-1.39078 1.19734,-3.02256 -0.42874,-0.91371 -0.64665,-1.08135 -1.4764,-1.13895 z m -42.18657,0.76275 c -0.23346,0 -1.23023,2.81842 -1.32033,3.7331 -0.0139,0.14088 0.85091,0.53626 1.92185,0.8785 2.13112,0.68101 2.46385,0.69118 2.58278,0.0786 0.0542,-0.27907 -0.41167,-0.56446 -1.46037,-0.89504 -0.84696,-0.26698 -1.53996,-0.60691 -1.53996,-0.75499 0,-0.2684 0.91664,-0.12507 2.1792,0.34055 0.66489,0.24521 1.1591,0.11121 1.1591,-0.31471 0,-0.13167 -0.62617,-0.44769 -1.39113,-0.70177 -0.76496,-0.25407 -1.39061,-0.57708 -1.39061,-0.71778 0,-0.35161 0.29615,-0.32266 1.66914,0.16174 1.5098,0.53272 1.66864,0.52475 1.66864,-0.0842 0,-0.37458 -0.48011,-0.65623 -1.89705,-1.11259 -1.04353,-0.33609 -2.0251,-0.61133 -2.18126,-0.61133 z m 41.97625,0.39532 c 0.315,0.0761 0.47329,0.39568 0.62994,1.03043 0.1537,0.62279 0.0645,0.77186 -0.60617,1.01441 -0.43252,0.15642 -0.98512,0.36547 -1.22835,0.46457 -0.57114,0.23273 -1.15703,-0.47325 -1.03973,-1.25315 0.0603,-0.40105 0.44786,-0.74594 1.15239,-1.02578 0.28978,-0.1151 0.52482,-0.19316 0.71882,-0.2279 0.14549,-0.026 0.2681,-0.0279 0.3731,-0.003 z m 14.42599,1.02009 c -4.37776,2.92705 -9.04983,5.28224 -14.00328,7.06004 4.95346,-1.77775 9.6255,-4.13305 14.00328,-7.06004 z m -51.08215,0.22015 c -0.34647,-0.0258 -0.51792,0.0198 -0.55707,0.13384 -0.0598,0.17425 -0.28355,1.09633 -0.49713,2.04897 -0.36969,1.64899 -0.36236,1.74014 0.14986,1.90272 0.34207,0.10856 0.66641,-0.005 0.89039,-0.31109 0.4825,-0.65985 2.38848,-0.34226 2.38848,0.39791 0,0.27355 0.0875,0.58518 0.19482,0.69246 0.40274,0.40275 1.05821,0.003 1.08831,-0.66404 0.0171,-0.37967 0.17316,-1.0426 0.34726,-1.47329 0.65631,-1.62354 0.53008,-1.75215 -2.39623,-2.43241 -0.74054,-0.17215 -1.26222,-0.26926 -1.60869,-0.29507 z m 28.84165,0.0336 c -0.75731,0 -0.83454,0.19943 -0.55552,1.44125 0.14067,0.62462 0.20496,1.18565 0.14366,1.24695 -0.0613,0.0613 -0.64086,-0.33077 -1.28778,-0.87126 -1.15269,-0.96304 -2.24351,-1.23369 -3.01015,-0.74724 -0.19645,0.12463 -0.29801,0.40443 -0.22531,0.62166 0.0726,0.21726 0.27486,1.11993 0.44907,2.00608 0.28871,1.46851 0.37008,1.59471 0.92036,1.42576 0.33204,-0.10194 0.62772,-0.2045 0.65732,-0.2279 0.0297,-0.0234 -0.0684,-0.58793 -0.21807,-1.25418 -0.14973,-0.66626 -0.23194,-1.25118 -0.18294,-1.30018 0.049,-0.049 0.67512,0.41228 1.39165,1.02474 1.15484,0.9871 1.41441,1.09249 2.28513,0.92914 0.54024,-0.10135 0.97913,-0.26455 0.97513,-0.36225 -0.006,-0.16016 -0.31832,-1.64334 -0.69608,-3.30677 -0.0833,-0.36685 -0.35067,-0.6258 -0.64647,-0.6258 z m -27.92749,1.21956 c 0.26774,0.0795 0.83087,0.22676 1.2516,0.32711 0.42073,0.10034 0.76533,0.35658 0.76533,0.56948 0,0.3816 -0.58087,0.44051 -1.87792,0.19068 -0.39998,-0.077 -0.62581,-0.32078 -0.62581,-0.67593 0,-0.39891 0.13737,-0.51515 0.4868,-0.41134 z m 6.34328,0.10387 c -0.42728,0.0441 -0.72905,0.43384 -1.64073,1.75855 -0.71225,1.03493 -1.29501,1.95395 -1.29501,2.04225 0,0.28962 1.27243,0.16831 1.59267,-0.15193 0.42592,-0.42592 2.76241,-0.0593 2.96364,0.46509 0.16339,0.4258 1.28519,0.57239 1.28519,0.16795 0,-0.12973 -0.35286,-1.0964 -0.78393,-2.14819 -0.67945,-1.65787 -0.89578,-1.93533 -1.62574,-2.08463 -0.19759,-0.0404 -0.35366,-0.0638 -0.49609,-0.0491 z m 14.75827,0.13332 c -1.3173,-0.0663 -3.53225,0.16433 -3.94446,0.50643 -0.54961,0.45614 -0.43102,2.75048 0.18035,3.48713 0.32059,0.38629 0.72163,0.4332 2.4474,0.28732 1.13501,-0.096 2.24637,-0.3258 2.46961,-0.51108 0.52058,-0.43204 0.33963,-3.20698 -0.23461,-3.59771 -0.13959,-0.095 -0.47919,-0.14999 -0.91829,-0.17209 z m -5.59397,0.21188 c -0.68381,0 -0.69505,0.0374 -0.69505,2.2257 0,1.22393 0.11481,2.22519 0.25528,2.22519 0.96554,0 1.13533,-0.3582 1.13533,-2.39417 0,-2.00818 -0.0165,-2.05672 -0.69556,-2.05672 z m -3.68247,0.0589 c -2.05604,0.068 -2.44517,0.15567 -2.52387,0.56741 -0.0751,0.39259 0.10588,0.48679 0.93534,0.48679 h 1.02836 l -0.1266,1.52962 c -0.12052,1.45341 -0.0944,1.53014 0.52193,1.53014 0.54571,0 0.64915,-0.1439 0.65215,-0.90434 0.007,-1.66575 0.26667,-2.15542 1.14154,-2.15542 0.62172,0 0.80201,-0.12777 0.80201,-0.56741 0,-0.53369 -0.14373,-0.56239 -2.43086,-0.48679 z m 8.21604,0.78393 c 0.76915,-0.019 1.04319,0.27233 1.11414,0.99942 0.0755,0.77336 -0.008,0.88251 -0.79943,1.04077 -1.79544,0.35909 -2.20555,0.13201 -2.20555,-1.2237 0,-0.37226 0.26987,-0.57189 0.94568,-0.69867 0.37714,-0.0708 0.68878,-0.11148 0.94516,-0.11782 z m -13.38833,0.18087 c 0.0914,0.028 0.17687,0.19152 0.32246,0.51108 0.28896,0.63415 0.25852,0.69091 -0.37465,0.69091 -0.77311,0 -0.83991,-0.19601 -0.30593,-0.89917 0.16936,-0.22301 0.26671,-0.33084 0.35812,-0.30282 z" />
  </g>
</svg>
