<?xml version="1.0" encoding="UTF-8" standalone="no"?>
<!-- Created with Inkscape (http://www.inkscape.org/) -->

<svg
   width="136.00046mm"
   height="136.00031mm"
   viewBox="0 0 136.00045 136.00031"
   version="1.1"
   id="svg1"
   xmlns="http://www.w3.org/2000/svg"
   xmlns:svg="http://www.w3.org/2000/svg">
  <defs
     id="defs1" />
  <g
     id="layer1"
     transform="translate(-42.788077,-75.040459)">
    <path
       id="path147-1-5-59"
       style="fill:#37a6d1;fill-opacity:1;stroke-width:1.03122"
       d="m 110.08557,75.052988 v 5.1e-4 c -3.65029,0.0535 -7.46388,0.27062 -9.59011,0.60565 -3.778524,0.59542 -8.953914,1.91104 -12.584774,3.19929 -3.64075,1.29177 -9.7057,4.20994 -12.92892,6.22081 -8.2943,5.17448 -16.22406,12.92946 -21.34858,20.878312 -5.61439,8.7087 -9.06624,18.17151 -10.42934,28.59154 -0.55355,4.2291 -0.5545,12.78337 -0.002,17.02325 3.4156,26.21721 21.39096,47.94868 46.51448,56.23429 4.49162,1.48135 9.81681,2.57047 15.417154,3.1533 h 10e-4 c 2.29529,0.23887 12.66588,-0.0902 15.30914,-0.48576 14.88975,-2.22797 27.79271,-8.73202 38.46019,-19.38745 10.66276,-10.6507 17.09569,-23.51438 19.40501,-38.80331 0.6393,-4.23245 0.63975,-14.13484 5.2e-4,-18.49862 -2.26335,-15.45089 -9.05969,-28.80299 -20.13675,-39.563992 -11.21108,-10.89115 -25.23223,-17.42244 -40.73705,-18.97455 -1.01161,-0.10134 -2.34001,-0.16337 -3.82251,-0.19017 -1.11188,-0.0201 -2.31066,-0.0205 -3.52743,-0.003 z m 0.59428,2.77295 c 3.38527,0.003 6.78493,0.16944 8.97206,0.49765 9.51911,1.42849 19.22227,5.10173 26.77253,10.1353 15.50034,10.33373 25.51963,25.799152 28.68558,44.278952 0.52463,3.06213 0.60922,4.47422 0.60978,10.17044 7e-4,7.1086 -0.34927,10.17138 -1.82727,16.00212 -3.10105,12.23351 -10.26586,24.09974 -19.50476,32.30242 -10.11368,8.97936 -21.29984,14.21836 -34.73586,16.26878 -3.18036,0.48534 -11.82248,0.70401 -14.94896,0.37827 -30.433284,-3.17082 -53.980624,-25.58189 -58.653284,-55.82347 -0.34864,-2.25634 -0.46974,-4.6154 -0.46974,-9.12812 0,-4.51271 0.1211,-6.87178 0.46974,-9.12813 2.22365,-14.3916 8.47902,-26.8319 18.5627,-36.915572 4.9527,-4.95269 9.86609,-8.54718 16.10341,-11.78171 6.73784,-3.49409 13.22324,-5.57875 21.076754,-6.77478 2.13107,-0.32452 5.50203,-0.48503 8.88732,-0.48215 z m 0.78186,4.09588 c -0.61756,0 -0.6532,0.0874 -0.7276,1.78594 -0.0763,1.74141 -0.0966,1.7877 -0.82528,1.8712 -0.57377,0.0658 -0.78074,-0.0418 -0.8909,-0.46302 -0.20031,-0.76588 -1.40456,-0.7678 -1.40456,-0.002 0,0.30061 0.12324,0.77685 0.27388,1.05833 0.22604,0.42237 0.56316,0.51212 1.93115,0.51212 0.93644,0 1.7957,-0.13844 1.97507,-0.31781 0.19267,-0.19267 0.31781,-1.12889 0.31781,-2.38125 0,-2.01475 -0.0156,-2.06344 -0.64957,-2.06344 z m 4.21835,0.30179 c -0.44417,-0.02 -0.87335,-0.0134 -1.23817,0.0243 -0.48642,0.0502 -0.85844,0.15569 -0.99942,0.32556 -0.17664,0.21285 -0.38425,1.07907 -0.46095,1.92546 -0.16655,1.8367 0.13608,2.20992 2.00401,2.47169 3.31947,0.46519 4.00779,0.0863 4.00079,-2.20452 -0.002,-0.76397 -0.10698,-1.55157 -0.23255,-1.74977 -0.27339,-0.43149 -1.74122,-0.73262 -3.07371,-0.79271 z m -12.39821,0.25941 c -0.34913,-0.0249 -1.03357,0.0763 -2.37557,0.28061 l -2.077394,0.31626 0.15865,0.94206 c 0.0872,0.51829 0.23494,1.57006 0.32814,2.33681 0.19169,1.57663 -0.209,1.47437 3.379644,0.85989 1.77451,-0.30385 1.86803,-0.3558 1.65158,-0.91984 -0.17335,-0.45177 -0.80111,-0.49433 -2.48822,-0.16795 -0.85941,0.16625 -1.12448,0.13613 -1.12448,-0.12764 0,-0.21174 0.48576,-0.40992 1.25677,-0.51314 1.7019,-0.22785 1.98179,-0.338 1.84588,-0.72451 -0.0794,-0.22565 -0.63221,-0.31027 -1.74201,-0.26717 -1.68548,0.0655 -2.221394,-0.30308 -0.83147,-0.57154 0.43656,-0.0843 1.15093,-0.22214 1.5875,-0.30644 0.55319,-0.10685 0.79375,-0.30731 0.79375,-0.66146 0,-0.30007 -0.0136,-0.45102 -0.36277,-0.47594 z m 17.74,0.49713 c -0.74928,0 -0.80329,0.1137 -1.24282,2.61845 -0.23929,1.3635 -0.22878,1.7356 0.0527,1.91409 0.89176,0.56542 1.0336,0.26857 1.69189,-3.54035 0.16099,-0.93148 0.13009,-0.99219 -0.50178,-0.99219 z m 2.33371,0.48214 c -0.3764,-0.0692 -0.57982,0.33205 -1.07022,2.11409 l -0.60513,2.19934 0.57309,0.22066 c 0.74806,0.28741 0.86565,0.14728 1.28829,-1.53427 l 0.35502,-1.41232 0.78807,1.93063 c 0.61223,1.49993 0.93563,1.97217 1.44952,2.11667 1.24379,0.34973 1.40912,0.18105 1.942,-1.97921 0.43167,-1.74995 0.45459,-2.11349 0.14521,-2.30942 -0.73016,-0.46239 -0.99682,-0.21549 -1.31878,1.22318 -0.1802,0.80522 -0.40835,1.37078 -0.50695,1.25678 -0.0986,-0.114 -0.45366,-0.90169 -0.7891,-1.75029 -0.58943,-1.49117 -0.96707,-1.83969 -2.25102,-2.07584 z m -25.267194,0.0532 c 0,-0.20841 -4.66971,0.87097 -4.94079,1.14205 -0.074,0.074 -0.0596,0.37185 0.0326,0.66197 0.14394,0.45353 0.28478,0.49384 1.00304,0.28784 0.82433,-0.23641 1.24237,-0.01 1.25677,0.68006 0.003,0.14553 0.12957,0.71107 0.28112,1.25677 0.19448,0.70029 0.42301,0.99219 0.7767,0.99219 0.88974,0 0.90553,-0.45604 0.11162,-3.21014 -0.0933,-0.32354 0.11548,-0.47752 0.83147,-0.61185 0.70915,-0.13303 0.91654,-0.28294 0.80202,-0.58136 -0.0849,-0.22131 -0.15451,-0.49919 -0.15451,-0.61753 z m 17.594794,0.0481 c 1.4571,-0.10724 2.04558,0.36625 1.82521,1.46813 -0.15197,0.75982 -0.26683,0.85458 -0.99839,0.82268 -1.88126,-0.082 -2.05369,-0.19089 -1.96629,-1.24126 0.0773,-0.92872 0.1281,-0.97515 1.13947,-1.04955 z m -23.961334,1.46089 c -0.28649,0.0749 -0.5765,0.22596 -0.6444,0.3359 -0.11346,0.18358 0.96435,3.6548 1.30689,4.20904 0.19921,0.32233 1.20613,0.0423 1.20613,-0.33538 0,-0.16443 -0.30324,-1.20946 -0.67386,-2.32234 -0.57876,-1.73783 -0.74738,-2.00421 -1.19476,-1.88722 z m 37.742404,0.33745 c -0.10498,0.006 -0.15503,0.0432 -0.15503,0.11007 0,0.0609 -0.0671,0.2848 -0.14883,0.49764 -0.0999,0.26035 0.11653,0.47925 0.66146,0.66921 0.95943,0.33446 0.96961,0.4152 0.2682,2.1947 -0.43316,1.09895 -0.47304,1.41964 -0.19844,1.5968 0.66367,0.42816 1.07014,0.0767 1.6304,-1.41076 l 0.56534,-1.5012 0.83767,0.3545 c 0.9061,0.38348 1.1467,0.29778 1.1467,-0.40928 0,-0.32059 -0.60679,-0.69922 -2.05052,-1.28003 -1.43295,-0.57646 -2.242,-0.83932 -2.55695,-0.82165 z m -42.228434,1.50947 c -0.0856,-0.0264 -0.17712,-0.0212 -0.28267,0.007 -0.28303,0.074 -0.57214,0.22748 -0.64234,0.34107 -0.0702,0.11359 0.22878,1.08139 0.66456,2.15077 0.43577,1.06939 0.79273,1.98695 0.79323,2.03915 v 5.2e-4 c 0.002,0.18063 1.23128,-0.21563 2.73834,-0.88212 1.36307,-0.60282 1.4856,-0.722 1.23093,-1.19786 -0.34378,-0.64262 -0.21804,-0.64268 -1.73478,0.007 -0.6875,0.2947 -1.27299,0.50302 -1.30069,0.46302 -0.0277,-0.04 -0.31654,-0.74433 -0.64234,-1.56476 -0.36448,-0.91782 -0.56744,-1.28439 -0.82424,-1.36374 z m -2.47633,1.12344 c -0.3112,0.0787 -0.82997,0.3472 -1.80868,0.86868 -1.13313,0.60375 -2.06034,1.20919 -2.06034,1.34566 0,0.13647 0.4419,1.06635 0.98185,2.06602 0.53995,0.99967 1.06623,1.81746 1.16996,1.81746 0.33149,0 4.19806,-2.15591 4.19406,-2.33836 -0.002,-0.0965 -0.11724,-0.35378 -0.25528,-0.57206 -0.21393,-0.33827 -0.48668,-0.26763 -1.84795,0.4806 -1.04911,0.57664 -1.59619,0.75819 -1.59319,0.52916 0.002,-0.19175 0.59444,-0.67424 1.3162,-1.07228 0.9204,-0.50759 1.26645,-0.8434 1.15859,-1.12448 -0.21291,-0.55485 -0.58943,-0.50232 -1.81695,0.25373 -1.16609,0.71822 -1.45521,0.79901 -1.45521,0.40618 0,-0.14428 0.65002,-0.62939 1.44488,-1.07798 1.28588,-0.72569 1.41101,-0.87051 1.13429,-1.31361 -0.14772,-0.23657 -0.25103,-0.34743 -0.56223,-0.26872 z m 53.471154,1.33532 c -0.48778,0 -1.60344,1.3594 -2.02417,2.466 -0.39398,1.03625 -0.0812,1.47628 1.86966,2.63033 2.2376,1.32372 2.68402,1.29099 3.66282,-0.26768 0.90448,-1.44034 0.99591,-2.19274 0.33642,-2.77244 -0.73275,-0.6441 -3.37327,-2.05621 -3.84473,-2.05621 z m 0.4439,1.62884 c 0.30632,-0.0303 0.71035,0.14493 1.33532,0.51367 1.04068,0.61401 1.07673,0.71003 0.63407,1.68155 -0.42651,0.93609 -1.33248,0.82652 -2.65979,-0.32143 -0.41012,-0.35475 -0.41591,-0.46411 -0.0594,-1.15342 0.23467,-0.45381 0.4435,-0.69005 0.74982,-0.72037 z m -28.01844,0.75241 c -8.57162,0 -15.800464,1.70061 -23.162934,5.44876 -27.51815,14.009202 -36.60388,48.757922 -19.43292,74.323122 8.0554,11.9934 20.71355,20.00485 35.055224,22.18728 3.37748,0.5139 11.27983,0.53243 14.78204,0.0346 21.75491,-3.09215 39.47974,-20.12482 43.28935,-41.59953 3.94143,-22.21765 -6.98129,-44.45732 -26.85056,-54.670052 -7.81876,-4.01882 -14.87368,-5.7242 -23.6802,-5.7242 z m -33.232084,0.75499 c -0.30241,-0.0699 -0.76035,0.23665 -2.10375,1.24644 -1.08381,0.81467 -1.93247,1.62059 -1.88567,1.79059 0.1893,0.68798 0.56826,0.75074 1.25728,0.20877 l 0.71831,-0.56534 0.95394,1.31723 c 0.52476,0.72434 1.02096,1.32099 1.10226,1.32499 0.0813,0.004 0.37132,-0.15585 0.64441,-0.35554 0.47465,-0.34707 0.45306,-0.42294 -0.48421,-1.72754 l -0.9803,-1.36529 0.73277,-0.63666 c 0.66377,-0.5766 0.69437,-0.67577 0.32246,-1.05419 -0.0933,-0.095 -0.1767,-0.16015 -0.2775,-0.18346 z m 66.537544,0.0739 -1.3069,1.76837 c -1.63327,2.20969 -1.58289,2.06973 -0.88108,2.44533 0.48703,0.26065 0.64597,0.24072 0.90588,-0.11472 0.28199,-0.38565 0.43674,-0.33546 1.47588,0.48162 1.40869,1.10768 1.91614,1.15201 2.76107,0.2403 1.16394,-1.25591 0.86261,-1.89684 -1.8805,-3.99821 z m -31.9226,1.08521 c 16.08311,0.40683 30.71319,8.479672 39.88697,22.162982 8.225,12.26815 10.33172,28.50798 5.55366,42.8129 -6.06855,18.16844 -22.37938,31.2988 -41.45535,33.37212 -11.25294,1.22303 -22.935154,-1.556 -32.218704,-7.66516 -3.22806,-2.12427 -4.88933,-3.46886 -7.74733,-6.26939 -7.66466,-7.51051 -12.27782,-16.43719 -14.25805,-27.59005 -0.47152,-2.65565 -0.47152,-12.42557 0,-15.08125 1.3888,-7.82191 3.73676,-13.72246 8.01553,-20.14296 2.6726,-4.01036 8.23552,-9.7257 12.13311,-12.4659 8.22866,-5.785112 16.90809,-8.730082 26.855214,-9.112112 1.08393,-0.0416 2.16274,-0.0483 3.23495,-0.0212 z m 32.43316,1.00562 c 0.53964,0.0163 1.8475,1.23926 1.65623,1.54874 -0.27651,0.4474 -0.73445,0.35341 -1.58233,-0.32504 -0.73709,-0.58978 -0.7766,-1.2449 -0.0739,-1.2237 z m -71.789424,1.36322 c -0.36191,0.0354 -0.96328,0.49334 -2.05414,1.4857 l -1.66243,1.51257 1.52704,1.783352 c 0.83982,0.98079 1.55937,1.78336 1.59887,1.78336 0.14168,0 3.37622,-3.021352 3.46542,-3.237012 0.0501,-0.1212 -0.053,-0.39462 -0.22944,-0.6072 -0.27338,-0.32939 -0.5133,-0.2254 -1.62316,0.70383 -0.71628,0.599712 -1.38666,1.005952 -1.48983,0.902792 -0.10316,-0.10317 0.34783,-0.646852 1.00252,-1.208202 1.06453,-0.91274 1.14841,-1.06324 0.79117,-1.42627 -0.35824,-0.36406 -0.52687,-0.29713 -1.63504,0.65009 -0.67961,0.58091 -1.30293,0.94768 -1.38493,0.81494 -0.082,-0.13274 0.40244,-0.72062 1.07642,-1.30638 0.82787,-0.7195 1.17294,-1.20061 1.06453,-1.48311 -0.0993,-0.25867 -0.22986,-0.38972 -0.447,-0.36846 z m 76.337984,0.50333 -1.27693,1.24489 c -2.09811,2.04598 -2.09847,2.05351 -0.18241,3.815792 0.915,0.84156 1.752,1.53013 1.85983,1.53013 0.10783,0 0.33049,-0.16197 0.49455,-0.35966 0.23436,-0.28241 0.018,-0.6215 -1.00925,-1.58234 -0.73172,-0.68445 -1.18753,-1.296932 -1.03507,-1.391132 0.14981,-0.0926 0.77766,0.327672 1.39526,0.933802 1.0201,1.00115 1.15638,1.06209 1.48673,0.66404 0.31986,-0.3854 0.22931,-0.56366 -0.75086,-1.477952 -1.04957,-0.97903 -1.38204,-1.54926 -0.9033,-1.54926 0.11599,0 0.67598,0.47626 1.24437,1.05834 1.07438,1.100272 1.6392,1.311022 1.87378,0.699702 0.0797,-0.207642 -0.56362,-1.037192 -1.52962,-1.972492 z m -37.6809,2.88613 -5.2e-4,5.2e-4 c -0.41169,0 -3.23955,3.948642 -5.39864,7.538562 -3.61034,6.00292 -6.604344,12.55685 -9.307964,20.37498 l -1.37252,3.96875 -2.48874,1.28158 c -8.3995,4.32558 -12.22636,6.68549 -14.90658,9.19272 -2.98646,2.79368 -3.24184,4.58712 -0.82373,5.78517 1.17156,0.58044 1.71741,0.65927 5.15938,0.7457 2.11706,0.0532 4.95071,-0.006 6.29677,-0.13075 2.12583,-0.19761 2.44753,-0.17384 2.45153,0.18036 0.002,0.22426 -0.25795,1.89583 -0.57826,3.71501 l -0.58239,3.30781 -1.6769,0.7674 c -4.55609,2.08522 -10.17333,5.97291 -14.54743,10.0676 -2.42384,2.26902 -3.02009,3.13305 -2.51251,3.6406 0.0117,0.0117 0.0521,-0.0133 0.0698,-0.009 0.32549,0.30505 0.83666,0.94072 1.17047,1.46606 1.1178,1.75928 4.53148,5.39646 7.04247,7.50342 5.58152,4.68344 11.09642,7.62319 18.31929,9.7653 2.774824,0.82296 3.870544,0.82868 4.804364,0.0253 0.6587,-0.56659 0.70065,-0.70055 0.41703,-1.32292 -0.36245,-0.7955 -0.75079,-0.86943 -1.41283,-0.27027 -0.32741,0.29634 -0.70731,0.36862 -1.27745,0.2434 -0.651054,-0.14299 -0.811324,-0.31388 -0.811324,-0.86403 0,-0.76823 0.674904,-1.65365 1.260394,-1.65365 0.26433,0 0.34016,-0.1862 0.24288,-0.59531 -0.11908,-0.50089 0.0926,-0.73185 1.33584,-1.45727 0.81267,-0.4742 1.52512,-0.81479 1.58336,-0.75655 0.0582,0.0582 -0.20467,0.84466 -0.58446,1.74718 -0.37987,0.90253 -0.64575,1.77622 -0.59066,1.94149 0.13786,0.41357 3.90097,0.9703 4.49172,0.66456 0.25466,-0.1318 0.46302,-0.43595 0.46302,-0.67593 0,-0.80782 -1.05025,-2.61471 -1.87379,-3.22358 -0.64479,-0.47671 -0.78355,-0.73781 -0.65784,-1.23868 0.24787,-0.9876 -0.41684,-2.1851 -2.43241,-4.38216 -1.08305,-1.18058 -1.99275,-2.44796 -2.18385,-3.04271 -0.567994,-1.76779 -1.420344,-2.38322 -2.124934,-1.53428 -0.18775,0.22623 -0.57663,0.53735 -0.86455,0.69144 -0.54649,0.29247 -0.55815,0.0608 -0.0563,-1.15549 0.14081,-0.34134 -0.0269,-0.53892 -0.69711,-0.81907 -0.48572,-0.20303 -1.04672,-0.56585 -1.24644,-0.80667 -0.44217,-0.53317 -2.36681,-0.59287 -3.04839,-0.0946 -0.7155,0.52318 -1.21838,3.06158 -0.90124,4.54856 0.33337,1.56294 0.11237,2.41429 -0.86351,3.3259 -0.57714,0.53914 -0.82364,1.06258 -0.94671,2.01021 -0.26435,2.03577 -0.54975,2.23127 -0.76326,0.52245 -0.22586,-1.80773 -0.90451,-2.7362 -2.96055,-4.05143 -1.29363,-0.82757 -1.39784,-0.97133 -1.39784,-1.9203 0,-0.90143 0.16701,-1.17576 1.38027,-2.26653 l 0.5147,-0.4625 1.48415,-1.39423 c 0.0735,-2.34839 0.73952,-9.49329 1.13533,-11.85148 0.0965,-0.57519 0.15206,-1.09361 0.16847,-1.46347 0.0838,-0.0225 0.26571,-0.10482 0.28318,-0.0873 0.0611,0.0611 -0.0604,1.28925 -0.26975,2.72904 -0.37796,2.59925 -0.80563,7.02562 -1.07125,11.08459 l -0.13849,2.11667 0.59066,-0.77101 c 0.008,-0.0101 0.064,-0.085 0.0729,-0.0966 l 0.25528,-0.21962 0.21704,-0.28991 0.015,-0.0341 c 0.0431,-0.06 0.0842,-0.10178 0.12816,-0.17054 0.36555,-0.5722 1.06877,-1.31584 1.56269,-1.65209 0.9805,-0.66757 1.23594,-1.03747 1.46245,-2.11822 0.0476,-0.22708 0.24739,-0.60792 0.50642,-1.01079 0.4858,-0.63394 0.97553,-1.28813 1.45625,-1.89136 0.049,-0.0614 0.0911,-0.11289 0.13746,-0.17156 0.31639,-0.39548 0.63296,-0.75956 0.94878,-1.1436 0.52659,-0.47988 0.72812,0.0241 0.45837,1.38854 -0.21283,1.07646 -0.42948,1.45675 -1.0201,1.79266 -1.17102,0.66602 -0.98603,1.42844 0.63614,2.62413 1.88183,1.3871 2.40193,1.63866 3.38894,1.63866 0.79445,0 0.83476,-0.0461 0.6873,-0.78342 -0.0862,-0.43092 -0.0415,-0.85455 0.0992,-0.94154 0.14072,-0.087 0.25631,-0.48184 0.25631,-0.87747 0,-0.39564 0.238124,-0.92335 0.529174,-1.17254 0.38173,-0.32686 0.52916,-0.78054 0.52916,-1.62832 0,-1.00379 -0.11577,-1.2577 -0.79375,-1.74046 -0.655644,-0.46685 -0.793754,-0.74928 -0.793754,-1.62419 0,-0.58875 -0.17628,-1.23566 -0.39687,-1.45625 -0.3414,-0.34138 -0.44249,-0.63667 -0.27389,-1.04593 0.70112,-0.77092 1.420574,-1.53666 2.146644,-2.28564 0.618,-0.3241 1.02977,-0.13961 1.1095,0.59117 0.125,1.14584 0.9032,3.81614 1.26142,4.32842 0.19225,0.2749 0.28598,0.85795 0.2129,1.32292 -0.15502,0.98631 0.8756,3.48083 2.05156,4.96559 0.88711,1.12008 2.66987,2.08307 3.85506,2.08307 h 0.80357 l 0.17828,-2.75952 c 0.21698,-3.35601 0.64983,-4.88963 1.72651,-6.1159 0.45029,-0.51295 0.81907,-1.09172 0.81907,-1.28675 0,-0.95587 -0.36992,-2.00866 -0.7059,-2.00866 -0.20633,0 -0.93558,-0.52117 -1.62057,-1.15859 -0.68499,-0.6374 -1.83466,-1.53041 -2.55437,-1.98437 -0.71966,-0.45396 -1.19596,-0.83411 -1.05833,-0.84439 0.13763,-0.0103 1.1436,-0.004 2.23501,0.0139 1.41614,0.023 2.1359,-0.0843 2.51354,-0.37362 0.94969,-0.72767 0.017,-0.97346 -3.37344,-0.88935 -2.08207,0.0516 -3.02335,-0.003 -3.07785,-0.26097 l 0.55294,-0.54415 c 0.0635,-0.0402 0.11038,-0.0751 0.18449,-0.11886 10e-4,-8.2e-4 0.004,-5.5e-4 0.006,-0.002 l 2.04018,-0.18913 c 2.9235,-0.27103 9.12151,0.0597 12.80336,0.68419 0.76447,0.12966 1.563,0.28612 2.34094,0.45217 0.0158,0.1039 -0.13894,0.20699 -0.47181,0.31264 -0.76413,0.24255 -0.8785,0.89009 -0.24805,1.40405 0.30747,0.25064 0.90441,0.78322 1.32654,1.18339 0.46294,0.43894 1.06211,0.72761 1.5105,0.72761 0.41458,0 1.43469,0.44938 2.30632,1.01647 0.74113,0.48218 1.47161,0.94571 1.93063,1.23145 l 1.11104,0.59686 c 0.89301,2.01926 1.84792,4.27162 2.57608,6.15984 l 1.42833,3.70416 -0.15089,-2.51406 c -0.37658,-6.26758 -1.75842,-15.48047 -3.44992,-23.00118 -0.50513,-2.2459 -0.91829,-4.22457 -0.91829,-4.39663 0,-0.17206 0.92274,-0.64636 2.05052,-1.0542 1.12779,-0.40783 3.26661,-1.24787 4.7532,-1.86707 l 2.70319,-1.12603 0.57929,0.93793 c 0.66993,1.08396 2.57591,2.38131 3.85093,2.62051 0.83742,0.1571 0.87953,0.22018 0.87953,1.32602 0,1.11381 0.0324,1.16117 0.79375,1.16117 0.75865,0 0.79375,-0.0503 0.79375,-1.13585 0,-1.12975 0.007,-1.13814 1.24437,-1.46916 1.72522,-0.46142 3.8918,-2.62852 4.35323,-4.35374 0.33101,-1.2376 0.33888,-1.24385 1.46864,-1.24385 1.08554,0 1.13585,-0.0351 1.13585,-0.79375 0,-0.76137 -0.0474,-0.79375 -1.16117,-0.79375 -1.10582,0 -1.16892,-0.0421 -1.32602,-0.87953 -0.38775,-2.06685 -2.25561,-4.01548 -4.62556,-4.82607 -0.86657,-0.29639 -0.96957,-0.43613 -1.08934,-1.47794 -0.11645,-1.01301 -0.21774,-1.1606 -0.84491,-1.233 -0.67491,-0.0779 -0.71675,-0.0166 -0.79375,1.16427 -0.0812,1.24431 -0.0832,1.24712 -1.36684,1.62005 -1.75528,0.50998 -3.70423,2.45894 -4.21421,4.21422 -0.37294,1.28358 -0.37575,1.28568 -1.62006,1.36684 -1.18083,0.077 -1.24217,0.11881 -1.16427,0.79375 0.0721,0.62414 0.21335,0.72289 1.1405,0.79633 0.58209,0.0461 1.15024,0.17341 1.26246,0.28319 0.20041,0.19603 -7.81779,2.86481 -9.02064,3.0024 -0.56464,0.0646 -0.68579,-0.16479 -1.50327,-2.84014 -3.29703,-10.79012 -7.35998,-20.05137 -12.01063,-27.37869 -2.17345,-3.42433 -4.70266,-6.884852 -5.03225,-6.884852 z m -43.159644,0.52968 c -0.1154,0 -0.89463,0.779822 -1.73168,1.733232 l -1.52187,1.73375 1.55753,1.57354 c 0.85655,0.8656 1.63674,1.57407 1.73374,1.57407 0.097,0 0.91463,-0.78933 1.81694,-1.7539 1.49734,-1.60067 1.60387,-1.79025 1.22112,-2.17299 -0.38274,-0.38274 -0.53191,-0.30819 -1.71101,0.85317 -0.71052,0.69984 -1.36036,1.16109 -1.44436,1.02526 -0.0839,-0.13583 0.31846,-0.70719 0.89452,-1.26969 0.57606,-0.56251 1.04748,-1.16748 1.04748,-1.3441 0,-0.71457 -0.72237,-0.50748 -1.78025,0.51005 -1.49792,1.44081 -1.80534,1.01859 -0.34313,-0.47129 0.97575,-0.99422 1.0989,-1.2347 0.8108,-1.58182 -0.18687,-0.22517 -0.43443,-0.409282 -0.54983,-0.409282 z m 43.191164,0.529172 c 0.0704,0 0.907,1.10133 1.8588,2.4474 5.36546,7.58805 9.63019,16.38147 13.16405,27.14304 2.22517,6.77627 2.23595,6.8211 1.68466,7.03265 -0.23807,0.0914 -0.47919,0.11967 -0.53589,0.063 -0.0567,-0.0567 -0.62913,-1.8228 -1.27227,-3.92482 -2.32315,-7.59293 -5.53856,-15.30114 -9.02994,-21.64881 -2.14029,-3.89125 -5.33251,-8.76253 -5.85288,-8.93124 -0.51934,-0.16837 -4.37517,5.9722 -6.93704,11.04791 -3.94733,7.82066 -7.253794,16.86421 -9.553424,26.1276 -1.03685,4.17667 -1.18274,4.56406 -1.71359,4.56406 h -0.57981 l 0.76119,-3.20807 c 2.41914,-10.19289 5.64385,-19.21953 9.912064,-27.74818 2.43039,-4.85635 7.49238,-12.96458 8.09408,-12.96458 z m 41.89511,0.36432 c -0.3032,0.0819 -3.27953,2.62202 -3.29333,2.81068 -0.005,0.0728 0.15419,0.34814 0.3545,0.61237 0.30581,0.4034 0.44864,0.4278 0.89038,0.15193 0.45839,-0.28627 0.61373,-0.2286 1.20665,0.44596 0.7609,0.86569 0.83789,1.18886 0.39067,1.63608 -0.23199,0.23199 -0.22401,0.40507 0.0326,0.71417 0.18627,0.22445 0.43459,0.40824 0.5519,0.40824 0.29269,0 1.0449,-0.77568 1.0449,-1.07745 0,-0.13513 0.16775,-0.24547 0.3731,-0.24547 0.6115,0 1.78127,-1.56687 1.51929,-2.03501 -0.48928,-0.87429 -2.83277,-3.4857 -3.07062,-3.4215 z m -93.697124,0.55966 c -1.22978,1.48632 -2.34579,3.00685 -3.38842,4.53564 1.04258,-1.52868 2.15872,-3.04942 3.38842,-4.53564 z m 93.641314,1.33376 c 0.21958,-0.0511 0.44476,0.13834 0.89711,0.67593 0.40348,0.4795 0.7338,0.99621 0.7338,1.14825 0,0.60755 -0.83493,0.33614 -1.52032,-0.49402 -0.62685,-0.75927 -0.67265,-0.92398 -0.33641,-1.20303 0.0801,-0.0665 0.15262,-0.1101 0.22582,-0.12713 z m -57.713274,1.20045 c -0.47228,-0.0215 -0.93753,0.10812 -1.22628,0.39687 -0.96204,0.96204 -0.71982,2.54875 0.46095,3.01946 1.78206,0.71041 3.37441,-1.56483 2.03347,-2.90577 -0.31635,-0.31635 -0.79585,-0.48901 -1.26814,-0.51056 z m 30.015744,0.82579 c -0.29665,0.0316 -0.59336,0.20914 -0.79065,0.52245 -0.20123,0.31958 -0.18186,0.5561 0.0703,0.85989 0.79775,0.96122 2.24644,-0.024 1.51205,-1.02836 -0.1983,-0.27118 -0.49502,-0.38557 -0.79168,-0.35398 z m -58.311174,1.65829 c -0.28042,0.0529 -0.62347,0.33917 -1.12603,0.92191 l -0.92811,1.07642 -1.16168,-0.92759 c -1.31173,-1.04745 -1.42528,-1.07993 -1.87379,-0.5395 -0.46165,0.55625 -0.33268,0.73846 1.56063,2.20555 l 1.70015,1.31723 1.27124,-1.62471 c 1.38997,-1.77683 1.51397,-2.14051 0.82062,-2.40657 -0.0832,-0.0319 -0.16955,-0.0404 -0.26303,-0.0227 z m 67.598464,0.79479 c -0.14194,0.008 -0.28631,0.047 -0.4284,0.12299 -0.68531,0.36677 -0.93489,1.18003 -0.57051,1.86087 0.32445,0.60623 1.55294,0.73788 2.06913,0.22169 0.80116,-0.80115 -0.0766,-2.26072 -1.07022,-2.20555 z m 23.94892,0.0646 -2.54919,0.33745 c -1.40211,0.18558 -2.5492,0.40159 -2.5492,0.48059 0,0.34484 0.91601,1.11156 1.32808,1.11156 0.60884,0 1.95825,1.97328 1.73943,2.54352 -0.0931,0.2427 0.0296,0.74425 0.27234,1.11466 l 0.4408,0.67386 1.13894,-2.23243 c 0.62641,-1.22766 1.1427,-2.35096 1.1467,-2.49648 0.004,-0.14552 -0.21193,-0.54991 -0.48007,-0.89866 z m -104.113554,1.04232 c -0.83555,1.35628 -1.61907,2.73119 -2.34869,4.12584 0.72963,-1.39465 1.51313,-2.76956 2.34869,-4.12584 z m 6.64457,0.27957 c -0.29942,0.0251 -0.61115,0.43697 -1.41025,1.67225 -0.66254,1.02417 -1.20458,1.91555 -1.20458,1.98075 0,0.0651 0.80213,0.65674 1.78284,1.31465 0.98072,0.65791 1.8695,1.19631 1.97507,1.19631 0.10557,0 0.32973,-0.25674 0.49765,-0.57051 0.25948,-0.48486 0.21489,-0.63852 -0.29714,-1.02474 l -0.60255,-0.45475 0.5333,-0.7612 c 1.05569,-1.50599 1.14486,-1.81983 0.61081,-2.15335 -0.42899,-0.26792 -0.59594,-0.14103 -1.34203,1.02164 -0.55713,0.86822 -0.94177,1.23794 -1.11156,1.06815 -0.16978,-0.16978 -0.0782,-0.51854 0.26458,-1.00769 1.08806,-1.55262 1.18301,-1.89048 0.6165,-2.19366 -0.11466,-0.0614 -0.21283,-0.0962 -0.31264,-0.0879 z m 96.823034,0.21084 c 0.0478,0.047 -0.0805,0.40439 -0.28474,0.79426 l -0.37103,0.709 -0.43099,-0.65732 c -0.41911,-0.63964 -0.4114,-0.66053 0.28474,-0.79427 0.39329,-0.0755 0.75422,-0.0987 0.80202,-0.0517 z m -72.514954,0.95343 c -0.32658,0.0432 -0.63868,0.25701 -0.88574,0.63407 -0.40148,0.61273 -0.40148,0.71017 0,1.32291 0.49412,0.75413 1.24894,0.85377 1.85725,0.24547 0.53102,-0.53103 0.53102,-1.28333 0,-1.81436 -0.30416,-0.30415 -0.64494,-0.43128 -0.97151,-0.38809 z m 28.290264,1.05213 c 0.34962,0.0473 0.37241,0.85398 0.29765,2.5585 -0.094,2.14291 -0.2338,2.8134 -0.82475,3.95996 -0.9919,1.92455 -0.93866,2.80182 0.23151,3.82923 0.90557,0.7951 3.29075,3.91658 3.29075,4.30671 0,0.10381 -0.90139,-0.30595 -2.00297,-0.91054 -2.18139,-1.19722 -2.75994,-1.14993 -2.75953,0.22428 3.4e-4,1.14387 1.45579,3.9144 2.29495,4.36924 0.56876,0.30827 0.62999,0.4079 0.25632,0.416 -0.36194,0.008 -0.44174,0.13279 -0.30282,0.47387 1.26185,3.09816 1.22324,4.97932 -0.1416,6.8895 -0.56261,0.78741 -0.94379,1.68145 -1.03559,2.42776 l -0.14521,1.18081 -0.46923,-0.71779 c -0.40651,-0.62233 -0.65367,-0.72168 -1.85208,-0.74414 l -1.38286,-0.0264 1.69189,-0.43666 c 1.62584,-0.42003 1.72319,-0.49309 2.49493,-1.86552 0.58005,-1.03153 0.80826,-1.79313 0.82166,-2.74195 0.017,-1.20894 -0.0643,-1.38502 -1.01854,-2.2102 -0.97526,-0.84337 -1.06572,-0.87073 -1.52136,-0.45837 -0.45706,0.41364 -0.48421,0.40191 -0.48421,-0.21188 0,-0.4007 -0.36463,-1.00108 -0.94929,-1.56269 -1.30042,-1.24914 -1.99406,-2.70328 -2.15956,-4.52841 -0.0767,-0.84615 -0.29787,-1.66973 -0.49144,-1.83038 -0.26275,-0.21806 -1.02448,-0.0916 -3.00602,0.4992 -1.45981,0.4352 -2.6541,0.69821 -2.6541,0.58498 0,-0.44088 2.17705,-2.139 4.0845,-3.18586 1.54222,-0.84642 2.03834,-1.26109 2.15646,-1.80247 0.67151,-3.0778 1.45844,-4.51147 3.90777,-7.11895 0.71891,-0.76533 1.19526,-1.2276 1.50224,-1.34203 0.064,-0.0238 0.12058,-0.0326 0.17053,-0.0258 z m 46.916,0.0496 c -0.39964,0.0785 -0.45197,0.67114 -0.14521,1.64899 0.13516,0.43087 -0.0816,0.66689 -1.16737,1.27176 -1.4657,0.81654 -1.44981,0.79388 -1.05937,1.52342 0.15064,0.28148 0.32734,0.51211 0.39274,0.51211 0.0655,0 0.7306,-0.37628 1.47795,-0.83612 1.1006,-0.6772 1.39978,-0.76519 1.57354,-0.46302 0.6308,1.09694 0.90099,1.28273 1.36116,0.93689 0.41115,-0.30899 0.34413,-0.5204 -0.79375,-2.50475 -0.80285,-1.40011 -1.38331,-2.13958 -1.63969,-2.08928 z m -29.67571,1.43402 c -0.77066,0.0442 -1.35283,0.89442 -0.99012,1.86862 0.24784,0.66567 1.48152,0.83358 2.0376,0.2775 0.49684,-0.49684 0.37348,-1.46553 -0.24184,-1.89652 -0.27075,-0.18964 -0.54875,-0.26432 -0.80564,-0.2496 z m -73.082364,1.48828 c -0.22665,0.087 -0.89101,1.11103 -1.4764,2.27531 l -1.06402,2.11667 1.91513,1.03715 c 1.05348,0.57018 1.97591,1.0515 2.05001,1.0697 0.0741,0.0182 0.29674,-0.22638 0.49454,-0.54312 0.3139,-0.50262 0.29951,-0.61973 -0.11162,-0.92036 -0.45118,-0.33011 -0.45094,-0.3881 0.007,-1.40353 0.40092,-0.88902 0.57471,-1.03569 1.07952,-0.90899 0.44154,0.11082 0.6831,-0.002 0.90899,-0.42375 0.16928,-0.31627 0.26834,-0.60845 0.22014,-0.64905 -0.40853,-0.3442 -1.33917,-0.6682 -1.54823,-0.53899 -0.14252,0.0881 -0.2589,0.0324 -0.2589,-0.12402 0,-0.40669 -1.72468,-1.17484 -2.21588,-0.98702 z m 82.361904,0.51263 c -0.17328,-0.0281 -0.35744,0.022 -0.6165,0.14004 -0.87127,0.39698 -1.11692,1.28477 -0.53382,1.92908 0.5211,0.57581 1.43861,0.66824 1.91409,0.19276 0.48128,-0.48128 0.381,-1.39519 -0.21239,-1.93218 -0.2155,-0.19502 -0.3781,-0.30159 -0.55138,-0.3297 z m -81.743334,0.99219 c 0.52913,0 0.53447,0.55989 0.015,1.5782 -0.61222,1.20007 -0.58268,1.17741 -0.9958,0.76429 -0.22786,-0.22786 -0.17393,-0.55654 0.21704,-1.32292 0.28613,-0.56085 0.62981,-1.01957 0.76378,-1.01957 z m 35.05574,0.26458 c -0.81417,0 -1.97249,1.08758 -1.97249,1.85208 0,0.30428 0.29238,0.84533 0.64957,1.20252 1.21226,1.21224 3.05459,0.48701 3.05459,-1.20252 0,-0.972 -0.82278,-1.85208 -1.73167,-1.85208 z m 70.336794,0.63666 c -0.2559,-0.0794 -0.74196,0.11108 -1.93838,0.68988 -1.0392,0.50272 -1.94435,1.00271 -2.01125,1.11104 -0.067,0.10834 0.006,0.43546 0.16175,0.72657 0.2754,0.51459 0.33782,0.50195 2.26084,-0.44959 1.98665,-0.98301 2.1779,-1.19524 1.72393,-1.91306 -0.0519,-0.0821 -0.11159,-0.1384 -0.19689,-0.16484 z m -84.243954,1.09915 c -0.0872,-0.0872 -0.4279,0.84491 -0.75758,2.07171 l -0.59945,2.23087 -1.22576,0.30179 c -3.86595,0.95328 -3.85533,0.92547 -0.65371,1.73633 l 1.89498,0.48008 0.60099,2.33164 c 0.33066,1.28258 0.64398,2.28965 0.69608,2.23759 0.0521,-0.0521 0.36575,-1.09177 0.69712,-2.30994 l 0.60255,-2.21485 2.35334,-0.64337 c 1.29454,-0.35409 2.23887,-0.68214 2.09858,-0.72864 -0.14029,-0.0465 -1.20045,-0.35531 -2.35644,-0.68627 l -2.1022,-0.60151 -0.54467,-2.02365 c -0.2997,-1.11286 -0.61663,-2.09458 -0.70383,-2.18178 z m 84.871824,1.24851 c -0.23355,-0.003 -0.55429,0.0949 -1.1343,0.29248 -1.43734,0.48975 -2.21744,1.10775 -2.21744,1.75597 0,0.52476 0.98589,3.0247 1.53686,3.89692 0.21924,0.34708 0.64018,0.59531 1.00976,0.59531 1.04259,0 2.99841,-1.05426 3.16156,-1.70429 0.17875,-0.71221 -1.04744,-3.88721 -1.74511,-4.51858 -0.2314,-0.20943 -0.37778,-0.31441 -0.61133,-0.31781 z m -34.15502,0.72398 c -1.72171,-0.009 -2.41169,2.07542 -1.04335,3.15175 0.9155,0.72014 1.56409,0.6921 2.35748,-0.10129 0.71843,-0.71843 0.80073,-1.21454 0.3452,-2.07997 -0.40608,-0.77147 -0.73843,-0.96549 -1.65933,-0.97049 z m 33.91369,0.9648 c 0.16646,0.0447 0.28845,0.18529 0.45992,0.447 0.21486,0.32791 0.4646,0.96557 0.555,1.41749 0.13139,0.65698 0.0561,0.87998 -0.37568,1.11104 -0.91596,0.49021 -1.34534,0.32665 -1.76165,-0.66973 -0.59124,-1.41503 -0.51039,-1.86191 0.39532,-2.17764 0.34946,-0.12182 0.56063,-0.17286 0.72709,-0.12816 z m -104.979124,0.28577 -2.18075,0.18035 c -2.83425,0.23432 -2.99027,0.29072 -3.375,1.21957 -0.3661,0.88382 -0.44539,0.73456 1.71566,3.23236 0.72396,0.83675 1.35179,1.52135 1.39579,1.52135 0.28741,0 0.57148,-1.43099 0.33952,-1.71049 -0.41683,-0.50225 0.44357,-2.78743 1.04954,-2.78743 0.29805,0 0.58711,-0.31216 0.76688,-0.82785 z m -2.72955,1.74563 c 0.0245,0.0238 -0.10122,0.31581 -0.27957,0.64906 -0.31837,0.59486 -0.33278,0.59667 -0.78343,0.0987 -0.44101,-0.4873 -0.43025,-0.51272 0.27958,-0.64906 0.40632,-0.078 0.75892,-0.1225 0.78342,-0.0987 z m 88.987854,1.49758 c 0.14552,0 0.26458,0.51318 0.26458,1.1405 v 1.1405 l 1.29553,0.33228 c 2.14967,0.55094 4.07475,2.56908 4.62142,4.8457 0.14725,0.61325 0.32417,0.72377 1.27331,0.79375 1.55706,0.1148 1.6746,0.74311 0.13901,0.74311 -1.1711,0 -1.18356,0.01 -1.46761,1.13791 -0.57054,2.26582 -2.37023,4.03962 -4.73718,4.66897 -1.11018,0.29519 -1.12448,0.31405 -1.12448,1.47949 0,0.64923 -0.11906,1.18029 -0.26458,1.18029 -0.14552,0 -0.26459,-0.53338 -0.26459,-1.18545 0,-1.07903 -0.0654,-1.2001 -0.7276,-1.34256 -2.51174,-0.5403 -4.5452,-2.37793 -5.12217,-4.62917 l -0.33589,-1.30948 h -1.1405 c -0.83748,0 -1.1405,-0.10548 -1.1405,-0.39688 0,-0.29223 0.30462,-0.39687 1.156,-0.39687 1.14347,0 1.16023,-0.013 1.48776,-1.18288 0.62575,-2.23495 2.65162,-4.14859 4.77129,-4.5067 1.0398,-0.17567 1.05161,-0.19068 1.05161,-1.34513 0,-0.64205 0.11907,-1.16738 0.26459,-1.16738 z m -8.21759,0.5917 c -0.3531,-0.0488 -0.7436,0.0632 -1.0883,0.37517 -0.60041,0.54334 -0.61512,1.09505 -0.046,1.72393 0.76978,0.85058 2.20814,0.39653 2.20814,-0.69712 0,-0.79281 -0.48533,-1.32065 -1.07384,-1.40198 z m 30.06328,0.55552 c -0.19084,0.0732 -1.20148,0.38764 -2.24586,0.69867 -1.73345,0.51625 -1.8835,0.61598 -1.72082,1.14566 0.098,0.31912 0.21115,0.61759 0.25115,0.66353 0.074,0.085 1.93017,-0.37703 2.69699,-0.67128 0.23609,-0.0906 -0.0402,0.46842 -0.6289,1.27176 -1.45483,1.98515 -1.42354,1.90131 -1.12551,2.9807 0.2983,1.08042 0.15521,1.07262 3.1197,0.17828 1.30237,-0.39291 1.47884,-0.52659 1.41594,-1.07125 -0.10168,-0.8805 -0.1547,-0.89477 -1.54616,-0.42065 -0.68741,0.23422 -1.3061,0.36975 -1.3746,0.30127 -0.0685,-0.0685 0.37297,-0.78344 0.98082,-1.58853 1.06897,-1.41585 1.09541,-1.49898 0.81442,-2.54248 -0.19091,-0.70901 -0.40915,-1.03318 -0.63717,-0.94568 z m -114.392514,0.1757 c -0.38474,0 -0.61942,0.46225 -1.10949,2.18281 -0.34195,1.20055 -0.67049,2.32111 -0.73019,2.49029 -0.0597,0.16917 0.10828,0.36392 0.37362,0.43253 0.78913,0.20404 0.87953,0.19751 0.87953,-0.0615 0,-0.13605 0.11237,-0.5436 0.25012,-0.90589 l 0.25063,-0.65887 1.58492,0.47955 c 1.37178,0.41535 1.60449,0.42775 1.73375,0.091 0.34384,-0.89602 0.11859,-1.14596 -1.4175,-1.57303 -1.51289,-0.42063 -1.55788,-0.45831 -1.31206,-1.10484 0.32065,-0.84339 0.12663,-1.37201 -0.50333,-1.37201 z m 92.282234,1.51774 -1.06815,0.14314 c -1.85718,0.2491 -4.1047,2.42709 -4.40335,4.26744 l -0.15451,0.95085 h 1.30845 c 1.24085,0 1.33225,-0.0489 1.76113,-0.94826 0.31327,-0.65694 0.77442,-1.08385 1.5012,-1.38907 1.01844,-0.42771 1.04913,-0.47903 1.05213,-1.73271 z m 1.20096,0.0698 c -0.62668,0 -0.67179,0.0857 -0.67179,1.27486 0,1.18463 0.0611,1.30204 0.8599,1.65364 0.47295,0.20816 1.14785,0.82528 1.49965,1.37098 0.59636,0.92505 0.72723,0.99219 1.9389,0.99219 h 1.29966 l -0.17932,-0.8599 c -0.45716,-2.19266 -2.85554,-4.43177 -4.747,-4.43177 z m -1.73012,0.31419 v 1.03353 c 0,0.77104 -0.10742,1.03353 -0.42323,1.03353 -0.54928,0 -2.22261,1.67333 -2.22261,2.2226 0,0.31581 -0.26249,0.42323 -1.03352,0.42323 h -1.03353 l 0.3023,-0.99218 c 0.16641,-0.5457 0.78032,-1.47018 1.36426,-2.05414 0.58396,-0.58395 1.50843,-1.19785 2.05414,-1.36426 z m 2.05672,0.22583 c 0.33582,-0.015 0.87623,0.23696 1.68982,0.75293 1.11575,0.70759 2.33887,2.49616 2.33887,3.42046 0,0.17727 -0.37341,0.31305 -0.85989,0.31264 -0.71785,-5.9e-4 -0.9473,-0.16126 -1.38906,-0.97307 -0.29104,-0.53484 -0.91374,-1.15929 -1.38338,-1.38803 -0.69893,-0.34042 -0.8549,-0.57205 -0.8599,-1.27589 -0.004,-0.55212 0.12772,-0.83404 0.46354,-0.84904 z m -95.056744,3.95997 c -0.3504,0.0153 -0.74113,0.17955 -0.90279,0.48162 -0.14245,0.26616 -0.4062,1.2824 -0.58601,2.25826 -0.27618,1.49864 -0.2683,1.82942 0.0512,2.12907 0.63637,0.597 1.74824,0.73275 2.21124,0.26975 0.37831,-0.37829 0.41599,-0.36661 0.41599,0.13177 0,0.57651 0.62689,0.72986 1.28364,0.31368 0.37737,-0.23913 1.08648,-2.85455 1.09348,-4.03283 0.007,-1.19066 -1.65795,-1.97025 -2.47117,-1.15703 -0.38721,0.38725 -0.43512,0.38935 -0.43512,0.0191 0,-0.29503 -0.31001,-0.42869 -0.66042,-0.41341 z m 21.41007,0.50952 c -0.37672,0.0177 -0.76952,0.23193 -1.06247,0.67903 -0.40146,0.61274 -0.40146,0.71018 0,1.32292 0.72214,1.10212 2.27325,0.68033 2.27325,-0.61805 0,-0.89659 -0.58293,-1.41332 -1.21078,-1.3839 z m 95.562644,0.29973 c -0.39553,-0.0335 -0.85711,0.0538 -1.26452,0.27182 -0.49898,0.26703 -0.52648,0.44509 -0.35605,2.3151 0.15205,1.66841 0.12346,1.96599 -0.16226,1.68879 -0.21586,-0.20943 -0.3495,-1.00066 -0.3545,-2.09445 -0.004,-1.06903 -0.12503,-1.7969 -0.30748,-1.85777 -0.44623,-0.14888 -1.15583,0.67161 -1.15083,1.33119 0.009,1.20917 0.76519,3.74057 1.21646,4.07055 0.48234,0.35269 1.27605,0.23861 1.91668,-0.27544 0.27281,-0.21895 0.31678,-0.72058 0.18242,-2.08411 -0.10486,-1.0645 -0.0759,-1.79575 0.0708,-1.79575 0.36855,0 0.59872,1.49771 0.41083,2.6727 -0.14753,0.92263 -0.10674,1.03146 0.38861,1.03146 0.90815,0 1.16452,-0.84038 0.82579,-2.70836 -0.16391,-0.9039 -0.41099,-1.85508 -0.54932,-2.11356 -0.1416,-0.26459 -0.47109,-0.41864 -0.86662,-0.45217 z m -116.331924,0.28577 c 0.0375,0.0125 0.01,0.13336 -0.0579,0.37052 -0.0811,0.28426 -0.22508,0.90229 -0.31988,1.37356 -0.0948,0.47127 -0.30084,0.93577 -0.45733,1.03249 -0.45177,0.27921 0.005,-2.00364 0.50022,-2.49855 0.19478,-0.19478 0.2974,-0.29051 0.33487,-0.27802 z m 98.824984,0.48369 c -0.14994,0.0129 -0.3906,0.4555 -0.58859,1.19579 -0.42375,1.58436 -2.04541,3.20601 -3.62975,3.62976 -0.65409,0.17494 -1.18908,0.41227 -1.18908,0.52761 0,0.63328 3.16782,-0.58297 4.02043,-1.54357 0.56475,-0.63628 1.52214,-2.72655 1.53014,-3.33985 0.004,-0.33037 -0.0532,-0.47746 -0.14315,-0.46974 z m -11.22825,0.007 c -0.43636,0 -0.29984,1.27596 0.2527,2.35903 0.57426,1.12568 1.84279,2.30043 3.05459,2.8298 0.89147,0.38945 1.98437,0.4767 1.98437,0.15813 0,-0.11534 -0.52159,-0.34987 -1.1591,-0.52038 -0.63749,-0.1705 -1.53598,-0.62608 -1.99626,-1.01338 -0.92416,-0.77764 -1.87172,-2.43557 -1.87172,-3.2737 0,-0.29683 -0.11905,-0.5395 -0.26458,-0.5395 z m 5.55625,0 c -2.67817,0 -3.175,0.064 -3.175,0.40669 0,0.62158 0.79028,1.68951 1.55908,2.10737 1.50571,0.8184 3.48726,0.27234 4.35787,-1.20148 0.74886,-1.26773 0.65585,-1.31258 -2.74195,-1.31258 z m -51.418054,0.03 -0.68575,2.8944 -0.68523,2.89491 -1.80816,1.05627 c -4.68579,2.73821 -5.81254,4.81386 -3.02979,5.58209 4.76639,1.31586 33.164854,-4.48516 49.269864,-10.06451 2.61868,-0.9072 1.91526,-0.44897 -1.50326,0.97927 -11.35824,4.74537 -27.74111,8.92927 -42.262544,10.79314 -3.24226,0.41615 -13.37664,0.76051 -14.41979,0.4899 -3.71235,-0.96304 -3.85841,-2.2456 -0.60255,-5.28806 2.19447,-2.0506 5.78067,-4.30147 11.33988,-7.11636 z m -40.23167,0.0734 c 0.0917,0.1003 0.10957,0.522 -0.009,1.31672 -0.0973,0.64866 -0.34553,1.24424 -0.5519,1.32343 -0.29453,0.11301 -0.34059,-0.0387 -0.21291,-0.70435 0.26424,-1.37766 0.6213,-2.10295 0.77411,-1.9358 z m 90.622914,0.47336 c 0.50353,-0.0159 1.10746,-0.0152 1.6893,0.007 l 2.11563,0.0786 -0.83974,0.8599 c -1.1422,1.16988 -2.6042,1.20319 -3.85248,0.0879 l -0.86403,-0.77205 0.66249,-0.1664 c 0.18214,-0.0457 0.5853,-0.0787 1.08883,-0.0946 z m -99.453894,1.80919 c -0.24418,2.02373 -0.37353,4.90717 -0.37672,7.84758 0.003,-2.94044 0.13254,-5.82395 0.37672,-7.84758 z m 47.60744,4.4934 c 0.0797,0 -0.11878,1.10134 -0.44132,2.4474 l -0.58653,2.44739 -1.55856,0.0553 c -1.72669,0.0611 -2.74867,-0.23995 -2.74867,-0.80926 0,-0.57801 1.54033,-1.96231 3.45509,-3.10523 0.95435,-0.56964 1.80029,-1.0356 1.87999,-1.0356 z m 36.041734,0 c 0.46306,0 1.60701,4.6053 2.79828,11.2665 0.70473,3.94074 1.87811,12.26818 1.85311,13.15113 -0.005,0.17633 -0.54756,-0.98878 -1.20561,-2.5895 -4.12526,-10.03496 -8.4437,-16.71934 -11.12697,-17.22272 -0.54982,-0.10314 -1.83269,-0.005 -3.03961,0.23306 -5.93234,1.16872 -13.70613,6.94636 -21.435904,15.93133 -1.25191,1.45519 -3.48125,4.23856 -4.95422,6.18515 l -2.67839,3.53932 0.002,-1.15807 c 0.005,-2.55304 1.42709,-13.69645 2.46032,-19.28203 0.27728,-1.49899 0.39883,-1.73157 0.94671,-1.80919 0.54085,-0.0766 0.60734,-0.003 0.47646,0.52917 -0.4964,2.01741 -1.62803,9.76192 -2.42673,16.61035 l -0.16743,1.43971 1.15807,-1.572 c 2.04759,-2.77853 5.25814,-6.52301 8.12198,-9.47332 7.749854,-7.98389 14.969954,-12.33931 20.455604,-12.33931 2.38178,0 3.61098,0.676 5.40587,2.97243 1.7081,2.18542 2.01502,2.68201 3.96565,6.42029 1.17194,2.24594 1.65847,2.97229 1.66347,2.48253 0.008,-0.85509 -1.68587,-9.66488 -2.40502,-12.50621 -0.54837,-2.16655 -0.51841,-2.80862 0.13229,-2.80862 z m -60.005644,0.66818 c -0.79822,-0.0965 -1.33204,0.96086 -0.63304,1.65984 0.17462,0.17463 0.44868,0.31781 0.60875,0.31781 0.93594,0 1.22357,-1.40982 0.37982,-1.86138 -0.122,-0.0653 -0.2415,-0.10249 -0.35553,-0.11627 z m 81.829114,0.0393 c -0.81243,-0.10334 -1.39708,0.92939 -0.7059,1.62057 0.17463,0.17463 0.44867,0.31781 0.60875,0.31781 0.88455,0 1.23624,-1.40315 0.4563,-1.82056 -0.12232,-0.0655 -0.24308,-0.10305 -0.35915,-0.11782 z m -11.96154,2.39417 c -0.81393,0.0845 -1.40188,1.03711 -0.80099,1.89498 0.431,0.61535 1.39969,0.73868 1.89653,0.24184 0.49685,-0.49684 0.37349,-1.46553 -0.24185,-1.89652 -0.28595,-0.2003 -0.58238,-0.26848 -0.85369,-0.2403 z m -18.53014,2.21382 c 0.74826,0.0177 1.36045,0.18248 1.87224,0.49454 1.06621,0.65011 2.85465,2.91644 4.31446,5.46789 0.61966,1.08303 1.08138,1.999 1.02578,2.03502 -0.0557,0.036 -1.1584,-0.20349 -2.44998,-0.53227 -4.16138,-1.05932 -7.6829,-1.47499 -12.69173,-1.49758 l -4.72168,-0.0212 0.75293,-0.61443 c 2.58489,-2.10873 6.60448,-4.26751 9.20874,-4.94544 1.05652,-0.27503 1.94097,-0.40421 2.68924,-0.38654 z m -70.417424,0.76998 c -0.0756,0 0.2181,0.62244 0.65268,1.38338 l 0.79013,1.38338 -0.78703,1.39474 c -0.43288,0.76703 -0.71419,1.39475 -0.62529,1.39475 0.0889,0 0.73475,-0.32206 1.43506,-0.71572 l 1.27331,-0.71572 1.34513,0.73226 c 0.73996,0.40274 1.34566,0.65282 1.34566,0.55604 0,-0.0968 -0.31566,-0.73721 -0.70125,-1.42317 l -0.70125,-1.24695 0.70125,-1.19632 c 0.38559,-0.65795 0.70125,-1.28224 0.70125,-1.38699 0,-0.10475 -0.59958,0.14384 -1.33222,0.55242 l -1.33222,0.74311 -1.31361,-0.72761 c -0.72263,-0.40018 -1.376,-0.7276 -1.4516,-0.7276 z m 116.655944,0 c -0.077,0 0.21839,0.62692 0.65681,1.39319 l 0.79737,1.3932 -0.79944,1.38493 c -0.43976,0.76168 -0.73065,1.38493 -0.64595,1.38493 0.0847,0 0.72755,-0.32031 1.42833,-0.71158 l 1.27435,-0.71159 1.2795,0.71572 c 0.70386,0.39339 1.32283,0.67184 1.37563,0.61908 0.0528,-0.0528 -0.22569,-0.67176 -0.61908,-1.37562 l -0.7152,-1.27951 0.72708,-1.30277 c 0.39994,-0.7163 0.68507,-1.34374 0.63407,-1.39474 -0.051,-0.051 -0.67701,0.24182 -1.39164,0.65112 l -1.29967,0.74414 -1.28105,-0.75499 c -0.70464,-0.41548 -1.34411,-0.75551 -1.42111,-0.75551 z m -14.7593,2.6603 c -0.53807,0.0769 -1.03781,0.62261 -0.82424,1.29553 0.11032,0.34759 0.39925,0.54209 0.80615,0.54209 0.77118,0 1.24435,-0.74851 0.88212,-1.39578 -0.20437,-0.36519 -0.54119,-0.48801 -0.86403,-0.44184 z m -17.54053,7.22489 c -0.17379,0.1738 -0.0733,0.42224 0.17673,0.70951 -0.12256,-0.0366 -0.26613,-0.0883 -0.34106,-0.0915 -0.0654,-0.003 -0.1119,0.008 -0.13695,0.0331 -0.0761,0.0761 -0.007,1.39589 0.154,2.93264 0.0953,0.91001 0.22234,2.12226 0.34726,3.31401 l 0.70797,0.36121 c 0.30831,0.10068 0.79099,0.38241 1.53014,0.85525 1.37658,0.88058 2.20555,1.02654 2.20555,0.38861 0,-0.5013 0.44045,-0.28054 0.73639,0.36897 0.16085,0.35301 0.9554,1.14256 1.76578,1.75441 0.92646,0.69948 1.52817,1.3698 1.62058,1.80557 0.0808,0.38108 0.25524,0.96088 0.38757,1.2883 0.13233,0.32743 0.15,0.59531 0.0393,0.59531 -0.11084,0 -1.26913,-0.78695 -2.574,-1.74873 -1.80566,-1.33095 -3.19927,-2.19904 -4.16615,-2.61121 l -0.26975,-0.0894 -0.13643,-0.0408 -0.14366,-0.0351 -0.17777,-0.0253 -0.21187,-0.0191 -0.1695,-5.1e-4 -0.16743,0.0238 -0.19379,0.0455 -0.47284,0.14211 c 0.0494,0.55859 0.0825,1.03628 0.0858,1.3746 l 0.8294,0.45372 c 0.0733,0.0332 0.15481,0.0752 0.24857,0.1359 l 0.10283,0.0563 -0.008,0.0103 c 0.10121,0.0697 0.18945,0.12346 0.31368,0.22117 0.54864,0.43156 0.72124,0.85536 0.86506,2.12649 0.14058,1.24262 0.30105,1.64929 0.73949,1.87379 0.30803,0.1577 0.93877,0.64491 1.40147,1.08262 l 0.84129,0.79581 0.73691,-0.57981 c 0.69555,-0.54716 0.75656,-0.55387 1.07693,-0.11575 0.18678,0.25544 0.34003,0.56081 0.34003,0.67851 0,0.56432 1.12438,0.14064 1.53324,-0.57774 0.24789,-0.43556 0.5702,-0.75084 0.71572,-0.70073 0.28635,0.0986 0.28394,0.5485 -0.0114,2.08772 -0.46303,2.41426 1.64103,0.51138 5.8875,-5.32474 0.26659,-0.36637 0.4863,-0.68401 0.66818,-0.96841 l -0.43357,-0.37879 c 0.49353,0.32646 0.74475,0.31645 0.86403,-0.0413 0.22826,-0.6848 -6.17828,-6.05155 -10.20558,-8.54935 -2.46396,-1.52821 -6.91898,-3.79736 -7.10137,-3.61683 z m -45.154354,1.46606 c 0.10736,0.45556 -0.52878,2.20712 -1.19476,3.1259 -0.93856,1.29482 -1.32275,1.48794 -1.87121,0.93948 -0.46815,-0.46813 -0.39445,-0.73655 0.36742,-1.33584 0.49426,-0.38875 0.65148,-0.71588 0.56379,-1.1746 -0.0439,-0.22944 -0.0233,-0.3935 0.0672,-0.5457 0.90158,-0.47646 1.61074,-0.82831 2.06758,-1.00924 z m -32.28899,1.41541 c -0.32141,-0.0196 -0.84908,0.17362 -1.86501,0.56276 -1.66326,0.63708 -1.87709,0.85153 -1.47846,1.4826 0.2175,0.34433 0.39654,0.33735 1.46141,-0.0574 l 1.21388,-0.44959 -0.9586,1.16944 c -1.31672,1.6069 -1.16699,2.05309 0.80306,2.39158 l 1.57975,0.2713 -1.25212,0.47801 c -1.28241,0.48975 -1.37325,0.60335 -1.08522,1.35392 0.10561,0.27517 0.32319,0.36958 0.59532,0.25787 0.23589,-0.0968 1.11353,-0.41203 1.95027,-0.70073 0.83675,-0.2887 1.52136,-0.59508 1.52136,-0.68058 0,-0.0854 -0.14305,-0.55077 -0.31781,-1.03405 -0.26126,-0.72252 -0.46111,-0.88315 -1.12448,-0.90485 -0.4437,-0.0145 -1.09038,-0.10592 -1.43712,-0.20309 -0.579,-0.16226 -0.59412,-0.20701 -0.18604,-0.5457 0.24439,-0.20282 0.68902,-0.71224 0.98805,-1.13223 0.47304,-0.66432 0.50167,-0.86494 0.22015,-1.54461 -0.19162,-0.46261 -0.30698,-0.69513 -0.62839,-0.71469 z m 108.114334,0.77409 c -0.49535,-0.0703 -0.70233,0.14011 -1.16995,1.19062 -0.3124,0.7018 -0.57761,1.74599 -0.58911,2.32079 -0.0171,0.85291 0.0976,1.10525 0.62373,1.37201 0.46465,0.23555 0.7901,0.24907 1.16479,0.0486 0.42595,-0.22792 0.49148,-0.20395 0.36225,0.13281 -0.0987,0.25723 0.01,0.44947 0.29042,0.51367 0.2466,0.0564 0.65007,0.004 0.89659,-0.11679 0.53035,-0.25997 1.69083,-3.66676 1.45676,-4.27674 -0.22143,-0.57703 -1.46864,-0.855 -2.09135,-0.46612 -0.42909,0.26772 -0.49163,0.24405 -0.42323,-0.15968 0.0547,-0.32269 -0.11137,-0.50102 -0.5209,-0.55914 z m 0.22996,1.42937 c 0.1005,0.0576 0.0353,0.35106 -0.20412,1.05368 -0.22001,0.64568 -0.52077,1.17409 -0.66818,1.17409 -0.14739,0 -0.19545,-0.18988 -0.10645,-0.42168 0.089,-0.2318 0.23148,-0.69947 0.31678,-1.03922 0.0853,-0.33975 0.31324,-0.67826 0.50643,-0.7524 0.0701,-0.0269 0.12203,-0.0337 0.15554,-0.0145 z m -41.77212,0.15916 c -0.0819,-1e-4 -0.16402,0.003 -0.24598,0.0103 -0.4918,0.0418 -0.97962,0.21273 -1.40664,0.53123 -1.09043,0.81332 -1.00363,1.2839 0.39998,2.17403 1.3777,0.87371 2.83366,1.04728 3.66799,0.43718 0.41259,-0.30169 0.45412,-0.50776 0.24701,-1.2299 -0.31943,-1.11389 -1.33228,-1.8175 -2.41742,-1.91203 -0.0814,-0.007 -0.16307,-0.0108 -0.24494,-0.0109 z m 43.25369,0.2744 c 0.0508,0.022 0.0806,0.11288 0.0806,0.28371 0,0.20514 -0.1275,0.73833 -0.28319,1.18494 -0.15568,0.44661 -0.44359,0.87399 -0.63975,0.94929 -0.28876,0.11082 -0.28041,-0.0868 0.0434,-1.03714 0.30371,-0.89134 0.64646,-1.44688 0.79892,-1.3808 z m -3.39411,3.37809 c -0.62128,0.0141 -1.16387,0.65652 -1.89188,2.04587 l -1.00097,1.91048 1.79472,0.92087 c 0.98707,0.5066 1.86499,0.92731 1.95079,0.93431 0.0858,0.007 0.28837,-0.27849 0.45062,-0.63459 0.25202,-0.55313 0.22131,-0.67072 -0.21188,-0.80821 -0.48471,-0.15384 -0.47559,-0.22587 0.21033,-1.62471 l 0.71778,-1.46296 -0.75912,-0.65319 c -0.48621,-0.41829 -0.88762,-0.63634 -1.26039,-0.62787 z m -103.589034,0.93844 c -0.25821,-0.0669 -0.75499,0.12505 -1.89394,0.67852 -1.68135,0.81705 -1.8314,0.95418 -1.62522,1.48569 l 0.22737,0.5855 1.86397,-0.82321 c 1.84965,-0.81698 2.07404,-1.06256 1.62161,-1.77715 -0.0481,-0.076 -0.10771,-0.12705 -0.19379,-0.14935 z m 103.524434,0.54054 c 0.0571,-0.006 0.10948,0.0159 0.15917,0.0656 0.19877,0.19873 0.18329,0.51878 -0.0532,1.08985 -0.20718,0.50019 -0.52683,0.80874 -0.83768,0.80874 -0.48491,0 -0.48274,-0.0382 0.0538,-1.08986 0.29455,-0.57731 0.50659,-0.85534 0.67799,-0.87436 z m -102.712074,1.36116 c -0.26035,-0.04 -0.76476,0.17844 -1.79111,0.74259 -0.9679,0.53202 -1.75958,1.01352 -1.75958,1.07022 0,0.0567 0.3828,0.87915 0.85059,1.82779 0.90429,1.83382 0.9218,1.85098 1.52394,1.4702 0.33537,-0.21209 0.30551,-0.42031 -0.21084,-1.48312 -0.33039,-0.68003 -0.56545,-1.26701 -0.52245,-1.30431 0.043,-0.0373 0.58457,-0.32322 1.20303,-0.6351 1.12023,-0.56493 1.31446,-0.90467 0.89555,-1.56528 -0.0429,-0.0676 -0.10235,-0.10963 -0.18913,-0.12299 z m 100.210424,2.21795 c -0.69557,-0.0149 -1.21853,0.54825 -1.96319,1.82469 -0.5518,0.94589 -0.97081,1.95275 -0.93121,2.23759 0.0396,0.28484 0.54807,0.84645 1.13016,1.24799 1.68193,1.16028 2.15602,1.00853 3.437,-1.10019 1.24747,-2.05356 1.21955,-2.72427 -0.14934,-3.58841 -0.62658,-0.39554 -1.10608,-0.61273 -1.52342,-0.62167 z m -0.0289,1.56166 c 0.22684,-9.2e-4 0.63172,0.15856 0.89968,0.3545 0.46923,0.34311 0.46411,0.3968 -0.13074,1.45521 -0.33971,0.60443 -0.74406,1.09489 -0.89917,1.09089 -0.50975,-0.0145 -1.20819,-0.5402 -1.20819,-0.90951 0,-0.6347 0.91056,-1.98909 1.33842,-1.99109 z m -98.176444,0.24701 c -0.28258,0.0516 -0.74154,0.30827 -1.64073,0.84905 -1.59577,0.9597 -1.74181,1.11721 -1.45779,1.572 0.17359,0.27795 0.39774,0.50539 0.49816,0.50539 0.27072,0 3.38853,-1.95983 3.39153,-2.13217 0.002,-0.0813 -0.14573,-0.3423 -0.32763,-0.57981 -0.0745,-0.0973 -0.14362,-0.16664 -0.22996,-0.2005 -0.0648,-0.0254 -0.13939,-0.0312 -0.23358,-0.014 z m 1.05885,1.35289 c -0.0728,-0.003 -0.30173,0.10116 -0.5085,0.23203 -0.32042,0.20279 -0.31058,0.33759 0.0662,0.91261 0.24316,0.3711 0.44235,0.73266 0.44235,0.80356 0,0.0709 -0.53683,0.49806 -1.19269,0.9493 -1.02632,0.70613 -1.15405,0.89242 -0.91674,1.33584 0.35366,0.66082 0.34478,0.66247 1.74253,-0.29921 l 1.18391,-0.81494 0.55345,0.70332 c 0.47663,0.60593 0.60485,0.65139 0.92708,0.32918 0.3222,-0.32223 0.19836,-0.63465 -0.89556,-2.25981 -0.69826,-1.03733 -1.32918,-1.88888 -1.40198,-1.89188 z m 92.157684,4.10518 c -0.36358,0.1 -0.87164,0.55139 -1.85518,1.59473 -0.91704,0.97281 -1.65958,1.90094 -1.65158,2.06241 0.008,0.16148 0.69307,0.85764 1.52135,1.54719 0.82831,0.68954 1.52645,1.25477 1.55185,1.25677 0.28559,0.0189 2.99671,-3.69367 2.99671,-4.10362 0,-0.59169 -1.3868,-2.04891 -2.23552,-2.34921 -0.10135,-0.0359 -0.20644,-0.0419 -0.32763,-0.008 z m -88.757374,1.20303 c -0.44452,-0.008 -1.1221,0.12687 -2.32234,0.3979 -1.83105,0.4135 -1.88112,0.44571 -1.44642,0.92605 0.24769,0.2737 0.65963,0.49764 0.91519,0.49764 0.58482,0 1.83451,1.45808 1.83451,2.14044 0,0.28185 0.14575,0.74602 0.32401,1.03146 0.40633,0.65066 0.49679,0.54045 1.35651,-1.65365 0.82388,-2.10261 0.837,-2.25184 0.26251,-2.88664 -0.26798,-0.29611 -0.47945,-0.44561 -0.92397,-0.4532 z m 88.614754,0.36587 c 0.0703,-0.0196 0.13839,-0.0181 0.21084,0.001 0.0966,0.0256 0.20125,0.0824 0.33073,0.1633 0.31141,0.19449 0.61411,0.47822 0.67231,0.62993 0.0582,0.15172 -0.26685,0.71305 -0.72244,1.24747 l -0.82837,0.97152 -0.70642,-0.58033 -0.70642,-0.58032 0.86248,-1.02113 c 0.44387,-0.52518 0.6764,-0.77282 0.88729,-0.83147 z M 66.382326,179.289 c 0.53683,0 0.55576,0.0372 0.32453,0.63976 -0.19647,0.51192 -0.47383,0.53244 -0.863,0.0636 -0.34954,-0.42117 -0.13363,-0.70332 0.53847,-0.70332 z m 3.65301,1.73271 -1.51154,1.51154 c -1.41439,1.41441 -1.4832,1.53987 -1.06815,1.95492 0.37421,0.37424 0.50996,0.3886 0.8692,0.0904 0.36661,-0.30426 0.54195,-0.23734 1.2609,0.48163 0.65017,0.65016 0.76485,0.90535 0.51729,1.1529 -0.24755,0.24756 -0.2217,0.42397 0.11575,0.79685 0.50563,0.55871 1.1467,0.21783 1.1467,-0.60978 0,-0.31028 0.18717,-0.49661 0.49868,-0.49661 0.2743,0 0.69444,-0.29877 0.93379,-0.66404 0.5381,-0.82125 0.38013,-1.14494 -1.41645,-2.90164 z m 81.340254,0.23927 c -0.0906,0.029 -0.17468,0.0998 -0.27543,0.2005 -0.403,0.403 -0.37584,0.5089 0.37569,1.45779 l 0.81028,1.0232 -1.71307,-0.2558 c -1.65084,-0.24672 -1.73834,-0.23105 -2.3983,0.42891 l -0.68472,0.68472 1.40922,1.62005 1.40922,1.62006 0.53691,-0.5364 0.53641,-0.53692 -0.99168,-1.01596 -0.99218,-1.01596 1.71669,0.24701 c 1.56029,0.22435 1.78995,0.19461 2.52336,-0.32762 0.44374,-0.31597 0.80667,-0.66009 0.80667,-0.7643 0,-0.1042 -0.65496,-0.83595 -1.45521,-1.62626 -1.01204,-0.99948 -1.34202,-1.29011 -1.61386,-1.20302 z m -81.356794,1.66553 c 0.19719,-0.0528 0.4384,0.10043 0.86972,0.51366 0.40779,0.39069 0.74155,0.86676 0.74155,1.05782 0,0.57557 -0.65104,0.39277 -1.40508,-0.39429 -0.55097,-0.57509 -0.63961,-0.81251 -0.39429,-1.05782 0.0613,-0.0613 0.12236,-0.10177 0.1881,-0.11937 z m 3.38791,1.59267 0.18345,1.62057 c 0.14861,1.31352 0.0937,1.7729 -0.29042,2.42311 -0.41436,0.70143 -0.42433,0.83415 -0.0796,1.05213 0.54747,0.34612 0.64774,0.32527 1.1591,-0.23978 0.25343,-0.28004 1.15447,-0.63559 2.06344,-0.81442 l 1.61334,-0.31781 -0.54622,-0.5457 c -0.48067,-0.48067 -0.67475,-0.51308 -1.62523,-0.27182 l -1.07952,0.27388 v -1.13223 c 0,-0.93183 -0.12373,-1.21302 -0.69918,-1.59008 z m 72.443124,2.00556 c -0.35434,-0.0587 -0.55319,0.0382 -0.88883,0.24184 -0.3867,0.23464 -0.68813,0.52352 -0.66973,0.64183 0.0184,0.11829 0.17951,1.19723 0.35812,2.39778 0.17862,1.20055 0.39282,2.18281 0.47542,2.18281 0.35718,0 1.11776,-0.91614 1.11776,-1.34617 0,-0.58635 1.54456,-1.71779 2.1947,-1.60765 0.48214,0.0817 1.24489,-0.37612 1.24489,-0.74724 0,-0.10806 -0.90429,-0.59055 -2.00918,-1.07229 -0.95898,-0.41813 -1.46881,-0.63221 -1.82315,-0.69091 z m 0.14211,1.39991 c 0.0943,0.0149 0.21023,0.0688 0.34365,0.1664 0.43772,0.32009 0.44403,0.38665 0.0661,0.70022 -0.34899,0.28967 -0.44372,0.27792 -0.57774,-0.0713 -0.20461,-0.53323 -0.115,-0.83989 0.16794,-0.7953 z m -3.52175,0.88005 -0.82578,0.48679 c -0.76803,0.4523 -0.82614,0.58851 -0.82114,1.95079 l 0.005,1.46503 -1.19372,-0.74311 c -1.16295,-0.72384 -1.21326,-0.73129 -1.96216,-0.29301 -0.42274,0.24742 -0.76821,0.54894 -0.76739,0.66973 8.3e-4,0.1208 0.39808,0.92447 0.88263,1.78594 0.88629,1.57568 1.1319,1.75518 1.81385,1.32343 0.30483,-0.193 0.2434,-0.45305 -0.34572,-1.45831 l -0.71675,-1.22318 1.32653,0.81597 c 1.10818,0.68188 1.41781,0.76709 1.88361,0.5178 0.50025,-0.26772 0.53935,-0.44607 0.37827,-1.73529 -0.0987,-0.79031 -0.10884,-1.43661 -0.0222,-1.43661 0.0866,0 0.40067,0.47624 0.69763,1.05833 0.5851,1.14689 0.70478,1.20954 1.35909,0.71159 0.39113,-0.29766 0.32972,-0.50313 -0.62942,-2.11253 z m 14.97222,0.83199 v 5.2e-4 c -3.23233,3.22932 -6.67614,6.06508 -10.32444,8.50439 3.6483,-2.43931 7.09212,-5.27559 10.32444,-8.50491 z m -75.465164,1.23972 c -0.35527,0.0674 -0.83954,0.36807 -1.88206,1.03508 -1.75196,1.12089 -1.87529,1.25694 -1.43454,1.57923 0.26525,0.1936 0.69635,0.28464 0.95808,0.20154 0.59748,-0.18963 2.59468,0.90749 2.59468,1.42524 0,0.2118 0.20836,0.53832 0.46302,0.72605 0.39913,0.29424 0.48678,0.26204 0.6351,-0.23513 0.0946,-0.31722 0.18394,-1.3774 0.19844,-2.35593 0.0253,-1.70397 -0.006,-1.7956 -0.73587,-2.17299 -0.18417,-0.0952 -0.32781,-0.16495 -0.46871,-0.19741 -0.10567,-0.0243 -0.20972,-0.0281 -0.32814,-0.006 z m 0.15037,1.25677 c 0.0855,0.044 0.0858,0.24373 0.0858,0.64337 0,0.43991 -0.0297,0.79565 -0.0661,0.79065 -0.0364,-0.005 -0.34406,-0.16352 -0.68368,-0.35191 l -0.61753,-0.34262 0.68368,-0.44803 c 0.34158,-0.22381 0.51237,-0.33548 0.59789,-0.29146 z m 54.185844,0.44752 c -0.0241,-0.0383 -0.47861,0.1122 -1.01027,0.33435 -0.92927,0.38827 -0.96635,0.4551 -0.96635,1.7234 0,0.72565 -0.1029,1.3193 -0.22841,1.3193 -0.12551,0 -0.66742,-0.34919 -1.20406,-0.77566 -0.92163,-0.73241 -1.02242,-0.75485 -1.82211,-0.40979 -0.95331,0.41119 -0.95375,0.43097 -0.006,2.69957 h 5.1e-4 c 0.37817,0.90562 0.76057,1.60858 0.84957,1.56218 0.089,-0.0464 0.36769,-0.15741 0.6196,-0.24701 0.42916,-0.15262 0.42518,-0.23933 -0.0625,-1.37718 -0.54679,-1.27561 -0.4802,-1.28865 0.98082,-0.19223 1.24033,0.9308 1.75562,0.71552 1.9761,-0.82579 0.10067,-0.70375 0.23564,-1.33273 0.30024,-1.39733 0.0646,-0.0646 0.31159,0.3678 0.54881,0.96066 0.38185,0.95433 0.49177,1.04541 0.95911,0.7953 0.29033,-0.15538 0.52813,-0.38905 0.52813,-0.51986 0,-0.18444 -1.25904,-3.32549 -1.46296,-3.64991 z m -50.281684,0.50643 c -0.43598,-0.002 -0.68849,0.21126 -0.91726,0.63872 -0.47642,0.89019 -0.16024,1.39893 1.34876,2.16989 1.14798,0.58649 1.64847,1.12035 1.05058,1.12035 -0.44939,0 -1.86087,-0.77573 -1.86087,-1.02268 0,-0.11842 -0.28573,-0.3457 -0.6351,-0.50488 -0.53896,-0.24556 -0.65508,-0.21378 -0.76585,0.20981 -0.19722,0.75415 0.31359,1.24108 2.06241,1.96629 1.88782,0.78285 2.26925,0.76038 2.71146,-0.16227 0.48026,-1.00203 0.21289,-1.41359 -1.42265,-2.18798 -0.79687,-0.3773 -1.37844,-0.79906 -1.29294,-0.93741 0.19329,-0.31278 1.43563,0.18669 1.9885,0.79944 0.57509,0.63736 1.25397,0.8129 1.42472,0.36793 0.26582,-0.69272 -0.12057,-1.11007 -1.6738,-1.80712 -0.96253,-0.43196 -1.58197,-0.64845 -2.01796,-0.65009 z m -16.26309,1.67638 c 2.41584,1.9171 4.97504,3.67283 7.66361,5.25033 -2.68857,-1.5775 -5.24777,-3.33323 -7.66361,-5.25033 z m 21.45967,0.44339 c -0.15796,-0.008 -0.28681,0.003 -0.37465,0.0367 -0.46907,0.18 -0.83855,1.30176 -0.61805,1.87637 0.0781,0.20346 0.74426,0.57038 1.48053,0.81493 1.25088,0.41548 1.81802,0.81283 1.54667,1.08418 -0.21225,0.21225 -1.91452,-0.4871 -2.39468,-0.98392 -0.53106,-0.54951 -0.87175,-0.61798 -1.1157,-0.22325 -0.39679,0.64201 0.20948,1.3031 1.66708,1.81695 1.98714,0.70052 2.73491,0.62617 3.18482,-0.31678 0.3147,-0.65958 0.2996,-0.81169 -0.13022,-1.30173 -0.4381,-0.49949 -0.44171,-0.5382 -0.0326,-0.38912 0.5592,0.20373 0.82502,-0.17352 0.60668,-0.86145 -0.16428,-0.51759 -2.71418,-1.49687 -3.81992,-1.55287 z m 37.566184,0.48627 c -1.0167,0 -3.2316,0.77423 -3.82457,1.33687 -0.45907,0.4356 -0.4729,0.58415 -0.15813,1.70842 0.1896,0.67716 0.51392,1.39966 0.72037,1.60611 0.50476,0.50477 0.99933,0.47479 2.93626,-0.17932 1.97226,-0.66605 2.2989,-1.13195 1.88308,-2.68718 -0.38702,-1.4475 -0.68145,-1.7849 -1.55701,-1.7849 z m -36.608614,0.74673 c 0.88361,0.18276 1.66914,0.57524 1.66914,0.83405 0,0.32913 -0.15283,0.31954 -1.25263,-0.0796 -0.85844,-0.31151 -1.19155,-0.9148 -0.41651,-0.75447 z m 36.101154,0.59531 c 0.31148,0.0208 0.50255,0.15372 0.59686,0.39946 0.36631,0.95461 0.16037,1.34977 -0.86248,1.65623 -1.33711,0.40061 -1.53472,0.38767 -1.72651,-0.11214 -0.34737,-0.90522 -0.15517,-1.38379 0.67231,-1.67225 0.5764,-0.20094 1.00835,-0.2921 1.31982,-0.2713 z m -30.137694,0.11472 c -0.39513,0.0622 -0.77767,0.4593 -1.75959,1.64228 -1.2685,1.52822 -1.41338,1.80992 -1.03611,2.02106 0.28654,0.16037 0.61661,0.13442 0.95188,-0.0749 0.70083,-0.43768 2.50892,-0.10942 2.84375,0.51625 0.1433,0.26777 0.52905,0.52957 0.856804,0.58187 0.32774,0.0525 0.63226,0.0738 0.67696,0.0476 0.11335,-0.0665 -1.059084,-4.16934 -1.249024,-4.3708 -0.0852,-0.0904 -0.47333,-0.23912 -0.86248,-0.33072 -0.1571,-0.037 -0.29048,-0.0534 -0.42219,-0.0326 z m 24.468274,0.19585 c -0.32222,0.009 -0.70371,0.0515 -1.14825,0.12764 -2.32441,0.39815 -2.56337,0.63723 -2.41587,2.41588 0.084,1.01301 0.26836,1.54839 0.62321,1.80816 0.27726,0.20292 0.74249,0.31271 1.03353,0.24391 0.29104,-0.0688 1.08749,-0.20546 1.76992,-0.30386 1.32899,-0.19164 2.22874,-0.90651 1.97456,-1.5689 -0.1942,-0.50611 -1.19819,-0.53609 -1.38803,-0.0413 -0.19718,0.51386 -2.2477,0.81603 -2.52905,0.37259 -0.47493,-0.74856 -0.24475,-1.51711 0.50333,-1.68103 0.40018,-0.0877 0.89664,-0.21304 1.10329,-0.27854 0.20664,-0.0655 0.45963,0.0164 0.56224,0.18242 0.24006,0.38843 1.31103,0.0605 1.31103,-0.40153 0,-0.61973 -0.43323,-0.90163 -1.39991,-0.8754 z m -20.47317,0.46819 c -0.187,-0.002 -0.38387,0.68624 -0.49661,1.73891 -0.22178,2.07101 0.0458,2.4855 1.78852,2.76883 1.60894,0.26164 2.1482,0.27092 2.50683,0.0429 0.491,-0.31222 0.87643,-1.56642 0.87643,-2.85202 0,-1.0752 -0.0553,-1.17358 -0.66146,-1.17358 -0.60121,0 -0.66159,0.1025 -0.66559,1.12448 -0.006,1.55043 -0.25051,1.83839 -1.47795,1.73788 l -1.03146,-0.0842 0.0625,-1.44229 c 0.0608,-1.40552 -0.1552,-1.85087 -0.90124,-1.86087 z m 13.4245,0.55604 c -0.21773,-0.0487 -0.62437,-0.0154 -1.37976,0.0636 -0.89447,0.0935 -1.96604,0.17002 -2.38125,0.17002 -0.57855,0 -0.75499,0.12363 -0.75499,0.52916 0,0.42837 0.17639,0.52917 0.92604,0.52917 h 0.92604 v 1.61592 c 0,1.36471 0.0651,1.59085 0.41858,1.45521 0.23018,-0.0883 0.52784,-0.16071 0.66146,-0.16071 0.13361,0 0.24288,-0.65793 0.24288,-1.46193 0,-1.41258 0.0267,-1.46716 0.79375,-1.62057 0.56719,-0.11344 0.79375,-0.31104 0.79375,-0.69247 0,-0.24793 -0.0288,-0.37866 -0.2465,-0.42736 z m -7.26984,0.23358 c -0.66094,0 -0.68574,0.057 -0.68574,1.56579 0,0.86122 -0.0685,1.74459 -0.15245,1.96319 -0.10317,0.26885 0.0467,0.4353 0.46302,0.5147 0.33854,0.0645 1.30008,0.13368 2.13682,0.15348 1.45595,0.0345 1.52136,0.008 1.52136,-0.62529 0,-0.62159 -0.0837,-0.66128 -1.38906,-0.66094 h -1.38907 l 0.0904,-1.45572 c 0.088,-1.41337 0.0708,-1.45521 -0.59532,-1.45521 z m -9.871234,0.0439 c 0.10403,0.0631 0.18166,0.27604 0.30696,0.68368 0.101,0.32743 0.1449,0.57894 0.0987,0.55914 -0.0462,-0.0198 -0.35161,-0.0878 -0.67903,-0.15089 -0.69512,-0.13389 -0.75564,-0.40886 -0.19223,-0.87644 0.2309,-0.19164 0.36158,-0.27857 0.4656,-0.21549 z m 46.476234,0.91002 c -2.98378,1.82434 -6.09724,3.39421 -9.33689,4.70773 -1.61983,0.65675 -3.27132,1.24932 -4.95371,1.77767 -3.36477,1.05668 -6.85355,1.85657 -10.46292,2.39675 -0.64075,0.0959 -1.74973,0.18747 -3.08767,0.26768 1.33795,-0.0802 2.44692,-0.1723 3.08767,-0.2682 3.60936,-0.54017 7.09815,-1.33955 10.46292,-2.39623 1.68239,-0.52835 3.33388,-1.12091 4.95371,-1.77767 3.23966,-1.31352 6.35311,-2.88339 9.33689,-4.70773 z m -59.032054,4.63693 c 1.46662,0.60197 2.96196,1.15504 4.48448,1.65726 1.0888,0.35915 2.22823,0.6947 3.40961,1.00459 2.36276,0.61978 4.89361,1.13751 7.525124,1.53944 1.31576,0.20097 2.65667,0.37288 4.01423,0.51418 h 5.1e-4 c 1.11278,0.11583 4.18311,0.0941 7.29568,-0.005 -3.11257,0.0987 -6.1829,0.121 -7.29568,0.005 h -5.1e-4 c -1.35756,-0.14131 -2.69847,-0.31373 -4.01423,-0.5147 -2.631514,-0.40193 -5.162374,-0.91966 -7.525124,-1.53944 -1.18138,-0.30989 -2.32081,-0.64491 -3.40961,-1.00407 -1.52253,-0.50222 -3.01786,-1.05581 -4.48448,-1.65778 z" />
  </g>
</svg>
