<?xml version="1.0" encoding="UTF-8" standalone="no"?>
<!-- Created with Inkscape (http://www.inkscape.org/) -->

<svg
   width="136.00044mm"
   height="136.00026mm"
   viewBox="0 0 136.00044 136.00026"
   version="1.1"
   id="svg1"
   xmlns="http://www.w3.org/2000/svg"
   xmlns:svg="http://www.w3.org/2000/svg">
  <defs
     id="defs1" />
  <g
     id="layer1"
     transform="translate(-31.304223,-75.25246)">
    <g
       id="g351"
       transform="translate(-436.21261,-228.00711)">
      <path
         id="path349"
         style="fill:#37a6d1;fill-opacity:1"
         d="m 537.19873,310.44978 c -0.42654,0.0816 -0.501,0.39801 -0.5674,2.40606 -0.0759,2.29434 -0.0713,2.312 0.56792,2.312 0.61386,0 0.65303,-0.10079 0.83354,-2.13992 0.19941,-2.25271 0.0399,-2.7453 -0.83406,-2.57814 z m -3.47885,0.0641 c -0.45439,-0.0211 -1.0221,0.004 -1.7353,0.0584 l -2.28823,0.1757 v 2.16576 c 0,1.19121 0.0761,2.24237 0.1695,2.33577 0.16883,0.16884 3.6453,-0.004 4.80074,-0.23823 0.79313,-0.16101 1.14391,-1.14848 0.93896,-2.64376 -0.18023,-1.31495 -0.52251,-1.79039 -1.88567,-1.85364 z m 7.38766,0.14883 c -1.64519,-0.0165 -2.15077,0.71714 -2.15077,2.54713 0,1.5948 0.33152,1.97761 1.94096,2.24069 2.70163,0.44162 3.45039,0.24841 3.65611,-0.94413 0.0705,-0.40862 -0.0743,-0.54818 -0.63614,-0.61288 -0.40018,-0.0461 -0.7276,0.0433 -0.7276,0.19844 0,0.40221 -1.9231,0.35005 -2.49442,-0.0677 -0.36993,-0.27046 -0.43668,-0.54122 -0.29404,-1.19062 0.1729,-0.78716 0.25765,-0.84078 1.33532,-0.84078 0.67007,0 1.31661,0.16577 1.54771,0.39688 0.55469,0.55473 1.4938,0.51295 1.4888,-0.0661 -0.007,-0.81025 -0.42955,-1.17769 -1.61748,-1.40715 -0.82508,-0.15937 -1.50005,-0.24824 -2.04845,-0.25373 z m -13.26069,0.30438 c -0.42908,-0.0199 -1.18974,0.0924 -2.51612,0.32607 -1.34065,0.23618 -1.83938,0.43286 -1.80558,0.71159 0.0256,0.21179 0.1851,1.24819 0.3545,2.30322 0.1694,1.05503 0.38666,1.91791 0.48266,1.91771 0.096,-2e-4 1.18669,-0.17848 2.42362,-0.39636 1.23693,-0.21789 2.2676,-0.39616 2.2903,-0.39636 0.0228,-2e-4 -0.0233,-0.24735 -0.10232,-0.54932 -0.12783,-0.48884 -0.27737,-0.53047 -1.36425,-0.37982 -2.03946,0.28275 -2.21795,0.27868 -2.33371,-0.0486 -0.0745,-0.21054 0.42279,-0.37605 1.49293,-0.49712 1.35249,-0.15302 1.60455,-0.26263 1.60455,-0.69763 0,-0.47764 -0.128,-0.50224 -1.71979,-0.33177 -1.12949,0.12097 -1.71979,0.0898 -1.71979,-0.0904 0,-0.26613 0.36268,-0.37444 2.4474,-0.73329 0.73603,-0.12669 0.99218,-0.30006 0.99218,-0.67076 0,-0.2951 -0.0975,-0.44728 -0.52658,-0.46715 z m 3.17242,0.73483 1.52135,0.0791 1.52136,0.0796 0.0796,0.95446 c 0.0796,0.95132 0.0762,0.95488 -1.16117,1.12448 -1.99196,0.27303 -1.96112,0.28945 -1.96112,-1.03352 z m -8.81859,0.24237 -0.81648,0.16019 c -1.05669,0.20739 -1.39237,0.68904 -1.61644,2.31821 l -0.18294,1.33015 -1.233,-1.21388 c -1.19165,-1.17373 -1.2655,-1.20558 -2.20865,-0.94516 -0.56657,0.15644 -0.9308,0.40445 -0.8692,0.59118 0.0583,0.17686 0.35728,1.19037 0.66456,2.25257 0.51134,1.76758 0.6079,1.91647 1.13895,1.75338 0.31912,-0.098 0.61039,-0.20339 0.64699,-0.23409 0.0367,-0.0307 -0.11117,-0.64077 -0.32814,-1.35599 -0.21697,-0.71522 -0.3954,-1.35587 -0.3974,-1.42317 -0.002,-0.0673 0.57111,0.44316 1.27279,1.1343 1.80526,1.77811 2.01646,1.64348 2.82671,-1.80558 0.18072,-0.76931 0.2003,-0.74897 0.63717,0.66146 0.36631,1.18263 0.54671,1.43794 0.96428,1.36374 0.28259,-0.0502 0.56106,-0.13695 0.61856,-0.19275 0.0575,-0.0558 -0.17075,-1.06724 -0.50694,-2.24792 z m 26.77046,0.0191 c -0.63273,-0.0728 -1.45641,0.58025 -2.60397,1.94355 l -1.61127,1.91409 0.73483,0.19637 c 0.48782,0.13047 0.85321,0.079 1.08573,-0.15348 0.49238,-0.49239 2.72847,0.0217 2.89698,0.66611 0.0664,0.25385 0.31682,0.51353 0.55655,0.57723 0.98378,0.26143 1.16214,0.18678 0.99322,-0.41806 -0.0914,-0.32742 -0.35936,-1.36923 -0.59479,-2.31511 -0.38314,-1.53939 -0.82455,-2.33791 -1.45728,-2.4107 z m 4.08968,1.19166 c -0.028,0.0232 -0.40877,1.0133 -0.84646,2.20038 l -0.79582,2.15852 1.90479,0.65681 c 2.13638,0.73686 2.43448,0.74006 2.43448,0.0253 0,-0.34496 -0.3426,-0.62613 -1.10691,-0.90847 -0.6088,-0.22489 -1.17501,-0.47686 -1.25781,-0.55966 -0.0828,-0.0828 0.0836,-0.83042 0.36949,-1.66139 l 0.51987,-1.51051 -0.5855,-0.22169 c -0.3219,-0.12186 -0.60813,-0.20251 -0.63613,-0.17931 z m -4.5527,0.30592 c 0.0993,-0.0382 0.17932,0.0184 0.2682,0.15865 0.12466,0.19672 0.22848,0.56596 0.23048,0.82062 0.004,0.48691 -0.43353,0.59712 -0.98392,0.24753 -0.25183,-0.15996 -0.22921,-0.34685 0.0997,-0.81649 0.16731,-0.23887 0.28622,-0.37209 0.3855,-0.41031 z m -37.67212,2.29908 c -0.41619,0.0858 -1.07853,0.38141 -2.17713,0.92501 -1.34284,0.66446 -1.96971,1.11913 -1.91461,1.38907 0.0829,0.40599 0.67773,0.45693 1.66347,0.14314 0.46041,-0.14656 0.62961,0.0446 1.1498,1.29966 0.61101,1.47417 0.88145,1.6784 1.61282,1.21595 0.33522,-0.21197 0.28729,-0.46173 -0.33073,-1.72186 -0.39753,-0.81054 -0.72244,-1.52739 -0.72244,-1.59319 0,-0.0658 0.35289,-0.30238 0.78445,-0.52554 0.51169,-0.26461 0.73184,-0.54301 0.63304,-0.80047 -0.11276,-0.29385 -0.28247,-0.41757 -0.69867,-0.33177 z m 50.62637,0.90228 c -0.71969,-0.0433 -1.12374,0.47307 -1.75183,1.71255 -0.61109,1.20592 -0.63975,1.39267 -0.29404,1.9203 0.21061,0.32144 1.08063,0.96299 1.93373,1.42575 1.83581,0.99582 2.23109,1.03698 2.89595,0.30231 0.49115,-0.54275 0.49087,-0.56035 -0.0114,-0.92759 -0.28148,-0.20583 -0.71956,-0.30798 -0.97358,-0.22738 -0.42818,0.1359 -2.60863,-0.77422 -2.60863,-1.08882 0,-0.37293 0.8396,-1.70119 1.07539,-1.70119 0.5694,0 2.36419,1.08748 2.36419,1.43247 0,0.33381 0.53733,0.6842 1.04904,0.6842 0.39386,0 0.48272,-1.02052 0.13229,-1.52084 -0.19134,-0.27317 -1.11802,-0.88727 -2.05879,-1.36478 -0.77517,-0.39345 -1.32054,-0.62098 -1.75235,-0.64698 z m -55.64363,1.86861 c -0.30802,-0.0704 -0.79627,0.1857 -2.13321,0.99736 l -2.01124,1.2206 1.22163,1.97972 c 0.67191,1.08877 1.29178,1.94643 1.37718,1.90583 0.80122,-0.38073 3.99087,-2.42136 3.98787,-2.55127 -0.002,-0.0926 -0.11306,-0.34025 -0.24598,-0.55035 -0.20063,-0.31709 -0.47253,-0.23844 -1.60094,0.46302 -1.42733,0.88728 -1.85312,1.01989 -1.85312,0.57774 0,-0.14686 0.6044,-0.63917 1.34359,-1.09399 1.19231,-0.73363 1.29951,-0.87142 0.94878,-1.22215 -0.35072,-0.35072 -0.48013,-0.3362 -1.14567,0.13023 -1.25348,0.87847 -1.89578,1.15248 -2.06447,0.87953 -0.0858,-0.13877 0.51893,-0.68428 1.34359,-1.21181 1.329,-0.85015 1.45463,-1.00362 1.10484,-1.35341 -0.0874,-0.0874 -0.17018,-0.14757 -0.27285,-0.17105 z m 29.83642,0.58136 c -2.745,-5.4e-4 -5.49344,0.14065 -7.41867,0.42375 -30.05568,4.41965 -49.91834,33.1954 -43.35136,62.80495 4.98959,22.49725 24.69229,39.30627 47.45705,40.48694 8.2446,0.4276 15.6553,-0.74205 22.56813,-3.56206 14.42431,-5.88421 25.17895,-17.33295 30.0576,-31.99856 3.49423,-10.5039 3.49423,-22.04037 0,-32.54427 -6.25384,-18.79953 -22.304,-32.27198 -41.91475,-35.1839 -1.91155,-0.28392 -4.653,-0.4263 -7.398,-0.42685 z m 31.62184,0.81804 c -0.60547,0 -0.91683,0.24609 -1.58388,1.25316 -1.17612,1.77561 -1.03059,2.30724 1.01596,3.7052 1.13749,0.777 1.91316,1.12877 2.36988,1.07487 0.83926,-0.099 2.48433,-2.15444 2.36885,-2.96003 -0.11284,-0.78716 -3.21523,-3.0732 -4.17081,-3.0732 z m -31.6885,1.1436 c 7.39543,0.003 14.80711,1.69395 21.75681,5.07101 5.76548,2.80162 9.54161,5.57848 14.32212,10.53217 3.57919,3.70884 5.90628,6.96329 8.26771,11.56364 2.03078,3.95619 3.18252,7.00164 4.15324,10.98021 2.29544,9.40801 1.78299,19.28698 -1.4826,28.575 -1.15877,3.2958 -4.15559,9.03428 -6.28334,12.0313 -1.97407,2.78059 -6.58353,7.693 -9.28522,9.89604 -7.55729,6.16247 -17.18297,10.0627 -27.15441,11.00295 -8.69806,0.82017 -17.61001,-0.82578 -25.75864,-4.75837 -14.43647,-6.96714 -24.39641,-19.86207 -27.60451,-35.7389 -0.53337,-2.63967 -0.60927,-3.79261 -0.60927,-9.23406 0,-5.44147 0.0759,-6.59439 0.60927,-9.23407 3.19778,-15.82575 13.0147,-28.58892 27.40866,-35.63555 6.88538,-3.37079 14.26475,-5.05473 21.66018,-5.05137 z m 32.19545,0.48008 c 0.37776,0.0504 0.82268,0.29401 1.34514,0.73225 l 0.91622,0.76843 -0.54519,0.73639 c -0.72053,0.97295 -0.86943,0.98648 -2.0345,0.18758 -1.044,-0.71587 -1.20504,-1.23203 -0.62373,-1.99781 0.25399,-0.33459 0.56429,-0.47727 0.94206,-0.42684 z m -66.93235,0.093 c -0.14831,-0.0917 -1.07104,0.46009 -2.05052,1.22629 -0.97948,0.76619 -1.82591,1.42446 -1.88051,1.46296 -0.0546,0.0385 0.52471,0.91183 1.28726,1.94045 0.9189,1.23952 1.48765,1.79356 1.68672,1.64331 3.66382,-2.76529 3.61575,-2.7181 3.33417,-3.24425 -0.2604,-0.48657 -0.35074,-0.45725 -1.67846,0.54519 -0.77176,0.58269 -1.48178,1.05936 -1.57768,1.05936 -0.2437,0 -0.21951,-0.79288 0.0243,-0.79788 0.10915,-0.002 0.64494,-0.38912 1.19114,-0.8599 0.72059,-0.62113 0.9273,-0.95755 0.75293,-1.22731 -0.19403,-0.30016 -0.49381,-0.18552 -1.55753,0.59531 -1.43432,1.05289 -1.64786,1.13568 -1.63556,0.63614 0.004,-0.1819 0.54028,-0.73169 1.19063,-1.22163 1.16079,-0.87448 1.44821,-1.42733 0.91312,-1.75804 z m 72.1372,1.93839 -1.51205,1.67845 c -1.40573,1.55986 -1.48278,1.71102 -1.09296,2.1487 0.39698,0.44571 0.47857,0.4124 1.53221,-0.62166 l 1.11311,-1.09244 -0.38241,1.65571 c -0.3377,1.46176 -0.33586,1.70225 0.015,2.0531 0.35344,0.35344 0.56272,0.33409 1.89084,-0.17415 0.82126,-0.31428 1.54994,-0.57154 1.61954,-0.57154 0.0696,0 -0.2946,0.51398 -0.80926,1.14205 -0.8836,1.07832 -0.91078,1.16713 -0.48265,1.59525 0.42812,0.42813 0.538,0.36072 1.96525,-1.20819 0.83131,-0.91382 1.50992,-1.72089 1.50792,-1.79369 -0.002,-0.0728 -0.35334,-0.40866 -0.78135,-0.74673 l -0.77773,-0.61494 -1.45624,0.54466 c -1.63545,0.6119 -1.66001,0.58127 -1.07229,-1.35547 l 0.37827,-1.24643 -0.82734,-0.6966 z m -79.07166,3.70623 c -0.21579,-0.092 -0.33805,0.0204 -0.55294,0.25787 -0.42353,0.468 -0.37251,0.57343 1.03198,2.12545 0.81264,0.89798 1.55726,1.62757 1.65416,1.62057 0.0969,-0.007 0.8883,-0.6592 1.75907,-1.45004 1.47527,-1.33984 1.55345,-1.46807 1.14411,-1.87741 -0.40935,-0.40933 -0.51657,-0.3735 -1.56993,0.52814 l -1.13016,0.9679 -1.22163,-1.20355 c -0.58921,-0.58034 -0.89888,-0.87691 -1.11466,-0.96893 z m 42.16848,0.0506 c -0.0945,0.002 -0.90592,0.9919 -1.8035,2.20039 -5.63578,7.58795 -10.68001,17.85287 -14.64872,29.81058 l -2.06344,6.21771 -1.54358,0.89297 c -7.20069,4.16646 -11.53257,7.12285 -13.98829,9.5467 -2.96729,2.92877 -3.17633,4.77541 -0.67179,5.93401 1.08904,0.50359 1.63321,0.55516 5.44359,0.51366 2.32834,-0.0254 4.86866,-0.15829 5.64514,-0.29507 l 1.4118,-0.24857 -0.15348,0.82424 c -0.96388,5.17716 -2.10185,14.55925 -2.68304,22.12268 -0.10807,1.40582 -0.0799,2.14977 0.0754,1.98438 0.13666,-0.14552 1.1795,-1.57427 2.31717,-3.175 11.58278,-16.29705 24.30359,-26.85521 32.35617,-26.85521 1.20151,0 1.44773,0.11275 2.69544,1.23455 3.19318,2.87095 7.38155,10.82072 11.51558,21.85758 0.69639,1.85919 1.30174,3.34449 1.34514,3.30109 0.0434,-0.0434 -0.0976,-2.10018 -0.31316,-4.57078 -0.71823,-8.23193 -2.21959,-17.38842 -4.22507,-25.76639 -0.50183,-2.09642 -0.88126,-3.83266 -0.84336,-3.85816 0.0379,-0.0255 1.24929,-0.67091 2.69234,-1.43402 3.33454,-1.76335 5.71077,-3.37371 5.71077,-3.87056 0,-0.21286 -0.0391,-0.38706 -0.0868,-0.38706 -0.0477,0 -1.20853,0.48849 -2.57969,1.08572 -3.76776,1.64109 -6.31579,2.59177 -6.42596,2.39675 -0.0543,-0.0962 -0.48381,-1.48487 -0.95447,-3.0856 -2.44724,-8.32323 -6.61145,-18.24984 -10.54354,-25.13541 -2.45243,-4.2945 -7.20535,-11.25118 -7.68067,-11.24118 z m -0.0103,1.3193 c 0.29345,0 2.94674,3.7081 5.06481,7.07864 4.75419,7.56545 10.08543,19.8632 12.84159,29.62196 0.53693,1.90096 0.5368,1.90853 0.0129,2.07481 -0.28918,0.0918 -0.55895,0.12618 -0.59945,0.0765 -0.0406,-0.0497 -0.75652,-2.23355 -1.59112,-4.85293 -2.97808,-9.34665 -6.76942,-17.9937 -10.90786,-24.87755 -2.29772,-3.82204 -4.49397,-7.00474 -4.83329,-7.00474 -0.33315,0 -4.22726,6.07661 -6.07095,9.47332 -4.88077,8.99206 -8.91862,19.85965 -11.8861,31.9903 h -5.1e-4 c -1.42813,5.83799 -1.538,6.15731 -2.12235,6.15931 -0.72379,0.002 -0.77687,0.41916 0.77721,-6.08335 3.27828,-13.71686 8.34145,-26.6388 14.32574,-36.55901 1.91539,-3.17515 4.67281,-7.09724 4.98936,-7.09724 z m -43.86657,0.37104 c -0.2948,-0.0118 -0.70212,0.36302 -1.74667,1.47433 l -1.59783,1.70015 1.69653,1.53014 c 0.93323,0.84145 1.8074,1.49513 1.94252,1.45263 0.13513,-0.0425 0.37189,-0.27752 0.52607,-0.52194 0.22158,-0.35128 0.15361,-0.5331 -0.32401,-0.86764 l -0.6041,-0.42323 1.10019,-1.19373 c 1.02708,-1.11425 1.07116,-1.22261 0.65784,-1.62987 -0.41234,-0.40631 -0.51347,-0.35467 -1.46761,0.75396 -0.69945,0.81269 -1.11184,1.10514 -1.29863,0.92139 -0.1875,-0.18445 0.0557,-0.65431 0.77205,-1.49242 0.93876,-1.09825 1.00212,-1.2591 0.62011,-1.57613 -0.0927,-0.0769 -0.1782,-0.12372 -0.27646,-0.12764 z m 87.24583,0.4253 c -0.29286,0.005 -3.32382,2.72502 -3.32382,2.98328 0,0.14505 0.20452,0.39303 0.45475,0.55087 0.36962,0.23315 0.62979,0.11796 1.38544,-0.61444 0.51158,-0.49583 0.98073,-0.85034 1.04283,-0.78754 0.0621,0.0628 -0.16303,0.79131 -0.50022,1.61902 -0.48793,1.19774 -0.54913,1.59231 -0.30024,1.9327 0.30959,0.42338 1.08727,0.35764 3.47369,-0.29404 0.31186,-0.0852 0.008,0.31171 -0.74001,0.96686 -1.20722,1.05718 -1.24793,1.13586 -0.82424,1.60404 0.43029,0.47546 0.49019,0.45389 1.75338,-0.62683 0.71934,-0.61543 1.5323,-1.27917 1.80661,-1.47537 0.4815,-0.3444 0.47514,-0.38654 -0.1912,-1.22163 l -0.6904,-0.86506 -1.44539,0.37724 c -0.79501,0.2076 -1.49658,0.32656 -1.55908,0.26406 -0.0625,-0.0625 0.12932,-0.7288 0.42582,-1.48104 l 0.53898,-1.36788 -0.57929,-0.78341 c -0.31853,-0.43085 -0.64581,-0.78183 -0.72761,-0.78083 z m -91.01511,4.23075 c -0.55115,0 -0.98234,0.38612 -2.10065,1.8805 -0.77386,1.0341 -1.3067,1.97995 -1.18391,2.1022 0.12279,0.12224 0.93814,0.76177 1.81126,1.4211 l 1.58698,1.19889 0.46716,-0.55759 c 0.44104,-0.52634 0.44145,-0.57537 0.0114,-0.88986 -0.42424,-0.31021 -0.41069,-0.39832 0.19482,-1.28726 0.68022,-0.99865 1.01438,-1.14879 1.49241,-0.67076 0.20612,0.20612 0.40859,0.11343 0.71934,-0.33022 0.40188,-0.5737 0.40021,-0.64141 -0.0202,-0.94877 -0.24886,-0.18197 -0.66747,-0.33073 -0.9307,-0.33073 -0.26323,0 -0.47852,-0.13961 -0.47852,-0.31006 0,-0.57051 -0.86868,-1.27744 -1.56941,-1.27744 z m 0.03,1.5198 c 0.28379,-0.0885 0.48111,0.0455 0.48111,0.43667 0,0.17183 -0.32743,0.6959 -0.72761,1.16427 -0.53329,0.62413 -0.82962,0.78577 -1.10846,0.60513 -0.31653,-0.20505 -0.25655,-0.42493 0.35502,-1.30742 0.34588,-0.49911 0.71615,-0.81013 0.99994,-0.89865 z m 59.4341,0.0884 c -0.27687,0.009 -0.56428,0.17111 -0.75396,0.52555 -0.21842,0.40815 -0.21002,0.64491 0.0336,0.93844 0.49043,0.59093 1.41477,0.3501 1.52032,-0.39636 0.0945,-0.66809 -0.33851,-1.08186 -0.79995,-1.06763 z m -28.8339,1.90737 c -0.19994,-0.0283 -0.41452,-0.0183 -0.63976,0.0382 -1.33412,0.33485 -1.7346,1.92823 -0.73587,2.92696 0.41749,0.41749 1.60908,0.52822 2.10685,0.19585 1.35364,-0.90385 0.66834,-2.96327 -0.73122,-3.16105 z m 37.66953,0.48008 c -0.32188,-0.0196 -0.66033,0.14748 -0.98237,0.50333 -0.39648,0.43812 -0.42742,0.64496 -0.1788,1.19062 0.22305,0.48952 0.5052,0.66043 1.09089,0.66043 1.08147,0 1.54192,-0.83923 0.95343,-1.73737 -0.2562,-0.39101 -0.56126,-0.59744 -0.88315,-0.61701 z m 28.47579,0.0109 c -0.25098,0.011 -0.57224,0.0412 -0.99581,0.0832 -0.95625,0.0949 -2.11993,0.23801 -2.58641,0.31781 -0.82777,0.14161 -0.83811,0.1603 -0.43253,0.77928 0.22855,0.34882 0.6383,0.63407 0.91054,0.63407 0.6158,0 1.901,1.87561 1.68,2.45153 -0.0882,0.22978 -0.0275,0.66497 0.13436,0.96738 0.16184,0.30241 0.37916,0.54915 0.48318,0.54829 0.10402,-8.6e-4 0.71406,-0.98854 1.35547,-2.1947 l 1.16634,-2.19263 -0.48628,-0.74156 c -0.35513,-0.542 -0.47593,-0.68562 -1.22886,-0.65267 z m 0.20722,1.36012 c 0.0433,0.0433 -0.13661,0.40725 -0.39998,0.80874 l -0.47904,0.73019 -0.42219,-0.64441 c -0.41262,-0.62973 -0.40375,-0.64799 0.39997,-0.80873 0.45223,-0.0907 0.85794,-0.12909 0.90124,-0.0858 z m -74.54739,1.05885 c -0.18135,-0.035 -0.38933,-0.0259 -0.61805,0.0315 -0.7846,0.19692 -1.16059,1.28493 -0.65474,1.89445 0.20457,0.24649 0.6595,0.37532 1.15393,0.32712 0.69745,-0.0681 0.82797,-0.19862 0.89607,-0.89607 0.0736,-0.75439 -0.23317,-1.25216 -0.77721,-1.35703 z m -26.04802,0.20619 c -1.36989,-0.0338 -1.85461,0.19008 -2.19677,0.80254 -0.36406,0.65165 -0.31648,0.79864 0.91778,2.83755 0.71589,1.18261 1.36198,2.15297 1.43608,2.15697 0.36452,0.0186 0.78868,-1.10333 0.56689,-1.49965 -0.31447,-0.56191 0.9313,-2.67459 1.64073,-2.78225 0.27903,-0.0423 0.67717,-0.33386 0.8847,-0.64803 0.37209,-0.56331 0.35072,-0.57358 -1.55701,-0.75189 -0.68082,-0.0636 -1.23577,-0.10397 -1.6924,-0.11524 z m -8.31681,1.25884 c -0.34673,0.68969 -0.66211,1.3915 -0.9834,2.09083 0.32018,-0.701 0.63961,-1.40244 0.9834,-2.09083 z m 7.93647,0.047 c 0.81363,0 0.92553,0.15826 0.63924,0.90433 -0.22608,0.58915 -0.5045,0.52195 -1.00563,-0.24288 -0.42935,-0.65546 -0.42597,-0.66145 0.36639,-0.66145 z m 104.21379,0.28783 -1.96525,0.97255 c -1.97602,0.97776 -2.16531,1.18905 -1.70946,1.90997 0.21213,0.33546 0.45699,0.28936 1.69499,-0.31781 l 1.44642,-0.70952 -0.88263,1.93786 -0.88315,1.93735 0.51521,0.84698 c 0.28327,0.4658 0.60866,0.80829 0.72296,0.76119 1.17103,-0.48207 3.74182,-1.99641 3.73982,-2.20245 -0.002,-0.14553 -0.11683,-0.44317 -0.25632,-0.66145 -0.21784,-0.34087 -0.43766,-0.2942 -1.55649,0.33073 -0.71647,0.40017 -1.37604,0.7276 -1.46554,0.7276 -0.0895,0 0.25441,-0.82824 0.76429,-1.84072 l 0.92708,-1.84071 -0.54622,-0.92552 z m -35.41592,0.50592 c -0.24593,0 -0.66315,0.23857 -0.92708,0.5302 -0.3965,0.43813 -0.42742,0.64496 -0.1788,1.19062 0.22486,0.49351 0.50422,0.66043 1.10588,0.66043 1.1071,0 1.63976,-1.06353 0.92707,-1.85105 -0.26393,-0.29163 -0.68114,-0.5302 -0.92707,-0.5302 z m -71.8752,1.64692 c -0.34818,-0.0253 -0.62486,0.47401 -1.48105,2.20039 -0.94889,1.91327 -1.06001,2.29795 -0.72554,2.5094 0.59733,0.37764 0.69993,0.32517 1.05937,-0.5426 0.36619,-0.88406 0.6089,-0.87987 2.43396,0.0408 1.22686,0.61897 1.23889,0.61821 1.49913,-0.0853 0.19145,-0.51754 0.0461,-0.66049 -1.34152,-1.31672 l -1.55649,-0.73587 0.43201,-0.83509 c 0.35636,-0.68907 0.3699,-0.87497 0.0765,-1.06092 -0.15608,-0.0989 -0.2803,-0.16573 -0.39636,-0.17415 z m -6.28851,0.56328 c -0.39043,0.8874 -0.75054,1.78655 -1.10071,2.68976 0.34986,-0.90481 0.71279,-1.80338 1.10071,-2.68976 z m 42.95862,0.96893 c -1.58955,-0.01 -2.32024,1.65316 -1.21285,2.76056 1.02102,1.02102 2.32771,0.7672 2.82826,-0.54933 0.42729,-1.12385 -0.36152,-2.20423 -1.61541,-2.21123 z m 40.89363,0.52503 c -1.05615,0 -1.61549,1.3218 -0.87333,2.06396 0.43944,0.43942 1.15278,0.39699 1.64796,-0.0982 0.79915,-0.79915 0.33957,-1.96577 -0.77463,-1.96577 z m -51.54776,0.39688 -0.50281,1.71979 c -0.83958,2.87216 -0.72947,2.75047 -2.95331,3.27473 -1.10929,0.26152 -1.96294,0.56254 -1.89704,0.66921 0.0659,0.10666 1.00762,0.41498 2.09289,0.68523 l 1.97353,0.49145 0.59169,2.20245 c 0.3255,1.21122 0.61766,2.20193 0.64906,2.20193 0.0314,0 0.32304,-0.99071 0.64854,-2.20193 l 0.59221,-2.20245 1.97301,-0.49145 c 1.08527,-0.27025 2.02547,-0.57574 2.08927,-0.67902 0.0638,-0.10328 -0.80568,-0.41425 -1.93218,-0.69092 -2.27454,-0.55863 -2.06818,-0.29886 -3.00498,-3.7884 z m -33.59588,1.27951 c -0.33902,0.8955 -0.65101,1.80216 -0.95085,2.71353 0.30035,-0.91178 0.61269,-1.81839 0.95085,-2.71353 z m 60.93426,0.70486 h 1.85209 1.85208 v 2.38125 c 0,1.7306 0.0904,2.38064 0.33073,2.37764 0.1819,-0.002 1.18583,-0.47027 2.23139,-1.04025 1.40503,-0.76599 1.96671,-0.95492 2.1518,-0.72399 0.24954,0.31133 1.63608,2.99203 1.63608,3.16312 0,0.0495 -0.83343,0.49318 -1.85208,0.98598 -1.01864,0.49279 -1.85209,0.99056 -1.85209,1.10588 0,0.11531 0.68462,0.56366 1.52136,0.99632 2.44173,1.26254 2.35115,1.06883 1.35134,2.88871 -0.48866,0.88948 -0.99275,1.61858 -1.12035,1.62058 -0.12761,0.002 -1.09474,-0.47316 -2.14922,-1.05524 -1.05448,-0.58209 -1.99188,-1.05833 -2.08308,-1.05833 -0.0913,0 -0.16588,1.13109 -0.16588,2.51354 v 2.51354 h -1.85208 -1.85209 v -2.51354 c 0,-1.38245 -0.0795,-2.51354 -0.17621,-2.51354 -0.0967,0 -1.04316,0.47624 -2.10375,1.05833 -1.06059,0.58208 -2.02578,1.05834 -2.14457,1.05834 -0.20372,0 -1.92547,-2.92503 -1.92547,-3.27112 0,-0.0889 0.83809,-0.58383 1.86242,-1.09968 1.02434,-0.51585 1.78926,-1.05584 1.70016,-1.19992 -0.0891,-0.14409 -0.89737,-0.63052 -1.79628,-1.08107 -0.8989,-0.45056 -1.67182,-0.85269 -1.71772,-0.89349 -0.0654,-0.0581 1.44107,-3.24432 1.65209,-3.49436 0.0277,-0.0328 0.93615,0.41026 2.019,0.98495 1.08285,0.57469 2.1177,1.04813 2.2996,1.05213 0.24063,0.005 0.33073,-0.6422 0.33073,-2.37453 z m 57.30348,0.0656 c -0.0443,-0.0443 -1.04229,0.29584 -2.21795,0.75603 l -2.13785,0.83664 0.61908,1.61851 c 0.34042,0.89008 0.70886,1.85611 0.81855,2.14715 0.1097,0.29104 0.37815,0.73753 0.59687,0.99219 0.50947,0.5932 0.75062,0.58319 2.4014,-0.10284 0.90085,-0.37438 1.41062,-0.75863 1.50482,-1.13378 0.11147,-0.44411 -1.22395,-4.75293 -1.58492,-5.1139 z m -112.99155,1.25729 c -0.73084,0 -1.1024,0.57481 -1.8495,2.86029 -0.43712,1.33673 -0.43722,1.42997 0.005,1.91823 0.25678,0.28374 0.80868,0.51315 1.23403,0.51315 0.69206,0 0.84919,-0.17624 1.56477,-1.75442 0.49879,-1.10006 0.88882,-1.66089 1.04541,-1.5043 0.32542,0.32542 -0.20547,1.93629 -0.81235,2.46497 -0.60973,0.53116 -0.84171,1.2588 -0.45165,1.41748 0.9932,0.40405 1.48758,-0.16581 2.32337,-2.67736 0.53481,-1.60696 0.53903,-1.70465 0.0951,-2.19521 -0.52495,-0.58007 -1.76454,-0.68299 -2.18126,-0.18087 -0.15195,0.18308 -0.50788,0.92189 -0.79065,1.64176 -0.50753,1.29206 -1.11466,1.89288 -1.11466,1.10278 0,-0.60634 0.57314,-1.8231 1.11208,-2.36007 0.68205,-0.67953 0.60064,-1.24643 -0.17932,-1.24643 z m 83.31688,0.30282 c -0.50062,-0.0734 -1.0564,0.17647 -1.27693,0.80616 -0.17794,0.50804 -0.15143,0.82992 0.093,1.12447 h 5.2e-4 c 0.71774,0.86483 2.12958,0.335 2.12958,-0.79891 0,-0.66203 -0.44557,-1.0583 -0.94619,-1.13172 z m 29.099,0.26614 c 0.0393,0.0509 0.27945,0.62526 0.5333,1.2764 0.45571,1.16897 0.45394,1.18983 -0.11886,1.65365 -0.94673,0.76662 -1.46152,0.59055 -1.94045,-0.66352 -0.23806,-0.62333 -0.43305,-1.26879 -0.43305,-1.43454 0,-0.27792 1.79727,-1.04121 1.95906,-0.83199 z m -54.45249,0.22479 c -0.16803,0 -0.68907,0.3504 -1.15807,0.77876 -1.04326,0.95287 -1.10756,1.90104 -0.1912,2.8174 0.79724,0.79725 0.93226,2.63004 0.23151,3.14245 -0.62539,0.45729 -0.5474,1.762 0.13229,2.2133 0.48254,0.32042 0.56224,0.63116 0.56224,2.19315 0,1.44121 0.0825,1.81952 0.39687,1.81952 0.26281,0 0.39688,-0.26295 0.39688,-0.77824 0,-0.42798 0.11905,-0.85165 0.26458,-0.94155 0.14552,-0.0899 0.26458,-0.56618 0.26458,-1.05833 0,-0.49214 -0.11906,-0.96844 -0.26458,-1.05834 -0.14553,-0.0899 -0.26458,-0.58557 -0.26458,-1.10174 0,-0.68593 0.17802,-1.07854 0.66146,-1.45882 0.82026,-0.64519 0.84277,-1.38269 0.0661,-2.16214 -0.60767,-0.60987 -0.76535,-2.10457 -0.33228,-3.15227 0.20622,-0.4989 -0.25476,-1.25315 -0.76584,-1.25315 z m -64.36868,0.51676 c -0.26579,0.83609 -0.50991,1.68142 -0.74311,2.53112 0.23412,-0.84901 0.47675,-1.69493 0.74311,-2.53112 z m 82.3929,1.08779 c -0.48098,-0.009 -0.9739,0.13004 -1.29501,0.42065 -0.63842,0.57774 -0.61564,1.81161 0.0455,2.47272 0.29104,0.29104 0.82682,0.52916 1.19063,0.52916 1.42539,0 2.24569,-1.8906 1.28209,-2.95537 -0.2728,-0.30146 -0.7422,-0.45837 -1.22318,-0.46716 z m -18.85828,0.11266 c 0.10187,-0.0915 0.13348,0.0849 0.13798,0.59789 0.009,0.94154 -0.1118,1.08895 -0.36071,0.44029 -0.0886,-0.23079 -0.0457,-0.61774 0.0956,-0.8599 0.0511,-0.0875 0.0932,-0.14777 0.12712,-0.17828 z m -64.54335,2.30787 c -0.19229,0.74473 -0.36924,1.4962 -0.53692,2.25154 0.16841,-0.75428 0.34342,-1.50621 0.53692,-2.25154 z m 66.01251,1.002 c 0.14552,0 0.26458,0.17167 0.26458,0.38137 0,0.20969 -0.11906,0.45477 -0.26458,0.54467 -0.14553,0.0899 -0.26458,-0.0817 -0.26458,-0.38137 0,-0.29963 0.11905,-0.54467 0.26458,-0.54467 z m 29.46177,1.33997 c -0.44616,-0.0214 -0.91284,0.16363 -1.33274,0.55811 -0.70225,0.65973 -0.78458,1.477 -0.22376,2.21847 0.50378,0.66632 0.50194,0.91054 -0.008,0.91054 -0.3359,0 -0.3876,0.23493 -0.27492,1.25677 l 0.13901,1.25677 -0.32091,-1.37873 c -0.17645,-0.75847 -0.46974,-1.52673 -0.65164,-1.70687 -0.1819,-0.18014 -0.33073,-0.72023 -0.33073,-1.20045 v -0.87333 h -3.0427 c -3.32351,0 -3.72167,0.22138 -2.3456,1.3038 0.38343,0.3016 0.61995,0.54829 0.52555,0.54829 -0.0944,0 0.13161,0.45839 0.5023,1.01854 0.60706,0.91733 0.92094,1.09464 3.16311,1.78594 1.72454,0.5317 2.52704,0.90964 2.61224,1.23041 0.0814,0.30636 -0.0277,0.46302 -0.32246,0.46302 -0.24504,0 -0.71691,0.18994 -1.04851,0.4222 -0.90406,0.63322 -0.69855,1.89506 0.40462,2.48409 l 0.84543,0.45165 -0.68936,0.51469 c -0.55231,0.41235 -0.65468,0.65407 -0.51418,1.21388 0.0965,0.38448 0.40713,0.77258 0.69039,0.86248 0.50739,0.16104 0.50699,0.17153 -0.0171,0.69557 -0.71404,0.71404 -0.54592,1.34204 0.48731,1.82211 0.73289,0.34053 0.8549,0.53497 0.8599,1.36736 0.003,0.53358 0.15451,1.0218 0.33641,1.0852 0.66817,0.23307 0.99219,-0.14523 0.99219,-1.15807 0,-0.61777 0.12554,-1.02991 0.31367,-1.02991 0.49487,0 1.53841,-1.10168 1.53841,-1.62419 0,-0.26055 -0.25106,-0.60823 -0.55811,-0.77256 -0.54488,-0.29162 -0.53856,-0.3105 0.26459,-0.79892 0.9748,-0.59281 1.10491,-1.60389 0.2806,-2.18126 -0.53707,-0.37617 -0.53589,-0.38138 0.11472,-0.54467 1.33767,-0.33574 1.19501,-2.06457 -0.21239,-2.57349 -1.45891,-0.52755 -0.94001,-1.07031 1.87017,-1.95595 1.38524,-0.43656 2.51221,-0.88031 2.50321,-0.98599 -0.009,-0.10568 0.27979,-0.51115 0.6413,-0.90123 0.36151,-0.39007 0.60105,-0.76579 0.53175,-0.83509 -0.0693,-0.0693 0.16773,-0.35695 0.52659,-0.63924 1.32893,-1.04533 0.90793,-1.26866 -2.39055,-1.26866 h -3.04271 v 0.87333 c 0,0.48022 -0.14883,1.02116 -0.33073,1.20251 -0.1819,0.18136 -0.47308,0.8901 -0.64699,1.57459 l -0.31626,1.24436 0.14108,-1.12447 c 0.11412,-0.91002 0.0609,-1.12448 -0.27906,-1.12448 -0.51654,0 -0.52016,-0.24196 -0.0145,-0.91054 0.53121,-0.70232 0.48738,-1.27327 -0.16019,-2.09652 -0.33889,-0.43083 -0.76462,-0.65868 -1.21078,-0.68006 z m -30.78469,1.04128 c 0.14552,0 0.26459,0.1786 0.26459,0.39688 0,0.21828 -0.11907,0.39687 -0.26459,0.39687 -0.14553,0 -0.26458,-0.17859 -0.26458,-0.39687 0,-0.21828 0.11905,-0.39688 0.26458,-0.39688 z m -65.52261,0.25632 c -0.13601,0.67872 -0.26223,1.36212 -0.37879,2.04949 0.11631,-0.68631 0.24194,-1.36968 0.37879,-2.04949 z m 30.11909,0.1111 c -0.14431,0.008 -0.29481,0.0442 -0.44855,0.11421 -0.80425,0.36644 -0.92869,1.71709 -0.19741,2.14302 0.65316,0.38043 1.02391,0.34862 1.50224,-0.12971 0.84577,-0.84578 0.15387,-2.18215 -0.85628,-2.12752 z m -30.66945,3.02876 c -0.082,0.53366 -0.18169,1.05944 -0.25218,1.59835 -0.53665,4.10145 -0.53761,12.39769 -0.002,16.50959 3.31184,25.42589 20.74129,46.50117 45.10164,54.53672 4.35519,1.4366 9.51874,2.49297 14.94895,3.05821 h 5.2e-4 c 2.22556,0.23166 12.2816,-0.0872 14.84457,-0.47077 14.43747,-2.16071 26.94834,-8.46866 37.29178,-18.80247 1.42924,-1.4279 2.77197,-2.90114 4.04472,-4.41162 -3.61455,4.31206 -7.81111,8.17593 -12.55014,11.52075 -8.62854,6.09002 -18.97598,10.1299 -29.42766,11.48973 -6.62847,0.86241 -13.58653,0.72347 -19.92695,-0.39791 -28.94107,-5.11858 -50.92151,-28.41265 -54.30986,-57.55617 -0.50343,-4.33 -0.37389,-12.85585 0.23667,-17.07441 z m 95.34095,4.1832 c 0.0677,0.0485 0.12595,0.16225 0.1726,0.34055 0.0786,0.30066 0.0422,0.54674 -0.0811,0.54674 -0.37912,0 -0.59426,-0.56019 -0.32039,-0.83406 0.0845,-0.0845 0.16121,-0.10168 0.22892,-0.0532 z m 3.01119,0.0935 c 0.14552,0 0.26458,0.11906 0.26458,0.26458 0,0.14552 -0.11906,0.26459 -0.26458,0.26459 -0.14552,0 -0.26458,-0.11907 -0.26458,-0.26459 0,-0.14552 0.11906,-0.26458 0.26458,-0.26458 z m -71.51915,1.10846 c -0.58879,0.0842 -0.87143,0.74143 -0.61081,1.42058 v 5.2e-4 c 0.18845,0.49064 1.06466,0.49154 1.47174,10e-4 0.46875,-0.56481 -0.1148,-1.52885 -0.86093,-1.42213 z m 60.53687,0.27182 c 0.065,0.078 -1.09084,0.70889 -3.23701,1.73012 -11.45524,5.45084 -28.0645,10.48728 -40.81404,12.37548 -3.45445,0.5116 -9.01053,0.71521 -10.55181,0.38705 -1.27081,-0.27057 -2.36377,-0.88465 -2.58072,-1.45004 -0.46224,-1.20456 2.59567,-4.4171 7.12979,-7.48998 3.30131,-2.23736 9.16256,-5.71353 9.33793,-5.53816 0.11038,0.11038 -1.38257,5.51207 -1.55339,5.62032 -3.57657,2.26688 -6.01514,4.45873 -6.01514,5.40639 0,2.09236 5.55452,1.74842 16.80105,-1.03973 8.7694,-2.17404 22.6386,-6.57053 29.99816,-9.50949 0.96747,-0.38635 1.44618,-0.53879 1.48518,-0.49196 z m 10.50272,1.32601 c 0.17291,0.0576 0.3615,0.2463 0.4191,0.4191 0.15873,0.47622 -0.38854,0.37604 -0.57309,-0.1049 -0.0989,-0.25769 -0.0394,-0.3786 0.15399,-0.3142 z m -2.43499,0.60358 c 0.1479,-0.0914 0.26872,0.0196 0.26872,0.2465 0,0.46474 -0.15869,0.53339 -0.38551,0.1664 -0.0837,-0.13546 -0.0311,-0.3215 0.11679,-0.4129 z m -10.80141,0.55346 c 0.33129,0.0511 0.55863,0.90521 1.25626,3.84731 1.6304,6.87594 3.37468,17.07869 3.86074,22.58415 l 0.1633,1.85208 -1.68724,-3.96875 c -3.78633,-8.90602 -7.52212,-15.17155 -10.13633,-16.99947 -1.48968,-1.04163 -2.73968,-1.11416 -5.78466,-0.33538 -7.53824,1.92794 -17.70894,10.64122 -27.33838,23.42027 -1.53517,2.0373 -2.89232,3.81759 -3.01532,3.95583 -0.12643,0.14208 -0.22111,-0.203 -0.21911,-0.79375 0.006,-1.53498 0.93907,-10.00457 1.57251,-14.2751 0.99036,-6.67684 1.05358,-6.94497 1.67535,-7.10757 0.30851,-0.0807 0.60573,-0.10224 0.66043,-0.0475 0.0547,0.0547 -0.20526,1.98492 -0.57826,4.28914 -0.77354,4.77865 -1.81228,12.9884 -1.68982,13.35577 0.0451,0.13525 1.44956,-1.45421 3.12126,-3.53208 6.94313,-8.6301 14.77759,-15.65318 20.89898,-18.73477 4.21487,-2.12182 8.44432,-2.9124 10.47016,-1.95699 2.27852,1.07457 5.10219,4.79269 8.01915,10.55956 0.88327,1.74625 1.60831,2.98296 1.61231,2.74815 0.0132,-0.86766 -1.62926,-9.44354 -2.64894,-13.83068 -0.98106,-4.22103 -1.02167,-4.55043 -0.59945,-4.8612 0.15475,-0.1139 0.27663,-0.18601 0.38706,-0.16898 z m 13.2023,1.9575 c 0.15407,0 0.20669,0.11907 0.11679,0.26459 -0.0899,0.14552 -0.21589,0.26458 -0.28009,0.26458 -0.0642,0 -0.11679,-0.11906 -0.11679,-0.26458 0,-0.14552 0.12598,-0.26459 0.28009,-0.26459 z m -2.13631,0.13488 c 0.1479,-0.0914 0.26872,0.0196 0.26872,0.24649 0,0.46475 -0.1587,0.53339 -0.38551,0.1664 -0.0837,-0.13546 -0.0311,-0.32149 0.11679,-0.41289 z m -50.57262,2.11718 c 0.0562,0.0562 -0.11565,1.17985 -0.38189,2.49701 l -0.48421,2.39468 -1.86138,-0.004 c -2.42596,-0.005 -2.83261,-0.24511 -2.10013,-1.23972 0.55078,-0.7479 4.63865,-3.8368 4.82761,-3.64784 z m -35.05781,1.09709 -1.47795,0.84543 -1.47794,0.84543 -1.34566,-0.79324 c -0.74004,-0.43635 -1.34565,-0.73707 -1.34565,-0.66817 0,0.0689 0.3244,0.70632 0.72089,1.41645 l 0.72088,1.29139 -0.75706,1.39113 -0.75706,1.39113 1.39113,-0.75706 1.39113,-0.75758 1.3193,0.73691 c 0.72565,0.40515 1.35917,0.69704 1.40767,0.64854 0.0485,-0.0485 -0.26668,-0.6579 -0.70022,-1.35444 l -0.78858,-1.26659 0.84956,-1.48466 z m 110.92863,0.35502 c -0.10544,0 0.12885,0.58855 0.52038,1.30793 l 0.71159,1.30845 -0.69505,1.18649 c -0.38246,0.6526 -0.69557,1.26129 -0.69557,1.35289 0,0.0916 0.59531,-0.16763 1.32292,-0.5762 l 1.32292,-0.7431 1.32291,0.7431 c 0.7276,0.40857 1.32292,0.6678 1.32292,0.5762 0,-0.0916 -0.31312,-0.70029 -0.69556,-1.35289 l -0.69505,-1.18649 0.71158,-1.30845 c 0.39154,-0.71938 0.62582,-1.30793 0.52038,-1.30793 -0.10544,0 -0.7082,0.3029 -1.33945,0.67283 l -1.14773,0.67282 -1.14774,-0.67282 c -0.63125,-0.36993 -1.23401,-0.67283 -1.33945,-0.67283 z m -30.17904,1.10432 c -0.27293,-0.0443 -0.55734,0.0143 -0.80718,0.2217 -0.47374,0.39321 -0.51459,1.35765 -0.076,1.79627 0.43862,0.43866 1.40307,0.39781 1.79628,-0.076 0.62206,-0.74953 -0.0943,-1.80901 -0.91313,-1.942 z m 3.42977,3.65818 c -0.3056,0 -0.6987,0.14319 -0.87333,0.31781 -0.17462,0.17463 -0.3173,0.56721 -0.3173,0.87281 0,0.30559 0.14268,0.69871 0.3173,0.87334 0.17463,0.17462 0.56773,0.31729 0.87333,0.31729 0.30559,0 0.69818,-0.14267 0.87281,-0.31729 0.17462,-0.17463 0.31781,-0.56775 0.31781,-0.87334 0,-0.3056 -0.14319,-0.69818 -0.31781,-0.87281 -0.17463,-0.17462 -0.56722,-0.31781 -0.87281,-0.31781 z m -22.37228,3.49953 c -0.28603,0.0257 -0.58399,0.15663 -0.85059,0.42323 -0.47182,0.47182 -0.50763,0.65099 -0.24598,1.22525 0.39443,0.86567 1.73904,0.94854 2.17506,0.13384 0.52982,-0.98998 -0.2204,-1.85947 -1.07849,-1.78232 z m 58.26053,0.17311 c -2.30799,11.25041 -7.09499,21.32048 -14.09062,29.69535 7.17157,-8.53965 11.85232,-18.40597 14.09062,-29.69535 z m -30.38781,0.0816 c -0.56941,0.11217 -0.99043,0.84341 -0.78858,1.36943 0.20505,0.53438 1.06694,0.56474 1.49189,0.0527 0.41088,-0.49508 -0.10583,-1.53984 -0.70331,-1.42214 z m -71.32795,1.93425 -0.42374,1.3162 c -0.37327,1.15923 -0.53989,1.34844 -1.39475,1.5875 -1.41881,0.39678 -1.43747,0.56516 -0.10077,0.90175 1.13558,0.28594 1.21432,0.36686 1.51309,1.5534 l 0.3147,1.25108 0.33745,-0.79116 c 0.1856,-0.43532 0.34233,-0.998 0.34933,-1.25057 0.008,-0.32076 0.37642,-0.55135 1.22008,-0.76378 1.31728,-0.3317 1.27748,-0.59248 -0.14521,-0.95498 -0.81572,-0.20784 -0.96466,-0.38497 -1.29604,-1.54203 z m 7.00319,0.18345 c -0.86691,0.10103 -1.38794,1.27274 -0.85266,1.91771 0.35893,0.43249 1.2684,0.54119 1.75235,0.20981 0.96876,-0.66335 0.29094,-2.26629 -0.89969,-2.12752 z m 66.12413,2.46755 c -0.34732,6.2e-4 -0.7277,0.15833 -0.92087,0.47336 -0.23494,0.38314 -0.19108,0.55453 0.22014,0.85989 0.28248,0.20976 0.59515,0.38138 0.69505,0.38138 0.36141,0 0.8171,-0.77953 0.7276,-1.24437 -0.0606,-0.31449 -0.3746,-0.47087 -0.72192,-0.47026 z m -90.40947,2.41226 c -0.24874,0.0434 -0.61781,0.18418 -1.18545,0.43563 -2.15472,0.95447 -2.27496,1.19479 -1.55857,3.1104 0.32867,0.87885 0.84567,1.77156 1.14877,1.98386 0.58172,0.40745 0.89975,0.35689 2.76159,-0.44028 1.01175,-0.43319 1.10488,-0.54494 0.85059,-1.02009 -0.34156,-0.6382 -0.30562,-0.6352 -1.4981,-0.13695 -1.33955,0.5597 -1.60933,0.50546 -2.08824,-0.42064 -0.56279,-1.08831 -0.38662,-1.41774 1.0511,-1.96681 1.20449,-0.46 1.40059,-0.73872 0.98288,-1.39733 -0.087,-0.13717 -0.21583,-0.19121 -0.46457,-0.14779 z m 53.79103,0.40772 c -1.33158,-0.15269 -1.99441,1.01418 -1.08985,1.91875 0.90457,0.90456 2.07143,0.24173 1.91874,-1.08986 -0.068,-0.593 -0.23588,-0.76089 -0.82889,-0.82889 z m 54.36258,0.48215 c -0.63162,0 -1.17444,0.64919 -1.71979,2.0562 -0.65854,1.69904 -0.57683,2.32039 0.35605,2.70681 1.00595,0.41667 1.3379,0.16355 2.09496,-1.59628 0.51328,-1.19315 1.08004,-1.73699 1.08004,-1.03663 0,0.44363 -0.77511,1.82001 -1.34669,2.39158 -0.28859,0.28862 -0.4536,0.63958 -0.3669,0.7798 0.29237,0.47306 1.16933,0.25959 1.5937,-0.38809 0.23182,-0.35379 0.6565,-1.26182 0.94361,-2.01745 0.49189,-1.29452 0.49616,-1.40243 0.0729,-1.87017 -0.24709,-0.27303 -0.77943,-0.49661 -1.18287,-0.49661 -0.6293,0 -0.83154,0.20679 -1.42214,1.45521 -0.37863,0.80036 -0.8039,1.45521 -0.94516,1.45521 -0.14126,0 -0.25683,-0.054 -0.25683,-0.11989 0,-0.35644 0.70167,-1.66384 1.11259,-2.07326 0.61508,-0.61283 0.60809,-1.24643 -0.0134,-1.24643 z m -82.19395,0.66145 c -0.87449,0 -1.20208,0.67197 -0.65112,1.33584 0.17535,0.21129 0.46848,0.38396 0.65112,0.38396 0.49008,0 0.98303,-0.69838 0.87798,-1.24386 -0.0637,-0.33068 -0.33128,-0.47594 -0.87798,-0.47594 z m 33.50596,2.24896 c -0.43465,0 -1.0945,0.79762 -1.0945,1.32292 0,0.27025 0.18681,0.67877 0.41548,0.90744 0.79546,0.79548 1.96577,0.25517 1.96577,-0.90744 0,-0.72802 -0.57871,-1.32292 -1.28675,-1.32292 z m -15.51636,1.36426 c -1.01173,0.0426 -1.57238,1.12461 -0.78703,1.90996 0.58815,0.58815 1.34365,0.53952 1.80299,-0.11627 0.51655,-0.73747 0.26022,-1.53935 -0.55759,-1.7446 -0.16034,-0.0402 -0.31384,-0.0552 -0.45837,-0.0491 z m -23.61148,0.0191 c -0.72932,0.13774 -1.03616,0.79956 -0.63665,1.67638 0.18845,0.4136 0.51383,0.64441 0.90795,0.64441 0.81734,0 1.24954,-0.47358 1.24954,-1.37046 0,-0.56401 -0.15437,-0.77461 -0.66094,-0.90175 -0.3265,-0.082 -0.61679,-0.0945 -0.8599,-0.0486 z m -17.83354,0.20412 c -0.3556,0 -3.33834,1.53797 -3.50469,1.80713 -0.0787,0.12734 0.005,0.43448 0.18603,0.68213 0.30502,0.41715 0.42279,0.39801 1.59629,-0.25787 l 1.26659,-0.70797 -0.4439,1.02423 c -0.94525,2.18069 -1.02414,2.66714 -0.54984,3.39101 0.2436,0.37179 0.51798,0.67593 0.60978,0.67593 0.0918,0 0.92345,-0.42299 1.84795,-0.94 1.48749,-0.83185 1.64907,-0.9993 1.40508,-1.45521 -0.35022,-0.65439 -0.37415,-0.65161 -1.7973,0.18242 -0.71756,0.42053 -1.1297,0.55178 -1.0387,0.33073 0.083,-0.20159 0.41448,-0.98995 0.73691,-1.75183 0.50906,-1.20294 0.5432,-1.49019 0.25631,-2.18281 -0.1817,-0.43867 -0.43849,-0.79789 -0.57051,-0.79789 z m 103.21541,0.17312 c -0.43001,0.11267 -1.08329,1.11797 -2.00815,3.08405 -0.41083,0.87335 -0.42233,1.04015 -0.0868,1.2516 0.37665,0.23737 0.87218,-0.16024 1.13119,-0.90795 0.0646,-0.18651 0.63394,-0.0355 1.56476,0.41547 l 1.46348,0.70901 0.25735,-0.57671 c 0.22916,-0.51356 0.11436,-0.65804 -1.048,-1.32189 -0.9991,-0.57061 -1.26212,-0.84965 -1.12138,-1.19062 0.40833,-0.98911 0.41232,-1.30548 0.0181,-1.45676 -0.0525,-0.0201 -0.1091,-0.0223 -0.17053,-0.006 z m -35.04541,0.62063 c -0.30559,0 -0.6987,0.14318 -0.87333,0.31781 -0.17462,0.17462 -0.31729,0.56723 -0.31729,0.87282 0,0.3056 0.14267,0.69871 0.31729,0.87333 0.17463,0.17463 0.56774,0.31729 0.87333,0.31729 0.3056,0 0.69819,-0.14266 0.87282,-0.31729 0.17462,-0.17462 0.31781,-0.56773 0.31781,-0.87333 0,-0.30559 -0.14319,-0.6982 -0.31781,-0.87282 -0.17463,-0.17463 -0.56722,-0.31781 -0.87282,-0.31781 z m -5.02708,0.79375 c -0.3056,0 -0.69871,0.14318 -0.87333,0.31781 -0.17463,0.17462 -0.3173,0.56722 -0.3173,0.87282 0,0.30559 0.14267,0.69871 0.3173,0.87333 0.17462,0.17463 0.56773,0.31729 0.87333,0.31729 0.30559,0 0.69819,-0.14266 0.87281,-0.31729 0.17463,-0.17462 0.31781,-0.56774 0.31781,-0.87333 0,-0.3056 -0.14318,-0.6982 -0.31781,-0.87282 -0.17462,-0.17463 -0.56722,-0.31781 -0.87281,-0.31781 z m -39.6875,1.45521 c -0.87449,0 -1.20208,0.67198 -0.65112,1.33584 0.17535,0.21129 0.46848,0.38395 0.65112,0.38395 0.49008,0 0.98303,-0.69836 0.87798,-1.24385 -0.0637,-0.33068 -0.33128,-0.47594 -0.87798,-0.47594 z m 30.77176,0.80305 -0.43666,1.30122 c -0.35302,1.05053 -0.58987,1.34607 -1.23093,1.53737 -1.57228,0.4692 -1.58952,0.5151 -0.3328,0.89193 1.17052,0.35098 1.2747,0.45536 1.55184,1.55598 0.34769,1.38078 0.64854,1.33692 0.89659,-0.13126 0.15713,-0.93005 0.28907,-1.08183 1.14773,-1.32033 0.5335,-0.14818 1.13846,-0.26997 1.34462,-0.27078 0.65561,-0.003 0.024,-0.38854 -1.09502,-0.66921 -0.99847,-0.25044 -1.10886,-0.37027 -1.46244,-1.58285 z m 46.61215,0.92139 c -0.38067,0.008 -0.87865,0.54298 -1.69758,1.76372 l -1.18649,1.76888 1.64383,1.12655 c 0.90409,0.61964 1.71571,1.13405 1.80351,1.14205 0.0878,0.008 0.72427,-0.83389 1.41438,-1.87172 0.97512,-1.4664 1.17534,-1.93717 0.89866,-2.11253 -0.57006,-0.36128 -0.65383,-0.30278 -1.54616,1.08779 -0.46654,0.72705 -0.96157,1.25203 -1.10019,1.16633 -0.23258,-0.14374 -0.0285,-0.56628 1.00769,-2.08411 0.45423,-0.66527 0.44841,-0.84126 -0.0351,-1.02681 -0.26447,-0.10149 -0.61666,0.23303 -1.08366,1.02991 -0.38046,0.64919 -0.86595,1.18029 -1.079,1.18029 -0.4257,0 -0.38712,-0.0916 0.7369,-1.75235 0.40606,-0.59994 0.66336,-1.16547 0.57206,-1.25677 -0.10835,-0.10835 -0.22193,-0.16398 -0.34881,-0.16123 z m -97.75321,0.93276 c -0.29725,-0.0394 -0.74062,0.1875 -1.71928,0.81804 -1.62656,1.04798 -1.82613,1.34422 -1.27692,1.89343 0.24353,0.24353 0.4685,0.21548 0.99219,-0.12403 2.97942,-1.93154 2.94903,-1.89846 2.26704,-2.46445 -0.0811,-0.0673 -0.16395,-0.10986 -0.26303,-0.12299 z m 1.01802,1.20768 c -0.0458,-0.0571 -0.26312,0.0458 -0.48317,0.22841 -0.35404,0.29382 -0.3405,0.41561 0.11679,1.05782 l 0.51676,0.72553 -1.18132,0.84853 c -0.64978,0.46664 -1.18132,0.89078 -1.18132,0.94258 0,0.0518 0.0719,0.28297 0.16019,0.51315 0.22952,0.59813 0.62202,0.51222 1.82418,-0.39791 l 1.05834,-0.80099 0.61443,0.71366 c 0.53791,0.62446 0.6626,0.66548 0.99942,0.32866 0.33682,-0.33682 0.21346,-0.61408 -0.98805,-2.22002 -0.75518,-1.00937 -1.41045,-1.88232 -1.45625,-1.93942 z m 41.59695,0.23616 c -1.15745,0 -1.7455,1.5406 -0.83406,2.1854 0.45696,0.32327 1.52995,0.10119 1.83038,-0.37879 0.43069,-0.68808 -0.18601,-1.80661 -0.99632,-1.80661 z m 51.7958,1.93735 c -0.0865,0.0473 -0.16661,0.14233 -0.2868,0.26252 -0.40287,0.40287 -0.35849,0.50152 0.60875,1.35547 l 1.04283,0.92088 -1.73633,0.0109 c -1.55082,0.01 -1.81253,0.0907 -2.44895,0.75499 l -0.71261,0.74362 1.65519,1.36426 c 0.91041,0.75039 1.68074,1.36804 1.71204,1.37304 0.0313,0.005 0.18908,-0.2387 0.35089,-0.54105 0.25538,-0.47716 0.16055,-0.66792 -0.71831,-1.44435 l -1.01234,-0.89452 1.86862,-0.0109 c 1.74215,-0.0103 1.90625,-0.0624 2.42673,-0.76636 l 0.5581,-0.75499 -1.10381,-0.89969 c -1.62812,-1.32754 -1.94463,-1.61565 -2.204,-1.47381 z m -38.84207,1.54823 c -0.27293,-0.0443 -0.55734,0.0143 -0.80719,0.22169 -0.39801,0.33032 -0.54167,1.61272 -0.21704,1.93735 0.32463,0.32463 1.60703,0.18097 1.93735,-0.21704 0.62207,-0.74954 -0.0943,-1.80901 -0.91312,-1.942 z m -51.23046,0.64905 c -0.20924,-0.24114 -3.15123,2.14074 -3.15123,2.55127 0,0.12913 0.62507,0.93686 1.38906,1.79524 1.48733,1.6711 1.7133,1.80471 1.96164,1.15755 0.10131,-0.26402 -0.1911,-0.77427 -0.80202,-1.39991 -0.92661,-0.94894 -1.22534,-1.62419 -0.71882,-1.62419 0.13345,0 0.66328,0.50602 1.17719,1.12448 0.72007,0.86655 1.00622,1.05277 1.24798,0.81132 0.24182,-0.24153 0.0953,-0.56859 -0.63975,-1.42731 -0.52444,-0.61269 -0.87648,-1.23841 -0.78238,-1.39061 0.0974,-0.15754 0.64541,0.26267 1.27279,0.97565 0.96406,1.09557 1.14486,1.20083 1.44281,0.84181 0.28926,-0.34852 0.14925,-0.61949 -0.92811,-1.79731 -0.69774,-0.76279 -1.35885,-1.49087 -1.46916,-1.61799 z m 84.95553,3.71037 -0.64078,0.60203 c -0.62144,0.58381 -0.62955,0.64015 -0.26407,1.83245 0.20738,0.67654 0.5034,1.68816 0.65784,2.24792 0.27499,0.99669 0.2913,1.00778 0.80874,0.53951 0.29061,-0.263 0.47572,-0.68101 0.41082,-0.92915 -0.15217,-0.5819 1.49355,-2.20882 2.02727,-2.00401 0.34746,0.13333 1.47739,-0.76 1.20923,-0.95601 -0.0597,-0.0437 -1.03094,-0.3611 -2.15853,-0.7059 z m -81.74074,0.15193 c -0.0874,0.0403 -0.75161,0.71349 -1.4764,1.49603 l -1.31775,1.42266 1.71411,1.55391 c 0.97566,0.88437 1.95955,1.55339 2.2841,1.55339 0.59456,0 2.48408,-1.85992 2.48408,-2.44533 0,-0.36235 -3.43517,-3.69738 -3.68814,-3.58066 z m 82.26991,1.3224 c 0.12833,0.0186 0.29411,0.0674 0.50023,0.14366 l 0.58808,0.21756 -0.53951,0.48782 c -0.52734,0.47724 -0.54459,0.47411 -0.77669,-0.14366 -0.20559,-0.54716 -0.15711,-0.76125 0.22789,-0.70538 z m -82.0384,0.0858 0.93431,0.90589 c 1.06257,1.02989 1.13286,1.33387 0.45062,1.9513 -0.64654,0.58511 -0.70527,0.5709 -1.76165,-0.42219 l -0.91468,-0.8599 0.64596,-0.78755 z m 76.28268,3.17345 c -0.0999,0.0112 -0.20259,0.0536 -0.3235,0.11834 -0.62036,0.33201 -0.75604,0.0608 1.2914,2.58796 l 0.90175,1.11259 1.4795,-1.23868 c 0.81389,-0.68132 1.53218,-1.2776 1.59628,-1.3255 0.0641,-0.0479 -0.0584,-0.26253 -0.27233,-0.47646 -0.34222,-0.34222 -0.51231,-0.28717 -1.4149,0.45682 l -1.02578,0.84543 -1.002,-1.12913 c -0.65791,-0.74136 -0.93084,-0.98504 -1.23042,-0.95137 z m -69.55545,1.09761 c -0.18206,-0.10702 -0.7527,0.51519 -1.44125,1.572 -1.09819,1.68558 -1.12107,1.76243 -0.63097,2.1208 0.45145,0.33011 0.55682,0.30784 0.93948,-0.19947 l 0.4315,-0.57154 1.02681,0.69814 c 0.56498,0.38391 1.1403,0.66044 1.27847,0.61444 0.60907,-0.20303 0.37106,-0.73556 -0.62425,-1.39423 -0.59146,-0.39141 -1.07539,-0.79466 -1.07539,-0.89659 0,-0.52598 0.4459,-0.43869 1.51464,0.29662 1.01871,0.70089 1.23485,0.76193 1.55649,0.44029 0.32164,-0.32164 0.16206,-0.52114 -1.15031,-1.43816 -0.83824,-0.58572 -1.6595,-1.1449 -1.82522,-1.2423 z m 68.09094,0.4284 c -0.46509,-0.006 -1.02453,0.22994 -1.76785,0.70693 -2.04425,1.31178 -2.05163,1.34077 -0.81236,3.1657 0.59851,0.88134 1.18824,1.60249 1.31052,1.60249 0.47415,0 0.88906,-0.78432 0.59945,-1.13327 -0.21391,-0.25776 4.1e-4,-0.52847 0.88986,-1.12448 1.43444,-0.96119 1.66807,-1.54867 0.98237,-2.47065 -0.36579,-0.49186 -0.7369,-0.74049 -1.20199,-0.74672 z m -0.45785,1.33428 c 0.44598,-0.0562 0.855,0.13077 0.67489,0.4222 -0.0864,0.13977 -0.49732,0.49613 -0.91312,0.7922 -0.68011,0.48428 -0.79068,0.49687 -1.09968,0.12454 -0.36283,-0.43718 -0.31177,-0.5045 0.90021,-1.19631 0.13651,-0.0779 0.28903,-0.12387 0.4377,-0.14263 z m -63.83383,0.96532 c -0.27054,0 -2.09555,3.55474 -1.87121,3.64474 0.12371,0.0496 0.99921,0.54356 1.9451,1.09812 1.52169,0.89215 1.75748,0.96112 2.04949,0.59687 0.28117,-0.35072 0.14407,-0.52094 -0.92604,-1.15084 -0.69084,-0.40665 -1.3663,-0.77871 -1.5012,-0.82631 -0.1349,-0.0476 -0.1653,-0.21563 -0.0677,-0.37362 0.11785,-0.19069 0.61862,-0.0519 1.48932,0.41238 0.98733,0.52648 1.38671,0.62403 1.6154,0.39533 0.2287,-0.22869 -0.0134,-0.48533 -0.97927,-1.0387 -0.70571,-0.40433 -1.32514,-0.76585 -1.37614,-0.80305 -0.0509,-0.0372 -0.0175,-0.18924 0.0744,-0.33797 0.10201,-0.16504 0.68692,0.0359 1.50069,0.51574 1.30278,0.76814 1.82521,0.81304 1.82521,0.15658 0,-0.27157 -3.32987,-2.28927 -3.77806,-2.28927 z m 57.64816,1.69395 c -0.28085,-0.10777 -3.32575,1.18375 -3.81476,1.61799 -0.0457,0.0406 0.34397,0.92172 0.8661,1.95854 0.85394,1.69571 1.00194,1.8573 1.47226,1.60559 0.60347,-0.32297 0.61776,-0.38386 0.2496,-1.07177 -0.23843,-0.4455 -0.11986,-0.58534 0.92604,-1.09348 1.15008,-0.55875 1.48878,-1.06091 0.94361,-1.39784 -0.14053,-0.0869 -0.74953,0.0942 -1.35392,0.40255 -0.73448,0.37475 -1.18696,0.47289 -1.36426,0.29559 -0.1773,-0.1773 0.18415,-0.49292 1.08986,-0.95188 1.36663,-0.69252 1.66404,-1.10489 0.98547,-1.36529 z m -53.09599,0.71675 -0.6258,1.41439 c -1.03269,2.33511 -1.05356,2.49404 -0.36483,2.77502 0.3372,0.13756 1.32163,0.54549 2.18746,0.90692 1.89452,0.79085 2.34781,0.63804 3.0918,-1.04386 0.69556,-1.57244 0.45505,-1.91925 -2.14302,-3.08767 z m 0.80616,1.59784 1.08985,0.4284 c 1.25042,0.49118 1.48833,0.88924 1.07435,1.79782 -0.16154,0.35453 -0.38538,0.6361 -0.49764,0.6258 -0.3976,-0.0364 -2.45308,-1.02017 -2.45308,-1.17409 0,-0.086 0.17691,-0.49886 0.39326,-0.91725 z m 47.15784,0.0486 c -1.256,0.0782 -3.85547,1.20852 -4.11809,1.8929 -0.19739,0.51438 0.55314,2.5313 1.10897,2.98018 0.53239,0.42994 0.55402,0.42788 2.34921,-0.23254 1.7662,-0.64975 2.45722,-1.17113 2.45722,-1.85363 0,-0.88522 -0.83665,-2.58825 -1.35186,-2.75177 -0.11386,-0.0361 -0.26602,-0.0463 -0.44545,-0.0351 z m -42.35969,0.76274 -0.66197,1.96939 c -0.47833,1.42267 -0.57426,2.00168 -0.3452,2.08618 0.17441,0.0643 0.97214,0.34751 1.7725,0.6289 1.80273,0.6338 2.28161,0.66155 2.47995,0.14469 0.14186,-0.36968 -0.70692,-0.91725 -1.42162,-0.91725 -0.12658,0 -0.5549,-0.12348 -0.95188,-0.27441 -1.25645,-0.47767 -0.36364,-0.85126 0.93741,-0.39222 1.40546,0.49593 1.50903,0.49641 1.69396,0.0145 0.10869,-0.28322 -0.23922,-0.509 -1.29501,-0.84181 -0.79375,-0.2502 -1.44281,-0.55234 -1.44281,-0.67128 0,-0.3212 0.59229,-0.26386 1.84692,0.1788 0.61587,0.21727 1.22597,0.32948 1.35599,0.24908 0.63407,-0.39188 0.0487,-0.85798 -1.86604,-1.48569 z m 41.70185,0.55139 c 0.59533,-0.0803 0.79948,0.19421 0.9989,1.00252 0.1525,0.61809 0.0567,0.72765 -0.98236,1.12448 -1.47222,0.56225 -1.48623,0.56038 -1.83503,-0.20516 -0.41851,-0.91851 -0.16949,-1.31775 1.07848,-1.72961 0.29957,-0.0989 0.54157,-0.16547 0.74001,-0.19223 z m -36.59467,1.15703 c -0.11864,0.001 -0.19481,0.0167 -0.21497,0.0506 -0.0549,0.0924 -0.246,0.87934 -0.42478,1.74873 -0.17877,0.86939 -0.37722,1.71758 -0.44132,1.88464 -0.0641,0.16706 0.18546,0.36141 0.55449,0.43201 0.49488,0.0946 0.71248,-0.003 0.82941,-0.37104 0.13212,-0.41632 0.32032,-0.47053 1.13016,-0.32452 1.28682,0.23199 1.41788,0.32747 1.2361,0.9002 -0.1041,0.32799 -4.4e-4,0.52555 0.31988,0.60875 0.26071,0.0677 0.54962,0.13658 0.64182,0.15348 0.29144,0.0534 0.48779,-1.1395 0.22996,-1.39733 -0.15256,-0.15256 -0.11106,-0.35634 0.10904,-0.53382 0.61012,-0.49199 0.72883,-1.62188 0.21652,-2.05982 -0.43855,-0.37488 -3.35576,-1.0989 -4.18631,-1.09193 z m 29.21941,0.14005 c -0.0853,-0.019 -0.18474,-0.0158 -0.30489,0.003 -0.31937,0.0489 -0.5633,0.20521 -0.5426,0.34727 0.0207,0.14207 0.12448,0.7873 0.23047,1.43402 l 0.19224,1.17564 -1.40508,-1.17564 c -0.77296,-0.64672 -1.5911,-1.14276 -1.81798,-1.10226 -1.65733,0.29569 -1.56797,0.11336 -1.13223,2.30322 0.35862,1.80227 0.45483,1.98902 1.02113,1.98902 0.70133,0 0.77915,-0.39193 0.36483,-1.83658 -0.14303,-0.49872 -0.2181,-0.94875 -0.1664,-1.00045 0.0517,-0.0517 0.70873,0.4301 1.45986,1.07125 1.19813,1.02268 1.46992,1.14386 2.2164,0.98547 0.78891,-0.16749 0.84677,-0.25223 0.79117,-1.17047 -0.033,-0.54436 -0.18874,-1.46654 -0.34571,-2.04949 -0.17717,-0.65798 -0.3054,-0.91646 -0.56121,-0.97358 z m -27.75231,1.22834 c 1.06964,0.15269 1.90444,0.55504 1.73168,0.83458 -0.1656,0.26797 -1.18766,0.30721 -2.06603,0.0796 -0.74156,-0.19218 -0.43718,-1.02429 0.33435,-0.91416 z m 6.47247,0.0414 c -0.76407,0 -1.00352,0.1997 -2.07481,1.73219 -0.66609,0.95286 -1.21078,1.84583 -1.21078,1.98438 0,0.3756 1.31913,0.30493 1.46606,-0.0786 0.0847,-0.22112 0.56116,-0.30068 1.43713,-0.23978 1.00822,0.07 1.34702,0.20726 1.47019,0.59531 0.10207,0.32162 0.40347,0.50436 0.83199,0.50436 0.5285,0 0.63531,-0.0989 0.50126,-0.46302 -1.42912,-3.88224 -1.52068,-4.03489 -2.42104,-4.03489 z m 14.46527,0.0367 c -0.37747,-0.0339 -0.86253,-0.0187 -1.48415,0.0212 -1.73666,0.11146 -2.15187,0.22951 -2.55437,0.72657 -0.56778,0.7012 -0.41818,2.4777 0.27596,3.27422 0.36552,0.41943 0.66226,0.46207 2.13475,0.30438 2.76579,-0.29619 2.92695,-0.40967 2.92695,-2.05724 0,-1.62601 -0.16674,-2.16743 -1.29914,-2.26911 z m -10.28878,0.25166 c -1.16248,-0.0405 -1.50451,0.12227 -1.59163,0.57464 -0.0708,0.36759 0.10117,0.45992 0.85679,0.45992 h 0.94568 v 1.5875 c 0,1.517 0.0294,1.5875 0.66146,1.5875 0.62446,0 0.66146,-0.0807 0.66146,-1.43867 0,-1.42866 0.006,-1.43905 0.85783,-1.52135 0.54502,-0.0527 0.88771,-0.24295 0.94051,-0.52194 0.069,-0.36435 -0.2502,-0.47041 -1.87534,-0.6227 -0.59078,-0.0554 -1.06926,-0.0914 -1.45676,-0.1049 z m 4.17442,0.0196 c -0.2483,0.0817 -0.25941,0.50755 -0.25941,2.05465 0,2.11047 0.007,2.13527 0.67231,2.13527 0.66921,0 0.67221,-0.0104 0.59531,-2.05052 -0.0715,-1.89766 -0.12137,-2.05707 -0.67231,-2.13527 -0.14378,-0.0204 -0.25313,-0.0314 -0.3359,-0.004 z m 5.26066,0.79892 c 0.69219,0.0306 0.87646,0.37051 0.78445,1.17563 -0.0819,0.71712 -0.16493,0.76425 -1.47588,0.83975 l -1.38906,0.0801 v -0.92345 c 0,-0.89412 0.0385,-0.92964 1.21026,-1.10536 0.35223,-0.0528 0.6395,-0.0769 0.87023,-0.0667 z m -13.72887,0.23926 c 0.159,0.007 0.30075,0.18199 0.40979,0.52555 0.20762,0.65418 0.16916,0.69042 -0.601,0.5674 -0.49811,-0.0796 -0.55036,-0.17785 -0.32142,-0.60564 0.1775,-0.33166 0.35362,-0.49391 0.51263,-0.48731 z" />
      <path
         id="path147-1-5-8"
         style="fill:#37a6d1;fill-opacity:1;stroke-width:1.03122"
         d="m 534.81429,303.27258 c -3.65029,0.0535 -7.46387,0.27062 -9.59011,0.60565 -3.77852,0.59542 -8.95391,1.91104 -12.58477,3.19929 -3.64076,1.29177 -9.70569,4.20994 -12.92892,6.22081 -8.29431,5.17449 -16.22405,12.92945 -21.34857,20.87831 -5.6144,8.70871 -9.06624,18.17149 -10.42934,28.59153 -0.55355,4.22911 -0.55444,12.78337 -0.002,17.02325 3.41561,26.21724 21.39094,47.94868 46.51448,56.2343 4.49163,1.48135 9.81681,2.57046 15.41715,3.15329 h 10e-4 c 2.29529,0.23887 12.66589,-0.0902 15.30915,-0.48575 14.88977,-2.22797 27.7927,-8.73201 38.46019,-19.38745 10.66277,-10.65071 17.09569,-23.51437 19.40502,-38.80332 0.6393,-4.23245 0.63974,-14.13483 5.1e-4,-18.49861 -2.26335,-15.45091 -9.05967,-28.80298 -20.13675,-39.56399 -11.21109,-10.89116 -25.23221,-17.42244 -40.73706,-18.97456 -1.01161,-0.10134 -2.34,-0.16337 -3.8225,-0.19017 -1.11188,-0.0201 -2.31067,-0.0204 -3.52744,-0.003 z m 0.0212,2.05207 c 1.17981,-0.0173 2.34235,-0.0169 3.42046,0.003 1.43748,0.026 2.72537,0.0863 3.70624,0.18448 15.03389,1.50529 28.62936,7.83901 39.49992,18.40146 10.74063,10.43621 17.33029,23.38569 19.52491,38.37027 0.61981,4.23208 0.61936,13.83527 -5.2e-4,17.93999 -2.23919,14.8275 -8.47649,27.30308 -18.81539,37.63233 -10.34347,10.33384 -22.85428,16.64174 -37.29179,18.80247 -2.56298,0.38357 -12.61901,0.70243 -14.84457,0.47077 h -5.2e-4 c -5.43023,-0.56524 -10.59376,-1.62159 -14.94896,-3.05821 -24.36043,-8.03556 -41.78978,-29.11076 -45.10164,-54.53672 -0.53559,-4.11192 -0.53462,-12.40812 0.002,-16.50959 1.3217,-10.10555 4.6687,-19.28267 10.11256,-27.72854 4.96887,-7.70895 12.65766,-15.23004 20.70003,-20.24838 3.12533,-1.95016 9.00601,-4.77993 12.53618,-6.0327 3.52057,-1.24936 8.5386,-2.52574 12.20236,-3.10317 2.06165,-0.32493 5.75924,-0.53519 9.29866,-0.58705 z" />
    </g>
  </g>
</svg>
