<?xml version="1.0" encoding="UTF-8" standalone="no"?>
<!-- Created with Inkscape (http://www.inkscape.org/) -->

<svg
   width="136.00044mm"
   height="136.00014mm"
   viewBox="0 0 136.00043 136.00014"
   version="1.1"
   id="svg1"
   xmlns="http://www.w3.org/2000/svg"
   xmlns:svg="http://www.w3.org/2000/svg">
  <defs
     id="defs1" />
  <g
     id="layer1"
     transform="translate(-44.397316,-77.486014)">
    <path
       id="path316"
       style="fill:#37a6d1;fill-opacity:1"
       d="m 111.69456,77.498907 c -3.65028,0.0535 -7.46388,0.27063 -9.59011,0.60565 -3.778507,0.59542 -8.953907,1.91104 -12.584761,3.19929 -3.640757,1.29176 -9.7057,4.20994 -12.928927,6.2208 -8.294291,5.17449 -16.224063,12.929483 -21.348567,20.878323 -5.614395,8.7087 -9.066239,18.17151 -10.429338,28.59153 -0.553549,4.22911 -0.55406,12.78338 -0.0015,17.02325 3.415606,26.21719 21.390978,47.9487 46.514473,56.2343 4.491613,1.48135 9.81683,2.57046 15.41714,3.15329 h 0.001 c 2.29528,0.23887 12.66589,-0.0902 15.30915,-0.48576 14.88972,-2.22796 27.7922,-8.73202 38.45966,-19.38744 10.66275,-10.65069 17.09569,-23.5144 19.40502,-38.80332 0.6393,-4.23244 0.64026,-14.13485 0.001,-18.49861 -2.26335,-15.45089 -9.06022,-28.803 -20.13728,-39.563993 -11.21107,-10.89114 -25.23223,-17.42244 -40.73705,-18.97456 -1.0116,-0.10134 -2.33949,-0.16337 -3.82198,-0.19017 -1.11188,-0.0201 -2.31119,-0.0201 -3.52795,-0.003 z m 0.56327,2.49184 c 7.05809,-0.009 9.67513,0.25406 15.18874,1.52807 14.7424,3.40651 28.36987,12.342 37.49693,24.586103 3.06511,4.11188 4.48962,6.47373 6.80734,11.28613 4.34629,9.02443 6.26835,17.63848 6.26835,28.09492 0,10.45646 -1.92206,19.0705 -6.26835,28.09493 -2.31772,4.8124 -3.74223,7.17476 -6.80734,11.28665 -10.27476,13.78376 -25.0565,22.64703 -42.6713,25.58759 -2.54939,0.4256 -13.18575,0.76841 -15.71687,0.50642 -5.44098,-0.56316 -12.393847,-2.14576 -16.967945,-3.86229 -3.726496,-1.39845 -9.690754,-4.41428 -12.934611,-6.54017 C 60.5225,189.98802 49.720213,172.85701 47.309345,154.02499 c -0.547189,-4.27428 -0.547189,-12.80376 0,-17.07803 1.640199,-12.81205 7.057122,-24.69236 15.925643,-34.92603 8.134582,-9.386763 20.078625,-16.802413 32.171165,-19.975013 6.407657,-1.68113 9.394887,-2.04517 16.851677,-2.05517 z m -3.54294,4.86172 c -0.75286,-0.006 -0.96401,0.14112 -1.29139,0.8971 -0.21533,0.49722 -0.71635,1.6235 -1.11311,2.50321 l -0.7214,1.5999 h 0.81235 c 0.56795,0 0.86511,-0.16704 0.98857,-0.55604 0.14534,-0.45793 0.42102,-0.55707 1.55753,-0.55707 0.97078,0 1.42842,0.12471 1.54099,0.41806 0.15499,0.40388 1.23391,0.582 1.55856,0.25735 0.0879,-0.0879 -0.42326,-1.14869 -1.13585,-2.35748 -1.19075,-2.01991 -1.36882,-2.19903 -2.19625,-2.20503 z m 5.83789,0.0522 v 5.2e-4 c -2.40338,-0.0747 -2.57297,-0.0437 -2.57297,0.46922 0,0.41621 0.2186,0.57004 0.90382,0.63614 l 0.90434,0.0868 -0.0899,1.7384 c -0.0877,1.68424 -0.0692,1.73839 0.59118,1.73839 0.71708,0 1.02888,-0.76424 1.02888,-2.52026 0,-0.67905 0.11942,-0.79402 0.90433,-0.86971 0.68954,-0.0665 0.90383,-0.21903 0.90383,-0.64337 0,-0.51047 -0.21205,-0.56274 -2.57297,-0.63614 z m 4.18837,0.27182 c -0.65648,-0.0934 -0.70179,0.0449 -1.05471,3.21634 -0.15736,1.41405 -0.14025,1.46037 0.5302,1.46037 0.76069,0 0.92397,-0.49285 1.06298,-3.19928 0.064,-1.24595 0.008,-1.39963 -0.53847,-1.47743 z m -14.76447,0.38499 c -0.48748,-0.15472 -4.415487,0.48343 -4.694797,0.76274 -0.0801,0.0801 0.008,1.09483 0.19482,2.25464 0.31219,1.93528 0.39418,2.1084 0.997357,2.1084 0.51562,0 0.65732,-0.14947 0.65732,-0.69505 0,-0.40459 0.15988,-0.69556 0.38241,-0.69556 0.21036,0 0.76101,-0.076 1.22369,-0.16847 0.69154,-0.13831 0.87458,-0.0637 1.02733,0.41755 0.19484,0.6139 0.59969,0.73148 1.20199,0.34933 0.28485,-0.1807 0.29089,-0.39403 0.0269,-1.03869 -0.18286,-0.44628 -0.30295,-1.04429 -0.26665,-1.3286 0.11316,-0.88534 -0.23691,-1.8035 -0.74982,-1.96629 z m 17.87436,0.11885 c -1.12534,0 -1.48102,0.50961 -1.711,2.45153 -0.19525,1.64858 0.13898,1.97499 2.5001,2.44068 0.94485,0.18635 1.87478,0.35087 2.06602,0.36587 1.188,0.0931 2.21615,-3.15601 1.31414,-4.15272 -0.49566,-0.54771 -2.5984,-1.10536 -4.16926,-1.10536 z m -13.15423,0.60048 c 0.09,-0.0315 0.19172,0.0967 0.38292,0.35709 0.21806,0.29698 0.39636,0.62634 0.39636,0.73225 0,0.10592 -0.31257,0.25246 -0.69505,0.32556 -0.80465,0.15382 -0.78305,0.19799 -0.39636,-0.81493 0.14417,-0.37763 0.22212,-0.5685 0.31213,-0.59997 z m -11.077877,0.37466 c -0.39695,0.0352 -1.13383,0.25346 -2.57297,0.68729 -1.78833,0.5391 -1.82008,0.64799 -1.00614,3.44786 v 5.1e-4 c 0.36469,1.25447 0.5729,1.58752 0.92966,1.48673 0.25282,-0.0714 1.30465,-0.35925 2.33733,-0.63975 1.33804,-0.36343 1.8774,-0.63974 1.8774,-0.9617 0,-0.73856 -0.26199,-0.80114 -1.6247,-0.38757 -1.52099,0.46161 -1.99161,0.49456 -1.99161,0.14056 0,-0.14213 0.68362,-0.45729 1.51928,-0.70022 1.12996,-0.32849 1.4789,-0.5474 1.36116,-0.85421 -0.19566,-0.51035 -0.45082,-0.51059 -2.11512,-0.006 -1.0776,0.32695 -1.32136,0.33312 -1.32136,0.0336 0,-0.21074 0.69955,-0.56364 1.64124,-0.82786 1.39696,-0.39198 1.61987,-0.54205 1.4981,-1.00769 -0.0783,-0.2993 -0.13532,-0.44705 -0.53227,-0.41186 z m 5.337657,0.16071 c 0.31686,0.0324 0.39997,0.19878 0.39997,0.5333 0,0.39037 -0.18664,0.55717 -0.6258,0.56017 -0.34423,0.002 -0.90737,0.0793 -1.2516,0.17157 -0.4957,0.13284 -0.6258,0.0522 -0.6258,-0.38654 0,-0.39795 0.24479,-0.60272 0.8692,-0.7276 0.34256,-0.0685 0.6161,-0.11608 0.83354,-0.13953 0.16308,-0.0176 0.29487,-0.0222 0.40049,-0.0114 z m 25.00416,0.13436 v 5.2e-4 c -0.31492,0.0865 -0.44664,0.65089 -0.95757,2.33836 -0.57523,1.89986 -0.53495,2.23242 0.27079,2.23242 0.35649,0 0.61854,-0.32543 0.83922,-1.04283 0.17648,-0.57373 0.38472,-1.23089 0.46302,-1.46038 0.0813,-0.23809 0.42574,0.3569 0.80202,1.38596 0.36267,0.99185 0.87645,1.96211 1.14153,2.15594 0.26508,0.19382 0.76551,0.35244 1.1126,0.35244 0.53502,0 0.71777,-0.27991 1.19889,-1.83762 0.67744,-2.19329 0.70171,-2.61327 0.15038,-2.61327 -0.22948,0 -0.51158,-0.009 -0.62632,-0.0212 -0.11474,-0.0113 -0.41046,0.64586 -0.65732,1.46037 -0.48174,1.58947 -0.48135,1.5898 -1.3069,-0.86196 -0.44462,-1.32046 -0.63741,-1.55351 -1.54461,-1.86759 -0.44186,-0.15297 -0.69678,-0.27306 -0.88573,-0.22117 z m -5.2741,0.0377 c 0.24252,0.0199 0.54438,0.0723 0.92242,0.1509 1.17236,0.24362 1.196,0.27038 1.1126,1.27227 -0.0905,1.08771 -0.36018,1.22265 -1.94252,0.97049 -0.97982,-0.15614 -1.3246,-0.61436 -1.14928,-1.52756 0.13322,-0.6939 0.32922,-0.92591 1.05678,-0.8661 z m -31.156231,1.75132 c -0.65753,0 -4.307231,1.32727 -4.307231,1.56631 0,0.0637 0.392626,1.05178 0.872815,2.19573 0.48018,1.14394 0.949847,2.07733 1.043347,2.07533 0.47727,-0.012 0.991355,-0.59186 0.997355,-1.12603 0.005,-0.44015 0.309054,-0.7261 1.123963,-1.05782 0.614209,-0.25001 1.271376,-0.55577 1.460376,-0.67954 0.876259,-0.57386 -0.0847,-2.97398 -1.190625,-2.97398 z m -0.499195,1.40715 c 0.25389,0.0248 0.368127,0.17576 0.315227,0.4501 -0.0947,0.49126 -1.707876,1.30021 -2.003496,1.00459 -0.364959,-0.36496 -0.144124,-0.8379 0.535885,-1.14773 0.50501,-0.2301 0.898495,-0.3318 1.152384,-0.30696 z m 45.677826,0.0941 c -0.44343,0.0983 -1.08052,0.50764 -2.19315,1.37821 -1.83493,1.43573 -1.9309,1.56281 -1.39423,1.85001 0.31697,0.16968 0.83536,0.22621 1.15239,0.12558 0.77855,-0.2471 2.74091,0.65818 2.74091,1.26452 0,0.25936 0.28158,0.59787 0.62581,0.75189 0.62056,0.27767 0.62651,0.25871 0.70641,-2.22932 0.0845,-2.63086 0.0158,-2.80342 -1.24902,-3.14089 -0.1152,-0.0307 -0.24131,-0.0328 -0.38912,0 z m -51.047524,1.00252 c -0.684299,0 -2.810561,1.06393 -3.79305,1.89808 -0.723229,0.61404 -0.591916,1.76764 0.349333,3.06699 0.45993,0.63492 1.05494,1.15445 1.3224,1.15445 0.26745,0 1.299641,-0.47175 2.2934,-1.04851 2.164238,-1.25609 2.38079,-1.91542 1.258321,-3.83077 -0.556559,-0.9497 -0.891494,-1.24024 -1.430404,-1.24024 z m 51.099714,0.42065 c 0.21968,-0.0559 0.25373,0.11961 0.25373,0.68213 0,0.9057 -0.14005,0.98878 -0.91002,0.54053 -0.55118,-0.32089 -0.43534,-0.66457 0.36897,-1.09502 0.12012,-0.0643 0.2141,-0.109 0.28732,-0.12764 z m 4.30982,0.73897 c -0.42915,0.57431 -2.10892,3.56426 -2.10892,3.75378 0,0.13785 0.7822,0.71429 1.7384,1.28105 1.63954,0.9718 2.15594,1.19222 2.15594,0.9214 0,-0.064 0.0697,-0.29809 0.15503,-0.52039 0.10321,-0.26897 -0.26799,-0.65199 -1.1095,-1.14515 l -1.26452,-0.74104 0.8475,-1.50171 0.84749,-1.50172 -0.59635,-0.31884 c -0.32797,-0.17556 -0.62727,-0.27798 -0.66507,-0.22738 z m -55.674117,0.23099 c 0.14673,0 0.991671,1.5244 0.991671,1.78904 0,0.081 -0.495872,0.39991 -1.101742,0.709 -0.605869,0.30909 -1.228861,0.56224 -1.384411,0.56224 -0.41706,0 -1.207962,-1.31842 -0.996322,-1.66088 0.1694,-0.27409 2.172314,-1.3994 2.490804,-1.3994 z m 27.544047,0.7581 c -3.17299,-0.0148 -6.75533,0.22284 -9.09867,0.63975 -16.769649,2.98352 -30.77928,13.433733 -38.162003,28.466483 -7.151413,14.56179 -7.151413,31.41319 0,45.97497 8.358382,17.01938 25.198686,28.07636 44.352323,29.12122 0.84146,0.0459 1.59265,0.10581 1.66915,0.13281 0.50464,0.17783 8.27587,-0.60206 10.74198,-1.07797 12.78855,-2.46792 24.83521,-10.21704 32.43626,-20.86539 3.5448,-4.96591 6.89289,-12.33105 8.31888,-18.29914 1.34282,-5.61995 1.71548,-12.96164 0.94981,-18.71307 -1.45348,-10.91796 -6.36026,-21.19498 -13.88494,-29.08195 -9.257,-9.702673 -21.03908,-15.258373 -34.34726,-16.195913 -0.90562,-0.0638 -1.91786,-0.0969 -2.97553,-0.1018 z m -0.36173,2.09703 c 9.46568,-0.003 18.84887,2.69136 26.93892,8.006233 15.44221,10.14495 24.04154,27.32006 22.77639,45.49128 -0.80405,11.54835 -5.57465,22.36356 -13.57798,30.78261 -8.49829,8.93972 -19.31308,14.27462 -31.41152,15.4957 -18.228967,1.83982 -36.245311,-6.76302 -46.516021,-22.21208 -3.586776,-5.39517 -6.011133,-11.21882 -7.416601,-17.81494 -0.68144,-3.19814 -0.744141,-4.02195 -0.744141,-9.75186 0,-5.7299 0.0627,-6.55422 0.744141,-9.75237 3.349496,-15.7198 13.312502,-28.49229 27.540437,-35.30741 6.892078,-3.301283 14.304155,-4.934983 21.666375,-4.937163 z m -35.132219,0.70331 c -0.31458,-0.0791 -0.775734,0.2452 -2.163692,1.33119 -1.776779,1.39024 -1.968911,1.62725 -1.608171,1.98799 0.36075,0.36077 0.49955,0.35141 1.161169,-0.0822 0.45782,-0.3 0.823201,-0.3859 0.935861,-0.21962 0.101689,0.15007 0.544006,0.73461 0.982885,1.299153 0.886629,1.14048 1.066786,1.21163 1.561145,0.61598 0.27873,-0.33584 0.157597,-0.6604 -0.665592,-1.781803 l -1.006657,-1.37098 0.769462,-0.56586 c 0.703379,-0.51728 0.731245,-0.60387 0.328145,-1.01337 -0.101089,-0.1027 -0.189705,-0.17414 -0.294555,-0.20051 z m 71.203919,1.22473 c -0.56228,-0.0546 -1.04943,0.30706 -1.7291,1.05937 -1.48438,1.643033 -1.37214,2.143653 0.89814,4.011643 1.29168,1.06279 2.26073,1.25724 2.83238,0.56844 0.29208,-0.35194 0.2634,-0.49156 -0.16329,-0.80357 -0.28403,-0.20764 -0.66041,-0.32184 -0.83664,-0.25424 -0.45777,0.17567 -2.06758,-1.25343 -2.06758,-1.83555 0,-0.268673 0.25356,-0.718113 0.56327,-0.998393 0.54671,-0.49481 0.58528,-0.49308 1.32137,0.0517 0.417,0.30859 0.91362,0.877683 1.10381,1.265043 0.19019,0.38737 0.53137,0.85828 0.75809,1.04644 0.34135,0.2833 0.47171,0.21161 0.75861,-0.41806 0.33208,-0.72885 0.27987,-0.82235 -1.2578,-2.253613 -0.98157,-0.91364 -1.61899,-1.38458 -2.18126,-1.43919 z m -75.889938,2.44792 c -0.29521,-0.0603 -0.717487,0.265043 -1.880506,1.295533 -0.956189,0.84724 -1.738395,1.6438 -1.738395,1.76991 0,0.12611 0.638726,0.92751 1.419035,1.78129 0.780309,0.85379 1.48598,1.55236 1.56838,1.55236 0.0824,0 0.942732,-0.69561 1.911511,-1.54616 1.548299,-1.35932 1.721464,-1.6101 1.433504,-2.07119 -0.306849,-0.49136 -0.420601,-0.44457 -1.79989,0.7338 -1.679818,1.43511 -1.991785,1.07466 -0.442867,-0.51159 0.802249,-0.82156 0.955778,-1.12834 0.695048,-1.38906 -0.26072,-0.26073 -0.575076,-0.10004 -1.422135,0.72708 -0.67745,0.66152 -1.216404,0.98132 -1.430404,0.84905 -0.23698,-0.14646 0.07861,-0.58125 1.018026,-1.4025 1.212519,-1.05999 1.315738,-1.23627 0.944128,-1.61179 -0.093,-0.094 -0.177035,-0.156643 -0.275435,-0.176733 z m 80.825038,1.948723 c -0.80267,0 -2.66289,1.91514 -2.66289,2.74143 0,0.45257 0.49959,1.18068 1.48776,2.16886 0.86125,0.86125 1.73537,1.48725 2.07636,1.48725 0.77136,0 2.51279,-1.54194 2.73317,-2.42001 0.1442,-0.57453 -0.0972,-0.96241 -1.45366,-2.33319 -0.901,-0.9105 -1.87435,-1.64434 -2.18074,-1.64434 z m -40.58822,0.005 c -0.86009,-0.0183 -6.51306,8.81456 -9.59218,14.98772 -3.492357,7.00157 -6.956917,15.87812 -8.642367,22.14283 -0.27339,1.01617 -0.51041,1.23134 -2.737297,2.48047 -1.341089,0.75226 -3.776004,2.21087 -5.410523,3.24166 -10.812329,6.81871 -13.115271,11.11038 -6.566007,12.23595 1.606728,0.27616 2.886025,0.27915 6.164481,0.0145 2.275218,-0.18369 4.189304,-0.28122 4.254004,-0.21652 0.0647,0.0647 -0.13295,1.60361 -0.439249,3.41994 -0.985679,5.84491 -2.245442,17.19283 -2.248442,20.25665 -0.001,1.30006 -0.141634,1.43265 2.784843,-2.6262 11.374127,-15.77541 23.223947,-25.75222 31.289557,-26.34361 1.83782,-0.13475 2.01217,-0.095 3.10265,0.70331 2.91752,2.13589 7.61187,11.02822 12.28607,23.27352 l 0.84905,2.22519 0.0181,-1.32912 c 0.0638,-4.8721 -2.28676,-20.16089 -4.45295,-28.96206 -0.44796,-1.82006 -0.81546,-3.45356 -0.81546,-3.63027 0,-0.1767 0.59518,-0.58505 1.32189,-0.90744 0.7267,-0.3224 2.00952,-0.99114 2.85098,-1.48569 1.71823,-1.00986 1.64194,-0.84177 -0.78754,1.72599 -0.67373,0.71207 -1.14539,1.42448 -1.04749,1.58285 0.2658,0.43012 12.30308,0.43485 12.56875,0.005 0.23243,-0.37608 0.92487,-3.47465 0.93947,-4.20336 0.0181,-0.90163 -1.04257,-0.5588 -1.54461,0.49919 -0.67113,1.41432 -1.61091,1.79576 -4.4235,1.79576 -1.87337,0 -2.63492,0.12525 -3.52691,0.58032 l -1.1374,0.58033 0.57051,-0.7891 c 0.31367,-0.43396 1.21613,-1.41476 2.00556,-2.17971 0.78943,-0.76495 1.9255,-1.97196 2.52542,-2.68201 l 1.09089,-1.29088 -3.61631,-2.70267 c -1.98919,-1.48651 -3.61684,-2.72747 -3.61684,-2.75797 0,-0.13944 8.30372,0.89108 8.58604,1.06556 0.17552,0.10848 0.51311,0.57268 0.75035,1.03146 0.27052,0.52313 0.60706,0.80031 0.90227,0.74311 0.39318,-0.0762 0.45458,-0.36548 0.37258,-1.75596 -0.054,-0.91554 -0.15561,-1.75852 -0.22531,-1.87327 -0.22399,-0.36849 -12.05507,-0.25338 -12.05507,0.1173 0,0.17937 0.62617,1.0556 1.39112,1.94717 0.76496,0.89157 2.03608,2.3735 2.82516,3.29282 0.78908,0.91932 1.36554,1.74073 1.28054,1.82573 -0.25023,0.25023 -8.02013,3.45664 -8.37624,3.45664 -0.17899,0 -0.75302,-1.40786 -1.2764,-3.12901 -3.96595,-13.04205 -9.5318,-24.71157 -16.14992,-33.86098 -0.99445,-1.3748 -1.91379,-2.50176 -2.04225,-2.50476 z m -0.0966,1.04128 0.52607,0.65888 c 0.28947,0.36264 1.75099,2.48831 3.24786,4.72322 4.68786,6.99916 9.62832,17.52407 12.78113,27.22987 1.61204,4.96258 1.99913,6.39805 1.72548,6.39805 -0.13223,0 -0.43858,0.0761 -0.68058,0.16899 -0.27365,0.10501 -0.43977,0.0198 -0.43977,-0.22531 0,-0.74229 -2.83777,-9.25989 -4.50153,-13.51132 -3.48764,-8.91208 -11.69089,-23.66264 -12.78372,-22.98723 -0.71163,0.43981 -4.81998,7.16295 -7.00835,11.46907 -4.95517,9.75045 -8.983327,21.11113 -11.459247,32.31792 -0.42251,1.9124 -0.90646,3.56903 -1.07539,3.68143 -0.432155,0.2875 -1.002519,0.26217 -1.002519,-0.045 0,-0.57569 1.777189,-7.92342 2.816369,-11.64373 3.90816,-13.99161 9.792497,-27.06786 16.131307,-35.84846 z m 40.82128,0.23203 0.99477,0.99477 c 0.69446,0.69446 0.94464,1.15304 0.82889,1.51774 -0.0912,0.28738 -0.42421,0.68406 -0.74052,0.8816 -0.51278,0.32023 -0.67916,0.25513 -1.53324,-0.59893 -0.52685,-0.52685 -0.95808,-1.0738 -0.95808,-1.21543 0,-0.14162 0.3167,-0.55512 0.70383,-0.91881 z m -85.425785,0.93328 c -0.28947,-0.0213 -0.706776,0.38467 -1.789555,1.59525 l -1.653646,1.84846 1.65778,1.48363 c 0.911759,0.81597 1.741389,1.48387 1.843298,1.48415 0.23943,6.5e-4 3.291789,-3.36845 3.291789,-3.63337 0,-0.11055 -0.216064,-0.28419 -0.480074,-0.3855 -0.348909,-0.1339 -0.791944,0.17578 -1.622123,1.13274 -0.637459,0.73479 -1.220716,1.18925 -1.319816,1.02888 -0.0977,-0.15802 0.256719,-0.79474 0.787549,-1.4149 0.530829,-0.62015 0.965315,-1.2535 0.965315,-1.40767 0,-0.67119 -0.726532,-0.41862 -1.611271,0.56069 -1.457258,1.61301 -1.972078,1.31112 -0.579809,-0.34003 1.030509,-1.22213 1.129173,-1.45052 0.777213,-1.80247 -0.088,-0.088 -0.17016,-0.14276 -0.26665,-0.14986 z m 90.424445,2.46651 -1.81229,1.33119 c -0.99685,0.73194 -1.81281,1.41608 -1.81281,1.52083 0,0.10475 0.18738,0.34626 0.41651,0.53641 0.34086,0.2829 0.58112,0.22234 1.32137,-0.33332 1.56444,-1.17433 1.63335,-1.13714 0.84956,0.46096 -0.60785,1.23939 -0.70012,1.65803 -0.4501,2.0376 0.17308,0.26275 0.41982,0.46011 0.5488,0.43821 0.12898,-0.0219 0.9233,-0.13013 1.76475,-0.24029 l 1.52962,-0.2005 -1.11259,0.89038 c -0.61197,0.48957 -1.16153,0.93889 -1.22163,0.99839 -0.06,0.0595 0.0488,0.29909 0.24236,0.53227 0.19352,0.23319 0.41291,0.42374 0.48731,0.42374 0.0744,0 0.93262,-0.58535 1.90686,-1.30069 1.87073,-1.37358 1.84553,-1.28537 0.74776,-2.62207 -0.3065,-0.37319 -0.59251,-0.40067 -1.75907,-0.17001 -0.76611,0.15146 -1.46077,0.20786 -1.54357,0.12506 -0.0828,-0.0828 0.10864,-0.65882 0.4253,-1.27951 0.70374,-1.3795 0.70532,-1.66785 0.0145,-2.49701 z m -33.85943,3.23133 c -0.71208,0.04 -1.27917,1.09691 -0.72295,1.65313 0.10844,0.1089 0.45254,0.16045 0.76481,0.11575 0.73888,-0.10577 0.95056,-1.45833 0.26923,-1.71979 -0.10478,-0.0402 -0.20937,-0.0548 -0.31109,-0.0491 z m -57.265231,0.74517 c -0.352669,-0.11199 -0.837344,0.24917 -1.449524,1.08159 l -0.818038,1.11311 -1.305346,-0.99684 c -1.057299,-0.80731 -1.382317,-0.93295 -1.709457,-0.66145 -0.668359,0.55468 -0.45912,0.90334 1.346688,2.24895 1.157009,0.86216 1.833334,1.20196 2.050004,1.0294 0.69425,-0.55292 2.370041,-3.26044 2.194182,-3.545 -0.0881,-0.14255 -0.190959,-0.23243 -0.308509,-0.26976 z m 28.090794,1.08159 c -1.53437,0 -2.32548,1.96573 -1.23145,3.05976 0.30598,0.30598 0.79306,0.55656 1.0821,0.55656 0.66669,0 1.60093,-0.79906 1.81953,-1.55598 0.22991,-0.79609 -0.79507,-2.06034 -1.67018,-2.06034 z m 37.850907,0.55604 c -1.19044,0 -1.75498,1.62675 -0.76481,2.20348 0.68669,0.39996 1.07686,0.36594 1.57975,-0.13694 0.84016,-0.84018 0.35645,-2.06654 -0.81494,-2.06654 z m -72.203333,0.75809 c -0.30076,0.0262 -0.608669,0.43145 -1.348238,1.60249 -0.62475,0.98924 -1.135848,1.91548 -1.135848,2.05827 0,0.14279 0.782196,0.76428 1.738395,1.38131 0.956198,0.61703 1.82799,1.12892 1.937348,1.13792 0.109361,0.009 0.335563,-0.2394 0.502813,-0.55191 0.25018,-0.46746 0.195825,-0.65567 -0.305925,-1.06195 l -0.609781,-0.49402 0.759126,-1.14722 c 0.41755,-0.63095 0.677752,-1.27944 0.577742,-1.44126 -0.361089,-0.58425 -0.960308,-0.27256 -1.573546,0.81856 -0.343951,0.61196 -0.789844,1.11259 -0.991155,1.11259 -0.5201,0 -0.468931,-0.18877 0.461988,-1.7017 0.789619,-1.28328 0.803452,-1.35854 0.301273,-1.62729 -0.114289,-0.0612 -0.213932,-0.0945 -0.314193,-0.0858 z m 102.628873,0.75086 c -0.23973,-0.14816 -3.73826,1.68405 -3.98839,2.08876 -0.0729,0.11804 0.0231,0.42745 0.21342,0.68782 0.32048,0.43828 0.44746,0.41717 1.70791,-0.28732 0.77742,-0.43448 1.26009,-0.59006 1.125,-0.36277 -0.13012,0.21894 -0.53357,0.8747 -0.89607,1.45727 -1.02441,1.64627 -0.70289,2.13759 1.40404,2.14819 l 1.7198,0.009 -1.1126,0.68368 c -0.61197,0.37585 -1.1005,0.80996 -1.0852,0.9648 0.0153,0.1547 0.0469,0.40661 0.0698,0.55965 0.0232,0.15279 0.17795,0.27802 0.34417,0.27802 0.49241,0 3.87004,-1.97185 3.87004,-2.25929 0,-0.1452 -0.2025,-0.5722 -0.44958,-0.9493 -0.39392,-0.60123 -0.65246,-0.68575 -2.09961,-0.68575 h -1.65003 l 0.87385,-1.2702 c 0.79549,-1.1562 0.84321,-1.3442 0.5333,-2.09238 -0.18726,-0.45209 -0.44805,-0.88857 -0.57981,-0.96997 z m -76.846984,1.04077 c -0.900339,0.13139 -1.356938,1.16022 -0.659908,1.85725 0.468799,0.4688 1.614826,0.29378 1.989026,-0.30386 0.396019,-0.63247 -0.0737,-1.42606 -0.918291,-1.55133 -0.144659,-0.0215 -0.282207,-0.021 -0.410827,-0.002 z m 43.040774,2.204 c -0.85972,-0.0944 -1.6015,1.25365 -0.91829,2.07687 0.47125,0.56783 1.20445,0.49884 1.81023,-0.17053 0.55819,-0.61679 0.38737,-1.19971 -0.51987,-1.77199 -0.12383,-0.0781 -0.24926,-0.12086 -0.37207,-0.13435 z m -71.999213,1.264 c -0.42462,0.16295 -2.367298,3.66216 -2.367298,4.26382 0,0.15471 0.844716,0.71483 1.877405,1.24489 1.032699,0.53004 1.963134,0.96972 2.067574,0.97772 0.43241,0.0312 0.572088,-1.22314 0.164848,-1.48002 -0.36711,-0.2316 -0.363777,-0.38863 0.03152,-1.34513 0.366919,-0.88768 0.561998,-1.06197 1.083138,-0.96687 0.430049,0.0784 0.731819,-0.0638 0.932759,-0.43925 0.34457,-0.64383 -0.0577,-1.02911 -1.081588,-1.03611 -0.344229,-0.002 -0.625801,-0.12638 -0.625801,-0.27544 0,-0.42047 -1.579524,-1.13601 -2.08256,-0.94361 z m 0.558622,1.49293 c 0.590309,0 0.634128,0.30692 0.201538,1.40819 -0.41004,1.04384 -0.961731,1.39628 -1.307931,0.83612 -0.219849,-0.35573 0.711243,-2.24431 1.106393,-2.24431 z m 36.177634,0.30128 c -0.43718,-0.0311 -0.88515,0.14515 -1.27331,0.5333 -0.7291,0.72907 -0.70654,1.78548 0.0527,2.49287 0.80508,0.75003 1.49298,0.71566 2.32441,-0.11576 0.83302,-0.83303 0.8534,-1.25079 0.10645,-2.20038 -0.34641,-0.4404 -0.77307,-0.67894 -1.21026,-0.71003 z m 41.159757,0.58497 c -0.70637,-0.066 -1.54254,0.4702 -1.54254,1.19993 0,0.20763 0.19677,0.57452 0.43718,0.81494 0.24041,0.2404 0.60679,0.43718 0.81442,0.43718 0.97294,0 1.60199,-1.48618 0.91829,-2.16989 -0.17093,-0.17092 -0.39189,-0.26015 -0.62735,-0.28216 z m -51.883648,0.92605 c -0.11542,-0.0713 -0.445832,0.77511 -0.734323,1.8805 l -0.524516,2.0097 -2.086177,0.60875 c -1.147439,0.33487 -2.148687,0.62792 -2.225187,0.65112 -0.0765,0.0232 0.856509,0.32251 2.073258,0.66507 l 2.212268,0.62271 0.551905,2.12803 c 0.303659,1.17023 0.617731,2.06221 0.697631,1.98231 0.0799,-0.0799 0.400509,-1.03989 0.712618,-2.1332 l 0.567408,-1.98748 2.008663,-0.54364 c 1.104738,-0.29878 1.950688,-0.63648 1.879988,-0.75085 -0.0707,-0.11438 -0.995089,-0.42053 -2.054138,-0.68007 l -1.925464,-0.4718 -0.471806,-1.92547 c -0.259579,-1.05895 -0.566749,-1.98426 -0.682169,-2.05556 z m 80.467948,0.99373 c -0.45286,-0.015 -0.75006,-0.009 -0.78186,0.0233 -0.28618,0.28618 0.25472,1.34307 0.68729,1.34307 0.64092,0 1.52557,1.96699 1.29605,2.88148 -0.0953,0.3798 -0.0952,0.89342 0,1.14153 v 5.2e-4 c 0.24169,0.62982 0.38082,0.528 2.16317,-1.58182 1.56489,-1.85242 1.57582,-1.87783 1.15756,-2.68666 -0.40235,-0.77805 -0.53502,-0.82579 -2.80552,-1.01492 -0.65529,-0.0546 -1.26384,-0.0914 -1.71669,-0.10646 z m 2.00453,1.54048 c 0.10518,0.002 0.24955,0.0206 0.44028,0.0486 0.67281,0.0987 0.75305,0.19499 0.52193,0.62684 -0.45386,0.84809 -0.75802,0.85921 -1.04438,0.0377 -0.19601,-0.56226 -0.23344,-0.7177 0.0822,-0.71313 z m -27.49548,0.66042 c -1.29865,0 -1.74788,1.32234 -0.69867,2.05724 0.64734,0.45341 1.52539,0.19861 1.80248,-0.52348 0.23678,-0.61705 -0.42281,-1.53376 -1.10381,-1.53376 z m -79.524337,0.41186 c -0.0875,-0.0762 -3.664654,0.36385 -4.549593,0.55966 -0.669859,0.14822 -1.334426,1.40212 -1.024227,1.9327 0.11634,0.19901 0.900047,1.11179 1.741496,2.0283 l 1.529623,1.66656 0.321944,-0.72657 c 0.21009,-0.47402 0.228153,-0.84001 0.05219,-1.05368 -0.41012,-0.498 0.319698,-2.64493 0.955497,-2.8112 0.43927,-0.11487 1.214157,-1.38575 0.973067,-1.59577 z m 52.753877,0.74053 c 2.74186,-0.0645 5.5105,0.23455 8.06876,0.90227 1.51986,0.39669 2.86567,0.87887 2.99051,1.07177 1.03459,1.59863 1.24301,6.60543 0.34985,8.40413 -0.62365,1.25593 -1.25135,1.53074 -5.44773,2.38591 -4.29227,0.8747 -8.93375,0.60917 -13.44052,-0.76895 -2.24679,-0.68704 -2.6974,-1.46421 -2.83858,-4.89686 -0.0797,-1.93821 0.0135,-2.88092 0.38808,-3.93878 0.46772,-1.32064 0.56939,-1.41583 2.0221,-1.88153 2.45052,-0.78558 5.16567,-1.21344 7.90753,-1.27796 z m 0.4377,0.18655 -1.46038,0.1788 c -3.15257,0.38635 -7.26642,1.36807 -7.74681,1.84847 -0.54842,0.54841 -1.08165,2.20959 -1.08365,3.37963 l -0.002,0.76482 h 5.14645 5.14594 v -3.08612 z m 1.04283,0.0574 c -0.11473,-0.003 -0.20825,1.37169 -0.20825,3.05459 v 3.05977 h 5.17022 5.17075 l -0.19689,-1.18236 c -0.10827,-0.65021 -0.37849,-1.63955 -0.60048,-2.19883 -0.38907,-0.9802 -0.49071,-1.03807 -2.81792,-1.60197 -1.97488,-0.47852 -5.59451,-1.1068 -6.51743,-1.1312 z m 18.03249,0.57412 c -0.43719,-0.0311 -0.88463,0.14515 -1.27279,0.53331 -0.8967,0.89669 -0.71453,2.08553 0.41755,2.72748 0.8297,0.47048 1.20602,0.40318 1.95957,-0.35037 0.83302,-0.83302 0.85339,-1.2508 0.10645,-2.20038 -0.34642,-0.4404 -0.7736,-0.67895 -1.21078,-0.71004 z m -76.752928,0.25477 h 0.883151 c 0.485639,0 0.874213,0.094 0.863513,0.20877 -0.0108,0.11474 -0.108451,0.43385 -0.217041,0.709 -0.18031,0.45685 -0.255354,0.43858 -0.863513,-0.20877 z m 115.569168,0.60668 -2.13889,0.65991 c -1.17622,0.3629 -2.17027,0.69601 -2.20917,0.74001 -0.0389,0.044 0.0335,0.35601 0.16123,0.69349 0.22759,0.60131 0.25786,0.60477 1.51257,0.17725 0.70418,-0.23997 1.34789,-0.36932 1.42989,-0.28732 0.082,0.082 -0.35941,0.82199 -0.9803,1.64435 -1.08119,1.43202 -1.11501,1.53955 -0.80926,2.53576 0.17558,0.5721 0.45965,0.98574 0.63149,0.91984 0.17184,-0.0659 1.09151,-0.33845 2.0438,-0.60565 1.89703,-0.53228 2.11386,-0.70763 1.86035,-1.50637 -0.15991,-0.50383 -0.24019,-0.51203 -1.30483,-0.13642 -1.88875,0.66639 -2.00167,0.51262 -0.7953,-1.08521 1.17899,-1.56157 1.2856,-1.94163 0.8599,-3.06131 z m -117.37836,2.1947 c -0.310989,0.0485 -0.479618,0.5886 -1.027327,2.52956 -0.488319,1.73052 -0.567813,2.35835 -0.318844,2.51664 0.62716,0.39874 0.9579,0.21792 1.12448,-0.61495 0.189939,-0.94976 0.365832,-0.98336 2.210201,-0.42374 1.169888,0.35498 1.352601,0.35431 1.489831,-0.003 0.29247,-0.76218 -0.135619,-1.17603 -1.575098,-1.52136 -1.436538,-0.34462 -1.436851,-0.34493 -1.259871,-1.28829 0.1349,-0.71904 0.0716,-0.9837 -0.265617,-1.11311 -0.1547,-0.0594 -0.274095,-0.0977 -0.377755,-0.0816 z m 93.6382,1.37149 0.19121,1.27693 v 5.1e-4 c 0.23559,1.57105 0.0512,1.82359 -0.52193,0.7152 -0.5269,-1.01891 -0.77403,-1.10393 -4.55063,-1.56269 l -2.98328,-0.36225 3.93206,-0.0341 z m -9.67692,1.49707 h 5.1e-4 c 0.10873,-0.013 1.28167,0.79284 2.85461,1.96887 1.79765,1.34404 3.26853,2.50597 3.26853,2.58227 0,0.0763 -1.51602,1.75081 -3.3693,3.72122 -2.83378,3.01287 -4.14083,4.10426 -4.14083,3.45819 0,-0.0682 1.31528,-1.52766 2.92333,-3.24321 2.52852,-2.6976 2.87493,-3.1789 2.5616,-3.56154 -0.19927,-0.24335 -1.10072,-1.31858 -2.00297,-2.38952 -0.90226,-1.07093 -1.83551,-2.18681 -2.0743,-2.47944 -0.0299,-0.0366 -0.0367,-0.055 -0.0212,-0.0568 z m -34.84439,0.17208 0.15813,1.33429 c 0.26441,2.23254 0.66108,2.79519 2.30529,3.27318 0.80101,0.23285 2.25041,0.59602 3.22099,0.80667 0.97058,0.21064 2.42193,0.39294 3.22512,0.40514 l 1.46038,0.0217 v -2.92024 -2.92075 h -5.1847 z m 11.20449,0 v 2.92075 2.92024 h 1.20044 c 1.51786,0 3.9751,-0.43833 6.34328,-1.13172 l 1.84123,-0.53898 0.47439,-1.69137 c 0.26099,-0.93015 0.40618,-1.86838 0.32298,-2.08515 -0.12275,-0.3199 -1.09565,-0.39377 -5.16661,-0.39377 z m -35.903748,0.27802 c -1.352619,0 -1.720208,1.81442 -0.469739,2.3182 0.19299,0.0777 0.390433,0.1512 0.438733,0.1633 0.360649,0.0902 1.163753,-0.65384 1.163753,-1.07797 0,-0.99849 -0.327138,-1.40353 -1.132747,-1.40353 z m 45.083028,0.54157 v 0.81907 c 0,0.45045 -0.0734,1.01075 -0.1633,1.24489 -0.20948,0.54591 -2.1052,1.16189 -5.22759,1.6986 -3.52859,0.60653 -3.2694,0.7366 -3.175,-1.59215 l 0.0811,-2.01642 4.24211,-0.077 z m 49.94372,1.18649 c -0.11169,-0.11169 -3.3843,0.38221 -4.22248,0.63717 -0.43174,0.13133 0.37368,4.55793 0.94878,5.21467 0.48532,0.5542 1.1518,0.60622 2.60501,0.20257 1.65002,-0.45831 1.75534,-0.75604 1.24385,-3.51348 -0.24629,-1.32772 -0.50526,-2.47103 -0.57516,-2.54093 z m -120.31306,1.05368 c -0.886959,0 -1.402679,1.12545 -1.472779,3.21531 -0.0623,1.85797 -0.04469,1.91135 0.715719,2.18488 1.170739,0.42111 1.668946,-0.0591 2.095996,-2.0221 0.44076,-2.02608 1.022226,-2.33103 0.807186,-0.42323 -0.0797,0.70738 -0.266966,1.36458 -0.415995,1.46038 -0.14904,0.0958 -0.358692,0.45573 -0.466122,0.79995 -0.16795,0.53817 -0.0947,0.62632 0.524516,0.62632 0.844809,0 1.120073,-0.51841 1.529622,-2.87838 0.35777,-2.06165 0.0757,-2.68511 -1.214396,-2.68511 -1.111479,0 -1.419673,0.3335 -1.671732,1.80816 -0.29081,1.7014 -0.452921,2.11011 -0.761711,1.91926 -0.35758,-0.221 -0.0464,-1.97308 0.485242,-2.73213 0.550799,-0.78636 0.491353,-1.27331 -0.155546,-1.27331 z m 118.80824,0.56017 c 0.65966,-0.004 0.75268,0.12494 0.92605,1.28106 0.10597,0.70692 0.0892,1.3868 -0.0377,1.51051 -0.36443,0.35536 -1.68547,0.61126 -1.8371,0.35605 -0.0755,-0.12714 -0.2282,-0.77831 -0.33899,-1.44746 -0.22443,-1.35547 0.0309,-1.69316 1.28777,-1.70016 z m -23.05285,4.02922 -0.18294,0.97358 c -0.10056,0.53547 -0.25785,1.44321 -0.34985,2.01693 l -0.16743,1.04335 -4.62401,-0.0119 -4.62349,-0.0119 0.97359,-0.53279 c 0.73657,-0.40325 1.54897,-0.53618 3.33778,-0.54518 2.7674,-0.0141 3.95652,-0.48287 4.96869,-1.95854 z m -74.51896,1.00665 c -0.6136,0.12255 -0.943035,0.96228 -0.325045,1.58027 0.441879,0.44187 0.651348,0.42145 1.188558,-0.11576 0.508149,-0.50815 0.452565,-0.91418 -0.179834,-1.3131 -0.24314,-0.15337 -0.47915,-0.19226 -0.683679,-0.15141 z m 61.29186,0.0718 c 0.15422,0.15422 -6.62059,3.27005 -10.47326,4.81676 -11.29768,4.5356 -26.158097,8.52619 -36.037591,9.67797 -5.698024,0.66429 -9.503782,0.42639 -10.83448,-0.678 -1.523239,-1.26418 1.076435,-4.31738 7.177339,-8.42894 2.465838,-1.66179 8.880515,-5.49966 8.999965,-5.38469 0.0325,0.0313 -0.31211,1.2918 -0.76533,2.80138 -0.453225,1.50958 -0.823718,2.7829 -0.823718,2.8298 0,0.0469 -0.910513,0.69977 -2.023132,1.45056 -2.269378,1.53136 -4.096391,3.39694 -4.096391,4.18218 0,1.02124 0.768538,1.28723 3.590996,1.24333 6.743245,-0.10493 27.540992,-5.74967 42.366912,-11.49904 1.55741,-0.60396 2.87079,-1.05921 2.91869,-1.01131 z m -3.27319,2.70526 c 0.39504,0.0689 0.66046,1.25361 1.81281,6.23063 1.38665,5.98896 3.52584,19.20962 3.47834,21.49895 -0.005,0.26188 -0.6335,-1.02594 -1.39526,-2.86184 -4.47021,-10.77362 -9.04622,-17.85888 -11.87835,-18.39113 -3.61853,-0.68005 -10.13845,2.21687 -16.34163,7.26106 -2.84313,2.31191 -8.244427,7.75937 -11.173987,11.26908 -1.08552,1.30052 -3.2492,4.05068 -4.808496,6.11228 l -2.835486,3.74861 0.182418,-1.80092 c 0.727869,-7.18737 1.368903,-12.44524 1.987992,-16.3096 0.682089,-4.25773 0.754578,-4.501 1.381828,-4.62091 0.364149,-0.0693 0.661975,-0.0661 0.661975,0.006 0,0.0727 -0.305302,1.96419 -0.678512,4.20336 -0.586009,3.51588 -1.009368,6.67281 -1.699638,12.67468 l -0.157613,1.37045 1.591634,-2.06602 c 5.013758,-6.50947 11.608615,-13.31502 16.324575,-16.84652 6.24188,-4.67413 12.61358,-7.14751 16.03778,-6.22546 2.43747,0.65634 5.54607,4.4516 8.77569,10.71356 l 1.5782,3.05976 -0.18035,-1.53014 c -0.30676,-2.60689 -1.51501,-8.85217 -2.52594,-13.0545 -0.75453,-3.13648 -0.88861,-4.06329 -0.6134,-4.23798 0.19815,-0.12578 0.34374,-0.22658 0.47542,-0.20361 z m -39.577936,4.2354 c 0.0798,0.0798 -0.0892,1.18722 -0.375171,2.46084 l -0.519864,2.31562 -1.661398,0.0434 c -3.024177,0.0784 -3.311092,-0.32339 -1.452624,-2.03399 1.464468,-1.34796 3.814128,-2.98081 4.009057,-2.78588 z m 75.939026,0.46509 c -0.10157,0 0.18454,0.59374 0.63614,1.3193 l 0.82114,1.3193 -0.68575,1.22628 c -0.37706,0.67462 -0.63049,1.28154 -0.56379,1.34824 0.0667,0.0667 0.66275,-0.18792 1.32498,-0.56586 l 1.20406,-0.68729 1.25212,0.76171 c 0.68846,0.41897 1.29816,0.72301 1.35496,0.67541 0.0568,-0.0476 -0.23298,-0.66052 -0.64389,-1.36167 l -0.74724,-1.27486 0.71365,-1.27641 c 0.39232,-0.70194 0.71314,-1.33053 0.71314,-1.39733 0,-0.0668 -0.61304,0.21186 -1.36219,0.6196 l -1.36219,0.74156 -1.23507,-0.72399 c -0.67946,-0.39819 -1.31849,-0.72399 -1.42007,-0.72399 z m -116.735502,0.0868 c 0,0.0668 0.320815,0.69539 0.713135,1.39733 l 0.713651,1.27641 -0.713651,1.21698 c -0.39232,0.66944 -0.713135,1.3004 -0.713135,1.40198 0,0.10158 0.592093,-0.18369 1.315682,-0.63407 l 1.315682,-0.81907 1.486214,0.85059 1.486731,0.8506 -0.838192,-1.49242 -0.838708,-1.49241 0.677478,-1.1126 c 0.3726,-0.61196 0.678238,-1.21844 0.679028,-1.34772 7.8e-4,-0.12928 -0.574722,0.10248 -1.278991,0.51521 l -1.280542,0.75035 -1.362191,-0.74156 c -0.749149,-0.40774 -1.362191,-0.6864 -1.362191,-0.6196 z m -4.776969,1.11208 c 0.06695,1.42001 0.167885,2.70926 0.30179,3.73724 0.41398,3.17823 1.048181,6.28886 1.88929,9.31416 -0.841109,-3.02531 -1.475827,-6.13541 -1.889807,-9.31365 -0.1339,-1.02798 -0.23445,-2.31761 -0.301273,-3.73775 z m 91.352041,0.79685 c -0.11445,-0.0143 -0.22944,-0.008 -0.3421,0.0186 -0.15021,0.036 -0.29656,0.10978 -0.43202,0.22221 -0.48974,0.40643 -0.52776,1.42297 -0.0703,1.8805 0.92061,0.92061 2.50477,-0.37603 1.78543,-1.46141 -0.25893,-0.3907 -0.59769,-0.61684 -0.94103,-0.6599 z m 3.69951,3.60443 c -0.324,-0.0175 -0.6898,0.11501 -1.03094,0.42374 -0.62382,0.56453 -0.64443,1.03249 -0.0713,1.60559 0.84018,0.84018 2.06603,0.35698 2.06603,-0.81442 0,-0.74011 -0.42379,-1.1857 -0.96377,-1.21491 z m -22.58518,3.55017 c -0.29506,-0.0121 -0.60375,0.0927 -0.87385,0.36277 -0.49189,0.49189 -0.40582,1.54418 0.15296,1.86965 0.71488,0.41638 1.03796,0.36416 1.60042,-0.25735 0.76827,-0.84893 0.006,-1.93886 -0.87953,-1.97507 z m 27.98485,0.39222 c -0.14084,-0.0326 -0.28124,-0.031 -0.40514,0.0165 -0.68885,0.26433 -0.84076,1.04932 -0.28215,1.45779 0.57178,0.4181 1.53685,0.0658 1.53685,-0.5612 0,-0.4082 -0.42703,-0.81538 -0.84956,-0.91313 z m -64.402776,1.942 c -1.008479,0.0406 -1.682321,1.30303 -0.895552,2.0898 0.461139,0.46116 1.474867,0.41855 1.888257,-0.0796 0.462479,-0.55726 0.13492,-1.73249 -0.54312,-1.94769 -0.15445,-0.049 -0.305515,-0.0683 -0.449585,-0.0625 z m -7.225915,0.36019 c -0.1295,-0.0825 -0.210075,0.27386 -0.425814,0.95136 -0.34575,1.08578 -0.518569,1.26376 -1.436088,1.47898 -0.573709,0.13458 -1.04283,0.34508 -1.04283,0.46767 0,0.1226 0.469121,0.33309 1.04283,0.46767 0.917519,0.21522 1.090338,0.3932 1.436088,1.47898 0.431479,1.35499 0.322467,1.42486 1.145667,-0.72915 0.147749,-0.38664 0.569614,-0.65552 1.221114,-0.77773 1.274538,-0.2391 1.274538,-0.64043 0,-0.87953 -0.6515,-0.12223 -1.073365,-0.3911 -1.221114,-0.77773 -0.411601,-1.07701 -0.590363,-1.59805 -0.719853,-1.68052 z m 73.278721,2.11821 c -0.84178,-0.0976 -1.27967,0.61995 -0.76016,1.24592 0.53354,0.64288 1.48932,0.34366 1.48932,-0.46612 0,-0.54347 -0.15911,-0.7137 -0.72916,-0.7798 z m -90.420311,2.50373 c -0.247039,-0.008 -0.689906,0.17427 -1.546675,0.53898 -1.944688,0.8278 -2.123307,1.44241 -1.080038,3.72122 0.80498,1.75831 1.237922,1.88476 3.34915,0.97979 1.312309,-0.56251 1.433252,-0.72006 1.033012,-1.35134 -0.19152,-0.30213 -0.422086,-0.28979 -1.281576,0.0692 -1.459598,0.60984 -1.738194,0.55827 -2.241723,-0.41548 -0.58507,-1.13138 -0.467357,-1.35999 0.996321,-1.93839 0.931729,-0.36818 1.215283,-0.61723 1.143083,-1.00459 -0.0734,-0.3939 -0.124524,-0.59168 -0.371554,-0.59944 z m 53.493881,0.22324 c -1.01674,0 -1.55362,1.43068 -0.81442,2.16989 0.6837,0.68371 2.16938,0.0547 2.16938,-0.91829 0,-0.52977 -0.78146,-1.2516 -1.35496,-1.2516 z m 54.64266,0.60926 c -0.58655,0.0151 -1.20142,0.84454 -1.7048,2.32544 -0.61555,1.8109 -0.37503,2.48977 0.88211,2.48977 0.67091,0 0.906,-0.20208 1.41904,-1.21904 0.33822,-0.67043 0.66497,-1.35913 0.72657,-1.53014 0.0616,-0.17096 0.20665,-0.22286 0.32246,-0.11524 0.3439,0.31956 -0.0886,1.53471 -0.83199,2.33681 -0.77861,0.84012 -0.85004,1.113 -0.3452,1.31671 0.19124,0.0772 0.42215,0.15017 0.51315,0.16227 0.34355,0.0456 1.02533,-1.00664 1.64951,-2.54507 0.62788,-1.54759 0.63186,-1.60912 0.13746,-2.15542 -0.93757,-1.03603 -1.73442,-0.7361 -2.56987,0.96738 -0.41269,0.84145 -0.86296,1.52962 -1.00045,1.52962 -0.1374,0 -0.1741,-0.19776 -0.0811,-0.43976 0.0928,-0.242 0.16899,-0.5485 0.16899,-0.6811 0,-0.1326 0.31308,-0.57897 0.69556,-0.99167 0.80445,-0.86801 0.8634,-1.17803 0.26768,-1.40663 -0.0822,-0.0316 -0.16529,-0.0461 -0.24908,-0.0439 z m -82.198589,0.50333 c -0.820759,0 -1.248235,0.95578 -0.681095,1.52291 0.507629,0.50762 0.914288,0.45188 1.313098,-0.18035 0.38042,-0.60309 0.0322,-1.34256 -0.632003,-1.34256 z m 33.748319,2.53473 c -0.87371,-0.10205 -1.62245,1.23654 -0.93017,2.07068 0.18346,0.22107 0.55314,0.40152 0.82165,0.40152 1.12233,0 1.47938,-1.71201 0.48679,-2.33422 -0.12607,-0.079 -0.25346,-0.1234 -0.37827,-0.13798 z m -38.74543,1.12603 c -0.17337,-0.0417 -0.370744,0.0221 -0.690914,0.16795 -0.544859,0.24826 -0.728121,0.53767 -0.728121,1.14928 0,0.44951 0.156543,0.88327 0.347783,0.96377 1.411918,0.59432 2.542208,-0.67404 1.617989,-1.81539 -0.22412,-0.27678 -0.373367,-0.42391 -0.546737,-0.46561 z m 22.82599,0.0646 c -0.71234,0.0938 -1.19208,0.87633 -0.85524,1.76836 0.23403,0.61978 0.89248,0.79087 1.76164,0.45734 0.66164,-0.25389 0.56576,-1.69147 -0.13797,-2.06809 -0.26759,-0.14321 -0.53098,-0.18887 -0.76843,-0.15761 z m -41.307032,0.1881 -1.893425,0.99477 c -1.661628,0.87316 -1.859074,1.05974 -1.612304,1.52084 0.347319,0.64894 0.31833,0.64981 1.688269,-0.0491 l 1.126029,-0.57465 -0.198954,0.64389 c -0.10936,0.35421 -0.370734,0.98214 -0.580843,1.39527 -0.49851,0.98011 -0.483059,1.62447 0.05891,2.3983 l 0.44235,0.62993 1.157035,-0.66921 c 0.63684,-0.36815 1.441835,-0.81692 1.788005,-0.99735 0.517159,-0.26956 0.57666,-0.42539 0.33693,-0.87333 -0.288779,-0.53956 -0.303113,-0.53934 -1.421102,0.031 -0.621249,0.31694 -1.180868,0.52446 -1.244368,0.46096 -0.0635,-0.0635 0.18194,-0.79052 0.54622,-1.61592 0.621579,-1.40844 0.63614,-1.55626 0.234611,-2.39831 z m 103.314102,0.39842 c -0.43259,0 -2.57486,3.72554 -2.35076,4.08813 0.25636,0.4148 0.86921,0.2265 1.28105,-0.39378 l 0.4098,-0.61701 1.30121,0.68678 c 1.12417,0.59312 1.33762,0.62971 1.56735,0.26923 0.43027,-0.67514 0.33855,-0.8109 -0.98444,-1.45366 -0.92036,-0.44714 -1.20979,-0.72639 -1.07538,-1.03921 0.33153,-0.77164 0.25727,-1.54048 -0.14883,-1.54048 z m -35.04283,0.43667 c -0.16838,-0.005 -0.34331,0.0422 -0.51366,0.14883 -0.60302,0.37758 -0.80323,1.77299 -0.30024,2.09186 0.20349,0.129 0.55754,0.23461 0.78703,0.23461 0.76641,0 1.15867,-0.45834 1.06557,-1.2454 -0.0871,-0.73662 -0.53355,-1.21605 -1.0387,-1.2299 z m -5.01519,0.83923 c -0.34236,0.0143 -0.70168,0.20187 -0.97617,0.59376 -0.53942,0.76997 -0.53914,0.90546 0.004,1.44849 0.84016,0.84017 2.06654,0.35646 2.06654,-0.81494 0,-0.79326 -0.52286,-1.25072 -1.09348,-1.22731 z m -39.63892,1.40973 c -0.62747,-0.12084 -1.30198,0.66274 -1.07642,1.25057 0.0947,0.24687 0.440827,0.37241 0.885217,0.32091 0.568849,-0.066 0.729154,-0.23682 0.729154,-0.77618 0,-0.46257 -0.178162,-0.726 -0.537951,-0.7953 z m 30.63792,0.93017 -0.38396,1.29037 c -0.35959,1.20847 -0.46731,1.3123 -1.69809,1.64021 l -1.31361,0.34984 1.32136,0.39275 c 1.23281,0.3664 1.3422,0.47555 1.63246,1.62832 0.17111,0.67955 0.3568,1.23558 0.4129,1.23558 0.0561,0 0.23913,-0.54433 0.40669,-1.20974 0.2796,-1.11042 0.41151,-1.24478 1.60352,-1.63091 l 1.29863,-0.42065 -1.2945,-0.34261 c -1.22143,-0.32347 -1.31453,-0.41671 -1.64021,-1.63814 z m 46.47571,0.93897 c -0.26971,0.054 -0.64554,0.52119 -1.41438,1.67741 l -1.27796,1.92133 1.72341,1.13637 c 0.94789,0.6249 1.75249,1.13743 1.78749,1.13843 0.22368,0.009 2.5253,-3.75251 2.41019,-3.93878 -0.32637,-0.52807 -0.94049,-0.15618 -1.68362,1.02009 -0.76191,1.20599 -1.20768,1.56368 -1.20768,0.96842 0,-0.15627 0.32496,-0.77526 0.72192,-1.37511 0.64302,-0.97167 0.71302,-1.67945 0.16588,-1.67845 -0.10571,2.8e-4 -0.54847,0.56368 -0.9834,1.25212 -0.43494,0.68843 -0.91072,1.17766 -1.05782,1.08676 -0.15869,-0.0981 -0.0917,-0.43776 0.16485,-0.8351 0.2378,-0.36831 0.62283,-0.96512 0.85576,-1.32601 0.35801,-0.55466 0.3638,-0.70516 0.0403,-0.97359 -0.0766,-0.0636 -0.15473,-0.0916 -0.24443,-0.0739 z m -97.637442,0.83457 c -0.32101,0.005 -0.856606,0.27977 -1.814875,0.90951 -1.530529,1.00581 -1.677381,1.18215 -1.381311,1.65622 0.182199,0.29175 0.398474,0.49863 0.480074,0.45993 0.0816,-0.0387 0.861291,-0.5084 1.73271,-1.04387 1.623029,-0.99732 1.870731,-1.37628 1.240752,-1.89911 -0.067,-0.0557 -0.150349,-0.0842 -0.257349,-0.0827 z m 0.718303,1.42575 c -0.619039,0 -0.66256,0.47492 -0.10852,1.17926 l 0.541569,0.68885 -1.240751,0.89141 c -1.326299,0.95248 -1.42163,1.12087 -0.918291,1.62419 0.35544,0.35546 0.503299,0.29969 1.853117,-0.69918 l 0.924492,-0.68419 0.678511,0.6382 c 0.50019,0.4699 0.761131,0.5556 0.990121,0.3266 0.228999,-0.22899 -0.04251,-0.7916 -1.030945,-2.13786 -0.73796,-1.00505 -1.498353,-1.82728 -1.689303,-1.82728 z m 41.784519,0.0796 c -0.14407,-0.006 -0.29463,0.0135 -0.44907,0.0625 -0.67803,0.2152 -1.00611,1.39044 -0.54363,1.94769 0.41339,0.49804 1.42764,0.54067 1.88877,0.0796 0.78676,-0.78678 0.1124,-2.04918 -0.89607,-2.0898 z m 52.0206,1.98593 c -0.13023,0.0336 -0.24547,0.12093 -0.37362,0.24908 -0.24942,0.24944 -0.39813,0.49264 -0.33073,0.54054 0.0674,0.0479 0.61347,0.50445 1.21388,1.0144 l 1.09192,0.9276 -1.93528,-0.10956 c -1.8365,-0.10378 -1.96719,-0.07 -2.57297,0.66146 l -0.6382,0.7705 0.91519,0.76481 c 0.50331,0.42067 1.2325,1.03574 1.62057,1.36684 0.50748,0.43299 0.80309,0.52107 1.05317,0.31367 0.57743,-0.47887 0.39976,-0.95698 -0.69557,-1.87327 l -1.04283,-0.87281 1.91513,0.0811 c 1.82342,0.0768 1.94308,0.0426 2.50321,-0.71107 l 0.58859,-0.79168 -0.97358,-0.83302 c -1.42141,-1.21628 -1.94816,-1.59942 -2.33888,-1.49862 z m -38.96868,1.55029 c -1.19042,0 -1.75551,1.62625 -0.76533,2.20297 0.68669,0.39996 1.07688,0.36645 1.57975,-0.13643 0.84018,-0.84018 0.35699,-2.06654 -0.81442,-2.06654 z m -51.523464,0.42323 -1.57303,1.34411 -1.573548,1.34462 1.423169,1.64279 c 0.7829,0.90372 1.52896,1.64331 1.65778,1.64331 0.64236,0 0.480596,-0.68066 -0.424263,-1.7849 -1.290299,-1.57464 -0.793928,-1.93837 0.53175,-0.38964 0.75165,0.87809 1.078366,1.08895 1.318266,0.84904 0.2399,-0.2399 0.0645,-0.6008 -0.70745,-1.45521 -0.56455,-0.62488 -0.941012,-1.27444 -0.836642,-1.44332 0.11579,-0.18735 0.637787,0.20929 1.338937,1.01751 0.952439,1.09787 1.205289,1.25725 1.47588,0.93121 0.262648,-0.31647 0.0375,-0.71658 -1.151868,-2.04639 z m 85.190664,3.77445 -0.6103,0.57361 c -0.33574,0.31541 -0.56405,0.71647 -0.50695,0.89142 0.0571,0.17495 0.37005,1.23681 0.69505,2.36006 0.57867,1.99999 0.60189,2.03243 1.13636,1.54874 0.30018,-0.27165 0.51078,-0.71072 0.46768,-0.97565 -0.10644,-0.65419 1.12914,-1.91978 1.8743,-1.91978 0.3321,0 0.81521,-0.23357 1.07384,-0.51935 0.45246,-0.49996 0.38325,-0.54724 -1.82987,-1.23971 z m -81.704055,0.17363 -1.434021,1.44022 -1.433504,1.43971 1.71049,1.65985 c 0.940959,0.91274 1.958984,1.65933 2.262394,1.65933 0.774899,0 2.561277,-2.03611 2.383317,-2.71663 -0.0769,-0.29413 -0.89345,-1.19804 -1.814359,-2.00867 z m 82.500385,1.48002 c 0.2089,-0.0272 0.44735,0.0454 0.56586,0.23719 0.18931,0.3063 -0.51947,0.92955 -0.77102,0.67799 -0.10063,-0.10067 -0.18345,-0.34998 -0.18345,-0.55397 0,-0.20719 0.17972,-0.334 0.38861,-0.36121 z m -82.276109,0.1788 c 0.17782,0.053 0.414848,0.27065 0.851628,0.69401 1.033119,1.00134 1.124878,1.38091 0.487308,2.01848 -0.572209,0.57222 -0.650535,0.55472 -1.749764,-0.3855 -0.953759,-0.81583 -0.962438,-1.01609 -0.0863,-2.03554 0.20046,-0.23325 0.319307,-0.34449 0.497128,-0.29145 z m 76.510049,2.91713 c -0.0999,-0.0261 -0.1941,-0.0227 -0.28732,0.007 -0.12429,0.0402 -0.24713,0.12879 -0.37879,0.26045 -0.23239,0.23238 0.0229,0.73472 0.98754,1.94459 0.71547,0.89733 1.3494,1.63301 1.4087,1.63401 0.38869,0.008 3.06255,-2.43773 3.01325,-2.75642 -0.10975,-0.70937 -0.687,-0.62349 -1.68258,0.25063 l -0.97875,0.85938 -0.90227,-1.12293 c -0.52883,-0.65805 -0.87998,-0.99869 -1.17978,-1.07694 z m -69.990549,1.34514 c -0.149631,0 -0.778678,0.74601 -1.397848,1.65778 -1.10491,1.62705 -1.115295,1.66333 -0.540536,1.97094 0.487479,0.26088 0.653443,0.21727 0.988053,-0.26045 0.40042,-0.57168 0.406162,-0.57075 1.537891,0.24908 0.624879,0.45265 1.245881,0.75553 1.37976,0.67283 0.297111,-0.18362 0.324733,-0.94924 0.03462,-0.95964 -0.4386,-0.0157 -2.08782,-1.5849 -1.83193,-1.74304 0.14803,-0.0915 0.816018,0.19537 1.484146,0.63768 1.211619,0.80212 1.66915,0.84675 1.66915,0.16227 0,-0.36397 -2.816653,-2.38745 -3.323312,-2.38745 z m 68.472819,0 c -0.13525,0 -1.08025,0.537 -2.10013,1.19321 l -1.85467,1.19269 1.18339,1.72703 c 0.65062,0.94968 1.26154,1.72702 1.35754,1.72754 0.37182,0.002 0.80043,-0.78373 0.64647,-1.18494 -0.1091,-0.28432 0.22951,-0.6847 1.03818,-1.2268 0.66015,-0.44253 1.23709,-1.05778 1.28209,-1.36736 0.0797,-0.54791 -1.06046,-2.06137 -1.55287,-2.06137 z m -0.37724,1.53789 c 0.16626,-0.0209 0.26781,0.0438 0.35863,0.18758 0.14263,0.22576 0.0477,0.49824 -0.25373,0.72864 -0.81956,0.62643 -1.37482,0.87154 -1.55804,0.68833 -0.37275,-0.37275 -0.13791,-0.79759 0.7059,-1.27796 0.34987,-0.19917 0.58098,-0.30568 0.74724,-0.32659 z m -64.117012,0.97307 -1.026294,1.84743 c -0.564669,1.01593 -0.994147,1.87116 -0.953947,1.90066 0.0401,0.0295 0.886593,0.50869 1.881022,1.06505 0.994449,0.55637 1.925695,0.97444 2.069125,0.92914 0.698199,-0.22056 0.340299,-0.79482 -0.93276,-1.49707 -1.358108,-0.74916 -1.763829,-1.19269 -1.090889,-1.19269 0.1778,0 0.853447,0.31049 1.501717,0.6904 1.039259,0.60905 1.199302,0.6371 1.352372,0.23823 0.20642,-0.53794 0.301786,-0.44124 -1.160653,-1.17874 -0.650209,-0.32789 -1.182356,-0.7188 -1.182356,-0.86868 0,-0.38885 0.135446,-0.3538 1.684135,0.43098 1.202628,0.60943 1.409624,0.64483 1.554943,0.26613 0.20172,-0.52569 0.361355,-0.38743 -1.868103,-1.62005 z m 57.865192,1.58181 c -0.17054,-0.17054 -3.99975,1.63526 -3.99975,1.88619 0,0.0717 0.40219,0.94621 0.894,1.94355 0.49181,0.99734 0.93797,1.81333 0.99167,1.81333 0.0537,0 0.34137,-0.13049 0.63924,-0.28991 0.4274,-0.22874 0.48224,-0.4011 0.25993,-0.81648 -0.40691,-0.76035 -0.4004,-0.76978 0.96015,-1.46141 0.95749,-0.48672 1.1836,-0.72499 0.98805,-1.04128 -0.21812,-0.35281 -0.42919,-0.32512 -1.50895,0.19947 -0.8038,0.39054 -1.31911,0.50671 -1.43299,0.32246 -0.21804,-0.35279 -0.24688,-0.32769 1.1989,-1.05679 1.08965,-0.5495 1.43954,-1.06933 1.00975,-1.49913 z m -53.263405,0.92501 -0.820622,1.82831 c -0.45125,1.00576 -0.820622,1.87927 -0.820622,1.94097 0,0.0617 0.782723,0.48068 1.738912,0.93069 2.483307,1.1687 3.239567,1.05188 4.073136,-0.62942 0.65323,-1.31755 0.655789,-1.3534 0.13901,-1.86293 -0.28975,-0.28568 -1.378058,-0.89938 -2.418457,-1.36374 z m 0.907438,1.6583 c 0.14053,0 0.746862,0.25054 1.347721,0.55707 1.100449,0.5614 1.19835,0.94527 0.47749,1.87689 -0.14797,0.19124 -0.3479,0.33969 -0.4439,0.32969 -0.15508,-0.0158 -1.955725,-0.82944 -2.228805,-1.00717 -0.197029,-0.12825 0.588605,-1.75648 0.847494,-1.75648 z m 46.889117,0.009 c -1.12467,0.0112 -3.93009,1.37224 -4.03799,1.95905 -0.0443,0.24093 0.17038,1.02313 0.47697,1.7384 0.6417,1.49701 1.18605,1.63289 3.34967,0.83612 1.87689,-0.69118 2.31481,-1.15785 2.13372,-2.27376 -0.24523,-1.51115 -0.89079,-2.27011 -1.92237,-2.25981 z m -41.934898,0.95705 c -0.13409,-0.005 -0.227166,0.0109 -0.264066,0.0517 -0.11647,0.12887 -0.467682,1.00976 -0.780831,1.95751 l -0.569475,1.72289 1.993163,0.68884 c 2.44249,0.84406 2.31375,0.82976 2.52646,0.27544 0.2151,-0.56052 0.3193,-0.48347 -1.43712,-1.0573 -0.8032,-0.2624 -1.460379,-0.59259 -1.460379,-0.73329 0,-0.35162 0.29615,-0.32267 1.669149,0.16175 1.4289,0.50417 1.29841,0.50242 1.48466,0.017 0.10927,-0.28474 -0.24301,-0.53157 -1.22214,-0.85679 -0.75652,-0.25127 -1.37511,-0.57192 -1.37511,-0.71262 0,-0.35137 0.29584,-0.32285 1.66346,0.15968 1.21367,0.42821 1.67432,0.36245 1.67432,-0.23823 0,-0.37162 -2.96347,-1.4032 -3.902091,-1.4366 z m 41.840338,0.30902 v 5.2e-4 c 0.30334,0.0717 0.4387,0.37229 0.59014,0.98598 0.16558,0.67094 0.0764,0.76647 -1.07745,1.15962 -1.05969,0.36111 -1.30753,0.369 -1.57303,0.0491 -0.6105,-0.7356 -0.19868,-1.5868 0.96169,-1.98696 0.30007,-0.10348 0.53874,-0.17449 0.73226,-0.20619 0.14514,-0.0238 0.26527,-0.0256 0.36639,-0.002 z m -7.85534,1.22835 c -0.75731,0 -0.83402,0.19944 -0.555,1.44125 0.14067,0.62461 0.20496,1.18617 0.14366,1.24747 -0.0613,0.0613 -0.64086,-0.33077 -1.28778,-0.87126 -1.15268,-0.96304 -2.24404,-1.2342 -3.01067,-0.74776 -0.19645,0.12463 -0.29749,0.40442 -0.22479,0.62167 0.0726,0.21726 0.27434,1.11994 0.44855,2.00608 0.28871,1.46852 0.37059,1.5947 0.92087,1.42575 0.33204,-0.10194 0.62773,-0.20449 0.65733,-0.22789 0.0297,-0.0234 -0.0684,-0.58742 -0.21808,-1.25367 -0.14974,-0.66626 -0.23245,-1.2517 -0.18345,-1.3007 0.049,-0.049 0.67564,0.41229 1.39217,1.02475 1.15483,0.98708 1.4139,1.09249 2.28461,0.92914 0.54024,-0.10135 0.97965,-0.26404 0.97565,-0.36174 -0.006,-0.16017 -0.31832,-1.64387 -0.69608,-3.30729 -0.0833,-0.36685 -0.35119,-0.6258 -0.64699,-0.6258 z m -29.164107,0.0109 c -0.12648,0.0116 -0.20511,0.0411 -0.22014,0.092 -0.26881,0.91028 -0.69866,2.98211 -0.69866,3.36723 0,0.66192 0.8063,0.84769 1.22059,0.28112 0.48884,-0.66853 2.395717,-0.3601 2.395717,0.38757 0,0.27355 0.0875,0.58519 0.19482,0.69247 0.45948,0.45949 1.05607,-0.005 1.03457,-0.80512 -0.0122,-0.45478 0.0718,-0.89093 0.18655,-0.96893 0.34836,-0.23678 0.55198,-1.50374 0.30282,-1.88464 -0.29317,-0.44815 -3.530877,-1.2428 -4.416267,-1.16169 z m 1.23714,1.20923 c 0.26774,0.0795 0.83087,0.22676 1.2516,0.32711 0.420727,0.10034 0.764807,0.35658 0.764807,0.56948 0,0.38161 -0.580357,0.4405 -1.877397,0.19068 -0.39998,-0.077 -0.6258,-0.32129 -0.6258,-0.67644 0,-0.39891 0.13736,-0.51464 0.48679,-0.41083 z m 6.343277,0.10335 c -0.42728,0.0441 -0.72905,0.43435 -1.64073,1.75907 -0.71225,1.03492 -1.29501,1.95395 -1.29501,2.04225 0,0.2956 1.35548,0.1645 1.54977,-0.14986 0.28429,-0.46 2.65221,-0.12344 2.95641,0.42013 0.25771,0.4605 1.33532,0.63064 1.33532,0.21084 0,-0.12974 -0.35286,-1.0964 -0.78393,-2.14819 -0.67944,-1.65787 -0.89578,-1.93533 -1.62574,-2.08463 -0.19759,-0.0404 -0.35366,-0.0643 -0.49609,-0.0496 z m 14.75827,0.13384 c -1.3173,-0.0663 -3.53225,0.16435 -3.94446,0.50643 -0.54961,0.45615 -0.43102,2.75048 0.18035,3.48713 0.32059,0.38628 0.72164,0.4332 2.44739,0.28732 1.13504,-0.0959 2.24586,-0.32632 2.4691,-0.5116 0.52058,-0.43203 0.33963,-3.20646 -0.23461,-3.59719 -0.13959,-0.095 -0.47867,-0.15 -0.91777,-0.17209 z m -5.59398,0.21188 c -0.68381,0 -0.69556,0.037 -0.69556,2.22519 0,1.22392 0.11533,2.2257 0.2558,2.2257 0.96554,0 1.13533,-0.3582 1.13533,-2.39417 0,-2.00809 -0.0165,-2.05672 -0.69557,-2.05672 z m -3.68298,0.0589 c -2.05535,0.068 -2.44467,0.15519 -2.52336,0.56689 -0.075,0.39199 0.10539,0.48679 0.92656,0.48679 h 1.01958 l -0.0951,1.53014 c -0.089,1.42985 -0.0546,1.53049 0.5302,1.53014 0.51981,-3.2e-4 0.62642,-0.1535 0.62942,-0.90434 0.007,-1.66575 0.26668,-2.15594 1.14154,-2.15594 0.62172,0 0.80201,-0.12726 0.80201,-0.56689 0,-0.53353 -0.14404,-0.56236 -2.43034,-0.48679 z m 8.21656,0.78341 c 0.76915,-0.019 1.04319,0.27285 1.11414,0.99994 0.0755,0.77336 -0.008,0.88251 -0.79943,1.04077 -1.79544,0.35909 -2.20555,0.13148 -2.20555,-1.22422 0,-0.37226 0.26987,-0.57136 0.94568,-0.69815 0.37714,-0.0707 0.68878,-0.11199 0.94516,-0.11834 z m -13.30462,0.15607 c 0.11259,0.061 0.21675,0.29629 0.37466,0.74 0.13486,0.37894 0.0209,0.4868 -0.51367,0.4868 -0.77591,0 -0.83699,-0.19537 -0.28732,-0.92036 0.19246,-0.25386 0.31374,-0.36745 0.42633,-0.30644 z m -17.81389,3.13055 c 1.466616,0.60194 2.962479,1.15505 4.484998,1.65727 1.088795,0.35915 2.227715,0.6947 3.409095,1.00459 -1.18138,-0.30989 -2.32081,-0.64493 -3.409612,-1.00408 -1.522488,-0.5022 -3.017911,-1.05579 -4.484481,-1.65778 z m 11.555883,3.51349 c 2.514057,0.51432 5.162957,0.91937 7.878067,1.20199 h 5.2e-4 c 0.55639,0.0579 1.60172,0.0818 2.89749,0.0786 -1.29577,0.003 -2.34162,-0.0201 -2.89801,-0.078 h -5.2e-4 c -2.7151,-0.28262 -5.36349,-0.68819 -7.877547,-1.20251 z m 25.407227,0.27801 c -0.88723,0.16741 -1.78224,0.31867 -2.68459,0.45372 -0.64074,0.0959 -1.74973,0.18748 -3.08767,0.26769 1.33794,-0.0802 2.44745,-0.17231 3.08819,-0.2682 0.90234,-0.13504 1.79684,-0.2858 2.68407,-0.45321 z" />
  </g>
</svg>
