<?xml version="1.0" encoding="UTF-8" standalone="no"?>
<!-- Created with Inkscape (http://www.inkscape.org/) -->

<svg
   width="136.00043mm"
   height="136.00026mm"
   viewBox="0 0 136.00042 136.00026"
   version="1.1"
   id="svg1"
   xmlns="http://www.w3.org/2000/svg"
   xmlns:svg="http://www.w3.org/2000/svg">
  <defs
     id="defs1" />
  <g
     id="layer1"
     transform="translate(-29.716433,-75.79143)">
    <g
       id="g350"
       transform="translate(-265.04048,-217.43402)">
      <path
         id="path350"
         style="fill:#37a6d1;fill-opacity:1"
         d="m 362.70344,300.41474 c -0.36532,-0.0576 -0.90426,-0.0351 -1.85415,0.03 -1.15597,0.0792 -2.12355,0.18418 -2.15025,0.23358 -0.0267,0.0494 -0.009,1.07218 0.0403,2.27273 0.0862,2.10911 0.11105,2.18281 0.73071,2.18281 0.46492,0 0.6413,-0.14555 0.6413,-0.52917 0,-0.46507 0.17639,-0.52916 1.45521,-0.52916 1.10243,0 1.58349,-0.12828 1.98438,-0.52917 0.69664,-0.69665 0.67963,-1.96569 -0.0357,-2.68097 -0.25515,-0.25515 -0.44652,-0.39301 -0.81184,-0.45062 z m 2.68976,0.10335 c -0.40347,0.1101 -0.51146,0.69444 -0.51521,2.14664 -0.002,0.8976 -0.0734,1.81279 -0.15813,2.03347 -0.11758,0.30641 0.0857,0.42623 0.85989,0.50643 0.55763,0.0578 1.57944,0.12484 2.27067,0.14934 1.17606,0.0416 1.25677,0.002 1.25677,-0.61702 0,-0.62655 -0.0781,-0.66145 -1.4764,-0.66145 h -1.4764 l 0.18036,-1.68207 c 0.17193,-1.60549 0.15223,-1.68883 -0.43254,-1.84175 -0.20717,-0.0542 -0.37452,-0.0703 -0.50901,-0.0336 z m -9.12812,0.26562 c -0.38756,-0.0116 -0.93548,0.0547 -1.84124,0.19275 -1.15835,0.1765 -2.09082,0.41132 -2.07222,0.52193 0.0185,0.11061 0.11883,1.06311 0.22272,2.11667 0.1039,1.05356 0.24165,2.00494 0.30645,2.11408 0.32943,0.55454 1.5603,-0.0858 1.32808,-0.69091 -0.12126,-0.31601 0.0727,-0.45035 0.82114,-0.56793 2.49411,-0.39181 2.5609,-0.43652 2.6479,-1.77715 0.0679,-1.04617 -0.0129,-1.29425 -0.53382,-1.63556 -0.26402,-0.17297 -0.49145,-0.2623 -0.87901,-0.27388 z m 14.43116,0.18655 c -0.28064,0.0491 -0.48133,0.68161 -0.6935,2.18281 -0.16431,1.16236 -0.24719,2.20235 -0.18449,2.31149 0.0627,0.10914 0.38739,0.19844 0.72192,0.19844 0.56449,0 0.6271,-0.15698 0.86765,-2.18282 0.26673,-2.24626 0.14912,-2.66044 -0.71158,-2.50992 z m 2.18539,0.40308 -0.43201,1.91254 c -0.23758,1.05201 -0.43202,2.06867 -0.43202,2.25878 0,0.20912 0.601,0.46588 1.52136,0.65009 0.83674,0.16748 1.87854,0.39379 2.3151,0.50281 0.74839,0.1869 1.08822,-0.047 1.17202,-0.80615 0.0102,-0.0927 -0.7553,-0.31453 -1.70119,-0.493 -1.21013,-0.22834 -1.71979,-0.44253 -1.71979,-0.72243 0,-0.28554 0.168,-0.35068 0.59532,-0.231 0.32741,0.0917 1.11332,0.24278 1.74666,0.33538 1.03011,0.15063 1.14145,0.11587 1.05575,-0.32918 -0.0712,-0.36963 -0.46377,-0.5673 -1.52704,-0.76894 -0.78895,-0.14963 -1.48601,-0.43721 -1.55391,-0.64079 -0.0964,-0.28929 0.0707,-0.33025 0.77204,-0.18965 2.65066,0.53141 2.87993,0.52794 2.87993,-0.0434 0,-0.55087 -0.71592,-0.79898 -3.66282,-1.27021 z m -11.57965,0.32091 c 1.01423,0 1.19062,0.0784 1.19062,0.52916 0,0.45076 -0.17639,0.52917 -1.19062,0.52917 -1.01424,0 -1.19063,-0.0784 -1.19063,-0.52917 0,-0.45077 0.17639,-0.52916 1.19063,-0.52916 z m -5.34955,0.34003 c 0.19211,0.0366 0.2876,0.1352 0.3545,0.30954 0.091,0.23729 0.10092,0.49594 0.0222,0.57464 -0.0787,0.0787 -0.61109,0.20587 -1.18339,0.28267 -0.82972,0.11129 -1.07647,0.0457 -1.21853,-0.32453 -0.22258,-0.58006 -0.25669,-0.55569 1.09038,-0.77824 0.45415,-0.075 0.74272,-0.1007 0.93482,-0.0641 z m -7.46931,0.14107 c -1.00128,0.12479 -1.15264,0.37998 -1.75958,2.97037 -0.30537,1.30333 -0.48398,2.36774 -0.39688,2.36574 0.63899,-0.0146 1.31993,-0.38523 1.42162,-0.77411 0.15281,-0.58434 2.50741,-1.24585 2.93006,-0.82321 0.33188,0.33185 1.40739,0.37001 1.60093,0.0568 0.0752,-0.12168 -0.59642,-1.04441 -1.49241,-2.05052 -1.32376,-1.48642 -1.75537,-1.81342 -2.30374,-1.74512 z m 30.47153,0.67386 c -0.26204,0.16196 -1.52188,4.08646 -1.36064,4.23851 0.0617,0.0582 1.06463,0.41324 2.2288,0.78858 1.16417,0.37533 2.35479,0.65603 2.64583,0.62373 1.02865,-0.11407 2.08927,-3.22307 1.35134,-3.961 -0.48274,-0.48274 -4.53895,-1.89153 -4.86533,-1.68982 z m -30.4245,0.4377 0.52916,0.67283 c 0.29104,0.37001 0.48554,0.71161 0.43254,0.75861 -0.053,0.047 -0.36402,0.16756 -0.69143,0.2682 -0.63607,0.19552 -0.72036,-0.0215 -0.42944,-1.10691 z m 31.57275,1.10433 c 0.099,-0.007 0.21767,0.009 0.36638,0.0393 2.04192,0.41017 2.54154,1.03075 1.85777,2.30839 -0.15064,0.28147 -0.359,0.50243 -0.46302,0.49093 -0.19222,-0.0212 -2.52241,-0.80944 -2.62775,-0.88884 -0.0317,-0.0239 0.0805,-0.49406 0.2496,-1.0449 0.20279,-0.66074 0.3201,-0.88466 0.61702,-0.90485 z m -38.7842,0.16898 c -1.08571,0.0339 -4.5372,1.59817 -4.42867,2.13165 0.0895,0.44005 0.78055,0.51353 1.59319,0.16899 0.46096,-0.19544 0.6625,0.12328 1.54357,2.43809 0.1985,0.52152 0.30488,0.55676 0.88263,0.29352 0.64352,-0.29321 0.64872,-0.31907 0.24908,-1.2547 -0.53708,-1.25739 -0.8909,-2.15867 -0.8909,-2.26911 0,-0.0491 0.35719,-0.21369 0.79375,-0.36587 0.83343,-0.29054 0.93018,-0.47279 0.56069,-1.05575 -0.0413,-0.0651 -0.14824,-0.0917 -0.30334,-0.0868 z m 47.81362,2.20917 c -0.48658,-0.0462 -0.81065,0.13771 -1.09244,0.54002 -0.83452,1.19144 -0.6853,1.39509 2.40502,3.28352 0.2697,0.16484 0.39862,0.39587 0.28629,0.51315 -0.28929,0.302 -2.574,-0.86076 -2.574,-1.31 0,-0.34117 -0.5327,-0.6935 -1.04904,-0.6935 -0.11665,0 -0.27663,0.24707 -0.35553,0.5488 -0.17157,0.6561 0.32806,1.13138 2.26498,2.15594 1.82817,0.96705 2.41032,0.9468 2.91817,-0.1018 0.22281,-0.46013 0.34458,-0.99404 0.27078,-1.18649 -0.0738,-0.19244 -0.77702,-0.71734 -1.56269,-1.16685 -0.78566,-0.44952 -1.42834,-0.92762 -1.42834,-1.06247 0,-0.64326 1.39875,0.007 2.46497,1.14618 0.81359,0.86924 1.35121,0.71435 1.19527,-0.34416 -0.0618,-0.41919 -0.56872,-0.86782 -1.67587,-1.4826 -0.93185,-0.51744 -1.58099,-0.79358 -2.06757,-0.83974 z m -53.00968,0.12867 c -0.13584,-0.13584 -3.77517,1.64547 -4.29483,2.1022 -0.10988,0.0966 1.44417,3.16197 1.89652,3.74086 0.19905,0.25472 0.73935,0.0717 2.3425,-0.79375 1.14603,-0.61866 2.08197,-1.18449 2.07997,-1.25729 -0.002,-0.0728 -0.1121,-0.30278 -0.24391,-0.51108 -0.19881,-0.31415 -0.51375,-0.2326 -1.84795,0.47852 -1.22229,0.65147 -1.60817,0.76231 -1.60817,0.46147 0,-0.21774 0.59531,-0.71968 1.32292,-1.11569 0.7276,-0.39601 1.32291,-0.82389 1.32291,-0.95085 0,-0.55776 -0.8815,-0.47804 -2.00763,0.1819 -0.79773,0.46754 -1.3098,0.62548 -1.47949,0.45579 -0.16969,-0.16969 0.25169,-0.55205 1.21698,-1.10432 1.37231,-0.78517 1.73362,-1.25433 1.30018,-1.68776 z m 26.77252,2.18023 c -2.74499,-5.4e-4 -5.49344,0.14065 -7.41867,0.42375 -30.05561,4.41963 -49.91833,33.19548 -43.35136,62.80495 4.98957,22.49719 24.69235,39.30627 47.45706,40.48693 8.24457,0.4276 15.6553,-0.74205 22.56813,-3.56205 14.42426,-5.88421 25.17895,-17.33351 30.05759,-31.99908 3.49422,-10.50387 3.49422,-22.03988 0,-32.54375 -6.25382,-18.79949 -22.30405,-32.27199 -41.91475,-35.1839 -1.91153,-0.28392 -4.653,-0.4263 -7.398,-0.42685 z m -32.23472,0.89969 c -0.32986,-0.14268 -0.80085,0.15337 -2.28669,1.19682 l -1.82004,1.27796 1.32137,1.89963 c 0.83676,1.20296 1.43501,1.8299 1.63142,1.70894 1.18234,-0.72817 3.61622,-2.53329 3.61322,-2.67942 -0.002,-0.0979 -0.11041,-0.34621 -0.2403,-0.55139 -0.19078,-0.30137 -0.49499,-0.18698 -1.58388,0.59531 -0.74134,0.5326 -1.46661,0.96842 -1.61179,0.96842 -0.58396,0 -0.20061,-0.5474 0.92656,-1.32292 1.11148,-0.76473 1.42153,-1.26823 1.02474,-1.66501 -0.0913,-0.0913 -0.65681,0.16599 -1.25677,0.57205 -1.59519,1.07964 -1.70034,1.12664 -1.87637,0.84181 -0.0883,-0.1428 0.49908,-0.69715 1.30535,-1.23248 1.16211,-0.77167 1.40453,-1.04771 1.1684,-1.33222 -0.1109,-0.13363 -0.20527,-0.22994 -0.31522,-0.2775 z m 63.9594,0.19844 c -0.50677,0.0727 -0.93824,0.45169 -1.42317,1.15651 -0.44355,0.64468 -0.80615,1.39672 -0.80615,1.6707 0,0.55632 0.9258,1.49521 2.50889,2.54455 0.57949,0.38411 1.15251,0.69815 1.27382,0.69815 0.48006,0 1.24437,-0.56871 1.24437,-0.92604 0,-0.43781 -0.78132,-0.90676 -1.23713,-0.74259 -0.44973,0.16198 -2.19615,-1.03765 -2.19315,-1.50637 10e-4,-0.21828 0.22654,-0.68828 0.50023,-1.04438 l 0.49764,-0.64751 1.08366,0.71779 c 0.59621,0.39454 1.08417,0.88961 1.08417,1.10071 0,0.55921 0.90144,0.98268 1.28209,0.60203 0.7298,-0.72979 0.21508,-1.51059 -1.9389,-2.93987 -0.7873,-0.52243 -1.3696,-0.75634 -1.87637,-0.68368 z m -31.79134,0.86351 c 7.39541,0.003 14.80713,1.69396 21.75681,5.07101 5.76548,2.80161 9.54162,5.5785 14.32212,10.53217 3.57917,3.70883 5.90577,6.9633 8.2672,11.56364 2.03078,3.95617 3.18303,7.00164 4.15375,10.9802 2.29543,9.40799 1.78298,19.28701 -1.4826,28.575 -1.15876,3.29581 -4.15559,9.03377 -6.28333,12.03079 -1.97408,2.78058 -6.58356,7.69353 -9.28522,9.89656 -7.55729,6.16245 -17.183,10.06271 -27.15442,11.00294 -8.69804,0.82018 -17.61002,-0.8263 -25.75863,-4.75888 -14.43643,-6.96713 -24.3959,-19.8616 -27.604,-35.73839 -0.53336,-2.63966 -0.60979,-3.79261 -0.60979,-9.23406 0,-5.44144 0.0764,-6.59439 0.60979,-9.23406 3.19778,-15.82571 13.01424,-28.58894 27.40814,-35.63555 6.88537,-3.37078 14.26476,-5.05473 21.66018,-5.05137 z m 37.46903,2.75642 c -0.29154,-0.089 -0.60022,0.26223 -1.6614,1.54874 -1.15951,1.40571 -1.40867,1.86294 -1.1715,2.14871 0.49384,0.59503 0.99571,0.29447 2.35644,-1.40922 1.25569,-1.57218 1.27763,-1.62903 0.78962,-2.07067 -0.12054,-0.10909 -0.21598,-0.18791 -0.31316,-0.21756 z m -76.74829,1.30328 c -0.19629,-0.0914 -0.31764,0.0275 -0.54053,0.27388 -0.43947,0.48589 -0.3988,0.57668 1.01286,2.27739 l 1.47019,1.77146 1.63298,-1.38544 c 0.89828,-0.76198 1.68566,-1.41983 1.74976,-1.46193 0.0641,-0.0421 -0.0813,-0.27455 -0.32349,-0.51676 -0.4108,-0.4108 -0.51119,-0.38381 -1.49035,0.40307 -0.57734,0.46396 -1.13922,0.84336 -1.24902,0.84336 -0.1098,0 -0.68232,-0.54825 -1.27228,-1.21853 -0.52231,-0.59343 -0.79382,-0.8951 -0.99012,-0.9865 z m 78.52234,0.005 -1.52342,1.69498 -1.52342,1.69551 1.63608,1.65364 c 0.89992,0.9095 1.70535,1.65365 1.78955,1.65365 0.0842,0 0.29656,-0.14361 0.47232,-0.31936 0.24968,-0.24969 0.052,-0.59125 -0.90433,-1.56218 -0.74091,-0.75222 -1.14712,-1.36706 -1.0294,-1.55753 0.13194,-0.2135 0.56315,0.0474 1.34152,0.81132 0.94223,0.92473 1.2168,1.06843 1.53531,0.80409 0.32918,-0.2732 0.20964,-0.48619 -0.79117,-1.4087 -0.81764,-0.75369 -1.09449,-1.17101 -0.9033,-1.36219 0.19118,-0.19119 0.64055,0.0823 1.46606,0.89245 1.07462,1.05466 1.23005,1.12847 1.5999,0.75861 0.36986,-0.36985 0.23565,-0.57236 -1.37821,-2.08204 z m -80.30104,1.6278 c -0.26521,-0.051 -0.67186,0.30352 -1.78852,1.41025 l -1.67535,1.66089 1.64641,1.66088 c 1.63671,1.65138 1.64937,1.65844 2.16628,1.14153 0.50787,-0.5079 0.50834,-0.53298 0.0264,-1.06557 -0.48606,-0.53709 -0.47809,-0.561 0.53485,-1.59835 0.96851,-0.99185 1.00258,-1.07946 0.57826,-1.50379 -0.42433,-0.42432 -0.51103,-0.39153 -1.48673,0.56121 -1.49287,1.45776 -1.99748,0.96628 -0.5364,-0.52245 0.97242,-0.99083 1.07796,-1.20538 0.77411,-1.57148 -0.0781,-0.0942 -0.15085,-0.15613 -0.23926,-0.17312 z m 41.55509,0.57568 c -0.0945,0.002 -0.90592,0.99189 -1.80351,2.20038 -5.63576,7.58794 -10.68001,17.8529 -14.64872,29.81059 l -2.06344,6.2177 -1.54357,0.89297 c -7.20068,4.16646 -11.53206,7.12288 -13.98778,9.54671 -2.96728,2.92876 -3.17632,4.77541 -0.67179,5.934 1.08903,0.5036 1.6327,0.55517 5.44307,0.51367 2.32833,-0.0254 4.86867,-0.1583 5.64514,-0.29508 l 1.4118,-0.24856 -0.15348,0.82372 c -0.96388,5.17715 -2.10185,14.55978 -2.68304,22.1232 -0.10807,1.40581 -0.0793,2.14976 0.076,1.98437 0.13666,-0.14552 1.17898,-1.57427 2.31666,-3.175 11.58275,-16.29699 24.3036,-26.8552 32.35616,-26.8552 1.20151,0 1.44774,0.11275 2.69544,1.23455 3.19317,2.87093 7.38156,10.82023 11.51558,21.85706 0.69639,1.85919 1.30174,3.34501 1.34514,3.30161 0.0434,-0.0434 -0.0976,-2.10071 -0.31316,-4.5713 -0.71823,-8.23191 -2.21959,-17.38793 -4.22507,-25.76587 -0.50183,-2.09642 -0.88126,-3.83858 -0.84336,-3.87108 0.0379,-0.0325 0.72358,-0.38571 1.52394,-0.78497 0.80037,-0.39926 2.27022,-1.19946 3.26647,-1.77818 l 1.81126,-1.05213 1.09916,1.11259 c 0.60447,0.61184 1.69447,1.42284 2.42207,1.80196 1.12247,0.58486 1.66368,0.68884 3.57188,0.68884 1.92006,0 2.44757,-0.10296 3.60598,-0.70486 1.63108,-0.8475 2.76234,-1.93586 3.73775,-3.59513 0.66054,-1.1237 0.72606,-1.47212 0.72606,-3.88039 0,-2.40825 -0.0655,-2.75668 -0.72606,-3.88038 -0.97541,-1.65927 -2.10667,-2.74763 -3.73775,-3.59513 -1.15841,-0.6019 -1.68592,-0.70538 -3.60598,-0.70538 -1.90981,0 -2.44846,0.10452 -3.57188,0.69091 -1.67348,0.8735 -3.1306,2.33004 -3.89278,3.89175 -0.70901,1.45275 -0.95288,4.52499 -0.47439,5.97483 0.17527,0.53121 0.25936,1.02531 0.18706,1.09761 -0.33723,0.33723 -6.42329,2.67037 -6.57014,2.51871 -0.0917,-0.0947 -0.55044,-1.48177 -1.01957,-3.0825 -2.42722,-8.28197 -6.60387,-18.24288 -10.53993,-25.13542 -2.45242,-4.29449 -7.20587,-11.25117 -7.68118,-11.24117 z m -0.0103,1.3193 c 0.29344,0 2.94674,3.70811 5.06481,7.07864 4.75418,7.56543 10.08544,19.86323 12.84159,29.62196 0.53694,1.90096 0.5368,1.90802 0.0129,2.07429 -0.28917,0.0918 -0.55885,0.1267 -0.59945,0.077 -0.0405,-0.0497 -0.75651,-2.23356 -1.59111,-4.85293 -2.97808,-9.34663 -6.76944,-17.99371 -10.90786,-24.87755 -2.29773,-3.82202 -4.49398,-7.00474 -4.8333,-7.00474 -0.33315,0 -4.22727,6.07661 -6.07095,9.47332 -4.88075,8.99204 -8.91862,19.85968 -11.88609,31.9903 -1.42812,5.83797 -1.53851,6.15731 -2.12287,6.15931 -0.72379,0.002 -0.77687,0.41914 0.77721,-6.08335 3.27827,-13.71683 8.34198,-26.63883 14.32626,-36.55901 1.91539,-3.17516 4.67228,-7.09724 4.98884,-7.09724 z m 43.2015,0.77515 -1.57303,1.37149 c -1.74385,1.51997 -1.92266,1.84161 -1.30793,2.35179 0.36033,0.29904 0.56776,0.20394 1.46141,-0.66869 0.57293,-0.55945 1.10612,-0.95318 1.18442,-0.87488 0.0783,0.0783 -0.0427,0.93989 -0.26872,1.91461 -0.4051,1.74676 -0.40228,1.78324 0.19327,2.53783 0.33233,0.42107 0.68946,0.77231 0.79375,0.78031 0.15148,0.0117 1.72182,-1.27933 3.21428,-2.64221 0.12618,-0.11522 0.0473,-0.4687 -0.1757,-0.78703 l -0.40463,-0.57775 -1.21336,1.11828 c -1.33836,1.23365 -1.38612,1.15589 -0.80357,-1.31568 l 0.40204,-1.70584 -0.75086,-0.75086 z m -89.05451,1.47381 -1.44436,1.5875 c -2.19803,2.41592 -2.1912,2.24434 -0.15245,3.92844 l 1.78026,1.47071 0.447,-0.58136 c 0.38142,-0.49634 0.39113,-0.6124 0.0661,-0.79426 -0.57919,-0.32414 -0.46076,-0.80537 0.40308,-1.63298 0.68063,-0.65208 0.84194,-0.70356 1.21956,-0.39016 0.37393,0.31033 0.48657,0.29021 0.80306,-0.14262 0.52888,-0.72329 0.46298,-0.94208 -0.38034,-1.26039 -0.41176,-0.15542 -0.85825,-0.51433 -0.99219,-0.79789 -0.13394,-0.28355 -0.58261,-0.71175 -0.99684,-0.95136 z m 0.33228,1.90582 c 0.0671,0.0181 0.12632,0.0646 0.18551,0.13591 0.22507,0.27119 0.095,0.591 -0.5581,1.36891 -0.77733,0.92589 -0.88482,0.97602 -1.22008,0.57206 -0.32356,-0.38986 -0.25659,-0.5537 0.55862,-1.36891 0.55996,-0.55996 0.83269,-0.76215 1.03405,-0.70797 z m 57.34895,2.48047 c -0.27686,0.009 -0.56427,0.17112 -0.75396,0.52555 -0.21842,0.40815 -0.2095,0.64492 0.0341,0.93845 0.49042,0.59093 1.41425,0.3501 1.5198,-0.39636 0.0945,-0.66808 -0.33851,-1.08186 -0.79995,-1.06764 z m 35.67844,0.28112 c -0.39659,0.008 -0.81505,0.18338 -1.30018,0.51522 -1.07858,0.73779 -1.52083,1.27605 -1.52083,1.85001 0,0.4964 1.67492,3.09571 2.3306,3.61684 0.50631,0.40236 0.72877,0.41143 1.39423,0.0553 0.4138,-0.22147 0.46043,-0.3776 0.23771,-0.79375 -0.15249,-0.28494 -0.48116,-0.51887 -0.7307,-0.51986 -0.47516,-0.002 -1.64434,-1.49666 -1.64434,-2.1022 0,-0.44298 0.78518,-1.05137 1.37097,-1.06247 0.53123,-0.01 1.53944,1.32051 1.53944,2.03192 0,0.27715 0.15303,0.71319 0.34003,0.96893 0.32155,0.4397 0.3665,0.43614 0.82528,-0.0708 0.62971,-0.69582 0.43941,-1.39212 -0.8382,-3.07114 -0.74343,-0.97701 -1.34303,-1.43092 -2.00401,-1.418 z m -64.51182,1.62626 c -0.19994,-0.0283 -0.41452,-0.0183 -0.63976,0.0382 -1.33414,0.33485 -1.7351,1.92824 -0.73639,2.92695 0.4175,0.41749 1.60907,0.52823 2.10685,0.19586 1.35363,-0.90385 0.66886,-2.96327 -0.7307,-3.16105 z m -34.22065,0.41238 -0.46199,0.78755 c -0.462,0.78708 -0.46184,0.78732 0.76843,2.97501 l 1.23041,2.1885 0.49248,-0.60823 c 0.36253,-0.44771 0.41711,-0.69847 0.20722,-0.95137 -0.37876,-0.45638 0.94536,-2.49855 1.62006,-2.49855 0.26345,0 0.66496,-0.26507 0.89193,-0.58911 0.37842,-0.54035 0.37371,-0.60352 -0.0517,-0.76068 -0.2551,-0.0943 -1.41605,-0.25486 -2.58021,-0.35709 z m 71.88967,0.0677 c -0.32188,-0.0196 -0.66034,0.14749 -0.98237,0.50333 -0.3965,0.43812 -0.42742,0.64497 -0.1788,1.19063 0.22304,0.48952 0.5052,0.66042 1.09089,0.66042 1.08147,0 1.54191,-0.83922 0.95343,-1.73736 -0.2562,-0.39101 -0.56127,-0.59744 -0.88315,-0.61702 z m -70.85511,1.35083 c 0.12939,0.006 0.30025,0.0378 0.51625,0.092 0.57774,0.14501 0.64483,0.25258 0.41909,0.67438 -0.34874,0.65164 -0.68938,0.63539 -1.05626,-0.0501 -0.28004,-0.52322 -0.26725,-0.73464 0.12092,-0.71623 z m 24.99072,1.079 c -0.18134,-0.035 -0.38933,-0.0259 -0.61805,0.0315 -0.7846,0.19692 -1.16059,1.28494 -0.65474,1.89446 0.20456,0.24649 0.65952,0.37531 1.15394,0.32711 0.69746,-0.0681 0.82797,-0.19862 0.89607,-0.89607 0.0736,-0.75438 -0.23318,-1.25215 -0.77722,-1.35702 z m 76.93743,0.7183 c -0.20181,0 -3.47209,1.70878 -3.8344,2.0035 -0.0918,0.0747 1.69829,3.42511 2.13734,4.00027 0.26905,0.35245 0.99581,0.17371 0.99581,-0.24495 0,-0.14862 -0.35561,-0.89158 -0.79014,-1.65106 -0.70522,-1.2326 -0.78566,-1.72651 -0.28112,-1.72651 0.09,0 0.51288,0.64541 0.93948,1.43402 0.63503,1.17397 0.85673,1.39013 1.2237,1.19373 0.40664,-0.21762 0.37621,-0.37317 -0.33021,-1.67742 -0.42826,-0.79071 -0.66963,-1.50531 -0.53589,-1.58801 0.30159,-0.1864 0.60855,0.18844 1.3348,1.62987 0.59047,1.17193 0.72239,1.26241 1.30432,0.89349 0.27418,-0.17381 0.10281,-0.66857 -0.77877,-2.24483 -0.62196,-1.11207 -1.24535,-2.0221 -1.38492,-2.0221 z m -105.32898,0.30954 c -0.0395,0.0482 -0.58417,1.08045 -1.21026,2.29444 -0.92772,1.79888 -1.06926,2.25138 -0.76533,2.44378 0.54956,0.3479 0.61256,0.31705 1.1219,-0.54519 l 0.46612,-0.7891 1.45624,0.82166 c 1.40356,0.79212 1.4696,0.80386 1.83142,0.32608 0.53246,-0.70315 0.5052,-0.76027 -0.59997,-1.26401 -0.54571,-0.24873 -1.2088,-0.61364 -1.47381,-0.8108 -0.44827,-0.3335 -0.45277,-0.41468 -0.0646,-1.16531 0.39633,-0.76642 0.38924,-0.82196 -0.13642,-1.10329 -0.30436,-0.16287 -0.58579,-0.25646 -0.62529,-0.20826 z m -5.96862,0.42892 c -0.35541,0.70669 -0.67952,1.42517 -1.00821,2.14199 0.32753,-0.71846 0.65588,-1.43676 1.00821,-2.14199 z m 76.72968,0.84904 c -0.24593,0 -0.66315,0.23856 -0.92708,0.5302 -0.39649,0.43812 -0.42742,0.64497 -0.1788,1.19063 0.22486,0.49352 0.50422,0.66042 1.10588,0.66042 1.1071,0 1.63977,-1.06354 0.92707,-1.85105 -0.26392,-0.29164 -0.68114,-0.5302 -0.92707,-0.5302 z m -78.16215,2.20607 c -0.39189,0.89056 -0.75352,1.79311 -1.10485,2.69958 0.35105,-0.90816 0.71545,-1.80998 1.10485,-2.69958 z m 42.95706,0.97307 c -1.58954,-0.01 -2.31972,1.65316 -1.21233,2.76055 1.02103,1.02103 2.3272,0.76721 2.82774,-0.54932 0.42729,-1.12385 -0.36152,-2.20323 -1.61541,-2.21123 z m 40.89363,0.52503 c -1.05614,0 -1.61549,1.32181 -0.87333,2.06396 0.43943,0.43941 1.15279,0.39646 1.64796,-0.0987 0.79915,-0.79914 0.33957,-1.96525 -0.77463,-1.96525 z m 31.36139,0.12247 c -0.19939,-0.005 -0.42097,0.0476 -0.67902,0.14573 -0.98319,0.3738 -1.07852,0.97808 -0.4346,2.74609 0.37814,1.03832 0.4881,1.67764 0.31832,1.84743 -0.33852,0.33852 -1.35441,-1.91705 -1.18287,-2.6262 0.20221,-0.83599 -0.23865,-1.28834 -0.90692,-0.93069 -0.75782,0.40557 -0.7155,0.7804 0.34623,3.07836 0.76934,1.66514 1.00835,1.96681 1.55805,1.96681 0.35715,0 0.93028,-0.22885 1.27382,-0.5085 l 0.62477,-0.50849 -0.59531,-1.67432 c -0.66975,-1.88354 -0.70061,-2.07119 -0.34004,-2.07119 0.39692,0 0.85013,1.02532 0.96067,2.17299 0.13257,1.37632 0.29068,1.59338 0.91674,1.25832 0.69969,-0.37445 0.64591,-1.03351 -0.24495,-2.99826 -0.61458,-1.35541 -1.0167,-1.88394 -1.61489,-1.89808 z m -82.90915,0.2744 -0.50281,1.7198 c -0.83958,2.87214 -0.72948,2.75046 -2.95331,3.27473 -1.10928,0.26151 -1.96294,0.56255 -1.89704,0.66921 0.0659,0.10666 1.00813,0.41497 2.09341,0.68523 l 1.97301,0.49144 0.59169,2.20245 c 0.3255,1.21121 0.61766,2.20194 0.64906,2.20194 0.0314,0 0.32356,-0.99073 0.64906,-2.20194 l 0.59169,-2.20245 1.97301,-0.49144 c 1.08527,-0.27026 2.02548,-0.57575 2.08928,-0.67903 0.0638,-0.10327 -0.80569,-0.41425 -1.93219,-0.69091 -2.27452,-0.55863 -2.06819,-0.29886 -3.00498,-3.7884 z m -26.98026,0.45062 c -0.73304,-0.15037 -1.15055,0.35637 -1.92857,2.3394 -0.78431,1.99906 -0.69097,2.42618 0.63976,2.93212 0.83664,0.31808 1.19056,0.004 2.00711,-1.77974 0.3598,-0.78591 0.78022,-1.42885 0.93379,-1.42885 0.61436,0 -0.002,1.7244 -0.92656,2.59054 -0.3556,0.33331 -0.64647,0.7877 -0.64647,1.00975 0,0.28433 0.21516,0.37888 0.72761,0.31988 0.60113,-0.0692 0.87719,-0.38265 1.5875,-1.80351 1.03375,-2.06778 1.02245,-2.89791 -0.0455,-3.40754 -1.03419,-0.49351 -1.44401,-0.20541 -2.33319,1.63918 -0.64567,1.3394 -1.25935,1.94919 -1.25935,1.2516 0,-0.49177 0.63755,-1.73792 1.08934,-2.12907 0.65261,-0.56501 0.73811,-1.41405 0.15451,-1.53376 z m -6.61562,0.82786 c -0.33987,0.89773 -0.65242,1.80657 -0.95291,2.72025 0.301,-0.91404 0.61391,-1.82293 0.95291,-2.72025 z m 62.38947,1.63711 c 2.02674,-0.004 2.6024,0.0985 3.86799,0.69195 2.89036,1.35527 4.65349,3.60838 5.26014,6.72207 0.80937,4.1541 -1.72951,8.67137 -5.71128,10.16113 -1.924,0.71983 -4.75758,0.71279 -6.65644,-0.017 -1.98355,-0.76238 -4.04903,-2.74845 -4.97799,-4.78627 -0.62927,-1.38039 -0.76043,-2.02698 -0.76843,-3.78685 -0.009,-1.87545 0.0914,-2.32761 0.8599,-3.88865 0.96355,-1.95728 2.51028,-3.49712 4.49688,-4.47621 1.02227,-0.50382 1.67848,-0.61612 3.62923,-0.62012 z m 0.11008,0.39171 c -0.75634,0 -2.15716,1.32714 -2.48254,2.35231 -0.15427,0.48606 -0.32322,0.52096 -1.8402,0.3793 -1.47166,-0.13742 -1.7375,-0.0887 -2.23449,0.40825 -0.32784,0.32784 -0.5643,0.90048 -0.5643,1.36684 0,0.71393 0.81964,2.5907 1.61643,3.70106 0.22406,0.31223 0.0981,0.70977 -0.56223,1.77199 -1.10204,1.77281 -1.32746,3.44933 -0.55708,4.14652 0.46023,0.41653 0.83332,0.47655 2.25723,0.36225 1.67802,-0.13469 1.71103,-0.12472 2.01848,0.61753 0.1719,0.41499 0.59139,1.05539 0.93224,1.42317 0.90731,0.97901 1.9813,0.89258 2.97553,-0.23978 0.4388,-0.49977 0.87118,-1.1407 0.96118,-1.4242 0.14632,-0.46104 0.34508,-0.50101 1.88051,-0.37776 1.40876,0.11308 1.81043,0.0525 2.24069,-0.33693 0.91469,-0.82778 0.5533,-2.58951 -1.03198,-5.02863 -0.30534,-0.4698 -0.24507,-0.70146 0.49299,-1.88877 1.13505,-1.82591 1.32356,-3.26893 0.53021,-4.06229 -0.53365,-0.53361 -0.76942,-0.57864 -2.28979,-0.43666 -1.66065,0.15507 -1.70031,0.14342 -1.96629,-0.56069 -0.42631,-1.1286 -1.56905,-2.17351 -2.37659,-2.17351 z m 26.06352,0.30282 c -0.50062,-0.0734 -1.0564,0.17595 -1.27692,0.80564 -0.17794,0.50804 -0.15144,0.82993 0.093,1.12448 h 5.2e-4 c 0.71774,0.86482 2.12959,0.3355 2.12959,-0.79841 0,-0.66202 -0.44558,-1.05829 -0.9462,-1.13171 z m -26.05526,0.0801 c 0.50793,-0.0163 1.01459,0.41674 1.43454,1.30173 0.61827,1.30291 0.54693,1.60188 -0.50333,2.10271 -0.51426,0.24523 -0.96068,0.44008 -0.99218,0.43408 -0.43167,-0.0883 -2.03187,-1.11694 -1.95337,-1.25573 0.0583,-0.10316 0.31602,-0.63835 0.57257,-1.18908 0.42488,-0.91209 0.93385,-1.37741 1.44177,-1.39371 z m -63.66588,0.92397 c -0.26657,0.83842 -0.51136,1.68624 -0.74517,2.53835 0.23474,-0.85144 0.47801,-1.69979 0.74517,-2.53835 z m 82.39239,1.09141 c -0.48098,-0.009 -0.97442,0.13005 -1.29553,0.42065 -0.63842,0.57774 -0.61563,1.81161 0.0455,2.47271 0.29104,0.29105 0.82682,0.52917 1.19062,0.52917 1.42539,0 2.24569,-1.89112 1.28209,-2.95589 -0.2728,-0.30146 -0.74168,-0.45786 -1.22266,-0.46664 z m 14.31437,0.79427 c 4.09749,-0.15871 8.1008,2.96235 8.1008,7.78763 0,3.11994 -1.53845,5.57267 -4.42402,7.05177 -1.39254,0.71379 -4.39064,0.92335 -5.77846,0.40411 -5.53183,-2.06969 -7.18069,-8.73587 -3.17707,-12.84624 1.53429,-1.57519 3.41626,-2.32514 5.27875,-2.39727 z m -38.37027,0.11989 c 0.25753,-0.002 0.54514,0.0301 0.85525,0.0997 0.59918,0.13463 1.12899,0.28505 1.17719,0.33435 0.0482,0.0493 -0.0359,0.74476 -0.18707,1.54512 -0.15114,0.80037 -0.47534,1.66773 -0.72037,1.92753 -0.42766,0.45342 -0.46227,0.45342 -0.863,0 -0.61762,-0.69885 -1.53324,-2.51355 -1.53324,-3.03857 0,-0.54496 0.49865,-0.86165 1.27124,-0.86816 z m 10.85877,0.032 c 0.25732,0.008 0.46753,0.0404 0.58033,0.10076 0.70977,0.37985 0.64942,0.94861 -0.27182,2.55489 -0.95,1.65641 -1.13739,1.79181 -1.66553,1.20354 -0.36968,-0.41176 -1.06356,-3.23883 -0.84853,-3.45715 0.24006,-0.24376 1.43361,-0.42735 2.20555,-0.40204 z m 27.71045,0.90175 c -0.9371,0.0202 -1.87422,0.14658 -2.41018,0.37052 -2.95621,1.23518 -4.65306,4.2025 -4.21215,7.36647 0.20567,1.47593 0.18017,1.49831 1.03301,-0.91519 1.2799,-3.62204 5.61862,-5.89979 9.33897,-4.90306 0.76398,0.2047 1.38906,0.28684 1.38906,0.18242 0,-0.26607 -1.83348,-1.49861 -2.72903,-1.83451 -0.53543,-0.20083 -1.47257,-0.28686 -2.40968,-0.26665 z m -35.16116,0.0853 c 0.0735,-0.0118 0.16249,0.0757 0.3111,0.25477 0.27877,0.3359 0.24324,0.45306 -0.21084,0.69608 -0.57375,0.30706 -0.6332,0.19224 -0.31678,-0.61185 0.0852,-0.21655 0.14307,-0.32722 0.21652,-0.339 z m 3.71864,0.0873 c 0.17451,-0.0419 0.28674,0.0783 0.40308,0.39274 0.2701,0.73018 0.1377,0.82566 -0.48576,0.34985 -0.43967,-0.33556 -0.4559,-0.42431 -0.11524,-0.64751 0.0744,-0.0487 0.13975,-0.0811 0.19792,-0.0951 z m 31.26786,0.25115 c 0.84719,-0.0454 1.70744,0.0744 2.53524,0.36742 l 1.05834,0.37465 -2.11667,0.16433 c -2.23714,0.17379 -3.61828,0.70776 -5.13974,1.98799 -0.46455,0.39089 -1.19341,1.31959 -1.62005,2.06344 -0.64308,1.12122 -0.77575,1.23928 -0.77567,0.69092 1.6e-4,-1.04693 1.15827,-3.25839 2.13992,-4.08606 1.13077,-0.95339 2.50664,-1.4871 3.91863,-1.56269 z m -97.74029,0.14572 c -0.19397,0.75111 -0.37212,1.50928 -0.54105,2.27118 0.16968,-0.7609 0.34584,-1.51938 0.54105,-2.27118 z m 64.68081,0.70177 1.17357,0.84284 c 1.91189,1.37304 1.94529,3.11169 0.0863,4.4788 -0.60026,0.44144 -1.17759,0.80253 -1.28313,0.80253 -0.10554,0 -0.70709,-0.39197 -1.33687,-0.87126 -1.02038,-0.77656 -1.15403,-1.00367 -1.22473,-2.08463 -0.0773,-1.18224 -0.0455,-1.23766 1.25264,-2.19056 z m -0.16898,1.12603 c -0.43221,0.0398 -0.85357,0.30844 -1.27279,0.80667 -0.80382,0.95529 -0.74476,1.89825 0.16743,2.67012 1.98124,1.67647 4.3765,-1.17495 2.44481,-2.91042 -0.4641,-0.41695 -0.90725,-0.60614 -1.33945,-0.56637 z m 34.92913,0.3576 c -1.0646,0.0585 -2.12772,0.34429 -3.02152,0.84801 -1.67568,0.94437 -2.98239,2.60804 -3.46491,4.41213 -0.40083,1.49864 -0.18572,1.97216 1.12087,2.46755 1.30066,0.49313 4.10461,0.29124 5.44204,-0.3917 2.09877,-1.07172 3.48838,-2.98041 3.90674,-5.36557 0.16057,-0.91542 0.12605,-0.96862 -0.95343,-1.45521 -0.89888,-0.40518 -1.96519,-0.57373 -3.02979,-0.51521 z m 0.24856,0.45372 c 0.56647,-0.0154 1.1238,0.0455 1.64435,0.18965 1.79217,0.49623 1.8331,0.56192 1.36012,2.17816 -0.54026,1.84615 -1.78298,3.31943 -3.45819,4.09949 -2.3641,1.10084 -5.97934,0.64872 -5.96604,-0.7462 0.008,-0.87214 0.96381,-2.86289 1.79576,-3.74138 1.14034,-1.20414 2.9246,-1.93357 4.624,-1.97972 z m -100.51996,0.98857 c -0.13747,0.68523 -0.26476,1.37508 -0.3824,2.06912 0.11737,-0.69287 0.2441,-1.38286 0.3824,-2.06912 z m 30.11599,0.12609 c -0.14431,0.008 -0.29481,0.0442 -0.44855,0.1142 -0.80425,0.36645 -0.92868,1.7171 -0.1974,2.14303 0.65316,0.38043 1.02391,0.3481 1.50223,-0.13023 0.84578,-0.84577 0.15387,-2.18163 -0.85628,-2.127 z m 75.15665,0.45475 c -0.0361,-0.006 -0.0407,0.14628 -0.0491,0.45114 -0.0294,1.07178 -1.31893,3.40894 -2.43964,4.42143 -2.1273,1.92191 -5.18754,2.6706 -7.71168,1.88671 -1.72967,-0.53717 -1.24683,0.048 0.94258,1.14205 3.40527,1.70163 6.99635,0.61986 8.77208,-2.64273 0.80306,-1.47555 1.14676,-3.72961 0.72502,-4.75785 -0.13518,-0.32968 -0.20313,-0.4945 -0.23927,-0.50075 z m -44.29187,0.66663 c 0.0835,0.0361 0.17432,0.11248 0.29043,0.21756 0.26879,0.24324 0.57054,0.98588 0.67024,1.65054 0.0997,0.66465 0.23799,1.35762 0.30799,1.53996 0.0747,0.19479 -0.22281,0.45388 -0.72192,0.62787 -1.16096,0.40474 -1.96637,0.37161 -2.35541,-0.0971 -0.42623,-0.51357 -0.20997,-1.29818 0.79323,-2.87735 0.58234,-0.91668 0.76487,-1.16965 1.01544,-1.06143 z m 9.04596,0.0331 c 0.24563,-0.0964 0.44076,0.15598 1.02682,1.04076 1.01561,1.53331 1.24527,2.34394 0.81287,2.86495 -0.56488,0.68064 -3.35827,0.2023 -3.07837,-0.5271 0.0707,-0.18432 0.20984,-0.87893 0.30954,-1.54358 0.0997,-0.66466 0.39217,-1.39904 0.65009,-1.63246 0.10951,-0.0991 0.19718,-0.17043 0.27905,-0.20257 z m -70.58018,1.87275 c -0.0821,0.53407 -0.18165,1.06007 -0.25218,1.59939 -0.53665,4.10145 -0.53762,12.39768 -0.002,16.50959 3.31184,25.42588 20.74129,46.50117 45.10164,54.53672 4.35519,1.4366 9.51874,2.49298 14.94896,3.05821 h 5.1e-4 c 2.22556,0.23167 12.28159,-0.0872 14.84458,-0.47077 14.43746,-2.16071 26.94834,-8.46866 37.29178,-18.80247 1.42734,-1.42601 2.76879,-2.89705 4.04006,-4.40542 -3.61348,4.30979 -7.80852,8.17119 -12.54549,11.51455 -8.62851,6.09 -18.97601,10.13042 -29.42766,11.49025 -6.62844,0.86241 -13.58654,0.72347 -19.92695,-0.39791 -28.941,-5.11857 -50.92101,-28.41271 -54.30934,-57.55618 -0.50348,-4.3304 -0.37455,-12.85786 0.23616,-17.07596 z m 68.39324,0.1602 c 0.0397,0.0397 -0.0206,0.32318 -0.13384,0.62942 -0.15146,0.40944 -0.30992,0.4921 -0.59945,0.31316 -0.33594,-0.20762 -0.31619,-0.29983 0.13384,-0.6289 0.29011,-0.21213 0.55975,-0.35338 0.59945,-0.31368 z m -4.49689,0.0548 c 0.0821,0.0197 0.19013,0.0721 0.32453,0.15606 0.29105,0.18176 0.52917,0.40791 0.52917,0.50281 0,0.38338 -0.76079,0.43299 -0.90434,0.0589 -0.20853,-0.54342 -0.19558,-0.77683 0.0506,-0.71778 z m 41.74629,0.0977 c 0.21227,-0.0868 0.0534,0.52077 -0.50849,1.72754 -0.65624,1.40928 -1.89186,2.63109 -3.21014,3.17448 -1.22868,0.50645 -2.81767,0.64358 -3.83646,0.33073 l -0.92604,-0.28473 1.75596,-0.33642 c 2.8215,-0.54119 4.5409,-1.60633 5.94899,-3.68504 0.38779,-0.57248 0.64883,-0.87451 0.77618,-0.92656 z m -39.57846,1.45107 c 0.23933,0.002 0.48863,0.10632 0.92346,0.31368 0.51545,0.2458 0.93476,0.51414 0.93276,0.59634 -0.002,0.0822 -0.27307,0.6256 -0.60203,1.20768 -0.66927,1.18425 -1.45018,1.45836 -2.10168,0.73846 -0.41562,-0.45925 -1.08675,-1.93827 -0.9369,-2.06448 0.0404,-0.0341 0.45509,-0.25615 0.92191,-0.49351 0.3938,-0.20021 0.62315,-0.30023 0.86248,-0.29817 z m -39.2312,3.62304 c -0.58879,0.0842 -0.87091,0.74144 -0.61029,1.42058 v 5.2e-4 c 0.18844,0.49064 1.06465,0.49154 1.47174,10e-4 0.46875,-0.56481 -0.11532,-1.52885 -0.86145,-1.42213 z m 60.53688,0.27181 c 0.065,0.0781 -1.09085,0.7089 -3.23701,1.73013 -11.45521,5.45083 -28.06453,10.48677 -40.81405,12.37496 -3.45444,0.5116 -9.01053,0.71573 -10.55181,0.38757 -1.27081,-0.27057 -2.36376,-0.88465 -2.58072,-1.45004 -0.46223,-1.20455 2.59621,-4.41713 7.13031,-7.48998 3.3013,-2.23737 9.16205,-5.71354 9.33742,-5.53817 0.11038,0.11038 -1.38258,5.51206 -1.5534,5.62033 -3.57655,2.26686 -6.01513,4.45821 -6.01513,5.40587 0,2.09236 5.55454,1.74894 16.80104,-1.03921 8.76937,-2.17404 22.63862,-6.57105 29.99817,-9.51001 0.96747,-0.38635 1.44617,-0.53827 1.48518,-0.49145 z m -84.09254,2.32389 c -0.0963,0 0.15228,0.59532 0.55242,1.32292 l 0.7276,1.32292 -0.7276,1.32291 c -0.40014,0.72761 -0.65553,1.32292 -0.56793,1.32292 0.0876,0 0.72017,-0.31566 1.40612,-0.70125 l 1.24747,-0.70073 1.25108,0.73329 c 0.68814,0.40327 1.29798,0.68588 1.35548,0.62838 0.0575,-0.0575 -0.2437,-0.66427 -0.66973,-1.34875 l -0.77463,-1.24437 0.78342,-1.32912 c 0.43097,-0.73094 0.71356,-1.32912 0.62786,-1.32912 -0.0857,0 -0.72522,0.31011 -1.4211,0.68885 l -1.26504,0.68833 -1.17512,-0.68833 c -0.64628,-0.37874 -1.254,-0.68885 -1.3503,-0.68885 z m 124.0441,0 c -0.0923,0 -0.69422,0.30831 -1.33738,0.68523 l -1.16944,0.68523 -1.233,-0.68884 c -0.67819,-0.37904 -1.28474,-0.63763 -1.34824,-0.57413 -0.0635,0.0635 0.20382,0.66078 0.59428,1.32705 l 0.71004,1.2113 -0.68627,1.1715 c -0.37763,0.64438 -0.68678,1.24715 -0.68678,1.33945 0,0.0923 0.58855,-0.15262 1.30793,-0.54415 l 1.30793,-0.71158 1.18649,0.69504 c 0.6526,0.38245 1.26214,0.69557 1.35444,0.69557 0.0923,0 -0.15641,-0.59531 -0.55242,-1.32292 l -0.71985,-1.32291 0.71985,-1.32292 c 0.39601,-0.7276 0.64472,-1.32292 0.55242,-1.32292 z m -42.68525,0.15917 c 0.33129,0.0511 0.55916,0.90521 1.25677,3.84731 1.63041,6.87592 3.37417,17.07869 3.86023,22.58415 l 0.1633,1.85208 -1.68723,-3.96875 c -3.78633,-8.906 -7.52214,-15.17156 -10.13634,-16.99948 -1.48967,-1.04162 -2.73968,-1.11415 -5.78466,-0.33538 -7.53821,1.92795 -17.70896,10.64126 -27.33838,23.42028 -1.53517,2.03729 -2.89179,3.81706 -3.0148,3.95531 -0.12642,0.14207 -0.22163,-0.20301 -0.21963,-0.79375 0.006,-1.53498 0.93959,-10.00407 1.57303,-14.27458 0.99037,-6.67683 1.05358,-6.94549 1.67535,-7.10809 0.30851,-0.0807 0.60573,-0.10173 0.66043,-0.047 0.0547,0.0547 -0.20579,1.98494 -0.57878,4.28915 -0.77355,4.77864 -1.81228,12.9884 -1.68982,13.35577 0.0451,0.13526 1.44956,-1.45422 3.12126,-3.53208 6.94311,-8.63008 14.77762,-15.65319 20.89898,-18.73478 4.21487,-2.12182 8.44434,-2.91238 10.47016,-1.95698 2.27852,1.07456 5.10221,4.79269 8.01915,10.55956 0.88327,1.74625 1.60831,2.98296 1.61231,2.74815 0.0132,-0.86765 -1.62927,-9.44354 -2.64894,-13.83068 -0.98107,-4.22102 -1.02166,-4.55043 -0.59944,-4.8612 0.15475,-0.1139 0.27662,-0.18601 0.38705,-0.16898 z m -39.50663,4.20956 c 0.0562,0.0562 -0.11565,1.17985 -0.38189,2.497 l -0.48421,2.39469 -1.86138,-0.004 c -2.42595,-0.005 -2.8326,-0.24511 -2.10013,-1.23972 0.55078,-0.7479 4.63865,-3.8368 4.82761,-3.64784 z m 45.69179,2.55643 c -0.27293,-0.0443 -0.55735,0.0143 -0.80719,0.22169 -0.47374,0.39321 -0.51457,1.35766 -0.076,1.79628 0.43862,0.43866 1.40306,0.39781 1.79627,-0.076 0.62206,-0.74953 -0.0943,-1.80901 -0.91312,-1.942 z m 3.42976,3.65818 c -0.30559,0 -0.69871,0.14266 -0.87333,0.31729 -0.17463,0.17462 -0.31729,0.56774 -0.31729,0.87333 0,0.30559 0.14266,0.6987 0.31729,0.87333 0.17462,0.17462 0.56774,0.3173 0.87333,0.3173 0.30559,0 0.69819,-0.14268 0.87282,-0.3173 0.17462,-0.17463 0.31781,-0.56774 0.31781,-0.87333 0,-0.30559 -0.14319,-0.69871 -0.31781,-0.87333 -0.17463,-0.17463 -0.56723,-0.31729 -0.87282,-0.31729 z m -22.37228,3.49952 c -0.28603,0.0257 -0.58399,0.15663 -0.85059,0.42323 -0.47182,0.47182 -0.50763,0.651 -0.24598,1.22525 0.39443,0.86568 1.73905,0.94854 2.17506,0.13384 0.52982,-0.98997 -0.2204,-1.85946 -1.07849,-1.78232 z m 58.27086,0.12299 c -2.30306,11.26629 -7.0911,21.35028 -14.09267,29.73566 7.17772,-8.55017 11.85915,-18.42943 14.09267,-29.73566 z m -30.39814,0.13178 c -0.56941,0.11217 -0.99043,0.8429 -0.78858,1.36891 0.20505,0.53438 1.06696,0.56525 1.4919,0.0532 0.41089,-0.49507 -0.10584,-1.53983 -0.70332,-1.42213 z m -71.32795,1.93425 -0.42374,1.3162 c -0.37327,1.15923 -0.53937,1.34844 -1.39423,1.5875 -1.4188,0.39678 -1.43799,0.56516 -0.10129,0.90175 1.13558,0.28594 1.21432,0.36634 1.51309,1.55288 l 0.31522,1.2516 0.33745,-0.79117 c 0.18559,-0.43531 0.34233,-0.99852 0.34933,-1.25108 0.008,-0.32076 0.3759,-0.55082 1.21957,-0.76326 1.31727,-0.3317 1.27748,-0.59249 -0.14521,-0.95498 -0.81572,-0.20784 -0.96415,-0.38498 -1.29553,-1.54203 z m 7.00319,0.18345 c -0.86689,0.10103 -1.38794,1.27222 -0.85266,1.9172 0.35893,0.43247 1.26841,0.54169 1.75235,0.21032 0.96877,-0.66335 0.29095,-2.26629 -0.89969,-2.12752 z m 66.12413,2.46703 c -0.34732,6.2e-4 -0.72771,0.15885 -0.92087,0.47388 -0.23494,0.38313 -0.19108,0.55453 0.22014,0.85989 0.28247,0.20976 0.59515,0.38137 0.69505,0.38137 0.36141,0 0.8171,-0.77953 0.7276,-1.24437 -0.0606,-0.31449 -0.3746,-0.47138 -0.72192,-0.47077 z m -90.40946,2.41277 c -0.24874,0.0434 -0.6173,0.18367 -1.18495,0.43512 -2.1547,0.95447 -2.27546,1.19531 -1.55907,3.11092 0.32866,0.87884 0.84566,1.77156 1.14876,1.98386 0.58172,0.40744 0.89976,0.35637 2.76159,-0.4408 1.01175,-0.4332 1.10489,-0.54443 0.8506,-1.01958 -0.34155,-0.63819 -0.30562,-0.63519 -1.4981,-0.13694 -1.33955,0.5597 -1.60934,0.50546 -2.08825,-0.42064 -0.56279,-1.0883 -0.38661,-1.41826 1.0511,-1.96733 1.20448,-0.46 1.40061,-0.73872 0.98289,-1.39733 -0.087,-0.13717 -0.21584,-0.19069 -0.46457,-0.14728 z m 53.79103,0.40773 c -1.33159,-0.15268 -1.99443,1.01367 -1.08986,1.91823 0.90456,0.90456 2.07143,0.24225 1.91875,-1.08934 -0.068,-0.593 -0.23589,-0.76089 -0.82889,-0.82889 z m 54.36257,0.48214 c -0.63162,0 -1.17445,0.64868 -1.71979,2.05569 -0.65854,1.69903 -0.57683,2.3204 0.35605,2.70681 1.00594,0.41667 1.3379,0.16406 2.09496,-1.59577 0.51328,-1.19314 1.08004,-1.7375 1.08004,-1.03714 0,0.44363 -0.77511,1.82052 -1.34669,2.3921 -0.28859,0.28861 -0.45412,0.63959 -0.36742,0.7798 0.29237,0.47306 1.16984,0.25906 1.59422,-0.38861 0.23181,-0.3538 0.65649,-1.2613 0.94361,-2.01693 0.49189,-1.29452 0.49616,-1.40243 0.0729,-1.87017 -0.24709,-0.27303 -0.77944,-0.49661 -1.18288,-0.49661 -0.62929,0 -0.83154,0.20679 -1.42213,1.45521 -0.37863,0.80036 -0.80391,1.45521 -0.94517,1.45521 -0.14125,0 -0.25683,-0.054 -0.25683,-0.11989 0,-0.35643 0.70168,-1.66385 1.1126,-2.07326 0.61507,-0.61283 0.60808,-1.24644 -0.0134,-1.24644 z m -82.19395,0.66146 c -0.87448,0 -1.20207,0.67197 -0.65112,1.33584 0.17536,0.21129 0.46848,0.38395 0.65112,0.38395 0.49008,0 0.98303,-0.69837 0.87798,-1.24385 -0.0637,-0.33068 -0.33128,-0.47594 -0.87798,-0.47594 z m 33.50597,2.24896 c -0.43465,0 -1.09451,0.79763 -1.09451,1.32292 0,0.27026 0.18681,0.67824 0.41548,0.90692 0.79547,0.79547 1.96577,0.2557 1.96577,-0.90692 0,-0.72801 -0.5787,-1.32292 -1.28674,-1.32292 z m -15.51637,1.36426 c -1.01173,0.0426 -1.57238,1.12462 -0.78703,1.90996 0.58815,0.58815 1.34366,0.53952 1.80299,-0.11627 0.51655,-0.73747 0.26022,-1.53934 -0.55759,-1.7446 -0.16034,-0.0402 -0.31384,-0.0552 -0.45837,-0.0491 z m -23.61148,0.0191 c -0.72931,0.13773 -1.03564,0.79956 -0.63614,1.67638 0.18845,0.4136 0.51384,0.64441 0.90796,0.64441 0.81733,0 1.24902,-0.4741 1.24902,-1.37098 0,-0.56401 -0.15436,-0.7746 -0.66094,-0.90175 -0.32649,-0.082 -0.61679,-0.094 -0.8599,-0.0481 z m -17.83353,0.20412 c -0.35559,0 -3.33783,1.53796 -3.50418,1.80712 -0.0787,0.12734 0.005,0.43447 0.18603,0.68213 0.30502,0.41714 0.42227,0.39802 1.59577,-0.25786 l 1.26711,-0.70797 -0.44442,1.02423 c -0.94524,2.1807 -1.02413,2.66714 -0.54984,3.39101 0.2436,0.37177 0.51798,0.67592 0.60978,0.67592 0.0918,0 0.92345,-0.42299 1.84795,-0.93999 1.48748,-0.83184 1.64907,-0.99931 1.40508,-1.45521 -0.35022,-0.65439 -0.37363,-0.65212 -1.79679,0.1819 -0.71755,0.42053 -1.13021,0.55178 -1.03921,0.33073 0.083,-0.20158 0.41499,-0.98995 0.73742,-1.75183 0.50907,-1.20294 0.54269,-1.4902 0.2558,-2.18281 -0.1817,-0.43867 -0.43849,-0.79737 -0.5705,-0.79737 z m 103.2154,0.17312 c -0.43001,0.11267 -1.0833,1.11746 -2.00815,3.08353 -0.41083,0.87335 -0.42233,1.04067 -0.0868,1.25212 0.37666,0.23738 0.87168,-0.16077 1.13068,-0.90847 0.0646,-0.18651 0.63445,-0.035 1.56528,0.41599 l 1.46347,0.709 0.25684,-0.57671 c 0.22916,-0.51356 0.11487,-0.65803 -1.04749,-1.32188 -0.99909,-0.57061 -1.26212,-0.84965 -1.12137,-1.19062 0.40832,-0.98911 0.41231,-1.30548 0.0181,-1.45676 -0.0525,-0.0201 -0.1091,-0.0223 -0.17053,-0.006 z m -35.04541,0.62063 c -0.30559,0 -0.69871,0.14266 -0.87333,0.31729 -0.17463,0.17462 -0.31729,0.56775 -0.31729,0.87333 0,0.3056 0.14266,0.69871 0.31729,0.87334 0.17462,0.17462 0.56774,0.31729 0.87333,0.31729 0.3056,0 0.69819,-0.14267 0.87282,-0.31729 0.17462,-0.17463 0.31781,-0.56774 0.31781,-0.87334 0,-0.30558 -0.14319,-0.69871 -0.31781,-0.87333 -0.17463,-0.17463 -0.56722,-0.31729 -0.87282,-0.31729 z m -5.02708,0.79375 c -0.30559,0 -0.69871,0.14266 -0.87333,0.31729 -0.17463,0.17462 -0.31729,0.56775 -0.31729,0.87333 0,0.3056 0.14266,0.69871 0.31729,0.87334 0.17462,0.17462 0.56774,0.31729 0.87333,0.31729 0.30559,0 0.69819,-0.14267 0.87282,-0.31729 0.17462,-0.17463 0.31781,-0.56774 0.31781,-0.87334 0,-0.30558 -0.14319,-0.69871 -0.31781,-0.87333 -0.17463,-0.17463 -0.56723,-0.31729 -0.87282,-0.31729 z m -39.6875,1.45521 c -0.87448,0 -1.20207,0.67197 -0.65112,1.33583 0.17536,0.21129 0.46848,0.38396 0.65112,0.38396 0.49008,0 0.98303,-0.69837 0.87798,-1.24385 -0.0637,-0.33068 -0.33128,-0.47594 -0.87798,-0.47594 z m 30.77228,0.80305 -0.43718,1.3007 c -0.35302,1.05052 -0.58986,1.34659 -1.23093,1.53789 -1.57227,0.46919 -1.58951,0.5151 -0.3328,0.89193 1.17052,0.35099 1.2747,0.45536 1.55184,1.55598 0.34768,1.38078 0.64855,1.3364 0.89659,-0.13178 0.15713,-0.93004 0.28908,-1.08132 1.14773,-1.31981 0.5335,-0.14818 1.13847,-0.26998 1.34463,-0.27079 0.6556,-0.003 0.024,-0.38854 -1.09503,-0.66921 -0.99847,-0.25044 -1.10887,-0.37027 -1.46244,-1.58285 z m 46.61163,0.92139 c -0.38067,0.008 -0.87865,0.54298 -1.69757,1.76372 l -1.18649,1.76836 1.64382,1.12655 c 0.90408,0.61963 1.71571,1.13405 1.80351,1.14205 0.0878,0.008 0.72428,-0.83337 1.41438,-1.8712 0.97511,-1.4664 1.17535,-1.9377 0.89866,-2.11305 -0.57006,-0.36128 -0.65383,-0.30228 -1.54616,1.0883 -0.46654,0.72704 -0.96157,1.25204 -1.10019,1.16634 -0.23258,-0.14374 -0.0285,-0.56628 1.00769,-2.08411 0.45423,-0.66527 0.44841,-0.84126 -0.0351,-1.02681 -0.26447,-0.10149 -0.61666,0.23303 -1.08366,1.02991 -0.38046,0.64919 -0.86596,1.18029 -1.079,1.18029 -0.42571,0 -0.38711,-0.0916 0.73691,-1.75235 0.40606,-0.59995 0.66335,-1.16547 0.57205,-1.25677 -0.10835,-0.10835 -0.22192,-0.16399 -0.34881,-0.16123 z m -97.75321,0.93224 c -0.29724,-0.0394 -0.74011,0.18802 -1.71876,0.81856 -1.62655,1.04798 -1.82665,1.34421 -1.27744,1.89342 0.24353,0.24353 0.4685,0.21496 0.99219,-0.12454 2.97943,-1.93154 2.94903,-1.89794 2.26704,-2.46393 -0.0811,-0.0673 -0.16395,-0.11038 -0.26303,-0.12351 z m 1.01854,1.2082 c -0.0457,-0.0571 -0.26364,0.0458 -0.48369,0.22841 -0.35403,0.29382 -0.3405,0.41561 0.11679,1.05781 l 0.51677,0.72554 -1.18133,0.84853 c -0.64978,0.46664 -1.18132,0.89078 -1.18132,0.94258 0,0.0518 0.0724,0.28245 0.16071,0.51263 0.22952,0.59812 0.62152,0.51273 1.82366,-0.39739 l 1.05834,-0.80099 0.61443,0.71314 c 0.53791,0.62445 0.66312,0.66599 0.99994,0.32917 0.33682,-0.33682 0.21345,-0.61459 -0.98805,-2.22053 -0.75518,-1.00936 -1.41045,-1.8818 -1.45625,-1.9389 z m 41.59643,0.23616 c -1.15745,0 -1.74498,1.54061 -0.83354,2.1854 0.45696,0.32327 1.52995,0.10119 1.83038,-0.37879 0.43069,-0.68808 -0.18654,-1.80661 -0.99684,-1.80661 z m 51.79581,1.93735 c -0.0865,0.0473 -0.16662,0.14232 -0.28681,0.26252 -0.40287,0.40287 -0.359,0.501 0.60823,1.35495 l 1.04335,0.92088 -1.73633,0.0114 c -1.55081,0.01 -1.81252,0.0902 -2.44894,0.75448 l -0.71262,0.74414 1.65519,1.36426 c 0.9104,0.75039 1.68074,1.36804 1.71204,1.37304 0.0313,0.005 0.18908,-0.23923 0.35089,-0.54157 0.25537,-0.47717 0.16055,-0.66741 -0.7183,-1.44384 l -1.01235,-0.89452 1.86862,-0.0114 c 1.74215,-0.0103 1.90626,-0.0619 2.42673,-0.76585 l 0.5581,-0.75499 -1.1038,-0.90021 c -1.62813,-1.32752 -1.94464,-1.61513 -2.204,-1.47329 z m -38.84208,1.54823 c -0.27293,-0.0443 -0.55734,0.0138 -0.80718,0.22117 -0.39801,0.33031 -0.54167,1.61324 -0.21704,1.93787 0.32463,0.32463 1.60704,0.18097 1.93735,-0.21704 0.62206,-0.74954 -0.0943,-1.80902 -0.91313,-1.942 z m -51.23046,0.64905 c -0.20924,-0.24114 -3.15123,2.14074 -3.15123,2.55127 0,0.12913 0.62508,0.93686 1.38906,1.79524 1.48733,1.67108 1.71382,1.80471 1.96216,1.15755 0.10131,-0.26402 -0.19109,-0.77479 -0.80202,-1.40043 -0.92661,-0.94894 -1.22585,-1.62368 -0.71934,-1.62368 0.13345,0 0.66328,0.50602 1.17719,1.12448 0.72007,0.86655 1.00623,1.05279 1.24799,0.81132 0.24182,-0.24152 0.0953,-0.56859 -0.63976,-1.4273 -0.52445,-0.61269 -0.87648,-1.23841 -0.78238,-1.39061 0.0974,-0.15754 0.64541,0.26267 1.27279,0.97565 0.96406,1.09557 1.14486,1.20082 1.44281,0.84181 0.28925,-0.34853 0.14925,-0.6195 -0.92811,-1.79731 -0.69774,-0.7628 -1.35885,-1.49086 -1.46916,-1.61799 z m 84.95554,3.70985 -0.64079,0.60255 c -0.62144,0.58382 -0.62954,0.64016 -0.26407,1.83245 0.20738,0.67653 0.50341,1.68764 0.65784,2.2474 0.27499,0.99669 0.2913,1.0083 0.80874,0.54002 0.29061,-0.26299 0.47573,-0.68151 0.41083,-0.92966 -0.15217,-0.58189 1.49353,-2.2083 2.02726,-2.00349 0.34746,0.13334 1.4774,-0.76002 1.20923,-0.95602 -0.0597,-0.0437 -1.03094,-0.36161 -2.15852,-0.70641 z m -81.74075,0.15193 c -0.0874,0.0403 -0.75161,0.71349 -1.4764,1.49603 l -1.31775,1.42317 1.71411,1.5534 c 0.97565,0.88437 1.95956,1.55391 2.2841,1.55391 0.59456,0 2.48409,-1.85992 2.48409,-2.44533 0,-0.36235 -3.43518,-3.6979 -3.68815,-3.58118 z m 82.26991,1.32292 c 0.12834,0.0186 0.29412,0.0674 0.50023,0.14366 l 0.58756,0.21704 -0.53898,0.48834 c -0.52734,0.47724 -0.5446,0.47411 -0.7767,-0.14366 -0.20558,-0.54715 -0.15711,-0.76125 0.22789,-0.70538 z m -82.03788,0.0858 0.93431,0.90537 c 1.06256,1.02989 1.13286,1.3344 0.45061,1.95182 -0.64653,0.58512 -0.70527,0.57089 -1.76165,-0.4222 l -0.91467,-0.85989 0.64544,-0.78755 z m 76.28216,3.17345 c -0.0999,0.0112 -0.2031,0.0531 -0.32401,0.11782 -0.62037,0.33201 -0.75553,0.0613 1.29191,2.58847 l 0.90175,1.1126 1.4795,-1.23869 c 0.81388,-0.6813 1.53219,-1.27811 1.59629,-1.32601 0.0641,-0.0479 -0.0584,-0.26202 -0.27234,-0.47594 -0.34221,-0.34222 -0.51231,-0.28717 -1.4149,0.45682 l -1.02578,0.84542 -1.002,-1.12913 c -0.6579,-0.74136 -0.93084,-0.98503 -1.23042,-0.95136 z m -69.55544,1.09761 c -0.18206,-0.10702 -0.7522,0.51519 -1.44074,1.57199 -1.0982,1.68558 -1.12159,1.76244 -0.63149,2.12081 0.45145,0.33011 0.55734,0.30731 0.94,-0.19999 l 0.43098,-0.57103 1.02733,0.69763 c 0.56497,0.38392 1.1403,0.66044 1.27847,0.61444 0.60908,-0.20303 0.37055,-0.73506 -0.62477,-1.39372 -0.59145,-0.39141 -1.07538,-0.79517 -1.07538,-0.8971 0,-0.52598 0.44588,-0.43818 1.51463,0.29714 1.01871,0.70089 1.23537,0.76192 1.55701,0.44028 0.32164,-0.32164 0.16154,-0.52166 -1.15083,-1.43867 -0.83823,-0.58571 -1.65948,-1.14438 -1.82521,-1.24178 z m 68.09093,0.4284 c -0.46509,-0.006 -1.02452,0.22993 -1.76785,0.70693 -2.04424,1.31178 -2.05163,1.34026 -0.81235,3.16518 0.59851,0.88134 1.18823,1.60249 1.31051,1.60249 0.47416,0 0.88906,-0.78432 0.59945,-1.13327 -0.21391,-0.25776 4.2e-4,-0.52848 0.88987,-1.12448 1.43443,-0.96119 1.66805,-1.54815 0.98237,-2.47013 -0.3658,-0.49186 -0.73691,-0.74049 -1.202,-0.74672 z m -0.45785,1.33428 c 0.44598,-0.0563 0.855,0.13077 0.67489,0.4222 -0.0864,0.13977 -0.49733,0.49613 -0.91312,0.7922 -0.68012,0.48428 -0.79067,0.49686 -1.09967,0.12454 -0.36283,-0.43718 -0.31177,-0.50503 0.9002,-1.19683 0.13651,-0.0779 0.28904,-0.12336 0.4377,-0.14211 z m -63.83331,0.96532 c -0.27054,0 -2.09555,3.55422 -1.87121,3.64422 0.12372,0.0496 0.9987,0.54408 1.94459,1.09864 1.52167,0.89214 1.758,0.96111 2.05,0.59686 0.28117,-0.35073 0.14408,-0.52145 -0.92604,-1.15135 -0.69083,-0.40665 -1.36681,-0.77819 -1.50172,-0.82579 -0.1349,-0.0476 -0.16529,-0.21564 -0.0677,-0.37362 0.11784,-0.19069 0.61861,-0.0524 1.48931,0.41186 0.98732,0.52648 1.38672,0.62454 1.61541,0.39584 0.22869,-0.2287 -0.0134,-0.48584 -0.97927,-1.03921 -0.70571,-0.40432 -1.32463,-0.76533 -1.37563,-0.80253 -0.0509,-0.0372 -0.0175,-0.18925 0.0744,-0.33797 0.10201,-0.16506 0.6864,0.0359 1.50017,0.51573 1.30278,0.76815 1.82521,0.81253 1.82521,0.15607 0,-0.27157 -3.32937,-2.28875 -3.77754,-2.28875 z m 57.64764,1.69395 c -0.28084,-0.10777 -3.32576,1.18323 -3.81475,1.61747 -0.0457,0.0406 0.34395,0.92224 0.86609,1.95906 0.85394,1.6957 1.00195,1.85678 1.47226,1.60507 0.60347,-0.32297 0.61775,-0.38335 0.2496,-1.07126 -0.23843,-0.4455 -0.11986,-0.58533 0.92604,-1.09347 1.15007,-0.55875 1.48878,-1.06091 0.94361,-1.39785 -0.14053,-0.0869 -0.74954,0.0942 -1.35392,0.40256 -0.73448,0.37465 -1.18696,0.47288 -1.36426,0.29559 -0.17729,-0.1773 0.18415,-0.49344 1.08986,-0.9524 1.36662,-0.69251 1.66404,-1.10437 0.98547,-1.36477 z m -53.09598,0.71624 -0.62529,1.4149 c -1.03269,2.33509 -1.05356,2.49352 -0.36483,2.7745 0.33719,0.13756 1.32111,0.54601 2.18694,0.90744 1.89452,0.79085 2.34781,0.63752 3.0918,-1.04438 0.69556,-1.57244 0.45504,-1.91873 -2.14302,-3.08715 z m 0.80615,1.59835 1.08985,0.42788 c 1.25042,0.49117 1.48833,0.88976 1.07436,1.79834 -0.16154,0.35453 -0.38539,0.6361 -0.49765,0.6258 -0.3976,-0.0364 -2.45308,-1.0207 -2.45308,-1.17461 0,-0.086 0.1769,-0.49835 0.39326,-0.91674 z m 47.15784,0.0481 c -1.25599,0.0782 -3.85547,1.20904 -4.11809,1.89342 -0.19738,0.51438 0.55314,2.53079 1.10897,2.97966 0.53238,0.42994 0.55403,0.42788 2.34921,-0.23254 1.7662,-0.64975 2.45722,-1.17113 2.45722,-1.85363 0,-0.88522 -0.83664,-2.58825 -1.35186,-2.75177 -0.11386,-0.0361 -0.26602,-0.0463 -0.44545,-0.0351 z m -42.35969,0.76274 -0.66197,1.96939 c -0.47833,1.42268 -0.57426,2.00219 -0.3452,2.08669 0.1744,0.0643 0.97214,0.347 1.7725,0.62839 1.80273,0.63381 2.28162,0.66207 2.47995,0.14521 0.14186,-0.36967 -0.70691,-0.91777 -1.42161,-0.91777 -0.12658,0 -0.55491,-0.12348 -0.95188,-0.27441 -1.25646,-0.47766 -0.36365,-0.85126 0.93741,-0.39222 1.40546,0.49592 1.50901,0.49692 1.69395,0.015 0.10868,-0.28323 -0.23872,-0.50952 -1.29449,-0.84233 -0.79375,-0.2502 -1.44333,-0.55182 -1.44333,-0.67076 0,-0.3212 0.59229,-0.26386 1.84692,0.1788 0.61587,0.21727 1.22596,0.32896 1.35599,0.24856 0.63407,-0.39187 0.0492,-0.85748 -1.86552,-1.48518 z m 41.70185,0.5519 c 0.59533,-0.0803 0.79948,0.1937 0.99891,1.00201 0.15249,0.61808 0.0567,0.72765 -0.98237,1.12448 -1.47222,0.56224 -1.48622,0.5609 -1.83503,-0.20464 -0.4185,-0.91852 -0.16947,-1.31827 1.07849,-1.73013 0.29956,-0.0989 0.54156,-0.16496 0.74,-0.19172 z m -36.59466,1.15704 c -0.11865,10e-4 -0.1943,0.0167 -0.21446,0.0506 -0.0549,0.0924 -0.246,0.87934 -0.42478,1.74873 -0.17877,0.86939 -0.37773,1.71758 -0.44183,1.88464 -0.0641,0.16706 0.18544,0.36142 0.55448,0.43202 0.49487,0.0946 0.71248,-0.003 0.82941,-0.37156 0.13212,-0.41632 0.32032,-0.47002 1.13016,-0.32401 1.28681,0.23199 1.41788,0.32748 1.2361,0.90021 -0.1041,0.32799 8e-5,0.52503 0.3204,0.60823 0.26071,0.0677 0.5491,0.13709 0.6413,0.15399 0.29144,0.0534 0.48779,-1.14001 0.22996,-1.39784 -0.15256,-0.15256 -0.11106,-0.35581 0.10904,-0.5333 0.61012,-0.49199 0.72934,-1.62241 0.21704,-2.06034 -0.43855,-0.37488 -3.35628,-1.09839 -4.18682,-1.09141 z m 29.21992,0.13953 c -0.0853,-0.019 -0.18474,-0.0158 -0.30489,0.003 -0.31937,0.0489 -0.56382,0.20521 -0.54312,0.34727 0.0207,0.14207 0.12449,0.78781 0.23047,1.43453 l 0.19224,1.17564 -1.40508,-1.17564 c -0.77295,-0.64672 -1.59111,-1.14275 -1.81798,-1.10225 -1.65733,0.29568 -1.56745,0.11337 -1.13171,2.30321 0.35862,1.80227 0.45432,1.98851 1.02061,1.98851 0.70135,0 0.77915,-0.39141 0.36483,-1.83606 -0.14303,-0.49872 -0.21809,-0.94927 -0.16639,-1.00097 0.0517,-0.0517 0.70874,0.43062 1.45985,1.07177 1.19813,1.02268 1.46993,1.14334 2.21641,0.98495 0.78992,-0.16749 0.84676,-0.25172 0.79116,-1.16996 -0.033,-0.54434 -0.18823,-1.46704 -0.3452,-2.05 -0.17716,-0.65797 -0.30539,-0.91646 -0.5612,-0.97358 z m -27.75283,1.22835 c 1.06964,0.1527 1.90444,0.55502 1.73168,0.83457 -0.16561,0.26797 -1.18713,0.30774 -2.06551,0.0801 -0.74155,-0.19217 -0.4377,-1.02481 0.33383,-0.91467 z m 6.47299,0.0413 c -0.76407,0 -1.00405,0.20023 -2.07533,1.73271 -0.66609,0.95286 -1.21077,1.84582 -1.21077,1.98437 0,0.37561 1.31914,0.30443 1.46606,-0.0791 0.0847,-0.22111 0.56116,-0.30068 1.43712,-0.23978 1.00823,0.07 1.34703,0.20725 1.47019,0.59531 0.10208,0.32161 0.40347,0.50436 0.83199,0.50436 0.52849,0 0.63584,-0.0988 0.50178,-0.46302 -1.42911,-3.88224 -1.52068,-4.03489 -2.42104,-4.03489 z m 14.46475,0.0372 c -0.37746,-0.0339 -0.86253,-0.0187 -1.48415,0.0212 -1.73666,0.11145 -2.15187,0.22951 -2.55436,0.72657 -0.56779,0.70119 -0.41766,2.4777 0.27647,3.27422 0.36552,0.41943 0.66175,0.46155 2.13423,0.30386 2.76578,-0.29619 2.92696,-0.40916 2.92696,-2.05672 0,-1.626 -0.16675,-2.16743 -1.29915,-2.26912 z m -10.28878,0.25167 c -1.16248,-0.0405 -1.50451,0.12175 -1.59163,0.57412 -0.0708,0.36768 0.10117,0.45992 0.85679,0.45992 h 0.94568 v 1.5875 c 0,1.5169 0.0294,1.5875 0.66146,1.5875 0.62446,0 0.66146,-0.0802 0.66146,-1.43815 0,-1.42865 0.006,-1.43906 0.85783,-1.52136 0.54502,-0.0527 0.88771,-0.24294 0.94051,-0.52193 0.069,-0.36436 -0.2502,-0.47041 -1.87534,-0.6227 -0.59078,-0.0554 -1.06926,-0.0914 -1.45676,-0.1049 z m 4.17442,0.0196 c -0.24831,0.0817 -0.25941,0.50755 -0.25941,2.05466 0,2.11047 0.007,2.13475 0.67231,2.13475 0.66921,0 0.67221,-0.0104 0.59531,-2.05052 -0.0715,-1.89765 -0.12138,-2.05655 -0.67231,-2.13475 -0.1438,-0.0204 -0.25312,-0.0314 -0.3359,-0.004 z m 5.26067,0.79841 c 0.69218,0.0306 0.87645,0.37103 0.78444,1.17615 -0.082,0.71712 -0.16493,0.76424 -1.47587,0.83974 l -1.38907,0.0801 v -0.92397 c 0,-0.89411 0.0385,-0.92913 1.21026,-1.10485 0.35223,-0.0528 0.63951,-0.0774 0.87024,-0.0672 z m -13.72888,0.23977 c 0.159,0.007 0.30075,0.18199 0.40979,0.52555 0.20762,0.65417 0.16916,0.69043 -0.60099,0.56741 -0.49811,-0.0796 -0.55037,-0.17786 -0.32143,-0.60565 0.1775,-0.33166 0.35362,-0.49391 0.51263,-0.48731 z" />
      <path
         id="path147-1-5-0"
         style="fill:#37a6d1;fill-opacity:1;stroke-width:1.03122"
         d="m 362.05437,293.23846 c -3.65029,0.0535 -7.46387,0.27062 -9.59011,0.60565 -3.77852,0.59542 -8.95391,1.91104 -12.58477,3.19929 -3.64076,1.29177 -9.70569,4.20994 -12.92892,6.22081 -8.29431,5.17449 -16.22405,12.92945 -21.34857,20.87831 -5.6144,8.70871 -9.06624,18.17149 -10.42934,28.59153 -0.55355,4.22911 -0.55444,12.78337 -0.002,17.02325 3.41561,26.21724 21.39094,47.94868 46.51448,56.2343 4.49163,1.48135 9.81681,2.57046 15.41715,3.15329 h 0.001 c 2.29529,0.23887 12.66589,-0.0902 15.30915,-0.48575 14.88976,-2.22797 27.79269,-8.73201 38.46018,-19.38745 10.66277,-10.65071 17.09569,-23.51437 19.40502,-38.80332 0.6393,-4.23245 0.63974,-14.13483 5.1e-4,-18.49861 -2.26335,-15.45091 -9.05967,-28.80298 -20.13675,-39.56399 -11.21109,-10.89116 -25.23221,-17.42244 -40.73705,-18.97456 -1.01161,-0.10134 -2.34,-0.16337 -3.8225,-0.19017 -1.11188,-0.0201 -2.31067,-0.0204 -3.52744,-0.003 z m 0.0212,2.05207 c 1.17981,-0.0173 2.34235,-0.0169 3.42046,0.003 1.43748,0.026 2.72537,0.0863 3.70624,0.18448 15.03388,1.50529 28.62935,7.83901 39.49991,18.40146 10.74063,10.43621 17.33029,23.38569 19.52491,38.37027 0.61981,4.23208 0.61936,13.83527 -5.2e-4,17.93999 -2.23919,14.8275 -8.47649,27.30308 -18.81539,37.63233 -10.34347,10.33384 -22.85428,16.64174 -37.29178,18.80247 -2.56298,0.38357 -12.61901,0.70243 -14.84457,0.47077 h -5.2e-4 c -5.43023,-0.56524 -10.59376,-1.62159 -14.94896,-3.05821 -24.36043,-8.03556 -41.78978,-29.11076 -45.10164,-54.53672 -0.53559,-4.11192 -0.53462,-12.40812 0.002,-16.50959 1.3217,-10.10555 4.6687,-19.28267 10.11256,-27.72854 4.96887,-7.70895 12.65766,-15.23004 20.70003,-20.24838 3.12533,-1.95016 9.00601,-4.77993 12.53618,-6.0327 3.52057,-1.24936 8.5386,-2.52574 12.20236,-3.10317 2.06165,-0.32493 5.75924,-0.53519 9.29866,-0.58705 z" />
    </g>
  </g>
</svg>
