<?xml version="1.0" encoding="UTF-8" standalone="no"?>
<!-- Created with Inkscape (http://www.inkscape.org/) -->

<svg
   width="135.99976mm"
   height="136.00031mm"
   viewBox="0 0 135.99975 136.00031"
   version="1.1"
   id="svg1"
   xmlns="http://www.w3.org/2000/svg"
   xmlns:svg="http://www.w3.org/2000/svg">
  <defs
     id="defs1" />
  <g
     id="layer1"
     transform="translate(-37.103316,-80.259519)">
    <path
       id="path314"
       style="fill:#37a6d1;fill-opacity:1"
       d="m 104.40059,80.272061 v 5.17e-4 c -3.65028,0.0535 -7.463866,0.270618 -9.590106,0.605648 -3.77852,0.595419 -8.95391,1.911039 -12.58476,3.199288 -3.64076,1.291768 -9.7057,4.209945 -12.92893,6.220809 -8.2943,5.174484 -16.22405,12.929457 -21.34857,20.878317 -5.61439,8.7087 -9.06624,18.1715 -10.42933,28.59153 -0.55355,4.22911 -0.55399,12.78338 -0.002,17.02325 3.4156,26.21721 21.39095,47.94868 46.51447,56.2343 4.49162,1.48134 9.81681,2.57046 15.41715,3.15329 h 5.1e-4 c 2.295286,0.23887 12.665886,-0.0902 15.309146,-0.48576 14.88974,-2.22797 27.7927,-8.73201 38.46018,-19.38745 10.66276,-10.65069 17.09569,-23.51438 19.40502,-38.80331 0.6393,-4.23245 0.63974,-14.13484 5.1e-4,-18.49861 -2.26334,-15.4509 -9.05968,-28.803 -20.13675,-39.563997 -11.21108,-10.891145 -25.23222,-17.422434 -40.73705,-18.974552 -1.01161,-0.10134 -2.34001,-0.163369 -3.8225,-0.190169 -1.11188,-0.0201 -2.31067,-0.0205 -3.52744,-0.0031 z m 0.0212,2.052588 c 1.17981,-0.0173 2.34235,-0.0168 3.42046,0.0031 1.43748,0.026 2.72537,0.08631 3.70624,0.184485 15.03386,1.505288 28.62936,7.839021 39.49991,18.401456 10.74062,10.4362 17.33029,23.38571 19.52491,38.37027 0.61981,4.23208 0.61936,13.83528 -5.2e-4,17.93999 -0.68377,4.52781 -1.74523,8.83338 -3.17758,12.92841 -0.3904,1.11612 -0.81153,2.21502 -1.25781,3.29954 0.44622,-1.08472 0.86736,-2.18329 1.25781,-3.29954 -0.831,2.31421 -1.78636,4.57949 -2.88355,6.81457 -3.0366,6.18584 -6.92586,11.74418 -11.498,16.56643 0.35488,-0.3732 0.71896,-0.74168 1.0635,-1.12034 -0.74037,0.81351 -1.49706,1.61866 -2.28514,2.40709 0.33555,-0.3357 0.6462,-0.6845 0.97307,-1.02475 -10.17317,10.61224 -23.69117,17.5916 -38.79815,19.65875 -3.74641,0.51264 -10.34571,0.71208 -13.89062,0.41961 -15.363126,-1.26748 -29.441106,-7.589 -40.499346,-18.18545 -13.22895,-12.67649 -20.35483,-29.37341 -20.35483,-47.69321 0,-5.68868 0.64238,-11.03434 1.96887,-16.28428 -0.34179,1.32915 -0.64666,2.67414 -0.91467,4.03542 0.30899,-1.59826 0.68357,-3.16797 1.10019,-4.71961 5.1e-4,-0.002 10e-4,-0.004 0.002,-0.006 0.46743,-1.74025 0.98748,-3.45795 1.59112,-5.14181 0.0434,-0.12105 0.0794,-0.2451 0.12351,-0.36587 1.68123,-4.60386 3.87497,-9.00167 6.59184,-13.21676 4.96887,-7.70894 12.65767,-15.230044 20.70003,-20.248379 3.12533,-1.950154 9.00602,-4.779938 12.53619,-6.032707 3.52056,-1.249359 8.5386,-2.52574 12.20235,-3.10317 2.06165,-0.32493 5.759236,-0.535184 9.298656,-0.587044 z m 48.3433,111.470711 c 0.0833,-0.0869 0.1657,-0.1746 0.24857,-0.262 -0.083,0.0872 -0.16503,0.17505 -0.24857,0.262 z M 102.19297,87.405476 v 0.661458 c 0,0.57956 0.11466,0.661459 0.92605,0.661459 h 0.92604 v 1.719791 c 0,1.658088 0.0238,1.719792 0.66146,1.719792 0.63706,0 0.66145,-0.06275 0.66145,-1.703772 v -1.703772 l 0.99219,-0.08217 c 0.79698,-0.066 1.00904,-0.199298 1.07694,-0.677478 0.0829,-0.583519 0.0319,-0.595312 -2.57969,-0.595312 z m 6.7815,0.264583 c -0.5188,0 -0.65492,0.171009 -0.79065,0.992188 -0.32722,1.979655 -0.20665,3.457326 0.29301,3.587894 0.25467,0.06659 0.53587,0.135029 0.62477,0.151929 0.18628,0.03539 0.49464,-2.278935 0.49764,-3.739823 0.002,-0.867979 -0.0764,-0.992188 -0.62477,-0.992188 z m -9.022696,0.03359 v 5.17e-4 c -0.35844,-0.0227 -0.79499,-0.01855 -1.32189,0.0078 -2.46808,0.12463 -2.89308,0.464352 -2.82618,2.259811 0.0631,1.693413 0.24566,2.191462 0.89142,2.430342 0.71054,0.26285 3.334956,0.05465 4.174936,-0.331246 0.90761,-0.416969 1.09482,-1.754931 0.24546,-1.754931 -0.32104,0 -0.71589,0.16464 -0.87746,0.365869 -0.16156,0.20123 -0.801536,0.428063 -1.422136,0.504362 -0.93426,0.11479 -1.17599,0.04921 -1.4056,-0.379822 -0.15255,-0.28499 -0.24032,-0.779765 -0.19482,-1.099675 0.0668,-0.469749 0.31177,-0.613828 1.27331,-0.749308 0.65485,-0.0923 1.30405,-0.06245 1.44229,0.06615 0.477236,0.4441 1.468116,0.266496 1.468116,-0.263033 0,-0.678399 -0.37211,-0.988783 -1.447446,-1.056783 z m 11.843716,0.283704 c -1.02807,0.0961 -1.22771,0.650545 -1.34669,2.295467 -0.12537,1.733246 0.15113,2.11758 1.74615,2.427758 2.49206,0.48462 3.75636,0.201619 3.75636,-0.841809 0,-0.568858 -1.0421,-0.948616 -1.32912,-0.484208 -0.22569,0.36518 -2.26075,0.209898 -2.67477,-0.204122 -0.1297,-0.12972 -0.15759,-0.628691 -0.0615,-1.108976 0.17284,-0.864199 0.18792,-0.872389 1.43661,-0.752409 0.694,0.0667 1.45883,0.318329 1.69964,0.559139 0.6455,0.645495 1.19372,0.545559 1.19372,-0.217558 0,-0.944309 -0.97704,-1.46317 -3.0887,-1.64021 -0.55451,-0.0465 -0.989,-0.06507 -1.3317,-0.03307 z m -19.517666,0.79685 c -0.17208,-0.0423 -0.60991,0.0361 -0.97307,0.17415 -0.55211,0.209909 -0.7554,0.612795 -1.23972,2.458248 -0.31857,1.213866 -0.57767,2.295881 -0.57567,2.405021 0.002,0.10914 0.31245,0.198437 0.68988,0.198437 0.45986,0 0.73097,-0.171643 0.82217,-0.520381 0.14328,-0.54792 0.39013,-0.664975 1.99729,-0.949813 0.6568,-0.11641 0.99219,-0.07682 0.99219,0.117822 0,0.31917 0.76394,0.390582 1.43299,0.133842 0.32849,-0.12605 0.0703,-0.564473 -1.20768,-2.050521 -0.89403,-1.0396 -1.7663,-1.924605 -1.93838,-1.966805 z m 27.829306,0.677478 c -0.44836,0.0157 -0.8603,0.396477 -2.17145,1.714624 -1.80582,1.815456 -1.83664,1.868921 -1.23506,2.138371 0.44425,0.19898 0.75808,0.188318 1.12086,-0.03824 0.38981,-0.243208 0.77409,-0.241994 1.69809,0.0052 0.65685,0.17568 1.19424,0.405107 1.19424,0.510046 0,0.104879 0.18749,0.377576 0.41599,0.606165 0.22867,0.228679 0.62313,0.415995 0.87695,0.415995 0.4344,0 0.43087,-0.147591 -0.0641,-2.517676 -0.50437,-2.415266 -0.55912,-2.527193 -1.34048,-2.749703 -0.19221,-0.0547 -0.3456,-0.09005 -0.49506,-0.08475 z m -32.291056,0.422197 c -0.37846,0.0545 -0.98698,0.231969 -2.01073,0.559139 -2.33635,0.746648 -2.61995,0.96468 -2.17299,1.669148 0.16544,0.26078 0.39216,0.274044 0.9648,0.05633 0.90433,-0.34382 1.00313,-0.248479 1.57716,1.520837 0.44592,1.374457 0.72575,1.598729 1.43454,1.149801 0.30433,-0.19276 0.27539,-0.497256 -0.17621,-1.834514 l -0.54157,-1.603519 0.90382,-0.29869 c 0.96346,-0.31797 1.03588,-0.43307 0.65215,-1.03973 -0.10419,-0.16471 -0.25251,-0.23331 -0.63097,-0.1788 z m 4.04834,0.432015 c 0.3312,0 1.07862,0.960013 0.89245,1.146183 -0.0973,0.09737 -0.43822,0.176733 -0.75758,0.176733 -0.47673,0 -0.55804,-0.11843 -0.45423,-0.661458 0.0695,-0.3638 0.21336,-0.661458 0.31936,-0.661458 z m 28.202926,0.644405 c 0.0897,-0.0026 0.1415,0.09512 0.21704,0.291972 0.0908,0.236458 0.16484,0.59874 0.16484,0.805118 0,0.38548 -0.0661,0.40072 -0.85989,0.19327 -0.59429,-0.15531 -0.58521,-0.418763 0.0336,-0.978751 0.22732,-0.20574 0.35477,-0.308981 0.44442,-0.311609 z m 4.90667,0.08888 c -0.51749,-0.06178 -0.70777,0.187927 -1.35857,1.780253 -0.41633,1.018648 -0.76295,1.971147 -0.76895,2.116667 -0.006,0.14552 0.7915,0.579002 1.77251,0.962732 2.16539,0.846978 2.34482,0.870343 2.54971,0.336413 0.2301,-0.599608 0.0628,-0.766167 -1.28674,-1.281575 -0.6596,-0.2519 -1.19949,-0.537487 -1.19941,-0.634587 7e-5,-0.0971 0.24332,-0.816364 0.54053,-1.598352 0.29722,-0.781988 0.4986,-1.46407 0.447,-1.51567 -0.0516,-0.05162 -0.36503,-0.126381 -0.69608,-0.165881 z m -45.326426,1.892391 c -0.32516,0.07799 -0.91893,0.372891 -2.08308,0.957564 -2.15371,1.081677 -2.34547,1.239405 -2.09031,1.716175 0.26154,0.488708 0.33381,0.49701 1.0511,0.12609 0.42375,-0.21914 0.81445,-0.398425 0.86765,-0.398425 0.0532,0 0.43523,0.708783 0.84904,1.574581 0.68655,1.436416 0.80072,1.548723 1.30535,1.286743 0.30417,-0.15791 0.5887,-0.316217 0.632,-0.351917 0.0433,-0.03571 -0.25459,-0.743442 -0.66146,-1.57303 -0.71725,-1.462438 -0.72416,-1.519747 -0.23926,-1.874304 0.27506,-0.20114 0.61804,-0.405103 0.76223,-0.453203 0.1443,-0.04808 0.17945,-0.347502 0.0786,-0.665592 -0.0901,-0.283835 -0.14666,-0.422672 -0.47181,-0.344682 z M 132.8402,94.60245 c -0.45911,-0.0737 -0.77664,0.06969 -1.07952,0.409794 -0.74158,0.832738 -1.53831,2.625029 -1.36633,3.073197 0.0926,0.2412 0.95837,0.912756 1.92443,1.492416 2.00082,1.200503 2.40774,1.269683 3.08302,0.523483 0.46774,-0.516801 0.46725,-0.545131 -0.0248,-0.915191 -0.27931,-0.21001 -0.71202,-0.320363 -0.96119,-0.245463 -0.47778,0.14364 -1.3591,-0.225466 -2.11666,-0.885734 -0.4101,-0.35748 -0.4159,-0.467249 -0.0594,-1.156518 0.21662,-0.418899 0.58532,-0.761711 0.81907,-0.761711 0.5913,0 2.2071,1.034772 2.2071,1.41335 0,0.1714 0.23471,0.458111 0.52142,0.637171 0.44294,0.276618 0.56363,0.246338 0.80305,-0.201022 0.41947,-0.783788 -0.0358,-1.406596 -1.82056,-2.490804 -0.86974,-0.528338 -1.47048,-0.81927 -1.9296,-0.892968 z m -58.343206,1.174605 c -0.28149,-0.0259 -0.8382,0.262538 -2.04122,1.012341 -1.10686,0.68988 -2.0128,1.353963 -2.0128,1.475362 0,0.1214 0.4981,1.002039 1.10691,1.956992 0.6088,0.95493 1.21858,1.73581 1.35496,1.73581 0.13638,0 1.12151,-0.55316 2.18901,-1.22939 1.67452,-1.060944 1.90486,-1.296738 1.67845,-1.719788 -0.14432,-0.269649 -0.31553,-0.490409 -0.38033,-0.490409 -0.0648,0 -0.76817,0.41642 -1.56322,0.925008 -0.90885,0.581359 -1.50989,0.820459 -1.61902,0.643889 -0.0954,-0.154469 -0.13217,-0.311083 -0.0811,-0.347783 0.051,-0.03669 0.65779,-0.415756 1.34875,-0.842326 1.34484,-0.830248 1.36533,-0.857331 1.02785,-1.389579 -0.17313,-0.27306 -0.50239,-0.171729 -1.50327,0.463021 -0.70473,0.446918 -1.37694,0.812353 -1.49396,0.812353 -0.5543,0 -0.091,-0.552218 1.11,-1.322916 1.39622,-0.89595 1.45151,-0.97504 1.08263,-1.557528 -0.0463,-0.07314 -0.10978,-0.116422 -0.20361,-0.125057 z m 30.824986,0.344682 c -8.597566,-0.0027 -15.518446,1.586887 -23.105046,5.307173 -19.84644,9.73222 -31.38558,31.2428 -28.55071,53.22259 2.99714,23.23801 21.65514,41.93435 44.82259,44.91405 2.881366,0.37058 11.009616,0.31222 13.890616,-0.0997 8.44546,-1.20764 16.20923,-4.32514 23.23786,-9.33121 2.49824,-1.77936 7.78524,-6.80119 9.96373,-9.46351 3.71346,-4.53818 7.04353,-10.6348 8.96018,-16.40416 4.23679,-12.75329 3.3034,-26.73909 -2.59571,-38.89375 -2.84767,-5.86741 -5.88143,-9.97753 -11.03343,-14.94896 -4.56713,-4.40704 -9.00512,-7.41581 -14.642,-9.92704 -6.70932,-2.989008 -13.33524,-4.373446 -20.94808,-4.375447 z m -0.14676,1.952852 c 7.3954,0.0034 14.80662,1.693438 21.7563,5.070491 5.76547,2.80161 9.54214,5.57902 14.32264,10.53269 3.57916,3.70882 5.90576,6.96279 8.26719,11.56312 2.03077,3.95617 3.18252,7.00165 4.15324,10.98021 2.29542,9.40798 1.78298,19.28702 -1.4826,28.575 -1.15877,3.2958 -4.1556,9.03429 -6.28334,12.0313 -1.97408,2.78058 -6.58303,7.69301 -9.2847,9.89604 -7.55727,6.16244 -17.18352,10.06271 -27.15493,11.00295 v 5.1e-4 c -8.69803,0.82019 -17.609506,-0.82631 -25.758116,-4.75888 -14.43641,-6.96712 -24.39642,-19.86213 -27.60452,-35.7389 -0.53336,-2.63967 -0.60926,-3.79262 -0.60926,-9.23406 0,-5.44144 0.0759,-6.59388 0.60926,-9.23355 3.19778,-15.8257 13.01477,-28.58947 27.40867,-35.63607 6.88536,-3.370775 14.26476,-5.054207 21.660166,-5.050851 z m 33.16232,0.08475 c -0.59266,0.008 -1.05352,0.496377 -1.75597,1.604037 -0.67266,1.060664 -0.72574,1.283924 -0.43563,1.837614 0.18164,0.34668 0.98061,1.1038 1.7756,1.68258 1.95564,1.42378 2.68823,1.35503 3.86902,-0.36276 0.48606,-0.70711 0.88366,-1.40715 0.88366,-1.55598 0,-0.40677 -1.73546,-1.962583 -3.04684,-2.731101 -0.53125,-0.311332 -0.93424,-0.479163 -1.28984,-0.47439 z m -69.008706,0.898137 c -0.33429,0.06121 -0.92861,0.456692 -1.96835,1.290364 l -1.89188,1.5167 1.35134,1.7663 c 0.74331,0.97149 1.45248,1.7663 1.57561,1.7663 0.12313,0 1.06193,-0.66856 2.0867,-1.48621 1.67868,-1.33939 1.82326,-1.52743 1.45572,-1.89498 -0.36754,-0.36754 -0.55184,-0.29921 -1.85776,0.68678 -0.91173,0.68834 -1.4891,0.97481 -1.5565,0.77256 -0.059,-0.17685 0.40809,-0.7152 1.03818,-1.1963 1.09364,-0.83506 1.41381,-1.44721 0.91674,-1.75442 -0.12606,-0.0779 -0.77473,0.28326 -1.44125,0.80254 -0.66652,0.51927 -1.3384,0.86599 -1.49294,0.77049 -0.16058,-0.0992 0.28713,-0.62253 1.04438,-1.22111 1.3995,-1.106242 1.52661,-1.333107 0.99426,-1.772505 -0.0606,-0.05001 -0.14283,-0.06691 -0.25425,-0.04651 z m 69.315666,0.404626 1.08882,0.754478 c 1.11905,0.7755 1.27818,1.15745 0.83147,1.99213 -0.41617,0.77766 -0.88817,0.78953 -1.92649,0.0491 -1.10189,-0.78577 -1.21528,-1.2876 -0.49248,-2.18023 z m 5.47253,2.492868 -1.69189,1.70688 c -1.44568,1.45869 -1.64198,1.76676 -1.3503,2.11821 0.53477,0.64436 0.95624,0.49582 1.97559,-0.69504 0.52066,-0.60828 0.94564,-1.05479 0.94464,-0.99219 -0.001,0.0626 -0.22612,0.85107 -0.50022,1.75235 -0.47138,1.55002 -0.47381,1.66108 -0.0424,2.05155 0.41442,0.37504 0.59764,0.36445 1.99936,-0.11782 0.84858,-0.29195 1.58058,-0.4932 1.62678,-0.447 0.0462,0.0462 -0.38812,0.54535 -0.96532,1.10897 -0.99302,0.96966 -1.02579,1.05108 -0.6072,1.51361 0.42462,0.4692 0.50913,0.42229 2.11357,-1.16789 l 1.67173,-1.65675 -0.76533,-0.76533 -0.76481,-0.76481 -1.36994,0.45476 c -0.75345,0.25026 -1.43007,0.39514 -1.50327,0.32194 -0.0732,-0.0732 0.0549,-0.76607 0.28474,-1.53996 l 0.41806,-1.40715 -0.7369,-0.7369 z m -38.44468,2.38746 c -0.0945,0.002 -0.92912,1.02312 -1.85467,2.26911 -5.470546,7.36451 -10.991276,18.61566 -14.738116,30.03641 l -1.26865,3.86643 -2.53215,1.24953 c -8.60801,4.24725 -14.65946,8.28187 -16.42897,10.95334 -1.04674,1.58027 -1.04561,2.68729 0.003,3.56981 1.28236,1.07903 3.18099,1.31724 9.32915,1.1715 3.01955,-0.0716 5.4901,-0.0914 5.4901,-0.0439 0,0.0475 -0.35515,2.26376 -0.7891,4.92477 -1.05317,6.45808 -2.37535,18.23309 -2.38435,21.22919 -0.002,0.64175 -0.0171,0.65872 2.51044,-2.8975 11.58274,-16.29698 24.304126,-26.8552 32.356676,-26.8552 1.2015,0 1.44723,0.11275 2.69493,1.23455 3.19317,2.87093 7.38156,10.82076 11.51558,21.85758 0.69639,1.85917 1.30173,3.34453 1.34513,3.30109 0.1694,-0.1694 -0.73881,-9.30289 -1.36167,-13.69322 -0.63221,-4.45633 -2.61536,-14.7656 -3.40031,-17.67644 -0.34586,-1.28263 -0.34061,-1.41827 0.0641,-1.55857 1.71499,-0.59458 6.45298,-2.61633 8.25273,-3.52123 1.19204,-0.59935 2.19608,-1.05225 2.23138,-1.00665 0.0353,0.0456 -0.0185,0.85658 -0.11989,1.80247 -0.29426,2.74587 0.07,2.83637 1.53996,0.38189 l 1.03922,-1.73478 1.01647,1.73788 c 0.5592,0.95597 1.14022,1.69509 1.29088,1.64279 0.1675,-0.0582 0.24137,-0.9072 0.19017,-2.18591 l -0.0837,-2.09083 1.9358,-0.88677 1.9358,-0.88728 -1.05833,-0.35553 c -0.58208,-0.19547 -1.54569,-0.48018 -2.14147,-0.63304 l -1.08314,-0.27802 -0.71417,-6.0203 c -0.39276,-3.31109 -0.77828,-6.34773 -0.85628,-6.74791 -0.15521,-0.79592 -0.8877,-1.01046 -0.9033,-0.26459 -0.0309,1.47619 -1.55526,12.84677 -1.74563,13.02091 -0.12585,0.11511 -1.03261,0.4718 -2.01487,0.79272 -0.98227,0.32092 -1.78594,0.67674 -1.78594,0.79065 0,0.11391 0.44648,0.37909 0.99219,0.58963 l 0.99219,0.38292 -4.88342,1.63556 c -2.68595,0.89953 -4.95757,1.54723 -5.04827,1.43919 -0.0906,-0.10805 -0.55662,-1.56611 -1.03508,-3.2396 -2.46037,-8.60535 -6.75212,-18.94894 -10.81381,-26.06148 -2.45242,-4.29449 -7.20536,-11.25117 -7.68067,-11.24117 z m -43.259886,0.46095 c -0.0973,0.0246 -0.1948,0.0847 -0.31213,0.17053 -0.58677,0.42906 -0.57566,0.4483 1.57562,2.73834 0.58098,0.61846 1.12479,1.12447 1.20819,1.12447 0.0834,0 0.83659,-0.69186 1.6738,-1.53789 1.46145,-1.47686 1.50256,-1.55577 1.03353,-1.98024 -0.46217,-0.41825 -0.54429,-0.38563 -1.5198,0.6134 l -1.03095,1.05627 -1.21336,-1.19528 c -0.83124,-0.81874 -1.12292,-1.06328 -1.4149,-0.9896 z m 43.249036,0.85834 c 0.11475,0 0.89946,0.95335 1.74356,2.11822 5.15415,7.11266 10.32546,17.30505 13.69115,26.98595 1.27667,3.67216 3.359,10.37828 3.25045,10.46758 -0.0335,0.0276 -0.31408,0.12793 -0.62322,0.22273 -0.48989,0.15029 -0.59968,0.0222 -0.85627,-0.99684 -1.38392,-5.49603 -5.3963,-16.16204 -8.37469,-22.26118 -2.77984,-5.69256 -8.13228,-14.41979 -8.84339,-14.41979 -0.33315,0 -4.22726,6.07662 -6.070936,9.47332 -4.68879,8.63839 -8.64443,19.12052 -11.55175,30.61106 -1.33163,5.26295 -1.44048,5.56056 -2.05931,5.63738 l -0.65319,0.0811 0.64131,-2.71353 c 3.47073,-14.68599 8.64307,-28.08458 14.711236,-38.10827 1.93213,-3.19158 4.68097,-7.09776 4.99505,-7.09776 z m -44.940926,0.74466 c -0.0357,0.0282 -0.73304,0.77816 -1.54978,1.66657 l -1.48518,1.6154 1.68259,1.54616 c 0.92525,0.8504 1.73239,1.55156 1.79369,1.55856 0.0613,0.007 0.33106,-0.18603 0.59944,-0.42891 0.47303,-0.42812 0.47055,-0.46006 -0.0765,-1.04232 l -0.5643,-0.60048 0.96014,-1.17202 c 0.87293,-1.0653 0.92077,-1.20421 0.52555,-1.5322 -0.38144,-0.31657 -0.56107,-0.21842 -1.46709,0.80253 -0.68431,0.77113 -1.1212,1.07505 -1.29553,0.90072 -0.17432,-0.17433 0.1126,-0.68967 0.8506,-1.52807 1.04621,-1.18858 1.08255,-1.28218 0.60254,-1.55081 -0.28099,-0.15729 -0.54039,-0.26333 -0.57619,-0.23513 z m 89.494276,1.63349 -1.77405,1.39062 c -0.97586,0.76495 -1.77567,1.4501 -1.77767,1.5229 -0.002,0.0728 0.16777,0.35854 0.37672,0.63459 0.365,0.4822 0.42712,0.46296 1.57923,-0.48111 0.65955,-0.54044 1.19889,-0.92998 1.19889,-0.86558 0,0.0644 -0.30144,0.79957 -0.67024,1.63349 -0.86519,1.95636 -0.61239,2.38691 1.25729,2.13889 0.69931,-0.0928 1.47827,-0.23473 1.73116,-0.31523 0.25289,-0.0805 -0.0717,0.32751 -0.7214,0.90641 -1.04112,0.92761 -1.13816,1.10452 -0.81752,1.49086 0.2001,0.24107 0.52773,0.37559 0.72812,0.29869 0.54236,-0.20812 3.22353,-2.3651 3.24063,-2.60707 0.008,-0.11504 -0.23321,-0.5449 -0.53641,-0.95498 l -0.55138,-0.74569 -1.56528,0.32659 c -0.88635,0.18492 -1.5658,0.22196 -1.5658,0.0847 0,-0.13328 0.23813,-0.70954 0.52917,-1.28002 0.66828,-1.31 0.6619,-1.55374 -0.0672,-2.44895 z m -93.328146,3.05615 c -0.6178,0.23707 -3.1959,3.84878 -2.93367,4.10982 0.12011,0.11957 0.93245,0.75612 1.80557,1.41491 0.87312,0.65878 1.64828,1.20109 1.72238,1.20509 0.0741,0.004 0.29673,-0.25222 0.49454,-0.56896 0.31195,-0.49955 0.30033,-0.61917 -0.0868,-0.90227 -0.41307,-0.30204 -0.40072,-0.39773 0.16692,-1.28209 0.49543,-0.77185 0.73274,-0.92684 1.23403,-0.80615 0.60671,0.14606 1.36374,-0.24029 1.36374,-0.69608 0,-0.12587 -0.44649,-0.52664 -0.99219,-0.89091 -0.5457,-0.36427 -1.29556,-0.90709 -1.66656,-1.20612 -0.39135,-0.31545 -0.85647,-0.47374 -1.10794,-0.37724 z m 60.603016,1.20096 c -0.27686,0.008 -0.56377,0.17112 -0.75345,0.52555 -0.21842,0.40815 -0.21003,0.64543 0.0336,0.93896 0.49042,0.59093 1.41426,0.34958 1.51981,-0.39688 0.0945,-0.66808 -0.33851,-1.08185 -0.79995,-1.06763 z m -60.174626,0.51573 c 0.10661,-0.0238 0.20047,-0.0191 0.27286,0.0165 0.0965,0.0476 0.15502,0.1508 0.15502,0.31729 0,0.18739 -0.32743,0.73087 -0.7276,1.20768 -0.56105,0.66848 -0.7987,0.79484 -1.0387,0.55191 -0.23899,-0.24191 -0.17756,-0.5217 0.26459,-1.20458 0.31887,-0.49249 0.75401,-0.81747 1.07383,-0.88884 z m 31.34124,1.39165 c -0.19994,-0.0283 -0.41451,-0.0183 -0.63975,0.0382 -1.33414,0.33485 -1.7351,1.92823 -0.73639,2.92695 0.4175,0.41749 1.60907,0.52874 2.10685,0.19637 1.35363,-0.90384 0.66885,-2.96378 -0.73071,-3.16156 z m 37.669016,0.48007 c -0.32188,-0.0196 -0.66034,0.148 -0.98237,0.50384 -0.3965,0.43812 -0.42742,0.64497 -0.1788,1.19063 0.22304,0.48952 0.5052,0.65991 1.09089,0.65991 1.08147,0 1.54243,-0.83923 0.95395,-1.73736 -0.2562,-0.39101 -0.56179,-0.59744 -0.88367,-0.61702 z m 30.2395,1.82779 -2.51354,0.16744 c -1.38245,0.0922 -2.55925,0.20708 -2.61535,0.25528 -0.24828,0.21319 0.80026,1.39593 1.12655,1.27072 0.47381,-0.18182 1.81372,2.07262 1.58543,2.66754 -0.0918,0.23913 -0.0121,0.7242 0.17725,1.07797 0.18933,0.35376 0.39632,0.59122 0.45992,0.52762 0.0636,-0.0636 0.6837,-1.09119 1.37821,-2.28359 1.24087,-2.13044 1.25568,-2.1809 0.83251,-2.9254 z m -76.103876,0.60255 c -0.18134,-0.035 -0.38882,-0.0264 -0.61754,0.031 -0.78458,0.19692 -1.1611,1.28495 -0.65525,1.89446 0.20456,0.24649 0.66003,0.37583 1.15445,0.32763 0.69746,-0.0681 0.82745,-0.19862 0.89555,-0.89607 0.0736,-0.75439 -0.23317,-1.25215 -0.77721,-1.35702 z m 75.464126,0.70228 -0.41445,0.80151 c -0.22795,0.44082 -0.44246,0.8015 -0.47646,0.8015 -0.12147,0 -0.75303,-1.11084 -0.67024,-1.17874 0.0465,-0.0381 0.41657,-0.14952 0.82269,-0.24702 z m -101.502846,0.0155 c -2.33001,0 -2.45924,0.0308 -2.88665,0.68317 -0.53296,0.81339 -0.52901,0.82547 1.05782,3.30109 l 1.24695,1.9451 0.48731,-0.60152 c 0.3779,-0.46668 0.42227,-0.70528 0.19792,-1.06453 -0.22867,-0.36615 -0.14303,-0.6945 0.40928,-1.56941 0.40414,-0.64019 0.90162,-1.1064 1.18132,-1.1064 0.48518,0 1.20107,-1.1316 0.90382,-1.42885 -0.0873,-0.0873 -1.25631,-0.15865 -2.59777,-0.15865 z m -1.50947,1.36116 c 0.0494,0.004 0.11988,0.0268 0.21291,0.0625 0.235,0.0901 0.59698,0.16382 0.8046,0.16382 0.31124,0 0.31954,0.0928 0.047,0.52916 -0.43329,0.69382 -0.58412,0.6683 -0.96325,-0.16381 -0.20629,-0.45275 -0.24942,-0.60443 -0.10128,-0.5917 z m 69.917686,0.22634 c -0.24592,0 -0.66314,0.23908 -0.92707,0.53072 -0.39649,0.43812 -0.42742,0.64497 -0.1788,1.19063 0.22486,0.49352 0.50422,0.6599 1.10587,0.6599 1.1071,0 1.63978,-1.06302 0.92708,-1.85053 -0.26392,-0.29164 -0.68115,-0.53072 -0.92708,-0.53072 z m 35.85415,1.71256 c -0.40976,0.0305 -1.07041,0.34619 -2.31821,0.97204 -1.65506,0.83011 -1.64691,0.81994 -1.24747,1.56631 0.26669,0.4983 0.30763,0.49424 1.57872,-0.14986 0.7177,-0.36369 1.37012,-0.66146 1.44952,-0.66146 0.0794,0 -0.25684,0.80367 -0.74672,1.78594 -0.83277,1.66979 -0.86686,1.84185 -0.53124,2.64583 0.19743,0.47294 0.49778,0.85989 0.66766,0.85989 0.58622,0 3.92263,-1.66619 3.91863,-1.95698 -0.002,-0.16036 -0.11493,-0.46754 -0.25063,-0.68213 -0.21208,-0.33538 -0.42031,-0.30551 -1.48312,0.21084 -0.68003,0.33039 -1.28922,0.54787 -1.35392,0.48317 -0.0647,-0.0647 0.2594,-0.86501 0.72037,-1.77818 0.81731,-1.61909 0.82728,-1.68254 0.41031,-2.55695 -0.24541,-0.51463 -0.40414,-0.76898 -0.8139,-0.73846 z m -108.667786,0.40825 c -0.10214,-0.002 -0.6727,1.0357 -1.26814,2.30631 -0.99315,2.11933 -1.04605,2.33746 -0.63562,2.63757 0.55798,0.40801 0.74508,0.29465 1.15652,-0.69867 l 0.32711,-0.78909 1.55081,0.78289 c 1.49808,0.75624 1.55994,0.76555 1.82418,0.27182 0.43867,-0.81967 0.34798,-0.95096 -1.11569,-1.61489 -0.76398,-0.34655 -1.43487,-0.66065 -1.49087,-0.69815 -0.056,-0.0375 0.0525,-0.43986 0.24081,-0.89451 0.2869,-0.69257 0.28197,-0.8652 -0.0305,-1.06299 -0.20512,-0.12985 -0.45648,-0.23829 -0.55862,-0.24029 z m 37.60856,1.05833 c -1.58954,-0.009 -2.31972,1.65368 -1.21233,2.76107 1.02103,1.02103 2.32772,0.76721 2.82825,-0.54932 0.42729,-1.12385 -0.36203,-2.20475 -1.61592,-2.21175 z m 40.893626,0.52503 c -1.05614,0 -1.61498,1.32181 -0.87282,2.06396 0.43943,0.43941 1.15279,0.39699 1.64796,-0.0982 0.79915,-0.79915 0.33906,-1.96577 -0.77514,-1.96577 z m -51.547756,0.39688 -0.5023,1.71979 c -0.83958,2.87214 -0.72999,2.75047 -2.95382,3.27473 -1.10928,0.26151 -1.96294,0.56255 -1.89704,0.66921 0.0659,0.10666 1.00813,0.41549 2.09341,0.68575 l 1.97301,0.49093 0.59169,2.20245 c 0.3255,1.2112 0.61766,2.20193 0.64906,2.20193 0.0314,0 0.32355,-0.99073 0.64905,-2.20193 l 0.5917,-2.20245 1.973,-0.49093 c 1.08527,-0.27026 2.02548,-0.57627 2.08928,-0.67955 0.0638,-0.10327 -0.80516,-0.41373 -1.93166,-0.69039 -2.27453,-0.55863 -2.06872,-0.29939 -3.0055,-3.78892 z m 29.190456,0.39687 c 0.42515,0 0.5153,0.2305 0.5824,1.49242 l 0.0791,1.49241 1.45521,0.36484 c 2.76797,0.69428 4.9556,2.85825 5.73919,5.67665 l 0.43304,1.55702 h 1.4118 c 1.23544,0 1.4118,0.0661 1.4118,0.52916 0,0.46507 -0.17638,0.52917 -1.4552,0.52917 -1.1017,0 -1.45521,0.0946 -1.45521,0.38809 0,0.80467 -0.88805,2.96148 -1.66605,4.04626 -1.0021,1.3973 -2.8642,2.6176 -4.63641,3.03858 l -1.34772,0.31987 -0.0775,1.44075 c -0.0719,1.33538 -0.38311,1.88237 -0.82165,1.44384 -0.1,-0.10005 -0.1819,-0.78899 -0.1819,-1.53066 v -1.34824 l -1.35909,-0.32298 c -2.9554,-0.70204 -5.436276,-3.17775 -6.083866,-6.07146 l -0.31425,-1.40405 h -1.41283 c -1.23672,0 -1.41336,-0.0661 -1.41336,-0.52917 0,-0.46357 0.17629,-0.52916 1.42369,-0.52916 h 1.4242 l 0.31316,-1.25677 c 0.79967,-3.20641 3.285696,-5.60163 6.363946,-6.13141 0.92019,-0.15836 0.92683,-0.16866 1.00563,-1.6769 0.0673,-1.2871 0.15557,-1.51826 0.58187,-1.51826 z m 25.77673,3.21376 c -0.50062,-0.0734 -1.05641,0.17595 -1.27693,0.80563 -0.17794,0.50804 -0.15088,0.82993 0.0935,1.12448 0.71774,0.86483 2.12958,0.33551 2.12958,-0.7984 0,-0.66202 -0.44557,-1.05829 -0.94619,-1.13171 z m 7.20989,0.0512 c 0.0414,0.0414 0.38018,2.62781 0.75293,5.74745 0.37275,3.11965 0.72953,5.92037 0.79323,6.22391 0.0891,0.42454 0.4521,0.62724 1.57251,0.87798 0.8011,0.17927 1.51799,0.42553 1.59319,0.54726 0.0752,0.12173 -0.53223,0.49912 -1.35031,0.83819 l -1.48776,0.6165 0.16123,1.85622 c 0.17804,2.05411 0.14264,2.04542 -1.25625,-0.30283 -0.60617,-1.01754 -0.81388,-1.1995 -1.0108,-0.88418 -1.55782,2.4945 -2.07263,3.223 -1.96267,2.77813 0.072,-0.29104 0.16834,-1.17933 0.21394,-1.97405 l 0.0827,-1.44487 -1.38907,-0.53743 c -0.76399,-0.29567 -1.38906,-0.60577 -1.38906,-0.68937 0,-0.0836 0.65102,-0.3575 1.44642,-0.60823 0.7954,-0.25073 1.50118,-0.54491 1.56838,-0.65371 0.0673,-0.1088 0.4517,-2.95809 0.85422,-6.33191 0.40252,-3.37383 0.76578,-6.10046 0.80718,-6.05906 z m -91.216646,0.30696 c -0.50584,0 -0.77274,0.27636 -1.27744,1.32291 -0.35088,0.72761 -0.64856,1.79531 -0.66146,2.37247 -0.0201,0.89909 0.0827,1.10128 0.71985,1.41128 1.07008,0.52062 1.45869,0.25347 2.22984,-1.53376 0.65589,-1.52007 1.12758,-2.02404 1.12758,-1.20406 0,0.5635 -0.59229,1.78753 -1.12448,2.32389 -0.25466,0.25666 -0.46302,0.64523 -0.46302,0.86352 0,0.5045 1.1479,0.53006 1.55908,0.0346 0.16551,-0.19943 0.58637,-1.17918 0.93534,-2.17713 0.69876,-1.9982 0.5906,-2.63187 -0.49661,-2.90473 -1.39789,-0.35085 -1.53746,-0.19609 -2.8789,3.19515 -0.0576,0.1456 -0.19164,0.18396 -0.29817,0.0853 -0.33786,-0.31313 0.12936,-1.73632 0.81184,-2.47272 0.7742,-0.83539 0.70731,-1.31671 -0.18345,-1.31671 z m 58.759196,0.063 v 1.7017 c 0,1.69948 0.001,1.70162 0.91312,2.0314 1.0199,0.3688 2.17843,1.59964 2.42311,2.57452 0.15048,0.59956 0.27689,0.64079 1.95595,0.64079 h 1.79524 l -0.24391,-1.08572 c -0.64727,-2.88079 -3.11358,-5.25719 -5.9309,-5.71438 z m -1.62781,0.0584 c -0.31237,-0.0109 -0.79475,0.14243 -1.53789,0.40462 -2.31472,0.81668 -4.186676,2.93912 -4.728386,5.36092 l -0.25166,1.12448 h 1.795226 c 1.67907,0 1.80548,-0.0412 1.95596,-0.64079 0.24468,-0.97489 1.40322,-2.20572 2.42311,-2.57452 0.90894,-0.32881 0.91312,-0.33678 0.91312,-1.99678 0,-1.18525 -0.0489,-1.65973 -0.56948,-1.67793 z m 57.05957,0.0796 c -0.0431,-0.0673 -4.16867,1.27437 -4.32842,1.40766 -0.16714,0.13945 1.28023,4.22114 1.71876,4.84725 0.4829,0.68943 1.32604,0.63966 2.99362,-0.17621 1.2293,-0.60146 1.29771,-1.31181 0.3793,-3.94498 -0.39713,-1.13859 -0.74086,-2.09872 -0.76326,-2.13372 z m -37.51296,1.53582 c -0.48098,-0.009 -0.97441,0.13057 -1.29552,0.42117 -0.63842,0.57773 -0.61566,1.8111 0.0455,2.4722 v 5.1e-4 c 0.29104,0.29105 0.82683,0.52917 1.19063,0.52917 1.42539,0 2.24569,-1.89112 1.28209,-2.95589 -0.2728,-0.30146 -0.74169,-0.45837 -1.22267,-0.46716 z m 36.37039,0.34262 c 0.21108,-0.0296 0.37402,-0.0278 0.43822,0.0119 0.37797,0.23361 0.93855,2.54392 0.67541,2.78381 -0.13029,0.11877 -0.56927,0.29445 -0.97513,0.39015 -0.65267,0.15397 -0.77857,0.0738 -1.09244,-0.69349 -0.78486,-1.9187 -0.77869,-1.98566 0.22737,-2.31769 0.25605,-0.0845 0.51549,-0.14512 0.72657,-0.17467 z m -90.485946,5.8291 c -0.14431,0.008 -0.29532,0.0436 -0.44906,0.11369 -0.80425,0.36644 -0.92869,1.71709 -0.19741,2.14302 0.65316,0.38043 1.02443,0.34862 1.50275,-0.12971 0.84578,-0.84577 0.15387,-2.18163 -0.85628,-2.127 z m 35.667586,0.16123 c -3.68672,0 -3.96875,0.0352 -3.96875,0.49041 0,0.79016 1.12654,2.25069 2.12184,2.75074 1.19018,0.59793 2.54629,0.58787 3.70313,-0.0269 1.01307,-0.53835 2.11253,-1.95582 2.11253,-2.72387 0,-0.45524 -0.28202,-0.49041 -3.96875,-0.49041 z m 7.14375,0 c -0.14552,0 -0.26726,0.26789 -0.27026,0.59531 -0.008,0.8235 -0.82562,2.5407 -1.70739,3.58531 -0.84564,1.00181 -2.98103,2.16938 -3.96669,2.16938 -0.41938,0 -0.67024,0.14854 -0.67024,0.39687 v 5.2e-4 c 0,0.49155 0.11315,0.4917 1.76527,0.001 1.73388,-0.51491 3.68581,-2.23707 4.4881,-3.95996 0.64172,-1.37808 0.82435,-2.78846 0.36121,-2.78846 z m -14.216696,0.0651 c -0.0407,-0.015 -0.0867,-0.0149 -0.13694,0.002 -0.46875,0.15772 -0.25927,1.41826 0.47749,2.87218 0.801306,1.58131 2.782016,3.31752 4.327376,3.79356 1.5883,0.48932 1.87586,0.49125 1.87586,0.014 0,-0.24833 -0.25086,-0.39687 -0.67025,-0.39687 -0.98565,0 -3.12052,-1.16757 -3.96616,-2.16938 -0.89075,-1.05525 -1.699906,-2.76391 -1.707906,-3.60701 -0.003,-0.28138 -0.0774,-0.4636 -0.19947,-0.5085 z m -58.83103,0.20774 c -0.26969,1.37908 -0.49991,2.77557 -0.68523,4.19251 -0.53665,4.10144 -0.53768,12.39769 -0.002,16.50958 1.44893,11.12382 5.59997,21.41472 11.85147,30.14545 -6.25149,-8.73072 -10.40305,-19.0216 -11.85199,-30.14545 -0.53559,-4.11192 -0.53455,-12.40812 0.002,-16.50958 0.18533,-1.41703 0.42057,-2.81145 0.68575,-4.19251 z m 46.73048,6.13037 c 0.0726,0.0726 -0.13367,1.06823 -1.06299,5.13405 -0.0811,0.35479 -0.89015,1.0006 -2.22932,1.77871 -2.85259,1.65747 -4.2571,3.01614 -4.2571,4.11912 0,0.72956 0.1388,0.9065 0.99219,1.26556 3.8442,1.6174 27.793566,-2.99658 47.540246,-9.15913 1.88156,-0.58719 3.46299,-1.02613 3.51399,-0.97513 0.051,0.051 -1.13124,0.60069 -2.62723,1.22163 -12.16236,5.04823 -30.069596,9.46813 -44.450506,10.97142 -2.1423,0.22394 -5.83323,0.39926 -8.20209,0.38912 -4.9579,-0.0212 -6.64702,-0.36908 -7.14943,-1.47174 -0.85358,-1.87339 2.7872,-5.25637 9.98595,-9.27954 3.01031,-1.68237 7.83364,-4.10672 7.94629,-3.99407 z m -20.33054,1.84899 c -0.58879,0.0842 -0.87144,0.74144 -0.61082,1.42058 v 5.1e-4 c 0.18844,0.49064 1.06466,0.49158 1.47175,0.001 0.46875,-0.56481 -0.1148,-1.52885 -0.86093,-1.42213 z m 94.959566,2.23138 0.84957,1.50533 0.84956,1.50482 -0.8351,1.4795 -0.83457,1.47949 1.49397,-0.84284 1.49396,-0.84336 1.2113,0.71004 c 0.66632,0.39049 1.26355,0.65774 1.32705,0.59428 0.0635,-0.0635 -0.19421,-0.6692 -0.57258,-1.34617 l -0.68781,-1.23094 0.68781,-1.23041 c 0.37837,-0.67698 0.63209,-1.28718 0.56379,-1.35548 -0.0683,-0.0683 -0.66842,0.19507 -1.33377,0.58498 l -1.20974,0.709 -1.50172,-0.85938 z m -113.134686,0.23875 c 0,-0.0689 -0.60029,0.22918 -1.33429,0.66197 -0.73401,0.43278 -1.38394,0.78652 -1.44384,0.78652 -0.06,0 -0.70932,-0.35374 -1.44332,-0.78652 -0.734,-0.43279 -1.3348,-0.71849 -1.3348,-0.63459 0,0.0839 0.32742,0.73583 0.7276,1.44849 l 0.72761,1.29553 -0.72761,1.29605 c -0.40018,0.71267 -0.7276,1.36627 -0.7276,1.45262 0,0.0864 0.57891,-0.19885 1.28622,-0.63407 0.70732,-0.43521 1.35673,-0.79168 1.44333,-0.79168 0.0867,0 0.7584,0.35425 1.49241,0.78703 0.734,0.43279 1.33429,0.73037 1.33429,0.66146 0,-0.0689 -0.32743,-0.7203 -0.72761,-1.44797 l -0.7276,-1.32344 0.7276,-1.32291 c 0.40018,-0.72768 0.72761,-1.37959 0.72761,-1.44849 z m 76.087336,1.61075 c 0.51293,-0.15723 0.60388,0.0779 1.3963,3.60495 1.67313,7.447 3.14306,16.1986 3.61115,21.50049 l 0.16381,1.85209 -1.68723,-3.96875 c -3.78632,-8.906 -7.52265,-15.17156 -10.13685,-16.99948 -1.48967,-1.04163 -2.73917,-1.11364 -5.78414,-0.33487 -7.53821,1.92795 -17.709486,10.64076 -27.338896,23.41976 -1.53517,2.03729 -2.8918,3.81759 -3.01481,3.95583 -0.12695,0.14272 -0.22376,-0.15709 -0.22376,-0.69349 0,-2.60371 1.61427,-15.46922 2.60036,-20.72484 0.39473,-2.10382 0.51568,-2.39078 1.03973,-2.46548 0.32623,-0.0465 0.59325,0.0399 0.59325,0.19224 0,0.15234 -0.34749,2.39325 -0.77256,4.97954 -0.84838,5.16201 -1.98425,14.07214 -1.8154,14.24099 0.0587,0.0587 1.46847,-1.58644 3.13314,-3.65559 6.93015,-8.61399 14.769046,-15.63936 20.886066,-18.71875 4.21486,-2.12182 8.44485,-2.91239 10.47068,-1.95699 2.27851,1.07457 5.10169,4.79219 8.01863,10.55904 0.88327,1.74625 1.60882,2.98297 1.61282,2.74816 0.0122,-0.80011 -1.56709,-9.14189 -2.50011,-13.20591 -0.5117,-2.22888 -0.90128,-4.07703 -0.86558,-4.10673 0.0357,-0.0297 0.31159,-0.12971 0.6134,-0.22221 z m -39.120606,0.99787 c 0.0462,0.0462 -0.16679,1.1733 -0.47335,2.50476 l -0.55759,2.42052 -1.49758,-0.0165 c -1.55921,-0.0175 -2.68821,-0.32522 -2.68821,-0.73277 0,-0.56752 1.30989,-1.81088 3.14864,-2.98896 1.09122,-0.69914 2.02189,-1.23321 2.06809,-1.18701 z m 45.196206,4.44211 c -0.27293,-0.0443 -0.55734,0.0143 -0.80718,0.22169 -0.47374,0.3932 -0.51411,1.35766 -0.0755,1.79627 0.43877,0.43829 1.40315,0.39771 1.79627,-0.076 0.62205,-0.74953 -0.0949,-1.80901 -0.91364,-1.942 z m 3.42977,3.65817 c -0.30559,0 -0.6982,0.14319 -0.87282,0.31781 -0.17463,0.17463 -0.31781,0.56722 -0.31781,0.87282 0,0.30559 0.14318,0.6987 0.31781,0.87333 0.17462,0.17462 0.56723,0.31729 0.87282,0.31729 0.30559,0 0.69871,-0.14267 0.87333,-0.31729 0.17463,-0.17463 0.31729,-0.56774 0.31729,-0.87333 0,-0.3056 -0.14266,-0.69819 -0.31729,-0.87282 -0.17462,-0.17462 -0.56774,-0.31781 -0.87333,-0.31781 z m -22.37176,3.50005 c -0.28603,0.0257 -0.58452,0.15663 -0.85112,0.42323 -0.47181,0.47181 -0.50762,0.65099 -0.24598,1.22525 0.39443,0.86567 1.73906,0.94802 2.17507,0.13332 0.52982,-0.98999 -0.21989,-1.85896 -1.07797,-1.7818 z m 27.8722,0.25476 c -0.56941,0.11217 -0.98992,0.8429 -0.78807,1.36891 0.20505,0.53436 1.06644,0.56473 1.49138,0.0527 0.41089,-0.49508 -0.10583,-1.53932 -0.70331,-1.42162 z m -71.327946,1.93373 -0.42375,1.3162 c -0.37327,1.15923 -0.53937,1.34844 -1.39423,1.5875 -1.4188,0.39678 -1.43746,0.56569 -0.10077,0.90227 1.13558,0.28594 1.2138,0.36635 1.51257,1.55288 l 0.31523,1.2516 0.33745,-0.79168 c 0.18559,-0.43531 0.34233,-0.998 0.34933,-1.25057 0.008,-0.32076 0.37589,-0.55082 1.21956,-0.76326 1.31727,-0.33169 1.278,-0.59301 -0.14469,-0.9555 -0.81572,-0.20784 -0.96467,-0.38497 -1.29605,-1.54202 z m 7.00319,0.18346 c -0.86689,0.10103 -1.38742,1.27273 -0.85214,1.91771 0.35893,0.43248 1.26789,0.5417 1.75183,0.21032 0.96877,-0.66335 0.29095,-2.2668 -0.89969,-2.12803 z m 66.124126,2.46754 c -0.34732,6e-4 -0.72771,0.15834 -0.92087,0.47336 -0.23494,0.38314 -0.19108,0.55453 0.22014,0.8599 0.28247,0.20976 0.59515,0.38137 0.69504,0.38137 0.36141,0 0.81711,-0.77901 0.72761,-1.24385 -0.0606,-0.31459 -0.3746,-0.47136 -0.72192,-0.47078 z m -90.274076,2.35645 c -0.15101,-0.007 -0.35557,0.0464 -0.65215,0.15916 -1.76241,0.67007 -2.50939,1.1467 -2.64532,1.68827 -0.15712,0.62602 0.72217,2.91288 1.41387,3.6773 0.47929,0.52968 0.91334,0.47894 2.79259,-0.3266 0.98141,-0.42068 1.16964,-0.61003 1.05213,-1.05936 -0.1707,-0.65278 -0.33717,-0.6687 -1.57768,-0.15038 -1.33137,0.55628 -1.6097,0.50497 -2.06912,-0.38344 -0.59965,-1.15959 -0.52502,-1.31489 0.91932,-1.91513 1.31085,-0.54477 1.51689,-0.82234 1.09864,-1.48156 -0.0836,-0.13171 -0.18128,-0.20073 -0.33228,-0.20826 z m 53.655636,0.46354 c -1.33159,-0.15269 -1.99391,1.01418 -1.08934,1.91874 0.90456,0.90456 2.07091,0.24174 1.91823,-1.08985 -0.068,-0.593 -0.23589,-0.76089 -0.82889,-0.82889 z m 54.4065,0.3886 c -0.25167,-0.0375 -0.56211,0.0719 -0.79788,0.34727 -0.23876,0.27884 -0.71457,1.17165 -1.0573,1.98438 -0.70747,1.67765 -0.55522,2.34853 0.59841,2.63808 0.88078,0.22106 1.19144,-0.0469 1.96215,-1.69241 0.34295,-0.73222 0.7222,-1.3317 0.84285,-1.3317 0.29756,0 0.2793,0.13788 -0.15452,1.17616 -0.20552,0.49189 -0.62224,1.14314 -0.92604,1.44694 -0.67382,0.67386 -0.69965,1.00633 -0.0894,1.15548 0.25705,0.0628 0.71733,-0.15801 1.03456,-0.49661 0.69684,-0.74377 1.72165,-3.3886 1.51826,-3.91862 -0.20857,-0.54353 -1.49722,-0.94874 -2.0438,-0.64286 -0.3241,0.18138 -0.44287,0.14544 -0.44287,-0.13384 0,-0.31045 -0.19276,-0.49481 -0.44442,-0.53227 z m -82.237866,0.755 c -0.87448,0 -1.20155,0.67197 -0.65061,1.33583 0.17536,0.21129 0.46797,0.38396 0.65061,0.38396 0.49008,0 0.98303,-0.69837 0.87798,-1.24385 -0.0637,-0.33068 -0.33128,-0.47594 -0.87798,-0.47594 z m 82.316936,0.5426 c 0.14794,-0.0183 0.13725,0.30612 -0.16899,0.99012 -0.27171,0.6069 -0.6198,1.14505 -0.77359,1.19631 -0.37823,0.12608 -0.3543,-0.0409 0.16071,-1.12086 0.32741,-0.68662 0.63393,-1.04729 0.78187,-1.06557 z m -48.81098,1.70636 c -0.43465,0 -1.09451,0.79761 -1.09451,1.32291 0,0.27025 0.18733,0.67877 0.416,0.90744 0.79547,0.79547 1.96525,0.25517 1.96525,-0.90744 0,-0.72801 -0.5787,-1.32291 -1.28674,-1.32291 z m -56.905046,1.33997 -1.8557,0.98391 c -1.02072,0.54106 -1.85835,1.05039 -1.86035,1.13172 -0.002,0.0813 0.15474,0.36537 0.34933,0.63148 0.3379,0.46211 0.41004,0.45083 1.6061,-0.25011 l 1.25212,-0.7338 -0.44648,1.02836 c -1.00271,2.30775 -1.01858,2.38456 -0.66249,3.24424 0.18829,0.45456 0.45072,0.82631 0.58342,0.82631 0.3016,0 2.57486,-1.15834 3.20963,-1.63556 0.412,-0.30974 0.42522,-0.41888 0.10387,-0.85835 -0.3584,-0.49015 -0.40098,-0.48534 -1.59112,0.17984 l -1.22267,0.68316 0.41703,-0.97048 c 0.95095,-2.21263 0.98682,-2.43715 0.54157,-3.37086 z m 18.17615,0.0196 c -0.14365,-0.008 -0.27688,8.1e-4 -0.39843,0.0238 -0.72932,0.13773 -1.03615,0.79956 -0.63665,1.67638 0.18845,0.4136 0.51384,0.64441 0.90796,0.64441 0.81732,0 1.24901,-0.47359 1.24901,-1.37046 0,-0.56401 -0.15436,-0.77462 -0.66094,-0.90176 -0.16324,-0.041 -0.3173,-0.0647 -0.46095,-0.0724 z m 23.21254,0.005 c -1.01173,0.0426 -1.57239,1.12513 -0.78704,1.91047 0.58815,0.58815 1.34367,0.539 1.80299,-0.11679 0.51655,-0.73747 0.26074,-1.53934 -0.55707,-1.74459 -0.16034,-0.0402 -0.31435,-0.0552 -0.45888,-0.0491 z m 61.392626,0.28318 c -0.0272,0.0398 -0.62191,1.14391 -1.32137,2.4536 -0.69945,1.30968 -1.72712,3.05312 -2.28409,3.87418 -0.55697,0.82106 -1.04671,1.62213 -1.08831,1.77974 -0.0416,0.15761 0.63841,0.76509 1.51154,1.3503 0.87312,0.58522 1.65938,1.06459 1.74718,1.06505 0.0878,4.7e-4 0.72427,-0.84835 1.41438,-1.88619 0.9751,-1.46639 1.17534,-1.93718 0.89865,-2.11253 -0.57006,-0.36128 -0.65383,-0.30278 -1.54616,1.08779 -0.46653,0.72704 -0.94985,1.2593 -1.07435,1.18236 -0.12449,-0.0769 0.12571,-0.69549 0.55604,-1.37408 0.89384,-1.40943 0.92567,-1.5474 0.40101,-1.74873 -0.24869,-0.0954 -0.64026,0.26293 -1.12448,1.0294 -0.4086,0.64677 -0.89479,1.17589 -1.08055,1.17615 -0.19778,2.8e-4 0.0502,-0.57518 0.59841,-1.38855 0.87736,-1.30164 0.90663,-1.41166 0.46974,-1.75493 -0.43766,-0.34387 -0.43489,-0.35575 0.045,-0.18862 0.36928,0.12864 0.66987,-0.0207 1.08313,-0.53898 l 0.57206,-0.71779 1.27228,0.71107 c 0.69972,0.39108 1.2977,0.67981 1.3286,0.64131 0.0309,-0.0385 0.18661,-0.32155 0.34623,-0.62891 0.26223,-0.50497 0.16185,-0.62857 -1.04076,-1.28312 -1.01223,-0.55092 -1.28759,-0.82909 -1.15032,-1.16117 0.41419,-1.00198 0.40843,-1.29687 -0.0284,-1.46451 -0.25083,-0.0962 -0.4782,-0.14265 -0.5054,-0.10284 z m 9.65678,0.66818 c -0.39151,0.93321 -0.80437,1.85434 -1.23765,2.76417 0.43304,-0.90984 0.8463,-1.83099 1.23765,-2.76417 z m -44.32443,0.0656 c -0.30559,0 -0.6982,0.14318 -0.87282,0.31781 -0.17462,0.17462 -0.31781,0.56722 -0.31781,0.87281 0,0.3056 0.14319,0.69871 0.31781,0.87334 0.17462,0.17462 0.56723,0.31729 0.87282,0.31729 0.3056,0 0.6987,-0.14267 0.87333,-0.31729 0.17462,-0.17463 0.31729,-0.56774 0.31729,-0.87334 0,-0.30559 -0.14267,-0.69819 -0.31729,-0.87281 -0.17463,-0.17463 -0.56773,-0.31781 -0.87333,-0.31781 z m -5.02708,0.79375 c -0.30559,0 -0.6982,0.14318 -0.87282,0.31781 -0.17463,0.17462 -0.31781,0.56722 -0.31781,0.87281 0,0.3056 0.14318,0.69871 0.31781,0.87334 0.17462,0.17462 0.56723,0.31729 0.87282,0.31729 0.30559,0 0.6987,-0.14267 0.87333,-0.31729 0.17462,-0.17463 0.31729,-0.56774 0.31729,-0.87334 0,-0.30559 -0.14267,-0.69819 -0.31729,-0.87281 -0.17463,-0.17463 -0.56774,-0.31781 -0.87333,-0.31781 z m -39.687496,1.45521 c -0.87448,0 -1.20155,0.67197 -0.65061,1.33583 0.17536,0.21129 0.46797,0.38396 0.65061,0.38396 0.49008,0 0.98303,-0.69837 0.87798,-1.24385 -0.0637,-0.33068 -0.33128,-0.47594 -0.87798,-0.47594 z m 30.772276,0.80357 -0.43718,1.30069 c -0.35302,1.05053 -0.58987,1.34607 -1.23094,1.53737 -1.57227,0.46919 -1.5895,0.51511 -0.33279,0.89194 1.17052,0.35098 1.27522,0.45588 1.55236,1.55649 0.34768,1.38078 0.64854,1.3364 0.89658,-0.13177 0.15713,-0.93004 0.28857,-1.08132 1.14722,-1.31982 0.5335,-0.14818 1.13846,-0.27048 1.34462,-0.2713 0.6556,-0.003 0.0245,-0.38853 -1.09451,-0.66921 -0.99847,-0.25044 -1.10939,-0.37027 -1.46296,-1.58285 z m 56.79395,0.14107 c -0.98378,2.02087 -2.07293,3.98323 -3.26544,5.88905 1.19203,-1.90629 2.28203,-3.86778 3.26544,-5.88905 z M 56.611264,178.687 c -0.45135,0 -3.36062,1.95716 -3.36362,2.26239 -10e-4,0.1528 0.13943,0.41952 0.31264,0.59273 0.24353,0.24353 0.4685,0.21548 0.99219,-0.12402 1.95712,-1.26879 2.66134,-1.75027 2.66134,-1.8185 0,-0.34352 -0.37575,-0.9126 -0.60255,-0.9126 z m 0.95033,1.33893 c -0.0527,-0.0641 -0.27567,0.0633 -0.49558,0.28319 -0.35671,0.35672 -0.34304,0.47223 0.12816,1.07125 l 0.52813,0.67128 -1.18029,0.84801 c -0.64918,0.46622 -1.18029,0.88973 -1.18029,0.94155 0,0.0518 0.0724,0.28296 0.16072,0.51314 0.22952,0.59813 0.62152,0.51222 1.82366,-0.39791 l 1.05833,-0.80098 0.61495,0.71365 c 0.53791,0.62446 0.66261,0.66548 0.99942,0.32866 0.33682,-0.33682 0.21345,-0.61408 -0.98805,-2.22002 -0.75518,-1.00936 -1.41646,-1.88771 -1.46916,-1.95182 z m 41.60935,0.24857 c -1.15745,0 -1.74498,1.5406 -0.83354,2.18539 0.45696,0.32327 1.52995,0.10119 1.830376,-0.37878 0.43069,-0.68808 -0.186536,-1.80661 -0.996836,-1.80661 z m 52.034026,1.86035 c -0.25675,-0.10019 -0.35969,0.0321 -0.54932,0.30282 -0.35842,0.51173 -0.31325,0.61282 0.64492,1.43299 l 1.03095,0.88212 -1.85209,0.0248 c -1.7053,0.0226 -1.89895,0.084 -2.44429,0.77566 l -0.59221,0.75086 1.63659,1.34049 c 1.24055,1.01596 1.71978,1.27069 1.98127,1.05368 0.54988,-0.45636 0.41176,-0.8253 -0.6475,-1.73271 l -0.99219,-0.85008 1.90014,-0.01 c 1.78853,-0.009 1.93248,-0.0549 2.44533,-0.77515 l 0.54467,-0.76532 -1.63504,-1.33894 c -0.80407,-0.6585 -1.21447,-0.99121 -1.47123,-1.09141 z m 9.61182,1.51567 c -0.51661,0.8041 -1.05067,1.59869 -1.60507,2.38228 0.55412,-0.78366 1.08874,-1.5781 1.60507,-2.38228 z m -48.69212,0.10955 c -0.27293,-0.0443 -0.55735,0.0143 -0.80719,0.2217 -0.39801,0.33031 -0.54167,1.61271 -0.21704,1.93735 0.32463,0.32463 1.60756,0.18096 1.93787,-0.21705 0.62207,-0.74953 -0.0949,-1.80901 -0.91364,-1.942 z m -51.408746,0.48318 c -0.0676,0 -0.82228,0.6058 -1.6769,1.34617 l -1.55391,1.34617 1.49913,1.69654 c 0.82433,0.93311 1.57287,1.69654 1.66347,1.69654 0.0906,0 0.30164,-0.1368 0.46922,-0.30438 0.22985,-0.22986 0.0477,-0.59634 -0.74104,-1.49241 -1.00278,-1.13922 -1.26444,-1.6428 -0.85421,-1.6428 0.10517,0 0.6307,0.50602 1.16788,1.12448 0.7554,0.86969 1.04946,1.05421 1.2976,0.81339 0.24981,-0.24244 0.1059,-0.57426 -0.65112,-1.4981 -0.53475,-0.65259 -0.85706,-1.25778 -0.71572,-1.34514 0.14135,-0.0874 0.70229,0.38447 1.24643,1.04852 0.87157,1.06363 1.03576,1.16101 1.37925,0.81752 0.3435,-0.3435 0.22345,-0.58167 -1.00873,-1.99833 -0.76928,-0.88446 -1.45375,-1.60817 -1.52135,-1.60817 z m 98.205886,2.20607 c -0.648,0.90082 -1.32203,1.78764 -2.02055,2.66133 0.69832,-0.87384 1.3728,-1.76033 2.02055,-2.66133 z m -13.10876,1.67896 -0.63459,0.63717 -0.63458,0.63717 0.67541,2.20349 c 0.65619,2.13901 0.69089,2.18937 1.18236,1.74459 0.27839,-0.25194 0.50591,-0.71661 0.50591,-1.03249 0,-0.73679 1.10022,-1.773 1.98541,-1.87017 0.75818,-0.0832 1.51584,-0.59919 1.32756,-0.90382 -0.0664,-0.10746 -1.08503,-0.46996 -2.26394,-0.80564 z m -81.653926,0.0837 c -0.12647,0 -0.80279,0.664 -1.50327,1.47537 l -1.27382,1.47536 0.89245,0.93896 c 0.49083,0.51639 1.34782,1.27469 1.90428,1.68517 0.85755,0.63256 1.10788,0.70204 1.64383,0.45785 0.98502,-0.44881 2.07567,-2.17481 1.75389,-2.77606 -0.32653,-0.61012 -3.10373,-3.25665 -3.41736,-3.25665 z m 92.280156,1.45934 c -0.55879,0.68358 -1.13321,1.35885 -1.72341,2.02572 0.59007,-0.66692 1.16479,-1.34207 1.72341,-2.02572 z m -10.12548,0.004 c 0.0815,-0.006 0.19047,0.0113 0.32917,0.0475 0.29104,0.0761 0.52917,0.22879 0.52917,0.33952 0,0.11073 -0.16458,0.33834 -0.36587,0.50539 -0.28327,0.23509 -0.40285,0.20772 -0.52916,-0.12144 -0.2032,-0.52954 -0.20777,-0.75348 0.0367,-0.77101 z m -81.853406,0.12041 0.87489,0.84749 c 1.00225,0.97142 1.0663,1.282 0.39067,1.89343 -0.62046,0.56152 -0.54907,0.57802 -1.72238,-0.38912 l -1.00355,-0.82734 0.73019,-0.76223 z m -10.23245,0.52865 c 1.95402,2.36278 4.07238,4.59009 6.34122,6.66419 -2.26894,-2.07417 -4.38712,-4.30132 -6.34122,-6.66419 z m 86.447956,2.42879 c -0.0952,-0.0216 -0.18285,-0.0138 -0.26769,0.0212 -0.11311,0.0466 -0.22125,0.14186 -0.33641,0.28061 -0.21701,0.26148 0.0371,0.74002 1.0511,1.97817 l 1.33738,1.63349 1.49604,-1.21388 c 1.70931,-1.38683 1.78052,-1.49338 1.27796,-1.91047 -0.28916,-0.23998 -0.58846,-0.13007 -1.39785,0.51366 l -1.02991,0.81959 -0.93328,-1.08262 c -0.55723,-0.64643 -0.91172,-0.97495 -1.19734,-1.03973 z m -69.608156,1.19735 c -0.18206,-0.10702 -0.7522,0.51518 -1.44074,1.57199 -1.09819,1.68557 -1.12106,1.76244 -0.63097,2.12081 0.45145,0.3301 0.55682,0.30783 0.93948,-0.19948 l 0.43098,-0.57154 1.02733,0.69815 c 0.56498,0.38391 1.14031,0.66049 1.27848,0.61443 0.60908,-0.20302 0.37055,-0.73504 -0.62477,-1.39371 -0.59145,-0.3914 -1.07539,-0.79517 -1.07539,-0.8971 0,-0.52598 0.44641,-0.43869 1.51515,0.29662 1.01871,0.70089 1.23486,0.76192 1.5565,0.44028 0.32164,-0.32163 0.16153,-0.52114 -1.15084,-1.43815 -0.83822,-0.58571 -1.65948,-1.14488 -1.82521,-1.2423 z m 68.104886,0.38499 c -0.52712,0.0491 -1.22715,0.39491 -2.23191,1.04954 l -1.66914,1.08779 0.57774,0.83044 c 0.31777,0.45686 0.86624,1.2174 1.21905,1.69034 0.72471,0.97149 0.90235,1.0299 1.38182,0.45217 0.25233,-0.30407 0.26224,-0.48454 0.0388,-0.70797 -0.22342,-0.22343 0.0361,-0.5259 1.01699,-1.18649 1.43011,-0.96309 1.55277,-1.31707 0.86248,-2.48564 -0.31415,-0.53181 -0.66866,-0.77927 -1.19579,-0.73018 z m -0.27595,1.28467 c 0.56811,0 0.37643,0.70813 -0.3142,1.16066 -0.35868,0.23501 -0.76848,0.42684 -0.91053,0.42684 -0.26618,0 -0.67912,-0.5092 -0.51418,-0.63407 0.70885,-0.53663 1.46854,-0.95343 1.73891,-0.95343 z m -63.960956,1.05834 c -0.22654,0 -2.22387,3.42812 -2.06964,3.55223 0.0496,0.04 0.92388,0.56001 1.94252,1.15549 1.68191,0.9832 1.88303,1.04241 2.18746,0.6444 0.28951,-0.3785 0.19931,-0.51889 -0.66146,-1.02991 -1.72138,-1.02195 -1.79505,-1.08033 -1.6061,-1.27847 0.10157,-0.10651 0.72165,0.10616 1.3777,0.47284 0.97812,0.54668 1.24576,0.60299 1.48673,0.31264 0.31328,-0.37749 -0.16394,-0.80052 -1.65985,-1.47123 -0.75219,-0.33725 -0.97752,-0.77248 -0.39688,-0.76688 0.1819,0.002 0.84875,0.29918 1.48157,0.66094 1.13536,0.64906 1.6297,0.66331 1.6247,0.0475 -0.002,-0.29399 -3.23512,-2.2996 -3.70675,-2.2996 z m 57.579436,1.69395 c -0.28084,-0.10777 -3.32577,1.18375 -3.81476,1.61799 -0.0457,0.0406 0.34397,0.92172 0.8661,1.95854 0.85395,1.69569 1.00195,1.85728 1.47226,1.60558 0.60263,-0.32251 0.61764,-0.3841 0.25321,-1.06505 -0.23496,-0.43901 -0.099,-0.59158 1.04955,-1.17357 0.92854,-0.47053 1.27497,-0.78653 1.16789,-1.06557 -0.20074,-0.52312 -0.43962,-0.50173 -1.72496,0.154 -0.72135,0.36801 -1.16732,0.46255 -1.34462,0.28525 -0.17729,-0.1773 0.18415,-0.49292 1.08986,-0.95188 1.36661,-0.69252 1.66403,-1.1049 0.98547,-1.36529 z m -53.099606,0.6904 -0.79013,1.76061 c -0.43451,0.96843 -0.75048,1.879 -0.70228,2.02365 0.0482,0.14466 0.97434,0.65798 2.05827,1.1405 1.08392,0.48252 2.10149,0.88122 2.26084,0.88522 0.84509,0.0232 2.13762,-2.6037 1.69137,-3.43752 -0.15398,-0.28772 -0.3205,-0.52348 -0.37,-0.52348 -0.0495,0 -1.00326,-0.41592 -2.11925,-0.92449 z m 0.81029,1.62419 1.08934,0.42839 c 1.25042,0.49118 1.48832,0.88925 1.07435,1.79783 -0.34089,0.74815 -0.38123,0.75129 -1.69343,0.13849 -1.33923,-0.62542 -1.35496,-0.65343 -0.88315,-1.5658 z m 47.440516,0.009 c -0.78247,-0.11153 -3.63969,0.94777 -4.18683,1.55236 -0.37355,0.41276 -0.39037,0.62695 -0.11627,1.49086 0.17604,0.55483 0.49552,1.28807 0.71003,1.62936 0.33253,0.52905 0.52831,0.59488 1.32757,0.44493 0.51558,-0.0967 1.57683,-0.45891 2.35851,-0.8046 1.31142,-0.57997 1.4204,-0.69585 1.4087,-1.50275 -0.0182,-1.25372 -0.79623,-2.70961 -1.50171,-2.81016 z m -42.343156,0.91829 c -0.33207,0.009 -0.47061,0.39298 -0.95859,1.84433 -0.48044,1.42894 -0.57686,2.01048 -0.34779,2.09548 0.1744,0.0647 1.15021,0.3995 2.16886,0.74362 1.5841,0.53515 1.88473,0.57005 2.07791,0.2403 0.30029,-0.51261 0.0399,-0.71249 -1.63866,-1.25729 -0.84779,-0.27516 -1.31637,-0.55483 -1.17202,-0.69918 0.14435,-0.14435 0.70458,-0.0767 1.40095,0.16898 0.63827,0.22521 1.31437,0.35032 1.50275,0.27802 0.69847,-0.26803 0.30241,-0.66294 -1.11259,-1.10898 -0.80036,-0.25229 -1.45521,-0.55595 -1.45521,-0.67489 0,-0.32119 0.5923,-0.26386 1.84691,0.1788 1.17202,0.41351 1.59267,0.34539 1.59267,-0.25735 0,-0.20221 -0.6088,-0.55211 -1.38906,-0.7984 -0.76398,-0.24115 -1.70841,-0.53954 -2.0991,-0.66301 -0.17373,-0.0549 -0.30634,-0.0934 -0.41703,-0.0904 z m 41.708566,0.39997 c 0.23286,0.032 0.33795,0.23244 0.51883,0.62942 0.46013,1.00987 0.41002,1.09347 -0.93069,1.55029 -1.53191,0.52198 -1.37416,0.54626 -1.67949,-0.25683 -0.38439,-1.01101 -0.34846,-1.07973 0.80564,-1.54151 0.69195,-0.27686 1.05286,-0.41341 1.28571,-0.38137 z m -37.031846,1.16014 c -0.0939,0.058 -0.31452,0.8351 -0.48989,1.72651 -0.17538,0.8914 -0.37652,1.77201 -0.44752,1.95698 -0.0775,0.20189 0.13876,0.38758 0.54157,0.46458 0.49187,0.094 0.7125,-0.003 0.82682,-0.36329 0.18173,-0.57259 0.20361,-0.57551 1.52239,-0.20929 0.806,0.22381 0.97419,0.37668 0.84904,0.77101 -0.1063,0.33492 -0.005,0.53054 0.31781,0.61443 0.26071,0.0677 0.54911,0.1371 0.64131,0.154 0.29144,0.0534 0.48779,-1.1395 0.22996,-1.39733 -0.15256,-0.15256 -0.10415,-0.35634 0.12661,-0.53382 0.4833,-0.37173 0.73744,-1.50979 0.43925,-1.9668 -0.23021,-0.35283 -4.22816,-1.42044 -4.55735,-1.21698 z m 29.114496,0.25063 c -0.35725,0 -0.63255,0.11906 -0.61185,0.26458 0.0207,0.14552 0.12385,0.79223 0.22945,1.43661 l 0.19223,1.1715 -1.42007,-1.20148 c -0.78115,-0.66075 -1.53964,-1.16863 -1.68516,-1.12861 -0.14552,0.04 -0.57502,0.1407 -0.95447,0.22376 l -0.68988,0.15089 0.39584,1.98903 c 0.35862,1.80227 0.45432,1.98851 1.02061,1.98851 0.69434,0 0.75529,-0.31001 0.37931,-1.9296 -0.26142,-1.1261 -0.27044,-1.12896 1.59163,0.49403 0.75908,0.66164 1.1212,0.80243 1.80713,0.70177 0.47176,-0.0692 0.90988,-0.26185 0.97358,-0.42789 0.0637,-0.16603 -0.0405,-1.07392 -0.23151,-2.01744 -0.31388,-1.55081 -0.40967,-1.71566 -0.99684,-1.71566 z m -27.978646,1.07228 c 0.0799,-0.007 0.17918,-0.003 0.29042,0.0119 0.66749,0.0867 1.77095,0.52589 1.77095,0.80047 0,0.35941 -0.90971,0.44546 -1.91823,0.1819 -0.44497,-0.11628 -0.62008,-0.63048 -0.31781,-0.93276 0.0342,-0.0343 0.0948,-0.054 0.17467,-0.0615 z m 6.94686,0.11834 c -0.77893,0 -1.00962,0.19197 -2.08669,1.73271 -0.6661,0.95286 -1.2113,1.84583 -1.2113,1.98438 0,0.37658 1.3195,0.30401 1.4671,-0.0806 0.20507,-0.53441 2.4653,-0.2483 2.8453,0.36018 0.29826,0.47759 1.506986,0.71999 1.509986,0.30283 7.9e-4,-0.10915 -0.37003,-1.12118 -0.823726,-2.24896 -0.79595,-1.97852 -0.85558,-2.05052 -1.70067,-2.05052 z m 13.533536,0 c -1.95346,0 -3.25715,0.38783 -3.46077,1.0294 -0.21336,0.67224 0.27515,2.96815 0.6904,3.24476 0.41533,0.27666 3.84065,0.0159 4.52582,-0.34468 0.34731,-0.18277 0.46302,-0.57617 0.46302,-1.57458 0,-2.08628 -0.25249,-2.3549 -2.21847,-2.3549 z m -4.79299,0.26459 c -0.65046,0 -0.66146,0.0353 -0.66146,2.11666 0,2.08137 0.011,2.11667 0.66146,2.11667 0.65046,0 0.66146,-0.0353 0.66146,-2.11667 0,-2.08135 -0.011,-2.11666 -0.66146,-2.11666 z m -5.09323,0.003 c -0.93662,-0.002 -1.12448,0.0832 -1.12448,0.51004 0,0.3847 0.21431,0.53312 0.8599,0.59532 0.85013,0.082 0.86098,0.1 0.93948,1.60403 0.0739,1.41654 0.124,1.52136 0.7276,1.52136 0.60935,0 0.64802,-0.0873 0.64802,-1.45521 v -1.45521 h 0.92605 c 0.72655,0 0.92604,-0.10571 0.92604,-0.49196 0,-0.39633 -0.27084,-0.52507 -1.38906,-0.65939 -0.76398,-0.0917 -1.89509,-0.16798 -2.51355,-0.16898 z m 9.95237,0.84026 c 0.69219,0.0306 0.87594,0.37051 0.78393,1.17563 -0.082,0.71711 -0.16494,0.76425 -1.47588,0.83975 l -1.38906,0.0801 v -0.9235 c 0,-0.89411 0.039,-0.92963 1.21078,-1.10536 0.35223,-0.0528 0.6395,-0.0769 0.87023,-0.0667 z m -13.739726,0.24029 c 0.15013,0.0125 0.27851,0.19938 0.37259,0.55914 0.17834,0.682 0.20699,0.65426 -0.55346,0.53278 -0.49811,-0.0796 -0.55037,-0.17786 -0.32143,-0.60564 0.1803,-0.3369 0.35218,-0.49879 0.5023,-0.48628 z m 36.704216,1.35909 c -1.55633,0.7847 -3.14422,1.50539 -4.76405,2.16214 1.61961,-0.65667 3.20791,-1.37756 4.76405,-2.16214 z m -20.44888,6.3593 c -1.37786,0.18202 -4.30305,0.34845 -7.2807,0.44287 2.97739,-0.0944 5.90267,-0.26086 7.2807,-0.44287 z" />
  </g>
</svg>
