<?xml version="1.0" encoding="UTF-8" standalone="no"?>
<!-- Created with Inkscape (http://www.inkscape.org/) -->

<svg
   width="67.73333mm"
   height="33.866665mm"
   viewBox="0 0 67.73333 33.866665"
   version="1.1"
   id="svg1"
   xmlns="http://www.w3.org/2000/svg"
   xmlns:svg="http://www.w3.org/2000/svg">
  <defs
     id="defs1" />
  <g
     id="layer1"
     transform="translate(-141.82598,-171.78889)">
    <g
       id="g11"
       transform="translate(122.49816,162.39742)">
      <rect
         style="fill:none;stroke-width:0.148002"
         id="rect1-3-3-5"
         width="67.73333"
         height="33.866665"
         x="19.32782"
         y="9.3914661" />
      <path
         id="rect5-7-6-0-9-94"
         style="fill:#9ea5ba;fill-opacity:1;stroke-width:0.217789"
         d="m 63.670421,13.095634 13.22917,13.229174 -13.22917,13.22916 h 5.61257 l 13.22814,-13.22813 -0.001,-0.001 0.001,-0.001 -13.22814,-13.228134 z" />
      <path
         id="rect5-7-2-1-3-3-9"
         style="fill:#9ea5ba;fill-opacity:1;stroke-width:0.217789"
         d="m 55.398111,13.095632 13.22917,13.229166 -13.22917,13.22917 h 5.61258 l 13.22813,-13.22814 -0.001,-0.001 0.001,-0.001 -13.22812,-13.228126 z" />
      <path
         id="rect5-7-2-1-9-6-7-09"
         style="fill:#9ea5ba;fill-opacity:1;stroke-width:0.217789"
         d="m 47.131171,13.095632 13.22917,13.229166 -13.22917,13.22917 h 5.61258 l 13.22813,-13.22814 -10e-4,-0.001 10e-4,-0.001 -13.22813,-13.228126 z" />
      <path
         id="path6-4-7"
         style="fill:#9ea5ba;fill-opacity:1;stroke-width:0.180247"
         d="m 37.232171,26.322907 h 0.0503 l 10.42586,1.38354 0.81183,2.78187 1.18605,-2.71604 3.1149,0.29291 -2.90015,-1.7458 2.90015,-1.74544 -3.1149,0.29289 -1.18605,-2.71603 -0.81183,2.78187 -10.42586,1.38354 h -0.0503 l 0.0253,0.003 z" />
    </g>
  </g>
</svg>
