<?xml version="1.0" encoding="UTF-8" standalone="no"?>
<!-- Created with Inkscape (http://www.inkscape.org/) -->

<svg
   width="25.17169mm"
   height="26.458334mm"
   viewBox="0 0 25.17169 26.458334"
   version="1.1"
   id="svg1"
   xmlns="http://www.w3.org/2000/svg"
   xmlns:svg="http://www.w3.org/2000/svg">
  <defs
     id="defs1" />
  <g
     id="layer1"
     transform="translate(-177.51362,-200.23738)">
    <g
       id="g38"
       transform="matrix(0.22193431,0,0,0.22193431,208.9565,184.63463)">
      <ellipse
         style="fill:#000000;fill-opacity:1;stroke:none;stroke-width:0.23929"
         id="path37"
         cx="-85.152992"
         cy="132.21336"
         rx="55.974991"
         ry="56.60997" />
      <path
         id="path36"
         style="fill:#daa520;fill-opacity:1"
         d="m -88.66849,75.604687 c -0.159586,0.01037 -0.256478,0.01308 -0.452685,0.02687 -3.493834,0.245649 -9.63991,1.459419 -13.327355,2.631881 -4.42972,1.408481 -11.90249,5.15691 -15.75717,7.90391 -3.96564,2.826059 -10.21039,9.120703 -13.11083,13.215731 -4.5204,6.382141 -8.21163,15.138621 -9.6759,22.954161 -0.97026,5.17875 -0.89662,15.56089 0.14573,20.54396 1.63511,7.81687 4.56639,14.89596 8.8036,21.26072 2.61886,3.93388 8.56228,10.29961 12.08815,12.9465 0.75355,0.56569 1.20617,0.88519 1.55598,1.10535 0.0346,-0.5401 0.0635,-1.04274 0.10128,-1.5999 -0.0882,-0.0751 -0.16038,-0.14646 -0.2651,-0.22582 -8.86616,-6.71999 -15.42893,-15.95825 -19.03346,-26.79268 -2.08546,-6.26842 -2.6127,-9.74591 -2.6293,-17.35243 -0.0165,-7.5822 0.48614,-10.85067 2.67839,-17.42426 6.90486,-20.704697 25.42482,-35.555345 46.879309,-37.591508 0.430037,-0.04081 0.763262,-0.08343 1.079521,-0.127641 0.328079,-0.548003 0.606024,-0.96573 0.91984,-1.474846 z m 12.288656,0.59893 c 0.27424,0.438729 0.550777,0.895902 0.827856,1.360641 0.645541,0.251616 1.372294,0.47939 2.152841,0.620117 2.935115,0.529179 9.76018,2.900189 12.902054,4.482414 13.390803,6.743499 23.299409,18.186811 28.080974,32.430061 4.545818,13.54101 3.298029,29.71526 -3.268535,42.37157 -9.197856,17.72787 -26.836209,29.13048 -46.511889,30.06794 -9.285492,0.44242 -19.540847,-1.64356 -27.140467,-5.5206 -0.26014,-0.13272 -0.46279,-0.22685 -0.65112,-0.30954 -0.27027,0.4098 -0.4654,0.69967 -0.76429,1.15549 0.4214,0.25282 1.03383,0.55595 2.1487,1.06556 5.23043,2.3909 11.451492,4.14036 16.91835,4.75785 13.38179,1.51151 27.870983,-2.03905 38.490157,-9.43146 11.894673,-8.28034 19.679154,-19.42911 23.163961,-33.17472 2.72626,-10.75357 2.315434,-21.11672 -1.265039,-31.90451 -6.104692,-18.393127 -21.234695,-32.319189 -40.197546,-36.998779 -2.245017,-0.554014 -3.897084,-0.874809 -4.886007,-0.972034 z m 19.902661,13.051917 c -0.192409,0.04327 -0.114052,0.488136 0.22841,1.333252 0.267862,0.661022 0.578454,1.80065 0.68988,2.532145 0.170532,1.119519 0.07464,1.413378 -0.60358,1.857768 -1.007461,0.660113 -5.64884,1.114079 -8.685775,0.84956 -1.262406,-0.109963 -2.348173,-0.162902 -2.412773,-0.117822 -0.0646,0.04508 1.047572,0.900287 2.471684,1.900659 4.983087,3.500404 9.522971,5.651764 14.948958,7.083804 3.524585,0.93021 3.835603,0.90539 3.549654,-0.28008 -0.684088,-2.83612 -4.944234,-9.856936 -8.088911,-13.330457 -1.155358,-1.276175 -1.850164,-1.884464 -2.097547,-1.828829 z m -57.282807,0.22841 c -0.16171,-0.04103 -0.68431,0.439499 -1.79576,1.595768 -3.01121,3.132647 -6.75834,9.127278 -8.12353,12.996618 l -0.4899,1.38958 1.67535,-0.25114 c 2.71714,-0.4065 7.09812,-1.91094 10.50376,-3.60702 3.66201,-1.823761 9.00461,-5.274485 9.00461,-5.816181 0,-0.202666 -0.26856,-0.265506 -0.59686,-0.139526 -0.88625,0.340084 -7.49176,0.247436 -9.0687,-0.127124 -2.31516,-0.549911 -2.33306,-0.642721 -1.09088,-5.67614 0.0542,-0.219502 0.0554,-0.346187 -0.0181,-0.364835 z m 72.801757,15.372186 -0.250631,1.94252 c -0.29988,2.32312 -0.825273,3.75236 -1.458309,3.96823 -0.9565,0.32617 -4.791213,-0.87437 -7.649146,-2.39468 -1.627121,-0.86558 -3.012001,-1.57355 -3.077331,-1.57355 -0.253755,0 2.855522,5.23744 4.39353,7.40058 1.921865,2.70301 6.633261,7.57457 8.87026,9.17205 l 1.58905,1.13482 0.288355,-1.52653 c 0.729527,-3.86353 -0.442673,-12.69826 -2.263945,-17.06407 z m -88.317087,0.38706 c -0.066,0.0186 -0.14487,0.19547 -0.25942,0.49609 -1.83553,4.81714 -2.93786,11.90462 -2.53163,16.27549 0.12471,1.34178 0.30146,2.43965 0.39326,2.43965 1.12079,0 8.2126,-6.98689 10.75283,-10.59367 1.69172,-2.40199 4.36047,-7.0621 4.0442,-7.0621 -0.10102,0 -1.10847,0.55069 -2.23914,1.22421 -2.54221,1.51436 -5.79668,2.65979 -7.55716,2.65979 -1.19271,0 -1.36592,-0.11842 -1.68155,-1.14773 -0.19356,-0.6312 -0.46303,-1.94193 -0.59842,-2.913 -0.1397,-1.00209 -0.21306,-1.40976 -0.32297,-1.37873 z m 4.89169,16.89354 c -0.0777,-0.01 -0.21397,0.15333 -0.42892,0.42633 -0.32778,0.4163 -1.30669,1.66235 -2.17557,2.76934 -1.67349,2.13206 -3.50363,3.7424 -5.05861,4.45089 -0.86957,0.39621 -1.02549,0.33568 -2.00246,-0.77256 -0.58271,-0.661 -1.31381,-1.73117 -1.62471,-2.37815 -0.3109,-0.64697 -0.64735,-1.09414 -0.74776,-0.99374 -0.30106,0.30106 0.57787,6.22806 1.31672,8.87956 0.85253,3.05949 1.99273,5.83949 3.29489,8.03362 0.5475,0.92253 1.0578,1.67742 1.1343,1.67742 0.28169,0 2.91104,-5.55182 3.79615,-8.01553 0.96045,-2.67342 2.18011,-8.70846 2.48357,-12.28917 0.10793,-1.27363 0.14182,-1.77141 0.0124,-1.78801 z m 78.862368,0.27389 c -0.327508,-0.004 -0.25439,1.1032 0.05219,3.60959 0.70771,5.78574 2.856865,12.71728 5.163509,16.65325 l 0.95188,1.62368 1.191658,-1.9787 c 1.48412,-2.46369 3.141831,-7.1032 3.825607,-10.70787 0.537924,-2.83579 0.918297,-6.09678 0.711067,-6.09678 -0.06506,0 -0.520144,0.68516 -1.010791,1.52238 -1.278098,2.18092 -2.442581,3.18757 -3.353283,2.89853 -1.139859,-0.36178 -4.709415,-3.82126 -6.24303,-6.05027 -0.653093,-0.94923 -1.064728,-1.47136 -1.28881,-1.47381 z m 0.616499,17.58807 c -0.261344,-0.0768 -0.780881,0.9456 -1.43247,2.90215 -1.753548,5.26541 -2.301046,8.30452 -2.513025,13.95263 -0.113932,3.03572 -0.06587,5.3844 0.110071,5.38366 1.203574,-0.005 5.833148,-3.88718 8.420674,-7.06107 2.042811,-2.50575 4.941277,-7.06262 4.492232,-7.06262 -0.154388,0 -0.814346,0.39355 -1.46606,0.87437 -0.651714,0.4808 -1.741827,1.05793 -2.422591,1.2826 -1.083968,0.35774 -1.301128,0.32585 -1.748731,-0.25631 -1.340032,-1.74288 -3.255615,-7.16431 -3.255615,-9.21391 0,-0.50462 -0.06569,-0.76657 -0.184485,-0.8015 z m -79.972377,0.045 c -0.23261,-0.0252 -0.39498,0.801 -0.73432,2.33629 -0.71196,3.22106 -2.18066,6.79688 -3.15382,7.67757 -0.57585,0.52139 -0.74117,0.52179 -1.97145,0.008 -0.73864,-0.30863 -1.86827,-0.96166 -2.50993,-1.45108 -1.32428,-1.01005 -1.40022,-0.92396 -0.58963,0.66456 1.94186,3.80538 7.54336,10.17266 10.8996,12.38943 l 1.41231,0.93276 0.29663,-1.32912 c 0.71755,-3.21877 -0.4179,-12.22681 -2.22519,-17.65525 -0.80646,-2.42234 -1.16058,-3.54441 -1.4242,-3.57291 z m 7.89512,17.38447 c -0.0182,0.001 -0.0327,0.007 -0.0434,0.0176 -0.0826,0.0826 0.0745,0.78159 0.30283,1.58646 0.0592,-0.48147 0.11838,-0.89306 0.17777,-1.3317 -0.18444,-0.15923 -0.35247,-0.27725 -0.43719,-0.27233 z m 57.254906,6.54378 c -0.513997,0.42537 -1.166522,1.43516 -2.235005,2.98483 -1.486131,2.15541 -4.651913,7.95059 -4.651913,8.51576 0,0.85162 6.960373,-0.63837 10.691337,-2.28875 l 0.799951,-0.35398 c -0.828959,-1.51595 -2.009943,-3.82076 -3.386873,-6.50555 -0.430252,-0.83891 -0.805366,-1.55489 -1.217497,-2.35231 z m -61.859276,4.67 c -0.46266,0.0173 0.37427,0.76699 2.10013,1.80403 0.83198,0.49991 1.17255,0.6854 1.57355,0.91054 0.0608,-0.77266 0.12276,-1.51418 0.18707,-2.28204 l -1.0325,-0.045 c -0.9064,-0.0395 -1.93948,-0.16401 -2.29546,-0.27699 -0.25029,-0.0794 -0.42602,-0.11459 -0.53279,-0.11059 z m 73.062727,0.0971 c -0.09072,0.002 -0.205597,0.0174 -0.345715,0.0455 -0.339879,0.0682 -1.189927,0.21499 -1.888774,0.32608 -0.0691,0.011 -0.103934,0.0237 -0.165881,0.0346 -0.02968,0.61043 -0.07494,1.19584 -0.13746,1.7539 0.354012,-0.20384 0.497071,-0.26625 1.02061,-0.5917 1.589257,-0.98792 2.152276,-1.58527 1.51722,-1.56838 z m -51.826807,3.03341 c -0.0837,0 0.30828,0.91415 0.871261,2.03088 1.156218,2.29351 1.927729,4.87737 1.609721,5.39192 -0.11695,0.18922 -0.842794,0.4448 -1.612822,0.56793 -2.19904,0.35165 -1.95838,0.74244 0.817521,1.32808 1.410948,0.29767 2.883197,0.60882 3.271635,0.69092 0.38843,0.0821 2.096755,0.16767 3.796151,0.19017 2.265576,0.03 3.085431,-0.0769 3.074231,-0.4005 -0.02199,-0.63486 -3.001611,-3.79207 -5.344377,-5.6627 -1.742466,-1.39131 -6.045122,-4.1367 -6.483321,-4.1367 z m 30.677193,0 c -0.419871,0 -3.701503,2.07054 -6.033223,3.80649 -2.709062,2.01687 -5.738668,5.20381 -5.738668,6.03684 0,0.40866 0.677656,0.46383 3.796151,0.30954 3.639162,-0.18006 9.140119,-1.21842 8.71368,-1.64486 -0.112334,-0.11233 -0.867283,-0.36471 -1.677934,-0.56069 -1.425438,-0.34459 -1.472734,-0.40112 -1.430404,-1.71928 0.02549,-0.7936 0.565233,-2.37876 1.291911,-3.79511 0.686405,-1.33785 1.171737,-2.43293 1.078487,-2.43293 z m -34.543623,1.81126 c -0.61801,0.81328 -1.19336,1.57576 -1.77716,2.36523 0.32146,0.0375 0.73415,0.061 1.16324,0.061 1.35331,0 1.5334,-0.0842 1.31723,-0.61753 -0.13775,-0.33988 -0.40816,-1.05497 -0.60151,-1.58906 -0.0311,-0.086 -0.068,-0.14036 -0.1018,-0.21962 z" />
      <path
         style="fill:#daa520;fill-opacity:1;stroke-width:0.409091"
         d="m -82.684956,70.31108 c -1.538767,-0.499337 -15.133588,23.75344 -17.133903,30.56682 -0.165135,0.5625 -0.442131,1.20682 -0.616041,1.43182 -0.1739,0.225 -0.69374,1.6057 -1.15456,3.0682 -0.46084,1.46251 -1.33228,3.94772 -1.9368,5.52273 -2.31829,6.6988 -4.545,14.37755 -6.32841,21.23327 -2.69815,11.1658 -3.55818,15.7597 -4.87177,24.03116 -1.37852,8.68028 -2.98605,33.37454 -2.40877,33.35535 0.18875,-0.006 6.44303,-9.80817 7.90553,-11.85806 3.11484,-4.36605 8.01537,-10.80078 10.476539,-13.26056 8.488745,-8.48395 12.87729,-12.03364 18.577569,-15.87868 4.494256,-3.03153 9.200033,-2.99984 12.670659,0.85519 2.154815,2.39349 2.078005,2.14032 6.411922,8.67072 1.123454,1.69284 6.897529,13.37715 7.98551,15.14917 1.864772,-6.24022 -1.112078,-25.47533 -2.182971,-32.60255 -4.587446,-20.92593 -7.460287,-31.0916 -13.737579,-46.13797 -5.017016,-12.025559 -9.592847,-19.637539 -13.656929,-24.146672 z"
         id="rect400-4-8-05-2" />
      <path
         style="fill:#000000;fill-opacity:1;stroke-width:0.451807"
         d="m -82.88079,83.857971 c -0.407446,-0.236236 -0.859582,2.528779 -1.385426,8.414913 -0.388082,4.344253 -0.907599,9.525226 -1.155102,11.513166 -0.247494,1.98796 -0.537782,4.32606 -0.64507,5.19579 -0.107217,0.86974 -0.335035,2.95422 -0.505629,4.63191 l -0.309727,3.0497 -4.466006,1.37838 c -2.74295,0.84645 -4.352332,1.56067 -4.172161,1.85222 0.161349,0.26106 1.996722,1.25851 4.078617,2.21581 2.081899,0.95729 3.782056,1.90244 3.777719,2.1002 -0.005,0.19774 -0.308467,2.18896 -0.675947,4.42541 -0.755452,4.59783 -0.817794,5.65349 -0.332695,5.63261 0.186386,-0.009 1.52924,-1.9395 2.984406,-4.29218 1.455185,-2.35268 2.81573,-4.27717 3.023223,-4.27717 0.207505,0 1.651198,1.75336 3.208551,3.89684 1.55733,2.14347 2.907221,3.67128 2.999401,3.39473 0.09222,-0.27657 -0.05224,-1.91631 -0.320356,-3.64445 -0.890149,-5.73711 -1.013455,-5.47232 3.35503,-7.18833 2.111301,-0.82943 3.838607,-1.67692 3.838607,-1.88314 0,-0.20617 -1.929593,-1.01719 -4.287766,-1.80281 -2.358168,-0.78564 -4.391024,-1.596 -4.517198,-1.80018 -0.126178,-0.20416 -0.52651,-2.88153 -0.889502,-5.95027 -0.362954,-3.06873 -0.766411,-6.18957 -0.896552,-6.93507 -0.130097,-0.74547 -0.329677,-2.372 -0.443877,-3.61446 -0.269155,-2.928301 -1.530986,-13.110022 -1.869008,-15.081742 -0.127034,-0.741226 -0.257762,-1.153139 -0.393576,-1.231877 z"
         id="path9-6" />
    </g>
  </g>
</svg>
