<?xml version="1.0" encoding="UTF-8" standalone="no"?>
<!-- Created with Inkscape (http://www.inkscape.org/) -->

<svg
   width="16.796099mm"
   height="26.458334mm"
   viewBox="0 0 16.796099 26.458334"
   version="1.1"
   id="svg1"
   xmlns="http://www.w3.org/2000/svg"
   xmlns:svg="http://www.w3.org/2000/svg">
  <defs
     id="defs1" />
  <g
     id="layer1"
     transform="translate(-156.01139,-175.20337)">
    <g
       id="g13"
       transform="matrix(0.8577651,0,0,0.8577651,199.12365,192.04302)">
      <path
         style="fill:#daa520;stroke-width:0.347059"
         d="m -48.350668,-19.632007 c -1.058541,0 -1.910478,0.852454 -1.910478,1.910995 v 27.02419 c 0,1.058541 0.851937,1.910478 1.910478,1.910478 h 15.760278 c 1.058541,0 1.910478,-0.851937 1.910478,-1.910478 v -27.02419 c 0,-1.058541 -0.851937,-1.910995 -1.910478,-1.910995 z"
         id="rect1-7-7" />
      <path
         style="fill:#000000;stroke-width:0.347059"
         d="m -48.120191,-18.655322 h 15.299324 c 0.688872,0 1.243335,0.554463 1.243335,1.243335 V 8.993636 c 0,0.688872 -0.554463,1.243335 -1.243335,1.243335 h -15.299324 c -0.688872,0 -1.243335,-0.554463 -1.243335,-1.243335 v -26.405623 c 0,-0.688872 0.554463,-1.243335 1.243335,-1.243335 z"
         id="path10" />
      <path
         id="rect2-1-5-9"
         style="fill:#daa520;fill-opacity:1;stroke-width:0.345112"
         d="m -48.969104,-7.1008586 c -0.135574,0 -0.244946,0.1093727 -0.244946,0.2449463 v 0.7834147 c 0,0.1355737 0.109372,0.2444296 0.244946,0.2444296 h 2.813265 c 0.148433,-0.5011384 0.283187,-0.9284548 0.400492,-1.2727906 z m 13.904578,0 c 0.148062,0.3922553 0.299141,0.8212242 0.450101,1.2727906 h 2.642733 c 0.135574,0 0.24443,-0.1088559 0.24443,-0.2444296 v -0.7834147 c 0,-0.1355736 -0.108856,-0.2449463 -0.24443,-0.2449463 z" />
      <g
         id="g10">
        <path
           style="fill:#daa520;fill-opacity:1;stroke-width:0.100331"
           d="m -40.317328,-17.360328 c -0.377388,-0.122464 -3.711565,5.825614 -4.202149,7.4966195 -0.0405,0.1379546 -0.108433,0.2959766 -0.151086,0.3511584 -0.04265,0.055182 -0.170142,0.3938037 -0.28316,0.7524855 -0.113022,0.3586856 -0.326745,0.9681921 -0.475006,1.3544686 -0.280605,0.7310795 -0.959904,3.0709712 -1.194176,4.1135784 -0.0744,0.3310909 -0.18644,0.7345946 -0.249065,0.8967083 -0.134102,0.3471502 -0.569433,2.53200045 -0.760912,3.8188569 -0.0739,0.4966136 -0.225679,1.446001 -0.337245,2.1096958 -0.338565,2.014068 -0.686933,5.5675994 -0.545353,5.5628935 0.04629,-0.00152 0.377733,-0.4141518 0.736415,-0.9168933 0.763926,-1.0707897 1.76399,-2.3552571 2.330738,-2.9932798 1.548705,-1.7434792 4.063004,-4.1006096 5.244067,-4.91622502 0.199768,-0.13795454 0.424629,-0.30674976 0.499503,-0.37506722 0.213606,-0.19489586 1.167084,-0.69075104 1.587857,-0.82577054 0.209863,-0.0673543 0.497008,-0.093599 0.638042,-0.0582003 0.521937,0.13099614 1.396742,1.09914653 2.532971,2.80299888 0.276451,0.4145613 2.509457,4.7269641 2.652114,5.1217879 0.0212,0.058674 0.07349,0.074051 0.116203,0.03428 0.04272,-0.039763 0.0023,-0.6492774 -0.09014,-1.3544724 -0.09228,-0.7051949 -0.214152,-1.6433768 -0.270816,-2.0848085 -0.349456,-2.72251657 -1.626108,-7.6666282 -2.735201,-10.5929709 -0.551124,-1.4541462 -1.71017,-4.3265437 -1.859064,-4.6071997 -0.04391,-0.08277 -0.28465,-0.534261 -0.534971,-1.003311 -0.250324,-0.469045 -0.760774,-1.439778 -1.134408,-2.157119 -0.820633,-1.575605 -1.362645,-2.480735 -1.515157,-2.530229 z"
           id="rect400-4-8" />
        <path
           style="fill:#000000;fill-opacity:1;stroke-width:0.100331"
           d="m -40.297537,-14.038229 c -0.09048,-0.05246 -0.190884,0.561556 -0.307656,1.868666 -0.08618,0.964711 -0.201547,2.115229 -0.256509,2.556683 -0.05496,0.4414584 -0.119423,0.9606725 -0.143248,1.1538089 -0.02381,0.1931401 -0.0744,0.6560311 -0.112283,1.028588 l -0.06878,0.6772362 -0.991748,0.3060899 c -0.609116,0.1879678 -0.966505,0.3465738 -0.926495,0.4113154 0.03583,0.057973 0.443404,0.2794736 0.905722,0.4920555 0.462319,0.212582 0.839866,0.4224678 0.838903,0.4663834 -0.0011,0.043912 -0.0685,0.4860945 -0.150105,0.9827346 -0.16776,1.0210229 -0.181604,1.255447 -0.07388,1.2508093 0.04139,-0.0019 0.339592,-0.4306965 0.662735,-0.9531452 0.323147,-0.5224526 0.625278,-0.9498159 0.671355,-0.9498159 0.04608,0 0.366675,0.3893632 0.71251,0.8653557 0.34583,0.4759924 0.645595,0.8152666 0.666065,0.7538544 0.02048,-0.061416 -0.0116,-0.4255469 -0.07114,-0.8093093 -0.197672,-1.2740166 -0.225054,-1.2152171 0.745038,-1.5962834 0.468848,-0.1841871 0.852424,-0.3723862 0.852424,-0.4181789 0,-0.045785 -0.428497,-0.2258845 -0.952167,-0.400345 -0.523669,-0.1744644 -0.975097,-0.3544158 -1.003116,-0.3997572 -0.02802,-0.045338 -0.11692,-0.6398922 -0.197528,-1.3213527 -0.0806,-0.6814606 -0.170194,-1.3744944 -0.199094,-1.5400437 -0.02889,-0.1655454 -0.07321,-0.526741 -0.09857,-0.80265 -0.05977,-0.650275 -0.33998,-2.911289 -0.415043,-3.349141 -0.02821,-0.164601 -0.05724,-0.256073 -0.0874,-0.273558 z"
           id="path9" />
      </g>
    </g>
  </g>
</svg>
