<svg xmlns="http://www.w3.org/2000/svg" width="1540" height="1540" viewBox="0 0 1540 1540" version="1.1">
	<path d="M 742.500 0.599 C 654.256 4.488, 575.514 20.346, 496.906 50.061 C 316.200 118.371, 165.485 255.180, 80.002 428.500 C 34.706 520.340, 9.690 613.006, 1.850 718 C 0.262 739.268, 0.262 800.732, 1.850 822 C 5.930 876.637, 14.779 928.306, 28.408 977.068 C 70.677 1128.298, 157.029 1261.269, 279 1362.950 C 382.669 1449.373, 509.929 1507.421, 644 1529.441 C 688.402 1536.733, 721.976 1539.382, 770 1539.382 C 818.024 1539.382, 851.598 1536.733, 896 1529.441 C 1091.385 1497.351, 1266.636 1390.749, 1386.629 1231 C 1450.842 1145.511, 1497.202 1045.128, 1520.927 940.202 C 1530.881 896.183, 1538.982 833.236, 1538.996 799.809 C 1538.998 794.432, 1539.445 789.843, 1540 789.500 C 1540.613 789.121, 1541 781.137, 1541 768.882 C 1541 755.803, 1540.654 749.096, 1540 749.500 C 1539.359 749.896, 1538.999 746.593, 1538.996 740.309 C 1538.987 717.682, 1534.707 675.494, 1528.947 641.231 C 1498.387 459.476, 1404.332 296.538, 1261 177.050 C 1188.511 116.620, 1102.790 69.121, 1011.594 38.849 C 953.148 19.449, 887.833 6.657, 823.500 2.010 C 808.568 0.932, 755.811 0.013, 742.500 0.599 M 727.500 21.601 C 725.300 21.808, 716.975 22.457, 709 23.043 C 688.424 24.556, 657.665 28.553, 635.500 32.593 C 502.547 56.831, 379.327 116.261, 276.920 205.539 C 260.052 220.244, 227.602 252.347, 211.763 270 C 102.607 391.651, 37.136 543.676, 22.917 708.500 C 20.265 739.253, 20.269 800.473, 22.926 831.500 C 35.815 982.010, 91.320 1121.455, 184.738 1238.014 C 243.401 1311.209, 316.135 1373.657, 396.813 1420.099 C 491.707 1474.724, 595.238 1506.923, 709 1517.191 C 731.931 1519.261, 813.618 1518.932, 836.500 1516.677 C 936.210 1506.853, 1021.392 1482.532, 1107 1439.444 C 1177.321 1404.050, 1237.462 1360.901, 1294.380 1305.005 C 1355.288 1245.190, 1401.967 1181.476, 1439.446 1107 C 1483.205 1020.043, 1508.108 931.638, 1517.191 831 C 1519.261 808.069, 1518.932 726.382, 1516.677 703.500 C 1506.853 603.792, 1482.540 518.635, 1439.446 433 C 1402.217 359.020, 1355.627 295.298, 1295.363 235.933 C 1238.193 179.616, 1177.670 136.118, 1107 100.554 C 1020.635 57.093, 934.468 32.683, 833 22.933 C 822.110 21.887, 736.026 20.800, 727.500 21.601 M 719.947 64.510 C 695.993 66.307, 675.518 67.947, 674.447 68.153 C 672.713 68.488, 672.537 69.239, 672.838 75.015 C 673.023 78.582, 673.478 81.820, 673.848 82.211 C 674.432 82.827, 690.961 81.966, 705.078 80.583 L 709.656 80.135 711.468 106.817 C 712.464 121.493, 713.554 133.768, 713.890 134.095 C 714.529 134.718, 733.886 133.447, 734.598 132.735 C 734.823 132.510, 734.136 120.447, 733.070 105.930 C 732.004 91.412, 731.332 79.335, 731.575 79.091 C 731.940 78.727, 738.694 78.135, 766.250 76.057 C 766.663 76.025, 766.995 74.313, 766.989 72.250 C 766.972 66.311, 765.838 60.989, 764.619 61.121 C 764.004 61.188, 743.901 62.712, 719.947 64.510 M 611.243 80.932 C 588.552 86.294, 569.688 90.978, 569.325 91.342 C 568.656 92.011, 583.398 156.731, 584.462 157.795 C 585.092 158.425, 669.082 139.158, 670.173 138.133 C 670.543 137.785, 670.159 134.466, 669.320 130.757 C 667.945 124.686, 667.579 124.065, 665.646 124.523 C 627.753 133.508, 603.323 138.954, 602.438 138.614 C 600.901 138.025, 598.695 126.806, 599.962 126.023 C 600.497 125.693, 614.336 122.340, 630.717 118.573 C 647.098 114.805, 660.880 111.382, 661.345 110.966 C 662.169 110.229, 660.388 100.246, 659.046 98.074 C 658.589 97.335, 648.297 99.348, 626.937 104.353 L 595.500 111.719 594.131 106.312 C 593.378 103.338, 592.928 100.750, 593.131 100.560 C 593.334 100.370, 607.675 96.935, 625 92.928 C 642.325 88.920, 656.918 85.281, 657.429 84.842 C 658.861 83.610, 655.781 71.557, 653.982 71.352 C 653.167 71.259, 633.934 75.570, 611.243 80.932 M 864.123 71.939 C 854.268 74.450, 849.292 83.345, 845.600 105.049 C 842.293 124.489, 846.706 132.011, 864.877 137.906 C 882.911 143.757, 924.133 149.689, 932.376 147.620 C 937.004 146.459, 941.817 141.257, 943.653 135.431 C 944.591 132.457, 945.114 129.781, 944.817 129.484 C 944.520 129.186, 939.827 128.068, 934.388 126.998 C 925.277 125.205, 924.421 125.181, 923.500 126.688 C 920.516 131.571, 919.086 132.205, 912.662 131.492 C 901.679 130.272, 874.058 124.218, 870.803 122.317 C 868.958 121.240, 867.314 119.265, 866.865 117.589 C 865.900 113.980, 868.409 99.125, 870.956 93.367 C 873.471 87.682, 876.217 87.240, 892.096 89.962 C 914.187 93.748, 922.090 95.936, 925.308 99.154 C 926.980 100.826, 927.958 102.666, 927.630 103.522 C 927.318 104.335, 927.211 105, 927.392 105 C 927.573 105, 932.344 105.943, 937.993 107.095 C 946.476 108.825, 948.413 108.956, 949.117 107.845 C 950.755 105.260, 950.043 97.509, 947.750 92.966 C 943.862 85.263, 936.163 82.206, 905 75.992 C 884.672 71.939, 869.879 70.472, 864.123 71.939 M 505.219 114.849 C 469.100 129.779, 464.991 131.707, 465.455 133.500 C 466.882 139.012, 490.899 195.472, 491.743 195.296 C 493.541 194.922, 571.489 162.745, 572.259 162.059 C 573.134 161.279, 568.663 149.721, 567.312 149.271 C 566.817 149.106, 552.728 154.601, 536.003 161.482 C 519.278 168.364, 505.303 173.658, 504.947 173.247 C 504.592 172.836, 503.509 170.475, 502.541 168 C 501.573 165.525, 500.585 163.011, 500.346 162.413 C 500.094 161.784, 512.572 156.126, 529.956 148.985 C 546.480 142.197, 559.978 136.161, 559.951 135.572 C 559.924 134.982, 558.686 131.928, 557.201 128.785 L 554.500 123.071 524.500 135.455 L 494.500 147.839 492.228 142.742 C 490.978 139.938, 490.303 137.342, 490.728 136.972 C 491.153 136.603, 505 130.779, 521.500 124.030 C 538 117.281, 551.668 111.608, 551.873 111.423 C 552.491 110.866, 547.312 98.596, 546.371 98.389 C 545.892 98.284, 527.373 105.691, 505.219 114.849 M 979.123 99.068 C 971.538 100.711, 965.822 107.728, 960.055 122.477 C 948.527 151.962, 952.265 157.262, 996.656 174.372 C 1014.631 181.301, 1027.763 184.985, 1034.500 184.988 C 1039.719 184.990, 1045.416 181.503, 1049.063 176.072 C 1054.091 168.585, 1060.238 151.376, 1060.778 143.271 C 1061.371 134.388, 1060.186 131.214, 1054.364 126.089 C 1048.377 120.820, 1039.483 116.383, 1019.500 108.698 C 996.619 99.899, 986.466 97.478, 979.123 99.068 M 986.090 119.756 C 982.267 123.579, 976.809 138.039, 977.198 143.314 C 977.456 146.824, 978.080 147.822, 981.500 150.194 C 983.700 151.720, 992.700 155.744, 1001.500 159.136 C 1014.249 164.050, 1018.707 165.323, 1023.438 165.401 C 1029.096 165.495, 1029.483 165.342, 1031.651 162.157 C 1034.956 157.300, 1038.204 148.266, 1038.748 142.414 C 1039.204 137.502, 1039.088 137.218, 1035.360 134.144 C 1029.742 129.510, 997.253 117.055, 990.673 117.012 C 989.668 117.005, 987.606 118.240, 986.090 119.756 M 1071.746 166.750 L 1053.208 195.500 1062.215 201.380 C 1067.392 204.760, 1071.493 206.835, 1071.861 206.260 C 1090.890 176.495, 1097.530 166.221, 1097.659 166.346 C 1097.746 166.431, 1098.333 178.650, 1098.963 193.500 C 1099.594 208.350, 1100.311 221.850, 1100.557 223.500 C 1100.932 226.012, 1102.473 227.436, 1110.022 232.250 C 1114.982 235.412, 1119.476 238, 1120.010 238 C 1120.544 238, 1131.223 233.903, 1143.741 228.895 C 1156.258 223.888, 1168.650 218.939, 1171.279 217.899 L 1176.057 216.007 1172.700 221.253 C 1170.854 224.139, 1165.211 232.890, 1160.160 240.699 C 1155.109 248.509, 1150.727 255.549, 1150.422 256.343 C 1149.773 258.034, 1166.813 269.641, 1167.998 268.315 C 1168.399 267.867, 1174.346 258.725, 1181.213 248 C 1188.080 237.275, 1196.248 224.557, 1199.363 219.738 L 1205.028 210.976 1191.922 202.449 C 1181.859 195.902, 1178.319 194.081, 1176.671 194.605 C 1175.490 194.979, 1162.594 199.916, 1148.012 205.574 L 1121.500 215.862 1120.874 212.181 C 1120.529 210.157, 1119.958 199.950, 1119.604 189.500 C 1119.251 179.050, 1118.682 166.962, 1118.342 162.639 L 1117.722 154.777 1104.829 146.389 C 1097.737 141.775, 1091.564 138, 1091.110 138 C 1090.656 138, 1081.942 150.938, 1071.746 166.750 M 390.769 174.292 C 384.707 177.908, 382.201 179.946, 382.569 180.961 C 383.407 183.271, 416.154 237.977, 417.019 238.511 C 417.572 238.854, 478.022 203.747, 480.816 201.460 C 481.259 201.098, 474.989 190.111, 473.985 189.490 C 473.531 189.210, 463.030 195.010, 450.650 202.378 L 428.140 215.775 414.320 192.404 C 406.719 179.549, 400.275 169.044, 400 169.058 C 399.725 169.072, 395.571 171.428, 390.769 174.292 M 733.500 174.689 C 636.937 181.028, 544.447 209.783, 463 258.785 C 361.832 319.652, 278.504 412.151, 229.486 518 C 200.950 579.620, 184.071 641.361, 176.313 712.500 C 173.813 735.425, 173.813 804.575, 176.313 827.500 C 181.530 875.342, 189.423 912.729, 203.231 955 C 244.746 1082.098, 325.779 1189.192, 438 1265.274 L 452.500 1275.105 453.131 1265.802 C 453.478 1260.686, 454.030 1248.175, 454.359 1238 L 454.956 1219.500 441.228 1209.262 C 381.406 1164.647, 331.228 1108.019, 293.977 1043.085 C 203.915 886.089, 197.120 693.390, 275.935 531.415 C 310.795 459.774, 358.623 398.397, 418.500 348.464 C 495.669 284.111, 591.423 241.356, 690.444 227.039 C 697.625 226.001, 706.650 224.865, 710.500 224.515 C 723.062 223.372, 722.268 223.876, 729.134 212.683 C 732.568 207.082, 739.555 196.088, 744.659 188.250 L 753.940 174 746.220 174.180 C 741.974 174.279, 736.250 174.508, 733.500 174.689 M 795.188 187.597 C 800.394 195.244, 807.731 206.348, 811.493 212.273 C 818.881 223.909, 818.314 223.523, 829.500 224.525 C 885.754 229.562, 952.894 248.836, 1008.585 275.935 C 1089.144 315.134, 1154.893 369.142, 1208.516 440.164 C 1217.705 452.334, 1231 471.326, 1231 472.282 C 1231 472.951, 1218.079 483, 1217.218 483 C 1216.748 483, 1213.302 478.475, 1209.560 472.944 C 1165.013 407.091, 1104.776 350.849, 1036.429 311.297 C 977.453 277.168, 912.840 254.658, 846.124 244.999 C 838.218 243.855, 831.568 243.098, 831.348 243.319 C 831.128 243.539, 834.265 249.295, 838.320 256.110 C 849.428 274.776, 864.720 302.462, 877.038 326.209 C 883.102 337.899, 888.452 347.852, 888.925 348.325 C 889.399 348.799, 898.272 352.022, 908.643 355.488 C 950.595 369.506, 989.202 389.086, 1023.176 413.573 C 1028.080 417.108, 1032.499 420, 1032.995 420 C 1034.840 420, 1039.505 412.532, 1041.658 406.134 C 1042.881 402.501, 1044.084 400.197, 1044.331 401.014 C 1049.567 418.346, 1058.591 427.368, 1076 432.678 C 1076.825 432.930, 1074.883 434.020, 1071.683 435.102 C 1068.484 436.184, 1064.367 438.052, 1062.535 439.253 L 1059.203 441.437 1075.922 457.969 C 1100.264 482.038, 1116.457 501.570, 1134.622 528.770 C 1140.310 537.287, 1142.688 541.671, 1142.041 542.450 C 1141.518 543.080, 1139.100 545.025, 1136.668 546.772 L 1132.247 549.947 1121.700 534.224 C 1109.348 515.807, 1094.416 496.944, 1079.881 481.394 C 1065.104 465.584, 1051.247 452.691, 1049.678 453.293 C 1048.559 453.723, 1046.586 458.058, 1044.350 465 C 1044.074 465.854, 1043.135 464.342, 1042.167 461.487 C 1039.720 454.268, 1035.724 447.887, 1030.951 443.574 C 1026.533 439.583, 1015.806 434.002, 1012.550 434.001 C 1009.681 434, 1011.835 432.526, 1016.750 431.128 C 1019.087 430.464, 1021 429.568, 1021 429.139 C 1021 428.077, 989.687 407.503, 978.378 401.134 C 965.940 394.128, 940.741 382.030, 928 376.946 C 919.166 373.422, 898.344 366, 897.289 366 C 897.114 366, 898.381 368.792, 900.103 372.205 C 917.219 406.111, 950.161 483.620, 969.505 535.500 C 982.561 570.517, 1006 638.849, 1006 641.895 C 1006 642.786, 988.972 655.420, 988.594 654.809 C 988.488 654.639, 984.531 642.800, 979.801 628.500 C 969.060 596.032, 956.611 561.618, 944.351 530.500 C 933.001 501.694, 918.072 465.868, 916.868 464.550 C 916.377 464.013, 915.993 516.147, 915.984 584.550 L 915.968 705.500 896.734 718.173 C 751.658 813.763, 640.847 873.948, 546 908.668 C 524.460 916.553, 487.436 927.769, 486.392 926.726 C 485.911 926.244, 492.254 891.580, 498.603 860 C 533.443 686.702, 583.162 521.495, 641.657 384.654 C 646.323 373.738, 649.913 364.579, 649.634 364.300 C 648.903 363.570, 631.907 369.275, 614.500 376.093 C 549.500 401.555, 489.527 444.897, 444.722 498.788 C 440.475 503.896, 437 508.487, 437 508.990 C 437 510.623, 453.329 518.014, 459.844 519.330 L 466.189 520.612 459.844 521.780 C 451.704 523.279, 438.945 529.625, 432.310 535.474 C 423.214 543.494, 413.167 561.448, 412.991 570 C 412.925 573.193, 411.556 571.026, 410.489 566.040 C 410.082 564.137, 408.879 560.550, 407.816 558.070 L 405.882 553.560 401.806 560.530 C 394.717 572.651, 382.192 598.921, 376.081 614.486 C 357.790 661.070, 348.748 704.609, 346.484 757 C 345.869 771.239, 347.206 803.352, 349.005 817.538 L 349.918 824.740 344.555 834.446 C 338.399 845.587, 339.045 846.187, 336.552 827 C 334.144 808.463, 333 789.929, 333 769.445 C 333 693.408, 352.128 620.677, 389.570 554.344 L 397.319 540.616 392.122 535.838 C 385.826 530.049, 372.841 523.454, 364 521.555 C 359.323 520.551, 358.421 520.137, 360.782 520.079 C 365.719 519.960, 375.693 516.340, 383.086 511.985 C 395.486 504.681, 406.681 489.758, 410.343 475.653 C 411.178 472.437, 412.057 469.609, 412.297 469.369 C 412.537 469.129, 413.030 470.784, 413.392 473.047 C 413.753 475.310, 415.109 479.769, 416.404 482.957 C 418.751 488.732, 424.932 499, 426.063 499 C 426.390 499, 430.894 493.937, 436.073 487.750 C 456.334 463.542, 486.353 435.715, 513.766 415.732 C 539.416 397.032, 573.956 377.741, 603.371 365.685 C 613.948 361.349, 645.500 350.558, 656.628 347.469 C 657.249 347.297, 665.851 330.809, 675.744 310.828 C 685.637 290.848, 697.583 267.525, 702.291 259 C 706.998 250.475, 710.432 243.350, 709.922 243.166 C 709.411 242.982, 702.358 243.786, 694.247 244.953 C 538.268 267.396, 400.276 358.334, 317.319 493.353 C 306.054 511.688, 288.923 545.241, 280.483 565.500 C 263.478 606.322, 251.303 650.333, 245.031 693.659 C 238.170 741.055, 238.170 798.945, 245.031 846.341 C 263.033 970.698, 326.184 1086.841, 420.500 1169.053 C 436.044 1182.602, 454.945 1197.388, 455.725 1196.609 C 456.061 1196.273, 456.490 1193.636, 456.679 1190.749 C 459.528 1147.143, 465.561 1079.786, 466.912 1076.493 C 467.431 1075.229, 469.430 1074.032, 472.310 1073.262 C 474.826 1072.589, 484.052 1069.367, 492.811 1066.101 C 579.499 1033.783, 680.040 973.874, 773 899.146 C 790.898 884.759, 844.505 839.425, 886.500 803.164 L 915.500 778.124 915.761 818.618 L 916.023 859.111 919.705 860.650 C 929.917 864.917, 948.631 881.453, 964.238 900 C 990.148 930.790, 1025.566 983.248, 1058.364 1039.413 C 1064.760 1050.365, 1070.270 1059.590, 1070.609 1059.913 C 1071.287 1060.559, 1071.130 1058.850, 1067.446 1025.500 C 1056.685 928.096, 1034.750 815.216, 1008.761 723.500 C 1005.956 713.600, 1003.625 704.317, 1003.580 702.871 C 1003.517 700.803, 1005.207 698.712, 1011.500 693.071 L 1019.500 685.900 1021.288 691.700 C 1025.255 704.572, 1036.364 745.298, 1042.417 769.158 C 1064.402 855.824, 1080.549 941.940, 1089.543 1020.500 C 1090.991 1033.150, 1092.319 1043.644, 1092.493 1043.821 C 1093.547 1044.892, 1112.729 1019.582, 1124.295 1001.858 C 1136.192 983.627, 1142.150 973.094, 1151.433 953.878 C 1172.302 910.681, 1185.806 864.118, 1191.064 817.227 L 1192.216 806.954 1188.858 801.227 C 1187.011 798.077, 1182.099 792.084, 1177.943 787.909 C 1169.408 779.334, 1158.178 772.941, 1147.936 770.826 C 1144.671 770.152, 1142 769.330, 1142 769 C 1142 768.670, 1144.671 767.848, 1147.936 767.174 C 1162.173 764.234, 1178.405 752.697, 1187.102 739.339 C 1191.156 733.111, 1191.482 732.127, 1191.275 726.757 C 1190.926 717.717, 1186.392 690.325, 1182.392 673.094 C 1175.127 641.797, 1163.552 610.218, 1148.007 579.289 L 1138.351 560.078 1143.557 555.584 L 1148.763 551.089 1154.837 562.295 C 1181.981 612.366, 1198.663 666.793, 1205.011 726 C 1205.965 734.888, 1206.605 737.232, 1209.184 741.267 C 1216.415 752.581, 1233.722 764.418, 1247.064 767.174 C 1250.329 767.848, 1253 768.670, 1253 769 C 1253 769.330, 1250.329 770.152, 1247.064 770.826 C 1233.705 773.585, 1216.345 785.467, 1209.212 796.733 C 1206.844 800.475, 1206.049 803.113, 1205.517 809 C 1197.391 898.915, 1162.647 982.177, 1104.199 1051.796 L 1093.876 1064.093 1095.012 1079.663 C 1095.940 1092.389, 1097.991 1147.003, 1097.567 1147.693 C 1097.501 1147.799, 1090.519 1135.739, 1082.051 1120.895 C 1073.582 1106.050, 1066.290 1093.679, 1065.846 1093.405 C 1065.402 1093.131, 1060.210 1097.052, 1054.307 1102.119 C 985.559 1161.135, 900.382 1197.044, 809 1205.536 C 800.351 1206.340, 798.269 1207.240, 791.723 1213.008 C 782.440 1221.188, 773.117 1237.164, 771.415 1247.808 C 770.560 1253.156, 769.440 1253.156, 768.585 1247.808 C 766.883 1237.164, 757.560 1221.188, 748.277 1213.008 C 741.731 1207.240, 739.649 1206.340, 731 1205.536 C 678.179 1200.628, 620.954 1184.635, 576.987 1162.494 L 570.152 1159.051 555.730 1176.776 C 531.530 1206.517, 512.056 1231.436, 512.027 1232.697 C 512.012 1233.356, 520.489 1238.175, 530.865 1243.406 C 592.371 1274.417, 655.695 1292.421, 724.659 1298.504 C 746.754 1300.453, 793.246 1300.453, 815.341 1298.504 C 859.602 1294.600, 899.695 1286.186, 941 1272.135 C 1129.227 1208.103, 1266.505 1042.970, 1294.969 846.341 C 1301.830 798.945, 1301.830 741.055, 1294.969 693.659 C 1285.304 626.896, 1262.160 560.750, 1228.096 502.541 L 1220.104 488.884 1226.786 482.554 L 1233.467 476.224 1235.658 479.448 C 1241.251 487.678, 1255.201 513.198, 1264.065 531.415 C 1325.570 657.816, 1335.623 805.562, 1291.862 939.932 C 1280.802 973.890, 1263.910 1011.904, 1246.023 1043.085 C 1197.721 1127.284, 1127.284 1197.721, 1043.085 1246.023 C 926.946 1312.647, 791.471 1334.263, 658.500 1307.387 C 613.516 1298.295, 567.979 1282.378, 524.500 1260.549 C 511.300 1253.922, 500.206 1248.500, 499.847 1248.500 C 499.488 1248.500, 492.852 1256.825, 485.101 1267 C 471.280 1285.144, 471.049 1285.529, 473.133 1287 C 477.875 1290.348, 501.474 1302.733, 516.500 1309.759 C 569.133 1334.371, 626.717 1351.736, 683 1359.968 C 715.575 1364.732, 726.717 1365.432, 770 1365.432 C 813.283 1365.432, 824.425 1364.732, 857 1359.968 C 923.229 1350.281, 992.470 1327.487, 1050.500 1296.267 C 1087.204 1276.521, 1121.385 1253.396, 1153.032 1226.900 C 1169.220 1213.347, 1213.647 1168.939, 1226.909 1153.055 C 1305.972 1058.363, 1351.927 947.535, 1364.182 822 C 1366.205 801.274, 1365.888 732.960, 1363.674 712.500 C 1356.012 641.704, 1339.034 579.585, 1310.514 518 C 1261.496 412.151, 1178.168 319.652, 1077 258.785 C 993.393 208.483, 897.760 179.391, 799.611 174.401 L 785.722 173.695 795.188 187.597 M 331.066 218.269 C 312.677 233.246, 297.480 245.980, 297.294 246.566 C 296.974 247.576, 338.241 299.214, 339.802 299.757 C 340.652 300.052, 355.333 288.306, 355.830 286.933 C 356.011 286.432, 352.258 281.242, 347.489 275.401 C 342.720 269.560, 339.197 264.446, 339.659 264.037 C 340.122 263.627, 351.194 254.623, 364.264 244.028 C 377.334 233.433, 388.280 224.357, 388.587 223.859 C 389.452 222.459, 380.933 212.812, 379.364 213.414 C 378.617 213.701, 367.133 222.797, 353.844 233.627 L 329.683 253.319 325.908 248.909 C 323.832 246.484, 322.441 244.218, 322.817 243.874 C 323.193 243.529, 334.750 234.136, 348.500 223 C 362.250 211.864, 373.647 202.367, 373.827 201.897 C 374.168 201.002, 366.127 190.986, 365.093 191.019 C 364.767 191.029, 349.455 203.292, 331.066 218.269 M 1200.060 251.980 L 1175.621 275.855 1182.494 283.177 C 1186.274 287.205, 1189.734 290.650, 1190.182 290.833 C 1190.631 291.016, 1198.826 283.450, 1208.395 274.018 L 1225.792 256.871 1224.499 263.685 C 1223.787 267.433, 1221.321 280.738, 1219.019 293.251 L 1214.833 316.002 1217.836 319.751 C 1219.488 321.813, 1223.033 325.642, 1225.714 328.260 L 1230.589 333.020 1257.044 329.024 C 1271.595 326.826, 1285.063 324.758, 1286.973 324.427 C 1290.146 323.878, 1288.912 325.313, 1272.649 341.081 L 1254.852 358.336 1262.352 365.836 L 1269.853 373.337 1273.676 369.995 C 1275.779 368.156, 1287.015 357.393, 1298.644 346.076 L 1319.787 325.500 1308.938 314.075 L 1298.090 302.650 1267.988 306.935 C 1251.433 309.292, 1237.650 310.983, 1237.360 310.693 C 1236.948 310.281, 1245.265 263.253, 1247.499 253.361 C 1247.876 251.694, 1245.538 248.663, 1236.894 239.611 C 1230.795 233.225, 1225.512 228.024, 1225.153 228.053 C 1224.794 228.082, 1213.502 238.850, 1200.060 251.980 M 277.942 270.917 C 274.063 272.141, 271.811 273.508, 266.787 277.684 C 261.628 281.975, 215.818 333.042, 216.233 334.041 C 216.380 334.395, 227.949 344.887, 241.942 357.358 L 267.384 380.033 273.116 373.767 C 281.968 364.090, 282.002 363.959, 276.856 359.254 C 274.460 357.064, 271.174 354.145, 269.552 352.768 L 266.605 350.263 281.548 333.530 C 289.767 324.327, 297.708 316.168, 299.196 315.399 C 303.816 313.009, 306.581 313.687, 312.059 318.553 C 314.878 321.056, 317.524 322.969, 317.939 322.803 C 318.354 322.636, 321.704 319.125, 325.382 315 L 332.071 307.500 325.786 301.708 C 317.989 294.524, 314.684 292.701, 310.368 293.205 C 307.360 293.556, 307 293.339, 307 291.167 C 307 287.694, 303.805 282.991, 298.282 278.337 C 290.304 271.613, 283.546 269.148, 277.942 270.917 M 276.322 292.638 C 275.344 293.037, 248.276 322.973, 244.271 328.086 C 243.232 329.411, 243.868 330.368, 248.368 334.253 L 253.694 338.851 268.097 322.746 C 284.121 304.828, 287 301.247, 287 299.229 C 287 298.468, 285.685 296.531, 284.077 294.923 C 281.332 292.178, 279.078 291.514, 276.322 292.638 M 733.946 327.851 C 727.349 332.082, 711.527 348.940, 701.363 362.568 C 677.395 394.704, 660.749 428.743, 647.117 473.500 C 639.536 498.391, 633.998 531.102, 634.003 550.960 C 634.014 588.981, 647.401 613.737, 673 623.073 C 678.660 625.137, 681.309 625.447, 693.500 625.472 C 705.365 625.496, 708.568 625.155, 714.500 623.237 C 729.018 618.543, 738.021 611.294, 744.192 599.328 C 749.825 588.404, 750.500 584.626, 750.500 564 C 750.500 544.341, 749.737 538.532, 743.996 514.500 C 735.410 478.561, 734.418 473.619, 733.033 459.908 C 729.964 429.501, 732.441 397.495, 740.998 357 C 744.726 339.360, 745 337.737, 745 333.298 C 745 324.537, 741.671 322.897, 733.946 327.851 M 774.571 326.571 C 772.257 328.886, 772.606 334.891, 776.028 351.661 C 783.106 386.340, 783.500 388.993, 785.502 415.500 C 787.177 437.664, 786.696 450.795, 783.452 471.500 C 782.071 480.312, 781.575 482.649, 776.977 502 C 767.929 540.086, 767.566 542.468, 767.531 564 C 767.505 580.487, 767.789 584.350, 769.372 589 C 775.625 607.369, 785.709 617.485, 803.500 623.237 C 809.453 625.161, 812.594 625.492, 824.500 625.449 C 836.596 625.404, 839.384 625.078, 845 623.050 C 858.237 618.269, 868.278 609.402, 874.455 597.036 C 881.888 582.156, 884.457 567.974, 883.667 546.176 C 883.015 528.185, 881.526 517.152, 877.130 497.742 C 862.912 434.966, 834.733 378.828, 798.500 341.095 C 788.568 330.753, 781.197 325, 777.876 325 C 776.923 325, 775.436 325.707, 774.571 326.571 M 1272 377.081 C 1272 377.400, 1274.824 382.125, 1278.276 387.581 L 1284.553 397.500 1294.526 397.806 L 1304.500 398.112 1313 411.706 C 1317.675 419.182, 1323.817 428.984, 1326.648 433.487 L 1331.796 441.674 1327.898 449.967 C 1325.754 454.528, 1324 458.653, 1324 459.133 C 1324 460.917, 1336.487 479.913, 1337.195 479.205 C 1338.280 478.120, 1371 407.019, 1371 405.746 C 1371 403.281, 1354.419 377.999, 1352.500 377.538 C 1349.574 376.836, 1271.999 376.395, 1272 377.081 M 219.500 382.051 C 206.300 382.424, 192.562 382.790, 188.970 382.864 L 182.440 383 173.813 397.061 L 165.187 411.122 168.525 418.311 C 182.968 449.412, 199.965 484.500, 200.588 484.500 C 201.005 484.500, 204.134 480, 207.542 474.500 L 213.738 464.500 209.421 455.874 L 205.105 447.249 218.693 425.124 L 232.281 403 241.390 402.985 C 246.401 402.976, 250.966 402.639, 251.536 402.235 C 252.106 401.831, 254.776 397.900, 257.471 393.500 C 260.165 389.100, 263.013 384.488, 263.799 383.250 L 265.230 381 254.365 381.186 C 248.389 381.289, 232.700 381.678, 219.500 382.051 M 1323.179 400.273 C 1325.903 405.266, 1338.520 424.974, 1339 424.986 C 1339.648 425.002, 1351.320 399.972, 1350.854 399.567 C 1350.659 399.398, 1344.056 398.943, 1336.179 398.556 L 1321.859 397.852 1323.179 400.273 M 196.250 403.746 C 190.613 403.924, 186 404.355, 186 404.703 C 186 405.972, 197.290 430, 197.886 429.999 C 198.367 429.999, 206.109 417.889, 214.300 404.324 C 214.921 403.296, 214.139 403.047, 210.800 403.211 C 208.435 403.327, 201.887 403.568, 196.250 403.746 M 1370 470.752 C 1352.675 477.663, 1338.312 483.471, 1338.082 483.660 C 1337.852 483.849, 1339.369 488.312, 1341.454 493.579 C 1344.827 502.101, 1345.478 503.095, 1347.372 502.605 C 1348.542 502.302, 1358.950 498.259, 1370.500 493.620 C 1382.050 488.980, 1391.626 485.307, 1391.780 485.456 C 1391.935 485.605, 1386.364 501.201, 1379.401 520.114 C 1372.438 539.026, 1366.725 554.999, 1366.704 555.609 C 1366.672 556.570, 1374.832 577.867, 1375.617 578.870 C 1375.899 579.230, 1440 554.094, 1440 553.624 C 1440 552.752, 1432.666 535.330, 1432.012 534.647 C 1431.562 534.179, 1422.063 537.428, 1410.901 541.868 C 1399.739 546.308, 1390.417 549.751, 1390.185 549.519 C 1389.953 549.287, 1394.992 535.518, 1401.382 518.921 C 1407.772 502.325, 1413 488.135, 1413 487.389 C 1413 486.141, 1403.661 461.984, 1402.158 459.344 C 1401.708 458.555, 1391.522 462.168, 1370 470.752 M 120.248 502.760 C 110.761 526.278, 103.003 545.965, 103.008 546.510 C 103.012 547.054, 105.956 548.718, 109.549 550.206 L 116.083 552.913 116.932 550.706 C 118.832 545.772, 129.331 519.482, 129.496 519.246 C 129.594 519.107, 140.753 523.494, 154.293 528.996 C 167.834 534.498, 179.270 538.999, 179.706 538.997 C 180.479 538.994, 188.339 519.983, 187.780 519.469 C 187.626 519.327, 176.704 514.870, 163.508 509.564 C 150.313 504.258, 139.178 499.578, 138.764 499.164 C 138.350 498.750, 140.956 491.066, 144.556 482.089 C 148.155 473.112, 150.965 465.639, 150.800 465.483 C 150.562 465.259, 137.879 460, 137.575 460 C 137.531 460, 129.734 479.242, 120.248 502.760 M 105.384 567.913 C 96.523 571.937, 93.208 579.599, 85.610 613.618 C 77.367 650.527, 77.838 657.779, 88.874 663.872 C 91.573 665.362, 95.463 666.421, 99.335 666.719 C 104.649 667.129, 105.983 666.865, 109 664.808 C 110.925 663.496, 113.524 660.567, 114.776 658.300 C 116.028 656.033, 120.198 642.100, 124.043 627.339 C 127.888 612.577, 131.858 599.375, 132.866 598 C 135.517 594.383, 140.365 594.102, 142.552 597.439 C 144.602 600.568, 144.399 602.121, 138.658 627.134 C 134.298 646.134, 132.358 651, 129.142 651 C 127.666 651, 126.929 652.803, 125.160 660.750 C 123.966 666.112, 122.991 671.063, 122.994 671.750 C 123.002 673.543, 132.398 673.363, 135.998 671.501 C 139.735 669.568, 143.337 664.790, 145.799 658.500 C 149.098 650.069, 160 599.827, 160 593.054 C 160 582.347, 155.726 576.481, 145.771 573.525 C 139.060 571.532, 134.415 571.628, 129.495 573.863 C 123.986 576.366, 120.996 582.271, 116.517 599.500 C 114.515 607.200, 111.532 618.675, 109.889 625 C 106.082 639.646, 105.219 641.796, 102.843 642.550 C 99.739 643.535, 96 640.458, 96 636.918 C 96 632.389, 104.956 593.851, 106.613 591.250 C 107.401 590.013, 108.905 589, 109.956 589 C 112.120 589, 112.204 588.789, 114.906 576.523 C 117.038 566.848, 116.809 566.024, 112 566.037 C 110.625 566.041, 107.648 566.885, 105.384 567.913 M 1411 583.769 C 1393.675 587.392, 1379.355 590.458, 1379.179 590.583 C 1378.527 591.042, 1393.019 658.742, 1395.006 664.516 C 1400.905 681.664, 1408.840 684.786, 1433.338 679.597 C 1464.293 673.041, 1465.892 667.482, 1453.602 609.181 C 1449.971 591.955, 1447 577.667, 1447 577.431 C 1447 576.441, 1440.924 577.511, 1411 583.769 M 1416.755 604.913 C 1406.996 606.972, 1398.739 608.928, 1398.406 609.260 C 1397.489 610.177, 1405.753 648.654, 1407.918 653.547 C 1410.149 658.591, 1412.364 660, 1418.060 660 C 1425.129 660, 1439.557 656.140, 1442.425 653.482 C 1446.102 650.074, 1445.839 644.060, 1441 620.877 C 1438.800 610.338, 1437 601.554, 1437 601.357 C 1437 600.722, 1434.783 601.111, 1416.755 604.913 M 682.989 666.250 C 679.754 667.891, 677.941 669.717, 676.286 673 C 670.171 685.131, 670.820 704.450, 677.777 717.395 C 683.710 728.436, 700.889 742, 708.940 742 C 721.095 742, 732.099 722.549, 732.206 700.876 C 732.258 690.384, 729.933 683.838, 724.073 677.978 C 718.872 672.777, 709.474 667.803, 700.540 665.522 C 692.371 663.436, 688.193 663.610, 682.989 666.250 M 821 664.690 C 815.053 665.685, 805.681 669.407, 800.193 672.954 C 789.828 679.653, 786 687.075, 786 700.475 C 786 722.635, 796.754 742, 809.060 742 C 817.749 742, 835.020 727.799, 840.929 715.796 C 845.191 707.138, 846.710 696.696, 845.281 685.874 C 843.031 668.829, 835.507 662.265, 821 664.690 M 68.607 725.095 C 58.942 732.697, 59.059 753.699, 68.829 765.114 C 73.011 770, 76.766 772, 81.754 772 C 84.812 772, 86.235 771.329, 88.646 768.750 C 93.010 764.082, 94.519 759.539, 94.374 751.500 C 94.178 740.638, 89.306 729.804, 82.528 725.160 C 78.384 722.320, 72.171 722.291, 68.607 725.095 M 1457.362 725.210 C 1450.594 730.018, 1445.821 740.710, 1445.626 751.500 C 1445.481 759.539, 1446.990 764.082, 1451.354 768.750 C 1456.606 774.367, 1464.488 772.921, 1471.171 765.114 C 1480.941 753.699, 1481.058 732.697, 1471.393 725.095 C 1467.780 722.253, 1461.451 722.304, 1457.362 725.210 M 113.423 725.967 C 110.163 727.286, 105.131 732.807, 102.572 737.872 C 95.463 751.944, 97.894 767.274, 108.069 772.536 C 113.789 775.494, 119.325 773.810, 124.950 767.404 C 130.483 761.103, 132.336 755.670, 132.423 745.500 C 132.506 735.743, 131.221 731.963, 126.257 727.363 C 123.581 724.883, 117.687 724.242, 113.423 725.967 M 1413.743 727.363 C 1408.779 731.963, 1407.494 735.743, 1407.577 745.500 C 1407.664 755.670, 1409.517 761.103, 1415.050 767.404 C 1420.675 773.810, 1426.211 775.494, 1431.931 772.536 C 1442.106 767.274, 1444.537 751.944, 1437.428 737.872 C 1434.752 732.576, 1429.781 727.248, 1426.271 725.913 C 1421.811 724.217, 1416.470 724.836, 1413.743 727.363 M 40.832 758.709 C 31.533 764.478, 31.719 781.719, 41.197 792.486 C 46.039 797.987, 51.539 801, 56.738 801 C 64.189 801, 68 795.832, 68 785.728 C 68 777.209, 65.725 771.023, 60.425 765.128 C 53.473 757.395, 46.586 755.139, 40.832 758.709 M 1487.215 758.665 C 1482.462 761.007, 1475.438 769.267, 1473.592 774.684 C 1471.573 780.610, 1471.522 791.175, 1473.494 794.989 C 1478.142 803.977, 1489.694 802.835, 1498.803 792.486 C 1513.148 776.189, 1504.265 750.261, 1487.215 758.665 M 135.227 767.116 C 127.147 771.116, 121 781.905, 121 792.087 C 121 800.844, 126.592 807.861, 134.258 808.726 C 139.400 809.305, 143.031 807.738, 147.937 802.822 C 152.967 797.781, 155.312 791.690, 155.377 783.500 C 155.443 775.088, 152.584 768.979, 147.435 766.536 C 143.081 764.470, 140.308 764.602, 135.227 767.116 M 1392.407 766.572 C 1387.395 769.044, 1384.558 775.216, 1384.623 783.500 C 1384.688 791.690, 1387.033 797.781, 1392.063 802.822 C 1396.969 807.738, 1400.600 809.305, 1405.742 808.726 C 1413.408 807.861, 1419 800.844, 1419 792.087 C 1419 781.857, 1412.791 771.014, 1404.685 767.090 C 1399.586 764.621, 1396.614 764.496, 1392.407 766.572 M 84.025 785.787 C 72.638 791.430, 58.016 809.552, 53.889 823.138 C 51.860 829.819, 51.855 830.040, 53.658 833.718 C 56.087 838.672, 60.708 841.608, 67.386 842.443 C 73.437 843.198, 76.480 842.835, 89.289 839.823 L 98.079 837.757 104.478 839.918 C 114.580 843.331, 119.701 843.556, 124.926 840.819 C 130.788 837.748, 133.321 833.099, 132.450 827.015 C 131.029 817.100, 122.324 802.383, 112.164 792.720 C 101.640 782.712, 94.020 780.835, 84.025 785.787 M 1438.207 784.992 C 1429.263 789.051, 1416.922 803.280, 1410.983 816.378 C 1405.237 829.049, 1406.452 836.301, 1415.074 840.819 C 1420.299 843.556, 1425.420 843.331, 1435.522 839.918 L 1441.921 837.757 1450.711 839.823 C 1463.520 842.835, 1466.563 843.198, 1472.614 842.443 C 1479.292 841.608, 1483.913 838.672, 1486.342 833.718 C 1488.145 830.040, 1488.140 829.819, 1486.111 823.138 C 1481.941 809.410, 1467.275 791.326, 1455.790 785.750 C 1449.111 782.508, 1444.153 782.294, 1438.207 784.992 M 882 881.425 C 847.727 889.026, 801.728 918.582, 746.500 968.488 C 729.384 983.955, 679.291 1034.303, 659.930 1055.500 C 628.395 1090.025, 580 1145.955, 580 1147.875 C 580 1148.965, 598.572 1157.649, 614.157 1163.848 C 647.095 1176.946, 682.334 1185.978, 718.225 1190.519 L 729.500 1191.945 736 1188.811 C 745.638 1184.165, 757.420 1172.026, 762.812 1161.186 C 765.087 1156.614, 767.500 1150.201, 768.174 1146.936 C 768.848 1143.671, 769.670 1141, 770 1141 C 770.330 1141, 771.152 1143.671, 771.826 1146.936 C 772.500 1150.201, 774.913 1156.614, 777.188 1161.186 C 782.293 1171.447, 794.155 1183.823, 803.652 1188.793 L 809.803 1192.012 821.652 1190.485 C 877.549 1183.281, 930.635 1165.794, 978.378 1138.857 C 1000.880 1126.162, 1033.532 1102.679, 1052.944 1085.232 L 1058.389 1080.339 1055.535 1075.419 C 1047.218 1061.079, 1021.703 1020.489, 1007.498 999 C 963.372 932.249, 930.471 893.380, 908.798 882.398 C 904.863 880.404, 902.672 880.017, 895.783 880.102 C 891.227 880.159, 885.025 880.754, 882 881.425 M 1397.572 886.337 C 1395.334 888.576, 1393.638 894.188, 1392.319 903.724 C 1391.905 906.724, 1392.203 908.661, 1393.350 910.412 C 1394.872 912.734, 1394.851 912.913, 1392.981 913.506 C 1390.388 914.329, 1389.568 916.041, 1387.620 924.697 C 1385.478 934.213, 1385.571 936.390, 1388.252 939.507 C 1390.307 941.895, 1393.574 942.777, 1425.502 949.557 C 1444.751 953.644, 1461.226 956.991, 1462.113 956.994 C 1463.277 956.998, 1464.079 955.341, 1464.989 951.050 C 1465.684 947.777, 1466.022 944.500, 1465.741 943.768 C 1465.414 942.915, 1454.338 940.151, 1434.865 936.063 C 1418.164 932.558, 1403.914 929.477, 1403.198 929.218 C 1402.300 928.893, 1402.104 927.778, 1402.565 925.623 C 1402.933 923.905, 1403.341 922.378, 1403.471 922.229 C 1403.602 922.079, 1417.740 924.934, 1434.890 928.572 C 1452.039 932.210, 1466.628 934.973, 1467.311 934.711 C 1468.688 934.183, 1471.496 922.164, 1470.480 921.144 C 1470.127 920.790, 1455.812 917.536, 1438.669 913.914 L 1407.500 907.328 1407.655 904.092 C 1407.741 902.312, 1407.988 900.679, 1408.205 900.461 C 1408.422 900.244, 1422.302 902.975, 1439.050 906.530 C 1455.797 910.085, 1470.279 912.995, 1471.231 912.997 C 1472.209 912.999, 1473.184 912.022, 1473.473 910.750 C 1475.567 901.530, 1475.719 900.014, 1474.637 899.156 C 1473.216 898.029, 1406.523 883.962, 1402.705 883.984 C 1401.125 883.993, 1398.893 885.016, 1397.572 886.337 M 104.831 906.842 C 85.763 911.604, 69.837 915.826, 69.439 916.225 C 68.314 917.354, 71.144 929.118, 72.683 929.709 C 73.438 929.998, 80.455 928.632, 88.277 926.672 L 102.500 923.110 105.257 925.748 C 106.773 927.199, 107.673 928.689, 107.257 929.059 C 106.840 929.428, 99.525 931.427, 91 933.500 C 82.475 935.573, 75.140 937.591, 74.701 937.984 C 73.752 938.832, 76.886 952, 78.036 952 C 80.901 952, 148.869 934.660, 150.696 933.464 C 154.314 931.093, 154.468 927.788, 151.537 915.388 C 148.665 903.230, 146.503 899.432, 142 898.630 C 140.625 898.385, 123.899 902.081, 104.831 906.842 M 127.189 916.851 C 123.719 917.762, 120.950 918.956, 121.038 919.504 C 121.126 920.052, 121.972 921.563, 122.918 922.862 C 124.591 925.158, 124.799 925.188, 130.365 923.943 C 133.514 923.238, 136.329 922.277, 136.620 921.806 C 137.496 920.389, 135.928 914.993, 134.671 915.097 C 134.027 915.150, 130.660 915.939, 127.189 916.851 M 1374.601 973.308 C 1372.272 975.637, 1365 995.582, 1365 999.641 C 1365 1004.512, 1367.662 1005.789, 1403.423 1018.065 C 1422.631 1024.658, 1438.709 1029.691, 1439.151 1029.249 C 1439.593 1028.807, 1440.869 1025.787, 1441.987 1022.538 C 1443.500 1018.140, 1443.717 1016.443, 1442.836 1015.899 C 1442.186 1015.497, 1435.443 1013.061, 1427.853 1010.486 C 1414.115 1005.824, 1414.051 1005.788, 1413.407 1002.355 C 1413.051 1000.458, 1412.993 998.674, 1413.277 998.389 C 1413.562 998.105, 1421.069 1000.371, 1429.959 1003.425 L 1446.122 1008.978 1448.130 1004.440 C 1449.234 1001.944, 1450.219 998.715, 1450.318 997.265 C 1450.497 994.672, 1449.929 994.430, 1416.500 982.866 C 1397.800 976.397, 1381.242 971.081, 1379.705 971.052 C 1378.064 971.022, 1375.956 971.953, 1374.601 973.308 M 128.750 986.214 C 107.196 994.470, 92 1000.815, 92 1001.557 C 92 1004.067, 96.303 1014, 97.389 1013.996 C 98 1013.994, 111.907 1008.869, 128.293 1002.609 L 158.086 991.225 159.413 994.363 C 160.143 996.088, 160.461 997.776, 160.120 998.113 C 159.779 998.451, 146.113 1003.802, 129.750 1010.005 C 112.294 1016.622, 100 1021.807, 100 1022.552 C 100 1025.004, 104.289 1035, 105.341 1035 C 106.473 1035, 171.361 1010.412, 174.105 1008.944 C 174.996 1008.467, 176.282 1006.734, 176.961 1005.093 C 177.987 1002.618, 177.915 1001.259, 176.537 997.111 C 175.624 994.362, 173.975 990.967, 172.873 989.566 C 171.772 988.165, 171.130 986.598, 171.449 986.083 C 172.167 984.921, 167.685 972.703, 166.420 972.375 C 165.914 972.244, 148.963 978.471, 128.750 986.214 M 1383.093 991.162 C 1382.487 992.901, 1382.145 994.478, 1382.333 994.667 C 1382.862 995.195, 1397.313 1000.028, 1397.527 999.748 C 1397.631 999.612, 1397.511 997.857, 1397.260 995.848 C 1396.833 992.431, 1396.435 992.062, 1391.049 990.098 C 1387.884 988.944, 1385.047 988, 1384.745 988 C 1384.443 988, 1383.700 989.423, 1383.093 991.162 M 1345.735 1045.088 C 1343.610 1046.326, 1338 1057.120, 1338 1059.971 C 1338 1061.087, 1337.556 1062, 1337.014 1062 C 1336.472 1062, 1334.687 1064.657, 1333.048 1067.905 C 1330.716 1072.524, 1330.340 1074.037, 1331.319 1074.849 C 1333.313 1076.505, 1400.275 1109, 1401.692 1109 C 1402.842 1109, 1409.576 1097.198, 1408.815 1096.514 C 1408.642 1096.358, 1404 1093.910, 1398.500 1091.074 L 1388.500 1085.917 1400.609 1086.442 C 1411.265 1086.905, 1412.899 1086.760, 1414.218 1085.234 C 1415.960 1083.219, 1421.208 1071.875, 1420.654 1071.321 C 1420.218 1070.885, 1391.740 1069.065, 1384.750 1069.026 L 1380 1069 1380 1065.077 C 1380 1059.197, 1376.429 1055.733, 1363.875 1049.437 C 1353.140 1044.054, 1349.154 1043.098, 1345.735 1045.088 M 189.715 1048.313 C 186.572 1050.054, 184 1052.105, 184 1052.871 C 184 1053.637, 184.976 1055.843, 186.168 1057.772 C 188.094 1060.889, 188.163 1061.405, 186.786 1062.390 C 185.934 1063.001, 173.211 1069.800, 158.514 1077.500 C 143.816 1085.200, 131.562 1092.070, 131.282 1092.767 C 130.682 1094.260, 136.075 1104.994, 137.426 1104.998 C 138.347 1105, 185.548 1080.480, 191.750 1076.777 L 195 1074.837 196.750 1077.993 C 200.593 1084.924, 200.156 1084.771, 206.904 1081.546 C 210.257 1079.943, 213 1078.139, 213 1077.535 C 213 1076.224, 197.171 1046.223, 196.143 1045.589 C 195.751 1045.346, 192.858 1046.572, 189.715 1048.313 M 1351.424 1064.147 C 1350.560 1065.819, 1349.998 1067.316, 1350.176 1067.476 C 1350.354 1067.635, 1353.763 1069.399, 1357.750 1071.395 L 1365 1075.025 1364.967 1070.763 C 1364.934 1066.532, 1364.890 1066.480, 1358.965 1063.804 L 1352.995 1061.109 1351.424 1064.147 M 1307.641 1113.100 C 1304.569 1114.953, 1292 1135.076, 1292 1138.142 C 1292 1139.652, 1293.013 1142.005, 1294.250 1143.370 C 1297.123 1146.539, 1350.020 1180.716, 1353.342 1181.550 C 1356.790 1182.415, 1361.348 1177.880, 1368.417 1166.554 C 1374.155 1157.360, 1374.780 1155.325, 1372.926 1151.861 C 1371.949 1150.036, 1344.218 1131.232, 1336.995 1127.497 C 1334.093 1125.997, 1333.941 1126.025, 1333.111 1128.218 C 1332.635 1129.473, 1331.927 1134.123, 1331.537 1138.551 L 1330.827 1146.602 1336.398 1150.301 C 1342.675 1154.469, 1343.522 1154.676, 1344.818 1152.361 C 1345.627 1150.915, 1346.309 1151.110, 1350.618 1154.023 C 1353.303 1155.839, 1355.648 1157.437, 1355.830 1157.575 C 1356.431 1158.033, 1352.788 1163, 1351.851 1163 C 1351.156 1163, 1311.813 1137.964, 1310.176 1136.479 C 1309.998 1136.318, 1310.584 1134.772, 1311.478 1133.043 L 1313.103 1129.900 1316.801 1132.139 C 1318.836 1133.371, 1321.509 1135.018, 1322.742 1135.799 C 1323.976 1136.581, 1325.601 1136.984, 1326.354 1136.695 C 1327.871 1136.112, 1329.467 1125.379, 1328.435 1122.692 C 1327.622 1120.571, 1315.761 1113.083, 1312.228 1112.460 C 1310.728 1112.195, 1308.664 1112.483, 1307.641 1113.100 M 199.781 1135.322 C 182.336 1147.520, 168.049 1158.115, 168.031 1158.866 C 167.995 1160.436, 174.784 1170, 175.935 1170 C 176.356 1170, 182.157 1166.175, 188.827 1161.500 C 195.496 1156.825, 201.403 1153, 201.952 1153 C 202.502 1153, 204.271 1153.802, 205.883 1154.783 L 208.815 1156.566 200.209 1162.533 C 195.476 1165.815, 188.981 1170.420, 185.776 1172.767 L 179.948 1177.034 184.054 1183.080 L 188.160 1189.125 190.830 1187.380 C 200.819 1180.851, 253.560 1143.683, 253.809 1142.997 C 254.407 1141.350, 246.702 1130.900, 245.288 1131.443 C 244.533 1131.733, 239.405 1135.168, 233.892 1139.077 C 223.595 1146.377, 221.897 1146.874, 217.765 1143.793 C 216.220 1142.641, 217.346 1141.590, 228.078 1134.169 C 234.704 1129.587, 240.367 1125.208, 240.662 1124.438 C 241.291 1122.798, 234.374 1112.966, 232.665 1113.072 C 232.024 1113.111, 217.227 1123.124, 199.781 1135.322 M 249.778 1201.336 C 234.225 1215.271, 220.946 1227.345, 220.268 1228.167 C 219.248 1229.405, 219.865 1230.585, 223.879 1235.066 L 228.720 1240.472 237.860 1232.128 C 242.887 1227.538, 247 1223.991, 247 1224.245 C 247 1224.498, 244.512 1229.981, 241.470 1236.429 L 235.941 1248.152 239.859 1252.826 C 242.014 1255.397, 244.675 1258.310, 245.772 1259.299 C 247.728 1261.064, 247.822 1260.978, 250.725 1254.799 C 264.419 1225.656, 265.348 1223.920, 266.920 1224.557 C 269.883 1225.757, 275.495 1226.162, 277.641 1225.330 C 280.900 1224.066, 297.985 1208.865, 299.585 1205.806 C 300.617 1203.833, 300.728 1202.415, 300.001 1200.503 C 298.620 1196.870, 293.372 1190.537, 290.445 1188.970 C 289.100 1188.251, 288 1187.126, 288 1186.472 C 288 1185.029, 280.191 1176, 278.943 1176 C 278.455 1176, 265.331 1187.401, 249.778 1201.336 M 1257.853 1179.750 C 1251.126 1186.851, 1244.016 1196.088, 1243.405 1198.522 C 1243.017 1200.068, 1243.472 1202.049, 1244.647 1203.933 C 1247.107 1207.879, 1296.206 1248.763, 1299.468 1249.581 C 1303.015 1250.472, 1305.651 1248.482, 1313.888 1238.701 C 1321.430 1229.745, 1323.195 1226.462, 1322.302 1223.047 C 1321.851 1221.322, 1284.291 1188.747, 1270.615 1178.221 C 1266.177 1174.804, 1262.073 1175.296, 1257.853 1179.750 M 1263.004 1196.496 C 1261.714 1197.869, 1260.848 1199.152, 1261.079 1199.347 C 1261.311 1199.542, 1270.117 1206.929, 1280.649 1215.761 L 1299.799 1231.820 1302.422 1229.081 L 1305.045 1226.343 1285.614 1210.172 C 1274.927 1201.277, 1265.996 1194, 1265.766 1194 C 1265.536 1194, 1264.293 1195.123, 1263.004 1196.496 M 271.113 1202.396 L 265.243 1207.792 269.001 1209.268 C 272.756 1210.743, 272.761 1210.741, 277.379 1206.794 C 279.921 1204.622, 282 1202.274, 282 1201.577 C 282 1200.282, 278.890 1197, 277.663 1197 C 277.289 1197, 274.341 1199.428, 271.113 1202.396 M 1201.244 1239.500 C 1197.756 1243.075, 1194.568 1246, 1194.159 1246 C 1192.815 1246, 1184.762 1254.787, 1185.135 1255.845 C 1185.650 1257.307, 1238.183 1313.500, 1239.034 1313.500 C 1240.331 1313.500, 1249 1304.971, 1249 1303.695 C 1249 1303, 1246.490 1299.972, 1243.422 1296.966 C 1240.354 1293.960, 1236.958 1290.275, 1235.874 1288.778 C 1233.977 1286.157, 1234.319 1286.241, 1245.063 1291.028 C 1251.200 1293.763, 1256.757 1296, 1257.411 1296 C 1258.757 1296, 1270 1286.250, 1270 1285.082 C 1270 1284.665, 1262.237 1280.867, 1252.750 1276.641 C 1230.908 1266.912, 1232.386 1267.897, 1233.955 1264.109 C 1236.174 1258.750, 1234.590 1254.770, 1226.853 1246.263 C 1211.902 1229.825, 1210.933 1229.569, 1201.244 1239.500 M 329.252 1236.803 C 327.591 1237.736, 316.280 1249.937, 304.116 1263.915 C 278.612 1293.223, 278.975 1292.469, 286.766 1299.934 C 301.114 1313.681, 306.281 1316.490, 310.628 1312.901 C 312.758 1311.142, 351.763 1266.614, 354.896 1262.363 C 358.709 1257.191, 357.315 1254.206, 346.886 1245.210 C 335.781 1235.631, 333.377 1234.485, 329.252 1236.803 M 1207.842 1253.425 L 1205.184 1255.746 1210.970 1262.123 L 1216.756 1268.500 1218.055 1264.190 L 1219.353 1259.879 1214.926 1255.492 L 1210.500 1251.105 1207.842 1253.425 M 316.809 1272.295 L 300.133 1291.500 302.241 1293.750 C 303.400 1294.987, 304.675 1296, 305.073 1296 C 305.471 1296, 310.436 1290.713, 316.106 1284.250 C 321.775 1277.787, 329.235 1269.311, 332.683 1265.414 L 338.952 1258.328 336.218 1255.709 L 333.484 1253.090 316.809 1272.295 M 1143.668 1286.096 C 1141.097 1287.799, 1138.143 1290.274, 1137.103 1291.596 C 1136.063 1292.918, 1134.602 1294.002, 1133.856 1294.005 C 1132.395 1294.010, 1122.500 1301.168, 1122.500 1302.220 C 1122.500 1303.062, 1167.998 1365.881, 1169.103 1366.564 C 1169.949 1367.087, 1181 1359.471, 1181 1358.365 C 1181 1358.050, 1176.950 1352.261, 1172 1345.500 C 1167.050 1338.739, 1163 1332.707, 1163 1332.094 C 1163 1331.482, 1165.025 1327.236, 1167.500 1322.658 C 1172.102 1314.147, 1172.864 1310.537, 1170.869 1306.684 C 1167.821 1300.794, 1155.407 1284.725, 1153.280 1283.916 C 1149.642 1282.533, 1148.738 1282.738, 1143.668 1286.096 M 1145.717 1303.255 L 1142.934 1305.500 1147.885 1312.359 L 1152.836 1319.217 1154.418 1316.158 C 1155.288 1314.476, 1156 1312.628, 1156 1312.052 C 1156 1311.205, 1149.208 1300.987, 1148.656 1301.005 C 1148.570 1301.008, 1147.248 1302.020, 1145.717 1303.255 M 455.136 1329.750 C 453.489 1331.132, 420 1394.775, 420 1396.524 C 420 1397.083, 431.649 1403, 432.750 1403 C 433.194 1403, 436.681 1396.700, 440.500 1389 L 447.443 1375 451.777 1375 L 456.111 1375 448.102 1390.671 C 443.697 1399.289, 440.329 1406.723, 440.617 1407.190 C 441.334 1408.349, 450.626 1413.001, 452.217 1412.997 C 453.705 1412.993, 487 1348.267, 487 1345.377 C 487 1341.786, 484.053 1339.205, 473.543 1333.593 C 462.483 1327.687, 458.569 1326.869, 455.136 1329.750 M 459.520 1351.960 C 457.584 1355.804, 456 1359.186, 456 1359.475 C 456 1359.764, 457.792 1360, 459.983 1360 C 463.755 1360, 464.100 1359.736, 466.483 1355.033 C 469.658 1348.769, 469.636 1348.380, 466.020 1346.510 L 463.040 1344.970 459.520 1351.960 M 1000.108 1364.106 C 992.192 1367.321, 985.518 1370.149, 985.275 1370.391 C 984.672 1370.995, 1014.041 1443.907, 1015.168 1444.604 C 1015.663 1444.910, 1022.579 1442.569, 1030.535 1439.401 C 1041.164 1435.169, 1045 1433.194, 1045 1431.954 C 1045 1429.002, 1040.786 1420, 1039.404 1420 C 1038.672 1420, 1035.695 1420.946, 1032.787 1422.102 C 1029.879 1423.258, 1026.525 1424.583, 1025.334 1425.045 C 1023.094 1425.915, 1023.139 1425.993, 1017.323 1411.357 C 1017.073 1410.729, 1019.823 1406.827, 1023.434 1402.686 C 1027.045 1398.546, 1030 1394.796, 1030 1394.354 C 1030 1392.655, 1024.646 1380, 1023.927 1380 C 1023.511 1380, 1020.544 1383.120, 1017.335 1386.933 C 1014.126 1390.746, 1011.234 1393.896, 1010.908 1393.933 C 1010.251 1394.007, 1005 1381.074, 1005 1379.383 C 1005 1378.796, 1008.263 1377.058, 1012.250 1375.521 C 1016.237 1373.984, 1019.873 1372.393, 1020.330 1371.984 C 1021.198 1371.206, 1017.480 1361.317, 1015.592 1359.381 C 1014.790 1358.559, 1010.674 1359.816, 1000.108 1364.106 M 527.524 1361.750 C 524.510 1369.397, 501 1434.238, 501 1434.904 C 501 1435.870, 501.787 1436.205, 518.914 1442.514 C 528.568 1446.070, 531.511 1446.799, 532.149 1445.794 C 533.741 1443.285, 536.179 1434.910, 535.689 1433.632 C 535.416 1432.920, 531.774 1431.091, 527.596 1429.568 C 523.418 1428.044, 520 1426.656, 520 1426.482 C 520 1426.309, 524.975 1412.565, 531.055 1395.939 C 537.136 1379.313, 541.748 1365.360, 541.305 1364.931 C 540.489 1364.141, 530.038 1360.001, 528.857 1360.001 C 528.503 1360, 527.904 1360.787, 527.524 1361.750 M 601.553 1386.170 C 600.712 1388.684, 584 1461.521, 584 1462.674 C 584 1463.784, 607.297 1469.809, 613.398 1470.278 C 616.157 1470.490, 616.357 1470.221, 617.672 1464.537 C 618.430 1461.257, 618.839 1458.022, 618.580 1457.347 C 618.321 1456.673, 614.485 1455.342, 610.055 1454.390 C 605.625 1453.438, 602 1452.257, 602 1451.764 C 602 1451.272, 605.150 1437.333, 609 1420.788 C 612.850 1404.244, 616 1390.115, 616 1389.392 C 616 1388.162, 613.022 1387.085, 605.249 1385.503 C 602.963 1385.037, 601.866 1385.235, 601.553 1386.170 M 925 1388.016 C 913.904 1391.054, 909.992 1393.739, 910.008 1398.306 C 910.021 1401.946, 926.757 1462.980, 928.451 1465.566 C 930.787 1469.131, 934.225 1469.522, 942.842 1467.201 C 947.054 1466.067, 952.411 1464.641, 954.746 1464.032 C 959.962 1462.672, 963 1459.585, 963 1455.645 C 963 1451.055, 957.827 1432.871, 956.361 1432.308 C 954.657 1431.654, 946.177 1438.885, 945.425 1441.634 C 945.104 1442.807, 945.280 1445.353, 945.815 1447.292 C 946.777 1450.777, 946.748 1450.825, 943.292 1451.473 C 941.369 1451.834, 939.678 1451.987, 939.534 1451.814 C 938.786 1450.913, 926.748 1403.919, 927.160 1403.507 C 927.427 1403.239, 928.991 1402.752, 930.635 1402.423 C 933.565 1401.837, 933.657 1401.945, 935.316 1407.913 C 936.247 1411.261, 937.476 1414, 938.047 1414 C 940.094 1414, 949 1404.731, 948.988 1402.613 C 948.964 1398.367, 946.057 1389.690, 943.883 1387.376 C 941.003 1384.310, 938.188 1384.405, 925 1388.016 M 851.686 1402.017 C 850.138 1402.481, 848.226 1403.398, 847.436 1404.053 C 846.321 1404.978, 846 1404.972, 846 1404.024 C 846 1402.469, 834.028 1403.633, 832.411 1405.346 C 831.621 1406.183, 832.809 1417.094, 836.726 1445 C 839.699 1466.175, 842.482 1483.858, 842.912 1484.297 C 843.658 1485.057, 855.760 1483.573, 856.732 1482.602 C 856.988 1482.345, 855.313 1468.492, 853.009 1451.818 C 850.704 1435.143, 848.747 1420.600, 848.660 1419.500 C 848.532 1417.895, 849.200 1417.441, 852.045 1417.202 L 855.590 1416.904 859.935 1448.702 C 862.324 1466.191, 864.568 1480.828, 864.920 1481.230 C 865.557 1481.956, 878.007 1480.327, 878.939 1479.395 C 879.208 1479.126, 877.138 1462.478, 874.339 1442.400 C 868.466 1400.271, 868.702 1400.931, 859.576 1401.086 C 856.784 1401.133, 853.234 1401.552, 851.686 1402.017 M 686.675 1406.627 C 684.326 1425.220, 678.904 1480.308, 679.317 1481.384 C 679.863 1482.806, 692.007 1484.386, 693.155 1483.185 C 694.233 1482.057, 702.178 1404.778, 701.305 1403.907 C 700.862 1403.466, 697.528 1402.801, 693.895 1402.429 L 687.290 1401.754 686.675 1406.627 M 762.645 1406.872 C 758.105 1407.391, 756.340 1408.096, 754.787 1410.015 C 752.833 1412.427, 752.801 1413.406, 753.496 1449.494 C 753.888 1469.847, 754.545 1486.861, 754.956 1487.302 C 755.367 1487.742, 758.582 1487.967, 762.102 1487.802 L 768.500 1487.500 768.774 1471.424 L 769.048 1455.348 772.524 1453.690 L 776 1452.032 776.011 1465.766 C 776.017 1473.320, 776.301 1481.188, 776.642 1483.250 L 777.262 1487 784.162 1487 C 788.772 1487, 791.215 1486.585, 791.521 1485.750 C 791.773 1485.063, 791.647 1467.975, 791.240 1447.777 C 790.351 1403.665, 791.341 1406.592, 777.223 1406.352 C 772.425 1406.270, 765.865 1406.505, 762.645 1406.872 M 768.425 1429.729 C 768.810 1433.980, 769.261 1437.594, 769.427 1437.760 C 769.593 1437.927, 771.137 1437.261, 772.858 1436.281 C 775.839 1434.585, 775.988 1434.203, 775.994 1428.250 L 776 1422 771.862 1422 L 767.724 1422 768.425 1429.729" stroke="none" fill="#55a6d1" fill-rule="evenodd"/>
</svg>