 <svg  version="1.0" xmlns="http://www.w3.org/2000/svg"  width="1536.000000pt" height="1536.000000pt" viewBox="0 0 1536.000000 1536.000000"  preserveAspectRatio="xMidYMid meet">  <g transform="translate(0.000000,1536.000000) scale(0.100000,-0.100000)" fill="#55a6d0" stroke="none"> <path d="M6405 15168 c-38 -4 -140 -12 -225 -17 -85 -6 -191 -14 -235 -20 -44 -5 -112 -10 -151 -10 -38 -1 -75 -6 -80 -11 -6 -6 -44 -14 -85 -17 -41 -3 -79 -10 -86 -15 -6 -5 -38 -12 -70 -15 -32 -3 -63 -10 -70 -15 -7 -5 -36 -13 -65 -18 -67 -11 -134 -28 -176 -46 -18 -8 -46 -14 -61 -14 -16 0 -42 -7 -57 -15 -16 -8 -41 -15 -55 -15 -15 0 -32 -7 -39 -15 -8 -9 -30 -15 -57 -15 -47 0 -151 -26 -167 -41 -6 -5 -19 -9 -31 -9 -11 0 -37 -9 -58 -20 -20 -11 -43 -20 -51 -20 -8 0 -27 -6 -43 -14 -15 -8 -46 -22 -68 -32 -22 -9 -52 -23 -67 -31 -14 -7 -34 -13 -45 -13 -10 0 -27 -7 -37 -15 -11 -8 -30 -15 -42 -15 -12 0 -35 -7 -50 -15 -16 -8 -39 -15 -50 -15 -12 0 -24 -7 -28 -15 -3 -8 -17 -15 -31 -15 -14 0 -25 -4 -25 -9 0 -5 -10 -13 -22 -16 -42 -13 -153 -69 -161 -82 -4 -7 -19 -13 -31 -13 -13 0 -26 -7 -30 -15 -3 -9 -18 -15 -35 -15 -16 0 -33 -4 -36 -10 -3 -5 -17 -10 -30 -10 -13 0 -28 -6 -32 -13 -4 -7 -28 -23 -53 -36 -25 -13 -70 -40 -100 -60 -30 -20 -67 -42 -82 -49 -16 -6 -28 -16 -28 -22 0 -5 -8 -10 -19 -10 -10 0 -24 -7 -31 -15 -7 -8 -23 -15 -36 -15 -13 0 -24 -4 -24 -9 0 -5 -10 -13 -22 -17 -12 -3 -26 -10 -32 -15 -37 -31 -106 -79 -113 -79 -5 0 -20 -11 -35 -25 -15 -14 -38 -30 -50 -35 -35 -15 -48 -24 -168 -113 -47 -35 -97 -74 -112 -87 -14 -14 -43 -34 -65 -45 -37 -19 -73 -48 -140 -112 -18 -18 -35 -33 -37 -33 -4 0 -34 -24 -83 -67 -14 -13 -30 -23 -34 -23 -11 0 -109 -99 -109 -110 0 -6 -4 -10 -10 -10 -5 0 -23 -12 -40 -27 -56 -51 -370 -363 -370 -369 0 -13 -129 -144 -142 -144 -5 0 -8 -4 -8 -10 0 -12 -69 -104 -81 -108 -5 -2 -9 -9 -9 -16 0 -6 -8 -19 -18 -27 -42 -39 -112 -118 -112 -128 0 -6 -4 -11 -10 -11 -5 0 -10 -6 -10 -14 0 -7 -7 -19 -15 -26 -8 -7 -15 -19 -15 -27 0 -8 -16 -29 -35 -47 -19 -19 -35 -38 -35 -45 0 -6 -4 -11 -10 -11 -5 0 -16 -15 -25 -32 -8 -18 -29 -47 -45 -65 -17 -18 -30 -37 -30 -43 0 -6 -7 -13 -15 -16 -8 -4 -15 -11 -15 -18 0 -6 -16 -35 -35 -65 -19 -29 -35 -56 -35 -59 0 -4 -18 -29 -40 -57 -22 -27 -40 -55 -40 -61 0 -6 -7 -17 -15 -24 -9 -7 -25 -34 -36 -59 -33 -75 -43 -94 -71 -137 -16 -23 -28 -46 -28 -51 0 -5 -9 -16 -20 -26 -11 -9 -20 -26 -20 -37 0 -11 -4 -20 -9 -20 -4 0 -19 -22 -32 -50 -13 -27 -27 -50 -31 -50 -5 0 -8 -8 -8 -17 0 -10 -7 -31 -15 -47 -8 -15 -15 -36 -15 -46 0 -10 -7 -25 -15 -34 -8 -8 -15 -21 -15 -29 0 -8 -7 -20 -15 -27 -8 -7 -15 -19 -15 -26 0 -17 -41 -98 -52 -102 -4 -2 -8 -12 -8 -22 0 -10 -6 -25 -14 -32 -7 -8 -17 -29 -21 -46 -3 -18 -11 -32 -16 -32 -5 0 -9 -12 -9 -27 0 -16 -7 -41 -15 -57 -8 -15 -15 -36 -15 -45 0 -9 -7 -29 -15 -45 -8 -15 -15 -35 -15 -43 0 -8 -6 -27 -13 -41 -8 -15 -21 -42 -30 -60 -9 -19 -17 -41 -17 -51 0 -9 -7 -26 -15 -37 -8 -10 -15 -31 -15 -45 0 -15 -7 -32 -15 -39 -8 -7 -15 -21 -15 -32 0 -11 -6 -34 -14 -51 -21 -50 -46 -153 -46 -194 0 -21 -7 -51 -15 -67 -8 -15 -15 -43 -15 -60 0 -18 -7 -41 -15 -52 -8 -10 -15 -37 -15 -60 0 -22 -7 -49 -15 -60 -8 -10 -15 -34 -15 -52 0 -18 -7 -49 -15 -69 -8 -19 -15 -50 -15 -69 0 -18 -6 -53 -14 -76 -8 -24 -17 -70 -20 -102 -4 -33 -10 -64 -15 -70 -5 -6 -11 -55 -14 -109 -4 -54 -10 -104 -14 -110 -12 -18 -36 -544 -36 -782 1 -273 21 -745 33 -768 6 -9 13 -59 16 -110 3 -50 12 -111 20 -135 8 -23 14 -59 14 -80 0 -20 7 -55 15 -77 8 -22 14 -56 15 -76 0 -20 7 -50 15 -65 8 -16 15 -43 15 -60 0 -17 7 -48 15 -67 8 -20 15 -51 15 -69 0 -18 7 -42 15 -52 8 -11 15 -38 15 -61 0 -23 6 -47 12 -53 7 -7 16 -41 19 -75 8 -71 29 -160 40 -167 5 -3 10 -22 12 -42 2 -20 11 -44 21 -53 9 -9 16 -26 16 -38 0 -12 7 -31 15 -41 8 -11 15 -27 15 -37 0 -9 7 -30 15 -45 8 -16 15 -36 15 -45 0 -8 5 -20 11 -26 6 -6 14 -26 19 -44 9 -38 29 -96 40 -119 4 -9 11 -31 15 -50 4 -19 14 -44 21 -55 8 -11 14 -27 14 -37 0 -10 4 -18 9 -18 5 0 13 -10 16 -22 10 -34 107 -228 116 -234 5 -3 9 -18 9 -35 0 -16 5 -29 10 -29 6 0 10 -11 10 -23 0 -13 9 -34 20 -47 11 -13 20 -29 20 -36 0 -16 33 -74 43 -74 4 0 7 -7 7 -15 0 -8 8 -23 18 -33 9 -9 33 -49 52 -87 19 -39 41 -76 47 -83 7 -7 13 -20 13 -28 0 -15 25 -59 47 -82 7 -7 13 -18 13 -23 0 -10 8 -22 40 -57 8 -10 24 -34 35 -55 11 -20 23 -37 26 -37 10 0 49 -77 49 -95 0 -8 4 -15 9 -15 5 0 12 -8 15 -18 4 -10 19 -32 34 -48 16 -16 44 -51 63 -79 19 -27 44 -59 56 -71 13 -12 23 -25 23 -30 0 -20 137 -193 193 -244 15 -13 27 -28 27 -33 0 -9 17 -30 43 -55 9 -9 17 -22 17 -29 0 -7 4 -13 9 -13 6 0 18 -13 28 -30 9 -16 24 -30 33 -30 8 0 20 -10 25 -22 6 -13 20 -27 33 -33 12 -5 22 -15 22 -22 0 -17 31 -51 205 -224 88 -88 172 -165 188 -172 15 -6 27 -16 27 -21 0 -13 161 -164 182 -171 10 -4 18 -11 18 -16 0 -5 9 -9 20 -9 11 0 20 -6 20 -12 1 -7 24 -32 53 -56 55 -44 104 -85 124 -102 7 -5 15 -10 18 -10 3 0 31 -20 63 -45 31 -25 62 -45 69 -45 7 0 16 -6 20 -13 15 -24 144 -118 153 -112 6 4 13 -1 16 -9 3 -9 12 -16 19 -16 8 0 20 -6 27 -14 8 -7 24 -17 36 -20 12 -4 22 -12 22 -17 0 -5 5 -9 11 -9 9 0 47 -26 124 -85 10 -8 25 -15 31 -15 7 0 14 -3 16 -7 5 -12 123 -73 140 -73 7 0 21 -9 31 -20 9 -11 24 -20 32 -20 8 0 15 -4 15 -10 0 -5 6 -10 14 -10 7 0 19 -7 26 -15 7 -8 20 -15 30 -15 10 0 23 -6 30 -14 14 -18 146 -86 166 -86 8 0 22 -4 32 -9 9 -4 49 -23 87 -41 39 -17 77 -36 85 -40 56 -32 151 -75 188 -85 12 -4 22 -11 22 -16 0 -5 12 -9 28 -9 15 0 40 -7 56 -15 15 -8 38 -15 50 -15 12 0 31 -7 42 -15 10 -8 28 -15 40 -15 11 0 29 -7 40 -15 10 -8 29 -15 41 -15 12 0 28 -7 37 -15 8 -8 24 -15 35 -15 12 0 38 -9 58 -20 21 -11 45 -20 55 -20 9 0 20 -4 23 -10 3 -5 21 -10 40 -10 18 0 40 -6 47 -14 8 -7 35 -16 61 -20 26 -4 47 -11 47 -17 0 -5 24 -9 53 -9 28 0 72 -6 97 -14 68 -21 129 -36 186 -46 28 -4 61 -13 72 -19 11 -6 37 -11 57 -11 19 0 52 -7 72 -15 19 -8 53 -15 74 -15 21 0 56 -6 76 -14 21 -8 71 -17 112 -20 41 -4 79 -10 85 -15 6 -5 60 -11 119 -14 63 -3 115 -11 123 -18 22 -18 1219 -18 1251 -1 12 7 71 15 130 18 59 4 113 11 119 15 6 5 47 12 90 15 43 4 87 11 97 16 10 5 48 13 85 18 86 11 165 28 222 46 25 8 59 14 75 14 17 1 41 7 55 15 14 8 41 14 60 15 20 0 41 5 46 10 6 6 43 14 82 17 40 3 72 9 72 14 0 4 21 11 48 15 26 3 53 11 60 17 7 5 29 13 50 17 38 8 84 24 139 47 17 7 40 13 51 13 11 0 22 7 26 15 3 9 18 15 34 15 16 0 35 7 42 15 7 8 23 15 35 15 13 0 36 7 51 15 16 8 40 15 54 15 14 0 34 7 44 15 11 8 29 15 40 15 18 0 116 42 166 71 8 5 22 12 30 15 8 3 22 10 30 15 8 5 22 12 30 15 50 21 101 47 106 55 3 5 18 9 35 9 16 0 29 4 29 10 0 5 16 12 35 16 19 3 35 10 35 14 0 5 13 11 30 15 16 4 33 11 36 16 3 6 16 15 27 20 12 5 45 23 72 39 28 16 61 35 75 42 14 7 31 18 38 25 7 7 20 13 28 13 8 0 14 5 14 10 0 6 5 10 11 10 16 0 103 43 107 53 2 4 10 7 17 7 8 0 20 6 27 13 39 35 207 147 222 147 7 0 19 7 26 15 7 8 17 15 22 15 5 0 15 6 23 13 7 6 25 21 41 32 15 11 42 32 60 48 17 15 35 27 39 27 4 0 24 14 45 30 21 17 43 30 49 30 6 0 8 7 5 15 -4 10 0 15 12 15 20 0 108 65 179 132 28 26 56 48 63 48 6 0 12 5 12 10 0 6 8 14 17 17 23 9 54 35 134 116 37 37 70 67 73 67 13 0 69 53 188 177 53 56 118 113 129 113 5 0 9 5 9 10 0 6 11 23 25 38 14 15 25 30 25 33 0 3 42 49 93 103 52 53 100 108 108 123 8 15 34 49 59 75 64 67 89 98 119 143 14 22 31 44 38 48 7 4 13 14 13 22 0 7 4 15 9 17 11 4 191 244 191 255 0 4 20 39 45 76 25 38 45 72 45 75 0 4 11 17 24 29 29 28 96 139 96 159 0 12 32 66 50 84 8 8 38 63 61 113 13 26 26 47 31 47 4 0 8 6 8 14 0 7 7 19 15 26 8 7 15 20 15 30 0 9 9 25 20 35 11 10 20 28 20 41 0 13 5 26 10 29 6 3 10 17 10 29 0 13 6 29 14 35 8 7 17 23 20 36 4 14 11 25 16 25 6 0 10 6 10 13 0 7 22 57 50 111 28 54 50 104 50 112 0 8 4 14 9 14 5 0 14 19 20 43 23 98 30 120 40 130 6 6 11 20 11 32 0 12 7 30 15 41 8 10 15 28 15 40 0 12 9 31 20 44 11 13 20 31 20 40 0 10 7 31 15 46 8 16 15 37 15 46 0 9 5 20 10 23 6 3 10 21 10 40 0 19 6 38 14 42 7 4 16 28 19 52 3 24 10 47 16 50 5 4 11 32 12 64 1 32 8 66 15 75 8 9 14 31 14 47 0 17 7 43 15 59 8 15 15 42 15 58 0 16 6 42 14 56 13 26 29 88 45 182 4 25 13 61 19 80 6 19 14 61 17 93 4 31 10 57 14 57 5 0 11 38 14 85 3 47 10 91 14 98 47 72 48 1755 1 1841 -5 11 -12 56 -15 100 -3 45 -10 86 -15 92 -5 7 -11 36 -14 65 -3 30 -12 71 -20 92 -8 20 -14 54 -14 75 -1 20 -7 48 -15 62 -8 14 -15 41 -15 60 0 19 -7 44 -15 54 -8 11 -15 34 -15 52 0 17 -7 45 -15 60 -8 16 -15 43 -15 59 -1 17 -7 41 -15 55 -8 14 -14 48 -15 77 0 28 -4 54 -9 57 -5 4 -12 25 -16 48 -4 23 -14 48 -21 56 -8 7 -14 26 -14 42 0 16 -4 31 -9 34 -4 3 -11 24 -15 46 -3 22 -10 40 -16 40 -5 0 -12 16 -16 35 -3 19 -12 39 -20 46 -8 6 -14 19 -14 29 0 10 -7 31 -15 46 -8 16 -15 36 -15 45 0 8 -4 19 -9 25 -5 5 -19 43 -31 84 -24 81 -56 156 -71 166 -5 3 -9 16 -9 30 0 13 -4 24 -8 24 -8 0 -52 92 -52 109 0 5 -7 11 -15 15 -8 3 -15 14 -15 24 0 11 -7 25 -15 32 -8 7 -15 25 -15 41 0 16 -4 29 -10 29 -5 0 -10 12 -10 28 0 15 -9 35 -20 45 -11 9 -20 26 -20 37 0 11 -4 20 -8 20 -4 0 -25 33 -47 73 -21 39 -45 78 -52 85 -7 7 -13 20 -13 28 0 8 -7 14 -15 14 -8 0 -15 8 -15 18 0 10 -5 23 -10 28 -6 6 -13 24 -16 40 -3 16 -9 30 -15 32 -5 2 -9 10 -9 18 0 8 -9 22 -20 31 -11 10 -20 21 -20 26 0 5 -13 26 -30 47 -16 21 -30 42 -30 48 0 6 -3 12 -7 14 -12 5 -53 66 -53 78 0 5 -4 10 -9 10 -5 0 -14 12 -20 28 -13 34 -29 58 -59 91 -13 15 -33 42 -45 61 -23 38 -49 70 -84 107 -13 13 -23 30 -23 38 0 8 -3 15 -7 15 -5 0 -19 17 -33 37 -14 20 -36 49 -50 64 -14 15 -38 44 -55 64 -16 20 -38 45 -47 56 -10 10 -18 24 -18 29 0 6 -4 10 -10 10 -5 0 -10 5 -10 11 0 6 -28 39 -62 74 -85 83 -148 156 -148 170 0 15 -43 50 -57 47 -7 -2 -13 1 -13 6 0 5 -33 43 -72 84 -40 41 -80 84 -88 96 -8 12 -22 22 -32 22 -10 0 -18 7 -18 15 0 8 -4 15 -9 15 -4 0 -53 43 -107 95 -54 52 -105 94 -111 95 -7 0 -13 5 -13 10 0 6 -6 10 -12 10 -7 0 -50 35 -95 78 -102 96 -103 97 -151 122 -21 11 -60 40 -87 64 -26 24 -59 50 -73 57 -14 8 -38 26 -55 42 -16 15 -33 27 -38 27 -4 0 -28 14 -52 30 -25 17 -48 30 -51 30 -3 0 -15 8 -25 18 -33 29 -50 42 -56 42 -5 0 -79 53 -111 79 -6 5 -20 12 -32 15 -12 4 -22 12 -22 17 0 5 -7 9 -15 9 -17 0 -99 41 -103 52 -2 4 -12 8 -22 8 -11 0 -23 6 -27 14 -4 8 -27 24 -50 36 -23 12 -47 27 -53 35 -6 7 -31 19 -55 26 -25 7 -45 18 -45 24 0 6 -26 19 -57 30 -56 18 -133 53 -143 64 -8 9 -132 69 -157 76 -13 3 -23 11 -23 16 0 5 -9 9 -19 9 -11 0 -26 6 -33 13 -13 13 -67 31 -143 47 -22 4 -41 13 -43 19 -2 6 -10 11 -18 11 -8 0 -36 9 -62 21 -26 11 -56 24 -67 28 -11 5 -37 16 -58 25 -21 9 -46 16 -56 16 -10 0 -24 6 -30 14 -7 8 -30 17 -52 21 -21 4 -41 10 -44 15 -3 5 -23 11 -45 15 -22 4 -42 11 -46 16 -3 5 -26 9 -52 9 -26 0 -60 7 -76 15 -15 8 -43 15 -60 15 -18 0 -41 7 -52 15 -10 8 -32 15 -49 15 -16 0 -41 7 -55 15 -14 8 -38 14 -55 15 -16 0 -41 6 -56 13 -14 8 -49 17 -79 20 -29 4 -58 11 -64 17 -5 5 -28 10 -49 10 -21 0 -53 6 -70 14 -18 8 -61 16 -98 19 -36 2 -74 9 -85 15 -19 11 -201 27 -469 42 -82 5 -184 13 -225 19 -89 12 -585 12 -685 -1z m57 -531 c4 -7 8 -38 8 -70 0 -52 2 -58 26 -67 14 -6 72 -10 128 -10 125 0 131 4 122 87 -9 78 -3 85 75 81 l64 -3 3 -219 c2 -169 -1 -221 -10 -228 -7 -4 -34 -8 -60 -8 -43 0 -47 2 -57 31 -6 18 -11 50 -11 73 0 69 -2 70 -141 62 -68 -4 -127 -10 -131 -12 -4 -3 -8 -39 -8 -80 0 -71 -1 -75 -26 -84 -37 -14 -80 -12 -94 5 -8 9 -14 83 -17 229 l-6 216 24 10 c29 12 100 4 111 -13z m670 -3 c10 -7 -3 -415 -14 -436 -7 -14 -21 -18 -62 -18 -31 0 -58 5 -64 13 -8 9 -8 55 -1 152 22 305 19 286 42 295 20 9 82 4 99 -6z m-992 -19 c16 -8 36 -25 44 -37 21 -30 21 -84 0 -92 -30 -12 -95 -6 -120 10 -20 14 -40 16 -102 11 -77 -6 -152 -29 -152 -46 0 -16 30 -41 48 -41 9 0 62 7 116 15 135 20 182 19 222 -5 28 -18 35 -30 50 -94 17 -72 17 -75 -2 -107 -28 -49 -71 -65 -235 -88 -177 -25 -222 -26 -260 -4 -44 26 -67 114 -33 127 32 12 107 6 126 -11 20 -18 92 -19 178 -3 85 16 111 40 74 71 -13 11 -34 10 -122 -1 -141 -19 -222 -17 -254 4 -42 27 -62 144 -36 201 19 42 76 64 206 81 64 8 122 16 127 19 25 9 99 4 125 -10z m1395 -13 c158 -21 189 -32 222 -81 26 -38 28 -69 12 -157 -8 -43 -19 -68 -42 -91 -28 -29 -37 -33 -86 -33 -31 0 -99 7 -152 16 -53 10 -103 15 -111 11 -9 -3 -18 -23 -22 -44 -10 -63 -17 -67 -78 -57 l-53 9 0 60 c1 75 40 368 53 389 5 9 46 6 257 -22z m-2038 -92 c62 -22 104 -160 69 -228 -16 -31 -16 -32 7 -37 29 -8 53 -47 62 -102 8 -48 -5 -59 -78 -69 -43 -6 -43 -6 -59 35 -9 23 -24 44 -34 48 -9 3 -62 -5 -118 -18 l-101 -25 0 -59 c0 -53 -3 -61 -25 -72 -33 -17 -85 -16 -99 1 -6 7 -23 62 -37 122 -14 60 -32 129 -39 154 -8 25 -17 68 -21 97 -8 64 -23 55 184 107 34 9 88 23 120 31 108 28 127 29 169 15z m3028 -132 c186 -57 225 -85 225 -168 0 -47 -49 -212 -78 -262 -39 -67 -109 -67 -317 -3 -82 25 -172 52 -198 59 -27 7 -53 18 -59 24 -8 8 -2 40 21 111 17 56 45 147 63 204 17 56 35 107 40 113 6 9 35 4 106 -18 53 -16 142 -43 197 -60z m-3805 -95 c14 -9 66 -53 116 -98 49 -44 122 -109 162 -144 40 -35 72 -69 72 -77 0 -17 -71 -54 -105 -54 -14 0 -39 10 -55 21 -33 25 -44 23 -165 -22 -110 -42 -107 -40 -122 -92 -12 -41 -19 -49 -59 -67 -101 -44 -102 -39 -59 270 9 58 15 126 15 152 0 52 12 69 62 87 18 7 47 19 63 26 40 18 46 18 75 -2z m4282 -72 c35 -16 101 -45 148 -65 125 -55 190 -87 190 -96 0 -4 -7 -24 -15 -44 -19 -46 -33 -46 -137 3 -46 21 -107 49 -137 62 l-54 23 -19 -24 -20 -24 29 -23 c15 -13 34 -23 41 -23 7 0 20 -4 30 -10 9 -5 57 -28 106 -50 85 -38 88 -41 81 -67 -8 -34 -23 -53 -41 -53 -7 0 -55 20 -106 44 -162 76 -203 83 -196 34 3 -23 33 -41 173 -104 127 -56 125 -55 125 -83 0 -31 -25 -71 -45 -71 -7 0 -26 7 -42 15 -15 8 -107 49 -203 90 -96 42 -179 80 -184 85 -6 6 -5 14 1 22 6 7 43 90 83 183 40 94 76 178 81 188 13 24 38 21 111 -12z m-4669 -114 c10 -20 17 -44 13 -52 -3 -8 -31 -28 -64 -44 -92 -47 -92 -39 -12 -200 39 -79 68 -147 64 -152 -10 -17 -85 -50 -106 -47 -15 2 -39 39 -90 141 -45 89 -75 137 -86 137 -8 0 -44 -14 -79 -31 -35 -17 -69 -29 -77 -26 -20 8 -50 78 -40 94 13 20 415 221 438 219 11 0 27 -17 39 -39z m5257 -165 c82 -39 219 -123 257 -158 36 -34 44 -80 21 -129 -14 -31 -19 -31 -78 1 -36 19 -49 33 -54 55 -6 30 -34 52 -134 104 -36 19 -60 25 -77 21 -54 -14 -25 -47 105 -122 47 -27 104 -66 128 -88 37 -34 42 -43 42 -83 0 -49 -36 -122 -73 -148 -32 -22 -88 -18 -143 11 -223 118 -263 143 -297 184 -32 38 -34 73 -7 118 23 37 22 37 63 15 51 -28 67 -45 67 -68 0 -28 16 -42 117 -99 84 -48 114 -53 127 -20 4 11 -7 28 -31 50 -20 19 -40 34 -45 34 -18 0 -166 98 -195 130 -37 40 -41 66 -15 113 35 64 57 90 87 103 35 15 60 11 135 -24z m-5797 -140 c15 -14 27 -31 27 -38 0 -7 -20 -29 -45 -50 -42 -34 -48 -36 -70 -24 -30 16 -45 10 -145 -55 -79 -51 -86 -60 -70 -80 22 -26 34 -22 168 60 32 20 77 50 82 55 13 14 101 29 123 21 28 -11 77 -70 102 -123 30 -62 3 -108 -107 -180 -213 -140 -262 -164 -305 -153 -35 8 -83 55 -83 80 0 35 62 69 124 67 43 -1 57 5 131 52 88 58 103 77 79 100 -18 19 -40 11 -137 -51 -37 -24 -71 -43 -74 -43 -4 0 -14 -6 -22 -13 -24 -20 -99 -39 -124 -31 -85 25 -136 164 -85 229 20 25 160 122 255 177 78 44 130 44 176 0z m3302 8 c293 -15 531 -49 825 -116 36 -8 79 -19 95 -24 17 -4 64 -18 105 -30 41 -11 100 -28 130 -37 137 -39 347 -111 415 -143 11 -5 43 -18 70 -30 28 -12 64 -27 80 -34 498 -214 990 -530 1395 -896 121 -110 363 -357 470 -480 112 -129 306 -383 384 -505 32 -49 70 -108 85 -130 94 -137 275 -481 351 -665 28 -69 60 -144 71 -168 35 -76 87 -224 124 -352 21 -69 41 -132 45 -140 4 -9 11 -36 15 -60 4 -24 11 -51 16 -60 7 -14 37 -135 59 -240 33 -155 41 -201 59 -345 40 -327 45 -402 45 -720 0 -328 -4 -388 -50 -735 -25 -187 -40 -271 -68 -390 -8 -36 -20 -87 -26 -115 -6 -27 -15 -59 -20 -70 -5 -11 -14 -38 -19 -60 -33 -143 -110 -382 -161 -500 -5 -11 -15 -36 -24 -55 -8 -19 -31 -75 -52 -125 -70 -174 -242 -506 -345 -665 -37 -58 -82 -129 -100 -158 -57 -90 -277 -381 -372 -492 -202 -235 -584 -596 -802 -758 -38 -28 -81 -61 -95 -72 -42 -35 -299 -203 -415 -272 -201 -119 -429 -235 -585 -297 -58 -23 -114 -46 -125 -51 -11 -5 -45 -19 -75 -30 -30 -11 -64 -24 -75 -29 -62 -27 -112 -44 -220 -76 -66 -20 -142 -42 -169 -50 -26 -8 -58 -15 -70 -15 -13 0 -26 -3 -30 -7 -4 -5 -33 -13 -64 -20 -31 -6 -86 -19 -122 -28 -36 -9 -92 -21 -125 -26 -33 -5 -66 -11 -73 -14 -21 -8 -276 -43 -412 -57 -169 -18 -845 -17 -1000 1 -213 24 -441 61 -585 95 -33 8 -89 21 -125 29 -213 49 -507 140 -635 197 -11 5 -83 35 -160 65 -246 99 -604 292 -870 469 -306 203 -654 500 -921 786 -96 102 -272 313 -319 380 -20 30 -48 66 -60 80 -25 27 -147 209 -242 360 -111 175 -260 461 -327 625 -21 50 -43 104 -50 120 -8 17 -22 53 -31 80 -10 28 -22 55 -25 60 -34 49 -186 573 -220 758 -5 26 -11 56 -14 65 -11 35 -46 251 -61 382 -59 512 -35 1183 60 1610 7 36 16 76 19 90 6 33 32 141 51 213 8 31 21 81 29 110 52 193 124 401 196 562 5 11 25 60 45 108 77 192 255 526 375 707 21 30 54 82 76 115 176 273 528 679 819 945 243 222 611 491 870 637 50 28 110 63 135 77 65 37 266 137 330 165 30 13 69 29 85 37 17 7 53 22 80 34 28 12 59 25 70 30 79 37 352 129 490 166 28 7 75 20 105 29 167 50 324 80 703 135 58 9 294 23 527 33 75 3 169 0 435 -13z m2993 -181 c23 -17 42 -36 42 -42 0 -7 -30 -55 -66 -107 -36 -52 -88 -130 -116 -172 -48 -75 -56 -83 -87 -78 -20 3 -81 50 -81 63 0 10 165 260 224 340 25 34 33 34 84 -4z m285 -192 c29 -20 61 -44 72 -54 11 -10 50 -42 87 -71 107 -84 130 -140 87 -209 -17 -27 -25 -32 -42 -27 -46 14 -77 47 -84 87 -5 33 -17 48 -72 94 -90 75 -123 91 -156 73 -39 -21 -105 -114 -105 -149 0 -24 13 -40 78 -94 85 -71 121 -87 141 -64 10 12 2 23 -44 62 -30 26 -55 53 -55 59 1 19 37 56 55 56 9 0 61 -35 115 -77 123 -97 124 -103 37 -195 -71 -77 -94 -83 -162 -47 -63 34 -271 205 -294 243 -35 56 -29 108 23 180 60 83 125 156 150 167 43 18 114 4 169 -34z m-7375 -171 c25 -13 147 -140 181 -188 7 -11 17 -36 22 -56 13 -57 -16 -107 -107 -189 -43 -39 -119 -107 -169 -152 -49 -44 -97 -81 -106 -81 -10 0 -61 50 -115 112 -55 61 -120 135 -146 165 -27 29 -48 57 -48 61 0 4 8 14 18 23 9 8 60 53 112 99 226 201 251 219 303 220 15 0 40 -6 55 -14z m7865 -245 l70 -68 -12 -94 c-7 -52 -19 -136 -28 -186 -24 -143 -19 -144 106 -19 93 92 111 107 127 98 29 -16 77 -69 73 -81 -8 -23 -304 -311 -320 -311 -28 0 -139 126 -139 158 0 15 9 95 20 177 11 83 20 156 20 163 0 31 -43 5 -124 -78 -49 -49 -97 -90 -106 -90 -19 0 -80 63 -80 82 0 14 300 318 314 318 4 0 40 -31 79 -69z m-8394 -217 l31 -35 -72 -81 c-40 -45 -90 -99 -110 -122 -43 -45 -44 -49 -22 -70 14 -14 17 -14 37 1 12 9 60 59 106 110 46 51 91 93 100 93 27 0 61 -30 61 -54 0 -15 -33 -59 -95 -127 -52 -57 -95 -108 -95 -114 0 -12 20 -35 31 -35 9 0 12 3 128 128 61 66 102 102 115 102 23 0 76 -44 76 -62 0 -10 -39 -55 -244 -280 -38 -43 -76 -78 -83 -78 -12 0 -172 142 -297 263 l-49 48 34 37 c19 20 37 39 40 42 6 6 207 227 228 253 23 26 46 21 80 -19z m-390 -463 c23 -10 48 -27 55 -37 12 -16 10 -23 -17 -59 -39 -50 -46 -55 -79 -55 -21 0 -37 -12 -69 -52 -107 -135 -109 -154 -27 -218 76 -61 96 -55 175 45 62 78 63 81 58 130 -4 40 0 56 18 82 36 53 59 57 102 20 30 -26 38 -41 42 -79 7 -59 -10 -94 -111 -226 -88 -117 -146 -172 -184 -173 -75 -3 -99 8 -222 106 -89 71 -94 79 -94 139 0 58 25 105 125 236 77 101 140 159 175 160 7 0 30 -8 53 -19z m9565 -208 c112 -156 142 -210 133 -245 -8 -31 -64 -87 -93 -93 -13 -3 -35 -7 -49 -10 -18 -4 -25 -12 -25 -29 0 -45 -84 -116 -138 -116 -25 0 -91 58 -127 112 -16 23 -71 100 -123 170 -79 108 -91 130 -81 145 6 10 65 56 131 103 65 47 142 102 171 122 l52 38 23 -28 c13 -15 70 -91 126 -169z m-9845 -403 c93 -56 176 -109 184 -118 14 -16 12 -24 -34 -97 -55 -90 -71 -100 -169 -110 -104 -10 -224 -26 -242 -31 -31 -9 -20 -21 58 -66 98 -55 104 -59 139 -84 l29 -22 -19 -37 c-22 -39 -51 -75 -63 -75 -4 1 -88 49 -187 109 -150 90 -181 112 -183 133 -3 26 41 111 81 155 22 25 20 25 230 49 81 10 147 20 147 24 0 13 -34 37 -132 94 -77 45 -98 62 -98 79 0 32 47 97 70 97 11 0 96 -45 189 -100z m10112 13 c28 -35 51 -85 43 -93 -5 -4 -35 -22 -68 -40 -171 -94 -196 -112 -196 -147 0 -23 43 -109 82 -165 36 -52 53 -49 226 51 50 29 98 51 106 48 16 -6 56 -77 56 -100 0 -7 -57 -46 -126 -86 -125 -73 -182 -100 -217 -101 -34 0 -96 40 -125 82 -54 79 -136 236 -147 280 -10 41 26 112 72 141 48 30 122 74 148 87 11 6 38 21 60 35 48 29 67 31 86 8z m373 -685 c22 -51 59 -135 83 -186 70 -152 59 -198 -62 -253 -61 -27 -69 -29 -95 -16 -27 14 -29 14 -52 -21 -22 -34 -60 -62 -105 -76 -16 -5 -25 0 -41 26 -11 18 -23 45 -27 60 -6 23 -2 30 34 52 27 17 41 34 41 47 0 35 -81 209 -96 209 -8 0 -31 -7 -51 -15 -33 -14 -38 -14 -55 1 -27 26 -44 89 -28 109 7 8 16 15 21 15 5 0 44 16 86 36 175 82 278 122 293 114 8 -4 33 -50 54 -102z m-10618 -21 c6 -16 -30 -100 -51 -117 -9 -7 -32 -16 -52 -19 -39 -7 -49 -20 -106 -148 -30 -69 -34 -105 -14 -125 26 -26 26 -48 2 -103 -27 -61 -52 -71 -77 -32 -9 12 -74 96 -147 186 -72 91 -131 173 -131 184 0 10 13 48 30 83 22 47 37 67 57 75 26 10 238 24 406 28 56 1 79 -3 83 -12z m-481 -563 c88 -92 164 -173 168 -180 9 -15 -3 -62 -34 -131 -17 -40 -20 -42 -76 -48 -32 -4 -94 -13 -138 -20 -293 -50 -305 -51 -305 -18 0 28 34 112 48 118 7 2 81 14 165 26 165 24 191 35 160 65 -11 11 -66 67 -123 127 l-103 107 18 60 c15 48 22 60 39 60 14 0 74 -55 181 -166z m11357 -34 c22 -63 43 -128 48 -145 11 -41 30 -93 47 -134 13 -31 13 -36 -5 -53 -11 -11 -35 -20 -53 -21 l-34 -2 -45 138 c-57 173 -62 180 -96 165 -28 -13 -29 -29 -4 -98 7 -19 18 -51 25 -70 7 -19 18 -51 25 -70 26 -75 25 -79 -16 -96 -36 -15 -38 -15 -53 5 -9 12 -27 54 -39 94 -50 154 -64 187 -82 187 -10 0 -23 -7 -30 -15 -10 -12 -3 -43 38 -168 l51 -152 -21 -18 c-27 -23 -67 -32 -80 -19 -6 6 -19 37 -30 69 -10 32 -25 74 -32 93 -39 99 -89 269 -83 283 4 10 68 36 177 71 94 31 179 60 188 66 9 5 28 9 41 7 22 -2 29 -15 63 -117z m-11567 -506 c135 -24 209 -67 221 -129 6 -35 -5 -105 -43 -270 -59 -260 -51 -244 -122 -225 -20 5 -103 24 -186 41 -82 18 -160 36 -172 40 -27 10 -29 37 -9 112 8 29 21 88 31 132 45 214 55 243 98 283 32 30 73 41 117 30 19 -4 49 -11 65 -14z m11355 -34 c118 -26 384 -100 392 -108 12 -12 38 -116 38 -153 0 -20 -12 -37 -47 -65 -27 -21 -110 -91 -185 -156 -75 -65 -141 -118 -147 -118 -15 0 -28 29 -35 83 -7 46 -6 50 25 78 35 31 35 28 5 159 -28 123 -29 124 -74 145 -37 17 -44 26 -57 71 -23 79 -21 88 18 79 17 -4 48 -11 67 -15z m504 -617 c16 -55 17 -91 3 -105 -10 -9 -56 -19 -132 -27 -188 -20 -193 -24 -181 -154 9 -100 14 -114 48 -130 25 -12 40 -12 101 -2 120 22 194 26 205 12 5 -6 12 -33 16 -58 5 -35 3 -49 -9 -59 -18 -15 -309 -52 -344 -43 -58 13 -83 34 -107 89 -13 30 -24 72 -24 93 0 21 -7 77 -15 125 -15 88 -13 119 12 169 19 38 84 77 130 78 21 0 67 6 103 14 36 7 93 13 127 14 51 1 63 -2 67 -16z m-11763 -45 c4 -38 -4 -115 -14 -126 -6 -7 -25 -19 -44 -27 -18 -8 -33 -20 -33 -28 0 -7 -7 -65 -15 -128 l-15 -114 35 -32 c27 -25 35 -40 35 -66 0 -58 -11 -97 -28 -97 -14 0 -90 49 -330 214 -40 28 -78 58 -83 68 -5 10 -4 46 3 94 l12 76 45 20 c26 11 57 24 71 28 14 5 95 36 180 69 167 64 179 68 181 49z m-313 -1045 c26 -16 54 -32 63 -38 45 -28 120 -65 130 -65 6 0 61 29 121 65 110 65 138 76 138 53 0 -7 -32 -66 -70 -132 l-70 -118 45 -75 c25 -40 45 -76 45 -79 0 -2 11 -22 25 -44 14 -22 25 -46 25 -55 0 -20 -20 -11 -150 64 -72 42 -111 59 -124 55 -11 -4 -48 -24 -83 -45 -35 -22 -66 -39 -68 -39 -3 0 -23 -11 -45 -25 -79 -50 -78 -37 5 108 36 63 65 124 65 136 0 12 -29 72 -65 133 -79 137 -77 154 13 101z m11595 0 c61 -40 117 -71 157 -89 40 -19 37 -20 222 89 88 51 89 36 6 -109 -34 -60 -61 -119 -60 -130 1 -12 22 -56 47 -98 25 -42 45 -80 45 -85 0 -5 7 -14 15 -21 15 -13 21 -61 8 -59 -5 0 -21 9 -38 19 -16 10 -41 25 -55 33 -172 96 -156 90 -192 71 -18 -9 -70 -38 -114 -65 -81 -48 -114 -59 -114 -38 0 6 29 62 65 124 36 63 65 119 65 126 0 6 -13 33 -29 59 -48 78 -101 177 -101 189 0 19 28 12 73 -16z m-11175 -916 c30 -24 76 -157 106 -306 16 -77 6 -121 -34 -145 -39 -22 -48 -21 -70 17 -21 34 -26 82 -10 92 14 9 12 46 -6 123 -18 72 -43 108 -68 99 -21 -8 -20 -27 5 -112 31 -111 42 -179 35 -216 -9 -50 -53 -80 -127 -86 -55 -5 -60 -4 -86 24 -26 28 -40 63 -79 201 -9 31 -23 77 -30 101 -19 61 -18 88 6 126 18 29 44 44 77 45 14 0 53 -65 53 -89 0 -10 -7 -24 -15 -31 -8 -7 -15 -23 -15 -36 0 -27 37 -170 52 -196 11 -23 35 -23 47 0 10 19 8 30 -24 147 -19 66 -29 157 -21 188 15 60 153 97 204 54z m11186 -63 c9 -8 16 -22 16 -30 0 -24 -30 -77 -56 -99 -40 -33 -81 -203 -54 -220 20 -12 38 16 59 88 44 150 56 180 90 214 31 32 38 35 77 29 74 -10 113 -31 130 -71 13 -32 13 -44 -1 -108 -19 -91 -69 -256 -89 -295 -18 -34 -33 -42 -84 -42 -57 0 -69 12 -54 53 7 18 12 41 12 50 0 10 10 21 23 26 34 13 43 28 66 114 25 92 26 116 6 123 -30 12 -40 -5 -80 -141 -26 -87 -62 -163 -85 -175 -46 -25 -151 4 -184 51 -20 29 -21 87 -2 148 8 25 23 73 32 106 28 99 46 139 76 168 32 31 78 36 102 11z m-11027 -436 c20 -26 154 -399 151 -420 -2 -16 -13 -25 -37 -32 -30 -8 -36 -7 -52 13 -10 13 -23 40 -29 61 -14 52 -34 72 -63 61 -12 -5 -40 -16 -62 -24 -22 -9 -70 -27 -107 -41 -36 -14 -71 -26 -77 -26 -5 0 -19 21 -30 46 -25 55 -17 78 32 93 17 5 50 17 72 25 22 8 63 23 90 34 47 17 50 20 49 53 -1 19 -9 54 -18 78 -18 47 -12 65 29 81 29 12 41 12 52 -2z m10891 -114 c110 -45 117 -48 174 -73 26 -12 51 -21 57 -21 22 0 21 -42 -4 -101 -36 -86 -52 -106 -83 -112 -22 -4 -178 -47 -264 -73 -38 -11 -14 -32 88 -74 58 -24 110 -50 116 -58 18 -21 -25 -102 -53 -102 -33 0 -358 132 -364 148 -3 8 11 51 31 97 l36 84 71 20 c40 11 93 27 118 36 26 8 54 15 63 15 22 0 76 28 76 40 0 5 -10 11 -22 15 -13 3 -54 19 -93 35 -38 15 -78 31 -88 34 -9 3 -20 13 -24 22 -8 21 17 93 36 104 18 11 13 12 129 -36z m-10823 -473 c88 -5 167 -12 175 -15 9 -4 28 -34 43 -68 35 -75 38 -66 -85 -236 -51 -70 -104 -144 -118 -164 -14 -21 -30 -38 -37 -38 -6 0 -23 24 -36 53 l-25 52 21 37 21 38 -29 62 c-16 35 -34 70 -40 78 -6 8 -16 27 -23 43 -12 27 -33 41 -83 51 -20 4 -32 18 -49 57 -26 61 -21 67 53 62 29 -2 124 -7 212 -12z m10578 -102 c55 -28 159 -90 173 -104 20 -19 34 -53 34 -82 0 -26 -18 -86 -31 -108 -7 -10 -51 -91 -95 -174 -41 -78 -99 -131 -144 -131 -25 0 -143 58 -206 101 -110 76 -104 118 63 404 40 70 94 115 135 115 16 0 48 -10 71 -21z m-10117 -424 c33 -53 67 -109 76 -123 39 -60 58 -103 58 -128 0 -51 -126 -141 -178 -127 -16 4 -24 0 -31 -18 -11 -29 -59 -75 -87 -83 -22 -7 -51 18 -73 62 -11 20 -9 26 18 51 17 16 31 39 31 51 0 23 -72 151 -97 171 -12 10 -21 9 -48 -5 -45 -25 -63 -18 -91 34 l-24 45 27 20 c29 21 251 159 293 182 23 12 27 11 46 -11 12 -13 48 -68 80 -121z m9772 -118 c26 -18 94 -61 150 -97 56 -36 104 -72 107 -81 7 -21 -34 -86 -58 -94 -12 -5 -49 13 -110 53 -51 32 -122 78 -159 101 -37 24 -69 50 -72 58 -3 8 8 35 25 59 35 51 41 51 117 1z m-124 -128 c14 -11 26 -27 26 -35 0 -8 -18 -39 -40 -68 -22 -29 -40 -58 -40 -64 0 -11 92 -87 171 -140 59 -39 65 -56 37 -95 -45 -65 -53 -64 -182 34 -59 44 -111 79 -115 77 -5 -2 -30 -29 -55 -60 -26 -32 -55 -58 -64 -58 -27 0 -72 47 -65 68 4 9 43 65 88 124 44 59 102 136 128 172 52 72 69 78 111 45z m-9406 -120 c9 -12 29 -36 43 -53 49 -60 179 -235 179 -242 0 -4 -10 -18 -22 -31 -37 -39 -58 -30 -121 55 -100 134 -117 148 -145 120 -20 -20 -14 -35 36 -99 81 -105 101 -134 102 -146 0 -13 -47 -53 -64 -53 -6 0 -42 40 -79 89 -101 133 -96 130 -152 88 -26 -20 -53 -33 -60 -31 -19 8 -65 69 -64 86 0 18 288 238 311 238 10 0 26 -10 36 -21z m311 -388 c17 -21 31 -43 31 -49 0 -5 -45 -51 -100 -102 -55 -50 -100 -99 -100 -108 0 -10 28 -46 61 -82 33 -36 71 -77 85 -92 l25 -27 -32 -36 c-18 -20 -38 -35 -44 -33 -20 5 -265 274 -265 291 0 8 44 54 97 103 53 49 118 108 143 131 25 24 50 43 57 43 6 0 25 -18 42 -39z m8766 -11 c28 -6 64 -15 80 -20 17 -4 76 -18 133 -31 90 -20 102 -25 102 -44 0 -11 -18 -38 -39 -59 -36 -35 -42 -38 -79 -31 l-40 6 -76 -86 c-42 -48 -76 -93 -76 -101 0 -7 5 -25 10 -39 11 -29 8 -37 -32 -84 -32 -37 -70 -46 -76 -16 -2 11 -10 34 -17 50 -7 17 -20 49 -29 73 -9 23 -23 59 -30 80 -33 83 -66 184 -66 199 0 8 21 40 47 70 46 54 48 55 92 50 25 -3 69 -10 96 -17z m-8364 -411 c73 -67 141 -129 151 -138 38 -33 4 -100 -44 -87 -13 3 -65 47 -116 96 -51 50 -99 90 -106 90 -24 0 -38 -27 -27 -48 6 -11 15 -22 20 -24 19 -7 171 -159 171 -172 0 -7 -11 -23 -25 -36 l-25 -24 -28 26 c-15 14 -61 58 -102 97 -78 74 -112 87 -118 45 -2 -16 22 -44 102 -115 110 -99 123 -123 89 -161 -28 -32 -54 -21 -137 60 -45 42 -111 105 -149 139 -37 35 -67 70 -67 79 0 9 17 35 38 58 162 180 217 236 228 236 7 0 72 -55 145 -121z m8021 64 c45 -35 78 -82 78 -112 0 -16 10 -26 38 -37 40 -17 78 -48 94 -78 8 -15 3 -25 -28 -57 -44 -46 -62 -48 -94 -14 -13 14 -29 25 -36 25 -13 0 -143 -114 -158 -138 -5 -10 2 -24 25 -48 l32 -33 -40 -41 c-22 -22 -49 -40 -59 -39 -11 1 -48 33 -84 73 -36 39 -93 102 -127 139 -35 37 -63 74 -63 82 0 14 83 98 166 168 21 18 52 46 69 64 43 43 95 73 126 73 14 0 42 -12 61 -27z m-7703 -338 c134 -107 181 -143 219 -171 48 -34 53 -60 17 -94 -24 -22 -25 -22 -52 -5 -15 10 -63 47 -105 81 -102 83 -112 88 -133 68 -9 -9 -14 -21 -12 -28 2 -6 45 -43 95 -81 127 -98 128 -99 114 -130 -21 -47 -37 -41 -159 51 -109 83 -116 87 -129 69 -8 -11 -13 -24 -11 -29 2 -6 39 -39 83 -74 43 -35 96 -78 118 -97 l38 -34 -22 -30 c-12 -17 -30 -31 -40 -31 -11 0 -54 28 -97 63 -43 34 -112 88 -154 120 -42 31 -82 63 -88 71 -9 11 4 35 65 117 105 142 164 209 181 209 9 0 41 -20 72 -45z m7245 -4 c34 -37 17 -63 -94 -147 -84 -63 -105 -84 -105 -104 0 -39 23 -30 131 52 55 41 106 77 115 81 11 3 24 -5 38 -23 11 -16 21 -32 21 -35 0 -9 -57 -57 -148 -124 -73 -54 -81 -64 -72 -81 6 -11 15 -20 21 -20 6 0 64 41 129 91 104 79 121 89 139 79 11 -6 27 -23 35 -39 14 -26 14 -30 -7 -48 -63 -58 -319 -243 -335 -243 -12 0 -52 45 -116 130 -54 71 -104 135 -112 141 -8 6 -14 24 -14 38 0 22 13 37 63 74 34 26 105 80 157 121 52 41 104 75 116 75 11 1 29 -8 38 -18z m-6749 -356 c61 -40 129 -84 153 -99 50 -31 55 -60 17 -96 l-25 -23 -59 36 c-32 21 -66 37 -74 37 -12 0 -129 -167 -144 -207 -3 -7 -14 -18 -25 -24 -16 -8 -28 -5 -59 15 -23 16 -39 34 -39 46 0 11 32 68 70 126 39 59 70 113 70 119 0 7 -27 31 -60 54 -62 44 -73 68 -47 102 29 38 34 36 222 -86z m6341 26 c69 -42 123 -149 104 -206 -10 -32 -41 -66 -70 -78 -35 -15 -164 -103 -173 -118 -8 -12 -5 -23 11 -44 25 -32 16 -60 -23 -75 -13 -5 -26 -14 -30 -19 -20 -33 -45 -6 -131 134 -109 177 -117 193 -111 209 3 7 49 39 103 71 55 32 106 64 114 71 26 22 134 73 155 74 11 0 34 -9 51 -19z m-457 -304 c29 -26 121 -213 121 -245 0 -62 -44 -105 -175 -171 -204 -102 -257 -113 -313 -66 -33 27 -102 153 -122 221 -11 38 -10 46 11 83 14 25 42 54 71 71 27 17 50 30 52 30 2 0 48 21 102 47 55 25 113 50 129 54 43 11 96 1 124 -24z m-5241 -73 c48 -20 91 -40 97 -45 5 -5 15 -9 23 -9 7 0 38 -16 68 -36 58 -39 70 -62 60 -119 -5 -26 -12 -35 -27 -35 -37 0 -89 29 -99 54 -9 24 -78 76 -100 76 -6 0 -22 7 -35 16 -33 21 -80 15 -80 -11 0 -22 43 -49 154 -96 86 -36 141 -87 141 -131 0 -39 -38 -116 -67 -135 -38 -25 -107 -10 -250 53 -147 66 -193 104 -193 156 0 19 6 43 14 53 14 19 16 19 58 4 32 -11 47 -25 60 -50 16 -34 30 -43 141 -94 69 -31 92 -30 92 5 0 22 -15 32 -122 85 -67 33 -133 71 -147 84 -33 31 -34 84 -5 141 43 81 86 88 217 34z m437 -188 c40 -17 40 -19 19 -93 -9 -30 -13 -57 -10 -61 16 -15 197 -73 219 -70 12 2 27 23 42 58 13 30 28 56 34 58 20 7 101 -32 101 -48 0 -17 -58 -196 -90 -280 -12 -30 -24 -63 -27 -72 -7 -24 -50 -23 -90 2 -38 23 -38 19 -17 86 10 28 14 58 11 66 -6 16 -178 78 -214 78 -17 0 -25 -12 -40 -57 -25 -75 -40 -83 -98 -55 -49 24 -51 29 -29 87 9 22 19 54 24 70 4 17 18 55 30 85 12 30 25 69 29 85 19 76 41 88 106 61z m3953 -74 c28 -21 43 -92 20 -92 -9 0 -26 -8 -39 -19 -25 -19 -43 -18 -71 7 -18 15 -37 13 -98 -8 -19 -7 -54 -19 -77 -27 -30 -10 -43 -20 -43 -33 0 -31 16 -32 98 -10 215 61 242 63 282 20 16 -17 33 -52 40 -80 24 -100 -9 -129 -229 -195 -163 -49 -190 -53 -226 -29 -39 25 -57 104 -23 104 5 0 25 7 44 16 30 14 35 14 56 0 30 -21 41 -20 136 9 84 27 108 44 98 71 -7 19 -39 16 -126 -10 -170 -51 -211 -53 -247 -13 -23 26 -53 98 -53 129 0 23 72 98 95 98 8 0 29 6 47 14 137 59 274 80 316 48z m-3366 -112 l25 -19 -28 -108 c-75 -281 -72 -273 -99 -273 -24 0 -85 24 -93 37 -3 5 8 58 24 118 16 61 36 139 45 175 9 36 20 70 26 77 16 19 72 15 100 -7z m246 -51 c226 -43 247 -49 273 -73 46 -43 54 -77 35 -154 -11 -42 -27 -77 -44 -94 -23 -25 -33 -28 -86 -28 -34 0 -86 7 -116 15 -30 8 -74 15 -97 15 -39 0 -42 -2 -53 -37 -7 -21 -16 -42 -21 -47 -11 -13 -100 14 -107 32 -5 15 18 156 44 263 8 31 14 68 14 81 0 26 17 48 37 48 7 0 61 -9 121 -21z m2578 0 c8 -7 22 -25 30 -41 20 -39 57 -225 50 -252 -18 -71 -76 -97 -330 -147 l-169 -32 -19 22 c-10 13 -18 34 -18 48 0 24 -10 72 -47 238 -19 87 -16 109 17 113 14 2 99 18 190 37 171 36 265 40 296 14z m-2030 -164 c34 -51 64 -85 75 -85 9 0 32 17 51 38 19 20 51 52 72 70 36 31 43 33 84 27 57 -9 72 -14 72 -29 0 -6 -48 -59 -106 -116 -108 -106 -134 -146 -134 -199 0 -49 -9 -61 -45 -61 -19 0 -46 5 -61 10 -26 10 -27 11 -20 79 5 58 3 72 -13 92 -41 54 -161 238 -161 248 0 7 25 11 64 11 l64 0 58 -85z m1419 50 c33 -34 35 -39 35 -106 0 -47 -5 -78 -16 -94 -14 -22 -14 -25 -1 -31 17 -6 47 -73 47 -103 0 -32 -28 -51 -76 -51 -34 0 -46 4 -50 18 -25 76 -18 72 -113 71 -128 -1 -135 -5 -141 -64 l-5 -50 -60 0 -60 0 -19 194 c-22 226 -24 220 73 222 31 0 101 6 156 13 174 22 189 21 230 -19z m-727 -23 c10 -10 46 -74 81 -142 35 -69 77 -149 93 -179 38 -70 33 -81 -37 -81 -55 0 -61 3 -103 54 -10 13 -36 16 -132 16 l-119 0 -13 -27 c-12 -26 -19 -28 -77 -31 -35 -2 -68 1 -73 6 -5 5 8 38 31 80 58 102 73 128 120 215 24 42 52 84 64 92 32 22 142 20 165 -3z"/> <path d="M7405 14490 c-13 -21 -23 -77 -15 -89 5 -9 158 -40 203 -41 14 0 47 40 47 58 0 39 -25 56 -96 63 -38 4 -83 10 -100 14 -21 5 -34 3 -39 -5z"/> <path d="M5276 14357 c-88 -24 -106 -41 -90 -84 12 -35 55 -42 122 -19 25 9 56 16 68 16 13 0 35 11 51 24 24 21 26 27 18 52 -9 25 -16 29 -50 31 -22 0 -76 -9 -119 -20z"/> <path d="M8324 14302 c-10 -7 -40 -87 -54 -149 -10 -43 2 -55 75 -77 33 -10 76 -25 96 -33 19 -8 53 -13 75 -11 34 3 41 8 58 42 23 48 33 131 17 149 -6 8 -37 22 -68 32 -32 10 -71 24 -88 30 -42 17 -98 26 -111 17z"/> <path d="M4656 14118 c-14 -70 -14 -109 1 -115 18 -7 123 26 123 38 0 12 -94 99 -107 99 -7 0 -15 -10 -17 -22z"/> <path d="M6429 13589 c-30 -4 -107 -12 -170 -18 -126 -11 -272 -32 -394 -56 -44 -9 -102 -20 -128 -25 -61 -11 -210 -47 -307 -73 -41 -11 -86 -22 -100 -24 -14 -3 -39 -11 -57 -19 -17 -8 -38 -14 -46 -14 -8 0 -28 -7 -43 -15 -16 -8 -37 -15 -46 -15 -9 0 -20 -4 -23 -10 -3 -5 -13 -10 -21 -10 -8 0 -34 -8 -57 -19 -23 -10 -82 -33 -132 -51 -120 -43 -119 -43 -365 -166 -265 -133 -268 -134 -360 -194 -41 -27 -111 -71 -156 -98 -161 -98 -553 -407 -669 -527 -22 -23 -49 -48 -60 -56 -65 -46 -414 -444 -532 -608 -43 -58 -82 -111 -88 -117 -20 -23 -121 -182 -222 -349 -68 -113 -70 -117 -86 -150 -8 -16 -51 -106 -96 -200 -114 -236 -110 -227 -191 -455 -29 -80 -55 -154 -60 -165 -17 -42 -39 -111 -45 -142 -4 -18 -11 -35 -16 -38 -5 -4 -9 -19 -9 -35 0 -16 -5 -41 -11 -57 -6 -15 -14 -48 -19 -73 -4 -25 -20 -103 -35 -175 -27 -130 -33 -170 -61 -365 -21 -153 -43 -464 -43 -628 -1 -164 14 -454 29 -557 34 -241 44 -303 66 -420 13 -71 28 -148 34 -170 46 -203 65 -270 87 -322 7 -17 13 -38 13 -47 0 -8 7 -30 15 -48 8 -18 42 -109 75 -203 34 -93 68 -183 75 -200 38 -82 238 -483 253 -507 9 -14 29 -46 43 -70 88 -147 151 -244 209 -323 37 -49 86 -117 108 -150 153 -221 525 -606 816 -845 71 -58 134 -111 142 -118 7 -6 15 -12 19 -12 3 0 34 -21 69 -47 35 -27 74 -55 86 -63 12 -8 28 -20 34 -26 14 -13 374 -232 429 -261 123 -64 483 -233 497 -233 5 0 24 -7 42 -15 18 -8 80 -30 138 -50 58 -20 112 -40 121 -45 9 -5 33 -12 53 -15 20 -4 38 -11 41 -15 3 -5 23 -11 45 -15 22 -4 42 -11 46 -16 3 -5 17 -9 32 -9 15 0 40 -7 56 -15 15 -8 41 -15 56 -15 16 0 41 -5 57 -11 15 -7 48 -15 73 -19 25 -5 71 -13 103 -19 253 -49 332 -59 667 -91 228 -22 749 -6 980 30 297 45 438 71 526 96 28 8 64 14 80 14 16 0 38 7 48 15 11 8 28 15 39 15 18 0 98 23 142 41 11 5 61 22 110 38 50 17 128 44 175 62 47 17 97 33 112 36 15 3 33 11 39 19 6 8 17 14 24 14 8 0 26 7 42 15 15 8 109 53 208 101 214 103 492 268 694 410 80 57 153 110 161 117 8 7 74 62 145 122 165 137 434 402 580 570 149 173 310 389 413 555 47 74 99 158 117 185 32 49 62 104 128 240 19 39 53 108 77 155 23 47 47 99 54 115 7 17 20 46 28 65 23 53 136 361 144 393 3 15 10 30 15 33 5 3 9 18 9 33 0 15 7 36 15 47 8 10 15 32 15 47 0 15 6 40 14 55 7 15 16 45 19 67 3 22 18 94 32 160 70 322 99 533 116 835 11 206 5 577 -12 695 -5 39 -14 111 -19 160 -13 123 -28 221 -40 275 -9 42 -61 289 -81 388 -5 23 -13 51 -19 61 -5 11 -10 31 -10 44 0 14 -7 38 -15 53 -8 16 -15 38 -15 50 0 11 -4 24 -8 30 -5 5 -19 41 -31 79 -12 39 -28 84 -36 100 -7 17 -27 71 -45 120 -52 146 -67 180 -173 395 -95 192 -190 361 -272 482 -19 29 -35 56 -35 61 0 4 -5 13 -10 20 -6 7 -66 87 -133 178 -179 242 -287 368 -498 579 -234 235 -564 506 -779 639 -47 29 -120 74 -163 101 -207 131 -558 302 -777 380 -36 13 -69 27 -74 32 -6 4 -16 8 -24 8 -8 0 -28 6 -45 14 -18 8 -41 16 -52 19 -27 7 -105 35 -130 47 -11 4 -31 11 -45 13 -14 3 -52 12 -85 21 -33 9 -121 30 -195 47 -74 16 -144 32 -155 35 -93 23 -352 63 -480 73 -60 5 -148 14 -195 20 -97 13 -548 13 -631 0z m443 -688 c186 -241 490 -695 634 -949 33 -57 66 -115 75 -130 111 -190 302 -568 424 -842 26 -58 56 -125 67 -150 41 -92 47 -107 83 -195 20 -49 40 -99 44 -110 5 -11 16 -40 26 -65 10 -25 23 -58 30 -75 7 -16 20 -48 28 -70 9 -22 28 -71 43 -110 15 -38 44 -119 65 -180 20 -60 43 -126 50 -145 64 -184 90 -263 127 -385 75 -246 90 -294 106 -355 34 -124 33 -123 113 -89 26 11 64 26 83 34 45 16 239 93 265 105 11 5 38 16 60 25 146 60 205 90 210 106 7 21 53 63 95 86 19 11 36 26 38 35 4 22 -16 68 -33 74 -9 4 -88 -29 -188 -79 -282 -140 -298 -147 -340 -147 -47 0 -76 29 -77 78 0 56 -12 49 503 301 235 115 272 126 315 95 17 -12 22 -25 22 -59 0 -37 -5 -47 -30 -67 -91 -69 -86 -63 -67 -92 10 -14 21 -26 25 -26 4 0 32 15 62 33 l55 33 8 85 c11 131 70 236 168 301 82 54 145 71 242 66 106 -6 185 -36 250 -97 99 -92 131 -173 125 -319 -2 -82 -7 -106 -31 -155 -54 -110 -159 -188 -290 -217 -89 -20 -214 6 -300 64 -28 19 -29 19 -103 -5 -41 -13 -74 -29 -74 -35 0 -23 26 -64 41 -64 9 0 30 7 45 15 99 52 194 -44 117 -117 -16 -14 -145 -83 -288 -153 -143 -70 -295 -144 -339 -166 -127 -63 -186 -50 -186 42 0 46 2 50 38 71 20 13 75 41 122 63 47 22 144 70 215 106 142 72 157 90 117 139 l-19 24 -53 -23 c-39 -17 -66 -22 -97 -18 -37 4 -52 -1 -101 -31 -49 -29 -163 -96 -302 -175 -19 -11 -96 -51 -170 -89 -74 -39 -139 -74 -144 -78 -9 -8 -3 -36 36 -190 14 -52 33 -131 43 -175 9 -44 23 -100 31 -124 8 -25 14 -53 14 -64 0 -11 6 -43 14 -71 19 -70 37 -143 46 -191 4 -22 19 -98 34 -170 33 -167 51 -257 71 -375 9 -52 23 -129 30 -170 87 -477 161 -1074 200 -1605 19 -255 19 -250 1 -236 -15 13 -19 22 -66 156 -40 112 -84 229 -120 320 -16 39 -50 124 -76 190 -62 158 -73 185 -90 218 -8 16 -14 33 -14 38 0 5 -17 46 -39 91 -21 46 -57 128 -81 183 -61 145 -259 543 -341 687 -165 287 -292 462 -427 590 -107 101 -148 121 -253 126 -116 6 -275 -21 -434 -73 -81 -26 -319 -135 -399 -181 -44 -26 -90 -52 -101 -58 -25 -14 -265 -174 -326 -218 -136 -99 -368 -294 -544 -457 -276 -256 -723 -743 -965 -1053 -283 -361 -474 -617 -601 -803 -124 -183 -134 -187 -125 -47 4 53 11 160 16 237 9 140 21 275 41 455 6 52 15 147 19 210 5 63 11 122 14 130 3 8 10 58 15 110 26 243 76 622 110 818 5 31 17 102 26 157 10 55 24 130 32 167 8 37 12 71 9 77 -7 11 -66 7 -231 -14 -60 -8 -171 -19 -245 -24 -74 -5 -153 -11 -175 -13 -77 -6 -231 -1 -330 11 -249 31 -381 92 -421 197 -44 116 24 253 222 450 190 188 602 485 956 689 10 6 70 42 135 81 65 39 150 88 188 110 39 21 78 43 87 49 9 5 40 23 70 38 95 51 132 81 139 112 4 17 12 44 17 60 6 17 17 53 25 80 47 158 83 274 118 380 22 66 44 134 49 150 4 17 18 55 30 85 12 30 26 69 30 85 17 60 159 439 195 520 7 17 18 41 23 55 6 14 26 63 46 110 19 47 44 109 56 139 11 30 38 91 59 135 22 45 56 119 77 166 50 111 303 612 362 715 41 72 225 382 255 429 201 317 453 656 488 656 10 0 40 -29 71 -69z m1162 -742 c35 -27 37 -101 4 -136 -23 -25 -74 -31 -109 -13 -27 15 -51 65 -43 95 17 68 94 97 148 54z m-2905 -169 c69 -20 121 -94 121 -174 0 -46 -37 -113 -77 -137 -53 -33 -146 -32 -192 1 -110 82 -98 246 22 301 48 21 77 23 126 9z m3779 -60 c64 -39 79 -141 28 -189 -101 -95 -260 13 -198 135 35 68 108 91 170 54z m-4600 -234 c49 -25 64 -51 64 -106 0 -84 -37 -120 -125 -120 -49 0 -81 19 -102 60 -54 104 60 219 163 166z m4250 -235 c64 -33 88 -100 58 -159 -26 -51 -53 -66 -113 -66 -50 0 -58 3 -84 32 -24 27 -29 41 -29 85 1 57 16 84 65 110 39 21 58 21 103 -2z m-3513 -302 c55 -15 102 -63 120 -121 12 -42 12 -54 -1 -90 -22 -62 -40 -85 -84 -108 -50 -25 -110 -26 -159 0 -49 25 -75 57 -91 115 -28 100 52 203 165 214 6 0 28 -4 50 -10z m4117 -90 c38 -45 43 -79 19 -127 -42 -82 -153 -95 -206 -24 -14 19 -20 43 -20 79 0 43 5 57 26 79 52 52 134 48 181 -7z m-5189 -131 c70 -269 77 -293 98 -310 12 -10 29 -18 38 -18 10 0 37 -6 62 -14 24 -7 73 -22 109 -31 108 -29 174 -52 178 -63 4 -12 -52 -31 -238 -78 -80 -20 -150 -42 -157 -48 -7 -6 -23 -54 -37 -106 -22 -86 -57 -214 -75 -280 -4 -14 -11 -25 -16 -25 -8 0 -28 58 -59 165 -8 30 -22 78 -29 105 -8 28 -20 69 -26 91 -13 50 -22 58 -81 72 -288 73 -372 102 -329 116 44 14 122 36 174 51 33 9 80 22 105 30 25 7 59 16 76 20 37 7 45 22 74 130 52 197 84 295 96 295 6 0 22 -46 37 -102z m5503 -259 c55 -51 50 -140 -11 -187 -33 -26 -92 -29 -134 -7 -31 15 -61 69 -61 108 0 31 38 88 70 105 36 19 106 9 136 -19z m-738 -182 c75 -28 118 -100 110 -187 -9 -89 -80 -150 -175 -150 -56 0 -99 23 -137 73 -22 28 -26 44 -26 99 0 56 4 71 29 105 45 62 125 86 199 60z m-5393 -627 c104 -40 95 -184 -14 -230 -44 -18 -112 8 -141 54 -64 104 38 220 155 176z m-385 -835 c34 -18 50 -43 50 -79 0 -87 -91 -127 -151 -67 -46 47 -38 115 19 145 35 19 46 19 82 1z m6397 -967 c49 -54 56 -106 20 -159 -46 -68 -116 -79 -172 -26 -57 52 -60 133 -7 182 22 20 37 25 83 25 45 0 59 -4 76 -22z m354 -366 c28 -25 31 -33 31 -87 1 -57 -1 -61 -37 -92 -68 -59 -158 -34 -190 51 -15 39 -15 46 -1 80 23 56 52 75 113 76 44 0 58 -5 84 -28z m-2264 -327 c72 -20 99 -135 45 -193 -53 -57 -135 -52 -187 10 -52 62 -20 165 58 187 32 9 41 8 84 -4z m2763 -30 c53 -27 67 -91 30 -138 -27 -34 -52 -41 -95 -27 -82 27 -79 142 5 173 24 9 29 8 60 -8z m-6387 -199 c90 -38 107 -150 33 -213 -26 -21 -37 -25 -82 -21 -32 3 -58 11 -71 24 -66 63 -54 162 25 203 45 24 54 25 95 7z m-729 -78 c36 -125 48 -158 59 -165 17 -11 96 -34 139 -40 38 -5 74 -34 64 -51 -3 -6 -20 -12 -38 -15 -76 -11 -170 -41 -176 -56 -4 -9 -20 -61 -37 -116 -16 -55 -34 -100 -38 -100 -10 0 -46 101 -47 130 0 11 -9 38 -19 61 -17 38 -23 42 -87 58 -38 10 -85 21 -104 25 -41 8 -46 30 -10 47 23 11 101 34 161 48 27 6 26 4 76 171 8 28 17 56 19 63 7 24 20 4 38 -60z m7310 -169 c22 -17 26 -28 26 -69 0 -41 -4 -52 -26 -69 -48 -38 -111 -24 -140 30 -43 83 65 167 140 108z m-3632 -308 c22 -25 28 -41 28 -79 0 -54 -18 -85 -60 -107 -113 -58 -226 64 -160 173 25 41 52 53 114 48 41 -3 55 -9 78 -35z m-2781 -89 c66 -59 27 -157 -62 -157 -33 0 -46 6 -66 30 -21 24 -24 36 -20 69 11 81 88 111 148 58z m3380 -268 c26 -28 34 -56 31 -114 -3 -34 -44 -77 -88 -89 -74 -20 -154 42 -154 119 0 37 39 96 74 111 40 17 106 4 137 -27z m-3876 -115 c32 -29 35 -35 35 -89 0 -53 -3 -61 -32 -85 -50 -42 -76 -49 -125 -30 -52 20 -83 66 -83 123 0 32 7 48 34 76 30 32 39 36 84 36 43 0 57 -5 87 -31z m2314 5 c115 -97 -11 -273 -141 -196 -32 18 -58 68 -58 111 0 34 34 89 63 101 45 18 104 11 136 -16z m2631 -89 c76 -39 94 -127 39 -190 -29 -32 -35 -35 -89 -35 -54 0 -60 3 -89 35 -54 62 -40 142 33 186 37 23 67 24 106 4z m-490 -90 c69 -36 80 -144 21 -197 -25 -23 -41 -28 -80 -28 -57 0 -90 22 -115 75 -22 45 -8 95 38 137 35 32 89 37 136 13z m-3963 -124 c29 -24 45 -67 37 -95 -18 -59 -81 -88 -133 -62 -59 31 -69 95 -22 145 34 36 83 41 118 12z m3024 -133 c7 -12 20 -56 31 -97 24 -99 37 -116 95 -130 103 -25 153 -42 153 -52 0 -11 -30 -24 -122 -48 -38 -10 -77 -26 -87 -35 -10 -9 -26 -51 -36 -94 -19 -82 -42 -138 -53 -127 -7 7 -28 78 -42 144 -14 65 -34 89 -82 101 -108 26 -158 44 -158 56 0 12 46 30 145 55 74 18 66 6 112 169 9 30 17 61 19 68 5 18 12 15 25 -10z m-831 -284 c72 -29 102 -116 61 -178 -56 -84 -178 -73 -217 19 -26 64 0 122 71 159 37 20 36 20 85 0z m1336 -380 c29 -31 34 -42 34 -86 0 -44 -4 -54 -34 -84 -29 -29 -41 -34 -80 -34 -53 0 -90 20 -112 61 -43 84 14 178 110 179 43 0 52 -4 82 -36z"/> <path d="M6768 12823 c-71 -79 -326 -447 -449 -651 -24 -40 -52 -85 -61 -100 -17 -28 -24 -39 -72 -127 -15 -27 -36 -63 -46 -80 -71 -114 -390 -744 -390 -770 0 -2 -18 -41 -39 -87 -47 -101 -194 -451 -248 -593 -9 -22 -21 -53 -28 -70 -16 -40 -55 -147 -98 -270 -20 -55 -47 -134 -62 -175 -15 -41 -30 -88 -35 -105 -5 -16 -18 -55 -29 -85 -12 -30 -26 -71 -31 -90 -7 -30 -94 -320 -134 -450 -16 -53 -40 -136 -62 -217 -9 -32 -20 -71 -24 -88 -5 -16 -25 -97 -45 -180 -20 -82 -42 -175 -50 -205 -17 -68 -48 -202 -89 -380 -49 -216 -49 -216 14 -212 74 6 86 19 110 129 11 54 27 124 35 155 8 32 15 69 15 84 0 14 4 33 10 43 5 10 14 43 19 72 22 118 63 285 74 295 4 4 7 15 7 25 0 9 7 41 16 70 8 30 22 77 30 104 33 114 76 282 81 315 3 19 9 40 13 45 5 6 11 28 15 50 4 22 11 45 15 50 4 6 10 24 14 40 4 17 17 59 30 95 13 36 40 119 61 185 78 248 99 311 110 340 7 17 21 53 30 80 10 28 22 54 27 59 4 6 8 16 8 24 0 8 6 28 14 45 13 30 51 131 77 207 7 19 16 44 20 55 5 11 18 44 29 74 12 30 33 80 47 110 61 133 81 180 103 236 49 127 250 548 345 720 21 39 48 88 60 110 57 105 100 183 119 216 45 78 220 364 226 369 3 3 48 68 99 145 88 132 137 195 151 195 11 0 133 -167 230 -315 51 -77 104 -158 119 -180 30 -43 87 -139 118 -195 10 -19 35 -60 55 -91 62 -95 176 -310 324 -609 161 -328 207 -425 259 -555 33 -82 51 -126 75 -180 7 -17 31 -75 90 -220 15 -35 48 -128 81 -220 17 -49 40 -111 50 -137 42 -105 124 -353 226 -688 14 -47 29 -94 34 -105 5 -11 14 -40 20 -65 5 -25 13 -55 16 -67 10 -41 28 -47 78 -29 25 10 47 22 50 27 4 5 -1 32 -10 61 -8 29 -27 94 -41 143 -14 50 -33 113 -41 140 -8 28 -18 64 -23 80 -4 17 -13 44 -19 60 -6 17 -26 77 -45 135 -58 176 -161 470 -198 565 -20 50 -50 128 -68 175 -43 112 -118 297 -135 335 -8 17 -23 50 -33 75 -79 180 -107 241 -162 356 -74 155 -207 420 -248 495 -76 139 -233 412 -278 482 -183 291 -503 747 -523 747 -4 0 -19 -12 -33 -27z"/> <path d="M6710 10874 c-47 -19 -96 -40 -110 -45 -14 -6 -38 -17 -55 -23 -16 -7 -48 -21 -70 -30 -22 -10 -55 -24 -73 -32 -18 -7 -47 -20 -65 -28 -17 -7 -54 -23 -82 -34 -27 -11 -52 -28 -53 -37 -4 -18 25 -55 43 -55 7 0 56 18 111 41 351 144 373 153 417 175 16 8 38 14 50 14 12 0 87 -27 167 -61 80 -33 179 -74 220 -91 41 -16 89 -36 105 -43 82 -37 101 -39 125 -17 36 33 22 51 -70 89 -98 41 -147 62 -174 76 -11 5 -31 13 -45 17 -14 5 -87 34 -161 64 -74 31 -148 56 -165 56 -16 -1 -68 -16 -115 -36z"/> <path d="M6730 10634 c-47 -19 -96 -40 -110 -46 -14 -6 -38 -16 -55 -23 -16 -7 -48 -20 -70 -30 -22 -9 -53 -23 -70 -30 -16 -7 -60 -25 -98 -40 -37 -16 -71 -33 -76 -39 -8 -10 -49 -105 -103 -241 -11 -27 -31 -72 -43 -100 -88 -194 -98 -237 -71 -298 8 -18 24 -54 36 -82 32 -76 36 -85 69 -158 17 -37 31 -71 31 -76 0 -7 45 -119 72 -176 11 -24 27 -32 333 -155 97 -39 141 -58 180 -78 47 -25 112 -19 185 15 36 17 97 43 135 58 77 30 214 86 287 119 44 19 55 32 79 91 53 132 91 223 140 340 61 144 69 188 45 233 -8 15 -42 95 -76 177 -139 339 -147 355 -172 355 -9 0 -123 46 -218 87 -152 67 -318 133 -331 133 -8 -1 -52 -16 -99 -36z m130 -310 c5 -71 10 -141 10 -156 0 -43 27 -34 58 18 39 67 62 95 73 89 14 -9 11 -67 -7 -119 -9 -27 -13 -51 -8 -56 5 -5 56 29 118 80 60 50 115 90 122 90 31 0 10 -40 -71 -135 -47 -55 -85 -108 -85 -118 0 -16 5 -18 43 -12 23 4 61 13 83 20 83 25 85 -18 4 -61 -48 -26 -77 -51 -68 -59 3 -3 70 -10 149 -15 138 -10 199 -22 199 -42 0 -14 -15 -16 -170 -28 -157 -12 -190 -18 -190 -31 0 -4 32 -27 71 -50 67 -40 89 -62 75 -76 -6 -7 -102 12 -148 29 -67 25 -60 5 36 -116 53 -65 93 -122 90 -127 -7 -12 -41 -11 -49 1 -15 25 -208 171 -216 163 -7 -7 7 -90 26 -150 5 -16 3 -25 -9 -29 -22 -8 -38 6 -64 60 -19 37 -48 64 -57 54 -2 -2 -8 -70 -14 -152 -10 -145 -18 -171 -46 -163 -5 2 -15 74 -21 159 -7 86 -15 161 -18 167 -11 16 -26 13 -33 -6 -15 -42 -69 -113 -85 -113 -21 0 -22 14 -6 92 7 31 9 60 5 64 -7 7 -70 -33 -110 -70 -80 -74 -137 -105 -137 -73 0 7 40 62 90 122 49 61 90 116 90 123 0 16 -40 15 -83 -3 -41 -17 -113 -20 -122 -5 -3 5 16 23 42 39 79 49 90 59 75 69 -8 5 -82 15 -165 22 -156 12 -167 14 -167 31 0 19 54 29 207 39 86 5 158 12 161 15 9 9 -21 36 -62 57 -23 11 -54 30 -69 41 -26 18 -27 21 -13 35 14 15 23 14 92 -6 82 -25 110 -19 83 15 -20 25 -110 132 -136 163 -25 27 -29 45 -13 55 14 9 41 -9 149 -100 49 -41 94 -75 100 -75 15 0 14 24 -4 90 -18 69 -19 100 -2 100 18 0 40 -26 67 -78 40 -76 54 -47 65 135 8 124 18 155 42 130 9 -9 17 -58 23 -143z"/> <path d="M6015 10474 c-8 -20 -15 -38 -15 -41 0 -5 -61 -155 -85 -208 -58 -131 -137 -331 -142 -358 -5 -31 5 -61 63 -197 16 -37 29 -67 48 -115 7 -16 20 -46 28 -65 9 -19 30 -71 48 -115 17 -44 38 -93 45 -110 7 -16 16 -38 19 -47 6 -19 29 -15 59 10 18 16 23 52 8 67 -7 9 -35 74 -133 315 -38 93 -56 137 -74 173 -19 39 -18 121 1 137 8 7 15 18 15 24 0 6 14 45 31 86 16 41 44 109 61 150 34 85 56 136 71 164 5 11 13 31 17 45 4 14 11 33 14 42 7 16 -37 79 -55 79 -5 0 -16 -16 -24 -36z"/> <path d="M7586 10484 c-32 -33 -32 -42 -2 -107 35 -78 94 -220 138 -332 21 -55 45 -113 53 -128 24 -47 18 -77 -51 -248 -37 -90 -72 -177 -78 -194 -6 -16 -17 -40 -24 -52 -7 -12 -12 -27 -12 -32 0 -6 -11 -34 -25 -63 -31 -64 -31 -79 -1 -108 26 -24 56 -22 56 4 0 8 7 27 15 43 8 15 37 84 64 153 75 191 118 292 147 351 26 52 28 104 5 156 -12 26 -28 62 -35 78 -12 29 -31 72 -60 138 -7 17 -30 73 -50 122 -21 50 -41 99 -46 110 -4 11 -18 46 -31 78 -12 31 -26 57 -29 57 -4 0 -19 -12 -34 -26z"/> <path d="M7750 9282 c0 -26 -4 -39 -12 -38 -15 1 -18 -5 -18 -34 0 -11 5 -20 12 -20 6 0 20 -8 31 -17 20 -17 20 -17 12 2 -19 48 -18 66 4 72 11 3 21 12 21 20 0 9 -6 13 -14 10 -10 -4 -13 -1 -10 7 3 7 -2 19 -11 26 -13 11 -15 7 -15 -28z"/> <path d="M6167 9225 c-9 -7 -17 -17 -17 -23 0 -5 -6 -12 -13 -15 -7 -3 -43 -62 -81 -131 -37 -69 -72 -128 -77 -132 -5 -3 -9 -12 -9 -21 0 -8 -13 -32 -28 -52 -16 -20 -36 -49 -44 -66 -44 -85 -68 -139 -68 -154 0 -9 -9 -24 -20 -33 -11 -10 -22 -30 -26 -45 -4 -15 -17 -42 -30 -60 -13 -17 -24 -36 -24 -42 0 -5 -13 -30 -30 -54 -16 -25 -30 -48 -30 -51 0 -3 -14 -36 -31 -73 -17 -38 -40 -88 -52 -113 -11 -25 -26 -52 -34 -62 -23 -26 2 -31 65 -13 168 48 328 85 364 85 14 0 39 7 54 15 16 8 43 15 61 15 17 0 34 4 38 9 3 6 26 13 50 17 25 3 45 10 45 14 0 5 18 11 41 15 22 4 53 13 67 21 15 8 34 14 43 14 9 0 30 7 45 15 16 8 41 15 56 15 15 0 30 4 33 10 3 5 28 12 56 16 27 4 52 10 55 15 2 4 31 11 64 15 40 4 60 11 60 20 0 10 14 13 51 10 33 -2 56 2 64 11 8 7 28 15 46 17 18 2 38 11 44 20 8 10 27 16 49 16 40 0 43 4 21 26 -17 17 -20 50 -5 59 5 3 7 19 3 35 -5 25 -2 30 14 30 23 0 50 -28 50 -50 1 -8 4 -22 7 -31 6 -13 -1 -18 -31 -24 -31 -6 -35 -9 -18 -15 29 -11 85 0 85 16 0 10 13 14 40 14 29 0 42 5 50 20 14 26 -11 39 -67 34 -43 -3 -43 -3 -43 30 0 35 13 46 51 46 11 0 23 10 29 24 5 13 14 26 21 28 14 5 5 38 -10 38 -5 0 -11 -10 -13 -22 -3 -21 -16 -26 -81 -31 -16 -1 -33 -10 -38 -19 -10 -18 -35 -23 -63 -12 -21 8 -20 29 0 53 14 16 21 17 40 9 19 -9 26 -6 48 18 14 16 23 35 21 42 -3 8 7 12 30 12 19 0 35 -4 35 -10 0 -5 -12 -10 -27 -10 -23 -1 -25 -2 -11 -10 18 -11 67 5 81 27 4 7 17 13 27 13 26 0 35 17 19 37 -12 14 -9 15 27 11 23 -3 46 -8 51 -11 6 -4 9 4 8 18 -4 30 19 50 59 50 23 0 31 4 30 17 -1 14 6 16 43 13 31 -2 43 0 40 8 -6 19 -89 21 -99 3 -5 -8 -15 -13 -22 -10 -7 3 -21 -3 -31 -13 -10 -9 -27 -19 -39 -20 -18 -3 -62 -23 -116 -52 -21 -12 -80 -32 -110 -38 -14 -3 -30 -12 -37 -20 -8 -11 -22 -14 -42 -10 -20 4 -35 1 -45 -8 -8 -8 -21 -15 -29 -15 -8 0 -22 -9 -32 -20 -10 -11 -29 -20 -42 -20 -12 0 -23 -4 -23 -10 0 -12 -47 -13 -54 -1 -3 5 -18 12 -32 15 -15 4 -33 14 -41 21 -8 8 -23 15 -33 15 -10 0 -22 5 -25 10 -3 6 -16 10 -28 10 -12 0 -35 7 -51 15 -15 8 -33 15 -38 15 -5 0 -29 9 -53 20 -28 13 -54 18 -70 14 -20 -5 -24 -3 -19 10 4 10 1 16 -7 16 -8 0 -45 16 -82 35 -38 19 -74 35 -82 35 -7 0 -15 5 -17 11 -2 6 -17 13 -32 14 -16 2 -32 9 -36 15 -3 6 -21 12 -38 13 -29 2 -32 5 -32 37 0 28 10 45 45 83 25 26 45 52 45 57 0 6 13 10 29 10 35 0 51 18 24 26 -10 3 -25 9 -33 14 -10 4 -23 3 -33 -5z m303 -408 c0 -7 -5 -18 -12 -25 -9 -9 -9 -12 0 -12 7 0 12 5 12 10 0 6 5 10 11 10 6 0 9 -7 5 -15 -3 -9 4 -21 20 -31 22 -15 25 -23 22 -63 l-3 -46 -53 -2 c-39 -2 -52 0 -49 10 2 6 0 20 -5 30 -5 10 -6 27 -3 38 7 20 7 20 25 2 34 -33 50 -44 50 -34 0 5 -4 13 -10 16 -5 3 -10 17 -10 31 0 13 -3 24 -7 25 -5 0 -20 2 -35 4 -17 2 -33 -3 -43 -16 -20 -21 -35 -17 -35 12 0 12 7 19 20 19 11 0 20 4 20 10 0 5 11 12 25 16 14 3 25 10 25 15 0 5 7 9 15 9 8 0 15 -6 15 -13z m113 -103 c1 -4 -8 -9 -20 -10 -22 -4 -22 -3 -5 14 15 16 20 15 25 -4z m96 -6 c8 -1 33 -21 57 -45 24 -26 51 -45 65 -45 54 -3 66 -38 14 -38 -24 0 -35 5 -35 15 0 8 -4 15 -10 15 -5 0 -25 15 -43 34 -27 26 -40 33 -61 29 -17 -4 -34 1 -46 12 -25 23 -15 39 19 31 14 -4 32 -7 40 -8z m-67 -111 c-4 -15 -6 -15 -16 -3 -6 8 -20 17 -31 19 -11 2 -8 3 8 2 21 -1 27 3 28 19 0 20 1 21 8 1 4 -11 6 -28 3 -38z m298 33 c0 -16 -6 -19 -35 -18 -27 1 -35 6 -35 20 0 14 8 18 35 18 28 0 35 -4 35 -20z m-510 -20 c0 -5 6 -10 13 -10 7 0 23 -13 35 -30 13 -16 29 -30 37 -30 26 0 16 -25 -15 -38 -30 -14 -41 -44 -20 -57 18 -11 11 -64 -12 -87 l-21 -21 6 31 c6 28 4 32 -16 33 -12 0 -16 3 -9 6 17 7 15 38 -3 53 -12 10 -16 8 -25 -11 -7 -19 -9 -10 -6 36 2 33 -1 68 -6 78 -13 25 0 57 23 57 10 0 19 -4 19 -10z m542 -72 c-3 -12 -14 -17 -37 -16 -31 1 -31 2 -13 20 10 10 23 18 28 18 6 0 10 8 11 18 0 14 2 14 8 -3 4 -11 6 -27 3 -37z m72 44 c8 -13 -8 -28 -31 -29 -20 -2 -21 -1 -5 17 19 21 28 24 36 12z m-454 -27 c0 -8 -7 -15 -15 -15 -8 0 -15 7 -15 15 0 8 7 15 15 15 8 0 15 -7 15 -15z m210 0 c0 -8 -7 -15 -15 -15 -8 0 -15 7 -15 15 0 8 7 15 15 15 8 0 15 -7 15 -15z m89 -27 c1 -5 -3 -8 -9 -8 -5 0 -10 12 -9 28 0 24 1 25 9 7 5 -11 9 -23 9 -27z m-99 -53 c0 -12 -4 -11 -20 5 -11 11 -20 27 -20 35 0 12 4 11 20 -5 11 -11 20 -27 20 -35z m70 32 c0 -13 5 -28 12 -35 19 -19 -22 -15 -44 5 -27 24 -23 53 7 53 19 0 25 -5 25 -23z m-192 -39 l27 -3 -32 -32 -32 -31 1 51 c1 29 3 44 5 35 3 -10 16 -18 31 -20z m-310 -115 c15 -11 12 -12 -20 -13 -43 0 -50 18 -20 48 16 17 17 17 20 -2 2 -11 11 -26 20 -33z"/> <path d="M6380 8552 c0 -7 5 -12 11 -12 6 0 9 -6 6 -14 -3 -7 -1 -18 5 -24 15 -15 38 -3 38 19 0 12 -7 19 -18 19 -10 0 -23 5 -30 12 -9 9 -12 9 -12 0z"/> <path d="M7475 9220 c5 -14 8 -33 7 -44 0 -10 7 -27 18 -38 16 -17 21 -18 42 -7 20 11 20 14 6 17 -10 2 -18 10 -18 18 0 8 -7 14 -16 14 -8 0 -13 4 -10 9 3 4 -4 19 -15 32 l-21 24 7 -25z"/> <path d="M7416 9211 c-9 -14 34 -25 47 -12 8 8 8 11 0 11 -6 0 -18 3 -26 6 -8 3 -18 1 -21 -5z"/> <path d="M7690 9159 c0 -17 4 -28 10 -24 6 3 10 17 10 31 0 13 -4 24 -10 24 -5 0 -10 -14 -10 -31z"/> <path d="M7770 9144 c0 -13 48 -59 55 -52 3 2 -9 17 -25 33 -17 16 -30 24 -30 19z"/> <path d="M7390 9113 c-25 -8 -162 -65 -218 -90 -116 -53 -322 -133 -341 -133 -20 0 -223 78 -326 125 -27 12 -75 33 -105 45 -30 12 -69 29 -87 36 -41 18 -73 18 -101 -2 -41 -28 -30 -40 80 -89 29 -12 237 -96 323 -130 33 -12 74 -30 120 -50 76 -34 103 -39 132 -26 15 7 42 19 58 26 17 7 46 19 65 28 19 8 87 36 150 62 63 26 146 60 184 76 38 16 74 29 80 29 6 0 25 11 41 25 l30 25 -28 25 c-29 26 -32 27 -57 18z"/> <path d="M7618 9093 c-40 -3 -48 -8 -48 -24 0 -10 4 -19 9 -19 5 0 17 -3 26 -6 12 -5 16 -2 13 12 -2 15 4 20 30 22 17 2 32 7 32 13 0 5 -3 8 -7 7 -5 -1 -29 -3 -55 -5z"/> <path d="M7640 9005 c0 -16 6 -25 15 -25 8 0 15 9 15 19 0 10 -7 21 -15 25 -11 4 -15 -1 -15 -19z"/> <path d="M4845 9009 c-4 -5 -17 -15 -28 -20 -12 -5 -31 -15 -42 -22 -11 -7 -72 -41 -135 -76 -63 -35 -175 -102 -249 -148 -73 -45 -135 -83 -137 -83 -2 0 -22 -12 -46 -27 -24 -16 -50 -32 -60 -38 -23 -14 -232 -156 -300 -204 -226 -160 -392 -303 -502 -436 -56 -67 -74 -97 -96 -159 -17 -51 -17 -54 1 -93 46 -101 243 -153 578 -153 290 0 841 66 1256 152 55 11 120 24 145 28 25 4 68 13 95 20 84 20 157 38 225 54 220 51 386 91 460 111 47 13 102 27 123 30 20 4 40 11 43 16 3 5 14 9 24 9 11 0 41 7 67 15 26 8 71 22 98 30 75 22 251 74 330 97 39 11 102 31 142 44 39 13 77 24 83 24 7 0 26 6 43 14 18 8 122 44 232 81 110 37 209 70 220 75 11 5 47 18 80 29 33 11 83 29 110 39 28 11 82 32 120 47 220 84 302 117 317 125 10 6 22 10 28 10 5 0 38 13 72 28 173 79 228 103 278 122 30 12 134 60 230 107 96 47 203 98 238 115 79 38 87 69 9 34 -18 -7 -50 -20 -72 -29 -22 -8 -65 -25 -95 -37 -30 -13 -97 -37 -148 -55 -51 -18 -96 -35 -99 -39 -4 -3 -13 -6 -22 -6 -9 0 -28 -6 -43 -14 -15 -8 -40 -17 -57 -21 -17 -4 -33 -11 -36 -16 -4 -5 -13 -9 -22 -9 -8 0 -29 -6 -46 -14 -37 -17 -249 -90 -392 -136 -55 -18 -110 -36 -122 -41 -85 -32 -431 -144 -583 -189 -41 -12 -84 -25 -95 -29 -26 -11 -196 -64 -305 -95 -81 -24 -147 -42 -255 -71 -27 -8 -75 -21 -105 -30 -30 -9 -80 -23 -110 -31 -30 -9 -77 -22 -105 -30 -91 -26 -428 -110 -570 -143 -77 -18 -165 -38 -195 -46 -30 -7 -89 -21 -130 -29 -41 -9 -106 -22 -145 -30 -410 -86 -834 -113 -938 -60 -185 94 -34 294 453 604 75 47 75 48 115 185 10 33 24 78 31 100 6 22 24 81 39 130 14 50 33 111 41 137 7 26 14 49 14 52 0 11 -49 6 -55 -5z"/> <path d="M7500 8990 c0 -5 9 -10 19 -10 11 0 23 5 26 10 4 6 -5 10 -19 10 -14 0 -26 -4 -26 -10z"/> <path d="M6815 8970 c-3 -5 3 -10 15 -10 12 0 18 5 15 10 -3 6 -10 10 -15 10 -5 0 -12 -4 -15 -10z"/> <path d="M7782 8913 c5 -26 38 -29 38 -4 0 15 -6 21 -21 21 -14 0 -19 -5 -17 -17z"/> <path d="M7593 8891 c1 -22 12 -28 21 -12 3 5 -1 14 -9 21 -11 9 -14 8 -12 -9z"/> <path d="M7680 8902 c0 -5 9 -17 19 -26 11 -10 17 -24 14 -32 -3 -8 -1 -14 5 -14 5 0 12 7 16 15 3 9 12 12 23 8 16 -6 16 -4 -1 16 -11 12 -26 19 -33 17 -7 -3 -19 2 -28 10 -8 9 -15 11 -15 6z"/> <path d="M7640 8855 c0 -8 7 -15 15 -15 8 0 15 7 15 15 0 8 -7 15 -15 15 -8 0 -15 -7 -15 -15z"/> <path d="M7497 8843 c-12 -12 -7 -19 14 -20 17 -2 18 1 9 13 -14 16 -14 16 -23 7z"/> <path d="M7401 8807 c-53 -56 -59 -60 -88 -51 -43 12 -48 11 -49 -13 -1 -18 2 -20 16 -13 17 9 51 7 70 -5 6 -3 7 1 4 10 -4 11 -2 14 9 9 8 -3 24 4 35 16 13 14 29 20 48 18 24 -3 28 1 29 21 0 33 -45 38 -74 8z"/> <path d="M7333 8813 c-31 -6 -51 -32 -33 -43 20 -13 53 4 55 28 1 12 1 21 1 21 -1 -1 -11 -4 -23 -6z"/> <path d="M7965 8810 c-4 -6 5 -10 19 -10 14 0 26 5 26 10 0 6 -9 10 -19 10 -11 0 -23 -4 -26 -10z"/> <path d="M7860 8781 c0 -5 6 -11 13 -14 18 -6 48 4 41 14 -7 12 -54 12 -54 0z"/> <path d="M7610 8763 c0 -10 13 -27 27 -37 26 -19 26 -19 19 0 -5 10 -11 27 -13 37 -3 9 -12 17 -19 17 -8 0 -14 -8 -14 -17z"/> <path d="M8661 8766 c-7 -9 -22 -16 -32 -16 -10 0 -26 -11 -34 -24 -15 -22 -14 -32 10 -133 26 -108 48 -190 66 -250 6 -18 14 -54 19 -80 5 -27 17 -77 25 -113 9 -36 19 -76 21 -90 3 -14 12 -56 20 -95 22 -108 80 -409 99 -515 9 -52 23 -120 31 -151 8 -30 14 -69 14 -87 0 -17 5 -43 11 -58 5 -16 14 -66 20 -113 5 -48 12 -106 15 -131 l5 -45 -31 68 c-16 38 -30 77 -30 86 0 9 -7 26 -15 37 -8 10 -15 29 -15 41 0 12 -10 31 -21 42 -16 15 -20 27 -15 45 4 15 2 26 -4 26 -5 0 -10 -6 -10 -12 -1 -16 -27 17 -46 57 -8 17 -26 50 -39 74 -14 24 -25 50 -25 56 0 7 -6 18 -14 24 -7 6 -16 24 -19 40 -3 15 -17 42 -31 59 -15 16 -26 37 -26 46 0 9 -4 16 -9 16 -7 0 -58 72 -106 148 -5 9 -16 22 -22 30 -7 7 -13 22 -13 32 0 10 -7 20 -15 24 -8 3 -15 12 -15 21 0 8 -27 42 -60 76 -33 33 -60 63 -60 66 0 10 -54 74 -102 121 -66 65 -75 72 -92 72 -7 0 -16 7 -20 15 -3 8 -15 15 -26 15 -11 0 -23 7 -26 15 -4 8 -12 15 -19 15 -7 0 -18 7 -25 15 -7 8 -22 15 -34 15 -11 0 -34 7 -50 15 -21 11 -64 15 -165 15 -108 1 -132 3 -116 12 11 7 54 13 95 14 118 2 130 3 130 13 0 5 -13 12 -29 16 -20 4 -28 11 -24 21 4 10 -2 14 -20 14 -14 0 -27 -7 -31 -15 -3 -9 -18 -15 -39 -15 -19 0 -40 -6 -47 -14 -6 -8 -17 -13 -24 -10 -8 3 -22 -3 -31 -13 -10 -10 -22 -18 -26 -18 -4 0 -11 -3 -15 -7 -4 -5 -2 -8 5 -8 7 0 9 -4 6 -10 -3 -5 -32 -10 -65 -10 -42 0 -59 -4 -64 -15 -3 -10 -19 -15 -45 -15 -24 0 -41 -5 -44 -14 -3 -8 -23 -16 -44 -19 -71 -10 -148 -31 -161 -44 -8 -7 -24 -10 -37 -7 -17 4 -29 0 -42 -15 -11 -13 -29 -21 -50 -21 -18 0 -32 -5 -31 -11 2 -6 -16 -11 -43 -13 -28 -1 -53 -9 -63 -19 -10 -9 -30 -17 -46 -17 -16 0 -32 -4 -35 -10 -3 -5 -17 -10 -30 -10 -13 0 -30 -6 -38 -14 -8 -8 -32 -18 -53 -22 -51 -9 -62 -16 -38 -25 10 -4 -15 -6 -56 -6 -79 1 -114 -8 -89 -24 9 -5 -10 -8 -48 -8 -45 1 -67 -3 -78 -15 -10 -9 -33 -16 -55 -16 -21 0 -40 -4 -42 -9 -1 -6 -23 -12 -47 -15 -24 -3 -47 -10 -51 -15 -3 -6 -26 -13 -50 -16 -25 -3 -49 -10 -54 -15 -6 -6 -21 -10 -34 -10 -13 0 -38 -6 -55 -14 -18 -8 -48 -17 -67 -19 -19 -3 -53 -10 -75 -15 -86 -22 -182 -42 -230 -48 -27 -3 -54 -10 -59 -15 -6 -5 -31 -9 -57 -9 -29 0 -51 -6 -59 -15 -7 -8 -29 -15 -49 -15 -20 0 -41 -4 -46 -8 -13 -9 -55 -95 -56 -113 0 -8 -9 -27 -20 -44 -10 -16 -22 -37 -25 -45 -4 -8 -19 -42 -34 -75 -15 -33 -44 -100 -65 -150 -20 -49 -41 -99 -46 -110 -4 -11 -17 -41 -28 -67 -12 -26 -21 -52 -21 -57 0 -6 -4 -11 -10 -11 -5 0 -10 -5 -10 -11 0 -9 -9 -32 -50 -124 -5 -11 -12 -31 -16 -45 -3 -14 -16 -47 -29 -75 -12 -27 -32 -71 -44 -98 -11 -26 -21 -52 -21 -58 0 -5 -13 -37 -30 -71 -16 -33 -30 -68 -30 -77 0 -9 -11 -33 -25 -53 -14 -20 -25 -44 -25 -52 0 -16 -32 -104 -52 -143 -6 -12 -8 -28 -5 -36 3 -8 -2 -22 -12 -31 -10 -9 -35 -60 -56 -114 -20 -53 -41 -105 -46 -114 -5 -10 -9 -26 -9 -36 0 -10 -7 -27 -15 -38 -13 -18 -14 -16 -15 24 0 24 4 62 10 85 5 23 14 92 20 152 18 200 29 289 39 340 5 28 15 91 21 140 11 93 25 187 61 435 12 80 24 172 28 205 3 33 10 66 15 73 4 7 11 45 16 85 4 40 13 97 21 128 18 81 11 92 -54 84 -28 -4 -57 -11 -63 -16 -6 -5 -16 -41 -23 -81 -7 -40 -18 -107 -26 -148 -13 -72 -31 -179 -60 -360 -13 -78 -27 -179 -54 -380 -16 -114 -48 -406 -66 -585 -8 -88 -22 -225 -30 -305 -21 -211 -27 -350 -17 -350 5 0 40 43 78 95 38 53 77 105 87 117 9 12 47 63 82 113 36 50 73 100 82 110 10 11 47 58 82 105 36 47 90 117 122 155 151 184 312 378 327 394 9 10 83 91 164 182 168 189 490 508 658 654 63 55 117 102 120 105 34 35 323 254 410 311 162 106 201 130 260 164 117 66 333 166 431 200 170 59 309 85 456 85 176 0 217 -18 359 -158 139 -137 263 -315 459 -657 33 -57 265 -521 265 -529 0 -3 13 -34 29 -68 71 -152 176 -400 206 -483 10 -27 22 -54 25 -60 4 -5 17 -38 28 -72 12 -34 30 -76 40 -93 29 -46 33 -18 17 97 -14 102 -29 230 -46 393 -5 52 -14 111 -19 130 -6 19 -10 51 -10 70 0 19 -6 71 -14 115 -8 44 -22 125 -30 180 -25 157 -65 402 -81 490 -9 44 -20 109 -25 145 -6 35 -15 80 -20 100 -5 19 -16 73 -25 120 -9 47 -23 110 -30 140 -7 30 -18 78 -24 105 -45 210 -117 518 -131 555 -5 14 -11 42 -15 62 -3 20 -14 46 -23 58 -16 20 -19 21 -31 6z m-1756 -745 c-3 -6 -14 -11 -23 -11 -15 1 -15 2 2 15 21 16 32 13 21 -4z m-45 -21 c0 -13 -28 -25 -38 -16 -3 4 0 11 8 16 20 13 30 12 30 0z m-54 -42 c-10 -5 -25 -6 -34 -2 -14 6 -13 8 8 14 31 9 48 0 26 -12z m-66 -28 c-8 -5 -18 -6 -24 -3 -5 4 -1 10 10 13 24 9 34 2 14 -10z m-65 -32 c-19 -11 -30 -5 -21 11 4 6 14 7 22 4 15 -5 14 -7 -1 -15z m-120 -13 c0 -13 -7 -20 -19 -20 -11 0 -23 -10 -27 -24 -7 -18 -15 -22 -34 -19 -14 3 -25 2 -25 -3 0 -13 -35 -28 -46 -21 -7 5 -6 18 3 41 13 31 15 32 32 17 16 -15 20 -14 47 19 32 39 69 44 69 10z m-243 -80 c2 -21 0 -34 -7 -34 -26 3 -32 -3 -27 -26 2 -14 11 -25 18 -25 8 0 14 -10 14 -22 -1 -21 -2 -22 -14 -5 -7 9 -23 17 -35 17 -17 0 -21 6 -21 35 0 24 5 35 15 35 8 0 15 5 15 10 0 8 26 43 36 49 1 1 4 -15 6 -34z m64 -11 c-3 -9 -6 -18 -6 -20 0 -2 -9 -4 -20 -4 -19 0 -19 1 -2 19 21 24 36 26 28 5z m144 -9 c0 -8 -5 -15 -11 -15 -7 0 -17 -7 -24 -17 -8 -11 -18 -14 -31 -8 -17 7 -16 9 9 18 15 6 27 17 27 24 0 7 7 13 15 13 8 0 15 -7 15 -15z m-92 -57 c-5 -15 -48 -24 -48 -10 0 14 12 22 33 22 10 0 17 -5 15 -12z m-168 -68 c0 -5 -7 -10 -15 -10 -8 0 -15 5 -15 10 0 6 7 10 15 10 8 0 15 -4 15 -10z m-90 -50 c-11 -11 -27 -20 -37 -20 -14 0 -14 2 2 20 10 11 26 20 37 20 17 0 17 -1 -2 -20z m39 -55 c-28 -28 -39 -31 -39 -10 0 8 7 15 15 15 8 0 15 5 15 10 0 6 7 10 16 10 13 0 11 -5 -7 -25z"/> <path d="M7723 8742 l-25 -27 32 -3 c19 -2 39 3 49 12 10 9 30 16 46 16 43 0 18 18 -33 25 -38 4 -46 2 -69 -23z"/> <path d="M7474 8727 c1 -28 -3 -32 -26 -35 -16 -2 -28 -9 -28 -18 0 -16 36 -19 45 -4 5 8 11 8 19 0 19 -15 102 -29 118 -19 11 7 10 11 -2 18 -8 5 -17 8 -22 5 -4 -3 -17 5 -28 16 -12 12 -28 19 -37 16 -10 -4 -13 -2 -10 8 3 8 -2 21 -12 30 -16 14 -17 13 -17 -17z"/> <path d="M7356 8701 c-3 -5 1 -14 8 -20 16 -13 32 2 21 19 -8 12 -22 13 -29 1z"/> <path d="M7620 8690 c-11 -7 -5 -10 23 -10 20 0 37 5 37 10 0 13 -40 13 -60 0z"/> <path d="M7234 8668 c-7 -12 15 -38 32 -38 7 0 22 -10 33 -21 16 -18 28 -21 62 -16 23 3 45 11 49 17 4 6 11 10 16 9 5 -1 31 -1 58 0 82 2 40 16 -48 16 -73 0 -81 2 -81 19 0 17 -8 19 -58 21 -32 1 -60 -3 -63 -7z"/> <path d="M7250 8570 c-12 -8 -9 -10 13 -10 16 0 26 4 22 10 -8 12 -16 12 -35 0z"/> <path d="M8220 8544 c0 -3 6 -12 14 -20 20 -19 26 -18 26 6 0 13 -7 20 -20 20 -11 0 -20 -3 -20 -6z"/> <path d="M8150 8510 c0 -5 9 -10 20 -10 11 0 20 5 20 10 0 6 -9 10 -20 10 -11 0 -20 -4 -20 -10z"/> <path d="M8098 8478 c8 -8 17 -8 34 0 22 10 21 11 -11 11 -27 1 -32 -2 -23 -11z"/> <path d="M7960 8420 c0 -5 9 -10 20 -10 11 0 20 5 20 10 0 6 -9 10 -20 10 -11 0 -20 -4 -20 -10z"/> <path d="M4593 8267 c-154 -103 -305 -226 -343 -279 -39 -54 -40 -95 -2 -109 76 -30 350 -33 386 -5 9 6 30 82 51 186 54 256 53 254 60 273 14 35 -31 16 -152 -66z"/> <path d="M8032 8258 c3 -7 13 -15 22 -16 12 -3 17 1 14 10 -3 7 -13 15 -22 16 -12 3 -17 -1 -14 -10z"/> <path d="M8660 7610 c0 -19 3 -21 12 -12 9 9 9 15 0 24 -9 9 -12 7 -12 -12z"/> <path d="M2897 13101 c-30 -11 -187 -154 -187 -169 0 -21 112 -152 130 -152 23 0 210 172 210 193 0 16 -48 84 -76 108 -25 21 -54 29 -77 20z"/> <path d="M11452 12118 c-18 -18 -16 -25 33 -92 90 -121 96 -127 118 -124 42 6 32 42 -40 137 -66 89 -87 103 -111 79z"/> <path d="M11327 12029 c-29 -17 -20 -42 54 -142 71 -96 102 -118 116 -81 8 21 -7 51 -70 136 -67 91 -77 99 -100 87z"/> <path d="M12120 10967 c-34 -17 -35 -37 -5 -104 66 -144 71 -150 118 -137 52 15 49 43 -21 197 -28 61 -43 69 -92 44z"/> <path d="M1250 10866 c0 -18 72 -106 87 -106 12 0 53 82 53 106 0 11 -17 14 -70 14 -52 0 -70 -3 -70 -14z"/> <path d="M861 9764 c-11 -14 -23 -42 -27 -63 -3 -20 -13 -61 -20 -91 -24 -94 -21 -106 34 -124 26 -8 71 -17 101 -18 l55 -3 17 65 c57 216 55 225 -49 248 -76 17 -88 15 -111 -14z"/> <path d="M12472 9665 c3 -25 13 -56 22 -70 l16 -25 54 43 c30 23 55 47 55 53 1 12 -93 44 -129 44 -21 0 -22 -3 -18 -45z"/> <path d="M795 8996 c-60 -25 -75 -34 -75 -45 0 -13 120 -82 131 -75 11 6 12 131 2 137 -5 2 -30 -6 -58 -17z"/> <path d="M1378 6048 c-8 -22 31 -98 51 -98 17 0 81 78 81 99 0 16 -127 15 -132 -1z"/> <path d="M11878 5923 c-25 -29 -98 -171 -98 -191 0 -25 35 -56 89 -81 67 -29 78 -19 168 149 26 49 17 78 -34 110 -53 34 -102 39 -125 13z"/> <path d="M1697 5610 c-31 -25 -30 -30 34 -126 64 -95 72 -101 105 -79 22 14 25 22 20 47 -8 38 -96 172 -117 176 -8 1 -27 -7 -42 -18z"/> <path d="M11096 4762 c-3 -5 3 -31 15 -56 23 -54 48 -60 77 -18 32 46 33 51 15 60 -29 15 -100 24 -107 14z"/> <path d="M10728 4413 c-1 -5 -30 -33 -63 -63 -79 -72 -82 -77 -54 -106 12 -13 28 -24 34 -24 6 0 43 30 83 66 72 66 87 95 60 122 -13 13 -54 16 -60 5z"/> <path d="M9801 3701 c-88 -54 -88 -54 -65 -96 10 -19 21 -35 24 -35 15 0 152 89 164 106 9 12 11 27 5 42 -12 33 -54 28 -128 -17z"/> <path d="M9275 3412 c-106 -56 -114 -72 -70 -159 25 -48 31 -53 60 -53 18 0 60 14 93 30 34 17 65 30 70 30 4 0 21 13 37 30 l28 29 -17 45 c-21 56 -58 96 -88 96 -13 -1 -63 -22 -113 -48z"/> <path d="M5510 2941 c-16 -30 -12 -68 8 -76 35 -13 163 -34 178 -28 21 8 36 41 29 63 -4 12 -22 24 -48 30 -23 6 -58 15 -77 21 -53 14 -78 11 -90 -10z"/> <path d="M7940 2963 c-51 -8 -165 -37 -174 -44 -9 -8 21 -176 33 -183 4 -3 24 0 46 5 22 5 76 17 120 27 94 21 105 34 95 111 -10 80 -35 98 -120 84z"/> <path d="M7253 2861 c-29 -4 -58 -12 -64 -18 -13 -13 -3 -72 14 -79 7 -2 57 2 112 9 94 12 100 14 109 39 19 55 -22 67 -171 49z"/> <path d="M6661 2768 c-35 -71 -32 -78 39 -78 70 0 75 8 46 67 -41 82 -49 83 -85 11z"/> </g> </svg> 